<?xml version="1.0" encoding="UTF-8" standalone="no"?>
<!-- Created with Inkscape (http://www.inkscape.org/) -->

<svg
   xmlns:dc="http://purl.org/dc/elements/1.1/"
   xmlns:cc="http://creativecommons.org/ns#"
   xmlns:rdf="http://www.w3.org/1999/02/22-rdf-syntax-ns#"
   xmlns:svg="http://www.w3.org/2000/svg"
   xmlns="http://www.w3.org/2000/svg"
   xmlns:sodipodi="http://sodipodi.sourceforge.net/DTD/sodipodi-0.dtd"
   xmlns:inkscape="http://www.inkscape.org/namespaces/inkscape"
   version="1.1"
   id="svg815"
   width="238"
   height="240.01466"
   viewBox="0 0 238 240.01466"
   sodipodi:docname="chat-active.svg"
   inkscape:version="0.92.4 (5da689c313, 2019-01-14)">
  <metadata
     id="metadata821">
    <rdf:RDF>
      <cc:Work
         rdf:about="">
        <dc:format>image/svg+xml</dc:format>
        <dc:type
           rdf:resource="http://purl.org/dc/dcmitype/StillImage" />
        <dc:title></dc:title>
      </cc:Work>
    </rdf:RDF>
  </metadata>
  <defs
     id="defs819" />
  <sodipodi:namedview
     pagecolor="#ffffff"
     bordercolor="#666666"
     borderopacity="1"
     objecttolerance="10"
     gridtolerance="10"
     guidetolerance="10"
     inkscape:pageopacity="0"
     inkscape:pageshadow="2"
     inkscape:window-width="1920"
     inkscape:window-height="1017"
     id="namedview817"
     showgrid="false"
     inkscape:pagecheckerboard="false"
     fit-margin-top="0"
     fit-margin-left="0"
     fit-margin-right="0"
     fit-margin-bottom="0"
     inkscape:zoom="1.5"
     inkscape:cx="-68.332994"
     inkscape:cy="121.40461"
     inkscape:window-x="1912"
     inkscape:window-y="-8"
     inkscape:window-maximized="1"
     inkscape:current-layer="svg815" />
  <path
     style="fill:#27393d;fill-opacity:1"
     d="M 53.82599,238.40737 C 49.4155,235.67119 49,233.3812 49,211.80909 v -20.2163 l -4.97559,-1.18191 C 29.62118,186.98949 12.80191,173.47868 6.27243,160.08497 0.11286,147.45003 0,146.29623 0,95.96101 V 50.222734 L 2.4893,42.342701 C 8.97661,21.806728 26.4131,6.0308993 47.5,1.6188424 c 10.31609,-2.15845652 132.68391,-2.15845652 143,0 21.0869,4.4120569 38.52339,20.1878856 45.0107,40.7238586 L 238,50.222734 V 95.96101 c 0,50.34684 -0.13836,51.77067 -6.23455,64.15848 -4.41298,8.96744 -16.97097,21.55688 -25.81079,25.87543 -12.53061,6.12162 -14.35379,6.36736 -50.89425,6.85987 l -33.43958,0.45072 -28.06042,22.09303 C 78.12719,227.5497 64.375,238.08008 63,238.79937 c -3.31309,1.73314 -5.92861,1.62138 -9.17401,-0.392 z m 39.50455,-48.15479 21.83055,-17.13309 h 32.87023 c 20.18527,0 34.91526,-0.42742 38.16946,-1.10756 16.65997,-3.48202 29.3657,-16.92122 31.77945,-33.614 1.31289,-9.07958 1.28424,-76.05532 -0.036,-84.192311 C 215.29563,37.881845 204.3462,25.711734 188.5,21.478844 c -3.924,-1.048191 -18.91155,-1.33817 -69.64466,-1.347485 -61.57723,-0.01131 -64.94825,0.0819 -71.04243,1.964197 -12.40142,3.83041 -21.51213,12.447598 -26.0763,24.66376 -2.08672,5.585201 -2.20579,7.66315 -2.53755,44.284863 -0.21134,23.328581 0.0647,41.491631 0.70247,46.231081 1.30595,9.70395 5.20813,17.67414 11.76479,24.02954 6.51951,6.31939 13.28678,9.48769 23.89264,11.18602 C 68.71508,174.59753 69,175.05978 69,194.2977 c 0,11.91433 0.26153,14.85968 1.25,14.07733 0.6875,-0.54415 11.07374,-8.69925 23.08054,-18.12245 z M 53.92308,122.19641 C 51.75897,120.03231 51,118.32462 51,115.61949 c 0,-2.70513 0.75897,-4.41282 2.92308,-6.57692 l 2.92307,-2.92308 H 119 181.15385 l 2.92307,2.92308 c 2.16411,2.1641 2.92308,3.87179 2.92308,6.57692 0,2.70513 -0.75897,4.41282 -2.92308,6.57692 l -2.92307,2.92308 H 119 56.84615 Z M 57.5,79.18597 c -3.71393,-1.542064 -5.95455,-5.022217 -5.95455,-9.24869 0,-3.27406 0.60339,-4.561588 3.24305,-6.920126 L 58.03155,60.11949 H 119 179.96845 l 3.24305,2.897664 c 4.37623,3.910164 4.58466,9.760502 0.4935,13.852336 l -2.74954,2.75 -60.72773,0.198451 C 86.82748,79.927089 58.6,79.642702 57.5,79.18597 Z"
     id="path825"
     inkscape:connector-curvature="0" />
</svg>
