<?xml version="1.0" encoding="utf-8"?>
<!-- Generator: Adobe Illustrator 16.0.0, SVG Export Plug-In . SVG Version: 6.00 Build 0)  -->
<!DOCTYPE svg PUBLIC "-//W3C//DTD SVG 1.1//EN" "http://www.w3.org/Graphics/SVG/1.1/DTD/svg11.dtd">
<svg version="1.1" id="Calque_1" xmlns="http://www.w3.org/2000/svg" xmlns:xlink="http://www.w3.org/1999/xlink" x="0px" y="0px"
	 width="35px" height="35px" viewBox="0 0 35 35" enable-background="new 0 0 35 35" xml:space="preserve">
<path fill="#27393D" d="M4.375,5.469V1.094C4.375,0.489,4.864,0,5.468,0c0.605,0,1.094,0.489,1.094,1.094v4.375
	c0,0.604-0.489,1.094-1.094,1.094C4.864,6.562,4.375,6.072,4.375,5.469 M22.968,6.562c0.605,0,1.094-0.49,1.094-1.094V1.094
	C24.062,0.489,23.573,0,22.968,0c-0.604,0-1.093,0.489-1.093,1.094v4.375C21.875,6.072,22.364,6.562,22.968,6.562 M35,26.25
	c0,4.831-3.918,8.75-8.75,8.75s-8.75-3.919-8.75-8.75c0-4.832,3.918-8.75,8.75-8.75S35,21.418,35,26.25 M32.812,26.25
	c0-3.619-2.943-6.563-6.562-6.563c-3.619,0-6.563,2.945-6.563,6.563s2.944,6.562,6.563,6.562
	C29.868,32.812,32.812,29.868,32.812,26.25 M8.75,13.125H4.375V17.5H8.75V13.125z M4.375,24.062H8.75v-4.375H4.375V24.062z
	 M10.937,17.5h4.375v-4.375h-4.375V17.5z M10.937,24.062h4.375v-4.375h-4.375V24.062z M2.187,26.031V10.938H26.25v4.375h2.187V6.78
	c0-1.329-1.06-2.405-2.369-2.405h-0.912v1.094c0,1.205-0.98,2.188-2.188,2.188S20.78,6.674,20.78,5.469V4.375H7.656v1.094
	c0,1.205-0.981,2.188-2.188,2.188S3.281,6.674,3.281,5.469V4.375H2.37C1.06,4.375,0,5.451,0,6.78v19.251
	c0,1.325,1.06,2.406,2.37,2.406h12.942V26.25H2.37C2.27,26.25,2.187,26.147,2.187,26.031 M21.875,13.125H17.5V17.5h4.375V13.125z
	 M29.53,26.25h-3.28v-3.281c0-0.605-0.489-1.094-1.095-1.094c-0.604,0-1.094,0.488-1.094,1.094v4.375
	c0,0.604,0.489,1.094,1.094,1.094h4.375c0.604,0,1.094-0.49,1.094-1.094C30.624,26.738,30.135,26.25,29.53,26.25"/>
</svg>
