<?xml version="1.0" encoding="UTF-8" standalone="no"?>
<!-- Generator: Adobe Illustrator 16.0.0, SVG Export Plug-In . SVG Version: 6.00 Build 0)  -->

<svg
   xmlns:dc="http://purl.org/dc/elements/1.1/"
   xmlns:cc="http://creativecommons.org/ns#"
   xmlns:rdf="http://www.w3.org/1999/02/22-rdf-syntax-ns#"
   xmlns:svg="http://www.w3.org/2000/svg"
   xmlns="http://www.w3.org/2000/svg"
   xmlns:sodipodi="http://sodipodi.sourceforge.net/DTD/sodipodi-0.dtd"
   xmlns:inkscape="http://www.inkscape.org/namespaces/inkscape"
   version="1.1"
   id="Calque_1"
   x="0px"
   y="0px"
   width="45.701px"
   height="45.7px"
   viewBox="0 0 45.701 45.7"
   enable-background="new 0 0 45.701 45.7"
   xml:space="preserve"
   sodipodi:docname="filter_plante2.svg"
   inkscape:version="0.92.4 (5da689c313, 2019-01-14)"><metadata
   id="metadata15"><rdf:RDF><cc:Work
       rdf:about=""><dc:format>image/svg+xml</dc:format><dc:type
         rdf:resource="http://purl.org/dc/dcmitype/StillImage" /></cc:Work></rdf:RDF></metadata><defs
   id="defs13">
	
	
	
</defs><sodipodi:namedview
   pagecolor="#ffffff"
   bordercolor="#666666"
   borderopacity="1"
   objecttolerance="10"
   gridtolerance="10"
   guidetolerance="10"
   inkscape:pageopacity="0"
   inkscape:pageshadow="2"
   inkscape:window-width="1920"
   inkscape:window-height="1017"
   id="namedview11"
   showgrid="false"
   inkscape:zoom="5.1641137"
   inkscape:cx="22.8505"
   inkscape:cy="22.85"
   inkscape:window-x="1912"
   inkscape:window-y="-8"
   inkscape:window-maximized="1"
   inkscape:current-layer="Calque_1" />
<g
   id="g845"><path
     d="M 45.201,22.85 C 45.201,35.193 35.193,45.2 22.851,45.2 10.507,45.2 0.5,35.193 0.5,22.85 0.5,10.506 10.507,0.5 22.851,0.5 c 12.342,0 22.35,10.006 22.35,22.35"
     id="path2"
     inkscape:connector-curvature="0"
     style="fill:#ffffff" /><circle
     stroke-miterlimit="10"
     cx="22.851"
     cy="22.85"
     r="22.351"
     id="circle4"
     style="fill:none;stroke:#86b79b;stroke-miterlimit:10;stroke-opacity:1" /><path
     d="M 18.917,26.39 C 21.54,16.552 6.4,16.036 6.4,16.036 c 0,0 0.322,13.017 8.592,12.585 -0.193,-3.246 -3.187,-6.562 -3.187,-6.562 1.46,1.02 2.752,2.456 3.801,3.855 1.174,1.584 2.049,3.129 2.519,4.035 0.722,1.113 1.415,2.687 1.88,4.903 -0.202,1.817 -0.299,3.235 -0.311,4.345 -0.009,0.803 0.648,1.45 1.445,1.45 0.797,0 1.451,-0.647 1.451,-1.45 0,-7.062 1.098,-9.591 2.32,-12.219 0.494,-1.23 1.56,-3.568 3.514,-6.577 0.568,-0.871 1.213,-1.801 1.936,-2.777 0,0 -0.717,1.401 -1.356,3.371 -0.187,0.598 -0.371,1.242 -0.529,1.915 -0.237,1.041 -0.405,2.144 -0.426,3.237 9.957,0.376 10.513,-15.956 10.513,-15.956 0,0 -19.064,0.47 -15.15,13.536 -0.856,1.296 -1.698,3.069 -2.365,5.484 -0.679,-1.227 -1.422,-2.143 -2.13,-2.821"
     id="path6"
     inkscape:connector-curvature="0"
     style="fill:#86b79b;fill-opacity:1" /></g>
</svg>