<?xml version="1.0" encoding="utf-8"?>
<!-- Generator: Adobe Illustrator 16.0.0, SVG Export Plug-In . SVG Version: 6.00 Build 0)  -->
<!DOCTYPE svg PUBLIC "-//W3C//DTD SVG 1.1//EN" "http://www.w3.org/Graphics/SVG/1.1/DTD/svg11.dtd">
<svg version="1.1" id="Calque_1" xmlns="http://www.w3.org/2000/svg" xmlns:xlink="http://www.w3.org/1999/xlink" x="0px" y="0px"
	 width="45.701px" height="45.7px" viewBox="0 0 45.701 45.7" enable-background="new 0 0 45.701 45.7" xml:space="preserve">
<g>
	<path fill="#3F627C" d="M45.201,22.849c0,12.344-10.008,22.352-22.35,22.352C10.507,45.201,0.5,35.193,0.5,22.849
		c0-12.344,10.007-22.35,22.352-22.35C35.193,0.499,45.201,10.505,45.201,22.849"/>
	<circle fill="none" stroke="#FFFFFF" stroke-miterlimit="10" cx="22.851" cy="22.849" r="22.351"/>
	<path fill="#FFFFFF" d="M34.789,22.015l6.25,0.283c0,0-5.774,0.729-6.475,0.939c-1.326,3.539-5.236,2.637-6.505,4.34
		c-1.996,2.672-5.667,3.58-11.378,2.023c-0.581,0.836-6.344,5.266-7.99,5.801c-1.639,0.533,3.399-3.418,3.399-3.418
		S9.675,33.66,8.04,34.093c-1.635,0.432,4.401-4.121,4.401-4.121s-2.621,1.092-4.042,1.182c-1.425,0.088,2.742-2.564,2.742-2.564
		s-1.285,0.094-1.77,0.094s-0.699-0.396,1.044-1.18c1.739-0.789,5.42-2.594,8.814-3.248c0.23-1.18-5.916-10.381-5.571-11.144
		c0.339-0.762,3.473-0.495,7.937,4.659c0.423-0.762-0.841-12.104,0.151-11.07c0.998,1.028,5.231,9.504,5.691,15.993
		c0.727,0.152,2.072-0.996,3.551-1.68C33.635,19.781,34.789,22.015,34.789,22.015"/>
</g>
</svg>
