<?xml version="1.0" encoding="utf-8"?>
<!-- Generator: Adobe Illustrator 16.0.0, SVG Export Plug-In . SVG Version: 6.00 Build 0)  -->
<!DOCTYPE svg PUBLIC "-//W3C//DTD SVG 1.1//EN" "http://www.w3.org/Graphics/SVG/1.1/DTD/svg11.dtd">
<svg version="1.1" id="Calque_1" xmlns="http://www.w3.org/2000/svg" xmlns:xlink="http://www.w3.org/1999/xlink" x="0px" y="0px"
	 width="45.701px" height="45.7px" viewBox="0 0 45.701 45.7" enable-background="new 0 0 45.701 45.7" xml:space="preserve">
<g>
	<path fill="#3F627C" d="M45.201,22.85c0,12.344-10.008,22.35-22.35,22.35C10.507,45.2,0.5,35.194,0.5,22.85
		C0.5,10.506,10.507,0.5,22.852,0.5C35.193,0.5,45.201,10.506,45.201,22.85"/>
	<circle fill="none" stroke="#FFFFFF" stroke-miterlimit="10" cx="22.851" cy="22.85" r="22.351"/>
	<path fill="#FFFFFF" d="M40.768,19.838c-1.188-3.421-5.521-5.523-10.651-5.401c-1.123,1.939-1.414,4.459-0.573,6.891
		c0.663,1.906,1.91,3.424,3.424,4.393C37.924,23.463,41.161,20.973,40.768,19.838 M35.717,19.188
		c-0.522,0.18-1.096-0.098-1.279-0.621c-0.182-0.524,0.098-1.101,0.621-1.281c0.526-0.183,1.1,0.095,1.283,0.622
		C36.523,18.431,36.243,19.006,35.717,19.188"/>
	<path fill="#FFFFFF" d="M28.206,14.579c-0.399,0.053-0.8,0.114-1.203,0.193l-0.526-0.714c-0.461-0.618-1.267-0.874-1.996-0.621
		l-7.358,2.552c-0.531,0.184-0.938,0.614-1.104,1.151c-0.165,0.533-0.067,1.116,0.267,1.569l0.839,1.137
		c-2.401,2.078-4.26,4.354-5.217,5.902l-5.708-0.691c-0.255-0.031-0.505,0.096-0.633,0.324c-0.124,0.227-0.099,0.506,0.062,0.707
		l1.647,2.041c0.323,0.398,0.493,0.896,0.49,1.41l-0.03,2.621c-0.003,0.256,0.151,0.494,0.39,0.592
		c0.239,0.1,0.515,0.045,0.694-0.137l4.064-4.084c2.479,0.738,7.315,0.91,12.059-0.053l-0.191,1.385
		c-0.034,0.25,0.061,0.498,0.257,0.656c0.195,0.162,0.457,0.207,0.699,0.123l0.616-0.213c0.472-0.166,0.873-0.49,1.121-0.928
		l1.168-2.031c0.898-0.318,1.768-0.648,2.604-0.988c-1.417-1.146-2.566-2.721-3.221-4.617C27.124,19.356,27.27,16.752,28.206,14.579
		"/>
</g>
</svg>
