<?xml version="1.0" encoding="UTF-8" standalone="no"?>
<!-- Generator: Adobe Illustrator 16.0.0, SVG Export Plug-In . SVG Version: 6.00 Build 0)  -->

<svg
   xmlns:dc="http://purl.org/dc/elements/1.1/"
   xmlns:cc="http://creativecommons.org/ns#"
   xmlns:rdf="http://www.w3.org/1999/02/22-rdf-syntax-ns#"
   xmlns:svg="http://www.w3.org/2000/svg"
   xmlns="http://www.w3.org/2000/svg"
   xmlns:sodipodi="http://sodipodi.sourceforge.net/DTD/sodipodi-0.dtd"
   xmlns:inkscape="http://www.inkscape.org/namespaces/inkscape"
   version="1.1"
   id="Calque_1"
   x="0px"
   y="0px"
   width="45.701px"
   height="45.7px"
   viewBox="0 0 45.701 45.7"
   enable-background="new 0 0 45.701 45.7"
   xml:space="preserve"
   sodipodi:docname="filter_animal2.svg"
   inkscape:version="0.92.4 (5da689c313, 2019-01-14)"><metadata
   id="metadata15"><rdf:RDF><cc:Work
       rdf:about=""><dc:format>image/svg+xml</dc:format><dc:type
         rdf:resource="http://purl.org/dc/dcmitype/StillImage" /></cc:Work></rdf:RDF></metadata><defs
   id="defs13">
	
	
	
</defs><sodipodi:namedview
   pagecolor="#ffffff"
   bordercolor="#666666"
   borderopacity="1"
   objecttolerance="10"
   gridtolerance="10"
   guidetolerance="10"
   inkscape:pageopacity="0"
   inkscape:pageshadow="2"
   inkscape:window-width="1920"
   inkscape:window-height="1017"
   id="namedview11"
   showgrid="false"
   inkscape:zoom="5.1641137"
   inkscape:cx="22.8505"
   inkscape:cy="4.589993"
   inkscape:window-x="1912"
   inkscape:window-y="-8"
   inkscape:window-maximized="1"
   inkscape:current-layer="Calque_1" />
<g
   id="g843"><path
     d="M 45.201,22.85 C 45.201,35.194 35.194,45.2 22.851,45.2 10.507,45.2 0.5,35.194 0.5,22.85 0.5,10.506 10.507,0.5 22.852,0.5 c 12.342,0 22.349,10.006 22.349,22.35"
     id="path2"
     inkscape:connector-curvature="0"
     style="fill:#ffffff" /><circle
     stroke-miterlimit="10"
     cx="22.851"
     cy="22.85"
     r="22.351"
     id="circle4"
     style="fill:none;stroke:#86b79b;stroke-miterlimit:10;stroke-opacity:1" /><path
     d="m 32.312,31.726 c 0.734,3.376 -2.932,4.108 -4.547,3.67 -1.614,-0.44 -4.908,-0.513 -4.908,-0.513 0,0 -3.304,0.072 -4.919,0.513 -1.614,0.442 -5.284,-0.294 -4.552,-3.67 0.732,-3.376 3.962,-3.229 4.849,-7.782 0.882,-4.552 4.625,-4.259 4.625,-4.259 0,0 3.733,-0.293 4.616,4.259 0.879,4.553 4.103,4.406 4.836,7.782 M 26.246,19.389 c 1.986,0.574 4.182,-0.995 4.905,-3.505 0.724,-2.506 -0.3,-5.003 -2.286,-5.577 -1.988,-0.574 -4.184,0.995 -4.906,3.505 -0.724,2.506 0.299,5.003 2.287,5.577 m 8.236,-0.913 c -1.914,-0.781 -4.266,0.544 -5.252,2.962 -0.985,2.418 -0.234,5.01 1.68,5.788 1.914,0.778 4.266,-0.544 5.251,-2.962 0.985,-2.418 0.235,-5.006 -1.679,-5.788 m -15.029,0.913 c 1.986,-0.574 3.01,-3.071 2.286,-5.577 -0.724,-2.507 -2.921,-4.076 -4.906,-3.502 -1.984,0.574 -3.01,3.071 -2.286,5.577 0.723,2.507 2.918,4.076 4.906,3.502 m -4.662,7.837 c 1.914,-0.782 2.665,-3.373 1.679,-5.788 -0.985,-2.415 -3.337,-3.743 -5.251,-2.962 -1.914,0.782 -2.665,3.374 -1.679,5.788 0.986,2.418 3.337,3.744 5.251,2.962"
     id="path6"
     inkscape:connector-curvature="0"
     style="fill:#86b79b;fill-opacity:1" /></g>
</svg>