<?xml version="1.0" encoding="utf-8"?>
<!-- Generator: Adobe Illustrator 16.0.0, SVG Export Plug-In . SVG Version: 6.00 Build 0)  -->
<!DOCTYPE svg PUBLIC "-//W3C//DTD SVG 1.1//EN" "http://www.w3.org/Graphics/SVG/1.1/DTD/svg11.dtd">
<svg version="1.1" id="Calque_1" xmlns="http://www.w3.org/2000/svg" xmlns:xlink="http://www.w3.org/1999/xlink" x="0px" y="0px"
	 width="45.701px" height="45.7px" viewBox="0 0 45.701 45.7" enable-background="new 0 0 45.701 45.7" xml:space="preserve">
<g>
	<path fill="#FFFFFF" d="M45.201,22.85c0,12.344-10.007,22.35-22.35,22.35C10.507,45.2,0.5,35.194,0.5,22.85
		C0.5,10.506,10.507,0.5,22.852,0.5C35.194,0.5,45.201,10.506,45.201,22.85"/>
	<circle fill="none" stroke="#4E956C" stroke-miterlimit="10" cx="22.851" cy="22.85" r="22.351"/>
	<path fill="#71AA8A" d="M32.312,31.726c0.734,3.376-2.932,4.108-4.547,3.67c-1.614-0.44-4.908-0.513-4.908-0.513
		s-3.304,0.072-4.919,0.513c-1.614,0.442-5.284-0.294-4.552-3.67s3.962-3.229,4.849-7.782c0.882-4.552,4.625-4.259,4.625-4.259
		s3.733-0.293,4.616,4.259C28.355,28.497,31.579,28.35,32.312,31.726 M26.246,19.389c1.986,0.574,4.182-0.995,4.905-3.505
		c0.724-2.506-0.3-5.003-2.286-5.577c-1.988-0.574-4.184,0.995-4.906,3.505C23.235,16.318,24.258,18.815,26.246,19.389
		 M34.482,18.476c-1.914-0.781-4.266,0.544-5.252,2.962c-0.985,2.418-0.234,5.01,1.68,5.788s4.266-0.544,5.251-2.962
		S36.396,19.258,34.482,18.476 M19.453,19.389c1.986-0.574,3.01-3.071,2.286-5.577c-0.724-2.507-2.921-4.076-4.906-3.502
		c-1.984,0.574-3.01,3.071-2.286,5.577C15.27,18.394,17.465,19.963,19.453,19.389 M14.791,27.226
		c1.914-0.782,2.665-3.373,1.679-5.788c-0.985-2.415-3.337-3.743-5.251-2.962c-1.914,0.782-2.665,3.374-1.679,5.788
		C10.526,26.682,12.877,28.008,14.791,27.226"/>
</g>
</svg>
