<?xml version="1.0" encoding="utf-8"?>
<!-- Generator: Adobe Illustrator 16.0.0, SVG Export Plug-In . SVG Version: 6.00 Build 0)  -->
<!DOCTYPE svg PUBLIC "-//W3C//DTD SVG 1.1//EN" "http://www.w3.org/Graphics/SVG/1.1/DTD/svg11.dtd">
<svg version="1.1" id="Calque_1" xmlns="http://www.w3.org/2000/svg" xmlns:xlink="http://www.w3.org/1999/xlink" x="0px" y="0px"
	 width="45.701px" height="45.7px" viewBox="0 0 45.701 45.7" enable-background="new 0 0 45.701 45.7" xml:space="preserve">
<g>
	<path fill="#FFFFFF" stroke="#4E956C" stroke-miterlimit="10" d="M45.201,22.85c0,12.344-10.008,22.35-22.349,22.35
		C10.507,45.2,0.5,35.194,0.5,22.85C0.5,10.506,10.507,0.5,22.852,0.5C35.193,0.5,45.201,10.506,45.201,22.85"/>
	<circle fill="none" stroke="#4E956C" stroke-miterlimit="10" cx="22.851" cy="22.85" r="22.351"/>
	<path fill="#71AA8A" d="M27.502,36.754h2.145c1.453,0,2.57-1.453,2.457-3.142c-0.551-8.19,4.865-19.367,4.865-19.367
		C24.361,23.747,27.502,36.754,27.502,36.754"/>
	<path fill="#71AA8A" d="M36.969,10.711c-10.379,4.357-12.744,10.52-12.744,10.52s2.4,5.816,1.734,8.289
		C28.719,16.502,36.969,10.711,36.969,10.711"/>
	<path fill="#71AA8A" d="M8.407,13.456c0,0,5.432,11.818,4.861,20.162c-0.115,1.686,1.004,3.136,2.457,3.136
		c1.301,0,2.388-1.17,2.466-2.681C18.423,29.588,17.602,20.379,8.407,13.456"/>
	<path fill="#71AA8A" d="M13.317,8.948c0,0,6.871,14.458,5.891,24.555c-0.168,1.726,0.956,3.25,2.449,3.25h1.105
		c1.275,0,2.349-1.127,2.458-2.606C25.596,29.096,24.939,17.704,13.317,8.948"/>
</g>
</svg>
