<?xml version="1.0" encoding="utf-8"?>
<!-- Generator: Adobe Illustrator 16.0.0, SVG Export Plug-In . SVG Version: 6.00 Build 0)  -->
<!DOCTYPE svg PUBLIC "-//W3C//DTD SVG 1.1//EN" "http://www.w3.org/Graphics/SVG/1.1/DTD/svg11.dtd">
<svg version="1.1" id="Calque_1" xmlns="http://www.w3.org/2000/svg" xmlns:xlink="http://www.w3.org/1999/xlink" x="0px" y="0px"
	 width="45.701px" height="45.7px" viewBox="0 0 45.701 45.7" enable-background="new 0 0 45.701 45.7" xml:space="preserve">
<g>
	<path fill="#FFFFFF" d="M45.201,22.851c0,12.343-10.008,22.349-22.351,22.349C10.507,45.2,0.5,35.194,0.5,22.851
		C0.5,10.505,10.507,0.5,22.851,0.5C35.193,0.5,45.201,10.505,45.201,22.851"/>
	<circle fill="none" stroke="#B6D3C3" stroke-miterlimit="10" cx="22.851" cy="22.851" r="22.351"/>
	<path fill="#86B79B" d="M39.153,23.522c1.119-3.269-1.147-11.96-3.931-12.992c-2.781-1.034-4.561-1.147-4.561-1.147
		s-7.527-4.062-9.314,2.37c0,0-4.879,0.183-8.984,4.777c-4.055,0.889-6.692,5.389-6.647,6.514c0.359-0.061,1.738-0.755,1.738-0.755
		c0.729-2.211,2.131-2.641,2.599-2.594l0.118-0.086c-1.889,3.34-3.279,8.093-3.368,14.867h5.207c0,0-0.024-1.148-0.785-1.957
		c0.61-2.221,1.415-4.932,1.854-4.812s-0.334,6.77-0.334,6.77h5.208c0,0-0.025-1.139-0.778-1.945
		c0.087-4.225,1.447-6.422,5.504-5.793c0.999,0.154-1.89,7.738-1.89,7.738h5.895c0,0-0.038-1.678-1.365-2.402
		c0.027-0.814,0.254-3.178,0.919-3.225c0.667-0.045,2.781,5.627,2.781,5.627h4.855c0,0-0.048-2.291-2.151-2.678
		c-0.307-0.688-0.513-1.369-0.744-2.105c-0.518-1.637-1.952-6.769-1.952-6.769s-0.134-0.617,0.545-0.92
		c0.973-0.436,1.12-0.461,1.35,0c0.229,0.459,0.543,0.832,1.062,0.602c0.516-0.229,0.745-0.086,1.031,0.287
		c0.287,0.373,2.151,2.324,2.151,2.324s0.048,0.043,0.134,0.113c0.105,0.117,0.204,0.322,0.011,0.604
		c-0.315,0.459-0.488,0.631-0.804,0.66s-0.945-0.172-0.631-0.488c0.315-0.314,0.115-0.572-0.229-0.918
		c-0.345-0.344-0.746-0.658-1.062,0.059c-0.314,0.717-1.605,3.584,1.664,3.471c1.29-0.068,2.377-0.732,3.284-1.938
		c1.47,0.742,3.419,1.324,5.232,0.582c-1.931-0.416-3.264-0.777-4.488-1.77C38.596,24.985,38.889,24.297,39.153,23.522"/>
</g>
</svg>
