<?xml version="1.0" encoding="utf-8"?>
<!-- Generator: Adobe Illustrator 19.1.0, SVG Export Plug-In . SVG Version: 6.00 Build 0)  -->
<svg version="1.1" id="Calque_1" xmlns="http://www.w3.org/2000/svg" xmlns:xlink="http://www.w3.org/1999/xlink" x="0px" y="0px"
	 viewBox="-382 623 35 35" style="enable-background:new -382 623 35 35;" xml:space="preserve">
<style type="text/css">
	.st0{fill:#6A8599;}
</style>
<path class="st0" d="M-359,638.3h-3.3V635c0-1.2-1-2.2-2.2-2.2s-2.2,1-2.2,2.2v3.3h-3.3c-1.2,0-2.2,1-2.2,2.2c0,1.2,1,2.2,2.2,2.2
	h3.3v3.3c0,1.2,1,2.2,2.2,2.2s2.2-1,2.2-2.2v-3.3h3.3c1.2,0,2.2-1,2.2-2.2C-356.8,639.3-357.8,638.3-359,638.3 M-364.5,623
	c-9.7,0-17.5,7.8-17.5,17.5c0,9.7,7.8,17.5,17.5,17.5c9.7,0,17.5-7.8,17.5-17.5C-347,630.8-354.8,623-364.5,623 M-364.5,654.7
	c-7.8,0-14.2-6.4-14.2-14.2c0-7.8,6.4-14.2,14.2-14.2c7.8,0,14.2,6.4,14.2,14.2S-356.7,654.7-364.5,654.7"/>
</svg>
