<?xml version="1.0" encoding="utf-8"?>
<!-- Generator: Adobe Illustrator 16.0.0, SVG Export Plug-In . SVG Version: 6.00 Build 0)  -->
<!DOCTYPE svg PUBLIC "-//W3C//DTD SVG 1.1//EN" "http://www.w3.org/Graphics/SVG/1.1/DTD/svg11.dtd">
<svg version="1.1" id="Calque_1" xmlns="http://www.w3.org/2000/svg" xmlns:xlink="http://www.w3.org/1999/xlink" x="0px" y="0px"
	 width="35px" height="35px" viewBox="0 0 35 35" enable-background="new 0 0 35 35" xml:space="preserve">
<path fill-rule="evenodd" clip-rule="evenodd" fill="#27393D" d="M22.968,15.31h-3.285v-3.279c0-1.207-0.976-2.189-2.183-2.189
	s-2.19,0.977-2.19,2.189v3.279h-3.278c-1.207,0-2.189,0.977-2.189,2.189c0,1.207,0.982,2.184,2.189,2.184h3.278v3.285
	c0,1.207,0.983,2.184,2.19,2.184s2.183-0.977,2.183-2.184v-3.285h3.285c1.207,0,2.184-0.977,2.184-2.184S24.175,15.31,22.968,15.31
	 M17.5,0C7.833,0,0,7.832,0,17.5C0,27.164,7.833,35,17.5,35C27.165,35,35,27.164,35,17.5C35,7.832,27.165,0,17.5,0 M17.5,31.714
	c-7.84,0-14.223-6.375-14.223-14.215S9.66,3.277,17.5,3.277c7.839,0,14.215,6.383,14.215,14.223S25.339,31.714,17.5,31.714"/>
</svg>
