<?xml version="1.0" encoding="utf-8"?>
<!-- Generator: Adobe Illustrator 16.0.0, SVG Export Plug-In . SVG Version: 6.00 Build 0)  -->
<!DOCTYPE svg PUBLIC "-//W3C//DTD SVG 1.1//EN" "http://www.w3.org/Graphics/SVG/1.1/DTD/svg11.dtd">
<svg version="1.1" id="Calque_1" xmlns="http://www.w3.org/2000/svg" xmlns:xlink="http://www.w3.org/1999/xlink" x="0px" y="0px"
	 width="40.001px" height="32px" viewBox="0 0 40.001 32" enable-background="new 0 0 40.001 32" xml:space="preserve">
<path fill="#999999" d="M20,12c-3.314,0-6,2.688-6,6c0,3.314,2.686,6,6,6c3.312,0,6-2.686,6-6C26,14.688,23.312,12,20,12 M36,6
	h-4.801c-0.66,0-1.371-0.512-1.578-1.139l-1.242-3.725C28.17,0.51,27.461,0,26.801,0H13.2c-0.66,0-1.371,0.51-1.578,1.137
	l-1.242,3.725C10.17,5.489,9.461,6,8.801,6H4c-2.199,0-4,1.801-4,4v18c0,2.199,1.801,4,4,4h32c2.199,0,4-1.801,4-4V10
	C40,7.801,38.199,6,36,6 M20,28c-5.523,0-10-4.477-10-10S14.477,8,20,8c5.521,0,10,4.477,10,10S25.521,28,20,28 M34.6,12.797
	c-0.771,0-1.4-0.627-1.4-1.4c0-0.771,0.629-1.398,1.4-1.398c0.773,0,1.4,0.627,1.4,1.398C36,12.17,35.373,12.797,34.6,12.797"/>
</svg>
