<?xml version="1.0" encoding="utf-8"?>
<!-- Generator: Adobe Illustrator 16.0.0, SVG Export Plug-In . SVG Version: 6.00 Build 0)  -->
<!DOCTYPE svg PUBLIC "-//W3C//DTD SVG 1.1//EN" "http://www.w3.org/Graphics/SVG/1.1/DTD/svg11.dtd">
<svg version="1.1" id="Calque_1" xmlns="http://www.w3.org/2000/svg" xmlns:xlink="http://www.w3.org/1999/xlink" x="0px" y="0px"
	 width="35px" height="33.806px" viewBox="0 0 35 33.806" enable-background="new 0 0 35 33.806" xml:space="preserve">
<path fill="#27393D" d="M17.493,0C7.83,0,0,6.916,0,15.446c0,4.328,2.014,8.235,5.262,11.038c-0.714,4.113-5.302,5.781-4.989,6.908
	C4.155,35,11.925,31.466,13.819,30.552c1.186,0.22,2.414,0.348,3.674,0.348c9.67,0,17.507-6.916,17.507-15.453S27.163,0,17.493,0
	 M16.253,16.093c0,4.202-1.854,6.557-5.521,7.003h-0.021c-0.04,0-0.08-0.013-0.114-0.041c-0.032-0.032-0.053-0.08-0.053-0.126
	v-2.134c0-0.067,0.034-0.12,0.087-0.154c1.667-0.905,2.501-2.34,2.548-4.381h-2.468c-0.093,0-0.167-0.073-0.167-0.167v-5.375
	c0-0.094,0.074-0.167,0.167-0.167h5.375c0.094,0,0.167,0.073,0.167,0.167V16.093z M25.771,16.093c0,4.135-1.648,6.23-5.508,7.003
	h-0.035c-0.039,0-0.08-0.013-0.105-0.034c-0.041-0.031-0.068-0.087-0.068-0.133v-2.134c0-0.067,0.041-0.12,0.094-0.154
	c1.668-0.905,2.502-2.34,2.541-4.381h-2.461c-0.094,0-0.174-0.073-0.174-0.167v-5.375c0-0.094,0.08-0.167,0.174-0.167h5.371
	c0.099,0,0.172,0.073,0.172,0.167V16.093z"/>
</svg>
