<?xml version="1.0" encoding="utf-8"?>
<!-- Generator: Adobe Illustrator 16.0.0, SVG Export Plug-In . SVG Version: 6.00 Build 0)  -->
<!DOCTYPE svg PUBLIC "-//W3C//DTD SVG 1.1//EN" "http://www.w3.org/Graphics/SVG/1.1/DTD/svg11.dtd">
<svg version="1.1" id="Calque_1" xmlns="http://www.w3.org/2000/svg" xmlns:xlink="http://www.w3.org/1999/xlink" x="0px" y="0px"
	 width="45.701px" height="45.7px" viewBox="0 0 45.701 45.7" enable-background="new 0 0 45.701 45.7" xml:space="preserve">
<g>
	<path fill="#3F627C" d="M45.201,22.849c0,12.344-10.008,22.352-22.351,22.352C10.507,45.201,0.5,35.193,0.5,22.849
		c0-12.344,10.007-22.35,22.351-22.35C35.193,0.499,45.201,10.505,45.201,22.849"/>
	<circle fill="none" stroke="#FFFFFF" stroke-miterlimit="10" cx="22.851" cy="22.849" r="22.351"/>
	<path fill="#FFFFFF" d="M39.153,23.523c1.119-3.271-1.147-11.961-3.931-12.994c-2.781-1.034-4.561-1.147-4.561-1.147
		s-7.527-4.062-9.314,2.37c0,0-4.879,0.183-8.984,4.777c-4.055,0.89-6.692,5.39-6.647,6.515c0.359-0.061,1.738-0.758,1.738-0.758
		c0.729-2.209,2.131-2.639,2.599-2.592l0.118-0.086c-1.889,3.34-3.279,8.092-3.368,14.867h5.207c0,0-0.024-1.15-0.785-1.957
		c0.61-2.221,1.415-4.932,1.854-4.814c0.439,0.119-0.334,6.771-0.334,6.771h5.208c0,0-0.025-1.139-0.778-1.947
		c0.087-4.223,1.447-6.422,5.504-5.791c0.999,0.154-1.89,7.738-1.89,7.738h5.895c0,0-0.038-1.678-1.365-2.402
		c0.027-0.814,0.254-3.178,0.919-3.225c0.667-0.045,2.781,5.627,2.781,5.627h4.855c0,0-0.048-2.291-2.151-2.678
		c-0.307-0.689-0.513-1.369-0.744-2.107c-0.518-1.635-1.952-6.768-1.952-6.768s-0.134-0.617,0.545-0.922
		c0.973-0.436,1.12-0.459,1.35,0s0.543,0.832,1.062,0.604c0.516-0.229,0.745-0.086,1.031,0.287c0.287,0.373,2.151,2.324,2.151,2.324
		s0.048,0.043,0.134,0.111c0.105,0.117,0.204,0.324,0.011,0.605c-0.315,0.459-0.488,0.631-0.804,0.66
		c-0.315,0.027-0.945-0.174-0.631-0.488c0.315-0.316,0.115-0.572-0.229-0.918c-0.345-0.344-0.746-0.66-1.062,0.057
		c-0.314,0.717-1.605,3.586,1.664,3.473c1.29-0.068,2.377-0.732,3.284-1.939c1.47,0.744,3.419,1.326,5.232,0.584
		c-1.931-0.416-3.264-0.779-4.488-1.77C38.596,24.986,38.889,24.298,39.153,23.523"/>
</g>
</svg>
