<?xml version="1.0" encoding="utf-8"?>
<!-- Generator: Adobe Illustrator 16.0.0, SVG Export Plug-In . SVG Version: 6.00 Build 0)  -->
<!DOCTYPE svg PUBLIC "-//W3C//DTD SVG 1.1//EN" "http://www.w3.org/Graphics/SVG/1.1/DTD/svg11.dtd">
<svg version="1.1" id="Calque_1" xmlns="http://www.w3.org/2000/svg" xmlns:xlink="http://www.w3.org/1999/xlink" x="0px" y="0px"
	 width="45.701px" height="45.7px" viewBox="0 0 45.701 45.7" enable-background="new 0 0 45.701 45.7" xml:space="preserve">
<g>
	<path fill="#3F627C" d="M45.201,22.851c0,12.343-10.008,22.349-22.35,22.349C10.507,45.2,0.5,35.194,0.5,22.851
		C0.5,10.505,10.507,0.5,22.851,0.5C35.193,0.5,45.201,10.505,45.201,22.851"/>
	<circle fill="none" stroke="#FFFFFF" stroke-miterlimit="10" cx="22.85" cy="22.851" r="22.351"/>
	<path fill="#FFFFFF" d="M5.5,27.038c0.064,0.236,0.116,0.479,0.149,0.721c0.055,0.402,0.185,0.777,0.396,1.123
		c0.064,0.105,0.145,0.205,0.196,0.318c0.024,0.055-0.002,0.133-0.003,0.203c0,0.051,0.001,0.1,0.003,0.15
		c0.056-0.012,0.142-0.006,0.164-0.041c0.065-0.107,0.138-0.229,0.15-0.348c0.024-0.215,0.008-0.432,0.008-0.67
		c0.04-0.025,0.117-0.078,0.197-0.129c0.021-0.012,0.048-0.031,0.069-0.029c0.512,0.051,0.987,0.193,1.416,0.494
		c0.177,0.123,0.402,0.133,0.623,0.082c0.068-0.016,0.173,0.006,0.224,0.053c0.131,0.115,0.24,0.258,0.353,0.381
		c0.053-0.322-0.141-0.76-0.419-0.959c-0.265-0.191-0.547-0.33-0.852-0.447c-0.134-0.051-0.211-0.25-0.313-0.383
		c0.159-0.145,0.307-0.131,0.492-0.074c0.184,0.055,0.33,0.164,0.496,0.24c0.113,0.051,0.241,0.107,0.36,0.1
		c0.271-0.016,0.477,0.031,0.506,0.371c0.151-0.207,0.106-0.553-0.071-0.711c-0.16-0.145-0.316-0.283-0.537-0.355
		c-0.346-0.115-0.67-0.285-0.997-0.477c0.143,0.035,0.285,0.086,0.43,0.1c0.15,0.016,0.329,0.107,0.445-0.139
		c0.087,0.107,0.154,0.193,0.239,0.297c0.12,0.006,0.163-0.059,0.131-0.203c-0.059-0.26-0.21-0.387-0.47-0.381
		c-0.024,0.002-0.061,0.004-0.071-0.01c-0.139-0.176-0.338-0.121-0.518-0.15c-0.129-0.021-0.255-0.061-0.372-0.129
		c0.172,0.012,0.344,0.021,0.515,0.031c0.03-0.232-0.074-0.352-0.265-0.416c-0.306-0.098-1.123-0.398-1.333-0.684
		c0.192,0,0.367,0.006,0.539-0.002c0.122-0.006,0.242-0.033,0.363-0.039c0.077-0.002,0.157,0.012,0.234,0.025
		c0.092,0.018,0.183,0.053,0.275,0.059c0.291,0.018,0.585,0.047,0.875,0.025c0.126-0.008,0.236-0.162,0.367-0.193
		c0.172-0.043,0.245-0.16,0.304-0.291c0.112-0.25,0.214-0.508,0.307-0.764c0.047-0.135,0.104-0.154,0.202-0.055
		c0.136,0.139,0.267,0.285,0.401,0.428c0.125,0.133,0.231,0.309,0.384,0.379c0.143,0.068,0.286,0.129,0.375,0.246
		c0.198,0.26,0.498,0.352,0.756,0.508c0.109,0.066,0.201,0.162,0.31,0.229c0.237,0.148,0.474,0.305,0.724,0.432
		c0.321,0.166,0.645,0.338,0.985,0.457c0.352,0.123,0.726,0.182,1.089,0.273c0.145,0.039,0.287,0.086,0.42,0.146
		c0.174,0.08,0.331,0.201,0.51,0.264c0.167,0.057,0.354,0.049,0.529,0.088c0.174,0.037,0.342,0.1,0.513,0.148
		c0.119,0.035,0.242,0.049,0.357,0.094c0.302,0.109,0.601,0.229,0.9,0.348c0.104,0.043,0.203,0.129,0.311,0.139
		c0.257,0.02,0.426,0.197,0.629,0.314c0.133,0.074,0.271,0.145,0.401,0.229c0.09,0.059,0.17,0.133,0.251,0.199
		c-0.201,0.23-0.4,0.439-0.569,0.666c-0.061,0.086-0.063,0.223-0.07,0.336c-0.037,0.699,0.145,1.334,0.554,1.902
		c0.293,0.406,0.598,0.807,0.864,1.229c0.124,0.197,0.187,0.438,0.247,0.666c0.037,0.141-0.007,0.283-0.157,0.363
		c-0.253,0.135-0.321,0.578-0.229,0.816c0.022,0.059,0.094,0.098,0.134,0.135c0.136-0.227,0.251-0.418,0.366-0.613
		c0.029,0.008,0.056,0.016,0.084,0.023c-0.264,0.449-0.325,0.908-0.062,1.391c0.07-0.145,0.127-0.301,0.218-0.434
		c0.155-0.229,0.204-0.531,0.446-0.693c0.092-0.062,0.258-0.092,0.356-0.053c0.188,0.076,0.366,0.195,0.521,0.33
		c0.272,0.236,0.525,0.502,0.792,0.752c0.124,0.115,0.267,0.217,0.391,0.336c0.051,0.049,0.078,0.127,0.117,0.191
		c0.158-0.129,0.193-0.453,0.082-0.65c-0.033-0.061-0.033-0.139-0.068-0.197c-0.049-0.088-0.104-0.178-0.176-0.244
		c-0.143-0.125-0.279-0.25-0.318-0.512c0.215,0.102,0.403,0.174,0.573,0.277c0.141,0.084,0.229,0.221,0.443,0.119
		c0.156-0.074,0.498,0.158,0.594,0.33c0.027,0.049,0.082,0.082,0.125,0.123c0.02-0.059,0.057-0.115,0.055-0.172
		c-0.01-0.221-0.059-0.424-0.281-0.537c-0.039-0.02-0.088-0.053-0.098-0.092c-0.082-0.242-0.287-0.311-0.502-0.383
		c-0.111-0.039-0.211-0.115-0.312-0.18c-0.098-0.057-0.188-0.121-0.324-0.209c0.105-0.021,0.177-0.035,0.248-0.049
		c0.209-0.043,0.426-0.068,0.492-0.334c0.01-0.039,0.107-0.092,0.15-0.082c0.066,0.018,0.131,0.072,0.172,0.129
		c0.033,0.049,0.033,0.121,0.051,0.201c0.037-0.031,0.084-0.053,0.082-0.066c-0.033-0.135-0.037-0.297-0.121-0.391
		c-0.088-0.1-0.252-0.184-0.383-0.18c-0.201,0.006-0.4,0.104-0.605,0.139c-0.127,0.02-0.272,0.021-0.393-0.018
		c-0.22-0.068-0.428-0.174-0.641-0.266c-0.335-0.139-0.44-0.486-0.668-0.729c-0.011-0.014-0.02-0.033-0.025-0.051
		c-0.09-0.328-0.173-0.656-0.271-0.98c-0.062-0.203-0.149-0.396-0.232-0.615c0.029-0.018,0.073-0.064,0.123-0.074
		c0.222-0.045,0.442-0.1,0.666-0.109c0.108-0.006,0.226,0.066,0.332,0.119c0.217,0.105,0.422,0.242,0.647,0.33
		c0.108,0.045,0.254-0.012,0.375,0.014c0.179,0.043,0.347,0.133,0.527,0.178c0.311,0.078,0.627,0.141,0.939,0.205
		c0.062,0.016,0.148-0.006,0.184,0.029c0.162,0.154,0.359,0.133,0.553,0.133c0.277,0,0.557-0.006,0.836-0.004
		c0.188,0.002,0.375,0.027,0.562,0.021c0.08-0.004,0.154-0.07,0.236-0.086c0.258-0.049,0.52-0.086,0.781-0.127
		c0.045-0.008,0.094-0.002,0.133-0.021c0.33-0.158,0.574,0.035,0.838,0.182c0.201,0.111,0.422,0.186,0.631,0.279
		c0.104,0.045,0.229,0.033,0.305,0.152c0.018,0.025,0.168,0.002,0.227-0.041c0.105-0.078,0.184-0.051,0.252,0.031
		c0.1,0.115,0.184,0.246,0.285,0.363c0.037,0.041,0.098,0.059,0.148,0.086c-0.004-0.059,0.006-0.121-0.012-0.172
		c-0.051-0.152-0.113-0.305-0.18-0.473c0.012,0.002,0.025,0.004,0.037,0.008c0.107,0.039,0.205,0.074,0.295,0.113
		c0.07,0.029,0.131,0.025,0.189,0.002c1.771,0.393,3.592,0.465,3.734,0.35c0.221-0.176,3.557-0.439,4.521-0.525
		c0.967-0.09,1.141-0.643,1.141-0.643s-0.264,0.203-0.264,0s-0.477-1.168-0.395-0.676c0.084,0.494-0.877,0.676-0.877,0.676v-0.344
		c0,0-0.791,0.414-0.746,0.334c0.045-0.084-0.395-0.355-0.395-0.355c0.051,0.521-0.658,0.312-0.658,0.312v-0.312
		c0,0-0.572,0.217-0.746,0.301c-0.176,0.084-0.221-0.305-0.221-0.305l-0.746,0.305l-0.264-0.127
		c-0.234,0.283-1.023,0.037-1.598-0.195c0.342-0.061,0.684-0.123,1.029-0.166c0.68-0.086,1.367-0.137,2.051-0.207
		c0.471-0.047,0.938-0.121,1.408-0.148c0.57-0.031,1.123-0.158,1.68-0.26c0.361-0.064,0.666-0.23,0.945-0.457
		c0.297-0.24,0.316-0.775,0.037-1.029c-0.068-0.059-0.148-0.105-0.219-0.162c-0.109-0.088-0.203-0.205-0.324-0.26
		c-0.18-0.076-0.385-0.17-0.564-0.145c-0.525,0.078-0.984-0.088-1.453-0.275c-0.605-0.242-1.219-0.463-1.83-0.684
		c-0.102-0.039-0.217-0.066-0.324-0.059c-0.342,0.025-0.561-0.184-0.785-0.387c-0.029-0.025-0.064-0.055-0.076-0.088
		c-0.104-0.34-0.42-0.461-0.672-0.641c-0.096-0.07-0.27-0.094-0.383-0.059c-0.24,0.076-0.479,0.059-0.705,0
		c-0.541-0.139-1.082-0.094-1.623-0.037c-0.232,0.023-0.455,0.127-0.686,0.188c-0.363,0.096-0.723,0.209-1.09,0.273
		c-0.324,0.059-0.658,0.135-0.984-0.045c-0.133-0.072-0.289-0.055-0.385,0.109c-0.076,0.127-0.193,0.111-0.307,0.064
		c-0.164-0.066-0.324-0.137-0.506-0.053c-0.041,0.018-0.105,0-0.15-0.018c-0.162-0.076-0.311-0.105-0.408,0.107
		c-0.164-0.143-0.318-0.234-0.492-0.037c-0.02,0.023-0.117-0.002-0.166-0.029c-0.16-0.092-0.314-0.195-0.473-0.297
		c-0.037-0.023-0.092-0.039-0.111-0.074c-0.068-0.129-0.139-0.246-0.318-0.201c-0.018,0.004-0.059-0.035-0.066-0.059
		c-0.096-0.307-0.268-0.545-0.545-0.715c-0.041-0.027-0.055-0.1-0.078-0.152c-0.074-0.176-0.121-0.369-0.324-0.461
		c-0.035-0.014-0.062-0.068-0.072-0.109c-0.076-0.316-0.295-0.541-0.504-0.771c-0.08-0.087-0.133-0.205-0.217-0.289
		c-0.166-0.168-0.348-0.32-0.515-0.486c-0.125-0.123-0.24-0.256-0.356-0.387c-0.106-0.119-0.202-0.246-0.313-0.361
		c-0.03-0.033-0.111-0.059-0.138-0.041c-0.156,0.098-0.222-0.012-0.295-0.113c-0.125-0.17-0.242-0.346-0.381-0.506
		c-0.068-0.082-0.166-0.133-0.295-0.068c-0.045,0.021-0.146-0.031-0.198-0.074c-0.174-0.146-0.326-0.318-0.508-0.451
		c-0.084-0.061-0.215-0.055-0.322-0.084c-0.105-0.029-0.23-0.039-0.309-0.105c-0.329-0.279-0.688-0.439-1.128-0.418
		c-0.119,0.008-0.246-0.064-0.357-0.121c-0.207-0.104-0.404-0.227-0.608-0.334c-0.12-0.064-0.233-0.076-0.365,0.004
		c-0.061,0.035-0.186,0.002-0.264-0.037c-0.214-0.104-0.414-0.236-0.629-0.34c-0.069-0.033-0.17-0.041-0.244-0.021
		c-0.238,0.07-0.448,0.012-0.653-0.1c-0.103-0.055-0.205-0.127-0.313-0.15c-0.104-0.021-0.224-0.008-0.327,0.018
		c-0.203,0.053-0.395,0.105-0.594-0.02c-0.248-0.158-0.511-0.225-0.783-0.041c-0.036,0.025-0.09,0.023-0.153,0.037
		c0.013-0.102,0.021-0.174,0.032-0.268c-0.075,0.01-0.131,0.018-0.197,0.025c0.332-0.343,0.26-0.759,0.183-1.139
		c-0.092-0.442-0.594-0.51-0.886-0.776c0.213-0.149,0.413-0.291,0.616-0.427c0.032-0.022,0.107-0.007,0.12-0.031
		c0.042-0.081,0.064-0.171,0.097-0.266c0.021,0.023,0.049,0.06,0.093,0.112c0.06-0.094,0.114-0.18,0.176-0.273
		c0.016,0.014,0.054,0.044,0.104,0.088c0.018-0.058,0.029-0.1,0.043-0.146c0.033,0.03,0.06,0.054,0.1,0.09
		c0.022-0.07,0.041-0.124,0.059-0.177l0.052-0.035c0.017,0.06,0.03,0.118,0.046,0.178c0.024-0.015,0.049-0.028,0.073-0.043
		c0.008-0.049,0.014-0.099,0.016-0.115c0.088-0.036,0.156-0.072,0.231-0.093c0.538-0.161,1.036-0.457,1.633-0.432
		c0.263,0.012,0.528-0.092,0.793-0.138c0.152-0.025,0.31-0.032,0.461-0.062c0.108-0.021,0.211-0.073,0.319-0.097
		c0.056-0.013,0.12,0.017,0.181,0.014c0.565-0.04,1.131-0.093,1.696-0.123c0.298-0.017,0.573-0.078,0.859-0.173
		c0.262-0.087,0.567-0.051,0.854-0.059c0.14-0.002,0.284,0.072,0.369-0.004c0.162,0.019,0.293,0.05,0.423,0.046
		c0.452-0.011,0.905-0.034,1.357-0.058c0.043-0.001,0.082-0.037,0.123-0.051c0.117-0.036,0.232-0.099,0.348-0.099
		c0.492,0.006,0.961-0.1,1.43-0.223c0.744-0.197,1.494-0.369,2.234-0.573c0.25-0.068,0.482-0.197,0.721-0.301
		c0.137-0.056,0.271-0.115,0.408-0.17c0.281-0.116,0.549-0.233,0.762-0.476c0.199-0.222,0.494-0.357,0.689-0.581
		c0.258-0.295,0.461-0.635,0.678-0.962c0.039-0.059,0.025-0.151,0.047-0.224c0.016-0.041,0.068-0.108,0.086-0.103
		c0.168,0.048,0.141-0.085,0.162-0.169c0.061-0.221,0.113-0.445,0.176-0.667c0.018-0.064,0.062-0.121,0.104-0.2
		c-0.035-0.021-0.074-0.043-0.111-0.064c0.035-0.254,0.092-0.507,0.098-0.76c0.002-0.183-0.053-0.368-0.109-0.543
		c-0.018-0.058-0.129-0.082-0.199-0.122c-0.027,0.058-0.055,0.115-0.082,0.173c-0.043,0.093-0.082,0.188-0.129,0.277
		c-0.057,0.106-0.131,0.176-0.127,0.337c0.006,0.216-0.102,0.458-0.225,0.647c-0.102,0.152-0.318,0.221-0.441,0.364
		c-0.125,0.146-0.227,0.289-0.434,0.33c-0.049,0.011-0.074,0.137-0.115,0.22c-0.086-0.141-0.193-0.122-0.27-0.013
		c-0.127,0.175-0.301,0.196-0.484,0.173c-0.16-0.021-0.25,0.055-0.334,0.174c-0.037,0.052-0.105,0.095-0.166,0.107
		c-0.191,0.039-0.377,0.061-0.527,0.219c-0.117,0.122-0.264,0.232-0.455,0.07c-0.109-0.092-0.354,0.011-0.451,0.155
		c-0.062,0.091-0.139,0.175-0.223,0.278c-0.039-0.059-0.053-0.079-0.062-0.099c-0.154-0.264-0.152-0.261-0.43-0.147
		c-0.119,0.049-0.24,0.113-0.365,0.124c-0.131,0.01-0.27-0.021-0.398-0.061c-0.197-0.06-0.377-0.047-0.574,0.021
		c-0.17,0.062-0.359,0.065-0.564,0.099c-0.166-0.161-0.271-0.162-0.535-0.031c-0.146,0.072-0.314,0.106-0.467,0.154
		c-0.207-0.284-0.408-0.347-0.712-0.235c-0.143,0.053-0.286,0.1-0.441,0.153c0.053-0.274-0.112-0.442-0.356-0.387
		c-0.181,0.041-0.358,0.113-0.541,0.139c-0.089,0.012-0.225-0.025-0.276-0.089c-0.122-0.154-0.255-0.149-0.416-0.104
		c-0.191,0.054-0.382,0.104-0.565,0.152c-0.106-0.206-0.379-0.36-0.563-0.33c-0.07,0.012-0.147,0.049-0.198,0.098
		c-0.184,0.178-0.234,0.188-0.423,0.032c-0.231-0.188-0.315-0.187-0.579-0.034c-0.121,0.07-0.26,0.113-0.393,0.168
		c-0.054-0.229-0.314-0.36-0.511-0.266c-0.095,0.045-0.189,0.09-0.278,0.145c-0.092,0.058-0.176,0.126-0.263,0.191
		c-0.059-0.233-0.205-0.331-0.414-0.206c-0.319,0.19-0.617,0.186-0.938,0.04c-0.017-0.008-0.083,0.07-0.106,0.118
		c-0.017,0.035,0.003,0.087-0.004,0.13c-0.003,0.017-0.036,0.03-0.07,0.054c-0.011-0.076-0.021-0.134-0.032-0.206
		c-0.334,0.105-0.659,0.198-0.977,0.313c-0.136,0.047-0.256,0.137-0.392,0.213c0.014-0.05,0.029-0.104,0.052-0.186
		c-0.491-0.212-0.702,0.186-0.976,0.434c-0.297-0.167-0.666-0.082-0.878,0.188c-0.042,0.054-0.128,0.07-0.192,0.11
		c-0.079,0.05-0.165,0.096-0.23,0.163c-0.078,0.082-0.14,0.183-0.223,0.293c-0.062-0.072-0.111-0.127-0.159-0.183
		c-0.127,0.128-0.249,0.25-0.371,0.372c-0.172,0.174-0.353,0.34-0.516,0.52c-0.083,0.092-0.137,0.211-0.212,0.33
		c-0.095-0.141-0.206-0.086-0.292,0.01c-0.136,0.153-0.257,0.322-0.386,0.484c-0.031,0.04-0.059,0.108-0.096,0.113
		c-0.253,0.038-0.319,0.235-0.382,0.464c-0.135-0.155-0.219-0.069-0.283,0.039c-0.144,0.246-0.289,0.49-0.414,0.745
		c-0.045,0.093-0.028,0.213-0.042,0.321c0.018,0.003,0.032,0.004,0.05,0.007c-0.045,0.042-0.093,0.085-0.138,0.127
		c-0.171-0.111-0.217-0.098-0.286,0.104c-0.047,0.133-0.064,0.278-0.118,0.409c-0.068,0.166-0.178,0.316-0.239,0.485
		c-0.086,0.24-0.147,0.492-0.216,0.741C8.096,17.756,8.038,17.946,8,18.138c-0.026,0.132-0.038,0.271-0.029,0.404
		c0.021,0.277,0.067,0.553,0.083,0.83c0.007,0.123-0.016,0.258-0.062,0.371c-0.121,0.287-0.22,0.568-0.206,0.891
		c0.008,0.195-0.073,0.395-0.098,0.594c-0.024,0.197-0.034,0.396-0.038,0.596c-0.007,0.299-0.002,0.598-0.002,0.926
		c-0.052-0.008-0.126-0.006-0.191-0.031c-0.234-0.086-0.467-0.145-0.722-0.094c-0.104,0.021-0.216-0.016-0.321-0.004
		c-0.348,0.043-0.636,0.217-0.897,0.441c-0.077,0.068-0.163,0.127-0.248,0.186c-0.116,0.084-0.169,0.174-0.022,0.324
		c-0.204-0.072-0.261,0.037-0.281,0.168c-0.021,0.133-0.038,0.271-0.028,0.406c0.025,0.41,0.092,0.816,0.093,1.225
		C5.028,25.975,5.346,26.481,5.5,27.038"/>
</g>
</svg>
