<?xml version="1.0" encoding="utf-8"?>
<!-- Generator: Adobe Illustrator 16.0.0, SVG Export Plug-In . SVG Version: 6.00 Build 0)  -->
<!DOCTYPE svg PUBLIC "-//W3C//DTD SVG 1.1//EN" "http://www.w3.org/Graphics/SVG/1.1/DTD/svg11.dtd">
<svg version="1.1" id="Calque_1" xmlns="http://www.w3.org/2000/svg" xmlns:xlink="http://www.w3.org/1999/xlink" x="0px" y="0px"
	 width="45.701px" height="45.7px" viewBox="0 0 45.701 45.7" enable-background="new 0 0 45.701 45.7" xml:space="preserve">
<g>
	<path fill="#FFFFFF" d="M45.201,22.85c0,12.344-10.008,22.351-22.35,22.351C10.507,45.2,0.5,35.193,0.5,22.85
		S10.507,0.5,22.851,0.5C35.193,0.5,45.201,10.506,45.201,22.85"/>
	<circle fill="none" stroke="#4E956C" stroke-miterlimit="10" cx="22.851" cy="22.85" r="22.35"/>
	<path fill="#71AA8A" d="M23.205,6.377c-0.046-0.375-0.662-0.375-0.707,0c-1.543,12.405-9.421,14.961-9.421,23.584
		c0,5.326,4.474,9.645,9.772,9.645c5.301,0,9.776-4.318,9.776-9.645C32.625,21.338,24.746,18.782,23.205,6.377 M21.716,20.089
		c-0.104,0.384-0.215,0.777-0.329,1.183c-0.701,2.487-1.495,5.305-1.495,8.565c0,1.765-1.043,2.392-2.018,2.392
		c-1.113,0-2.018-0.912-2.018-2.035c0-3.852,1.854-6.368,3.491-8.588c0.513-0.694,0.996-1.352,1.391-2.008
		c0.18-0.298,0.664-0.285,0.884,0.012C21.726,19.75,21.76,19.925,21.716,20.089"/>
</g>
</svg>
