<?xml version="1.0" encoding="utf-8"?>
<!-- Generator: Adobe Illustrator 16.0.0, SVG Export Plug-In . SVG Version: 6.00 Build 0)  -->
<!DOCTYPE svg PUBLIC "-//W3C//DTD SVG 1.1//EN" "http://www.w3.org/Graphics/SVG/1.1/DTD/svg11.dtd">
<svg version="1.1" id="Calque_1" xmlns="http://www.w3.org/2000/svg" xmlns:xlink="http://www.w3.org/1999/xlink" x="0px" y="0px"
	 width="45.7px" height="45.7px" viewBox="0 0 45.7 45.7" enable-background="new 0 0 45.7 45.7" xml:space="preserve">
<g>
	<circle fill="#FFFFFF" cx="22.85" cy="22.85" r="22.35"/>
	<path fill="#FFFFFF" stroke="#C3CED6" stroke-miterlimit="10" d="M45.2,22.85C45.2,35.193,35.193,45.2,22.85,45.2
		C10.507,45.2,0.5,35.193,0.5,22.85C0.5,10.506,10.507,0.5,22.85,0.5C35.193,0.5,45.2,10.506,45.2,22.85"/>
	<path fill="#94A7B6" d="M27.502,36.753h2.144c1.454,0,2.57-1.453,2.457-3.141c-0.551-8.189,4.866-19.366,4.866-19.366
		C24.361,23.745,27.502,36.753,27.502,36.753"/>
	<path fill="#94A7B6" d="M36.969,10.712C26.589,15.069,24.226,21.23,24.226,21.23s2.399,5.818,1.732,8.289
		C28.72,16.502,36.969,10.712,36.969,10.712"/>
	<path fill="#94A7B6" d="M8.406,13.455c0,0,5.433,11.819,4.862,20.163c-0.116,1.686,1.003,3.135,2.457,3.135
		c1.3,0,2.387-1.17,2.465-2.681C18.422,29.588,17.602,20.379,8.406,13.455"/>
	<path fill="#94A7B6" d="M13.316,8.948c0,0,6.872,14.458,5.891,24.555c-0.167,1.726,0.956,3.25,2.448,3.25h1.106
		c1.275,0,2.35-1.127,2.46-2.606C25.596,29.095,24.939,17.704,13.316,8.948"/>
</g>
</svg>
