<?xml version="1.0" encoding="utf-8"?>
<!-- Generator: Adobe Illustrator 16.0.0, SVG Export Plug-In . SVG Version: 6.00 Build 0)  -->
<!DOCTYPE svg PUBLIC "-//W3C//DTD SVG 1.1//EN" "http://www.w3.org/Graphics/SVG/1.1/DTD/svg11.dtd">
<svg version="1.1" id="Calque_1" xmlns="http://www.w3.org/2000/svg" xmlns:xlink="http://www.w3.org/1999/xlink" x="0px" y="0px"
	 width="45.701px" height="45.7px" viewBox="0 0 45.701 45.7" enable-background="new 0 0 45.701 45.7" xml:space="preserve">
<g>
	<path fill="#FFFFFF" d="M45.201,22.85c0,12.343-10.008,22.35-22.35,22.35C10.507,45.2,0.5,35.193,0.5,22.85
		C0.5,10.506,10.507,0.5,22.851,0.5C35.193,0.5,45.201,10.506,45.201,22.85"/>
	<circle fill="none" stroke="#4E956C" stroke-miterlimit="10" cx="22.851" cy="22.85" r="22.351"/>
	<path fill="#71AA8A" d="M18.917,26.39C21.54,16.552,6.4,16.036,6.4,16.036s0.322,13.017,8.592,12.585
		c-0.193-3.246-3.187-6.562-3.187-6.562c1.46,1.02,2.752,2.456,3.801,3.855c1.174,1.584,2.049,3.129,2.519,4.035
		c0.722,1.113,1.415,2.687,1.88,4.903c-0.202,1.817-0.299,3.235-0.311,4.345c-0.009,0.803,0.648,1.45,1.445,1.45
		c0.797,0,1.451-0.647,1.451-1.45c0-7.062,1.098-9.591,2.32-12.219c0.494-1.23,1.56-3.568,3.514-6.577
		c0.568-0.871,1.213-1.801,1.936-2.777c0,0-0.717,1.401-1.356,3.371c-0.187,0.598-0.371,1.242-0.529,1.915
		c-0.237,1.041-0.405,2.144-0.426,3.237c9.957,0.376,10.513-15.956,10.513-15.956s-19.064,0.47-15.15,13.536
		c-0.856,1.296-1.698,3.069-2.365,5.484C20.368,27.984,19.625,27.068,18.917,26.39"/>
</g>
</svg>
