<?xml version="1.0" encoding="utf-8"?>
<!-- Generator: Adobe Illustrator 16.0.0, SVG Export Plug-In . SVG Version: 6.00 Build 0)  -->
<!DOCTYPE svg PUBLIC "-//W3C//DTD SVG 1.1//EN" "http://www.w3.org/Graphics/SVG/1.1/DTD/svg11.dtd">
<svg version="1.1" id="Calque_1" xmlns="http://www.w3.org/2000/svg" xmlns:xlink="http://www.w3.org/1999/xlink" x="0px" y="0px"
	 width="45.701px" height="45.7px" viewBox="0 0 45.701 45.7" enable-background="new 0 0 45.701 45.7" xml:space="preserve">
<g>
	<path fill="#3F627C" d="M45.201,22.849c0,12.345-10.008,22.351-22.35,22.351C10.507,45.2,0.5,35.194,0.5,22.849
		C0.5,10.505,10.507,0.5,22.852,0.5C35.193,0.5,45.201,10.505,45.201,22.849"/>
	<circle fill="none" stroke="#FFFFFF" stroke-miterlimit="10" cx="22.851" cy="22.849" r="22.351"/>
	<path fill="#FFFFFF" d="M36.7,31.122c-0.262-0.033-0.509,0.08-0.66,0.274l-1.026-0.128l1.479-1.459
		c0.239,0.062,0.505,0,0.692-0.188c0.281-0.285,0.279-0.742-0.002-1.022c-0.282-0.281-0.739-0.28-1.021,0.002
		c-0.186,0.187-0.248,0.449-0.188,0.687l-1.322,1.305l0.441-1.678c0.232-0.068,0.431-0.244,0.498-0.496
		c0.1-0.387-0.131-0.78-0.516-0.883c-0.386-0.101-0.781,0.131-0.882,0.516c-0.067,0.253,0.019,0.502,0.188,0.677l-0.479,1.822
		l-0.541-1.958c0.168-0.178,0.25-0.428,0.181-0.68c-0.107-0.385-0.504-0.61-0.888-0.504c-0.685,0.188-0.728,1.172,0,1.379
		l0.424,1.537c-0.321,0.139-2.55,1.104-2.778,1.203c0.154-0.683,0.119-0.531,0.683-2.999c0.003,0.015,0.034-0.218,0.036-0.334
		c0.039-1.346-1.206-2.586-2.889-2.01c-0.082,0.028,0.014-0.024-1.721,0.892c0.402-1.59,0.682-3.285,0.811-4.886
		c1.867,1.136,2.619-0.124,2.822-0.668c0.027-0.073,2.282-6.807,2.282-6.807l1.545-1.549c0.237,0.058,0.495,0.006,0.679-0.18
		c0.282-0.282,0.28-0.74-0.002-1.021c-0.281-0.281-0.738-0.28-1.021,0.002c-0.185,0.186-0.235,0.444-0.177,0.681l-1.344,1.348
		l0.451-1.713c0.234-0.07,0.432-0.245,0.497-0.498c0.103-0.387-0.129-0.78-0.514-0.882c-0.386-0.102-0.781,0.13-0.882,0.515
		c-0.067,0.253,0.019,0.502,0.188,0.678l-0.479,1.821l-0.541-1.958c0.168-0.177,0.25-0.427,0.181-0.681
		c-0.106-0.384-0.504-0.608-0.888-0.504c-0.385,0.106-0.61,0.504-0.504,0.89c0.068,0.252,0.269,0.423,0.502,0.489l0.498,1.803
		c0,0-1.213,2.375-2.416,4.729c-0.161-0.161-0.322-0.323-0.467-0.468c-0.197-0.198-0.379-0.378-0.539-0.539
		c-0.193-1.157-0.517-2.132-0.941-2.922c0.167-0.235,0.268-0.522,0.268-0.832c0-0.797-0.645-1.441-1.44-1.441
		c-0.077,0-0.15,0.012-0.224,0.022l-0.817-0.817c0.004-0.049,0.015-0.096,0.015-0.145c0-0.974-0.788-1.769-1.759-1.769
		c-0.972,0-1.76,0.795-1.76,1.769c0,0.049,0.011,0.096,0.015,0.145l-0.817,0.817c-0.073-0.011-0.147-0.022-0.224-0.022
		c-0.795,0-1.441,0.646-1.441,1.441c0,0.31,0.101,0.597,0.269,0.833c-0.426,0.79-0.749,1.764-0.943,2.921
		c-0.16,0.161-0.341,0.341-0.538,0.539c-0.145,0.145-0.306,0.307-0.467,0.468c-1.202-2.354-2.417-4.729-2.417-4.729l0.498-1.803
		c0.234-0.066,0.434-0.237,0.504-0.489c0.105-0.386-0.12-0.783-0.504-0.89c-0.385-0.104-0.782,0.12-0.889,0.504
		c-0.069,0.254,0.013,0.504,0.181,0.681l-0.541,1.958l-0.479-1.821c0.169-0.176,0.255-0.425,0.189-0.677
		c-0.102-0.386-0.497-0.617-0.882-0.516c-0.386,0.102-0.617,0.496-0.515,0.882c0.066,0.253,0.264,0.428,0.497,0.498l0.451,1.713
		l-1.343-1.348c0.058-0.236,0.008-0.495-0.177-0.681c-0.282-0.282-0.739-0.283-1.021-0.002c-0.282,0.281-0.284,0.739-0.002,1.021
		c0.184,0.186,0.443,0.237,0.68,0.18l1.544,1.549c0,0,2.255,6.733,2.282,6.807c0.204,0.544,0.956,1.804,2.823,0.668
		c0.129,1.601,0.408,3.296,0.811,4.886c-1.735-0.916-1.638-0.863-1.721-0.892c-1.682-0.576-2.929,0.664-2.888,2.01
		c0.001,0.116,0.032,0.349,0.035,0.334c0.563,2.468,0.528,2.316,0.684,2.999c-0.229-0.1-2.457-1.064-2.78-1.203l0.425-1.537
		c0.726-0.207,0.684-1.19,0-1.379c-0.385-0.106-0.782,0.119-0.889,0.504c-0.069,0.252,0.014,0.502,0.181,0.68l-0.541,1.958
		l-0.479-1.822c0.169-0.175,0.255-0.424,0.189-0.677c-0.102-0.385-0.497-0.616-0.882-0.516c-0.386,0.103-0.616,0.496-0.515,0.883
		c0.066,0.252,0.264,0.428,0.497,0.496l0.441,1.678l-1.322-1.305c0.06-0.237-0.002-0.5-0.188-0.687
		c-0.282-0.282-0.739-0.283-1.021-0.002c-0.282,0.28-0.283,0.737-0.002,1.022c0.188,0.188,0.453,0.25,0.693,0.188l1.479,1.459
		l-1.027,0.128c-0.151-0.194-0.397-0.308-0.66-0.274c-0.396,0.049-0.676,0.41-0.627,0.806c0.049,0.396,0.41,0.676,0.807,0.627
		c0.262-0.033,0.473-0.203,0.571-0.429l1.606-0.201c0.17,0.094,4.788,2.66,4.788,2.66c0.501,0.277,1.115,0.25,1.589-0.07
		c0.473-0.322,0.726-0.883,0.653-1.45c-0.189-1.448-0.366-2.813-0.367-2.819c0.096,0.062,2.614,1.795,3.891,2.666
		c0.502,0.543,1.039,0.869,1.596,0.869c0.558,0,1.093-0.326,1.595-0.869c1.277-0.871,3.797-2.604,3.891-2.666
		c0,0.006-0.178,1.371-0.365,2.819c-0.074,0.567,0.179,1.128,0.652,1.45c0.474,0.32,1.088,0.348,1.588,0.07
		c0,0,4.619-2.566,4.789-2.66l1.605,0.201c0.098,0.226,0.309,0.396,0.572,0.429c0.396,0.049,0.757-0.231,0.806-0.627
		C37.377,31.532,37.096,31.17,36.7,31.122"/>
</g>
</svg>
