<?xml version="1.0" encoding="utf-8"?>
<!-- Generator: Adobe Illustrator 16.0.0, SVG Export Plug-In . SVG Version: 6.00 Build 0)  -->
<!DOCTYPE svg PUBLIC "-//W3C//DTD SVG 1.1//EN" "http://www.w3.org/Graphics/SVG/1.1/DTD/svg11.dtd">
<svg version="1.1" id="Calque_1" xmlns="http://www.w3.org/2000/svg" xmlns:xlink="http://www.w3.org/1999/xlink" x="0px" y="0px"
	 width="45.701px" height="45.7px" viewBox="0 0 45.701 45.7" enable-background="new 0 0 45.701 45.7" xml:space="preserve">
<g>
	<path fill="#FFFFFF" d="M45.201,22.85c0,12.344-10.006,22.35-22.35,22.35C10.507,45.2,0.5,35.194,0.5,22.85
		C0.5,10.505,10.507,0.5,22.852,0.5C35.195,0.5,45.201,10.505,45.201,22.85"/>
	<circle fill="#3F627C" stroke="#FFFFFF" stroke-miterlimit="10" cx="22.851" cy="22.85" r="22.351"/>
	<path fill="#FFFFFF" d="M18.917,26.389C21.541,16.551,6.4,16.036,6.4,16.036s0.321,13.017,8.592,12.586
		c-0.193-3.246-3.188-6.563-3.188-6.563c1.46,1.021,2.752,2.456,3.802,3.856c1.174,1.584,2.049,3.127,2.519,4.033
		c0.722,1.114,1.415,2.688,1.88,4.904c-0.202,1.817-0.299,3.235-0.311,4.346c-0.009,0.801,0.647,1.449,1.444,1.449
		c0.798,0,1.451-0.648,1.451-1.449c0-7.063,1.1-9.592,2.322-12.22c0.494-1.231,1.559-3.567,3.512-6.577
		c0.57-0.871,1.213-1.801,1.936-2.777c0,0-0.717,1.402-1.355,3.371c-0.188,0.599-0.371,1.242-0.529,1.916
		c-0.236,1.039-0.406,2.144-0.426,3.236c9.957,0.376,10.512-15.956,10.512-15.956s-19.064,0.471-15.148,13.536
		c-0.857,1.296-1.699,3.069-2.365,5.484C20.368,27.983,19.625,27.069,18.917,26.389"/>
</g>
</svg>
