<?xml version="1.0" encoding="utf-8"?>
<!-- Generator: Adobe Illustrator 16.0.0, SVG Export Plug-In . SVG Version: 6.00 Build 0)  -->
<!DOCTYPE svg PUBLIC "-//W3C//DTD SVG 1.1//EN" "http://www.w3.org/Graphics/SVG/1.1/DTD/svg11.dtd">
<svg version="1.1" id="Calque_1" xmlns="http://www.w3.org/2000/svg" xmlns:xlink="http://www.w3.org/1999/xlink" x="0px" y="0px"
	 width="35px" height="33.885px" viewBox="0 0 35 33.885" enable-background="new 0 0 35 33.885" xml:space="preserve">
<path fill="#27393D" d="M34.561,16.533c0.635-0.698,0.575-1.768-0.136-2.39L18.784,0.458c-0.712-0.621-1.848-0.608-2.546,0.026
	L0.545,14.875c-0.695,0.635-0.732,1.705-0.077,2.383l0.393,0.409c0.654,0.682,1.709,0.761,2.356,0.183l1.174-1.051v15.378
	c0,0.944,0.765,1.708,1.708,1.708h6.116c0.945,0,1.709-0.764,1.709-1.708v-10.76h7.802v10.76c-0.013,0.944,0.662,1.705,1.604,1.705
	h6.482c0.945,0,1.709-0.761,1.709-1.705V17.016c0,0,0.323,0.282,0.725,0.634c0.398,0.35,1.237,0.07,1.871-0.628L34.561,16.533z"/>
</svg>
