<?xml version="1.0" encoding="utf-8"?>
<!-- Generator: Adobe Illustrator 16.0.0, SVG Export Plug-In . SVG Version: 6.00 Build 0)  -->
<!DOCTYPE svg PUBLIC "-//W3C//DTD SVG 1.1//EN" "http://www.w3.org/Graphics/SVG/1.1/DTD/svg11.dtd">
<svg version="1.1" id="Calque_1" xmlns="http://www.w3.org/2000/svg" xmlns:xlink="http://www.w3.org/1999/xlink" x="0px" y="0px"
	 width="35.001px" height="34.999px" viewBox="0 0 35.001 34.999" enable-background="new 0 0 35.001 34.999" xml:space="preserve">
<path fill="#999999" d="M29.875,5.126c-6.832-6.835-17.915-6.835-24.747,0c-6.837,6.833-6.837,17.916,0,24.748
	c6.832,6.832,17.915,6.836,24.747,0C36.711,23.042,36.708,11.959,29.875,5.126 M19.783,25.107c0,1.263-1.021,2.285-2.284,2.285
	c-1.259,0-2.281-1.022-2.281-2.285v-9.129c0-1.264,1.022-2.284,2.281-2.284c1.264,0,2.284,1.021,2.284,2.284V25.107z M17.458,12.078
	c-1.313,0-2.188-0.934-2.162-2.085c-0.026-1.203,0.849-2.106,2.192-2.106c1.342,0,2.188,0.903,2.218,2.106
	C19.706,11.145,18.83,12.078,17.458,12.078"/>
</svg>
