<?xml version="1.0" encoding="utf-8"?>
<!-- Generator: Adobe Illustrator 16.0.0, SVG Export Plug-In . SVG Version: 6.00 Build 0)  -->
<!DOCTYPE svg PUBLIC "-//W3C//DTD SVG 1.1//EN" "http://www.w3.org/Graphics/SVG/1.1/DTD/svg11.dtd">
<svg version="1.1" id="Calque_1" xmlns="http://www.w3.org/2000/svg" xmlns:xlink="http://www.w3.org/1999/xlink" x="0px" y="0px"
	 width="24.112px" height="35px" viewBox="0 0 24.112 35" enable-background="new 0 0 24.112 35" xml:space="preserve">
<path fill="#27393D" d="M23.542,8.712c-0.125-0.467-0.377-0.965-0.565-1.401C20.737,1.93,15.844,0,11.892,0
	C6.604,0,0.778,3.547,0,10.857v1.492c0,0.063,0.02,0.623,0.051,0.904c0.437,3.481,3.186,7.186,5.239,10.67
	c2.208,3.732,4.5,7.405,6.771,11.076c1.4-2.396,2.797-4.823,4.164-7.157c0.374-0.683,0.807-1.367,1.18-2.021
	c0.248-0.437,0.725-0.872,0.941-1.275c2.209-4.045,5.766-8.12,5.766-12.134v-1.648C24.112,10.33,23.573,8.805,23.542,8.712
	 M11.989,16.209c-1.555,0-3.256-0.777-4.096-2.924c-0.125-0.343-0.116-1.028-0.116-1.091v-0.965c0-2.737,2.324-3.981,4.347-3.981
	c2.488,0,4.414,1.991,4.414,4.48C16.538,14.219,14.478,16.209,11.989,16.209"/>
</svg>
