<?xml version="1.0" encoding="utf-8"?>
<!-- Generator: Adobe Illustrator 16.0.0, SVG Export Plug-In . SVG Version: 6.00 Build 0)  -->
<!DOCTYPE svg PUBLIC "-//W3C//DTD SVG 1.1//EN" "http://www.w3.org/Graphics/SVG/1.1/DTD/svg11.dtd">
<svg version="1.1" id="Calque_1" xmlns="http://www.w3.org/2000/svg" xmlns:xlink="http://www.w3.org/1999/xlink" x="0px" y="0px"
	 width="53.002px" height="97.034px" viewBox="0 0 53.002 97.034" enable-background="new 0 0 53.002 97.034" xml:space="preserve">
<path fill="#7E2E6C" d="M28.103,36.623c9.818-2.087,16.085-11.738,13.999-21.557C40.015,5.249,30.364-1.02,20.546,1.067
	C10.728,3.154,4.46,12.805,6.547,22.624S18.285,38.709,28.103,36.623"/>
<path fill="#92A93D" d="M23.714,17.566c2.087,9.817,1.444,19.95,4.447,19.279c9.796-2.191,16.086-11.738,13.999-21.557
	C40.741,8.613,35.825,3.578,29.735,1.696"/>
<polygon fill="#C5C7C9" points="26.118,0.775 26.873,0.933 30.072,1.842 33.082,3.179 35.861,4.817 38.427,6.933 39.864,8.467 
	38.944,9.372 38.4,10.892 38.456,11.897 37.986,12.396 36.985,12.747 36.754,13.036 38.487,13.948 39.146,14.916 39.334,15.801 
	39.156,17.095 37.983,16.522 37.476,15.51 36.24,15.338 34.807,14.113 34.139,14.128 33.798,17.183 34.328,19.675 33.806,19.924 
	33.104,19.501 30.616,16.364 27.93,15.449 25.148,15.594 25.552,16.857 27.127,17.424 29.253,17.018 29.44,17.904 29.1,19.461 
	28.426,19.857 27.816,20.671 26.316,19.825 24.579,18.834 24.149,19.462 24.901,20.354 26.24,20.56 26.316,19.825 27.816,20.671 
	29.138,24.585 29.666,24.656 29.794,25.256 28.638,28.06 28.868,29.51 29.188,31.312 29.069,33.408 29.256,34.764 28.385,36.518 
	26.855,36.843 25.258,34.217 23.747,32.631 22.623,30.561 20.781,28.449 19.831,27.556 18.952,23.812 18.227,23.739 16.543,24.849 
	14.788,24.984 14.05,24.386 13.17,23.065 13.546,20.746 14.171,19.951 15.308,19.035 16.281,18.895 17.312,18.289 17.781,17.96 
	17.979,18.889 19.224,19.288 22.099,18.494 23.356,16.02 22.554,15.403 20.76,15.991 18.687,16.876 17.806,16.87 15.897,17.092 
	16.303,16.07 17.177,15.46 18.552,14.86 18.704,14.542 18.126,14.127 18.299,13.668 19.24,13.035 19.847,12.905 20.114,13.179 
	21.277,12.098 21.837,11.283 22.471,10.988 23.307,10.147 23.879,8.986 23.539,7.846 22.969,7.694 22.271,8.436 22.32,9.876 
	21.78,10.265 21.13,10.199 21.298,8.974 21.728,7.089 22.591,6.781 23.271,6.761 23.175,5.673 23.664,5.272 24.625,5.651 
	24.792,6.438 26.974,3.998 26.779,1.764 "/>
<polygon fill="#C5C7C9" points="42.185,23.85 41.287,26.291 40.909,27.028 40.004,26.742 39.288,26.106 38.5,26.021 37.147,27.903 
	36.52,28.036 36.189,27.59 36.38,26.237 36.221,24.555 36.429,23.46 37.354,22.786 38.597,22.325 38.371,21.266 38.879,20.83 
	39.46,21.006 40.364,21.949 40.396,21.22 40.947,21.252 41.54,22.055 "/>
<polygon fill="#C5C7C9" points="11.186,7.69 11.107,8.526 11.206,9.415 11.1,10.172 10.812,10.345 10.625,10.384 10.912,11.559 
	10.692,12.258 10.36,12.329 10.146,11.993 9.855,11.228 9.915,10.945 9.749,10.57 9.401,10.242 9.221,10.28 8.931,10.87 
	8.69,11.059 8.41,12.174 8.56,12.468 8.794,12.509 9.031,12.382 9.16,11.695 9.25,11.232 9.44,11.171 9.806,12.204 9.976,12.258 
	10.017,13.193 9.966,13.467 9.659,13.616 9.124,14.306 8.996,14.93 8.82,15.731 8.653,16.148 8.534,16.243 8.337,16.453 
	8.339,16.888 8.564,17.84 8.46,18.536 8.344,18.504 8.179,18.102 8.205,17.569 7.991,16.844 7.582,16.709 7.433,17.143 7.577,17.82 
	7.319,17.758 7.447,18.431 7.467,19.323 7.627,20.233 8.041,20.464 8.196,19.848 8.384,20.481 8.373,21.067 8.577,21.849 
	8.745,22.181 8.835,22.072 8.965,22.044 9.318,23.017 9.591,23.487 10.186,23.575 10.503,23.703 10.71,24.624 10.973,24.957 
	11.284,24.807 11.477,24.849 11.729,25.677 11.856,25.886 12.245,26.067 12.622,27.097 12.511,27.711 13.189,30.44 13.579,31.42 
	13.941,31.655 14.054,31.867 14.592,32.308 14.906,32.366 15.181,32.544 15.591,32.666 15.669,33.266 15.424,33.637 15.07,34.059 
	14.275,33.917 13.194,33.382 12.126,32.631 11.073,31.646 10.084,30.427 9.18,29.03 8.362,27.448 8.066,26.782 8.873,26.096 
	8.851,25.407 9.089,25.002 9.19,23.711 8.479,22.522 8.134,21.735 7.771,20.911 7.153,20.521 6.734,21.012 6.619,22.085 
	6.317,20.219 6.168,18.349 6.169,16.53 6.338,14.842 6.655,13.199 7.094,11.739 7.686,10.447 8.417,9.424 9.248,8.602 10.169,7.989 
	11.153,7.697 "/>
<path fill="#FFFFFF" d="M24.32,37.685c-8.702,0-16.543-6.078-18.423-14.924c-1.046-4.922-0.113-9.956,2.628-14.177
	c2.74-4.221,6.96-7.12,11.882-8.166c4.922-1.047,9.957-0.114,14.178,2.627s7.12,6.961,8.166,11.883s0.113,9.957-2.627,14.177
	c-2.741,4.22-6.961,7.121-11.883,8.167C26.926,37.551,25.613,37.685,24.32,37.685 M24.36,1.154c-1.234,0-2.477,0.13-3.713,0.393
	c-4.62,0.981-8.582,3.705-11.155,7.667c-2.572,3.962-3.448,8.688-2.466,13.308c2.027,9.539,11.437,15.648,20.975,13.622
	c4.621-0.981,8.582-3.705,11.155-7.666c2.573-3.962,3.449-8.688,2.467-13.309c-0.981-4.621-3.705-8.582-7.667-11.155
	C31.054,2.128,27.741,1.154,24.36,1.154"/>
<path fill="#90537F" d="M22.932,84.409c-0.114,0.356-0.307,0.679-0.578,0.966c-0.312,0.337-0.667,0.589-1.065,0.757
	c-0.398,0.169-0.823,0.253-1.274,0.253c-0.435,0-0.844-0.078-1.225-0.233c-0.382-0.156-0.721-0.383-1.016-0.678
	c-0.205-0.205-0.363-0.419-0.474-0.64c-0.111-0.222-0.193-0.47-0.246-0.745c-0.054-0.275-0.085-0.587-0.093-0.936
	c-0.008-0.35-0.012-0.759-0.012-1.226c0-0.468,0.004-0.877,0.012-1.226c0.008-0.35,0.039-0.66,0.093-0.937
	c0.053-0.273,0.135-0.522,0.246-0.745c0.111-0.221,0.269-0.435,0.474-0.64c0.607-0.606,1.354-0.911,2.241-0.911
	c0.419,0,0.802,0.064,1.151,0.191s0.655,0.308,0.918,0.542c0.262,0.233,0.479,0.511,0.646,0.831
	c0.168,0.319,0.284,0.673,0.351,1.059h-0.936c-0.123-0.558-0.372-0.995-0.746-1.312c-0.373-0.316-0.835-0.475-1.385-0.475
	c-0.288,0-0.565,0.057-0.831,0.167c-0.267,0.11-0.495,0.265-0.684,0.461c-0.139,0.141-0.25,0.29-0.332,0.45
	s-0.144,0.352-0.185,0.572c-0.041,0.222-0.068,0.491-0.08,0.807c-0.012,0.316-0.018,0.704-0.018,1.164
	c0,0.459,0.006,0.848,0.018,1.163c0.012,0.316,0.039,0.587,0.08,0.813c0.041,0.226,0.103,0.418,0.185,0.579
	c0.082,0.159,0.193,0.309,0.332,0.448c0.189,0.197,0.417,0.35,0.684,0.456c0.266,0.106,0.543,0.16,0.831,0.16
	c0.32,0,0.626-0.063,0.917-0.19c0.292-0.128,0.54-0.314,0.745-0.561c0.181-0.214,0.308-0.446,0.381-0.696
	c0.074-0.25,0.111-0.548,0.111-0.893v-0.665h-2.155v-0.825h3.09v1.392C23.104,83.619,23.047,84.051,22.932,84.409 M25.284,86.31
	v-8.767h5.443v0.837H26.22v3.091h3.843v0.837H26.22v3.165h4.508v0.837H25.284z M38.459,83.153c-0.008,0.349-0.039,0.66-0.092,0.936
	c-0.054,0.275-0.135,0.523-0.246,0.745c-0.111,0.221-0.269,0.435-0.474,0.64c-0.296,0.295-0.633,0.521-1.011,0.678
	c-0.378,0.155-0.788,0.233-1.23,0.233c-0.887,0-1.634-0.304-2.242-0.911c-0.205-0.205-0.363-0.419-0.473-0.64
	c-0.111-0.222-0.193-0.47-0.247-0.745s-0.084-0.587-0.092-0.936c-0.009-0.35-0.013-0.759-0.013-1.226
	c0-0.468,0.004-0.877,0.013-1.226c0.008-0.35,0.038-0.66,0.092-0.937c0.054-0.273,0.136-0.522,0.247-0.745
	c0.109-0.221,0.268-0.435,0.473-0.64c0.608-0.606,1.355-0.911,2.242-0.911c0.886,0,1.633,0.305,2.241,0.911
	c0.205,0.205,0.362,0.419,0.474,0.64c0.111,0.223,0.192,0.472,0.246,0.745c0.053,0.276,0.084,0.587,0.092,0.937
	c0.009,0.349,0.013,0.758,0.013,1.226C38.472,82.394,38.468,82.803,38.459,83.153 M37.519,80.763
	c-0.014-0.315-0.04-0.585-0.081-0.807c-0.041-0.221-0.103-0.412-0.185-0.572s-0.192-0.31-0.333-0.45
	c-0.188-0.196-0.417-0.351-0.683-0.461c-0.268-0.11-0.544-0.167-0.831-0.167c-0.288,0-0.565,0.057-0.831,0.167
	c-0.268,0.11-0.495,0.265-0.685,0.461c-0.14,0.141-0.25,0.29-0.333,0.45c-0.08,0.16-0.143,0.352-0.184,0.572
	c-0.041,0.222-0.068,0.491-0.08,0.807c-0.012,0.316-0.019,0.704-0.019,1.164c0,0.459,0.007,0.848,0.019,1.163
	c0.012,0.316,0.039,0.585,0.08,0.807s0.104,0.412,0.184,0.572c0.083,0.16,0.193,0.311,0.333,0.45
	c0.189,0.197,0.417,0.351,0.685,0.461c0.266,0.111,0.543,0.167,0.831,0.167c0.287,0,0.563-0.056,0.831-0.167
	c0.266-0.11,0.494-0.264,0.683-0.461c0.141-0.14,0.251-0.29,0.333-0.45s0.144-0.351,0.185-0.572s0.067-0.49,0.081-0.807
	c0.012-0.315,0.018-0.704,0.018-1.163C37.536,81.467,37.53,81.08,37.519,80.763 M45.743,84.937
	c-0.145,0.309-0.349,0.569-0.616,0.782c-0.267,0.214-0.587,0.378-0.96,0.493c-0.374,0.114-0.786,0.172-1.238,0.172
	c-0.656,0-1.219-0.09-1.687-0.271s-0.907-0.477-1.317-0.887l0.641-0.641c0.36,0.362,0.726,0.612,1.096,0.751
	c0.369,0.14,0.8,0.21,1.293,0.21c0.64,0,1.145-0.142,1.514-0.425c0.37-0.283,0.555-0.683,0.555-1.201
	c0-0.229-0.035-0.438-0.104-0.628c-0.07-0.188-0.175-0.344-0.313-0.468c-0.141-0.123-0.285-0.211-0.438-0.265
	s-0.388-0.104-0.708-0.153l-1.022-0.16c-0.697-0.115-1.235-0.337-1.612-0.665c-0.444-0.395-0.665-0.94-0.665-1.638
	c0-0.369,0.064-0.708,0.197-1.017c0.131-0.308,0.317-0.567,0.56-0.782c0.242-0.213,0.536-0.38,0.88-0.497
	c0.345-0.119,0.735-0.18,1.17-0.18c0.559,0,1.038,0.076,1.441,0.229c0.402,0.151,0.792,0.396,1.17,0.731l-0.604,0.604
	c-0.271-0.246-0.562-0.434-0.874-0.561c-0.312-0.128-0.701-0.19-1.17-0.19c-0.591,0-1.046,0.146-1.366,0.442
	c-0.32,0.295-0.48,0.689-0.48,1.183c0,0.442,0.131,0.779,0.395,1.01c0.14,0.115,0.313,0.213,0.523,0.295
	c0.209,0.083,0.428,0.145,0.658,0.185l0.961,0.148c0.205,0.033,0.388,0.067,0.548,0.104c0.16,0.036,0.301,0.079,0.424,0.13
	c0.123,0.049,0.237,0.104,0.339,0.166c0.104,0.061,0.199,0.133,0.29,0.215c0.492,0.419,0.738,0.998,0.738,1.736
	C45.958,84.284,45.886,84.629,45.743,84.937 M52.786,84.937c-0.144,0.309-0.349,0.569-0.616,0.782
	c-0.266,0.214-0.586,0.378-0.96,0.493c-0.374,0.114-0.786,0.172-1.237,0.172c-0.656,0-1.22-0.09-1.687-0.271
	c-0.468-0.181-0.908-0.477-1.318-0.887l0.641-0.641c0.361,0.362,0.727,0.612,1.096,0.751c0.369,0.14,0.801,0.21,1.293,0.21
	c0.64,0,1.146-0.142,1.515-0.425s0.555-0.683,0.555-1.201c0-0.229-0.035-0.438-0.105-0.628c-0.07-0.188-0.174-0.344-0.313-0.468
	c-0.14-0.123-0.285-0.211-0.438-0.265s-0.388-0.104-0.708-0.153l-1.021-0.16c-0.698-0.115-1.236-0.337-1.613-0.665
	c-0.443-0.395-0.665-0.94-0.665-1.638c0-0.369,0.066-0.708,0.197-1.017c0.131-0.308,0.317-0.567,0.56-0.782
	c0.242-0.213,0.536-0.38,0.881-0.497c0.345-0.119,0.734-0.18,1.17-0.18c0.559,0,1.038,0.076,1.44,0.229
	c0.402,0.151,0.792,0.396,1.17,0.731l-0.604,0.604c-0.27-0.246-0.562-0.434-0.873-0.561c-0.312-0.128-0.701-0.19-1.17-0.19
	c-0.591,0-1.047,0.146-1.366,0.442c-0.32,0.295-0.48,0.689-0.48,1.183c0,0.442,0.131,0.779,0.395,1.01
	c0.139,0.115,0.313,0.213,0.522,0.295c0.209,0.083,0.429,0.145,0.659,0.185l0.96,0.148c0.205,0.033,0.388,0.067,0.548,0.104
	c0.16,0.036,0.302,0.079,0.425,0.13c0.123,0.049,0.236,0.104,0.339,0.166c0.103,0.061,0.199,0.133,0.289,0.215
	c0.492,0.419,0.739,0.998,0.739,1.736C53.002,84.284,52.93,84.629,52.786,84.937"/>
<path fill="#7E2E6C" d="M7.947,77.543H6.236l-2.27,4.741l-2.281-4.741h-1.68v8.767h1.711v-5.109l1.687,3.324h1.158l1.675-3.324
	v5.109h1.711V77.543z M14.116,77.543l-1.613,3.534l-1.638-3.534H9.006l2.635,5.172v3.595h1.699v-3.595l2.635-5.172H14.116z"/>
<path fill="#231F20" d="M0.085,97.005v-3.419h2.78v0.229H0.433v1.351h2.072v0.229H0.433v1.378h2.433v0.231H0.085z M7.834,97.005
	l-2.645-2.974v2.974H4.843v-3.419h0.347l2.645,2.963v-2.963h0.348v3.419H7.834z M11.666,97.005H11.37l-1.506-3.419h0.367
	l1.287,2.963l1.287-2.963h0.367L11.666,97.005z M14.853,93.586h0.348v3.42h-0.348V93.586z M20.228,97.005l-1.094-1.575h-1.262v1.575
	h-0.347v-3.419h1.744c0.184,0,0.357,0.02,0.518,0.06s0.3,0.099,0.418,0.175c0.118,0.077,0.21,0.174,0.277,0.288
	c0.066,0.115,0.1,0.247,0.1,0.395c0,0.256-0.096,0.463-0.287,0.622c-0.191,0.157-0.447,0.258-0.769,0.3l1.107,1.58H20.228z
	 M20.16,94.2c-0.049-0.086-0.119-0.157-0.209-0.216c-0.09-0.058-0.197-0.1-0.322-0.127c-0.124-0.026-0.26-0.041-0.405-0.041h-1.352
	v1.383h1.352c0.145,0,0.281-0.013,0.405-0.04c0.125-0.027,0.232-0.069,0.322-0.128c0.09-0.058,0.16-0.13,0.209-0.216
	c0.049-0.086,0.074-0.188,0.074-0.307C20.233,94.389,20.208,94.288,20.16,94.2 M25.615,95.795c-0.005,0.141-0.021,0.264-0.049,0.369
	c-0.027,0.105-0.07,0.199-0.128,0.281c-0.058,0.081-0.139,0.16-0.242,0.237c-0.149,0.113-0.323,0.199-0.521,0.26
	c-0.197,0.062-0.405,0.091-0.624,0.091s-0.427-0.029-0.624-0.091c-0.198-0.061-0.372-0.146-0.522-0.26
	c-0.103-0.077-0.183-0.156-0.24-0.237c-0.059-0.082-0.102-0.176-0.13-0.281c-0.027-0.105-0.044-0.229-0.048-0.369
	c-0.004-0.142-0.007-0.309-0.007-0.5c0-0.192,0.003-0.357,0.007-0.497s0.021-0.261,0.048-0.367c0.028-0.106,0.071-0.2,0.13-0.284
	c0.058-0.083,0.138-0.163,0.24-0.24c0.15-0.111,0.324-0.197,0.522-0.259c0.197-0.061,0.405-0.091,0.624-0.091
	s0.427,0.03,0.624,0.091c0.197,0.062,0.371,0.147,0.521,0.259c0.104,0.077,0.185,0.157,0.242,0.24
	c0.058,0.084,0.101,0.178,0.128,0.284c0.028,0.106,0.044,0.228,0.049,0.367c0.004,0.14,0.006,0.305,0.006,0.497
	C25.621,95.487,25.619,95.654,25.615,95.795 M25.265,94.828c-0.007-0.13-0.022-0.241-0.045-0.337
	c-0.024-0.094-0.06-0.176-0.106-0.244c-0.047-0.069-0.111-0.135-0.192-0.195c-0.116-0.086-0.249-0.152-0.399-0.197
	c-0.151-0.044-0.307-0.066-0.47-0.066s-0.32,0.022-0.47,0.066c-0.15,0.045-0.283,0.111-0.399,0.197
	c-0.081,0.061-0.146,0.126-0.193,0.195c-0.048,0.068-0.083,0.15-0.105,0.244c-0.024,0.096-0.039,0.207-0.045,0.337
	c-0.007,0.13-0.011,0.285-0.011,0.468s0.004,0.339,0.011,0.469c0.006,0.129,0.021,0.241,0.045,0.336
	c0.022,0.094,0.058,0.176,0.105,0.245c0.047,0.069,0.112,0.134,0.193,0.194c0.116,0.087,0.249,0.151,0.399,0.196
	c0.149,0.045,0.307,0.068,0.47,0.068s0.318-0.023,0.47-0.068c0.15-0.045,0.283-0.109,0.399-0.196
	c0.081-0.061,0.146-0.125,0.192-0.194s0.082-0.151,0.106-0.245c0.022-0.095,0.038-0.207,0.045-0.336
	c0.006-0.13,0.01-0.286,0.01-0.469S25.271,94.958,25.265,94.828 M30.759,97.005l-2.646-2.974v2.974h-0.348v-3.419h0.348l2.646,2.963
	v-2.963h0.347v3.419H30.759z M36.932,97.005v-2.819l-1.39,2.339h-0.349l-1.415-2.339v2.819h-0.348v-3.419h0.348l1.597,2.636
	l1.557-2.636h0.348v3.419H36.932z M39.604,97.005v-3.419h2.78v0.229h-2.433v1.351h2.072v0.229h-2.072v1.378h2.433v0.231H39.604z
	 M47.354,97.005l-2.645-2.974v2.974H44.36v-3.419h0.349l2.645,2.963v-2.963H47.7v3.419H47.354z M51.223,93.816v3.189h-0.348v-3.189
	h-1.364v-0.229h3.083v0.229H51.223z"/>
<path fill="#92A93D" d="M37.767,91.196v1.403h-0.345v-1.403l-1.339-1.982h0.37l1.153,1.712l1.128-1.712h0.37L37.767,91.196z
	 M43.049,91.401c-0.005,0.14-0.021,0.261-0.049,0.366c-0.027,0.104-0.069,0.197-0.127,0.278s-0.137,0.158-0.238,0.234
	c-0.149,0.111-0.321,0.197-0.517,0.257c-0.195,0.061-0.401,0.091-0.619,0.091c-0.216,0-0.422-0.03-0.617-0.091
	c-0.195-0.06-0.367-0.146-0.517-0.257c-0.102-0.076-0.182-0.153-0.239-0.234c-0.057-0.081-0.1-0.175-0.127-0.278
	c-0.027-0.105-0.044-0.227-0.048-0.366s-0.006-0.305-0.006-0.495c0-0.189,0.002-0.354,0.006-0.492
	c0.004-0.138,0.021-0.259,0.048-0.363s0.07-0.198,0.127-0.28c0.058-0.083,0.138-0.162,0.239-0.238
	c0.149-0.11,0.321-0.196,0.517-0.257c0.195-0.06,0.401-0.091,0.617-0.091c0.218,0,0.424,0.031,0.619,0.091
	c0.195,0.061,0.367,0.146,0.517,0.257c0.102,0.076,0.181,0.155,0.238,0.238c0.058,0.082,0.1,0.176,0.127,0.28
	c0.028,0.104,0.044,0.226,0.049,0.363c0.004,0.139,0.006,0.303,0.006,0.492C43.055,91.096,43.053,91.261,43.049,91.401 M42.7,90.443
	c-0.006-0.129-0.021-0.24-0.044-0.333c-0.022-0.094-0.058-0.175-0.104-0.243c-0.048-0.067-0.111-0.132-0.191-0.191
	c-0.115-0.086-0.247-0.151-0.395-0.196c-0.149-0.044-0.305-0.066-0.467-0.066c-0.16,0-0.315,0.022-0.465,0.066
	c-0.148,0.045-0.28,0.11-0.395,0.196c-0.08,0.06-0.145,0.124-0.191,0.191c-0.047,0.068-0.082,0.149-0.104,0.243
	c-0.023,0.093-0.038,0.204-0.045,0.333c-0.007,0.128-0.01,0.282-0.01,0.463c0,0.182,0.003,0.335,0.01,0.464s0.021,0.239,0.045,0.333
	c0.022,0.094,0.058,0.175,0.104,0.242c0.047,0.068,0.111,0.132,0.191,0.193c0.114,0.085,0.246,0.149,0.395,0.195
	c0.149,0.044,0.305,0.065,0.465,0.065c0.162,0,0.317-0.021,0.467-0.065c0.147-0.046,0.279-0.11,0.395-0.195
	c0.08-0.062,0.144-0.125,0.191-0.193c0.047-0.067,0.082-0.148,0.104-0.242c0.023-0.094,0.038-0.204,0.044-0.333
	c0.007-0.129,0.01-0.282,0.01-0.464C42.71,90.725,42.707,90.571,42.7,90.443 M47.527,91.954c-0.076,0.139-0.184,0.258-0.322,0.357
	c-0.138,0.1-0.301,0.178-0.489,0.233c-0.189,0.055-0.399,0.083-0.629,0.083c-0.229,0-0.438-0.028-0.628-0.083
	c-0.188-0.056-0.352-0.134-0.489-0.233c-0.139-0.1-0.245-0.219-0.322-0.357c-0.076-0.137-0.115-0.288-0.115-0.453v-2.287h0.345
	v2.254c0,0.14,0.028,0.267,0.087,0.383c0.057,0.116,0.139,0.214,0.244,0.295c0.106,0.081,0.233,0.143,0.383,0.188
	c0.148,0.044,0.313,0.065,0.496,0.065c0.184,0,0.35-0.021,0.497-0.065c0.149-0.046,0.276-0.107,0.383-0.188s0.188-0.179,0.245-0.295
	c0.058-0.116,0.087-0.243,0.087-0.383v-2.254h0.344V91.5C47.643,91.666,47.604,91.817,47.527,91.954 M51.976,92.599l-1.083-1.561
	h-1.249v1.561H49.3v-3.386h1.726c0.183,0,0.354,0.02,0.514,0.06c0.159,0.039,0.297,0.097,0.413,0.173
	c0.117,0.076,0.209,0.171,0.275,0.286c0.064,0.114,0.098,0.244,0.098,0.389c0,0.255-0.094,0.459-0.283,0.616
	c-0.188,0.157-0.442,0.256-0.762,0.298l1.096,1.564H51.976z M51.908,89.822c-0.049-0.086-0.118-0.156-0.207-0.214
	c-0.089-0.057-0.195-0.099-0.318-0.126s-0.258-0.04-0.401-0.04h-1.338v1.369h1.338c0.144,0,0.278-0.014,0.401-0.04
	c0.123-0.028,0.229-0.069,0.318-0.126c0.089-0.058,0.158-0.129,0.207-0.214c0.049-0.086,0.073-0.188,0.073-0.305
	S51.957,89.908,51.908,89.822"/>
<path fill="#231F20" d="M21.033,89.442v1.394h2.052v0.228h-2.052v1.536h-0.344v-3.386h2.753v0.229H21.033z M27.475,91.401
	c-0.004,0.14-0.02,0.261-0.048,0.366c-0.026,0.104-0.069,0.197-0.127,0.278c-0.057,0.081-0.137,0.158-0.238,0.234
	c-0.149,0.111-0.321,0.197-0.517,0.257c-0.196,0.061-0.4,0.091-0.618,0.091c-0.217,0-0.423-0.03-0.617-0.091
	c-0.196-0.06-0.368-0.146-0.517-0.257c-0.102-0.076-0.182-0.153-0.239-0.234s-0.1-0.175-0.128-0.278
	c-0.026-0.105-0.043-0.227-0.048-0.366c-0.004-0.14-0.006-0.305-0.006-0.495c0-0.189,0.002-0.354,0.006-0.492
	c0.005-0.138,0.021-0.259,0.048-0.363c0.028-0.104,0.07-0.198,0.128-0.28c0.058-0.083,0.138-0.162,0.239-0.238
	c0.148-0.11,0.32-0.196,0.517-0.257c0.194-0.06,0.4-0.091,0.617-0.091c0.218,0,0.422,0.031,0.618,0.091
	c0.195,0.061,0.367,0.146,0.517,0.257c0.102,0.076,0.182,0.155,0.238,0.238c0.058,0.082,0.101,0.176,0.127,0.28
	c0.028,0.104,0.044,0.226,0.048,0.363c0.005,0.139,0.008,0.303,0.008,0.492C27.482,91.096,27.479,91.261,27.475,91.401
	 M27.128,90.443c-0.006-0.129-0.021-0.24-0.044-0.333c-0.023-0.094-0.059-0.175-0.105-0.243c-0.047-0.067-0.11-0.132-0.191-0.191
	c-0.114-0.086-0.246-0.151-0.395-0.196c-0.149-0.044-0.305-0.066-0.466-0.066c-0.162,0-0.315,0.022-0.465,0.066
	c-0.148,0.045-0.281,0.11-0.395,0.196c-0.081,0.06-0.146,0.124-0.191,0.191c-0.047,0.068-0.083,0.149-0.104,0.243
	c-0.024,0.093-0.039,0.204-0.045,0.333c-0.008,0.128-0.011,0.282-0.011,0.463c0,0.182,0.003,0.335,0.011,0.464
	c0.006,0.129,0.021,0.239,0.045,0.333c0.021,0.094,0.058,0.175,0.104,0.242c0.046,0.068,0.11,0.132,0.191,0.193
	c0.113,0.085,0.246,0.149,0.395,0.195c0.149,0.044,0.303,0.065,0.465,0.065c0.161,0,0.316-0.021,0.466-0.065
	c0.148-0.046,0.28-0.11,0.395-0.195c0.081-0.062,0.145-0.125,0.191-0.193c0.047-0.067,0.082-0.148,0.105-0.242
	s0.038-0.204,0.044-0.333s0.009-0.282,0.009-0.464C27.137,90.725,27.134,90.571,27.128,90.443 M31.7,92.599l-1.083-1.561h-1.249
	v1.561h-0.344v-3.386h1.726c0.183,0,0.354,0.02,0.514,0.06c0.159,0.039,0.298,0.097,0.413,0.173
	c0.117,0.076,0.209,0.171,0.275,0.286c0.065,0.114,0.098,0.244,0.098,0.389c0,0.255-0.094,0.459-0.282,0.616
	c-0.189,0.157-0.443,0.256-0.763,0.298l1.097,1.564H31.7z M31.633,89.822c-0.049-0.086-0.118-0.156-0.207-0.214
	c-0.089-0.057-0.195-0.099-0.318-0.126s-0.258-0.04-0.401-0.04h-1.338v1.369h1.338c0.144,0,0.278-0.014,0.401-0.04
	c0.123-0.028,0.229-0.069,0.318-0.126c0.089-0.058,0.158-0.129,0.207-0.214c0.049-0.086,0.073-0.188,0.073-0.305
	S31.682,89.908,31.633,89.822"/>
<path fill="#92A93D" d="M3.275,92.599L2.88,91.776H0.764l-0.395,0.823H0l1.669-3.386h0.306l1.67,3.386H3.275z M1.822,89.555
	l-0.949,1.993h1.899L1.822,89.555z M7.688,90.602c-0.07,0.12-0.166,0.223-0.287,0.307s-0.266,0.147-0.433,0.189
	c-0.168,0.043-0.35,0.064-0.545,0.064H5.104v1.437H4.76v-3.386h1.663c0.195,0,0.377,0.021,0.545,0.066
	c0.167,0.045,0.312,0.107,0.433,0.19c0.121,0.082,0.217,0.184,0.287,0.304c0.07,0.121,0.105,0.26,0.105,0.414
	C7.793,90.343,7.758,90.481,7.688,90.602 M7.369,89.857c-0.053-0.093-0.127-0.171-0.22-0.232c-0.093-0.062-0.205-0.108-0.335-0.139
	c-0.129-0.029-0.272-0.045-0.429-0.045H5.104v1.493h1.281c0.157,0,0.3-0.015,0.429-0.045c0.13-0.03,0.242-0.076,0.335-0.138
	c0.093-0.062,0.167-0.14,0.22-0.233c0.053-0.093,0.08-0.203,0.08-0.33S7.422,89.952,7.369,89.857 M12.027,90.602
	c-0.07,0.12-0.166,0.223-0.287,0.307s-0.266,0.147-0.433,0.189c-0.168,0.043-0.349,0.064-0.545,0.064H9.443v1.437H9.099v-3.386
	h1.663c0.196,0,0.377,0.021,0.545,0.066c0.167,0.045,0.312,0.107,0.433,0.19c0.121,0.082,0.217,0.184,0.287,0.304
	c0.07,0.121,0.105,0.26,0.105,0.414C12.132,90.343,12.097,90.481,12.027,90.602 M11.708,89.857c-0.053-0.093-0.126-0.171-0.22-0.232
	c-0.093-0.062-0.205-0.108-0.334-0.139c-0.13-0.029-0.273-0.045-0.43-0.045H9.443v1.493h1.281c0.157,0,0.3-0.015,0.43-0.045
	c0.129-0.03,0.241-0.076,0.334-0.138c0.094-0.062,0.167-0.14,0.22-0.233c0.053-0.093,0.08-0.203,0.08-0.33
	S11.761,89.952,11.708,89.857 M15.694,92.375c-0.272,0.168-0.646,0.252-1.122,0.252c-0.17,0-0.323-0.008-0.461-0.026
	c-0.138-0.017-0.268-0.044-0.389-0.081c-0.121-0.036-0.236-0.083-0.344-0.14c-0.109-0.057-0.214-0.124-0.316-0.2L13.304,92
	c0.102,0.077,0.201,0.14,0.297,0.19c0.095,0.051,0.194,0.093,0.296,0.124s0.209,0.054,0.322,0.066
	c0.112,0.013,0.236,0.019,0.373,0.019c0.36,0,0.645-0.061,0.854-0.183c0.207-0.122,0.312-0.294,0.312-0.516
	c0-0.206-0.083-0.364-0.249-0.477c-0.042-0.024-0.083-0.047-0.121-0.065c-0.038-0.02-0.082-0.035-0.131-0.049
	c-0.049-0.012-0.105-0.023-0.168-0.034c-0.064-0.012-0.143-0.022-0.236-0.031l-0.529-0.062c-0.344-0.038-0.614-0.12-0.809-0.247
	c-0.238-0.148-0.357-0.356-0.357-0.623c0-0.285,0.125-0.512,0.376-0.678c0.25-0.166,0.595-0.25,1.032-0.25
	c0.28,0,0.52,0.029,0.717,0.087c0.198,0.058,0.394,0.149,0.589,0.275l-0.223,0.166c-0.072-0.047-0.144-0.09-0.216-0.128
	c-0.073-0.038-0.151-0.071-0.236-0.099c-0.085-0.025-0.181-0.048-0.287-0.063c-0.106-0.016-0.227-0.024-0.363-0.024
	c-0.331,0-0.59,0.063-0.774,0.189c-0.185,0.125-0.277,0.296-0.277,0.512c0,0.196,0.078,0.344,0.235,0.443
	c0.081,0.05,0.182,0.094,0.303,0.13c0.121,0.037,0.245,0.062,0.373,0.079l0.49,0.057c0.107,0.013,0.2,0.025,0.281,0.038
	s0.151,0.028,0.213,0.045c0.062,0.019,0.118,0.039,0.169,0.062c0.051,0.023,0.1,0.05,0.146,0.079c0.124,0.075,0.221,0.17,0.29,0.282
	c0.07,0.113,0.106,0.238,0.106,0.374C16.102,91.978,15.966,92.207,15.694,92.375"/>
<polygon fill="#231F20" points="28.652,48.955 28.652,49.109 30.577,48.042 31.767,47.288 32.884,46.405 33.974,45.417 
	34.798,44.317 35.586,43.141 36.252,41.88 36.772,40.561 37.174,39.198 37.417,37.798 37.517,36.383 37.467,34.959 37.294,33.551 
	36.956,32.167 36.475,30.838 35.885,29.554 35.136,28.338 34.277,27.203 33.32,26.175 32.248,25.238 31.078,24.415 29.842,23.73 
	28.539,23.169 27.189,22.748 25.794,22.47 24.385,22.346 22.982,22.361 21.573,22.52 20.189,22.832 18.85,23.258 17.56,23.855 
	16.33,24.573 15.184,25.402 14.137,26.365 13.19,27.416 12.347,28.551 11.642,29.792 11.047,31.091 10.606,32.44 10.308,33.815 
	10.144,35.229 10.13,36.652 10.258,38.067 10.535,39.464 10.958,40.82 11.508,42.128 12.192,43.378 13.002,44.535 13.934,45.621 
	14.971,46.583 16.092,47.442 17.303,48.186 18.582,48.8 19.484,49.262 19.484,43.344 18.964,42.908 18.131,42.193 17.406,41.36 
	16.802,40.458 16.31,39.476 15.963,38.433 15.759,37.347 15.685,36.25 15.775,35.144 16.003,34.073 16.369,33.045 16.871,32.064 
	17.496,31.175 18.234,30.353 19.063,29.658 19.996,29.067 20.988,28.607 22.039,28.289 23.106,28.116 24.203,28.081 25.289,28.204 
	26.35,28.462 27.363,28.869 28.314,29.405 29.198,30.06 29.971,30.824 30.642,31.697 31.192,32.64 31.614,33.661 31.886,34.717 
	32.031,35.819 32.031,36.905 31.867,37.992 31.583,39.048 31.143,40.07 30.577,41.002 29.903,41.875 29.094,42.6 28.652,43.195 "/>
<polygon fill="#231F20" points="8.968,60.051 17.252,75.429 48.312,75.429 48.312,57.684 47.924,57.045 47.434,56.48 46.828,56.028 
	46.157,55.71 45.423,55.517 44.685,55.467 43.94,55.568 43.231,55.815 42.586,56.192 42.025,56.693 41.574,57.298 41.352,57.684 
	41.356,57.684 40.979,57.045 40.478,56.48 39.873,56.028 39.208,55.71 38.484,55.517 37.734,55.467 37,55.568 36.281,55.815 
	35.646,56.192 35.071,56.693 34.625,57.298 34.406,57.684 34.416,57.684 34.029,57.045 33.538,56.48 32.934,56.028 32.269,55.71 
	31.528,55.517 30.794,55.467 30.056,55.568 29.337,55.815 28.697,56.192 28.131,56.693 27.681,57.298 27.466,57.684 27.457,35.645 
	27.248,34.971 26.905,34.35 26.445,33.795 25.879,33.364 25.25,33.055 24.549,32.882 23.845,32.842 23.151,32.966 22.486,33.22 
	21.89,33.601 21.374,34.113 20.988,34.704 20.72,35.373 20.66,35.645 20.66,67.458 15.481,57.239 15,56.693 14.415,56.251 
	13.761,55.95 13.055,55.771 12.327,55.741 11.613,55.855 10.922,56.108 10.308,56.509 9.777,57.01 9.365,57.606 9.073,58.281 
	8.928,58.996 8.928,59.723 "/>
</svg>
