<?xml version="1.0" encoding="utf-8"?>
<!-- Generator: Adobe Illustrator 16.0.0, SVG Export Plug-In . SVG Version: 6.00 Build 0)  -->
<!DOCTYPE svg PUBLIC "-//W3C//DTD SVG 1.1//EN" "http://www.w3.org/Graphics/SVG/1.1/DTD/svg11.dtd">
<svg version="1.1" id="Calque_1" xmlns="http://www.w3.org/2000/svg" xmlns:xlink="http://www.w3.org/1999/xlink" x="0px" y="0px"
	 width="35px" height="25.278px" viewBox="0 0 35 25.278" enable-background="new 0 0 35 25.278" xml:space="preserve">
<path fill="#27393D" d="M3.887,17.497h-1.94C0.874,17.497,0,18.371,0,19.444v3.887c0,1.073,0.874,1.947,1.947,1.947h1.94
	c1.073,0,1.947-0.874,1.947-1.947v-3.887C5.834,18.371,4.96,17.497,3.887,17.497 M13.609,11.663h-1.94
	c-1.074,0-1.947,0.873-1.947,1.946v9.722c0,1.073,0.873,1.947,1.947,1.947h1.94c1.073,0,1.947-0.874,1.947-1.947v-9.722
	C15.556,12.536,14.682,11.663,13.609,11.663 M23.332,5.834H21.39c-1.072,0-1.945,0.868-1.945,1.941v15.556
	c0,1.073,0.873,1.947,1.945,1.947h1.941c1.072,0,1.947-0.874,1.947-1.947V7.775C25.279,6.702,24.404,5.834,23.332,5.834 M33.053,0
	h-1.94c-1.074,0-1.947,0.869-1.947,1.946v21.385c0,1.073,0.873,1.947,1.947,1.947h1.94c1.073,0,1.946-0.874,1.946-1.947V1.946
	C35,0.869,34.126,0,33.053,0"/>
</svg>
