<?xml version="1.0" encoding="utf-8"?>
<!-- Generator: Adobe Illustrator 16.0.0, SVG Export Plug-In . SVG Version: 6.00 Build 0)  -->
<!DOCTYPE svg PUBLIC "-//W3C//DTD SVG 1.1//EN" "http://www.w3.org/Graphics/SVG/1.1/DTD/svg11.dtd">
<svg version="1.1" id="Calque_1" xmlns="http://www.w3.org/2000/svg" xmlns:xlink="http://www.w3.org/1999/xlink" x="0px" y="0px"
	 width="35px" height="35px" viewBox="0 0 35 35" enable-background="new 0 0 35 35" xml:space="preserve">
<path fill="#27393D" d="M29.874,5.125C33.179,8.431,35,12.825,35,17.5c0,4.674-1.821,9.068-5.126,12.375
	C26.569,33.18,22.174,35,17.5,35c-4.675,0-9.069-1.82-12.375-5.125C1.82,26.568,0,22.174,0,17.5c0-4.675,1.82-9.069,5.125-12.375
	C8.431,1.82,12.825,0,17.5,0C22.174,0,26.569,1.82,29.874,5.125 M28.327,28.328c2.156-2.156,3.589-4.841,4.179-7.762
	c-0.46,0.678-0.9,0.93-1.173-0.588c-0.281-2.475-2.554-0.895-3.982-1.773c-1.505,1.014-4.886-1.97-4.311,1.396
	c0.886,1.518,4.785-2.032,2.842,1.18c-1.239,2.243-4.533,7.21-4.104,9.784c0.054,3.751-3.833,0.783-5.172-0.462
	c-0.901-2.492-0.308-6.848-2.662-8.069c-2.558-0.11-4.752-0.343-5.743-3.202c-0.596-2.043,0.635-5.088,2.826-5.559
	c3.208-2.016,4.354,2.359,7.361,2.441c0.935-0.977,3.48-1.287,3.692-2.383c-1.974-0.349,2.504-1.66-0.188-2.406
	c-1.486,0.175-2.444,1.541-1.654,2.699c-2.879,0.67-2.971-4.168-5.739-2.641c-0.07,2.412-4.519,0.782-1.539,0.292
	c1.024-0.446-1.67-1.743-0.215-1.508c0.715-0.039,3.122-0.882,2.471-1.449c1.34-0.832,2.466,1.992,3.778-0.065
	c0.947-1.58-0.398-1.873-1.584-1.07c-0.67-0.749,1.181-2.368,2.814-3.067c0.544-0.233,1.062-0.36,1.461-0.325
	c0.821,0.95,2.343,1.115,2.422-0.113c-2.036-0.975-4.282-1.49-6.606-1.49c-3.337,0-6.51,1.061-9.137,3.021
	C9.069,5.531,9.469,5.935,8.79,6.448c-0.528,1.575-2.672,3.688-4.554,3.39c-0.978,1.685-1.62,3.541-1.896,5.485
	c1.576,0.522,1.939,1.554,1.601,1.899c-0.804,0.699-1.296,1.693-1.551,2.779c0.513,3.14,1.988,6.032,4.281,8.326
	c2.893,2.891,6.738,4.484,10.828,4.484S25.436,31.219,28.327,28.328"/>
</svg>
