<?xml version="1.0" encoding="UTF-8" standalone="no"?>
<!-- Generator: Adobe Illustrator 19.1.0, SVG Export Plug-In . SVG Version: 6.00 Build 0)  -->

<svg
   xmlns:dc="http://purl.org/dc/elements/1.1/"
   xmlns:cc="http://creativecommons.org/ns#"
   xmlns:rdf="http://www.w3.org/1999/02/22-rdf-syntax-ns#"
   xmlns:svg="http://www.w3.org/2000/svg"
   xmlns="http://www.w3.org/2000/svg"
   xmlns:sodipodi="http://sodipodi.sourceforge.net/DTD/sodipodi-0.dtd"
   xmlns:inkscape="http://www.inkscape.org/namespaces/inkscape"
   version="1.1"
   id="Calque_1"
   x="0px"
   y="0px"
   viewBox="-330 571.3 138.7 138.7"
   style="enable-background:new -330 571.3 138.7 138.7;"
   xml:space="preserve"
   sodipodi:docname="main_menu_logo_report_sighting-.svg"
   inkscape:version="0.92.2 5c3e80d, 2017-08-06"><metadata
     id="metadata69"><rdf:RDF><cc:Work
         rdf:about=""><dc:format>image/svg+xml</dc:format><dc:type
           rdf:resource="http://purl.org/dc/dcmitype/StillImage" /></cc:Work></rdf:RDF></metadata><defs
     id="defs67" /><sodipodi:namedview
     pagecolor="#ffffff"
     bordercolor="#666666"
     borderopacity="1"
     objecttolerance="10"
     gridtolerance="10"
     guidetolerance="10"
     inkscape:pageopacity="0"
     inkscape:pageshadow="2"
     inkscape:window-width="2560"
     inkscape:window-height="1315"
     id="namedview65"
     showgrid="false"
     inkscape:zoom="8"
     inkscape:cx="63.944547"
     inkscape:cy="69.349998"
     inkscape:window-x="0"
     inkscape:window-y="1"
     inkscape:window-maximized="1"
     inkscape:current-layer="Calque_1" /><style
     type="text/css"
     id="style2">
	.st0{fill:#7A9C2B;}
	.st1{fill:#FFFFFF;}
</style><g
     id="g6"><path
       class="st0"
       d="M-330,640.7c0-38.3,31-69.3,69.3-69.3c38.3,0,69.3,31,69.3,69.3s-31,69.3-69.3,69.3   C-299,710-330,679-330,640.7"
       id="path4" /></g><g
     id="g62"><g
       id="g44"><path
         class="st1"
         d="M-246.4,604.3c-1.5-0.4-5.1-1-5.1-1s-4.9-3.9-9.2-3.9c-4.3,0-9.2,3.9-9.2,3.9s-3.6,0.6-5.1,1    c6.7,2.4,11.5,8.9,11.5,16.4c0,3.1-0.8,6-2.2,8.5h10c-1.4-2.5-2.2-5.4-2.2-8.5C-257.9,613.2-253.1,606.8-246.4,604.3"
         id="path42" /></g><g
       id="g48"><path
         class="st1"
         d="M-281.9,605.1c-9,0-16.3,7.3-16.3,16.3c0,9,7.3,16.3,16.3,16.3c9,0,16.3-7.3,16.3-16.3    S-272.9,605.1-281.9,605.1 M-281.9,631.7c-5.7,0-10.3-4.6-10.3-10.3c0-5.7,4.6-10.3,10.3-10.3c5.7,0,10.3,4.6,10.3,10.3    C-271.6,627-276.2,631.7-281.9,631.7"
         id="path46" /></g><g
       id="g52"><path
         class="st1"
         d="M-288.5,616.2c-2.2,2.9-2,6.9,0.3,9.5c-0.8-2.7-0.4-5.8,1.5-8.2c1.9-2.4,4.7-3.6,7.5-3.5    C-282.4,612.5-286.3,613.3-288.5,616.2"
         id="path50" /></g><g
       id="g56"><path
         class="st1"
         d="M-239.5,605.1c-9,0-16.3,7.3-16.3,16.3c0,9,7.3,16.3,16.3,16.3c9,0,16.3-7.3,16.3-16.3    S-230.5,605.1-239.5,605.1 M-239.5,631.7c-5.7,0-10.3-4.6-10.3-10.3c0-5.7,4.6-10.3,10.3-10.3c5.7,0,10.3,4.6,10.3,10.3    C-229.2,627-233.8,631.7-239.5,631.7"
         id="path54" /></g><g
       id="g60"><path
         class="st1"
         d="M-242.1,614c2.8-0.1,5.7,1.1,7.5,3.5c1.9,2.4,2.3,5.5,1.5,8.2c2.3-2.7,2.5-6.6,0.3-9.5    C-235,613.3-238.9,612.5-242.1,614"
         id="path58" /></g></g><text
     xml:space="preserve"
     style="font-style:normal;font-variant:normal;font-weight:normal;font-stretch:normal;font-size:15.92933273px;line-height:1.25;font-family:KonsensMedium;-inkscape-font-specification:'KonsensMedium, Normal';font-variant-ligatures:normal;font-variant-caps:normal;font-variant-numeric:normal;font-feature-settings:normal;text-align:center;letter-spacing:0px;word-spacing:0px;writing-mode:lr-tb;text-anchor:middle;fill:#ffffff;fill-opacity:1;stroke:none"
     x="-260.61893"
     y="663.04584"
     id="text73"><tspan
       sodipodi:role="line"
       id="tspan829"
       x="-260.61893"
       y="663.04584">Report</tspan><tspan
       sodipodi:role="line"
       id="tspan831"
       x="-260.61893"
       y="682.95752">a sighting</tspan></text>
</svg>