<?xml version="1.0" encoding="UTF-8" standalone="no"?>
<!-- Generator: Adobe Illustrator 19.1.0, SVG Export Plug-In . SVG Version: 6.00 Build 0)  -->

<svg
   xmlns:dc="http://purl.org/dc/elements/1.1/"
   xmlns:cc="http://creativecommons.org/ns#"
   xmlns:rdf="http://www.w3.org/1999/02/22-rdf-syntax-ns#"
   xmlns:svg="http://www.w3.org/2000/svg"
   xmlns="http://www.w3.org/2000/svg"
   xmlns:sodipodi="http://sodipodi.sourceforge.net/DTD/sodipodi-0.dtd"
   xmlns:inkscape="http://www.inkscape.org/namespaces/inkscape"
   version="1.1"
   id="Calque_1"
   x="0px"
   y="0px"
   viewBox="-330 571.3 138.7 138.7"
   style="enable-background:new -330 571.3 138.7 138.7;"
   xml:space="preserve"
   sodipodi:docname="main_menu_logo_invasive_species-it.svg"
   inkscape:version="0.92.2 5c3e80d, 2017-08-06"><metadata
     id="metadata93"><rdf:RDF><cc:Work
         rdf:about=""><dc:format>image/svg+xml</dc:format><dc:type
           rdf:resource="http://purl.org/dc/dcmitype/StillImage" /><dc:title></dc:title></cc:Work></rdf:RDF></metadata><defs
     id="defs91" /><sodipodi:namedview
     pagecolor="#ffffff"
     bordercolor="#666666"
     borderopacity="1"
     objecttolerance="10"
     gridtolerance="10"
     guidetolerance="10"
     inkscape:pageopacity="0"
     inkscape:pageshadow="2"
     inkscape:window-width="2466"
     inkscape:window-height="1314"
     id="namedview89"
     showgrid="false"
     inkscape:zoom="7.9930915"
     inkscape:cx="58.40396"
     inkscape:cy="69.349998"
     inkscape:window-x="0"
     inkscape:window-y="1"
     inkscape:window-maximized="0"
     inkscape:current-layer="Calque_1" /><style
     type="text/css"
     id="style2">
	.st0{fill:#559973;}
	.st1{fill:#FFFFFF;}
</style><g
     id="g6"><path
       class="st0"
       d="M-330,640.7c0-38.3,31-69.3,69.3-69.3c38.3,0,69.3,31,69.3,69.3s-31,69.3-69.3,69.3   C-299,710-330,679-330,640.7"
       id="path4" /></g><g
     id="g86"><g
       id="g44"><path
         class="st1"
         d="M-246.8,607.9c-6.1-6.3-16.1-6.5-22.4-0.4c-6.3,6.1-6.5,16.1-0.4,22.4c6.1,6.3,16.1,6.5,22.4,0.4    C-240.9,624.2-240.7,614.2-246.8,607.9"
         id="path42" /></g><g
       id="g48"><path
         class="st1"
         d="M-281.2,629c3.9-3.8,4-10.1,0.2-14c-3.8-3.9-10.1-4-14-0.2c-3.9,3.8-4,10.1-0.2,14    C-291.5,632.7-285.2,632.8-281.2,629"
         id="path46" /></g><g
       id="g52"><path
         class="st1"
         d="M-225.4,616c-2.8-2.9-7.5-3-10.5-0.2c-2.9,2.8-3,7.5-0.2,10.5c2.8,2.9,7.5,3,10.5,0.2    C-222.6,623.6-222.5,618.9-225.4,616"
         id="path50" /></g><g
       id="g56"><path
         class="st1"
         d="M-281.4,632.4c-2.9,2.8-3,7.5-0.2,10.5c2.8,2.9,7.5,3,10.5,0.2c2.9-2.8,3-7.5,0.2-10.5    C-273.8,629.7-278.4,629.6-281.4,632.4"
         id="path54" /></g><g
       id="g60"><path
         class="st1"
         d="M-264,639.8c-1.9,1.9-2,5-0.1,6.9c1.9,1.9,5,2,6.9,0.1c1.9-1.9,2-5,0.1-6.9C-259,637.9-262.1,637.9-264,639.8    "
         id="path58" /></g><g
       id="g64"><path
         class="st1"
         d="M-276.2,605.6c1.9-1.9,2-5,0.1-6.9c-1.9-1.9-5-2-6.9-0.1c-1.9,1.9-2,5-0.1,6.9    C-281.2,607.5-278.1,607.5-276.2,605.6"
         id="path62" /></g><g
       id="g68"><path
         class="st1"
         d="M-250.9,596.6c1.9-1.9,2-5,0.1-6.9c-1.9-1.9-5-2-6.9-0.1c-1.9,1.9-2,5-0.1,6.9S-252.9,598.5-250.9,596.6"
         id="path66" /></g><g
       id="g72"><path
         class="st1"
         d="M-241.2,634.8c-1.9,1.9-2,5-0.1,6.9c1.9,1.9,5,2,6.9,0.1c1.9-1.9,2-5,0.1-6.9    C-236.1,633-239.2,632.9-241.2,634.8"
         id="path70" /></g><g
       id="g76"><path
         class="st1"
         d="M-229.3,640.3c-1,0.9-1,2.5-0.1,3.5c0.9,1,2.5,1,3.5,0.1c1-0.9,1-2.5,0.1-3.5    C-226.7,639.4-228.3,639.3-229.3,640.3"
         id="path74" /></g><g
       id="g80"><path
         class="st1"
         d="M-290.8,638.1c-1,0.9-1,2.5-0.1,3.5c0.9,1,2.5,1,3.5,0.1c1-0.9,1-2.5,0.1-3.5    C-288.2,637.2-289.8,637.1-290.8,638.1"
         id="path78" /></g><g
       id="g84"><path
         class="st1"
         d="M-249.5,601.6c0.9,1,2.5,1,3.5,0.1c1-0.9,1-2.5,0.1-3.5c-0.9-1-2.5-1-3.5-0.1    C-250.4,599.1-250.4,600.6-249.5,601.6"
         id="path82" /></g></g><text
     xml:space="preserve"
     style="font-style:normal;font-variant:normal;font-weight:normal;font-stretch:normal;font-size:15.92933273px;line-height:1.25;font-family:KonsensMedium;-inkscape-font-specification:'KonsensMedium, Normal';font-variant-ligatures:normal;font-variant-caps:normal;font-variant-numeric:normal;font-feature-settings:normal;text-align:center;letter-spacing:0px;word-spacing:0px;writing-mode:lr-tb;text-anchor:middle;fill:#000000;fill-opacity:1;stroke:none"
     x="-260.875"
     y="672.94495"
     id="text97"><tspan
       sodipodi:role="line"
       id="tspan843"
       style="fill:#ffffff"
       x="-260.875"
       y="672.94495">Specie</tspan><tspan
       sodipodi:role="line"
       style="fill:#ffffff"
       x="-260.875"
       y="692.85663"
       id="tspan1075">Invasive</tspan></text>
</svg>