<?xml version="1.0" encoding="UTF-8" standalone="no"?>
<!-- Generator: Adobe Illustrator 19.1.0, SVG Export Plug-In . SVG Version: 6.00 Build 0)  -->

<svg
   xmlns:dc="http://purl.org/dc/elements/1.1/"
   xmlns:cc="http://creativecommons.org/ns#"
   xmlns:rdf="http://www.w3.org/1999/02/22-rdf-syntax-ns#"
   xmlns:svg="http://www.w3.org/2000/svg"
   xmlns="http://www.w3.org/2000/svg"
   xmlns:sodipodi="http://sodipodi.sourceforge.net/DTD/sodipodi-0.dtd"
   xmlns:inkscape="http://www.inkscape.org/namespaces/inkscape"
   version="1.1"
   id="Calque_1"
   x="0px"
   y="0px"
   viewBox="-330 571.3 138.7 138.7"
   style="enable-background:new -330 571.3 138.7 138.7;"
   xml:space="preserve"
   sodipodi:docname="main_menu_logo_contact-fr.svg"
   inkscape:version="0.92.2 5c3e80d, 2017-08-06"><metadata
     id="metadata43"><rdf:RDF><cc:Work
         rdf:about=""><dc:format>image/svg+xml</dc:format><dc:type
           rdf:resource="http://purl.org/dc/dcmitype/StillImage" /><dc:title></dc:title></cc:Work></rdf:RDF></metadata><defs
     id="defs41" /><sodipodi:namedview
     pagecolor="#ffffff"
     bordercolor="#666666"
     borderopacity="1"
     objecttolerance="10"
     gridtolerance="10"
     guidetolerance="10"
     inkscape:pageopacity="0"
     inkscape:pageshadow="2"
     inkscape:window-width="2560"
     inkscape:window-height="1315"
     id="namedview39"
     showgrid="false"
     inkscape:zoom="8"
     inkscape:cx="36.010997"
     inkscape:cy="46.582505"
     inkscape:window-x="0"
     inkscape:window-y="1"
     inkscape:window-maximized="1"
     inkscape:current-layer="Calque_1" /><style
     type="text/css"
     id="style2">
	.st0{fill:#E8E493;}
	.st1{fill:#40637D;}
	.st2{fill:#FFFFFF;}
</style><g
     id="g6"><path
       class="st0"
       d="M-330,640.7c0-38.3,31-69.3,69.3-69.3c38.3,0,69.3,31,69.3,69.3s-31,69.3-69.3,69.3   C-299,710-330,679-330,640.7"
       id="path4" /></g><g
     id="g36"><g
       id="g30"><path
         class="st2"
         d="M-272.3,659c0,0.4,0.2,0.8,0.6,1c0.4,0.2,0.8,0.2,1.2-0.1l7.7-5.3l-9.5-4.5V659z"
         id="path28" /></g><g
       id="g34"><path
         class="st2"
         d="M-226.4,599.6c-0.2-0.2-0.5-0.3-0.8-0.3c-0.2,0-0.3,0-0.5,0.1l-66.6,32.7c-0.7,0.3-1.1,1-1.1,1.8    c0,0.8,0.4,1.5,1.1,1.8l17.6,8.4l35.1-28.9l-30.8,30.9l21.9,10.4c0.3,0.1,0.6,0.2,0.9,0.2c0.2,0,0.5,0,0.7-0.1    c0.5-0.2,0.9-0.6,1.1-1.1l21.7-54.6C-225.9,600.4-226,599.9-226.4,599.6"
         id="path32" /></g></g><text
     xml:space="preserve"
     style="font-style:normal;font-variant:normal;font-weight:normal;font-stretch:normal;font-size:15.92933273px;line-height:1.25;font-family:KonsensMedium;-inkscape-font-specification:'KonsensMedium, Normal';font-variant-ligatures:normal;font-variant-caps:normal;font-variant-numeric:normal;font-feature-settings:normal;text-align:center;letter-spacing:0px;word-spacing:0px;writing-mode:lr-tb;text-anchor:middle;fill:#000000;fill-opacity:1;stroke:none"
     x="-260.81708"
     y="676.91309"
     id="text4541"><tspan
       sodipodi:role="line"
       id="tspan1016"
       x="-260.81708"
       y="676.91309"
       style="fill:#40637d;fill-opacity:1;-inkscape-font-specification:'KonsensMedium, Normal';font-family:KonsensMedium;font-weight:normal;font-style:normal;font-stretch:normal;font-variant:normal;font-size:15.92933273px;text-anchor:middle;text-align:center;writing-mode:lr;font-variant-ligatures:normal;font-variant-caps:normal;font-variant-numeric:normal;font-feature-settings:normal">Nous</tspan><tspan
       sodipodi:role="line"
       id="tspan1018"
       x="-260.81708"
       y="696.82477"
       style="fill:#40637d;fill-opacity:1;-inkscape-font-specification:'KonsensMedium, Normal';font-family:KonsensMedium;font-weight:normal;font-style:normal;font-stretch:normal;font-variant:normal;font-size:15.92933273px;text-anchor:middle;text-align:center;writing-mode:lr;font-variant-ligatures:normal;font-variant-caps:normal;font-variant-numeric:normal;font-feature-settings:normal">contacter</tspan></text>
</svg>