<?xml version="1.0" encoding="UTF-8" standalone="no"?>
<!-- Generator: Adobe Illustrator 19.1.0, SVG Export Plug-In . SVG Version: 6.00 Build 0)  -->

<svg
   xmlns:dc="http://purl.org/dc/elements/1.1/"
   xmlns:cc="http://creativecommons.org/ns#"
   xmlns:rdf="http://www.w3.org/1999/02/22-rdf-syntax-ns#"
   xmlns:svg="http://www.w3.org/2000/svg"
   xmlns="http://www.w3.org/2000/svg"
   xmlns:sodipodi="http://sodipodi.sourceforge.net/DTD/sodipodi-0.dtd"
   xmlns:inkscape="http://www.inkscape.org/namespaces/inkscape"
   version="1.1"
   id="Calque_1"
   x="0px"
   y="0px"
   viewBox="-330 571.3 138.7 138.7"
   style="enable-background:new -330 571.3 138.7 138.7;"
   xml:space="preserve"
   sodipodi:docname="main_menu_logo_species_records-it.svg"
   inkscape:version="0.92.2 5c3e80d, 2017-08-06"><metadata
     id="metadata67"><rdf:RDF><cc:Work
         rdf:about=""><dc:format>image/svg+xml</dc:format><dc:type
           rdf:resource="http://purl.org/dc/dcmitype/StillImage" /><dc:title></dc:title></cc:Work></rdf:RDF></metadata><defs
     id="defs65" /><sodipodi:namedview
     pagecolor="#ffffff"
     bordercolor="#666666"
     borderopacity="1"
     objecttolerance="10"
     gridtolerance="10"
     guidetolerance="10"
     inkscape:pageopacity="0"
     inkscape:pageshadow="2"
     inkscape:window-width="2253"
     inkscape:window-height="1307"
     id="namedview63"
     showgrid="false"
     inkscape:zoom="7.9447323"
     inkscape:cx="63.822596"
     inkscape:cy="69.349998"
     inkscape:window-x="0"
     inkscape:window-y="1"
     inkscape:window-maximized="0"
     inkscape:current-layer="Calque_1" /><style
     type="text/css"
     id="style2">
	.st0{fill:#D3D501;}
	.st1{fill:#40637D;}
	.st2{fill:#FFFFFF;}
</style><g
     id="g6"><path
       class="st0"
       d="M-330,640.7c0-38.3,31-69.3,69.3-69.3c38.3,0,69.3,31,69.3,69.3s-31,69.3-69.3,69.3   C-299,710-330,679-330,640.7"
       id="path4" /></g><g
     id="g60"><g
       id="g46"><path
         class="st2"
         d="M-249.7,639.4c-0.4,0.6-1.1,1.1-1.9,1.3l-3.7,1c-0.3,0.1-0.6,0.1-0.9,0.1c-0.7,0-1.4-0.2-1.9-0.6    c-0.8-0.6-1.3-1.5-1.4-2.5l-0.3-3.9c-0.1-0.8,0.1-1.6,0.6-2.2l0.1-0.2h-13.4c-1.1,0-2-0.9-2-2c0-1.1,0.9-2,2-2h16.2l3.6-5.2h-19.8    c-1.1,0-2-0.9-2-2c0-1.1,0.9-2,2-2l22.6-0.1l8.5-12.1v-9c0-1.5-1.1-2.7-2.6-2.7h-6.5v5.1c0,2.4-2,4.3-4.4,4.3h-13    c-2.4,0-4.3-1.9-4.3-4.3v-5.1h-6.5c-1.5,0-2.7,1.2-2.7,2.7v45.9c0,1.5,1.2,2.7,2.7,2.7h34.8c1.5,0,2.6-1.3,2.6-2.7v-16.4    L-249.7,639.4z M-272.5,610.3h22c1.1,0,2,0.9,2,2c0,1.1-0.9,2-2,2h-22c-1.1,0-2-0.9-2-2C-274.5,611.2-273.6,610.3-272.5,610.3"
         id="path44" /></g><g
       id="g50"><path
         class="st2"
         d="M-268,602.5h13c1,0,1.8-0.8,1.8-1.8v-7.5c0-1-0.8-1.8-1.8-1.8h-2c0-2.5-2.1-4.6-4.6-4.6c-2.5,0-4.6,2-4.6,4.6    h-1.9c-1,0-1.8,0.8-1.8,1.8v7.5C-269.8,601.7-269,602.5-268,602.5 M-261.5,589.4c1.1,0,2,0.9,2,2h-4.1    C-263.5,590.3-262.6,589.4-261.5,589.4"
         id="path48" /></g><g
       id="g54"><path
         class="st2"
         d="M-225,598.9c-0.1-0.3-0.2-0.6-0.5-0.8l-3.3-2.3c-0.2-0.2-0.5-0.2-0.7-0.2c-0.4,0-0.8,0.2-1,0.5l-23.1,33.1    l5.3,3.7l23.1-33.1C-225,599.6-225,599.2-225,598.9"
         id="path52" /></g><g
       id="g58"><path
         class="st2"
         d="M-257.3,634.6l0.3,3.9c0,0.2,0.1,0.4,0.3,0.5c0.1,0.1,0.3,0.1,0.4,0.1c0.1,0,0.1,0,0.2,0l3.8-1    c0.2,0,0.3-0.2,0.4-0.3l1.4-2l-5.3-3.7l-1.4,2C-257.3,634.3-257.3,634.5-257.3,634.6"
         id="path56" /></g></g><text
     xml:space="preserve"
     style="font-style:normal;font-variant:normal;font-weight:normal;font-stretch:normal;font-size:15.92933273px;line-height:1.25;font-family:KonsensMedium;-inkscape-font-specification:'KonsensMedium, Normal';font-variant-ligatures:normal;font-variant-caps:normal;font-variant-numeric:normal;font-feature-settings:normal;text-align:center;letter-spacing:0px;word-spacing:0px;writing-mode:lr-tb;text-anchor:middle;fill:#000000;fill-opacity:1;stroke:none"
     x="-261.2988"
     y="667.04584"
     id="text71"><tspan
       sodipodi:role="line"
       id="tspan911"
       style="font-style:normal;font-variant:normal;font-weight:normal;font-stretch:normal;font-size:15.92933273px;font-family:KonsensMedium;-inkscape-font-specification:'KonsensMedium, Normal';font-variant-ligatures:normal;font-variant-caps:normal;font-variant-numeric:normal;font-feature-settings:normal;text-align:center;writing-mode:lr-tb;text-anchor:middle;fill:#40637d;fill-opacity:1"
       x="-261.2988"
       y="667.04584">Le mie</tspan><tspan
       sodipodi:role="line"
       id="tspan913"
       style="font-style:normal;font-variant:normal;font-weight:normal;font-stretch:normal;font-size:15.92933273px;font-family:KonsensMedium;-inkscape-font-specification:'KonsensMedium, Normal';font-variant-ligatures:normal;font-variant-caps:normal;font-variant-numeric:normal;font-feature-settings:normal;text-align:center;writing-mode:lr-tb;text-anchor:middle;fill:#40637d;fill-opacity:1"
       x="-261.2988"
       y="686.95752">segnalazioni</tspan></text>
</svg>