<?xml version="1.0" encoding="UTF-8" standalone="no"?>
<!-- Generator: Adobe Illustrator 17.1.0, SVG Export Plug-In . SVG Version: 6.00 Build 0)  -->

<svg
   xmlns:dc="http://purl.org/dc/elements/1.1/"
   xmlns:cc="http://creativecommons.org/ns#"
   xmlns:rdf="http://www.w3.org/1999/02/22-rdf-syntax-ns#"
   xmlns:svg="http://www.w3.org/2000/svg"
   xmlns="http://www.w3.org/2000/svg"
   xmlns:sodipodi="http://sodipodi.sourceforge.net/DTD/sodipodi-0.dtd"
   xmlns:inkscape="http://www.inkscape.org/namespaces/inkscape"
   version="1.1"
   id="Capa_1"
   x="0px"
   y="0px"
   viewBox="0 0 36.751276 36.751277"
   xml:space="preserve"
   width="45.699997"
   height="45.699997"
   sodipodi:docname="filter_local_gray_new.svg"
   inkscape:version="0.92.2 5c3e80d, 2017-08-06"><metadata
     id="metadata38"><rdf:RDF><cc:Work
         rdf:about=""><dc:format>image/svg+xml</dc:format><dc:type
           rdf:resource="http://purl.org/dc/dcmitype/StillImage" /><dc:title /></cc:Work></rdf:RDF></metadata><defs
     id="defs36" /><sodipodi:namedview
     pagecolor="#ffffff"
     bordercolor="#666666"
     borderopacity="1"
     objecttolerance="10"
     gridtolerance="10"
     guidetolerance="10"
     inkscape:pageopacity="0"
     inkscape:pageshadow="2"
     inkscape:window-width="2055"
     inkscape:window-height="1219"
     id="namedview34"
     showgrid="false"
     inkscape:zoom="22.622107"
     inkscape:cx="22.849999"
     inkscape:cy="22.849998"
     inkscape:window-x="406"
     inkscape:window-y="56"
     inkscape:window-maximized="0"
     inkscape:current-layer="layer2" /><g
     inkscape:groupmode="layer"
     id="layer2"
     inkscape:label="Layer 2"><circle
       style="opacity:1;fill:#ffffff;fill-opacity:0.94117647;stroke:#4e956c;stroke-width:0.7704615;stroke-opacity:0.94117647"
       id="path872"
       cx="18.375639"
       cy="18.375639"
       r="17.990408" /></g><g
     id="g3"
     transform="translate(-11.013567,-375.39382)" /><g
     id="g5"
     transform="translate(-11.013567,-375.39382)" /><g
     id="g7"
     transform="translate(-11.013567,-375.39382)" /><g
     id="g9"
     transform="translate(-11.013567,-375.39382)" /><g
     id="g11"
     transform="translate(-11.013567,-375.39382)" /><g
     id="g13"
     transform="translate(-11.013567,-375.39382)" /><g
     id="g15"
     transform="translate(-11.013567,-375.39382)" /><g
     id="g17"
     transform="translate(-11.013567,-375.39382)" /><g
     id="g19"
     transform="translate(-11.013567,-375.39382)" /><g
     id="g21"
     transform="translate(-11.013567,-375.39382)" /><g
     id="g23"
     transform="translate(-11.013567,-375.39382)" /><g
     id="g25"
     transform="translate(-11.013567,-375.39382)" /><g
     id="g27"
     transform="translate(-11.013567,-375.39382)" /><g
     id="g29"
     transform="translate(-11.013567,-375.39382)" /><g
     id="g31"
     transform="translate(-11.013567,-375.39382)" /><g
     inkscape:groupmode="layer"
     id="layer1"
     inkscape:label="Layer 1"><path
       id="XMLID_45_"
       d="m 21.010096,6.2928079 c 0,-0.33332 0.270152,-0.60347 0.603468,-0.60347 h 0.143693 c 0.333316,0 0.603468,0.27015 0.603468,0.60347 0,0.33332 -0.270152,0.60347 -0.603468,0.60347 h -0.143693 c -0.333249,0 -0.603468,-0.27015 -0.603468,-0.60347 z m 0.832719,14.0283701 c 0,0.33331 0.270153,0.60347 0.603469,0.60347 h 0.143693 c 0.333315,0 0.603468,-0.27016 0.603468,-0.60347 0,-0.33332 -0.270153,-0.60347 -0.603468,-0.60347 h -0.143693 c -0.333249,0 -0.603469,0.27015 -0.603469,0.60347 z m 0.675349,-2.76624 c 1.525233,0 2.766166,1.24094 2.766166,2.76624 0,1.31804 -0.92666,2.4238 -2.162698,2.69992 v 1.83246 c 0,0.33332 -0.270152,0.60347 -0.603468,0.60347 -0.333316,0 -0.603469,-0.27015 -0.603469,-0.60347 v -1.83246 c -1.236105,-0.27606 -2.162832,-1.38181 -2.162832,-2.69992 0,-1.5253 1.240933,-2.76624 2.766301,-2.76624 z m 0,1.20694 c -0.859809,0 -1.559363,0.69956 -1.559363,1.5593 0,0.85974 0.699554,1.55929 1.559363,1.55929 0.859741,0 1.559229,-0.69955 1.559229,-1.55929 0,-0.85974 -0.699488,-1.5593 -1.559229,-1.5593 z m -9.719199,-6.46918 c 0,-1.5253 1.241,-2.7662401 2.766368,-2.7662401 1.525368,0 2.7663,1.2409401 2.7663,2.7662401 0,1.31804 -0.926726,2.4238 -2.162831,2.69998 v 1.8324 c 0,0.33332 -0.270153,0.60347 -0.603469,0.60347 -0.333316,0 -0.603469,-0.27015 -0.603469,-0.60347 v -1.8324 c -1.236038,-0.27612 -2.162899,-1.38187 -2.162899,-2.69998 z m 1.206938,0 c 0,0.85981 0.699554,1.55929 1.55943,1.55929 0.859809,0 1.559363,-0.69948 1.559363,-1.55929 0,-0.85981 -0.699554,-1.5593 -1.559363,-1.5593 -0.859876,0 -1.55943,0.69949 -1.55943,1.5593 z m 4.913241,-5.9998901 c 0,-1.5253 1.240932,-2.76623 2.766233,-2.76623 1.525368,0 2.7663,1.24093 2.7663,2.76623 0,1.31804 -0.926726,2.4238 -2.162831,2.69999 v 1.8324001 c 0,0.33331 -0.270153,0.60346 -0.603469,0.60346 -0.333316,0 -0.603469,-0.27015 -0.603469,-0.60346 V 8.9927279 c -1.236038,-0.27612 -2.162764,-1.38188 -2.162764,-2.69992 z m 1.206937,0 c 0,0.85981 0.699487,1.5593 1.559296,1.5593 0.859809,0 1.559363,-0.69949 1.559363,-1.5593 0,-0.85981 -0.699554,-1.5593 -1.559363,-1.5593 -0.859809,0 -1.559296,0.69949 -1.559296,1.5593 z m 8.999059,7.6650601 -1.010341,-0.3657 -0.832384,-5.6997601 c -0.09904,-0.67871 -0.474997,-1.24087 -1.058752,-1.5829 -0.287654,-0.16864 -0.657312,-0.0718 -0.82568,0.21564 -0.168569,0.28752 -0.07201,0.65724 0.215573,0.82568 0.272365,0.15965 0.427591,0.39373 0.474594,0.71591 l 0.884618,6.0572201 c 0.03212,0.21999 0.18265,0.40452 0.391719,0.48022 l 1.349892,0.48861 c 0.925319,0.33493 1.016442,0.56585 0.992572,0.72966 l -1.452214,9.94356 c -0.06826,0.46748 -0.376296,0.76412 -0.91573,0.8818 l -9.153212,1.99674 c -0.0814,0.0177 -0.144698,0.004 -0.21926,-0.0462 -0.198877,-0.13464 -0.380185,-0.48331 -0.441002,-0.84767 l -0.04875,-0.29228 c -0.02943,-0.17675 -0.135914,-0.33124 -0.290603,-0.42169 -0.154823,-0.0906 -0.341564,-0.10748 -0.510065,-0.0465 l -8.0873524,2.92709 c -0.115129,0.0418 -0.260162,-0.0685 -0.301936,-0.10319 -0.192171,-0.16013 -0.313267,-0.42411 -0.281551,-0.61413 l 2.8040504,-16.79414 c 0.06826,-0.40915 0.291342,-0.79731 0.507853,-0.88374 0.309579,-0.12351 0.460312,-0.4746 0.336735,-0.78411 -0.123577,-0.30958 -0.474729,-0.46065 -0.784107,-0.33673 -0.750178,0.29938 -1.1381428,1.12929 -1.2509238,1.80598 l -2.8040476,16.79396 c -0.103059,0.61749 0.171653,1.30055 0.699755,1.74034 0.311055,0.25902 0.664822,0.39326 1.016041,0.39326 0.158175,0 0.315949,-0.0272 0.468962,-0.0826 l 7.4339964,-2.69073 c 0.167161,0.53011 0.472315,0.97641 0.856054,1.23631 0.349073,0.23635 0.747899,0.3144 1.153229,0.22603 l 9.153211,-1.99675 c 1.035419,-0.22583 1.710834,-0.91351 1.852783,-1.88664 l 1.452214,-9.94349 c 0.193781,-1.32602 -1.237245,-1.844 -1.775941,-2.03905 z m -13.631419,-1.0617 h 0.143559 c 0.333316,0 0.603468,-0.27016 0.603468,-0.60347 0,-0.33332 -0.270152,-0.60347 -0.603468,-0.60347 h -0.143559 c -0.333316,0 -0.603468,0.27015 -0.603468,0.60347 0,0.33331 0.270152,0.60347 0.603468,0.60347 z M 14.357926,8.4129279 c 0.03366,0.006 0.06712,0.008 0.100109,0.008 0.289598,0 0.545267,-0.20906 0.594484,-0.50416 l 0.306361,-1.83488 c 0.06088,-0.36456 0.242192,-0.71317 0.441068,-0.84787 0.07463,-0.0504 0.138194,-0.0638 0.219327,-0.0461 l 1.494792,0.32608 c 0.325739,0.0713 0.647187,-0.13538 0.718195,-0.46098 0.07107,-0.32561 -0.135378,-0.64712 -0.460983,-0.7182 l -1.494725,-0.32607 c -0.405397,-0.0884 -0.804289,-0.0103 -1.153295,0.22603 -0.479758,0.32487 -0.836743,0.94108 -0.954755,1.64834 l -0.306361,1.83488 c -0.05492,0.32876 0.167027,0.63981 0.495783,0.69466 z"
       inkscape:connector-curvature="0"
       style="fill:#71aa8a;stroke-width:0.06705207;fill-opacity:0.94117647" /></g></svg>