<?xml version="1.0" encoding="UTF-8" standalone="no"?>
<!-- Generator: Adobe Illustrator 19.1.0, SVG Export Plug-In . SVG Version: 6.00 Build 0)  -->

<svg
   xmlns:dc="http://purl.org/dc/elements/1.1/"
   xmlns:cc="http://creativecommons.org/ns#"
   xmlns:rdf="http://www.w3.org/1999/02/22-rdf-syntax-ns#"
   xmlns:svg="http://www.w3.org/2000/svg"
   xmlns="http://www.w3.org/2000/svg"
   xmlns:sodipodi="http://sodipodi.sourceforge.net/DTD/sodipodi-0.dtd"
   xmlns:inkscape="http://www.inkscape.org/namespaces/inkscape"
   version="1.1"
   id="Calque_1"
   x="0px"
   y="0px"
   viewBox="-330 571.3 138.60001 138.60001"
   xml:space="preserve"
   sodipodi:docname="main_menu_logo_links-ba.svg"
   inkscape:version="0.92.4 (5da689c313, 2019-01-14)"
   width="138.60001"
   height="138.60001"><metadata
   id="metadata31"><rdf:RDF><cc:Work
       rdf:about=""><dc:format>image/svg+xml</dc:format><dc:type
         rdf:resource="http://purl.org/dc/dcmitype/StillImage" /><dc:title /></cc:Work></rdf:RDF></metadata><defs
   id="defs29" /><sodipodi:namedview
   pagecolor="#ffffff"
   bordercolor="#666666"
   borderopacity="1"
   objecttolerance="10"
   gridtolerance="10"
   guidetolerance="10"
   inkscape:pageopacity="0"
   inkscape:pageshadow="2"
   inkscape:window-width="1920"
   inkscape:window-height="1017"
   id="namedview27"
   showgrid="false"
   inkscape:zoom="4"
   inkscape:cx="-13.174988"
   inkscape:cy="89.379394"
   inkscape:window-x="-8"
   inkscape:window-y="-8"
   inkscape:window-maximized="1"
   inkscape:current-layer="text35"
   fit-margin-top="0"
   fit-margin-left="0"
   fit-margin-right="0"
   fit-margin-bottom="0" /><style
   type="text/css"
   id="style2">
	.st0{fill:#40637D;}
	.st1{fill:#FFFFFF;}
</style><g
   id="g6"
   transform="translate(0,-0.1)"><path
     class="st0"
     d="m -330,640.7 c 0,-38.3 31,-69.3 69.3,-69.3 38.3,0 69.3,31 69.3,69.3 0,38.3 -31,69.3 -69.3,69.3 -38.3,0 -69.3,-31 -69.3,-69.3"
     id="path4"
     inkscape:connector-curvature="0"
     style="fill:#40637d" /></g><g
   id="g24"
   transform="translate(-0.0437875,-6.09999)"><g
     id="g22"><path
       class="st1"
       d="m -235.3,620.9 -11.3,11.3 c -6.2,6.2 -16.3,6.2 -22.5,0 -1,-1 -1.7,-2.1 -2.4,-3.2 l 5.2,-5.2 c 0.2,-0.3 0.6,-0.4 0.8,-0.6 0.4,1.2 1,2.4 2,3.4 3.1,3.1 8.2,3.1 11.3,0 l 11.3,-11.3 c 3.1,-3.1 3.1,-8.2 0,-11.3 -3.1,-3.1 -8.2,-3.1 -11.3,0 l -4,4 c -3.2,-1.3 -6.7,-1.6 -10.2,-1.1 l 8.5,-8.5 c 6.2,-6.2 16.3,-6.2 22.5,0 6.3,6.2 6.3,16.3 0.1,22.5 m -29.8,18.6 -4,4 c -3.1,3.1 -8.2,3.1 -11.3,0 -3.1,-3.1 -3.1,-8.2 0,-11.3 l 11.3,-11.3 c 3.1,-3.1 8.2,-3.1 11.3,0 1,1 1.6,2.1 2,3.4 0.3,-0.2 0.6,-0.3 0.8,-0.6 l 5.2,-5.2 c -0.7,-1.1 -1.4,-2.2 -2.4,-3.2 -6.2,-6.2 -16.3,-6.2 -22.5,0 l -11.3,11.3 c -6.2,6.2 -6.2,16.3 0,22.5 6.2,6.2 16.3,6.2 22.5,0 l 8.5,-8.5 c -3.4,0.5 -6.9,0.1 -10.1,-1.1"
       id="path20"
       inkscape:connector-curvature="0"
       style="fill:#ffffff" /></g></g><g
   aria-label="Partneri i 
njihovi linkovi"
   style="font-style:normal;font-variant:normal;font-weight:normal;font-stretch:normal;font-size:15.92933273px;line-height:1.25;font-family:KonsensMedium;-inkscape-font-specification:'KonsensMedium, Normal';font-variant-ligatures:normal;font-variant-caps:normal;font-variant-numeric:normal;font-feature-settings:normal;text-align:center;letter-spacing:0px;word-spacing:0px;writing-mode:lr-tb;text-anchor:middle;fill:#ffffff;fill-opacity:1;stroke:none"
   id="text35"><path
     d="m -291.05281,669.09723 h -1.68587 v -11.5072 h 4.71734 q 1.51573,0 2.52106,0.928 1.00534,0.91253 1.00534,2.552 0,1.624 -1.08267,2.5984 -1.08267,0.95893 -2.552,0.95893 h -2.9232 z m 0,-5.9392 h 2.8304 q 0.91253,0 1.46933,-0.5568 0.57227,-0.57227 0.57227,-1.5312 0,-0.9744 -0.52587,-1.4848 -0.52586,-0.52587 -1.4384,-0.52587 h -2.90773 z"
     style="font-style:normal;font-variant:normal;font-weight:normal;font-stretch:normal;font-size:15.46666718px;font-family:KonsensMedium;-inkscape-font-specification:'KonsensMedium, Normal';font-variant-ligatures:normal;font-variant-caps:normal;font-variant-numeric:normal;font-feature-settings:normal;text-align:center;writing-mode:lr-tb;text-anchor:middle"
     id="path820" /><path
     d="m -277.92596,666.6999 v -1.03627 h -2.42827 q -1.54667,0 -1.54667,1.17547 0,0.47946 0.2784,0.75786 0.2784,0.26294 0.7888,0.26294 0.75787,0 1.5776,-0.44854 z m 1.54666,2.39733 h -1.54666 v -1.05173 l -0.89707,0.49493 q -1.2064,0.6496 -2.2736,0.6496 -1.0672,0 -1.73227,-0.63413 -0.6496,-0.63414 -0.6496,-1.65494 0,-1.19093 0.81974,-1.82506 0.8352,-0.63414 2.1344,-0.63414 h 2.61386 v -0.5104 q 0,-1.77866 -1.87146,-1.77866 -1.97974,0 -1.97974,1.59306 h -1.5312 v -0.0773 q 0,-1.33013 0.95894,-2.088 0.9744,-0.75787 2.53653,-0.75787 1.60853,0 2.5056,0.80427 0.91253,0.7888 0.91253,2.2272 z"
     style="font-style:normal;font-variant:normal;font-weight:normal;font-stretch:normal;font-size:15.46666718px;font-family:KonsensMedium;-inkscape-font-specification:'KonsensMedium, Normal';font-variant-ligatures:normal;font-variant-caps:normal;font-variant-numeric:normal;font-feature-settings:normal;text-align:center;writing-mode:lr-tb;text-anchor:middle"
     id="path822" /><path
     d="m -272.7207,669.09723 h -1.5776 v -8.13547 h 1.54667 v 1.23734 l 0.3712,-0.3712 q 0.9744,-0.89707 2.11893,-0.89707 h 0.4176 v 1.60853 h -0.40213 q -1.05174,0 -1.79414,0.61867 l -0.68053,0.5568 z"
     style="font-style:normal;font-variant:normal;font-weight:normal;font-stretch:normal;font-size:15.46666718px;font-family:KonsensMedium;-inkscape-font-specification:'KonsensMedium, Normal';font-variant-ligatures:normal;font-variant-caps:normal;font-variant-numeric:normal;font-feature-settings:normal;text-align:center;writing-mode:lr-tb;text-anchor:middle"
     id="path824" /><path
     d="m -263.9511,669.09723 h -1.0208 q -1.392,0 -2.19627,-0.71147 -0.80426,-0.71146 -0.80426,-2.07253 v -3.9904 h -1.2992 v -1.36107 h 1.31466 v -2.19626 h 1.5776 v 2.19626 h 2.3664 v 1.36107 h -2.3664 v 3.91307 q 0,0.80426 0.35574,1.14453 0.3712,0.3248 1.14453,0.3248 h 0.928 z"
     style="font-style:normal;font-variant:normal;font-weight:normal;font-stretch:normal;font-size:15.46666718px;font-family:KonsensMedium;-inkscape-font-specification:'KonsensMedium, Normal';font-variant-ligatures:normal;font-variant-caps:normal;font-variant-numeric:normal;font-feature-settings:normal;text-align:center;writing-mode:lr-tb;text-anchor:middle"
     id="path826" /><path
     d="m -255.45313,669.09723 h -1.5776 v -5.4288 q 0,-0.58773 -0.3248,-0.95893 -0.30934,-0.38667 -0.8816,-0.38667 -0.52587,0 -1.22187,0.40213 l -1.33013,0.7888 v 5.58347 h -1.54667 v -8.13547 h 1.5312 v 1.0672 l 0.928,-0.57226 q 0.91253,-0.57227 1.93333,-0.57227 1.14454,0 1.8096,0.71147 0.68054,0.71146 0.68054,1.88693 z"
     style="font-style:normal;font-variant:normal;font-weight:normal;font-stretch:normal;font-size:15.46666718px;font-family:KonsensMedium;-inkscape-font-specification:'KonsensMedium, Normal';font-variant-ligatures:normal;font-variant-caps:normal;font-variant-numeric:normal;font-feature-settings:normal;text-align:center;writing-mode:lr-tb;text-anchor:middle"
     id="path828" /><path
     d="m -246.49817,666.5143 v 0.0773 q 0,1.19093 -0.94347,1.91787 -0.94347,0.72693 -2.52107,0.72693 -1.5776,0 -2.56747,-0.81973 -0.98986,-0.8352 -0.98986,-2.2736 v -1.9488 q 0,-1.51574 0.98986,-2.42827 0.98987,-0.91253 2.552,-0.91253 1.56214,0 2.53654,0.91253 0.9744,0.89707 0.9744,2.44373 v 1.37654 h -5.55254 v 0.464 q 0,0.91253 0.5568,1.392 0.57227,0.464 1.50027,0.464 1.96427,0 1.96427,-1.392 z m -1.45387,-2.088 v -0.24747 q 0,-0.95893 -0.54133,-1.46933 -0.52587,-0.52587 -1.48481,-0.52587 -0.95893,0 -1.50026,0.52587 -0.54134,0.52586 -0.54134,1.4848 v 0.232 z"
     style="font-style:normal;font-variant:normal;font-weight:normal;font-stretch:normal;font-size:15.46666718px;font-family:KonsensMedium;-inkscape-font-specification:'KonsensMedium, Normal';font-variant-ligatures:normal;font-variant-caps:normal;font-variant-numeric:normal;font-feature-settings:normal;text-align:center;writing-mode:lr-tb;text-anchor:middle"
     id="path830" /><path
     d="m -242.87486,669.09723 h -1.5776 v -8.13547 h 1.54666 v 1.23734 l 0.3712,-0.3712 q 0.9744,-0.89707 2.11894,-0.89707 h 0.4176 v 1.60853 h -0.40214 q -1.05173,0 -1.79413,0.61867 l -0.68053,0.5568 z"
     style="font-style:normal;font-variant:normal;font-weight:normal;font-stretch:normal;font-size:15.46666718px;font-family:KonsensMedium;-inkscape-font-specification:'KonsensMedium, Normal';font-variant-ligatures:normal;font-variant-caps:normal;font-variant-numeric:normal;font-feature-settings:normal;text-align:center;writing-mode:lr-tb;text-anchor:middle"
     id="path832" /><path
     d="m -237.02847,669.09723 h -1.59306 v -8.13547 h 1.59306 z m 0.10827,-10.79573 v 0.3248 q 0,0.35573 -0.26293,0.57226 -0.24747,0.21654 -0.63414,0.21654 -0.4176,0 -0.66506,-0.20107 -0.24747,-0.21653 -0.24747,-0.58773 v -0.3248 q 0,-0.3712 0.24747,-0.57227 0.24746,-0.21653 0.66506,-0.21653 0.38667,0 0.63414,0.21653 0.26293,0.21653 0.26293,0.57227 z"
     style="font-style:normal;font-variant:normal;font-weight:normal;font-stretch:normal;font-size:15.46666718px;font-family:KonsensMedium;-inkscape-font-specification:'KonsensMedium, Normal';font-variant-ligatures:normal;font-variant-caps:normal;font-variant-numeric:normal;font-feature-settings:normal;text-align:center;writing-mode:lr-tb;text-anchor:middle"
     id="path834" /><path
     d="m -228.66076,669.09723 h -1.59306 v -8.13547 h 1.59306 z m 0.10827,-10.79573 v 0.3248 q 0,0.35573 -0.26293,0.57226 -0.24747,0.21654 -0.63414,0.21654 -0.4176,0 -0.66506,-0.20107 -0.24747,-0.21653 -0.24747,-0.58773 v -0.3248 q 0,-0.3712 0.24747,-0.57227 0.24746,-0.21653 0.66506,-0.21653 0.38667,0 0.63414,0.21653 0.26293,0.21653 0.26293,0.57227 z"
     style="font-style:normal;font-variant:normal;font-weight:normal;font-stretch:normal;font-size:15.46666718px;font-family:KonsensMedium;-inkscape-font-specification:'KonsensMedium, Normal';font-variant-ligatures:normal;font-variant-caps:normal;font-variant-numeric:normal;font-feature-settings:normal;text-align:center;writing-mode:lr-tb;text-anchor:middle"
     id="path836" /><path
     d="m -301.18855,689.00889 h -1.5776 v -5.4288 q 0,-0.58773 -0.3248,-0.95893 -0.30933,-0.38667 -0.8816,-0.38667 -0.52587,0 -1.22187,0.40214 l -1.33013,0.7888 v 5.58346 h -1.54667 v -8.13546 h 1.5312 v 1.0672 l 0.928,-0.57227 q 0.91254,-0.57227 1.93334,-0.57227 1.14453,0 1.8096,0.71147 0.68053,0.71147 0.68053,1.88693 z"
     style="font-style:normal;font-variant:normal;font-weight:normal;font-stretch:normal;font-size:15.46666718px;font-family:KonsensMedium;-inkscape-font-specification:'KonsensMedium, Normal';font-variant-ligatures:normal;font-variant-caps:normal;font-variant-numeric:normal;font-feature-settings:normal;text-align:center;writing-mode:lr-tb;text-anchor:middle"
     id="path838" /><path
     d="m -300.05973,691.85476 h -0.3712 v -1.31467 h 0.26294 q 0.58773,0 0.85066,-0.26293 0.2784,-0.26293 0.2784,-0.86613 v -8.5376 h 1.59307 v 8.6304 q 0,1.14453 -0.696,1.74773 -0.696,0.6032 -1.91787,0.6032 z m 2.72214,-13.6416 v 0.3248 q 0,0.35573 -0.26294,0.57227 -0.24746,0.21653 -0.63413,0.21653 -0.4176,0 -0.66507,-0.20107 -0.24746,-0.21653 -0.24746,-0.58773 v -0.3248 q 0,-0.3712 0.24746,-0.57227 0.24747,-0.21653 0.66507,-0.21653 0.38667,0 0.63413,0.21653 0.26294,0.21654 0.26294,0.57227 z"
     style="font-style:normal;font-variant:normal;font-weight:normal;font-stretch:normal;font-size:15.46666718px;font-family:KonsensMedium;-inkscape-font-specification:'KonsensMedium, Normal';font-variant-ligatures:normal;font-variant-caps:normal;font-variant-numeric:normal;font-feature-settings:normal;text-align:center;writing-mode:lr-tb;text-anchor:middle"
     id="path840" /><path
     d="m -293.57847,689.00889 h -1.59306 v -8.13546 h 1.59306 z m 0.10827,-10.79573 v 0.3248 q 0,0.35573 -0.26293,0.57227 -0.24747,0.21653 -0.63414,0.21653 -0.4176,0 -0.66506,-0.20107 -0.24747,-0.21653 -0.24747,-0.58773 v -0.3248 q 0,-0.3712 0.24747,-0.57227 0.24746,-0.21653 0.66506,-0.21653 0.38667,0 0.63414,0.21653 0.26293,0.21654 0.26293,0.57227 z"
     style="font-style:normal;font-variant:normal;font-weight:normal;font-stretch:normal;font-size:15.46666718px;font-family:KonsensMedium;-inkscape-font-specification:'KonsensMedium, Normal';font-variant-ligatures:normal;font-variant-caps:normal;font-variant-numeric:normal;font-feature-settings:normal;text-align:center;writing-mode:lr-tb;text-anchor:middle"
     id="path842" /><path
     d="m -284.42293,689.00889 h -1.5776 v -5.4288 q 0,-0.6032 -0.3248,-0.9744 -0.3248,-0.3712 -0.8816,-0.3712 -0.52586,0 -1.22186,0.40214 l -1.33014,0.7888 v 5.58346 h -1.54666 v -11.5072 h 1.54666 v 4.43894 l 0.91254,-0.57227 q 0.95893,-0.57227 1.93333,-0.57227 1.14453,0 1.8096,0.71147 0.68053,0.71147 0.68053,1.88693 z"
     style="font-style:normal;font-variant:normal;font-weight:normal;font-stretch:normal;font-size:15.46666718px;font-family:KonsensMedium;-inkscape-font-specification:'KonsensMedium, Normal';font-variant-ligatures:normal;font-variant-caps:normal;font-variant-numeric:normal;font-feature-settings:normal;text-align:center;writing-mode:lr-tb;text-anchor:middle"
     id="path844" /><path
     d="m -276.76717,685.68356 v -1.4384 q 0,-0.98987 -0.58773,-1.54667 -0.57227,-0.5568 -1.51573,-0.5568 -0.95894,0 -1.5312,0.5568 -0.57227,0.5568 -0.57227,1.54667 v 1.4384 q 0,0.98987 0.57227,1.56213 0.57226,0.5568 1.5312,0.5568 0.94346,0 1.51573,-0.5568 0.58773,-0.5568 0.58773,-1.56213 z m 1.51574,-1.5776 v 1.73227 q 0,1.51573 -1.0208,2.42826 -1.00534,0.91254 -2.5984,0.91254 -1.59307,0 -2.61387,-0.91254 -1.00533,-0.91253 -1.00533,-2.42826 v -1.73227 q 0,-1.51573 1.00533,-2.42827 1.0208,-0.91253 2.61387,-0.91253 1.59306,0 2.5984,0.91253 1.0208,0.91254 1.0208,2.42827 z"
     style="font-style:normal;font-variant:normal;font-weight:normal;font-stretch:normal;font-size:15.46666718px;font-family:KonsensMedium;-inkscape-font-specification:'KonsensMedium, Normal';font-variant-ligatures:normal;font-variant-caps:normal;font-variant-numeric:normal;font-feature-settings:normal;text-align:center;writing-mode:lr-tb;text-anchor:middle"
     id="path846" /><path
     d="m -269.72645,689.00889 h -1.7632 l -2.90774,-8.13546 h 1.7168 l 2.10347,6.3568 2.1344,-6.3568 h 1.624 z"
     style="font-style:normal;font-variant:normal;font-weight:normal;font-stretch:normal;font-size:15.46666718px;font-family:KonsensMedium;-inkscape-font-specification:'KonsensMedium, Normal';font-variant-ligatures:normal;font-variant-caps:normal;font-variant-numeric:normal;font-feature-settings:normal;text-align:center;writing-mode:lr-tb;text-anchor:middle"
     id="path848" /><path
     d="m -263.82326,689.00889 h -1.59306 v -8.13546 h 1.59306 z m 0.10827,-10.79573 v 0.3248 q 0,0.35573 -0.26293,0.57227 -0.24747,0.21653 -0.63414,0.21653 -0.4176,0 -0.66506,-0.20107 -0.24747,-0.21653 -0.24747,-0.58773 v -0.3248 q 0,-0.3712 0.24747,-0.57227 0.24746,-0.21653 0.66506,-0.21653 0.38667,0 0.63414,0.21653 0.26293,0.21654 0.26293,0.57227 z"
     style="font-style:normal;font-variant:normal;font-weight:normal;font-stretch:normal;font-size:15.46666718px;font-family:KonsensMedium;-inkscape-font-specification:'KonsensMedium, Normal';font-variant-ligatures:normal;font-variant-caps:normal;font-variant-numeric:normal;font-feature-settings:normal;text-align:center;writing-mode:lr-tb;text-anchor:middle"
     id="path850" /><path
     d="m -255.48648,689.00889 h -1.59307 v -11.5072 h 1.59307 z"
     style="font-style:normal;font-variant:normal;font-weight:normal;font-stretch:normal;font-size:15.46666718px;font-family:KonsensMedium;-inkscape-font-specification:'KonsensMedium, Normal';font-variant-ligatures:normal;font-variant-caps:normal;font-variant-numeric:normal;font-feature-settings:normal;text-align:center;writing-mode:lr-tb;text-anchor:middle"
     id="path852" /><path
     d="m -251.6493,689.00889 h -1.59306 v -8.13546 h 1.59306 z m 0.10827,-10.79573 v 0.3248 q 0,0.35573 -0.26293,0.57227 -0.24747,0.21653 -0.63414,0.21653 -0.4176,0 -0.66506,-0.20107 -0.24747,-0.21653 -0.24747,-0.58773 v -0.3248 q 0,-0.3712 0.24747,-0.57227 0.24746,-0.21653 0.66506,-0.21653 0.38667,0 0.63414,0.21653 0.26293,0.21654 0.26293,0.57227 z"
     style="font-style:normal;font-variant:normal;font-weight:normal;font-stretch:normal;font-size:15.46666718px;font-family:KonsensMedium;-inkscape-font-specification:'KonsensMedium, Normal';font-variant-ligatures:normal;font-variant-caps:normal;font-variant-numeric:normal;font-feature-settings:normal;text-align:center;writing-mode:lr-tb;text-anchor:middle"
     id="path854" /><path
     d="m -242.49376,689.00889 h -1.5776 v -5.4288 q 0,-0.58773 -0.3248,-0.95893 -0.30933,-0.38667 -0.8816,-0.38667 -0.52586,0 -1.22186,0.40214 l -1.33014,0.7888 v 5.58346 h -1.54666 v -8.13546 h 1.5312 v 1.0672 l 0.928,-0.57227 q 0.91253,-0.57227 1.93333,-0.57227 1.14453,0 1.8096,0.71147 0.68053,0.71147 0.68053,1.88693 z"
     style="font-style:normal;font-variant:normal;font-weight:normal;font-stretch:normal;font-size:15.46666718px;font-family:KonsensMedium;-inkscape-font-specification:'KonsensMedium, Normal';font-variant-ligatures:normal;font-variant-caps:normal;font-variant-numeric:normal;font-feature-settings:normal;text-align:center;writing-mode:lr-tb;text-anchor:middle"
     id="path856" /><path
     d="m -232.9356,689.00889 h -1.79413 l -2.32,-4.09866 -1.74773,1.82506 v 2.2736 h -1.54667 v -11.5072 h 1.54667 v 7.3312 l 3.65013,-3.95946 h 2.05707 l -2.79947,2.90773 z"
     style="font-style:normal;font-variant:normal;font-weight:normal;font-stretch:normal;font-size:15.46666718px;font-family:KonsensMedium;-inkscape-font-specification:'KonsensMedium, Normal';font-variant-ligatures:normal;font-variant-caps:normal;font-variant-numeric:normal;font-feature-settings:normal;text-align:center;writing-mode:lr-tb;text-anchor:middle"
     id="path858" /><path
     d="m -226.35309,685.68356 v -1.4384 q 0,-0.98987 -0.58773,-1.54667 -0.57227,-0.5568 -1.51573,-0.5568 -0.95894,0 -1.5312,0.5568 -0.57227,0.5568 -0.57227,1.54667 v 1.4384 q 0,0.98987 0.57227,1.56213 0.57226,0.5568 1.5312,0.5568 0.94346,0 1.51573,-0.5568 0.58773,-0.5568 0.58773,-1.56213 z m 1.51574,-1.5776 v 1.73227 q 0,1.51573 -1.0208,2.42826 -1.00534,0.91254 -2.5984,0.91254 -1.59307,0 -2.61387,-0.91254 -1.00533,-0.91253 -1.00533,-2.42826 v -1.73227 q 0,-1.51573 1.00533,-2.42827 1.0208,-0.91253 2.61387,-0.91253 1.59306,0 2.5984,0.91253 1.0208,0.91254 1.0208,2.42827 z"
     style="font-style:normal;font-variant:normal;font-weight:normal;font-stretch:normal;font-size:15.46666718px;font-family:KonsensMedium;-inkscape-font-specification:'KonsensMedium, Normal';font-variant-ligatures:normal;font-variant-caps:normal;font-variant-numeric:normal;font-feature-settings:normal;text-align:center;writing-mode:lr-tb;text-anchor:middle"
     id="path860" /><path
     d="m -219.30874,689.00889 h -1.7632 l -2.90774,-8.13546 h 1.7168 l 2.10347,6.3568 2.1344,-6.3568 h 1.624 z"
     style="font-style:normal;font-variant:normal;font-weight:normal;font-stretch:normal;font-size:15.46666718px;font-family:KonsensMedium;-inkscape-font-specification:'KonsensMedium, Normal';font-variant-ligatures:normal;font-variant-caps:normal;font-variant-numeric:normal;font-feature-settings:normal;text-align:center;writing-mode:lr-tb;text-anchor:middle"
     id="path862" /><path
     d="m -213.40555,689.00889 h -1.59306 v -8.13546 h 1.59306 z m 0.10827,-10.79573 v 0.3248 q 0,0.35573 -0.26293,0.57227 -0.24747,0.21653 -0.63414,0.21653 -0.4176,0 -0.66506,-0.20107 -0.24747,-0.21653 -0.24747,-0.58773 v -0.3248 q 0,-0.3712 0.24747,-0.57227 0.24746,-0.21653 0.66506,-0.21653 0.38667,0 0.63414,0.21653 0.26293,0.21654 0.26293,0.57227 z"
     style="font-style:normal;font-variant:normal;font-weight:normal;font-stretch:normal;font-size:15.46666718px;font-family:KonsensMedium;-inkscape-font-specification:'KonsensMedium, Normal';font-variant-ligatures:normal;font-variant-caps:normal;font-variant-numeric:normal;font-feature-settings:normal;text-align:center;writing-mode:lr-tb;text-anchor:middle"
     id="path864" /></g>





</svg>