<?xml version="1.0" encoding="UTF-8" standalone="no"?>
<!-- Generator: Adobe Illustrator 19.1.0, SVG Export Plug-In . SVG Version: 6.00 Build 0)  -->

<svg
   xmlns:dc="http://purl.org/dc/elements/1.1/"
   xmlns:cc="http://creativecommons.org/ns#"
   xmlns:rdf="http://www.w3.org/1999/02/22-rdf-syntax-ns#"
   xmlns:svg="http://www.w3.org/2000/svg"
   xmlns="http://www.w3.org/2000/svg"
   xmlns:sodipodi="http://sodipodi.sourceforge.net/DTD/sodipodi-0.dtd"
   xmlns:inkscape="http://www.inkscape.org/namespaces/inkscape"
   version="1.1"
   id="Calque_1"
   x="0px"
   y="0px"
   viewBox="-330 571.3 138.60001 138.60001"
   xml:space="preserve"
   sodipodi:docname="main_menu_logo_contact-el.svg"
   inkscape:version="0.92.4 (5da689c313, 2019-01-14)"
   width="138.60001"
   height="138.60001"><metadata
   id="metadata43"><rdf:RDF><cc:Work
       rdf:about=""><dc:format>image/svg+xml</dc:format><dc:type
         rdf:resource="http://purl.org/dc/dcmitype/StillImage" /><dc:title></dc:title></cc:Work></rdf:RDF></metadata><defs
   id="defs41" /><sodipodi:namedview
   pagecolor="#ffffff"
   bordercolor="#666666"
   borderopacity="1"
   objecttolerance="10"
   gridtolerance="10"
   guidetolerance="10"
   inkscape:pageopacity="0"
   inkscape:pageshadow="2"
   inkscape:window-width="1536"
   inkscape:window-height="801"
   id="namedview39"
   showgrid="false"
   inkscape:zoom="3"
   inkscape:cx="119.99422"
   inkscape:cy="69.350001"
   inkscape:window-x="-8"
   inkscape:window-y="-8"
   inkscape:window-maximized="1"
   inkscape:current-layer="text4541"
   fit-margin-top="0"
   fit-margin-left="0"
   fit-margin-right="0"
   fit-margin-bottom="0" /><style
   type="text/css"
   id="style2">
	.st0{fill:#E8E493;}
	.st1{fill:#40637D;}
	.st2{fill:#FFFFFF;}
</style><g
   id="g6"
   transform="translate(0,-0.1)"><path
     class="st0"
     d="m -330,640.7 c 0,-38.3 31,-69.3 69.3,-69.3 38.3,0 69.3,31 69.3,69.3 0,38.3 -31,69.3 -69.3,69.3 -38.3,0 -69.3,-31 -69.3,-69.3"
     id="path4"
     style="fill:#ff7837;fill-opacity:1"
     inkscape:connector-curvature="0" /></g><g
   id="g36"
   transform="translate(0,-16.363454)"><g
     id="g30"><path
       class="st2"
       d="m -272.3,659 c 0,0.4 0.2,0.8 0.6,1 0.4,0.2 0.8,0.2 1.2,-0.1 l 7.7,-5.3 -9.5,-4.5 z"
       id="path28"
       inkscape:connector-curvature="0"
       style="fill:#ffffff" /></g><g
     id="g34"><path
       class="st2"
       d="m -226.4,599.6 c -0.2,-0.2 -0.5,-0.3 -0.8,-0.3 -0.2,0 -0.3,0 -0.5,0.1 l -66.6,32.7 c -0.7,0.3 -1.1,1 -1.1,1.8 0,0.8 0.4,1.5 1.1,1.8 l 17.6,8.4 35.1,-28.9 -30.8,30.9 21.9,10.4 c 0.3,0.1 0.6,0.2 0.9,0.2 0.2,0 0.5,0 0.7,-0.1 0.5,-0.2 0.9,-0.6 1.1,-1.1 l 21.7,-54.6 c 0.2,-0.5 0.1,-1 -0.3,-1.3"
       id="path32"
       inkscape:connector-curvature="0"
       style="fill:#ffffff" /></g></g><g
   aria-label="Επικοινωνήστε
μαζί μας"
   style="font-style:normal;font-variant:normal;font-weight:normal;font-stretch:normal;font-size:15.92933273px;line-height:1.25;font-family:KonsensMedium;-inkscape-font-specification:'KonsensMedium, Normal';font-variant-ligatures:normal;font-variant-caps:normal;font-variant-numeric:normal;font-feature-settings:normal;text-align:start;letter-spacing:0px;word-spacing:0px;writing-mode:lr-tb;text-anchor:start;fill:#ffffff;fill-opacity:1;stroke:none"
   id="text4541"><path
     d="m -309.19949,668.41364 h -7.4086 v -11.24506 h 7.4086 v 1.32917 h -5.91329 v 3.08125 h 5.91329 v 1.32917 h -5.91329 v 4.1763 h 5.91329 z"
     style="font-style:normal;font-variant:normal;font-weight:normal;font-stretch:normal;font-size:15.46666718px;font-family:KonsensMedium;-inkscape-font-specification:'KonsensMedium, Normal';font-variant-ligatures:normal;font-variant-caps:normal;font-variant-numeric:normal;font-feature-settings:normal;text-align:center;writing-mode:lr-tb;text-anchor:middle"
     id="path863" /><path
     d="m -298.2158,668.41364 h -1.39201 q -1.19093,0 -1.88693,-0.6032 -0.696,-0.6032 -0.696,-1.7632 v -4.42347 h -2.58293 v 6.78987 h -1.5776 v -6.78987 h -1.392 v -1.3456 h 9.4656 v 1.36107 h -2.32 v 4.28426 q 0,0.58774 0.26293,0.85067 0.2784,0.24747 0.86613,0.24747 h 1.25281 z"
     style="font-style:normal;font-variant:normal;font-weight:normal;font-stretch:normal;font-size:15.46666718px;font-family:KonsensMedium;-inkscape-font-specification:'KonsensMedium, Normal';font-variant-ligatures:normal;font-variant-caps:normal;font-variant-numeric:normal;font-feature-settings:normal;text-align:center;writing-mode:lr-tb;text-anchor:middle"
     id="path865" /><path
     d="m -294.74481,668.41364 h -1.41979 v -8.43568 h 1.41979 z"
     style="font-style:normal;font-variant:normal;font-weight:normal;font-stretch:normal;font-size:15.46666718px;font-family:KonsensMedium;-inkscape-font-specification:'KonsensMedium, Normal';font-variant-ligatures:normal;font-variant-caps:normal;font-variant-numeric:normal;font-feature-settings:normal;text-align:center;writing-mode:lr-tb;text-anchor:middle"
     id="path867" /><path
     d="m -284.31538,668.41364 h -1.87292 l -3.40599,-3.69297 -0.84583,0.82317 v 2.8698 h -1.41979 v -8.43568 h 1.41979 v 4.15364 l 2.9,-3.14921 q 0.54375,-0.59662 1.01953,-0.80808 0.48334,-0.21146 0.95912,-0.21146 0.21146,0 0.43802,0.008 0.22656,0.008 0.27942,0.008 v 1.25364 h -0.0831 q -0.12083,-0.0151 -0.30208,-0.0226 -0.1737,-0.008 -0.27188,-0.008 -0.35494,0 -0.64948,0.18125 -0.28697,0.17369 -0.50599,0.42291 l -1.89557,2.04662 z"
     style="font-style:normal;font-variant:normal;font-weight:normal;font-stretch:normal;font-size:15.46666718px;font-family:KonsensMedium;-inkscape-font-specification:'KonsensMedium, Normal';font-variant-ligatures:normal;font-variant-caps:normal;font-variant-numeric:normal;font-feature-settings:normal;text-align:center;writing-mode:lr-tb;text-anchor:middle"
     id="path869" /><path
     d="m -275.57762,664.19957 q 0,2.06172 -1.05729,3.25495 -1.05729,1.19323 -2.83203,1.19323 -1.78985,0 -2.84714,-1.19323 -1.04974,-1.19323 -1.04974,-3.25495 0,-2.06172 1.04974,-3.25495 1.05729,-1.20078 2.84714,-1.20078 1.77474,0 2.83203,1.20078 1.05729,1.19323 1.05729,3.25495 z m -1.4651,0 q 0,-1.6388 -0.64193,-2.43177 -0.64193,-0.80052 -1.78229,-0.80052 -1.15547,0 -1.7974,0.80052 -0.63437,0.79297 -0.63437,2.43177 0,1.58594 0.64192,2.40912 0.64193,0.81562 1.78985,0.81562 1.13281,0 1.77474,-0.80807 0.64948,-0.81563 0.64948,-2.41667 z"
     style="font-style:normal;font-variant:normal;font-weight:normal;font-stretch:normal;font-size:15.46666718px;font-family:KonsensMedium;-inkscape-font-specification:'KonsensMedium, Normal';font-variant-ligatures:normal;font-variant-caps:normal;font-variant-numeric:normal;font-feature-settings:normal;text-align:center;writing-mode:lr-tb;text-anchor:middle"
     id="path871" /><path
     d="m -271.93751,668.41364 h -1.4198 v -8.43568 h 1.4198 z"
     style="font-style:normal;font-variant:normal;font-weight:normal;font-stretch:normal;font-size:15.46666718px;font-family:KonsensMedium;-inkscape-font-specification:'KonsensMedium, Normal';font-variant-ligatures:normal;font-variant-caps:normal;font-variant-numeric:normal;font-feature-settings:normal;text-align:center;writing-mode:lr-tb;text-anchor:middle"
     id="path873" /><path
     d="m -261.81772,659.97796 -3.41355,8.43568 h -1.42734 l -3.39089,-8.43568 h 1.54063 l 2.61302,6.7138 2.59037,-6.7138 z"
     style="font-style:normal;font-variant:normal;font-weight:normal;font-stretch:normal;font-size:15.46666718px;font-family:KonsensMedium;-inkscape-font-specification:'KonsensMedium, Normal';font-variant-ligatures:normal;font-variant-caps:normal;font-variant-numeric:normal;font-feature-settings:normal;text-align:center;writing-mode:lr-tb;text-anchor:middle"
     id="path875" /><path
     d="m -249.62866,664.61494 q 0,0.725 -0.18125,1.45755 -0.1737,0.725 -0.55885,1.29141 -0.41537,0.60416 -1.01198,0.94401 -0.58907,0.33229 -1.45756,0.33229 -0.725,0 -1.33671,-0.37005 -0.61172,-0.37761 -0.89115,-0.8836 h -0.0453 q -0.29453,0.51354 -0.85339,0.8836 -0.55885,0.37005 -1.32917,0.37005 -0.85338,0 -1.47265,-0.3474 -0.61172,-0.35495 -0.99688,-0.9289 -0.38515,-0.57396 -0.5664,-1.29141 -0.1737,-0.725 -0.1737,-1.45755 0,-1.28386 0.43047,-2.32604 0.43047,-1.04974 1.51797,-2.31094 h 1.72187 v 0.12838 q -1.01953,0.81563 -1.6237,1.97865 -0.59661,1.16302 -0.59661,2.54505 0,0.49844 0.0604,0.92891 0.0604,0.42291 0.28697,0.8987 0.19636,0.41536 0.54376,0.69479 0.35494,0.27187 0.89114,0.27187 0.38516,0 0.64948,-0.0906 0.27188,-0.0982 0.42292,-0.22657 0.16614,-0.13593 0.27187,-0.30208 0.11328,-0.16614 0.1586,-0.27943 v -4.41041 h 1.40468 v 4.41041 q 0.068,0.12839 0.1737,0.29454 0.10573,0.16614 0.26432,0.29453 0.18125,0.14349 0.39271,0.22656 0.21901,0.0831 0.65703,0.0831 0.52865,0 0.8836,-0.26432 0.35495,-0.27188 0.55885,-0.70234 0.1888,-0.41537 0.27188,-0.87605 0.0831,-0.46067 0.0831,-0.95156 0,-1.37448 -0.59662,-2.5375 -0.58906,-1.16302 -1.62369,-1.9862 v -0.12838 h 1.72187 q 1.0875,1.2612 1.51797,2.31094 0.43047,1.04218 0.43047,2.32604 z"
     style="font-style:normal;font-variant:normal;font-weight:normal;font-stretch:normal;font-size:15.46666718px;font-family:KonsensMedium;-inkscape-font-specification:'KonsensMedium, Normal';font-variant-ligatures:normal;font-variant-caps:normal;font-variant-numeric:normal;font-feature-settings:normal;text-align:center;writing-mode:lr-tb;text-anchor:middle"
     id="path877" /><path
     d="m -240.06772,659.97796 -3.41354,8.43568 h -1.42735 l -3.39088,-8.43568 h 1.54062 l 2.61302,6.7138 2.59037,-6.7138 z"
     style="font-style:normal;font-variant:normal;font-weight:normal;font-stretch:normal;font-size:15.46666718px;font-family:KonsensMedium;-inkscape-font-specification:'KonsensMedium, Normal';font-variant-ligatures:normal;font-variant-caps:normal;font-variant-numeric:normal;font-feature-settings:normal;text-align:center;writing-mode:lr-tb;text-anchor:middle"
     id="path879" /><path
     d="m -231.15626,671.52509 h -1.4198 v -7.91458 q 0,-0.58151 -0.068,-1.0875 -0.068,-0.51354 -0.24921,-0.80052 -0.18881,-0.31719 -0.54375,-0.46823 -0.35495,-0.15859 -0.92136,-0.15859 -0.58151,0 -1.21588,0.28698 -0.63438,0.28697 -1.21589,0.73255 v 6.29844 h -1.41979 v -8.43568 h 1.41979 v 0.93646 q 0.66458,-0.55131 1.37448,-0.86094 0.7099,-0.30964 1.45755,-0.30964 1.36693,0 2.08438,0.82318 0.71745,0.82318 0.71745,2.37135 z m -2.39402,-15.76875 -0.37005,2.9 h -1.09505 l -0.37005,-2.9 z"
     style="font-style:normal;font-variant:normal;font-weight:normal;font-stretch:normal;font-size:15.46666718px;font-family:KonsensMedium;-inkscape-font-specification:'KonsensMedium, Normal';font-variant-ligatures:normal;font-variant-caps:normal;font-variant-numeric:normal;font-feature-settings:normal;text-align:center;writing-mode:lr-tb;text-anchor:middle"
     id="path881" /><path
     d="m -221.23282,664.19957 q 0,2.12214 -1.06484,3.28516 -1.0573,1.16302 -2.81693,1.16302 -1.82005,0 -2.86224,-1.19323 -1.04219,-1.19323 -1.04219,-3.25495 0,-2.07682 1.06484,-3.2625 1.06485,-1.19323 2.85469,-1.19323 0.41537,0 0.81563,0.0831 0.40026,0.0831 0.61927,0.15104 h 3.625 v 1.24609 h -2.175 q 0.46823,0.5513 0.725,1.28386 0.25677,0.73255 0.25677,1.69166 z m -1.46511,0 q 0,-1.6237 -0.61927,-2.43177 -0.61927,-0.80807 -1.78229,-0.80807 -1.21588,0 -1.83515,0.84583 -0.61928,0.84584 -0.61928,2.39401 0,1.57839 0.62683,2.40157 0.63437,0.82317 1.8125,0.82317 1.14791,0 1.78229,-0.80807 0.63437,-0.81563 0.63437,-2.41667 z"
     style="font-style:normal;font-variant:normal;font-weight:normal;font-stretch:normal;font-size:15.46666718px;font-family:KonsensMedium;-inkscape-font-specification:'KonsensMedium, Normal';font-variant-ligatures:normal;font-variant-caps:normal;font-variant-numeric:normal;font-feature-settings:normal;text-align:center;writing-mode:lr-tb;text-anchor:middle"
     id="path883" /><path
     d="m -212.46486,661.22405 h -3.05104 v 7.18959 h -1.41979 v -7.18959 h -3.05104 v -1.24609 h 7.52187 z"
     style="font-style:normal;font-variant:normal;font-weight:normal;font-stretch:normal;font-size:15.46666718px;font-family:KonsensMedium;-inkscape-font-specification:'KonsensMedium, Normal';font-variant-ligatures:normal;font-variant-caps:normal;font-variant-numeric:normal;font-feature-settings:normal;text-align:center;writing-mode:lr-tb;text-anchor:middle"
     id="path885" /><path
     d="m -204.79194,667.9303 q -0.80807,0.3625 -1.58594,0.5211 -0.77786,0.15859 -1.64635,0.15859 -0.59661,0 -1.21589,-0.12083 -0.61927,-0.12084 -1.14791,-0.42292 -0.5211,-0.29453 -0.85339,-0.77031 -0.32474,-0.48334 -0.32474,-1.19323 0,-0.725 0.42292,-1.26875 0.43047,-0.54375 1.34427,-0.83073 v -0.0529 q -0.68724,-0.18125 -1.09505,-0.67968 -0.40781,-0.49844 -0.40781,-1.19323 0,-0.67214 0.35494,-1.11016 0.3625,-0.44557 0.85339,-0.70234 0.48333,-0.24922 1.09505,-0.37006 0.61172,-0.12083 1.20833,-0.12083 0.74011,0 1.35938,0.12839 0.61927,0.12083 1.29896,0.33229 v 1.56328 h -0.0982 q -0.49844,-0.38516 -1.23854,-0.59661 -0.73255,-0.21146 -1.48776,-0.21146 -0.33984,0 -0.63438,0.0453 -0.29453,0.0378 -0.61171,0.1888 -0.26433,0.11328 -0.46068,0.37005 -0.1888,0.24922 -0.1888,0.58151 0,0.46068 0.21145,0.71745 0.21146,0.25677 0.57396,0.37005 0.33985,0.10573 0.73255,0.12084 0.39271,0.008 0.79297,0.008 h 0.83828 v 1.25365 h -1.19322 q -0.46823,0 -0.84584,0.0378 -0.3776,0.0302 -0.69479,0.15859 -0.30963,0.12839 -0.49844,0.40781 -0.18125,0.27943 -0.18125,0.725 0,0.40026 0.19636,0.67969 0.19635,0.27943 0.50599,0.43802 0.27942,0.14349 0.65703,0.21901 0.38515,0.0755 0.80807,0.0755 0.77031,0 1.64636,-0.27187 0.87604,-0.27188 1.41224,-0.74011 h 0.0982 z"
     style="font-style:normal;font-variant:normal;font-weight:normal;font-stretch:normal;font-size:15.46666718px;font-family:KonsensMedium;-inkscape-font-specification:'KonsensMedium, Normal';font-variant-ligatures:normal;font-variant-caps:normal;font-variant-numeric:normal;font-feature-settings:normal;text-align:center;writing-mode:lr-tb;text-anchor:middle"
     id="path887" /><path
     d="m -284.64012,688.3253 h -1.40469 v -0.89114 q -0.55885,0.58906 -1.07239,0.82317 -0.50599,0.22656 -1.09505,0.22656 -0.56641,0 -1.01954,-0.2039 -0.45312,-0.20391 -1.0875,-0.80807 v 3.96484 h -1.41979 v -11.54714 h 1.41979 v 6.32865 q 0.24167,0.29453 0.83829,0.60417 0.59661,0.30963 1.28385,0.30963 0.70234,0 1.21588,-0.24922 0.51355,-0.25677 0.92136,-0.70989 v -6.28334 h 1.41979 z"
     style="font-style:normal;font-variant:normal;font-weight:normal;font-stretch:normal;font-size:15.46666718px;font-family:KonsensMedium;-inkscape-font-specification:'KonsensMedium, Normal';font-variant-ligatures:normal;font-variant-caps:normal;font-variant-numeric:normal;font-feature-settings:normal;text-align:center;writing-mode:lr-tb;text-anchor:middle"
     id="path889" /><path
     d="m -274.98856,688.3253 h -1.41979 v -0.88359 q -0.61172,0.52864 -1.2763,0.82317 -0.66458,0.29454 -1.44245,0.29454 -1.51041,0 -2.40156,-1.16303 -0.88359,-1.16302 -0.88359,-3.22473 0,-1.0724 0.30208,-1.91068 0.30963,-0.83828 0.83073,-1.42735 0.51354,-0.57395 1.19323,-0.87604 0.68724,-0.30208 1.41979,-0.30208 0.66458,0 1.17812,0.16615 0.51355,0.16614 1.07995,0.46067 v -0.39271 h 1.41979 z m -1.41979,-2.07682 v -4.80313 q -0.57396,-0.25677 -1.02708,-0.37005 -0.45313,-0.12083 -0.98932,-0.12083 -1.19323,0 -1.85782,0.83073 -0.66458,0.83073 -0.66458,2.35625 0,1.50286 0.51354,2.28828 0.51354,0.77786 1.64636,0.77786 0.60416,0 1.22343,-0.26432 0.61927,-0.27188 1.15547,-0.69479 z"
     style="font-style:normal;font-variant:normal;font-weight:normal;font-stretch:normal;font-size:15.46666718px;font-family:KonsensMedium;-inkscape-font-specification:'KonsensMedium, Normal';font-variant-ligatures:normal;font-variant-caps:normal;font-variant-numeric:normal;font-feature-settings:normal;text-align:center;writing-mode:lr-tb;text-anchor:middle"
     id="path891" /><path
     d="m -266.6284,687.75889 q 0.24167,0.30209 0.3474,0.64193 0.10573,0.3474 0.10573,0.64948 0,0.63438 -0.33985,1.26875 -0.33984,0.64193 -0.84583,1.11771 h -1.35183 v -0.10573 q 0.67969,-0.59661 0.96667,-1.04974 0.28698,-0.44557 0.28698,-0.96667 0,-0.43046 -0.23411,-0.71744 -0.22657,-0.28698 -0.58151,-0.28698 h -1.09506 q -1.72942,0 -2.5677,-0.87604 -0.83829,-0.87605 -0.83829,-2.60547 0,-1.0573 0.3474,-2.02396 0.3474,-0.96667 0.93646,-1.86537 0.5664,-0.84583 1.30651,-1.61614 0.74765,-0.77787 1.56328,-1.48776 v -0.068 h -3.47396 v -1.19323 h 5.61875 v 1.01953 q -0.88359,0.58906 -1.75208,1.36693 -0.86094,0.77786 -1.54063,1.68411 -0.67213,0.8836 -1.1026,1.94089 -0.43047,1.05729 -0.43047,2.13724 0,0.25677 0.0227,0.52864 0.0226,0.27188 0.11328,0.57396 0.0755,0.28698 0.25677,0.57396 0.1888,0.27943 0.48333,0.46068 0.27188,0.16614 0.725,0.1888 0.46068,0.0151 0.8836,0.0151 h 0.64947 q 0.5362,0 0.92136,0.19636 0.38516,0.19635 0.61927,0.49843 z"
     style="font-style:normal;font-variant:normal;font-weight:normal;font-stretch:normal;font-size:15.46666718px;font-family:KonsensMedium;-inkscape-font-specification:'KonsensMedium, Normal';font-variant-ligatures:normal;font-variant-caps:normal;font-variant-numeric:normal;font-feature-settings:normal;text-align:center;writing-mode:lr-tb;text-anchor:middle"
     id="path893" /><path
     d="m -263.69064,688.3253 h -1.41979 v -8.43568 h 1.41979 z m 0.21146,-12.65729 -0.37005,2.9 h -1.09506 l -0.37005,-2.9 z"
     style="font-style:normal;font-variant:normal;font-weight:normal;font-stretch:normal;font-size:15.46666718px;font-family:KonsensMedium;-inkscape-font-specification:'KonsensMedium, Normal';font-variant-ligatures:normal;font-variant-caps:normal;font-variant-numeric:normal;font-feature-settings:normal;text-align:center;writing-mode:lr-tb;text-anchor:middle"
     id="path895" /><path
     d="m -248.3297,688.3253 h -1.40469 v -0.89114 q -0.55885,0.58906 -1.0724,0.82317 -0.50599,0.22656 -1.09505,0.22656 -0.5664,0 -1.01953,-0.2039 -0.45312,-0.20391 -1.0875,-0.80807 v 3.96484 h -1.41979 v -11.54714 h 1.41979 v 6.32865 q 0.24167,0.29453 0.83828,0.60417 0.59662,0.30963 1.28386,0.30963 0.70234,0 1.21588,-0.24922 0.51354,-0.25677 0.92136,-0.70989 v -6.28334 h 1.41979 z"
     style="font-style:normal;font-variant:normal;font-weight:normal;font-stretch:normal;font-size:15.46666718px;font-family:KonsensMedium;-inkscape-font-specification:'KonsensMedium, Normal';font-variant-ligatures:normal;font-variant-caps:normal;font-variant-numeric:normal;font-feature-settings:normal;text-align:center;writing-mode:lr-tb;text-anchor:middle"
     id="path897" /><path
     d="m -238.67814,688.3253 h -1.41979 v -0.88359 q -0.61172,0.52864 -1.2763,0.82317 -0.66459,0.29454 -1.44245,0.29454 -1.51042,0 -2.40156,-1.16303 -0.8836,-1.16302 -0.8836,-3.22473 0,-1.0724 0.30209,-1.91068 0.30963,-0.83828 0.83072,-1.42735 0.51355,-0.57395 1.19323,-0.87604 0.68724,-0.30208 1.4198,-0.30208 0.66458,0 1.17812,0.16615 0.51354,0.16614 1.07995,0.46067 v -0.39271 h 1.41979 z m -1.41979,-2.07682 v -4.80313 q -0.57396,-0.25677 -1.02709,-0.37005 -0.45312,-0.12083 -0.98932,-0.12083 -1.19323,0 -1.85781,0.83073 -0.66458,0.83073 -0.66458,2.35625 0,1.50286 0.51354,2.28828 0.51354,0.77786 1.64635,0.77786 0.60417,0 1.22344,-0.26432 0.61927,-0.27188 1.15547,-0.69479 z"
     style="font-style:normal;font-variant:normal;font-weight:normal;font-stretch:normal;font-size:15.46666718px;font-family:KonsensMedium;-inkscape-font-specification:'KonsensMedium, Normal';font-variant-ligatures:normal;font-variant-caps:normal;font-variant-numeric:normal;font-feature-settings:normal;text-align:center;writing-mode:lr-tb;text-anchor:middle"
     id="path899" /><path
     d="m -229.59298,689.0503 q 0,0.65703 -0.35495,1.29896 -0.35495,0.64193 -0.82318,1.0875 h -1.33672 v -0.10573 q 0.64948,-0.56641 0.93646,-1.02708 0.29453,-0.45313 0.29453,-0.98933 0,-0.40781 -0.22656,-0.70989 -0.22656,-0.29453 -0.56641,-0.29453 h -0.69479 q -0.88359,0 -1.63125,-0.22657 -0.74765,-0.22656 -1.31406,-0.73255 -0.5513,-0.49844 -0.86849,-1.28385 -0.30964,-0.78542 -0.30964,-1.88802 0,-2.03907 1.17058,-3.2625 1.17812,-1.22344 3.13411,-1.22344 0.63438,0 1.23854,0.14349 0.60417,0.13594 1.11016,0.33984 v 1.59349 h -0.0906 q -0.7099,-0.46823 -1.30651,-0.65703 -0.58907,-0.1888 -1.10261,-0.1888 -1.25364,0 -1.97109,0.8987 -0.7099,0.8987 -0.7099,2.35625 0,0.84583 0.21146,1.38203 0.21901,0.5362 0.59661,0.87604 0.37761,0.33229 0.86094,0.48333 0.49089,0.14349 1.05729,0.14349 h 0.75521 q 0.86849,0 1.40469,0.58151 0.5362,0.57396 0.5362,1.40469 z"
     style="font-style:normal;font-variant:normal;font-weight:normal;font-stretch:normal;font-size:15.46666718px;font-family:KonsensMedium;-inkscape-font-specification:'KonsensMedium, Normal';font-variant-ligatures:normal;font-variant-caps:normal;font-variant-numeric:normal;font-feature-settings:normal;text-align:center;writing-mode:lr-tb;text-anchor:middle"
     id="path901" /></g>
</svg>