<?xml version="1.0" encoding="UTF-8" standalone="no"?>
<!-- Generator: Adobe Illustrator 19.1.0, SVG Export Plug-In . SVG Version: 6.00 Build 0)  -->

<svg
   xmlns:dc="http://purl.org/dc/elements/1.1/"
   xmlns:cc="http://creativecommons.org/ns#"
   xmlns:rdf="http://www.w3.org/1999/02/22-rdf-syntax-ns#"
   xmlns:svg="http://www.w3.org/2000/svg"
   xmlns="http://www.w3.org/2000/svg"
   xmlns:sodipodi="http://sodipodi.sourceforge.net/DTD/sodipodi-0.dtd"
   xmlns:inkscape="http://www.inkscape.org/namespaces/inkscape"
   version="1.1"
   id="Calque_1"
   x="0px"
   y="0px"
   viewBox="-33.6 228.6 138.2 138.2"
   xml:space="preserve"
   sodipodi:docname="main_menu_logo_map-pt.svg"
   inkscape:version="0.92.4 (5da689c313, 2019-01-14)"
   width="138.2"
   height="138.2"><metadata
     id="metadata105"><rdf:RDF><cc:Work
         rdf:about=""><dc:format>image/svg+xml</dc:format><dc:type
           rdf:resource="http://purl.org/dc/dcmitype/StillImage" /><dc:title /></cc:Work></rdf:RDF></metadata><defs
     id="defs103" /><sodipodi:namedview
     pagecolor="#ffffff"
     bordercolor="#666666"
     borderopacity="1"
     objecttolerance="10"
     gridtolerance="10"
     guidetolerance="10"
     inkscape:pageopacity="0"
     inkscape:pageshadow="2"
     inkscape:window-width="2400"
     inkscape:window-height="1271"
     id="namedview101"
     showgrid="false"
     inkscape:zoom="4"
     inkscape:cx="-92.89945"
     inkscape:cy="43.725374"
     inkscape:window-x="2391"
     inkscape:window-y="-9"
     inkscape:window-maximized="1"
     inkscape:current-layer="g96"
     fit-margin-top="0"
     fit-margin-left="0"
     fit-margin-right="0"
     fit-margin-bottom="0" /><style
     type="text/css"
     id="style2">
	.st0{fill:#D3D501;}
	.st1{fill:#FFFFFF;}
	.st2{fill:#7A9C2B;}
	.st3{fill:#E8E493;}
	.st4{fill:#40637D;}
	.st5{fill:#5E9EB5;}
	.st6{fill:#D0A82B;}
	.st7{fill:#559973;}
	.st8{fill:#00662C;}
</style><g
     id="g36"
     transform="translate(-0.20000144,-0.39997711)"><g
       id="g30"><path
         class="st1"
         d="m 24.1,315.9 c 0,0.4 0.2,0.8 0.6,1 0.4,0.2 0.8,0.2 1.2,-0.1 l 7.7,-5.3 -9.5,-4.5 z"
         id="path28"
         inkscape:connector-curvature="0"
         style="fill:#ffffff" /></g><g
       id="g34"><path
         class="st1"
         d="m 70,256.5 c -0.2,-0.2 -0.5,-0.3 -0.8,-0.3 -0.2,0 -0.3,0 -0.5,0.1 L 2.1,289 c -0.7,0.3 -1.1,1 -1.1,1.8 0,0.8 0.4,1.5 1.1,1.8 L 19.7,301 54.8,272.1 24,303 45.9,313.4 c 0.3,0.1 0.6,0.2 0.9,0.2 0.2,0 0.5,0 0.7,-0.1 0.5,-0.2 0.9,-0.6 1.1,-1.1 l 21.7,-54.6 c 0.2,-0.5 0.1,-1 -0.3,-1.3"
         id="path32"
         inkscape:connector-curvature="0"
         style="fill:#ffffff" /></g></g><circle
     class="st5"
     cx="35.5"
     cy="297.70001"
     r="69.099998"
     id="circle38"
     style="fill:#5e9eb5" /><g
     id="g54"
     transform="translate(2.0902517,-0.39997711)"><path
       class="st1"
       d="M 30.5,268.5 H 10.7 c -0.8,0 -1.5,0.5 -1.7,1.3 l -3.8,13.1 26.6,2.9 2.1,-10 c -1.3,-2.3 -2.5,-4.8 -3.4,-7.3 z"
       id="path40"
       inkscape:connector-curvature="0"
       style="fill:#ffffff" /><path
       class="st1"
       d="m 55.4,288.4 8,0.9 L 61,281 c -0.3,0.5 -0.6,0.9 -1,1.4 -1.6,2.3 -3.2,4.3 -4.6,6 z"
       id="path42"
       inkscape:connector-curvature="0"
       style="fill:#ffffff" /><g
       id="g52"><path
         class="st1"
         d="m 38,282.3 -0.9,4.1 4.3,0.5 c -1,-1.4 -2.1,-2.9 -3.4,-4.6 0.1,0.1 0.1,0 0,0 z"
         id="path44"
         inkscape:connector-curvature="0"
         style="fill:#ffffff" /><path
         class="st1"
         d="m 0.1,300.6 c -0.2,0.5 0,1.1 0.3,1.6 0.3,0.4 0.9,0.7 1.4,0.7 h 26.4 l 2.5,-11.8 -27,-3 z"
         id="path46"
         inkscape:connector-curvature="0"
         style="fill:#ffffff" /><path
         class="st1"
         d="m 65,294.8 -28.9,-3.2 -2.3,11.2 H 65 c 1,0 1.8,-0.8 1.8,-1.8 0,-0.2 0,-0.4 -0.1,-0.6 z"
         id="path48"
         inkscape:connector-curvature="0"
         style="fill:#ffffff" /><path
         class="st1"
         d="m 48.3,290.7 c 0.2,0.2 0.5,0.3 0.7,0.3 0.3,0 0.5,-0.1 0.7,-0.3 1.6,-1.7 4.8,-5.3 8,-9.8 4,-5.7 8.9,-14.1 8.9,-21.5 0,-9.7 -7.9,-17.7 -17.7,-17.7 -9.7,0 -17.7,7.9 -17.7,17.7 0,7.5 4.8,15.8 8.9,21.5 3.4,4.5 6.6,8 8.2,9.8 z m 0.8,-42.4 c 5.9,0 10.8,4.8 10.8,10.8 0,5.9 -4.8,10.8 -10.8,10.8 -5.9,0 -10.8,-4.8 -10.8,-10.8 0,-6 4.8,-10.8 10.8,-10.8 z"
         id="path50"
         inkscape:connector-curvature="0"
         style="fill:#ffffff" /></g></g><g
     id="g98"
     transform="translate(18.292845,-14.399977)"><g
       id="g96"><g
   aria-label="Mapa de 
observações"
   style="font-style:normal;font-variant:normal;font-weight:normal;font-stretch:normal;font-size:15.46666718px;line-height:1.25;font-family:KonsensMedium;-inkscape-font-specification:'KonsensMedium, Normal';font-variant-ligatures:normal;font-variant-caps:normal;font-variant-numeric:normal;font-feature-settings:normal;text-align:center;letter-spacing:0px;word-spacing:0px;writing-mode:lr-tb;text-anchor:middle;fill:#ffffff;fill-opacity:1;stroke:none"
   id="text6172"><path
     d="m -2.1644545,344.09995 h -1.6085334 v -9.29547 l -3.0005335,9.29547 h -1.6704 l -2.9696006,-9.28001 v 9.28001 h -1.593066 l 0.01547,-11.50721 h 2.552001 l 2.8613329,9.29547 2.9077335,-9.29547 h 2.5056001 z"
     style=""
     id="path834" /><path
     d="m 5.3441294,341.70261 v -1.03627 H 2.9158626 q -1.5466667,0 -1.5466667,1.17547 0,0.47947 0.2784,0.75787 0.2784,0.26293 0.7888,0.26293 0.7578667,0 1.5776001,-0.44853 z m 1.5466667,2.39734 H 5.3441294 v -1.05174 l -0.8970667,0.49494 q -1.2064001,0.6496 -2.2736001,0.6496 -1.0672,0 -1.73226673,-0.63414 -0.64960002,-0.63413 -0.64960002,-1.65493 0,-1.19094 0.81973336,-1.82507 0.83519999,-0.63413 2.13440009,-0.63413 H 5.359596 v -0.5104 q 0,-1.77867 -1.8714667,-1.77867 -1.9797334,0 -1.9797334,1.59307 h -1.53120004 v -0.0773 q 0,-1.33013 0.95893336,-2.088 0.97440008,-0.75786 2.53653338,-0.75786 1.6085334,0 2.5056001,0.80426 0.9125334,0.7888 0.9125334,2.2272 z"
     style=""
     id="path836" /><path
     d="m 14.644429,341.25408 v -2.4592 q 0,-0.68054 -0.386666,-1.08267 -0.386667,-0.4176 -1.036267,-0.4176 -0.6496,0 -1.283734,0.35573 l -1.4384,0.80427 v 3.13973 l 1.4384,0.80427 q 0.634134,0.35574 1.283734,0.35574 0.6496,0 1.036267,-0.40214 0.386666,-0.4176 0.386666,-1.09813 z m -4.145067,5.69173 H 8.9681624 v -10.98133 h 1.5157336 v 0.98986 l 1.005333,-0.5568 q 0.928,-0.52586 1.933334,-0.52586 1.221866,0 1.979733,0.75786 0.773333,0.75787 0.773333,1.97974 v 2.784 q 0,1.22187 -0.773333,2.01067 -0.773333,0.77333 -1.9952,0.77333 -0.989867,0 -1.917867,-0.52587 l -0.989867,-0.5568 z"
     style=""
     id="path838" /><path
     d="m 23.408712,341.70261 v -1.03627 h -2.428267 q -1.546666,0 -1.546666,1.17547 0,0.47947 0.2784,0.75787 0.2784,0.26293 0.7888,0.26293 0.757866,0 1.5776,-0.44853 z m 1.546667,2.39734 h -1.546667 v -1.05174 l -0.897067,0.49494 q -1.2064,0.6496 -2.2736,0.6496 -1.0672,0 -1.732266,-0.63414 -0.6496,-0.63413 -0.6496,-1.65493 0,-1.19094 0.819733,-1.82507 0.8352,-0.63413 2.1344,-0.63413 h 2.613867 v -0.5104 q 0,-1.77867 -1.871467,-1.77867 -1.979733,0 -1.979733,1.59307 h -1.5312 v -0.0773 q 0,-1.33013 0.958933,-2.088 0.9744,-0.75786 2.536533,-0.75786 1.608534,0 2.505601,0.80426 0.912533,0.7888 0.912533,2.2272 z"
     style=""
     id="path840" /><path
     d="m 36.97878,341.62528 v -3.13974 l -1.453867,-0.81973 q -0.634133,-0.34027 -1.268266,-0.34027 -0.6496,0 -1.051734,0.4176 -0.386666,0.40214 -0.386666,1.08267 v 2.4592 q 0,0.68053 0.386666,1.09814 0.402134,0.40213 1.051734,0.40213 0.618666,0 1.268266,-0.35573 z m 1.5312,2.47467 h -1.515733 v -0.9744 l -1.0208,0.5568 q -0.943467,0.52586 -1.933334,0.52586 -1.221866,0 -1.9952,-0.75786 -0.757866,-0.75787 -0.757866,-1.97974 v -2.784 q 0,-1.22187 0.7888,-2.01067 0.7888,-0.7888 2.010666,-0.7888 0.943467,0 1.886934,0.52587 l 1.005333,0.5568 v -4.37707 h 1.5312 z"
     style=""
     id="path842" /><path
     d="m 47.552665,341.51701 v 0.0773 q 0,1.19094 -0.943467,1.91787 -0.943466,0.72694 -2.521066,0.72694 -1.5776,0 -2.567467,-0.81974 -0.989867,-0.8352 -0.989867,-2.2736 v -1.9488 q 0,-1.51573 0.989867,-2.42827 0.989867,-0.91253 2.552,-0.91253 1.562133,0 2.536533,0.91253 0.9744,0.89707 0.9744,2.44374 v 1.37653 h -5.552533 v 0.464 q 0,0.91253 0.5568,1.392 0.572267,0.464 1.500267,0.464 1.964266,0 1.964266,-1.392 z m -1.453867,-2.088 v -0.24747 q 0,-0.95893 -0.541333,-1.46933 -0.525867,-0.52587 -1.4848,-0.52587 -0.958933,0 -1.500267,0.52587 -0.541333,0.52587 -0.541333,1.4848 v 0.232 z"
     style=""
     id="path844" /><path
     d="m -22.681955,360.10795 v -1.4384 q 0,-0.98987 -0.587734,-1.54667 -0.572266,-0.5568 -1.515733,-0.5568 -0.958933,0 -1.5312,0.5568 -0.572267,0.5568 -0.572267,1.54667 v 1.4384 q 0,0.98986 0.572267,1.56213 0.572267,0.5568 1.5312,0.5568 0.943467,0 1.515733,-0.5568 0.587734,-0.5568 0.587734,-1.56213 z m 1.515733,-1.5776 v 1.73226 q 0,1.51574 -1.0208,2.42827 -1.005333,0.91253 -2.5984,0.91253 -1.593067,0 -2.613867,-0.91253 -1.005333,-0.91253 -1.005333,-2.42827 v -1.73226 q 0,-1.51574 1.005333,-2.42827 1.0208,-0.91253 2.613867,-0.91253 1.593067,0 2.5984,0.91253 1.0208,0.91253 1.0208,2.42827 z"
     style=""
     id="path846" /><path
     d="m -13.47953,360.61835 v -2.4592 q 0,-0.68054 -0.386666,-1.08267 -0.386667,-0.4176 -1.036267,-0.4176 -0.634133,0 -1.283733,0.34027 l -1.4384,0.81973 v 3.13973 l 1.4384,0.80427 q 0.680533,0.35573 1.283733,0.35573 0.6496,0 1.036267,-0.40213 0.386666,-0.4176 0.386666,-1.09813 z m -3.1552,2.39733 -1.005333,-0.54133 v 0.95893 h -1.515733 v -11.5072 h 1.5312 v 4.37707 l 0.989866,-0.5568 q 0.9744,-0.52587 1.933334,-0.52587 1.221866,0 1.979733,0.77333 0.773334,0.75787 0.773334,1.9952 v 2.784 q 0,1.2064 -0.773334,1.9952 -0.773333,0.77334 -2.010667,0.77334 -0.928,0 -1.9024,-0.52587 z"
     style=""
     id="path848" /><path
     d="m -3.4160456,357.89621 h -1.5466667 q 0,-1.392 -1.8250667,-1.392 -0.8661334,0 -1.3301334,0.30934 -0.4485333,0.30933 -0.4485333,0.81973 0,0.47947 0.3866666,0.7424 0.3866667,0.26293 0.9589334,0.3248 0.5722667,0.0619 1.2373334,0.1856 0.6805333,0.12373 1.2528,0.29387 0.5722667,0.15466 0.9589334,0.63413 0.3866667,0.47947 0.3866667,1.2528 0,1.14453 -0.9125334,1.82507 -0.9125334,0.66506 -2.5056001,0.66506 -1.6085334,0 -2.5365334,-0.72693 -0.9125329,-0.72693 -0.9125329,-1.91787 v -0.0773 h 1.5930662 q 0,1.40747 1.8869334,1.40747 0.8970667,0 1.3765334,-0.29387 0.4949334,-0.30933 0.4949334,-0.81973 0,-0.5104 -0.5413334,-0.7424 -0.5258667,-0.232 -1.2837334,-0.3248 -0.7578666,-0.0928 -1.5312,-0.24747 -0.7578667,-0.15467 -1.2992,-0.68053 -0.5258666,-0.54134 -0.5258666,-1.46934 0,-1.14453 0.8815999,-1.8096 0.8970667,-0.66506 2.4437334,-0.66506 1.5930667,0 2.4592001,0.72693 0.8816,0.71147 0.8816,1.91787 z"
     style=""
     id="path850" /><path
     d="m 5.3214131,360.85035 v 0.0773 q 0,1.19093 -0.9434667,1.91787 -0.9434666,0.72693 -2.5210667,0.72693 -1.57760005,0 -2.56746675,-0.81973 -0.98986675,-0.8352 -0.98986675,-2.2736 v -1.9488 q 0,-1.51574 0.98986675,-2.42827 0.9898667,-0.91253 2.55200005,-0.91253 1.5621334,0 2.5365334,0.91253 0.9744001,0.89707 0.9744001,2.44373 v 1.37654 h -5.55253354 v 0.464 q 0,0.91253 0.55680002,1.392 0.57226669,0.464 1.50026672,0.464 1.9642667,0 1.9642667,-1.392 z m -1.4538667,-2.088 v -0.24747 q 0,-0.95893 -0.5413333,-1.46933 -0.5258667,-0.52587 -1.4848001,-0.52587 -0.95893333,0 -1.50026668,0.52587 -0.54133336,0.52586 -0.54133336,1.4848 v 0.232 z"
     style=""
     id="path852" /><path
     d="m 8.9447214,363.43328 h -1.5776 v -8.13547 h 1.5466667 v 1.23734 l 0.3712,-0.3712 q 0.9743999,-0.89707 2.1189339,-0.89707 h 0.4176 v 1.60853 h -0.402134 q -1.051733,0 -1.7941332,0.61867 l -0.6805334,0.5568 z"
     style=""
     id="path854" /><path
     d="m 16.987387,363.43328 h -1.7632 l -2.907733,-8.13547 h 1.7168 l 2.103467,6.3568 2.1344,-6.3568 h 1.624 z"
     style=""
     id="path856" /><path
     d="m 26.154044,361.03595 v -1.03627 h -2.428267 q -1.546667,0 -1.546667,1.17547 0,0.47946 0.2784,0.75786 0.2784,0.26294 0.7888,0.26294 0.757867,0 1.5776,-0.44854 z m 1.546666,2.39733 h -1.546666 v -1.05173 l -0.897067,0.49493 q -1.2064,0.6496 -2.2736,0.6496 -1.0672,0 -1.732267,-0.63413 -0.6496,-0.63414 -0.6496,-1.65494 0,-1.19093 0.819734,-1.82506 0.8352,-0.63414 2.1344,-0.63414 h 2.613866 v -0.5104 q 0,-1.77866 -1.871466,-1.77866 -1.979734,0 -1.979734,1.59306 h -1.5312 v -0.0773 q 0,-1.33013 0.958934,-2.088 0.9744,-0.75787 2.536533,-0.75787 1.608533,0 2.5056,0.80427 0.912533,0.7888 0.912533,2.2272 z"
     style=""
     id="path858" /><path
     d="m 32.627573,364.68608 h -0.696 l 0.634134,-1.12907 q -1.376534,-0.10826 -2.196267,-0.94346 -0.804267,-0.8352 -0.804267,-2.21174 v -2.05706 q 0,-1.46934 0.928,-2.30454 0.943467,-0.85066 2.490134,-0.85066 1.593066,0 2.521066,0.7888 0.928,0.77333 0.928,2.2272 v 0.12373 H 34.91664 q 0,-1.7632 -1.933333,-1.7632 -1.871467,0 -1.871467,1.91787 v 1.77866 q 0,1.91787 1.871467,1.91787 1.933333,0 1.933333,-1.7632 h 1.515733 v 0.12373 q 0,1.31467 -0.773333,2.10347 -0.773333,0.77333 -2.118933,0.89707 l -0.309334,0.52586 q 0.572267,0 0.912534,0.2784 0.340266,0.2784 0.340266,0.77334 0,0.57226 -0.433066,0.928 -0.4176,0.3712 -1.2064,0.3712 -0.773334,0 -1.2064,-0.3248 -0.4176,-0.3248 -0.4176,-0.86614 v -0.0309 h 1.0208 q 0,0.38667 0.6032,0.38667 0.6032,0 0.6032,-0.464 0,-0.43307 -0.819734,-0.43307 z"
     style=""
     id="path860" /><path
     d="m 43.897215,360.10795 v -1.4384 q 0,-0.98987 -0.587733,-1.54667 -0.572267,-0.5568 -1.515734,-0.5568 -0.958933,0 -1.5312,0.5568 -0.572266,0.5568 -0.572266,1.54667 v 1.4384 q 0,0.98986 0.572266,1.56213 0.572267,0.5568 1.5312,0.5568 0.943467,0 1.515734,-0.5568 0.587733,-0.5568 0.587733,-1.56213 z m 1.515733,-1.5776 v 1.73226 q 0,1.51574 -1.0208,2.42827 -1.005333,0.91253 -2.5984,0.91253 -1.593066,0 -2.613866,-0.91253 -1.005334,-0.91253 -1.005334,-2.42827 v -1.73226 q 0,-1.51574 1.005334,-2.42827 1.0208,-0.91253 2.613866,-0.91253 1.593067,0 2.5984,0.91253 1.0208,0.91253 1.0208,2.42827 z m -0.433066,-6.60427 v 0.0928 q 0,0.89707 -0.494934,1.4848 -0.494933,0.58773 -1.361066,0.58773 -0.4176,0 -0.7888,-0.15466 -0.355734,-0.15467 -0.5568,-0.34027 -0.201067,-0.20107 -0.464,-0.35573 -0.247467,-0.15467 -0.479467,-0.15467 -0.309333,0 -0.494933,0.26293 -0.170134,0.24747 -0.170134,0.696 h -1.330133 v -0.0928 q 0,-0.91253 0.494933,-1.4848 0.494934,-0.58773 1.361067,-0.58773 0.541333,0 0.958933,0.26293 0.4176,0.24747 0.726934,0.49494 0.309333,0.24746 0.618666,0.24746 0.665067,0 0.665067,-0.95893 z"
     style=""
     id="path862" /><path
     d="m 54.22871,360.85035 v 0.0773 q 0,1.19093 -0.943466,1.91787 -0.943467,0.72693 -2.521067,0.72693 -1.5776,0 -2.567467,-0.81973 -0.989867,-0.8352 -0.989867,-2.2736 v -1.9488 q 0,-1.51574 0.989867,-2.42827 0.989867,-0.91253 2.552,-0.91253 1.562134,0 2.536534,0.91253 0.9744,0.89707 0.9744,2.44373 v 1.37654 H 48.70711 v 0.464 q 0,0.91253 0.5568,1.392 0.572267,0.464 1.500267,0.464 1.964267,0 1.964267,-1.392 z m -1.453866,-2.088 v -0.24747 q 0,-0.95893 -0.541334,-1.46933 -0.525866,-0.52587 -1.4848,-0.52587 -0.958933,0 -1.500267,0.52587 -0.541333,0.52586 -0.541333,1.4848 v 0.232 z"
     style=""
     id="path864" /><path
     d="m 62.770413,357.89621 h -1.546667 q 0,-1.392 -1.825066,-1.392 -0.866134,0 -1.330134,0.30934 -0.448533,0.30933 -0.448533,0.81973 0,0.47947 0.386667,0.7424 0.386666,0.26293 0.958933,0.3248 0.572267,0.0619 1.237333,0.1856 0.680534,0.12373 1.2528,0.29387 0.572267,0.15466 0.958934,0.63413 0.386666,0.47947 0.386666,1.2528 0,1.14453 -0.912533,1.82507 -0.912533,0.66506 -2.5056,0.66506 -1.608533,0 -2.536534,-0.72693 -0.912533,-0.72693 -0.912533,-1.91787 v -0.0773 h 1.593067 q 0,1.40747 1.886933,1.40747 0.897067,0 1.376534,-0.29387 0.494933,-0.30933 0.494933,-0.81973 0,-0.5104 -0.541333,-0.7424 -0.525867,-0.232 -1.283734,-0.3248 -0.757866,-0.0928 -1.5312,-0.24747 -0.757867,-0.15467 -1.2992,-0.68053 -0.525867,-0.54134 -0.525867,-1.46934 0,-1.14453 0.8816,-1.8096 0.897067,-0.66506 2.443734,-0.66506 1.593067,0 2.4592,0.72693 0.8816,0.71147 0.8816,1.91787 z"
     style=""
     id="path866" /></g>



</g></g></svg>