<?xml version="1.0" encoding="UTF-8" standalone="no"?>
<!-- Generator: Adobe Illustrator 19.1.0, SVG Export Plug-In . SVG Version: 6.00 Build 0)  -->

<svg
   xmlns:dc="http://purl.org/dc/elements/1.1/"
   xmlns:cc="http://creativecommons.org/ns#"
   xmlns:rdf="http://www.w3.org/1999/02/22-rdf-syntax-ns#"
   xmlns:svg="http://www.w3.org/2000/svg"
   xmlns="http://www.w3.org/2000/svg"
   xmlns:sodipodi="http://sodipodi.sourceforge.net/DTD/sodipodi-0.dtd"
   xmlns:inkscape="http://www.inkscape.org/namespaces/inkscape"
   version="1.1"
   id="Calque_1"
   x="0px"
   y="0px"
   viewBox="-33.6 228.6 138.2 138.2"
   xml:space="preserve"
   sodipodi:docname="main_menu_logo_map-sr.svg"
   inkscape:version="0.92.4 (5da689c313, 2019-01-14)"
   width="138.2"
   height="138.2"><metadata
     id="metadata105"><rdf:RDF><cc:Work
         rdf:about=""><dc:format>image/svg+xml</dc:format><dc:type
           rdf:resource="http://purl.org/dc/dcmitype/StillImage" /><dc:title /></cc:Work></rdf:RDF></metadata><defs
     id="defs103" /><sodipodi:namedview
     pagecolor="#ffffff"
     bordercolor="#666666"
     borderopacity="1"
     objecttolerance="10"
     gridtolerance="10"
     guidetolerance="10"
     inkscape:pageopacity="0"
     inkscape:pageshadow="2"
     inkscape:window-width="2400"
     inkscape:window-height="1271"
     id="namedview101"
     showgrid="false"
     inkscape:zoom="4"
     inkscape:cx="-32.225006"
     inkscape:cy="43.725374"
     inkscape:window-x="2391"
     inkscape:window-y="-9"
     inkscape:window-maximized="1"
     inkscape:current-layer="g96"
     fit-margin-top="0"
     fit-margin-left="0"
     fit-margin-right="0"
     fit-margin-bottom="0" /><style
     type="text/css"
     id="style2">
	.st0{fill:#D3D501;}
	.st1{fill:#FFFFFF;}
	.st2{fill:#7A9C2B;}
	.st3{fill:#E8E493;}
	.st4{fill:#40637D;}
	.st5{fill:#5E9EB5;}
	.st6{fill:#D0A82B;}
	.st7{fill:#559973;}
	.st8{fill:#00662C;}
</style><g
     id="g36"
     transform="translate(-0.20000144,-0.39997711)"><g
       id="g30"><path
         class="st1"
         d="m 24.1,315.9 c 0,0.4 0.2,0.8 0.6,1 0.4,0.2 0.8,0.2 1.2,-0.1 l 7.7,-5.3 -9.5,-4.5 z"
         id="path28"
         inkscape:connector-curvature="0"
         style="fill:#ffffff" /></g><g
       id="g34"><path
         class="st1"
         d="m 70,256.5 c -0.2,-0.2 -0.5,-0.3 -0.8,-0.3 -0.2,0 -0.3,0 -0.5,0.1 L 2.1,289 c -0.7,0.3 -1.1,1 -1.1,1.8 0,0.8 0.4,1.5 1.1,1.8 L 19.7,301 54.8,272.1 24,303 45.9,313.4 c 0.3,0.1 0.6,0.2 0.9,0.2 0.2,0 0.5,0 0.7,-0.1 0.5,-0.2 0.9,-0.6 1.1,-1.1 l 21.7,-54.6 c 0.2,-0.5 0.1,-1 -0.3,-1.3"
         id="path32"
         inkscape:connector-curvature="0"
         style="fill:#ffffff" /></g></g><path
     style="fill:#5e9eb5"
     d="m 104.6,297.70001 a 69.099998,69.099998 0 0 1 -69.1,69.1 69.099998,69.099998 0 0 1 -69.099998,-69.1 69.099998,69.099998 0 0 1 69.099998,-69.1 69.099998,69.099998 0 0 1 69.1,69.1 z"
     id="circle38" /><g
     id="g54"
     transform="translate(2.0902517,-0.39997711)"><path
       class="st1"
       d="M 30.5,268.5 H 10.7 c -0.8,0 -1.5,0.5 -1.7,1.3 l -3.8,13.1 26.6,2.9 2.1,-10 c -1.3,-2.3 -2.5,-4.8 -3.4,-7.3 z"
       id="path40"
       inkscape:connector-curvature="0"
       style="fill:#ffffff" /><path
       class="st1"
       d="m 55.4,288.4 8,0.9 L 61,281 c -0.3,0.5 -0.6,0.9 -1,1.4 -1.6,2.3 -3.2,4.3 -4.6,6 z"
       id="path42"
       inkscape:connector-curvature="0"
       style="fill:#ffffff" /><g
       id="g52"><path
         class="st1"
         d="m 38,282.3 -0.9,4.1 4.3,0.5 c -1,-1.4 -2.1,-2.9 -3.4,-4.6 0.1,0.1 0.1,0 0,0 z"
         id="path44"
         inkscape:connector-curvature="0"
         style="fill:#ffffff" /><path
         class="st1"
         d="m 0.1,300.6 c -0.2,0.5 0,1.1 0.3,1.6 0.3,0.4 0.9,0.7 1.4,0.7 h 26.4 l 2.5,-11.8 -27,-3 z"
         id="path46"
         inkscape:connector-curvature="0"
         style="fill:#ffffff" /><path
         class="st1"
         d="m 65,294.8 -28.9,-3.2 -2.3,11.2 H 65 c 1,0 1.8,-0.8 1.8,-1.8 0,-0.2 0,-0.4 -0.1,-0.6 z"
         id="path48"
         inkscape:connector-curvature="0"
         style="fill:#ffffff" /><path
         class="st1"
         d="m 48.3,290.7 c 0.2,0.2 0.5,0.3 0.7,0.3 0.3,0 0.5,-0.1 0.7,-0.3 1.6,-1.7 4.8,-5.3 8,-9.8 4,-5.7 8.9,-14.1 8.9,-21.5 0,-9.7 -7.9,-17.7 -17.7,-17.7 -9.7,0 -17.7,7.9 -17.7,17.7 0,7.5 4.8,15.8 8.9,21.5 3.4,4.5 6.6,8 8.2,9.8 z m 0.8,-42.4 c 5.9,0 10.8,4.8 10.8,10.8 0,5.9 -4.8,10.8 -10.8,10.8 -5.9,0 -10.8,-4.8 -10.8,-10.8 0,-6 4.8,-10.8 10.8,-10.8 z"
         id="path50"
         inkscape:connector-curvature="0"
         style="fill:#ffffff" /></g></g><g
     id="g98"
     transform="translate(18.292845,-14.399977)"><g
       id="g96"><g
   aria-label="Карта 
приказивања"
   style="font-style:normal;font-variant:normal;font-weight:normal;font-stretch:normal;font-size:15.46666718px;line-height:1.25;font-family:KonsensMedium;-inkscape-font-specification:'KonsensMedium, Normal';font-variant-ligatures:normal;font-variant-caps:normal;font-variant-numeric:normal;font-feature-settings:normal;text-align:center;letter-spacing:0px;word-spacing:0px;writing-mode:lr-tb;text-anchor:middle;fill:#ffffff;fill-opacity:1;stroke:none"
   id="text6172"><path
     d="M 4.3730519,344.09995 H 2.4548227 l -4.5690106,-5.12787 h -1.0195313 v 5.12787 h -1.4953125 v -11.24506 h 1.4953125 v 5.04479 q 0.3851563,-0.008 0.7250001,-0.0755 0.3398437,-0.068 0.6419271,-0.25677 0.3020833,-0.1737 0.5966146,-0.49088 0.29453123,-0.32474 0.52109374,-0.79297 0.0981771,-0.20391 0.22656251,-0.51354 0.1359375,-0.30964 0.27187501,-0.64948 0.52109376,-1.25365 1.21588544,-1.75964 0.7023438,-0.50599 2.0617188,-0.50599 h 0.5966146 v 1.33672 H 3.0967498 q -0.5210938,0 -0.815625,0.0982 -0.2945313,0.0906 -0.5286459,0.30963 -0.2190104,0.19636 -0.3851562,0.52865 -0.1585938,0.33229 -0.3322917,0.77786 -0.39270837,0.99688 -0.80052088,1.46511 -0.40026043,0.46823 -1.07994795,0.81562 z"
     style=""
     id="path834" /><path
     d="m 12.499094,344.09995 h -1.412239 v -0.8987 q -0.188803,0.12838 -0.513542,0.3625 -0.317188,0.22656 -0.619271,0.3625 -0.354948,0.1737 -0.8156251,0.28698 -0.4606771,0.12083 -1.0799479,0.12083 -1.1403646,0 -1.9333334,-0.75521 -0.7929688,-0.75521 -0.7929688,-1.92578 0,-0.95911 0.4078125,-1.54818 0.4153646,-0.59661 1.1781251,-0.93646 0.7703125,-0.33984 1.8502605,-0.46067 1.0799479,-0.12084 2.3184901,-0.18125 v -0.21901 q 0,-0.48334 -0.173698,-0.80052 -0.166146,-0.31719 -0.483334,-0.49844 -0.302083,-0.1737 -0.7249998,-0.23412 -0.4229167,-0.0604 -0.8835938,-0.0604 -0.5588541,0 -1.2460938,0.15104 -0.6872396,0.14349 -1.4197917,0.42292 h -0.075521 v -1.44245 q 0.4153646,-0.11328 1.2007813,-0.24922 0.7854167,-0.13594 1.5481771,-0.13594 0.8911459,0 1.5481775,0.15104 0.664583,0.14349 1.147916,0.49844 0.475782,0.3474 0.725,0.8987 0.249219,0.5513 0.249219,1.36693 z m -1.412239,-2.07683 v -2.3487 q -0.64948,0.0378 -1.5330735,0.11329 -0.8760417,0.0755 -1.3895833,0.21901 -0.6117188,0.17369 -0.989323,0.54375 -0.3776042,0.3625 -0.3776042,1.00442 0,0.725 0.4380209,1.09506 0.4380208,0.3625 1.3367188,0.3625 0.7476563,0 1.3669271,-0.28698 0.6192712,-0.29454 1.1479172,-0.70235 z"
     style=""
     id="path836" /><path
     d="m 22.671751,339.78015 q 0,1.02709 -0.294532,1.88047 -0.294531,0.84584 -0.830729,1.4349 -0.498437,0.55885 -1.178125,0.86849 -0.672135,0.30208 -1.427344,0.30208 -0.657031,0 -1.193229,-0.14349 -0.528646,-0.14349 -1.079948,-0.44557 v 3.53437 h -1.419792 v -11.54713 h 1.419792 v 0.88359 q 0.566406,-0.47578 1.26875,-0.79297 0.709896,-0.32474 1.510417,-0.32474 1.525521,0 2.371354,1.15547 0.853386,1.14792 0.853386,3.19453 z m -1.465105,0.0378 q 0,-1.52552 -0.521093,-2.28073 -0.521094,-0.7552 -1.601042,-0.7552 -0.611719,0 -1.23099,0.26432 -0.619271,0.26432 -1.185677,0.69479 v 4.78047 q 0.604167,0.27187 1.034636,0.37005 0.43802,0.0982 0.989322,0.0982 1.185678,0 1.850261,-0.80052 0.664583,-0.80052 0.664583,-2.37136 z"
     style=""
     id="path838" /><path
     d="m 31.084772,336.91036 h -3.051041 v 7.18959 h -1.419792 v -7.18959 h -3.051042 v -1.24609 h 7.521875 z"
     style=""
     id="path840" /><path
     d="m 39.112637,344.09995 h -1.41224 v -0.8987 q -0.188802,0.12838 -0.513542,0.3625 -0.317187,0.22656 -0.61927,0.3625 -0.354948,0.1737 -0.815625,0.28698 -0.460678,0.12083 -1.079948,0.12083 -1.140365,0 -1.933334,-0.75521 -0.792969,-0.75521 -0.792969,-1.92578 0,-0.95911 0.407813,-1.54818 0.415364,-0.59661 1.178125,-0.93646 0.770312,-0.33984 1.85026,-0.46067 1.079948,-0.12084 2.31849,-0.18125 v -0.21901 q 0,-0.48334 -0.173698,-0.80052 -0.166146,-0.31719 -0.483333,-0.49844 -0.302084,-0.1737 -0.725,-0.23412 -0.422917,-0.0604 -0.883594,-0.0604 -0.558854,0 -1.246094,0.15104 -0.687239,0.14349 -1.419792,0.42292 h -0.07552 v -1.44245 q 0.415364,-0.11328 1.200781,-0.24922 0.785417,-0.13594 1.548177,-0.13594 0.891146,0 1.548177,0.15104 0.664584,0.14349 1.147917,0.49844 0.475781,0.3474 0.725,0.8987 0.249219,0.5513 0.249219,1.36693 z m -1.41224,-2.07683 v -2.3487 q -0.649479,0.0378 -1.533073,0.11329 -0.876042,0.0755 -1.389583,0.21901 -0.611719,0.17369 -0.989323,0.54375 -0.377604,0.3625 -0.377604,1.00442 0,0.725 0.43802,1.09506 0.438021,0.3625 1.336719,0.3625 0.747657,0 1.366927,-0.28698 0.619271,-0.29454 1.147917,-0.70235 z"
     style=""
     id="path842" /><path
     d="m -28.319918,363.58284 h -1.419792 v -7.21224 h -4.221614 v 7.21224 h -1.419792 v -8.43568 h 7.061198 z"
     style=""
     id="path844" /><path
     d="m -18.109501,359.26305 q 0,1.02708 -0.294532,1.88046 -0.294531,0.84584 -0.830729,1.4349 -0.498437,0.55885 -1.178125,0.86849 -0.672135,0.30208 -1.427344,0.30208 -0.657031,0 -1.193229,-0.14349 -0.528646,-0.14349 -1.079948,-0.44557 v 3.53438 h -1.419791 v -11.54714 h 1.419791 v 0.88359 q 0.566407,-0.47578 1.26875,-0.79297 0.709896,-0.32474 1.510417,-0.32474 1.525521,0 2.371354,1.15547 0.853386,1.14792 0.853386,3.19454 z m -1.465105,0.0378 q 0,-1.52553 -0.521093,-2.28073 -0.521094,-0.75521 -1.601042,-0.75521 -0.611719,0 -1.23099,0.26432 -0.61927,0.26432 -1.185677,0.69479 v 4.78047 q 0.604167,0.27188 1.034636,0.37005 0.438021,0.0982 0.989323,0.0982 1.185677,0 1.85026,-0.80052 0.664583,-0.80052 0.664583,-2.37135 z"
     style=""
     id="path846" /><path
     d="m -8.7902304,363.58284 h -1.4046876 v -6.3362 l -4.417969,6.3362 h -1.283854 v -8.43568 h 1.404687 v 6.24557 l 4.372657,-6.24557 h 1.3291666 z"
     style=""
     id="path848" /><path
     d="m 1.624092,363.58284 h -1.85781254 l -3.50416676,-3.86667 h -0.7703125 v 3.86667 h -1.4197918 v -8.43568 h 1.4197918 v 3.6401 q 0.7023437,0 1.1328125,-0.24922 0.4304688,-0.25677 0.7325521,-0.81562 0.1057292,-0.20391 0.2039063,-0.43047 0.1057291,-0.23411 0.2039062,-0.44557 0.3927084,-0.85339 0.9817709,-1.2763 0.5890625,-0.42292 1.6916667,-0.42292 h 0.6494792 v 1.22344 H 0.46107115 q -0.5966146,0 -0.93645836,0.25677 -0.33229168,0.24922 -0.60416669,0.88359 -0.3020833,0.7099 -0.6419271,1.06485 -0.3322917,0.34739 -0.7098959,0.52864 z"
     style=""
     id="path850" /><path
     d="M 9.7199261,363.58284 H 8.3076865 v -0.8987 q -0.1888021,0.12838 -0.5135417,0.3625 -0.3171875,0.22656 -0.6192709,0.3625 -0.3549479,0.1737 -0.815625,0.28698 -0.4606771,0.12083 -1.079948,0.12083 -1.1403646,0 -1.9333334,-0.75521 -0.7929687,-0.75521 -0.7929687,-1.92578 0,-0.95911 0.4078125,-1.54818 0.4153646,-0.59661 1.178125,-0.93645 0.7703125,-0.33985 1.8502605,-0.46068 1.0799479,-0.12083 2.3184897,-0.18125 v -0.21901 q 0,-0.48333 -0.173698,-0.80052 -0.1661458,-0.31719 -0.4833333,-0.49844 -0.3020834,-0.1737 -0.725,-0.23411 -0.4229167,-0.0604 -0.8835938,-0.0604 -0.5588542,0 -1.2460938,0.15104 -0.6872396,0.14349 -1.4197917,0.42292 H 3.300655 v -1.44245 q 0.4153646,-0.11328 1.2007813,-0.24922 0.7854167,-0.13594 1.5481772,-0.13594 0.8911458,0 1.5481771,0.15104 0.6645834,0.14349 1.1479167,0.49844 0.4757813,0.3474 0.725,0.8987 0.2492188,0.5513 0.2492188,1.36693 z m -1.4122396,-2.07683 v -2.34869 q -0.6494792,0.0378 -1.533073,0.11328 -0.8760417,0.0755 -1.3895834,0.21901 -0.6117188,0.1737 -0.9893229,0.54375 -0.3776042,0.3625 -0.3776042,1.00442 0,0.725 0.4380208,1.09506 0.4380209,0.3625 1.3367188,0.3625 0.7476563,0 1.3669272,-0.28698 0.6192708,-0.29453 1.1479167,-0.70235 z"
     style=""
     id="path852" /><path
     d="m 18.336855,361.21903 q 0,0.7099 -0.332291,1.20079 -0.32474,0.49088 -0.838282,0.79296 -0.513541,0.29454 -1.132812,0.43047 -0.619271,0.13594 -1.238542,0.13594 -0.876042,0 -1.66901,-0.16614 -0.792969,-0.16615 -1.563282,-0.51355 v -1.55573 h 0.09818 q 0.551302,0.48334 1.404688,0.74766 0.853385,0.26432 1.653906,0.26432 0.377604,0 0.777865,-0.068 0.40026,-0.0755 0.694791,-0.23411 0.317188,-0.18125 0.50599,-0.43047 0.188802,-0.25677 0.188802,-0.69479 0,-0.45313 -0.188802,-0.725 -0.18125,-0.27188 -0.498437,-0.40781 -0.309636,-0.13594 -0.747657,-0.16615 -0.438021,-0.0302 -0.800521,-0.0302 h -1.230989 v -1.22343 h 0.853385 q 0.302084,0 0.785417,-0.0227 0.490885,-0.0227 0.792969,-0.12083 0.392708,-0.12839 0.619271,-0.3625 0.234114,-0.23412 0.234114,-0.74766 0,-0.35495 -0.18125,-0.58151 -0.18125,-0.23412 -0.453125,-0.3625 -0.279427,-0.12839 -0.626823,-0.1737 -0.339844,-0.0453 -0.604167,-0.0453 -0.770312,0 -1.517968,0.21146 -0.740105,0.2039 -1.246094,0.59661 h -0.09818 v -1.56328 q 0.626823,-0.20391 1.344271,-0.33229 0.717448,-0.12839 1.434896,-0.12839 0.589062,0 1.170573,0.10573 0.589062,0.10573 1.095052,0.3625 0.498437,0.25677 0.815625,0.70235 0.317187,0.43802 0.317187,1.0875 0,0.66458 -0.415364,1.17057 -0.407813,0.49844 -1.102605,0.71745 v 0.0529 q 0.777865,0.1888 1.238542,0.7099 0.460677,0.51354 0.460677,1.36692 z"
     style=""
     id="path854" /><path
     d="m 27.701438,363.58284 h -1.404687 v -6.3362 l -4.417969,6.3362 h -1.283854 v -8.43568 h 1.404687 v 6.24557 l 4.372657,-6.24557 h 1.329166 z"
     style=""
     id="path856" /><path
     d="m 37.466282,361.03023 q 0,0.61172 -0.249219,1.0875 -0.241667,0.47578 -0.672136,0.79297 -0.483333,0.35495 -1.057291,0.51354 -0.566407,0.1586 -1.495313,0.1586 H 30.50326 v -8.43568 h 3.262501 q 0.94401,0 1.419791,0.068 0.483334,0.0604 0.90625,0.27943 0.475782,0.24921 0.694792,0.64947 0.226563,0.40026 0.226563,0.94401 0,0.62683 -0.354948,1.0875 -0.354948,0.46068 -0.913803,0.71745 v 0.0755 q 0.747657,0.18125 1.23099,0.70235 0.490886,0.51354 0.490886,1.35937 z m -1.910678,-3.72317 q 0,-0.27188 -0.120833,-0.49089 -0.113281,-0.21901 -0.354948,-0.33984 -0.317187,-0.1586 -0.717448,-0.1737 -0.392708,-0.0227 -0.974219,-0.0227 h -1.480208 v 2.31094 h 1.77474 q 0.558854,0 0.823177,-0.0378 0.271875,-0.0453 0.54375,-0.21146 0.286979,-0.18125 0.392708,-0.42292 0.113281,-0.24921 0.113281,-0.61171 z m 0.445573,3.73072 q 0,-0.41536 -0.135937,-0.67213 -0.135938,-0.26432 -0.596615,-0.48333 -0.286979,-0.13594 -0.619271,-0.1586 -0.332291,-0.0302 -0.921354,-0.0302 h -1.820052 v 2.75651 h 1.344271 q 0.845833,0 1.298958,-0.0529 0.460677,-0.0604 0.792969,-0.24922 0.332292,-0.1888 0.490885,-0.46068 0.166146,-0.27187 0.166146,-0.64948 z"
     style=""
     id="path858" /><path
     d="m 46.272008,363.58284 h -1.412239 v -0.8987 q -0.188803,0.12838 -0.513542,0.3625 -0.317188,0.22656 -0.619271,0.3625 -0.354948,0.1737 -0.815625,0.28698 -0.460677,0.12083 -1.079948,0.12083 -1.140365,0 -1.933333,-0.75521 -0.792969,-0.75521 -0.792969,-1.92578 0,-0.95911 0.407812,-1.54818 0.415365,-0.59661 1.178125,-0.93645 0.770313,-0.33985 1.850261,-0.46068 1.079948,-0.12083 2.31849,-0.18125 v -0.21901 q 0,-0.48333 -0.173698,-0.80052 -0.166146,-0.31719 -0.483334,-0.49844 -0.302083,-0.1737 -0.725,-0.23411 -0.422916,-0.0604 -0.883594,-0.0604 -0.558854,0 -1.246093,0.15104 -0.68724,0.14349 -1.419792,0.42292 h -0.07552 v -1.44245 q 0.415365,-0.11328 1.200781,-0.24922 0.785417,-0.13594 1.548178,-0.13594 0.891145,0 1.548177,0.15104 0.664583,0.14349 1.147916,0.49844 0.475782,0.3474 0.725,0.8987 0.249219,0.5513 0.249219,1.36693 z m -1.412239,-2.07683 v -2.34869 q -0.64948,0.0378 -1.533073,0.11328 -0.876042,0.0755 -1.389584,0.21901 -0.611719,0.1737 -0.989323,0.54375 -0.377604,0.3625 -0.377604,1.00442 0,0.725 0.438021,1.09506 0.438021,0.3625 1.336719,0.3625 0.747656,0 1.366927,-0.28698 0.619271,-0.29453 1.147917,-0.70235 z"
     style=""
     id="path860" /><path
     d="m 59.601437,360.99247 q 0,-0.38515 -0.135937,-0.67213 -0.128386,-0.29453 -0.430469,-0.47578 -0.317187,-0.18881 -0.725,-0.22657 -0.40026,-0.0378 -1.155469,-0.0378 h -1.329166 v 2.86979 h 1.298958 q 0.755208,0 1.170573,-0.0604 0.415365,-0.068 0.717448,-0.24922 0.309635,-0.19636 0.445573,-0.46068 0.143489,-0.27187 0.143489,-0.68724 z m 1.465105,-0.0226 q 0,0.61171 -0.249219,1.11015 -0.241667,0.49844 -0.664584,0.80808 -0.498437,0.3776 -1.064843,0.53619 -0.566407,0.1586 -1.457552,0.1586 h -3.22474 v -3.9875 H 50.44076 v 3.9875 h -1.419792 v -8.43568 h 1.419792 v 3.28516 h 3.964844 v -3.28516 h 1.419792 v 3.28516 h 1.842708 q 0.951563,0 1.472656,0.0982 0.528646,0.0982 1.04974,0.48334 0.438021,0.32474 0.657031,0.83073 0.219011,0.50599 0.219011,1.12526 z"
     style=""
     id="path862" /><path
     d="m 69.713681,363.58284 h -1.412239 v -0.8987 q -0.188802,0.12838 -0.513542,0.3625 -0.317187,0.22656 -0.619271,0.3625 -0.354948,0.1737 -0.815625,0.28698 -0.460677,0.12083 -1.079948,0.12083 -1.140364,0 -1.933333,-0.75521 -0.792969,-0.75521 -0.792969,-1.92578 0,-0.95911 0.407813,-1.54818 0.415364,-0.59661 1.178125,-0.93645 0.770312,-0.33985 1.85026,-0.46068 1.079948,-0.12083 2.31849,-0.18125 v -0.21901 q 0,-0.48333 -0.173698,-0.80052 -0.166146,-0.31719 -0.483333,-0.49844 -0.302084,-0.1737 -0.725,-0.23411 -0.422917,-0.0604 -0.883594,-0.0604 -0.558854,0 -1.246094,0.15104 -0.68724,0.14349 -1.419792,0.42292 h -0.07552 v -1.44245 q 0.415365,-0.11328 1.200782,-0.24922 0.785416,-0.13594 1.548177,-0.13594 0.891146,0 1.548177,0.15104 0.664583,0.14349 1.147917,0.49844 0.475781,0.3474 0.725,0.8987 0.249218,0.5513 0.249218,1.36693 z m -1.412239,-2.07683 v -2.34869 q -0.649479,0.0378 -1.533073,0.11328 -0.876042,0.0755 -1.389584,0.21901 -0.611718,0.1737 -0.989322,0.54375 -0.377605,0.3625 -0.377605,1.00442 0,0.725 0.438021,1.09506 0.438021,0.3625 1.336719,0.3625 0.747656,0 1.366927,-0.28698 0.619271,-0.29453 1.147917,-0.70235 z"
     style=""
     id="path864" /></g>




</g></g></svg>