<?xml version="1.0" encoding="UTF-8" standalone="no"?>
<!-- Generator: Adobe Illustrator 19.1.0, SVG Export Plug-In . SVG Version: 6.00 Build 0)  -->

<svg
   xmlns:dc="http://purl.org/dc/elements/1.1/"
   xmlns:cc="http://creativecommons.org/ns#"
   xmlns:rdf="http://www.w3.org/1999/02/22-rdf-syntax-ns#"
   xmlns:svg="http://www.w3.org/2000/svg"
   xmlns="http://www.w3.org/2000/svg"
   xmlns:sodipodi="http://sodipodi.sourceforge.net/DTD/sodipodi-0.dtd"
   xmlns:inkscape="http://www.inkscape.org/namespaces/inkscape"
   version="1.1"
   id="Calque_1"
   x="0px"
   y="0px"
   viewBox="-330 571.3 138.7 138.7"
   style="enable-background:new -330 571.3 138.7 138.7;"
   xml:space="preserve"
   sodipodi:docname="main_menu_logo_species_records-it.svg"
   inkscape:version="0.92.2 5c3e80d, 2017-08-06"><metadata
     id="metadata67"><rdf:RDF><cc:Work
         rdf:about=""><dc:format>image/svg+xml</dc:format><dc:type
           rdf:resource="http://purl.org/dc/dcmitype/StillImage" /><dc:title /></cc:Work></rdf:RDF></metadata><defs
     id="defs65" /><sodipodi:namedview
     pagecolor="#ffffff"
     bordercolor="#666666"
     borderopacity="1"
     objecttolerance="10"
     gridtolerance="10"
     guidetolerance="10"
     inkscape:pageopacity="0"
     inkscape:pageshadow="2"
     inkscape:window-width="2253"
     inkscape:window-height="1307"
     id="namedview63"
     showgrid="false"
     inkscape:zoom="8"
     inkscape:cx="58.176635"
     inkscape:cy="69.349998"
     inkscape:window-x="0"
     inkscape:window-y="1"
     inkscape:window-maximized="0"
     inkscape:current-layer="Calque_1" /><style
     type="text/css"
     id="style2">
	.st0{fill:#D3D501;}
	.st1{fill:#40637D;}
	.st2{fill:#FFFFFF;}
</style><g
     id="g6"><path
       class="st0"
       d="M-330,640.7c0-38.3,31-69.3,69.3-69.3c38.3,0,69.3,31,69.3,69.3s-31,69.3-69.3,69.3   C-299,710-330,679-330,640.7"
       id="path4" /></g><g
     id="g60"><g
       id="g46"><path
         class="st2"
         d="M-249.7,639.4c-0.4,0.6-1.1,1.1-1.9,1.3l-3.7,1c-0.3,0.1-0.6,0.1-0.9,0.1c-0.7,0-1.4-0.2-1.9-0.6    c-0.8-0.6-1.3-1.5-1.4-2.5l-0.3-3.9c-0.1-0.8,0.1-1.6,0.6-2.2l0.1-0.2h-13.4c-1.1,0-2-0.9-2-2c0-1.1,0.9-2,2-2h16.2l3.6-5.2h-19.8    c-1.1,0-2-0.9-2-2c0-1.1,0.9-2,2-2l22.6-0.1l8.5-12.1v-9c0-1.5-1.1-2.7-2.6-2.7h-6.5v5.1c0,2.4-2,4.3-4.4,4.3h-13    c-2.4,0-4.3-1.9-4.3-4.3v-5.1h-6.5c-1.5,0-2.7,1.2-2.7,2.7v45.9c0,1.5,1.2,2.7,2.7,2.7h34.8c1.5,0,2.6-1.3,2.6-2.7v-16.4    L-249.7,639.4z M-272.5,610.3h22c1.1,0,2,0.9,2,2c0,1.1-0.9,2-2,2h-22c-1.1,0-2-0.9-2-2C-274.5,611.2-273.6,610.3-272.5,610.3"
         id="path44" /></g><g
       id="g50"><path
         class="st2"
         d="M-268,602.5h13c1,0,1.8-0.8,1.8-1.8v-7.5c0-1-0.8-1.8-1.8-1.8h-2c0-2.5-2.1-4.6-4.6-4.6c-2.5,0-4.6,2-4.6,4.6    h-1.9c-1,0-1.8,0.8-1.8,1.8v7.5C-269.8,601.7-269,602.5-268,602.5 M-261.5,589.4c1.1,0,2,0.9,2,2h-4.1    C-263.5,590.3-262.6,589.4-261.5,589.4"
         id="path48" /></g><g
       id="g54"><path
         class="st2"
         d="M-225,598.9c-0.1-0.3-0.2-0.6-0.5-0.8l-3.3-2.3c-0.2-0.2-0.5-0.2-0.7-0.2c-0.4,0-0.8,0.2-1,0.5l-23.1,33.1    l5.3,3.7l23.1-33.1C-225,599.6-225,599.2-225,598.9"
         id="path52" /></g><g
       id="g58"><path
         class="st2"
         d="M-257.3,634.6l0.3,3.9c0,0.2,0.1,0.4,0.3,0.5c0.1,0.1,0.3,0.1,0.4,0.1c0.1,0,0.1,0,0.2,0l3.8-1    c0.2,0,0.3-0.2,0.4-0.3l1.4-2l-5.3-3.7l-1.4,2C-257.3,634.3-257.3,634.5-257.3,634.6"
         id="path56" /></g></g><g
     aria-label="Le mie
segnalazioni"
     style="font-style:normal;font-variant:normal;font-weight:normal;font-stretch:normal;font-size:15.92933273px;line-height:1.25;font-family:KonsensMedium;-inkscape-font-specification:'KonsensMedium, Normal';font-variant-ligatures:normal;font-variant-caps:normal;font-variant-numeric:normal;font-feature-settings:normal;text-align:center;letter-spacing:0px;word-spacing:0px;writing-mode:lr-tb;text-anchor:middle;fill:#000000;fill-opacity:1;stroke:none"
     id="text71"><path
       d="m -277.47728,667.04584 h -7.39121 v -11.85143 h 1.76816 v 10.29035 h 5.62305 z"
       style="font-style:normal;font-variant:normal;font-weight:normal;font-stretch:normal;font-size:15.92933273px;font-family:KonsensMedium;-inkscape-font-specification:'KonsensMedium, Normal';font-variant-ligatures:normal;font-variant-caps:normal;font-variant-numeric:normal;font-feature-settings:normal;text-align:center;writing-mode:lr-tb;text-anchor:middle;fill:#40637d;fill-opacity:1"
       id="path826" /><path
       d="m -268.66786,664.38564 v 0.0797 q 0,1.22655 -0.97169,1.97523 -0.97169,0.74868 -2.59648,0.74868 -1.62479,0 -2.64427,-0.84425 -1.01947,-0.86019 -1.01947,-2.34162 v -2.00709 q 0,-1.56108 1.01947,-2.50091 1.01948,-0.93983 2.62834,-0.93983 1.60887,0 2.61241,0.93983 1.00355,0.9239 1.00355,2.51684 v 1.41771 h -5.71863 v 0.47788 q 0,0.93983 0.57346,1.43364 0.58938,0.47788 1.54514,0.47788 2.02303,0 2.02303,-1.43364 z m -1.49735,-2.15046 v -0.25487 q 0,-0.98762 -0.55753,-1.51329 -0.5416,-0.54159 -1.52922,-0.54159 -0.98762,0 -1.54514,0.54159 -0.55753,0.5416 -0.55753,1.52922 v 0.23894 z"
       style="font-style:normal;font-variant:normal;font-weight:normal;font-stretch:normal;font-size:15.92933273px;font-family:KonsensMedium;-inkscape-font-specification:'KonsensMedium, Normal';font-variant-ligatures:normal;font-variant-caps:normal;font-variant-numeric:normal;font-feature-settings:normal;text-align:center;writing-mode:lr-tb;text-anchor:middle;fill:#40637d;fill-opacity:1"
       id="path828" /><path
       d="m -250.69434,667.04584 h -1.60887 v -5.79828 q 0,-1.16284 -0.97169,-1.16284 -0.46195,0 -1.13098,0.3823 l -1.13098,0.66903 v 5.90979 h -1.59293 v -5.79828 q 0,-1.14691 -0.98762,-1.14691 -0.49381,0 -1.11506,0.36637 l -1.13098,0.66903 v 5.90979 h -1.59293 v -8.37883 h 1.56107 v 0.98762 l 0.79647,-0.47788 q 0.89204,-0.57346 1.83187,-0.57346 1.44957,0 1.95931,1.17877 l 0.95576,-0.58938 q 0.98762,-0.58939 1.92745,-0.58939 1.05134,0 1.64072,0.6531 0.58939,0.63718 0.58939,1.80002 z"
       style="font-style:normal;font-variant:normal;font-weight:normal;font-stretch:normal;font-size:15.92933273px;font-family:KonsensMedium;-inkscape-font-specification:'KonsensMedium, Normal';font-variant-ligatures:normal;font-variant-caps:normal;font-variant-numeric:normal;font-feature-settings:normal;text-align:center;writing-mode:lr-tb;text-anchor:middle;fill:#40637d;fill-opacity:1"
       id="path830" /><path
       d="m -246.81231,667.04584 h -1.64073 v -8.37883 h 1.64073 z m 0.1115,-11.11868 v 0.33452 q 0,0.36637 -0.2708,0.58938 -0.25487,0.22302 -0.6531,0.22302 -0.43009,0 -0.68496,-0.20709 -0.25487,-0.22301 -0.25487,-0.60531 v -0.33452 q 0,-0.3823 0.25487,-0.58938 0.25487,-0.22301 0.68496,-0.22301 0.39823,0 0.6531,0.22301 0.2708,0.22301 0.2708,0.58938 z"
       style="font-style:normal;font-variant:normal;font-weight:normal;font-stretch:normal;font-size:15.92933273px;font-family:KonsensMedium;-inkscape-font-specification:'KonsensMedium, Normal';font-variant-ligatures:normal;font-variant-caps:normal;font-variant-numeric:normal;font-feature-settings:normal;text-align:center;writing-mode:lr-tb;text-anchor:middle;fill:#40637d;fill-opacity:1"
       id="path832" /><path
       d="m -237.46254,664.38564 v 0.0797 q 0,1.22655 -0.97169,1.97523 -0.97169,0.74868 -2.59648,0.74868 -1.62479,0 -2.64427,-0.84425 -1.01948,-0.86019 -1.01948,-2.34162 v -2.00709 q 0,-1.56108 1.01948,-2.50091 1.01948,-0.93983 2.62834,-0.93983 1.60886,0 2.61241,0.93983 1.00355,0.9239 1.00355,2.51684 v 1.41771 h -5.71863 v 0.47788 q 0,0.93983 0.57345,1.43364 0.58939,0.47788 1.54515,0.47788 2.02302,0 2.02302,-1.43364 z m -1.49736,-2.15046 v -0.25487 q 0,-0.98762 -0.55753,-1.51329 -0.54159,-0.54159 -1.52921,-0.54159 -0.98762,0 -1.54515,0.54159 -0.55752,0.5416 -0.55752,1.52922 v 0.23894 z"
       style="font-style:normal;font-variant:normal;font-weight:normal;font-stretch:normal;font-size:15.92933273px;font-family:KonsensMedium;-inkscape-font-specification:'KonsensMedium, Normal';font-variant-ligatures:normal;font-variant-caps:normal;font-variant-numeric:normal;font-feature-settings:normal;text-align:center;writing-mode:lr-tb;text-anchor:middle;fill:#40637d;fill-opacity:1"
       id="path834" /><path
       d="m -300.34732,681.2548 h -1.59293 q 0,-1.43364 -1.87966,-1.43364 -0.89204,0 -1.36992,0.31859 -0.46195,0.31859 -0.46195,0.84425 0,0.49381 0.39823,0.76461 0.39823,0.2708 0.98762,0.33452 0.58938,0.0637 1.27434,0.19115 0.70089,0.12743 1.29028,0.30266 0.58939,0.15929 0.98762,0.6531 0.39823,0.49381 0.39823,1.29028 0,1.17877 -0.93983,1.87966 -0.93983,0.68496 -2.58055,0.68496 -1.65665,0 -2.61241,-0.74868 -0.93983,-0.74868 -0.93983,-1.97524 v -0.0796 h 1.64072 q 0,1.44956 1.94338,1.44956 0.9239,0 1.41771,-0.30265 0.50974,-0.31859 0.50974,-0.84426 0,-0.52567 -0.55753,-0.76461 -0.5416,-0.23894 -1.32213,-0.33451 -0.78054,-0.0956 -1.57701,-0.25487 -0.78054,-0.15929 -1.33806,-0.70089 -0.5416,-0.55753 -0.5416,-1.51329 0,-1.17877 0.90797,-1.86373 0.9239,-0.68496 2.51684,-0.68496 1.64072,0 2.53276,0.74868 0.90797,0.73275 0.90797,1.97523 z"
       style="font-style:normal;font-variant:normal;font-weight:normal;font-stretch:normal;font-size:15.92933273px;font-family:KonsensMedium;-inkscape-font-specification:'KonsensMedium, Normal';font-variant-ligatures:normal;font-variant-caps:normal;font-variant-numeric:normal;font-feature-settings:normal;text-align:center;writing-mode:lr-tb;text-anchor:middle;fill:#40637d;fill-opacity:1"
       id="path836" /><path
       d="m -291.34849,684.2973 v 0.0797 q 0,1.22656 -0.97169,1.97524 -0.97169,0.74868 -2.59648,0.74868 -1.62479,0 -2.64427,-0.84426 -1.01948,-0.86018 -1.01948,-2.34161 v -2.0071 q 0,-1.56107 1.01948,-2.5009 1.01948,-0.93983 2.62834,-0.93983 1.60886,0 2.61241,0.93983 1.00355,0.9239 1.00355,2.51683 v 1.41771 h -5.71863 v 0.47788 q 0,0.93984 0.57346,1.43364 0.58938,0.47788 1.54514,0.47788 2.02303,0 2.02303,-1.43364 z m -1.49736,-2.15046 v -0.25486 q 0,-0.98762 -0.55752,-1.51329 -0.5416,-0.5416 -1.52922,-0.5416 -0.98762,0 -1.54514,0.5416 -0.55753,0.5416 -0.55753,1.52921 v 0.23894 z"
       style="font-style:normal;font-variant:normal;font-weight:normal;font-stretch:normal;font-size:15.92933273px;font-family:KonsensMedium;-inkscape-font-specification:'KonsensMedium, Normal';font-variant-ligatures:normal;font-variant-caps:normal;font-variant-numeric:normal;font-feature-settings:normal;text-align:center;writing-mode:lr-tb;text-anchor:middle;fill:#40637d;fill-opacity:1"
       id="path838" /><path
       d="m -284.6858,686.32033 h -2.86728 v 0.36637 q 0,1.03541 0.49381,1.52922 0.50974,0.50974 1.72037,0.50974 2.26197,0 2.26197,-1.33806 0,-0.58939 -0.41417,-0.82833 -0.39823,-0.23894 -1.1947,-0.23894 z m -1.48142,-3.67968 h 0.6531 q 1.78408,0 1.78408,-1.40178 0,-1.35399 -1.60886,-1.35399 h -0.78054 q -0.81239,0 -1.22655,0.31859 -0.41417,0.30265 -0.41417,1.08319 0,1.35399 1.59294,1.35399 z m 0.81239,1.22656 h -2.46904 q -0.63718,0 -0.63718,0.60532 0,0.58938 0.60532,0.58938 h 3.34516 q 2.97878,0 2.97878,2.2779 0,1.27434 -1.03541,1.95931 -1.0354,0.70089 -2.75577,0.70089 -3.67968,0 -3.67968,-3.23366 v -0.81239 q -0.82832,-0.38231 -0.82832,-1.48143 0,-0.63718 0.31859,-1.05134 0.31858,-0.41416 0.84425,-0.55753 -0.0637,-0.0478 -0.17522,-0.15929 -0.0956,-0.12743 -0.2708,-0.5416 -0.17522,-0.41416 -0.17522,-0.90797 0,-1.3062 0.81239,-1.99116 0.8124,-0.68497 2.19825,-0.68497 h 4.7788 v 1.38586 h -1.25842 q 0.49381,0.35044 0.49381,1.3062 0,1.21063 -0.84425,1.91152 -0.82833,0.68496 -2.24604,0.68496 z"
       style="font-style:normal;font-variant:normal;font-weight:normal;font-stretch:normal;font-size:15.92933273px;font-family:KonsensMedium;-inkscape-font-specification:'KonsensMedium, Normal';font-variant-ligatures:normal;font-variant-caps:normal;font-variant-numeric:normal;font-feature-settings:normal;text-align:center;writing-mode:lr-tb;text-anchor:middle;fill:#40637d;fill-opacity:1"
       id="path840" /><path
       d="m -272.975,686.9575 h -1.62479 v -5.59119 q 0,-0.60532 -0.33452,-0.98762 -0.31858,-0.39823 -0.90797,-0.39823 -0.5416,0 -1.25842,0.41416 l -1.36992,0.81239 v 5.75049 h -1.59293 v -8.37883 h 1.577 v 1.09913 l 0.95576,-0.58939 q 0.93983,-0.58938 1.99117,-0.58938 1.17877,0 1.86373,0.73275 0.70089,0.73275 0.70089,1.94338 z"
       style="font-style:normal;font-variant:normal;font-weight:normal;font-stretch:normal;font-size:15.92933273px;font-family:KonsensMedium;-inkscape-font-specification:'KonsensMedium, Normal';font-variant-ligatures:normal;font-variant-caps:normal;font-variant-numeric:normal;font-feature-settings:normal;text-align:center;writing-mode:lr-tb;text-anchor:middle;fill:#40637d;fill-opacity:1"
       id="path842" /><path
       d="m -265.40882,684.48846 v -1.06727 h -2.5009 q -1.59293,0 -1.59293,1.21063 0,0.49381 0.28672,0.78054 0.28673,0.2708 0.8124,0.2708 0.78054,0 1.62479,-0.46195 z m 1.59294,2.46904 h -1.59294 v -1.08319 l -0.9239,0.50974 q -1.24248,0.66903 -2.34161,0.66903 -1.09912,0 -1.78408,-0.6531 -0.66904,-0.65311 -0.66904,-1.70444 0,-1.22656 0.84426,-1.87966 0.86018,-0.65311 2.19825,-0.65311 h 2.69205 v -0.52566 q 0,-1.83188 -1.92745,-1.83188 -2.03895,0 -2.03895,1.64072 h -1.577 v -0.0796 q 0,-1.36993 0.98762,-2.15046 1.00354,-0.78054 2.61241,-0.78054 1.65665,0 2.58055,0.82833 0.93983,0.81239 0.93983,2.29382 z"
       style="font-style:normal;font-variant:normal;font-weight:normal;font-stretch:normal;font-size:15.92933273px;font-family:KonsensMedium;-inkscape-font-specification:'KonsensMedium, Normal';font-variant-ligatures:normal;font-variant-caps:normal;font-variant-numeric:normal;font-feature-settings:normal;text-align:center;writing-mode:lr-tb;text-anchor:middle;fill:#40637d;fill-opacity:1"
       id="path844" /><path
       d="m -260.03565,686.9575 h -1.64072 v -11.85142 h 1.64072 z"
       style="font-style:normal;font-variant:normal;font-weight:normal;font-stretch:normal;font-size:15.92933273px;font-family:KonsensMedium;-inkscape-font-specification:'KonsensMedium, Normal';font-variant-ligatures:normal;font-variant-caps:normal;font-variant-numeric:normal;font-feature-settings:normal;text-align:center;writing-mode:lr-tb;text-anchor:middle;fill:#40637d;fill-opacity:1"
       id="path846" /><path
       d="m -252.40401,684.48846 v -1.06727 h -2.5009 q -1.59294,0 -1.59294,1.21063 0,0.49381 0.28673,0.78054 0.28673,0.2708 0.8124,0.2708 0.78053,0 1.62479,-0.46195 z m 1.59293,2.46904 h -1.59293 v -1.08319 l -0.9239,0.50974 q -1.24249,0.66903 -2.34161,0.66903 -1.09913,0 -1.78409,-0.6531 -0.66903,-0.65311 -0.66903,-1.70444 0,-1.22656 0.84426,-1.87966 0.86018,-0.65311 2.19824,-0.65311 h 2.69206 v -0.52566 q 0,-1.83188 -1.92745,-1.83188 -2.03895,0 -2.03895,1.64072 h -1.57701 v -0.0796 q 0,-1.36993 0.98762,-2.15046 1.00355,-0.78054 2.61241,-0.78054 1.65665,0 2.58055,0.82833 0.93983,0.81239 0.93983,2.29382 z"
       style="font-style:normal;font-variant:normal;font-weight:normal;font-stretch:normal;font-size:15.92933273px;font-family:KonsensMedium;-inkscape-font-specification:'KonsensMedium, Normal';font-variant-ligatures:normal;font-variant-caps:normal;font-variant-numeric:normal;font-feature-settings:normal;text-align:center;writing-mode:lr-tb;text-anchor:middle;fill:#40637d;fill-opacity:1"
       id="path848" /><path
       d="m -241.91753,686.9575 h -7.02484 v -1.38585 l 4.92217,-5.59119 h -4.93809 v -1.40179 h 6.97704 v 1.38586 l -4.8903,5.60712 h 4.95402 z"
       style="font-style:normal;font-variant:normal;font-weight:normal;font-stretch:normal;font-size:15.92933273px;font-family:KonsensMedium;-inkscape-font-specification:'KonsensMedium, Normal';font-variant-ligatures:normal;font-variant-caps:normal;font-variant-numeric:normal;font-feature-settings:normal;text-align:center;writing-mode:lr-tb;text-anchor:middle;fill:#40637d;fill-opacity:1"
       id="path850" /><path
       d="m -238.22541,686.9575 h -1.64072 v -8.37883 h 1.64072 z m 0.11151,-11.11867 v 0.33452 q 0,0.36637 -0.2708,0.58938 -0.25487,0.22301 -0.6531,0.22301 -0.4301,0 -0.68497,-0.20708 -0.25486,-0.22301 -0.25486,-0.60531 v -0.33452 q 0,-0.3823 0.25486,-0.58939 0.25487,-0.22301 0.68497,-0.22301 0.39823,0 0.6531,0.22301 0.2708,0.22301 0.2708,0.58939 z"
       style="font-style:normal;font-variant:normal;font-weight:normal;font-stretch:normal;font-size:15.92933273px;font-family:KonsensMedium;-inkscape-font-specification:'KonsensMedium, Normal';font-variant-ligatures:normal;font-variant-caps:normal;font-variant-numeric:normal;font-feature-settings:normal;text-align:center;writing-mode:lr-tb;text-anchor:middle;fill:#40637d;fill-opacity:1"
       id="path852" /><path
       d="m -230.2137,683.5327 v -1.48143 q 0,-1.01948 -0.60532,-1.59293 -0.58938,-0.57346 -1.56107,-0.57346 -0.98762,0 -1.57701,0.57346 -0.58938,0.57345 -0.58938,1.59293 v 1.48143 q 0,1.01947 0.58938,1.60886 0.58939,0.57346 1.57701,0.57346 0.97169,0 1.56107,-0.57346 0.60532,-0.57346 0.60532,-1.60886 z m 1.56107,-1.6248 v 1.78409 q 0,1.56107 -1.05133,2.50091 -1.03541,0.93983 -2.67613,0.93983 -1.64072,0 -2.69206,-0.93983 -1.03541,-0.93984 -1.03541,-2.50091 v -1.78409 q 0,-1.56107 1.03541,-2.5009 1.05134,-0.93983 2.69206,-0.93983 1.64072,0 2.67613,0.93983 1.05133,0.93983 1.05133,2.5009 z"
       style="font-style:normal;font-variant:normal;font-weight:normal;font-stretch:normal;font-size:15.92933273px;font-family:KonsensMedium;-inkscape-font-specification:'KonsensMedium, Normal';font-variant-ligatures:normal;font-variant-caps:normal;font-variant-numeric:normal;font-feature-settings:normal;text-align:center;writing-mode:lr-tb;text-anchor:middle;fill:#40637d;fill-opacity:1"
       id="path854" /><path
       d="m -219.49351,686.9575 h -1.62479 v -5.59119 q 0,-0.60532 -0.33452,-0.98762 -0.31858,-0.39823 -0.90797,-0.39823 -0.5416,0 -1.25842,0.41416 l -1.36992,0.81239 v 5.75049 h -1.59293 v -8.37883 h 1.577 v 1.09913 l 0.95576,-0.58939 q 0.93983,-0.58938 1.99117,-0.58938 1.17877,0 1.86373,0.73275 0.70089,0.73275 0.70089,1.94338 z"
       style="font-style:normal;font-variant:normal;font-weight:normal;font-stretch:normal;font-size:15.92933273px;font-family:KonsensMedium;-inkscape-font-specification:'KonsensMedium, Normal';font-variant-ligatures:normal;font-variant-caps:normal;font-variant-numeric:normal;font-feature-settings:normal;text-align:center;writing-mode:lr-tb;text-anchor:middle;fill:#40637d;fill-opacity:1"
       id="path856" /><path
       d="m -215.607,686.9575 h -1.64072 v -8.37883 h 1.64072 z m 0.11151,-11.11867 v 0.33452 q 0,0.36637 -0.2708,0.58938 -0.25487,0.22301 -0.65311,0.22301 -0.43009,0 -0.68496,-0.20708 -0.25487,-0.22301 -0.25487,-0.60531 v -0.33452 q 0,-0.3823 0.25487,-0.58939 0.25487,-0.22301 0.68496,-0.22301 0.39824,0 0.65311,0.22301 0.2708,0.22301 0.2708,0.58939 z"
       style="font-style:normal;font-variant:normal;font-weight:normal;font-stretch:normal;font-size:15.92933273px;font-family:KonsensMedium;-inkscape-font-specification:'KonsensMedium, Normal';font-variant-ligatures:normal;font-variant-caps:normal;font-variant-numeric:normal;font-feature-settings:normal;text-align:center;writing-mode:lr-tb;text-anchor:middle;fill:#40637d;fill-opacity:1"
       id="path858" /></g></svg>