<?xml version="1.0" encoding="UTF-8" standalone="no"?>
<!-- Generator: Adobe Illustrator 19.1.0, SVG Export Plug-In . SVG Version: 6.00 Build 0)  -->

<svg
   xmlns:dc="http://purl.org/dc/elements/1.1/"
   xmlns:cc="http://creativecommons.org/ns#"
   xmlns:rdf="http://www.w3.org/1999/02/22-rdf-syntax-ns#"
   xmlns:svg="http://www.w3.org/2000/svg"
   xmlns="http://www.w3.org/2000/svg"
   xmlns:sodipodi="http://sodipodi.sourceforge.net/DTD/sodipodi-0.dtd"
   xmlns:inkscape="http://www.inkscape.org/namespaces/inkscape"
   version="1.1"
   id="Calque_1"
   x="0px"
   y="0px"
   viewBox="-330 571.3 138.60001 138.60001"
   xml:space="preserve"
   sodipodi:docname="main_menu_logo_invasive_species-ro.svg"
   inkscape:version="0.92.4 (5da689c313, 2019-01-14)"
   width="138.60001"
   height="138.60001"><metadata
   id="metadata93"><rdf:RDF><cc:Work
       rdf:about=""><dc:format>image/svg+xml</dc:format><dc:type
         rdf:resource="http://purl.org/dc/dcmitype/StillImage" /><dc:title></dc:title></cc:Work></rdf:RDF></metadata><defs
   id="defs91" /><sodipodi:namedview
   pagecolor="#ffffff"
   bordercolor="#666666"
   borderopacity="1"
   objecttolerance="10"
   gridtolerance="10"
   guidetolerance="10"
   inkscape:pageopacity="0"
   inkscape:pageshadow="2"
   inkscape:window-width="1536"
   inkscape:window-height="801"
   id="namedview89"
   showgrid="false"
   inkscape:zoom="4"
   inkscape:cx="51.158159"
   inkscape:cy="62.609092"
   inkscape:window-x="-8"
   inkscape:window-y="-8"
   inkscape:window-maximized="1"
   inkscape:current-layer="Calque_1"
   fit-margin-top="0"
   fit-margin-left="0"
   fit-margin-right="0"
   fit-margin-bottom="0" /><style
   type="text/css"
   id="style2">
	.st0{fill:#559973;}
	.st1{fill:#FFFFFF;}
</style><g
   id="g6"
   transform="translate(0,-0.1)"><path
     class="st0"
     d="m -330,640.7 c 0,-38.3 31,-69.3 69.3,-69.3 38.3,0 69.3,31 69.3,69.3 0,38.3 -31,69.3 -69.3,69.3 -38.3,0 -69.3,-31 -69.3,-69.3"
     id="path4"
     inkscape:connector-curvature="0"
     style="fill:#559973" /></g><g
   id="g86"
   transform="translate(-0.0626671,-0.1)"><g
     id="g44"><path
       class="st1"
       d="m -246.8,607.9 c -6.1,-6.3 -16.1,-6.5 -22.4,-0.4 -6.3,6.1 -6.5,16.1 -0.4,22.4 6.1,6.3 16.1,6.5 22.4,0.4 6.3,-6.1 6.5,-16.1 0.4,-22.4"
       id="path42"
       inkscape:connector-curvature="0"
       style="fill:#ffffff" /></g><g
     id="g48"><path
       class="st1"
       d="m -281.2,629 c 3.9,-3.8 4,-10.1 0.2,-14 -3.8,-3.9 -10.1,-4 -14,-0.2 -3.9,3.8 -4,10.1 -0.2,14 3.7,3.9 10,4 14,0.2"
       id="path46"
       inkscape:connector-curvature="0"
       style="fill:#ffffff" /></g><g
     id="g52"><path
       class="st1"
       d="m -225.4,616 c -2.8,-2.9 -7.5,-3 -10.5,-0.2 -2.9,2.8 -3,7.5 -0.2,10.5 2.8,2.9 7.5,3 10.5,0.2 3,-2.9 3.1,-7.6 0.2,-10.5"
       id="path50"
       inkscape:connector-curvature="0"
       style="fill:#ffffff" /></g><g
     id="g56"><path
       class="st1"
       d="m -281.4,632.4 c -2.9,2.8 -3,7.5 -0.2,10.5 2.8,2.9 7.5,3 10.5,0.2 2.9,-2.8 3,-7.5 0.2,-10.5 -2.9,-2.9 -7.5,-3 -10.5,-0.2"
       id="path54"
       inkscape:connector-curvature="0"
       style="fill:#ffffff" /></g><g
     id="g60"><path
       class="st1"
       d="m -264,639.8 c -1.9,1.9 -2,5 -0.1,6.9 1.9,1.9 5,2 6.9,0.1 1.9,-1.9 2,-5 0.1,-6.9 -1.9,-2 -5,-2 -6.9,-0.1"
       id="path58"
       inkscape:connector-curvature="0"
       style="fill:#ffffff" /></g><g
     id="g64"><path
       class="st1"
       d="m -276.2,605.6 c 1.9,-1.9 2,-5 0.1,-6.9 -1.9,-1.9 -5,-2 -6.9,-0.1 -1.9,1.9 -2,5 -0.1,6.9 1.9,2 5,2 6.9,0.1"
       id="path62"
       inkscape:connector-curvature="0"
       style="fill:#ffffff" /></g><g
     id="g68"><path
       class="st1"
       d="m -250.9,596.6 c 1.9,-1.9 2,-5 0.1,-6.9 -1.9,-1.9 -5,-2 -6.9,-0.1 -1.9,1.9 -2,5 -0.1,6.9 1.9,1.9 4.9,2 6.9,0.1"
       id="path66"
       inkscape:connector-curvature="0"
       style="fill:#ffffff" /></g><g
     id="g72"><path
       class="st1"
       d="m -241.2,634.8 c -1.9,1.9 -2,5 -0.1,6.9 1.9,1.9 5,2 6.9,0.1 1.9,-1.9 2,-5 0.1,-6.9 -1.8,-1.9 -4.9,-2 -6.9,-0.1"
       id="path70"
       inkscape:connector-curvature="0"
       style="fill:#ffffff" /></g><g
     id="g76"><path
       class="st1"
       d="m -229.3,640.3 c -1,0.9 -1,2.5 -0.1,3.5 0.9,1 2.5,1 3.5,0.1 1,-0.9 1,-2.5 0.1,-3.5 -0.9,-1 -2.5,-1.1 -3.5,-0.1"
       id="path74"
       inkscape:connector-curvature="0"
       style="fill:#ffffff" /></g><g
     id="g80"><path
       class="st1"
       d="m -290.8,638.1 c -1,0.9 -1,2.5 -0.1,3.5 0.9,1 2.5,1 3.5,0.1 1,-0.9 1,-2.5 0.1,-3.5 -0.9,-1 -2.5,-1.1 -3.5,-0.1"
       id="path78"
       inkscape:connector-curvature="0"
       style="fill:#ffffff" /></g><g
     id="g84"><path
       class="st1"
       d="m -249.5,601.6 c 0.9,1 2.5,1 3.5,0.1 1,-0.9 1,-2.5 0.1,-3.5 -0.9,-1 -2.5,-1 -3.5,-0.1 -1,1 -1,2.5 -0.1,3.5"
       id="path82"
       inkscape:connector-curvature="0"
       style="fill:#ffffff" /></g></g><g
   aria-label="Specii 
invazive"
   style="font-style:normal;font-variant:normal;font-weight:normal;font-stretch:normal;font-size:15.92933273px;line-height:1.25;font-family:KonsensMedium;-inkscape-font-specification:'KonsensMedium, Normal';font-variant-ligatures:normal;font-variant-caps:normal;font-variant-numeric:normal;font-feature-settings:normal;text-align:center;letter-spacing:0px;word-spacing:0px;writing-mode:lr-tb;text-anchor:middle;fill:#000000;fill-opacity:1;stroke:none"
   id="text97"><path
     d="m -274.12608,661.7104 h -1.78409 q 0,-2.18232 -2.62834,-2.18232 -1.22655,0 -1.89559,0.50974 -0.66903,0.49381 -0.66903,1.36993 0,0.62124 0.38231,1.01947 0.39823,0.38231 1.01947,0.57346 0.62125,0.19115 1.36993,0.31859 0.7646,0.12743 1.51328,0.33451 0.74868,0.19115 1.36993,0.50974 0.62124,0.30266 1.00354,0.95576 0.39824,0.6531 0.39824,1.59293 0,1.59294 -1.22656,2.53277 -1.21063,0.9239 -3.28144,0.9239 -2.11861,0 -3.31331,-0.90797 -1.17877,-0.9239 -1.17877,-2.69206 v -0.0956 h 1.78409 q 0,2.19825 2.72391,2.19825 1.29028,0 1.99117,-0.49381 0.71682,-0.50974 0.71682,-1.38585 0,-0.60531 -0.39823,-0.98762 -0.38231,-0.39823 -1.00355,-0.57345 -0.60531,-0.19116 -1.35399,-0.31859 -0.74868,-0.14337 -1.51329,-0.33452 -0.74868,-0.20708 -1.36992,-0.52567 -0.60532,-0.33451 -1.00355,-0.98761 -0.3823,-0.65311 -0.3823,-1.60887 0,-1.577 1.16284,-2.5009 1.17877,-0.93983 3.16993,-0.93983 2.08675,0 3.23366,0.9239 1.16284,0.90797 1.16284,2.67613 z"
     style="fill:#ffffff"
     id="path879" /><path
     d="m -266.11935,667.12638 v -2.53277 q 0,-0.70089 -0.39823,-1.11505 -0.39824,-0.43009 -1.06727,-0.43009 -0.66903,0 -1.32213,0.36637 l -1.48143,0.82833 v 3.23365 l 1.48143,0.82833 q 0.6531,0.36637 1.32213,0.36637 0.66903,0 1.06727,-0.41416 0.39823,-0.43009 0.39823,-1.13098 z m -4.26906,5.86199 h -1.57701 v -11.30983 h 1.56108 v 1.01948 l 1.03541,-0.57345 q 0.95576,-0.5416 1.99116,-0.5416 1.25842,0 2.03896,0.78054 0.79646,0.78053 0.79646,2.03895 v 2.86728 q 0,1.25842 -0.79646,2.07081 -0.79647,0.79647 -2.05489,0.79647 -1.01947,0 -1.97523,-0.5416 l -1.01948,-0.57345 z"
     style="fill:#ffffff"
     id="path881" /><path
     d="m -255.43624,667.39717 v 0.0797 q 0,1.22656 -0.97169,1.97524 -0.97169,0.74868 -2.59648,0.74868 -1.6248,0 -2.64427,-0.84426 -1.01948,-0.86018 -1.01948,-2.34161 v -2.0071 q 0,-1.56107 1.01948,-2.5009 1.01947,-0.93983 2.62834,-0.93983 1.60886,0 2.61241,0.93983 1.00354,0.9239 1.00354,2.51683 v 1.41771 h -5.71863 v 0.47788 q 0,0.93984 0.57346,1.43364 0.58939,0.47788 1.54515,0.47788 2.02302,0 2.02302,-1.43364 z m -1.49736,-2.15046 v -0.25486 q 0,-0.98762 -0.55753,-1.51329 -0.5416,-0.5416 -1.52921,-0.5416 -0.98762,0 -1.54515,0.5416 -0.55753,0.5416 -0.55753,1.52921 v 0.23894 z"
     style="fill:#ffffff"
     id="path883" /><path
     d="m -246.47973,666.95115 v 0.12744 q 0,1.49736 -0.95576,2.30975 -0.95576,0.8124 -2.59648,0.8124 -1.59293,0 -2.56462,-0.86019 -0.95576,-0.87611 -0.95576,-2.40533 v -2.1186 q 0,-1.51328 0.95576,-2.37347 0.97169,-0.87611 2.56462,-0.87611 1.64072,0 2.59648,0.81239 0.95576,0.79647 0.95576,2.29383 v 0.12743 h -1.56107 q 0,-1.81594 -1.99117,-1.81594 -1.92745,0 -1.92745,1.97524 v 1.83187 q 0,1.97524 1.92745,1.97524 1.99117,0 1.99117,-1.81595 z"
     style="fill:#ffffff"
     id="path885" /><path
     d="m -242.78985,670.05737 h -1.64072 v -8.37883 h 1.64072 z m 0.11151,-11.11867 v 0.33451 q 0,0.36638 -0.2708,0.58939 -0.25487,0.22301 -0.6531,0.22301 -0.4301,0 -0.68496,-0.20708 -0.25487,-0.22301 -0.25487,-0.60532 v -0.33451 q 0,-0.38231 0.25487,-0.58939 0.25486,-0.22301 0.68496,-0.22301 0.39823,0 0.6531,0.22301 0.2708,0.22301 0.2708,0.58939 z"
     style="fill:#ffffff"
     id="path887" /><path
     d="m -238.7764,670.05737 h -1.64072 v -8.37883 h 1.64072 z m 0.1115,-11.11867 v 0.33451 q 0,0.36638 -0.27079,0.58939 -0.25487,0.22301 -0.65311,0.22301 -0.43009,0 -0.68496,-0.20708 -0.25487,-0.22301 -0.25487,-0.60532 v -0.33451 q 0,-0.38231 0.25487,-0.58939 0.25487,-0.22301 0.68496,-0.22301 0.39824,0 0.65311,0.22301 0.27079,0.22301 0.27079,0.58939 z"
     style="fill:#ffffff"
     id="path889" /><path
     d="m -288.10444,689.96904 h -1.64072 v -8.37883 h 1.64072 z m 0.1115,-11.11868 v 0.33452 q 0,0.36638 -0.2708,0.58939 -0.25487,0.22301 -0.6531,0.22301 -0.43009,0 -0.68496,-0.20708 -0.25487,-0.22302 -0.25487,-0.60532 v -0.33452 q 0,-0.3823 0.25487,-0.58938 0.25487,-0.22301 0.68496,-0.22301 0.39823,0 0.6531,0.22301 0.2708,0.22301 0.2708,0.58938 z"
     style="fill:#ffffff"
     id="path891" /><path
     d="m -278.67502,689.96904 h -1.6248 v -5.5912 q 0,-0.60531 -0.33451,-0.98762 -0.31859,-0.39823 -0.90797,-0.39823 -0.5416,0 -1.25842,0.41416 l -1.36992,0.8124 v 5.75049 h -1.59294 v -8.37883 h 1.57701 v 1.09912 l 0.95576,-0.58938 q 0.93983,-0.58939 1.99116,-0.58939 1.17877,0 1.86373,0.73275 0.7009,0.73275 0.7009,1.94338 z"
     style="fill:#ffffff"
     id="path893" /><path
     d="m -272.69952,689.96904 h -1.81594 l -2.99472,-8.37883 h 1.76816 l 2.16639,6.54696 2.19824,-6.54696 h 1.67258 z"
     style="fill:#ffffff"
     id="path895" /><path
     d="m -263.27236,687.49999 v -1.06726 h -2.5009 q -1.59294,0 -1.59294,1.21063 0,0.49381 0.28673,0.78053 0.28673,0.2708 0.8124,0.2708 0.78053,0 1.62479,-0.46195 z m 1.59293,2.46905 h -1.59293 v -1.0832 l -0.9239,0.50974 q -1.24249,0.66903 -2.34161,0.66903 -1.09913,0 -1.78409,-0.6531 -0.66903,-0.6531 -0.66903,-1.70444 0,-1.22655 0.84426,-1.87966 0.86018,-0.6531 2.19824,-0.6531 h 2.69206 v -0.52567 q 0,-1.83187 -1.92745,-1.83187 -2.03895,0 -2.03895,1.64072 h -1.57701 v -0.0797 q 0,-1.36992 0.98762,-2.15046 1.00355,-0.78053 2.61241,-0.78053 1.65665,0 2.58055,0.82832 0.93983,0.8124 0.93983,2.29383 z"
     style="fill:#ffffff"
     id="path897" /><path
     d="m -252.78214,689.96904 h -7.02484 v -1.38585 l 4.92217,-5.5912 h -4.9381 v -1.40178 h 6.97705 v 1.38585 l -4.89031,5.60713 h 4.95403 z"
     style="fill:#ffffff"
     id="path899" /><path
     d="m -249.09002,689.96904 h -1.64072 v -8.37883 h 1.64072 z m 0.1115,-11.11868 v 0.33452 q 0,0.36638 -0.2708,0.58939 -0.25487,0.22301 -0.6531,0.22301 -0.43009,0 -0.68496,-0.20708 -0.25487,-0.22302 -0.25487,-0.60532 v -0.33452 q 0,-0.3823 0.25487,-0.58938 0.25487,-0.22301 0.68496,-0.22301 0.39823,0 0.6531,0.22301 0.2708,0.22301 0.2708,0.58938 z"
     style="fill:#ffffff"
     id="path901" /><path
     d="m -242.81461,689.96904 h -1.81595 l -2.99471,-8.37883 h 1.76816 l 2.16639,6.54696 2.19824,-6.54696 h 1.67258 z"
     style="fill:#ffffff"
     id="path903" /><path
     d="m -231.57521,687.30884 v 0.0797 q 0,1.22656 -0.97169,1.97523 -0.97169,0.74868 -2.59648,0.74868 -1.62479,0 -2.64427,-0.84425 -1.01948,-0.86019 -1.01948,-2.34161 v -2.0071 q 0,-1.56107 1.01948,-2.5009 1.01948,-0.93984 2.62834,-0.93984 1.60886,0 2.61241,0.93984 1.00355,0.9239 1.00355,2.51683 v 1.41771 h -5.71863 v 0.47788 q 0,0.93983 0.57345,1.43364 0.58939,0.47788 1.54515,0.47788 2.02302,0 2.02302,-1.43364 z m -1.49736,-2.15046 v -0.25487 q 0,-0.98762 -0.55753,-1.51329 -0.54159,-0.54159 -1.52921,-0.54159 -0.98762,0 -1.54515,0.54159 -0.55752,0.5416 -0.55752,1.52922 v 0.23894 z"
     style="fill:#ffffff"
     id="path905" /></g>
</svg>