<?xml version="1.0" encoding="UTF-8" standalone="no"?>
<!-- Generator: Adobe Illustrator 19.1.0, SVG Export Plug-In . SVG Version: 6.00 Build 0)  -->

<svg
   xmlns:dc="http://purl.org/dc/elements/1.1/"
   xmlns:cc="http://creativecommons.org/ns#"
   xmlns:rdf="http://www.w3.org/1999/02/22-rdf-syntax-ns#"
   xmlns:svg="http://www.w3.org/2000/svg"
   xmlns="http://www.w3.org/2000/svg"
   xmlns:sodipodi="http://sodipodi.sourceforge.net/DTD/sodipodi-0.dtd"
   xmlns:inkscape="http://www.inkscape.org/namespaces/inkscape"
   version="1.1"
   id="Calque_1"
   x="0px"
   y="0px"
   viewBox="-330 571.3 138.7 138.7"
   style="enable-background:new -330 571.3 138.7 138.7;"
   xml:space="preserve"
   sodipodi:docname="main_menu_logo_species_records-de.svg"
   inkscape:version="0.92.2 5c3e80d, 2017-08-06"><metadata
     id="metadata67"><rdf:RDF><cc:Work
         rdf:about=""><dc:format>image/svg+xml</dc:format><dc:type
           rdf:resource="http://purl.org/dc/dcmitype/StillImage" /><dc:title /></cc:Work></rdf:RDF></metadata><defs
     id="defs65" /><sodipodi:namedview
     pagecolor="#ffffff"
     bordercolor="#666666"
     borderopacity="1"
     objecttolerance="10"
     gridtolerance="10"
     guidetolerance="10"
     inkscape:pageopacity="0"
     inkscape:pageshadow="2"
     inkscape:window-width="2253"
     inkscape:window-height="1307"
     id="namedview63"
     showgrid="false"
     inkscape:zoom="8"
     inkscape:cx="33.028139"
     inkscape:cy="69.349998"
     inkscape:window-x="0"
     inkscape:window-y="1"
     inkscape:window-maximized="0"
     inkscape:current-layer="Calque_1" /><style
     type="text/css"
     id="style2">
	.st0{fill:#D3D501;}
	.st1{fill:#40637D;}
	.st2{fill:#FFFFFF;}
</style><g
     id="g6"><path
       class="st0"
       d="M-330,640.7c0-38.3,31-69.3,69.3-69.3c38.3,0,69.3,31,69.3,69.3s-31,69.3-69.3,69.3   C-299,710-330,679-330,640.7"
       id="path4" /></g><g
     id="g60"><g
       id="g46"><path
         class="st2"
         d="M-249.7,639.4c-0.4,0.6-1.1,1.1-1.9,1.3l-3.7,1c-0.3,0.1-0.6,0.1-0.9,0.1c-0.7,0-1.4-0.2-1.9-0.6    c-0.8-0.6-1.3-1.5-1.4-2.5l-0.3-3.9c-0.1-0.8,0.1-1.6,0.6-2.2l0.1-0.2h-13.4c-1.1,0-2-0.9-2-2c0-1.1,0.9-2,2-2h16.2l3.6-5.2h-19.8    c-1.1,0-2-0.9-2-2c0-1.1,0.9-2,2-2l22.6-0.1l8.5-12.1v-9c0-1.5-1.1-2.7-2.6-2.7h-6.5v5.1c0,2.4-2,4.3-4.4,4.3h-13    c-2.4,0-4.3-1.9-4.3-4.3v-5.1h-6.5c-1.5,0-2.7,1.2-2.7,2.7v45.9c0,1.5,1.2,2.7,2.7,2.7h34.8c1.5,0,2.6-1.3,2.6-2.7v-16.4    L-249.7,639.4z M-272.5,610.3h22c1.1,0,2,0.9,2,2c0,1.1-0.9,2-2,2h-22c-1.1,0-2-0.9-2-2C-274.5,611.2-273.6,610.3-272.5,610.3"
         id="path44" /></g><g
       id="g50"><path
         class="st2"
         d="M-268,602.5h13c1,0,1.8-0.8,1.8-1.8v-7.5c0-1-0.8-1.8-1.8-1.8h-2c0-2.5-2.1-4.6-4.6-4.6c-2.5,0-4.6,2-4.6,4.6    h-1.9c-1,0-1.8,0.8-1.8,1.8v7.5C-269.8,601.7-269,602.5-268,602.5 M-261.5,589.4c1.1,0,2,0.9,2,2h-4.1    C-263.5,590.3-262.6,589.4-261.5,589.4"
         id="path48" /></g><g
       id="g54"><path
         class="st2"
         d="M-225,598.9c-0.1-0.3-0.2-0.6-0.5-0.8l-3.3-2.3c-0.2-0.2-0.5-0.2-0.7-0.2c-0.4,0-0.8,0.2-1,0.5l-23.1,33.1    l5.3,3.7l23.1-33.1C-225,599.6-225,599.2-225,598.9"
         id="path52" /></g><g
       id="g58"><path
         class="st2"
         d="M-257.3,634.6l0.3,3.9c0,0.2,0.1,0.4,0.3,0.5c0.1,0.1,0.3,0.1,0.4,0.1c0.1,0,0.1,0,0.2,0l3.8-1    c0.2,0,0.3-0.2,0.4-0.3l1.4-2l-5.3-3.7l-1.4,2C-257.3,634.3-257.3,634.5-257.3,634.6"
         id="path56" /></g></g><g
     aria-label="Meine Artenauf-
zeichnungen"
     style="font-style:normal;font-variant:normal;font-weight:normal;font-stretch:normal;font-size:15.92933273px;line-height:1.25;font-family:KonsensMedium;-inkscape-font-specification:'KonsensMedium, Normal';font-variant-ligatures:normal;font-variant-caps:normal;font-variant-numeric:normal;font-feature-settings:normal;text-align:center;letter-spacing:0px;word-spacing:0px;writing-mode:lr-tb;text-anchor:middle;fill:#000000;fill-opacity:1;stroke:none"
     id="text71"><path
       d="m -308.33638,667.17084 h -1.65665 v -9.57353 l -3.09029,9.57353 h -1.72037 l -3.05843,-9.5576 v 9.5576 h -1.64072 l 0.0159,-11.85143 h 2.62834 l 2.94693,9.57353 2.99471,-9.57353 h 2.58055 z"
       style="font-style:normal;font-variant:normal;font-weight:normal;font-stretch:normal;font-size:15.92933273px;font-family:KonsensMedium;-inkscape-font-specification:'KonsensMedium, Normal';font-variant-ligatures:normal;font-variant-caps:normal;font-variant-numeric:normal;font-feature-settings:normal;text-align:center;writing-mode:lr-tb;text-anchor:middle;fill:#40637d;fill-opacity:1"
       id="path826" /><path
       d="m -298.94653,664.51064 v 0.0797 q 0,1.22655 -0.97169,1.97523 -0.97169,0.74868 -2.59648,0.74868 -1.6248,0 -2.64427,-0.84425 -1.01948,-0.86019 -1.01948,-2.34162 v -2.00709 q 0,-1.56108 1.01948,-2.50091 1.01947,-0.93983 2.62834,-0.93983 1.60886,0 2.61241,0.93983 1.00355,0.9239 1.00355,2.51684 v 1.41771 h -5.71863 v 0.47788 q 0,0.93983 0.57345,1.43364 0.58939,0.47788 1.54515,0.47788 2.02302,0 2.02302,-1.43364 z m -1.49736,-2.15046 v -0.25487 q 0,-0.98762 -0.55753,-1.51329 -0.54159,-0.54159 -1.52921,-0.54159 -0.98762,0 -1.54515,0.54159 -0.55752,0.5416 -0.55752,1.52922 v 0.23894 z"
       style="font-style:normal;font-variant:normal;font-weight:normal;font-stretch:normal;font-size:15.92933273px;font-family:KonsensMedium;-inkscape-font-specification:'KonsensMedium, Normal';font-variant-ligatures:normal;font-variant-caps:normal;font-variant-numeric:normal;font-feature-settings:normal;text-align:center;writing-mode:lr-tb;text-anchor:middle;fill:#40637d;fill-opacity:1"
       id="path828" /><path
       d="m -295.16705,667.17084 h -1.64072 v -8.37883 h 1.64072 z m 0.1115,-11.11868 v 0.33452 q 0,0.36637 -0.27079,0.58938 -0.25487,0.22302 -0.65311,0.22302 -0.43009,0 -0.68496,-0.20709 -0.25487,-0.22301 -0.25487,-0.60531 v -0.33452 q 0,-0.3823 0.25487,-0.58938 0.25487,-0.22301 0.68496,-0.22301 0.39824,0 0.65311,0.22301 0.27079,0.22301 0.27079,0.58938 z"
       style="font-style:normal;font-variant:normal;font-weight:normal;font-stretch:normal;font-size:15.92933273px;font-family:KonsensMedium;-inkscape-font-specification:'KonsensMedium, Normal';font-variant-ligatures:normal;font-variant-caps:normal;font-variant-numeric:normal;font-feature-settings:normal;text-align:center;writing-mode:lr-tb;text-anchor:middle;fill:#40637d;fill-opacity:1"
       id="path830" /><path
       d="m -285.73763,667.17084 h -1.62479 v -5.5912 q 0,-0.60531 -0.33452,-0.98762 -0.31859,-0.39823 -0.90797,-0.39823 -0.5416,0 -1.25842,0.41416 l -1.36992,0.8124 v 5.75049 h -1.59293 v -8.37883 h 1.577 v 1.09912 l 0.95576,-0.58938 q 0.93983,-0.58939 1.99117,-0.58939 1.17877,0 1.86373,0.73275 0.70089,0.73275 0.70089,1.94338 z"
       style="font-style:normal;font-variant:normal;font-weight:normal;font-stretch:normal;font-size:15.92933273px;font-family:KonsensMedium;-inkscape-font-specification:'KonsensMedium, Normal';font-variant-ligatures:normal;font-variant-caps:normal;font-variant-numeric:normal;font-feature-settings:normal;text-align:center;writing-mode:lr-tb;text-anchor:middle;fill:#40637d;fill-opacity:1"
       id="path832" /><path
       d="m -276.5148,664.51064 v 0.0797 q 0,1.22655 -0.97168,1.97523 -0.97169,0.74868 -2.59649,0.74868 -1.62479,0 -2.64427,-0.84425 -1.01947,-0.86019 -1.01947,-2.34162 v -2.00709 q 0,-1.56108 1.01947,-2.50091 1.01948,-0.93983 2.62834,-0.93983 1.60887,0 2.61242,0.93983 1.00354,0.9239 1.00354,2.51684 v 1.41771 h -5.71863 v 0.47788 q 0,0.93983 0.57346,1.43364 0.58938,0.47788 1.54514,0.47788 2.02303,0 2.02303,-1.43364 z m -1.49735,-2.15046 v -0.25487 q 0,-0.98762 -0.55753,-1.51329 -0.5416,-0.54159 -1.52922,-0.54159 -0.98761,0 -1.54514,0.54159 -0.55753,0.5416 -0.55753,1.52922 v 0.23894 z"
       style="font-style:normal;font-variant:normal;font-weight:normal;font-stretch:normal;font-size:15.92933273px;font-family:KonsensMedium;-inkscape-font-specification:'KonsensMedium, Normal';font-variant-ligatures:normal;font-variant-caps:normal;font-variant-numeric:normal;font-feature-settings:normal;text-align:center;writing-mode:lr-tb;text-anchor:middle;fill:#40637d;fill-opacity:1"
       id="path834" /><path
       d="m -263.113,663.23629 -2.1186,-6.00536 -2.10267,6.00536 z m 3.21773,3.93455 h -1.89559 l -0.87612,-2.43719 h -5.11331 l -0.87612,2.43719 h -1.86373 l 4.28499,-11.85143 h 2.07081 z"
       style="font-style:normal;font-variant:normal;font-weight:normal;font-stretch:normal;font-size:15.92933273px;font-family:KonsensMedium;-inkscape-font-specification:'KonsensMedium, Normal';font-variant-ligatures:normal;font-variant-caps:normal;font-variant-numeric:normal;font-feature-settings:normal;text-align:center;writing-mode:lr-tb;text-anchor:middle;fill:#40637d;fill-opacity:1"
       id="path836" /><path
       d="m -256.69821,667.17084 h -1.62479 v -8.37883 h 1.59293 v 1.27435 l 0.3823,-0.38231 q 1.00355,-0.9239 2.18232,-0.9239 h 0.43009 v 1.65665 h -0.41416 q -1.08319,0 -1.8478,0.63717 l -0.70089,0.57346 z"
       style="font-style:normal;font-variant:normal;font-weight:normal;font-stretch:normal;font-size:15.92933273px;font-family:KonsensMedium;-inkscape-font-specification:'KonsensMedium, Normal';font-variant-ligatures:normal;font-variant-caps:normal;font-variant-numeric:normal;font-feature-settings:normal;text-align:center;writing-mode:lr-tb;text-anchor:middle;fill:#40637d;fill-opacity:1"
       id="path838" /><path
       d="m -247.66628,667.17084 h -1.05133 q -1.43364,0 -2.26197,-0.73275 -0.82832,-0.73275 -0.82832,-2.13453 v -4.10977 h -1.33807 v -1.40178 h 1.354 v -2.26197 h 1.62479 v 2.26197 h 2.43719 v 1.40178 h -2.43719 v 4.03012 q 0,0.82833 0.36637,1.17877 0.38231,0.33452 1.17877,0.33452 h 0.95576 z"
       style="font-style:normal;font-variant:normal;font-weight:normal;font-stretch:normal;font-size:15.92933273px;font-family:KonsensMedium;-inkscape-font-specification:'KonsensMedium, Normal';font-variant-ligatures:normal;font-variant-caps:normal;font-variant-numeric:normal;font-feature-settings:normal;text-align:center;writing-mode:lr-tb;text-anchor:middle;fill:#40637d;fill-opacity:1"
       id="path840" /><path
       d="m -238.99375,664.51064 v 0.0797 q 0,1.22655 -0.97169,1.97523 -0.97169,0.74868 -2.59648,0.74868 -1.6248,0 -2.64427,-0.84425 -1.01948,-0.86019 -1.01948,-2.34162 v -2.00709 q 0,-1.56108 1.01948,-2.50091 1.01947,-0.93983 2.62834,-0.93983 1.60886,0 2.61241,0.93983 1.00355,0.9239 1.00355,2.51684 v 1.41771 h -5.71864 v 0.47788 q 0,0.93983 0.57346,1.43364 0.58939,0.47788 1.54515,0.47788 2.02302,0 2.02302,-1.43364 z m -1.49736,-2.15046 v -0.25487 q 0,-0.98762 -0.55753,-1.51329 -0.54159,-0.54159 -1.52921,-0.54159 -0.98762,0 -1.54515,0.54159 -0.55753,0.5416 -0.55753,1.52922 v 0.23894 z"
       style="font-style:normal;font-variant:normal;font-weight:normal;font-stretch:normal;font-size:15.92933273px;font-family:KonsensMedium;-inkscape-font-specification:'KonsensMedium, Normal';font-variant-ligatures:normal;font-variant-caps:normal;font-variant-numeric:normal;font-feature-settings:normal;text-align:center;writing-mode:lr-tb;text-anchor:middle;fill:#40637d;fill-opacity:1"
       id="path842" /><path
       d="m -229.79829,667.17084 h -1.62479 v -5.5912 q 0,-0.60531 -0.33452,-0.98762 -0.31859,-0.39823 -0.90797,-0.39823 -0.5416,0 -1.25842,0.41416 l -1.36992,0.8124 v 5.75049 h -1.59294 v -8.37883 h 1.57701 v 1.09912 l 0.95576,-0.58938 q 0.93983,-0.58939 1.99116,-0.58939 1.17878,0 1.86374,0.73275 0.70089,0.73275 0.70089,1.94338 z"
       style="font-style:normal;font-variant:normal;font-weight:normal;font-stretch:normal;font-size:15.92933273px;font-family:KonsensMedium;-inkscape-font-specification:'KonsensMedium, Normal';font-variant-ligatures:normal;font-variant-caps:normal;font-variant-numeric:normal;font-feature-settings:normal;text-align:center;writing-mode:lr-tb;text-anchor:middle;fill:#40637d;fill-opacity:1"
       id="path844" /><path
       d="m -222.23211,664.70179 v -1.06726 h -2.5009 q -1.59294,0 -1.59294,1.21062 0,0.49381 0.28673,0.78054 0.28673,0.2708 0.8124,0.2708 0.78054,0 1.62479,-0.46195 z m 1.59294,2.46905 h -1.59294 v -1.0832 l -0.9239,0.50974 q -1.24249,0.66903 -2.34161,0.66903 -1.09912,0 -1.78409,-0.6531 -0.66903,-0.6531 -0.66903,-1.70444 0,-1.22656 0.84426,-1.87966 0.86018,-0.6531 2.19824,-0.6531 h 2.69206 v -0.52567 q 0,-1.83187 -1.92745,-1.83187 -2.03895,0 -2.03895,1.64072 h -1.57701 v -0.0797 q 0,-1.36992 0.98762,-2.15046 1.00355,-0.78054 2.61241,-0.78054 1.65665,0 2.58056,0.82833 0.93983,0.8124 0.93983,2.29382 z"
       style="font-style:normal;font-variant:normal;font-weight:normal;font-stretch:normal;font-size:15.92933273px;font-family:KonsensMedium;-inkscape-font-specification:'KonsensMedium, Normal';font-variant-ligatures:normal;font-variant-caps:normal;font-variant-numeric:normal;font-feature-settings:normal;text-align:center;writing-mode:lr-tb;text-anchor:middle;fill:#40637d;fill-opacity:1"
       id="path846" /><path
       d="m -211.49076,667.17084 h -1.57701 v -1.09913 l -0.95576,0.58939 q -1.00354,0.60531 -1.99116,0.58938 -1.17877,0 -1.87966,-0.71682 -0.68497,-0.73275 -0.68497,-1.94337 v -5.79828 h 1.6248 v 5.60712 q 0,0.62125 0.33451,1.00355 0.33452,0.36638 0.90797,0.36638 0.5416,0 1.25842,-0.41417 l 1.36992,-0.81239 v -5.75049 h 1.59294 z"
       style="font-style:normal;font-variant:normal;font-weight:normal;font-stretch:normal;font-size:15.92933273px;font-family:KonsensMedium;-inkscape-font-specification:'KonsensMedium, Normal';font-variant-ligatures:normal;font-variant-caps:normal;font-variant-numeric:normal;font-feature-settings:normal;text-align:center;writing-mode:lr-tb;text-anchor:middle;fill:#40637d;fill-opacity:1"
       id="path848" /><path
       d="m -206.95115,667.17084 h -1.64072 v -6.97705 h -1.32214 v -1.40178 h 1.32214 v -0.60532 q 0,-1.38585 0.84425,-2.1186 0.84426,-0.74868 2.26197,-0.74868 h 1.00355 v 1.41771 h -0.90798 q -0.79646,0 -1.17877,0.36638 -0.3823,0.35044 -0.3823,1.16284 v 0.52567 h 2.45312 v 1.40178 h -2.45312 z"
       style="font-style:normal;font-variant:normal;font-weight:normal;font-stretch:normal;font-size:15.92933273px;font-family:KonsensMedium;-inkscape-font-specification:'KonsensMedium, Normal';font-variant-ligatures:normal;font-variant-caps:normal;font-variant-numeric:normal;font-feature-settings:normal;text-align:center;writing-mode:lr-tb;text-anchor:middle;fill:#40637d;fill-opacity:1"
       id="path850" /><path
       d="m -198.7346,663.26815 h -4.63544 v -1.48143 h 4.63544 z"
       style="font-style:normal;font-variant:normal;font-weight:normal;font-stretch:normal;font-size:15.92933273px;font-family:KonsensMedium;-inkscape-font-specification:'KonsensMedium, Normal';font-variant-ligatures:normal;font-variant-caps:normal;font-variant-numeric:normal;font-feature-settings:normal;text-align:center;writing-mode:lr-tb;text-anchor:middle;fill:#40637d;fill-opacity:1"
       id="path852" /><path
       d="m -299.18585,687.0825 h -7.02483 v -1.38585 l 4.92216,-5.59119 h -4.93809 v -1.40179 h 6.97705 v 1.38586 l -4.89031,5.60712 h 4.95402 z"
       style="font-style:normal;font-variant:normal;font-weight:normal;font-stretch:normal;font-size:15.92933273px;font-family:KonsensMedium;-inkscape-font-specification:'KonsensMedium, Normal';font-variant-ligatures:normal;font-variant-caps:normal;font-variant-numeric:normal;font-feature-settings:normal;text-align:center;writing-mode:lr-tb;text-anchor:middle;fill:#40637d;fill-opacity:1"
       id="path854" /><path
       d="m -290.1574,684.4223 v 0.0797 q 0,1.22656 -0.97169,1.97524 -0.97169,0.74868 -2.59648,0.74868 -1.62479,0 -2.64427,-0.84426 -1.01948,-0.86018 -1.01948,-2.34161 v -2.0071 q 0,-1.56107 1.01948,-2.5009 1.01948,-0.93983 2.62834,-0.93983 1.60886,0 2.61241,0.93983 1.00355,0.9239 1.00355,2.51683 v 1.41771 h -5.71863 v 0.47788 q 0,0.93984 0.57345,1.43364 0.58939,0.47788 1.54515,0.47788 2.02302,0 2.02302,-1.43364 z m -1.49736,-2.15046 v -0.25486 q 0,-0.98762 -0.55752,-1.51329 -0.5416,-0.5416 -1.52922,-0.5416 -0.98762,0 -1.54514,0.5416 -0.55753,0.5416 -0.55753,1.52921 v 0.23894 z"
       style="font-style:normal;font-variant:normal;font-weight:normal;font-stretch:normal;font-size:15.92933273px;font-family:KonsensMedium;-inkscape-font-specification:'KonsensMedium, Normal';font-variant-ligatures:normal;font-variant-caps:normal;font-variant-numeric:normal;font-feature-settings:normal;text-align:center;writing-mode:lr-tb;text-anchor:middle;fill:#40637d;fill-opacity:1"
       id="path856" /><path
       d="m -286.37792,687.0825 h -1.64072 v -8.37883 h 1.64072 z m 0.11151,-11.11867 v 0.33452 q 0,0.36637 -0.2708,0.58938 -0.25487,0.22301 -0.6531,0.22301 -0.43009,0 -0.68496,-0.20708 -0.25487,-0.22301 -0.25487,-0.60531 v -0.33452 q 0,-0.3823 0.25487,-0.58939 0.25487,-0.22301 0.68496,-0.22301 0.39823,0 0.6531,0.22301 0.2708,0.22301 0.2708,0.58939 z"
       style="font-style:normal;font-variant:normal;font-weight:normal;font-stretch:normal;font-size:15.92933273px;font-family:KonsensMedium;-inkscape-font-specification:'KonsensMedium, Normal';font-variant-ligatures:normal;font-variant-caps:normal;font-variant-numeric:normal;font-feature-settings:normal;text-align:center;writing-mode:lr-tb;text-anchor:middle;fill:#40637d;fill-opacity:1"
       id="path858" /><path
       d="m -277.18744,683.97628 v 0.12744 q 0,1.49736 -0.95576,2.30975 -0.95576,0.8124 -2.59648,0.8124 -1.59293,0 -2.56462,-0.86019 -0.95576,-0.87611 -0.95576,-2.40533 v -2.1186 q 0,-1.51328 0.95576,-2.37347 0.97169,-0.87611 2.56462,-0.87611 1.64072,0 2.59648,0.81239 0.95576,0.79647 0.95576,2.29383 v 0.12743 h -1.56107 q 0,-1.81594 -1.99117,-1.81594 -1.92745,0 -1.92745,1.97524 v 1.83187 q 0,1.97524 1.92745,1.97524 1.99117,0 1.99117,-1.81595 z"
       style="font-style:normal;font-variant:normal;font-weight:normal;font-stretch:normal;font-size:15.92933273px;font-family:KonsensMedium;-inkscape-font-specification:'KonsensMedium, Normal';font-variant-ligatures:normal;font-variant-caps:normal;font-variant-numeric:normal;font-feature-settings:normal;text-align:center;writing-mode:lr-tb;text-anchor:middle;fill:#40637d;fill-opacity:1"
       id="path860" /><path
       d="m -268.08158,687.0825 h -1.6248 v -5.59119 q 0,-0.62125 -0.33451,-1.00355 -0.33452,-0.3823 -0.90797,-0.3823 -0.5416,0 -1.25842,0.41416 l -1.36992,0.81239 v 5.75049 h -1.59294 v -11.85142 h 1.59294 v 4.57172 l 0.93983,-0.58939 q 0.98762,-0.58938 1.99116,-0.58938 1.17877,0 1.86374,0.73275 0.70089,0.73275 0.70089,1.94338 z"
       style="font-style:normal;font-variant:normal;font-weight:normal;font-stretch:normal;font-size:15.92933273px;font-family:KonsensMedium;-inkscape-font-specification:'KonsensMedium, Normal';font-variant-ligatures:normal;font-variant-caps:normal;font-variant-numeric:normal;font-feature-settings:normal;text-align:center;writing-mode:lr-tb;text-anchor:middle;fill:#40637d;fill-opacity:1"
       id="path862" /><path
       d="m -258.7791,687.0825 h -1.6248 v -5.59119 q 0,-0.60532 -0.33451,-0.98762 -0.31859,-0.39823 -0.90797,-0.39823 -0.5416,0 -1.25842,0.41416 l -1.36992,0.81239 v 5.75049 h -1.59294 v -8.37883 h 1.57701 v 1.09913 l 0.95576,-0.58939 q 0.93983,-0.58938 1.99116,-0.58938 1.17877,0 1.86374,0.73275 0.70089,0.73275 0.70089,1.94338 z"
       style="font-style:normal;font-variant:normal;font-weight:normal;font-stretch:normal;font-size:15.92933273px;font-family:KonsensMedium;-inkscape-font-specification:'KonsensMedium, Normal';font-variant-ligatures:normal;font-variant-caps:normal;font-variant-numeric:normal;font-feature-settings:normal;text-align:center;writing-mode:lr-tb;text-anchor:middle;fill:#40637d;fill-opacity:1"
       id="path864" /><path
       d="m -249.55627,687.0825 h -1.577 v -1.09912 l -0.95576,0.58938 q -1.00355,0.60532 -1.99117,0.58939 -1.17877,0 -1.87966,-0.71682 -0.68496,-0.73275 -0.68496,-1.94338 v -5.79828 h 1.62479 v 5.60713 q 0,0.62124 0.33452,1.00355 0.33451,0.36637 0.90797,0.36637 0.5416,0 1.25842,-0.41416 l 1.36992,-0.8124 v -5.75049 h 1.59293 z"
       style="font-style:normal;font-variant:normal;font-weight:normal;font-stretch:normal;font-size:15.92933273px;font-family:KonsensMedium;-inkscape-font-specification:'KonsensMedium, Normal';font-variant-ligatures:normal;font-variant-caps:normal;font-variant-numeric:normal;font-feature-settings:normal;text-align:center;writing-mode:lr-tb;text-anchor:middle;fill:#40637d;fill-opacity:1"
       id="path866" /><path
       d="m -240.17414,687.0825 h -1.62479 v -5.59119 q 0,-0.60532 -0.33452,-0.98762 -0.31858,-0.39823 -0.90797,-0.39823 -0.5416,0 -1.25842,0.41416 l -1.36992,0.81239 v 5.75049 h -1.59293 v -8.37883 h 1.577 v 1.09913 l 0.95576,-0.58939 q 0.93983,-0.58938 1.99117,-0.58938 1.17877,0 1.86373,0.73275 0.70089,0.73275 0.70089,1.94338 z"
       style="font-style:normal;font-variant:normal;font-weight:normal;font-stretch:normal;font-size:15.92933273px;font-family:KonsensMedium;-inkscape-font-specification:'KonsensMedium, Normal';font-variant-ligatures:normal;font-variant-caps:normal;font-variant-numeric:normal;font-feature-settings:normal;text-align:center;writing-mode:lr-tb;text-anchor:middle;fill:#40637d;fill-opacity:1"
       id="path868" /><path
       d="m -233.40442,686.44533 h -2.86728 v 0.36637 q 0,1.03541 0.49381,1.52922 0.50974,0.50974 1.72037,0.50974 2.26196,0 2.26196,-1.33806 0,-0.58939 -0.41416,-0.82833 -0.39823,-0.23894 -1.1947,-0.23894 z m -1.48143,-3.67968 h 0.65311 q 1.78408,0 1.78408,-1.40178 0,-1.35399 -1.60886,-1.35399 h -0.78054 q -0.8124,0 -1.22656,0.31859 -0.41416,0.30265 -0.41416,1.08319 0,1.35399 1.59293,1.35399 z m 0.8124,1.22656 h -2.46905 q -0.63717,0 -0.63717,0.60532 0,0.58938 0.60531,0.58938 h 3.34516 q 2.97879,0 2.97879,2.2779 0,1.27434 -1.03541,1.95931 -1.0354,0.70089 -2.75577,0.70089 -3.67968,0 -3.67968,-3.23366 v -0.81239 q -0.82832,-0.38231 -0.82832,-1.48143 0,-0.63718 0.31858,-1.05134 0.31859,-0.41416 0.84426,-0.55753 -0.0637,-0.0478 -0.17523,-0.15929 -0.0956,-0.12743 -0.27079,-0.5416 -0.17523,-0.41416 -0.17523,-0.90797 0,-1.3062 0.8124,-1.99116 0.8124,-0.68497 2.19825,-0.68497 h 4.7788 v 1.38586 h -1.25842 q 0.49381,0.35044 0.49381,1.3062 0,1.21063 -0.84426,1.91152 -0.82832,0.68496 -2.24603,0.68496 z"
       style="font-style:normal;font-variant:normal;font-weight:normal;font-stretch:normal;font-size:15.92933273px;font-family:KonsensMedium;-inkscape-font-specification:'KonsensMedium, Normal';font-variant-ligatures:normal;font-variant-caps:normal;font-variant-numeric:normal;font-feature-settings:normal;text-align:center;writing-mode:lr-tb;text-anchor:middle;fill:#40637d;fill-opacity:1"
       id="path870" /><path
       d="m -221.77327,684.4223 v 0.0797 q 0,1.22656 -0.97169,1.97524 -0.97169,0.74868 -2.59648,0.74868 -1.62479,0 -2.64427,-0.84426 -1.01948,-0.86018 -1.01948,-2.34161 v -2.0071 q 0,-1.56107 1.01948,-2.5009 1.01948,-0.93983 2.62834,-0.93983 1.60886,0 2.61241,0.93983 1.00355,0.9239 1.00355,2.51683 v 1.41771 h -5.71863 v 0.47788 q 0,0.93984 0.57345,1.43364 0.58939,0.47788 1.54515,0.47788 2.02302,0 2.02302,-1.43364 z m -1.49736,-2.15046 v -0.25486 q 0,-0.98762 -0.55752,-1.51329 -0.5416,-0.5416 -1.52922,-0.5416 -0.98762,0 -1.54515,0.5416 -0.55752,0.5416 -0.55752,1.52921 v 0.23894 z"
       style="font-style:normal;font-variant:normal;font-weight:normal;font-stretch:normal;font-size:15.92933273px;font-family:KonsensMedium;-inkscape-font-specification:'KonsensMedium, Normal';font-variant-ligatures:normal;font-variant-caps:normal;font-variant-numeric:normal;font-feature-settings:normal;text-align:center;writing-mode:lr-tb;text-anchor:middle;fill:#40637d;fill-opacity:1"
       id="path872" /><path
       d="m -212.57782,687.0825 h -1.62479 v -5.59119 q 0,-0.60532 -0.33451,-0.98762 -0.31859,-0.39823 -0.90798,-0.39823 -0.54159,0 -1.25841,0.41416 l -1.36993,0.81239 v 5.75049 h -1.59293 v -8.37883 h 1.577 v 1.09913 l 0.95576,-0.58939 q 0.93983,-0.58938 1.99117,-0.58938 1.17877,0 1.86373,0.73275 0.70089,0.73275 0.70089,1.94338 z"
       style="font-style:normal;font-variant:normal;font-weight:normal;font-stretch:normal;font-size:15.92933273px;font-family:KonsensMedium;-inkscape-font-specification:'KonsensMedium, Normal';font-variant-ligatures:normal;font-variant-caps:normal;font-variant-numeric:normal;font-feature-settings:normal;text-align:center;writing-mode:lr-tb;text-anchor:middle;fill:#40637d;fill-opacity:1"
       id="path874" /></g></svg>