<?xml version="1.0" encoding="UTF-8" standalone="no"?>
<!-- Generator: Adobe Illustrator 19.1.0, SVG Export Plug-In . SVG Version: 6.00 Build 0)  -->

<svg
   xmlns:dc="http://purl.org/dc/elements/1.1/"
   xmlns:cc="http://creativecommons.org/ns#"
   xmlns:rdf="http://www.w3.org/1999/02/22-rdf-syntax-ns#"
   xmlns:svg="http://www.w3.org/2000/svg"
   xmlns="http://www.w3.org/2000/svg"
   xmlns:sodipodi="http://sodipodi.sourceforge.net/DTD/sodipodi-0.dtd"
   xmlns:inkscape="http://www.inkscape.org/namespaces/inkscape"
   version="1.1"
   id="Calque_1"
   x="0px"
   y="0px"
   viewBox="-330 571.3 138.60001 138.60001"
   xml:space="preserve"
   sodipodi:docname="main_menu_logo_contact-bg.svg"
   inkscape:version="0.92.4 (5da689c313, 2019-01-14)"
   width="138.60001"
   height="138.60001"><metadata
   id="metadata43"><rdf:RDF><cc:Work
       rdf:about=""><dc:format>image/svg+xml</dc:format><dc:type
         rdf:resource="http://purl.org/dc/dcmitype/StillImage" /><dc:title /></cc:Work></rdf:RDF></metadata><defs
   id="defs41" /><sodipodi:namedview
   pagecolor="#ffffff"
   bordercolor="#666666"
   borderopacity="1"
   objecttolerance="10"
   gridtolerance="10"
   guidetolerance="10"
   inkscape:pageopacity="0"
   inkscape:pageshadow="2"
   inkscape:window-width="1920"
   inkscape:window-height="1017"
   id="namedview39"
   showgrid="false"
   inkscape:zoom="3"
   inkscape:cx="-54.466654"
   inkscape:cy="69.350001"
   inkscape:window-x="-8"
   inkscape:window-y="-8"
   inkscape:window-maximized="1"
   inkscape:current-layer="text4541"
   fit-margin-top="0"
   fit-margin-left="0"
   fit-margin-right="0"
   fit-margin-bottom="0" /><style
   type="text/css"
   id="style2">
	.st0{fill:#E8E493;}
	.st1{fill:#40637D;}
	.st2{fill:#FFFFFF;}
</style><g
   id="g6"
   transform="translate(0,-0.1)"><path
     class="st0"
     d="m -330,640.7 c 0,-38.3 31,-69.3 69.3,-69.3 38.3,0 69.3,31 69.3,69.3 0,38.3 -31,69.3 -69.3,69.3 -38.3,0 -69.3,-31 -69.3,-69.3"
     id="path4"
     style="fill:#ff7837;fill-opacity:1"
     inkscape:connector-curvature="0" /></g><g
   id="g36"
   transform="translate(0,-16.363454)"><g
     id="g30"><path
       class="st2"
       d="m -272.3,659 c 0,0.4 0.2,0.8 0.6,1 0.4,0.2 0.8,0.2 1.2,-0.1 l 7.7,-5.3 -9.5,-4.5 z"
       id="path28"
       inkscape:connector-curvature="0"
       style="fill:#ffffff" /></g><g
     id="g34"><path
       class="st2"
       d="m -226.4,599.6 c -0.2,-0.2 -0.5,-0.3 -0.8,-0.3 -0.2,0 -0.3,0 -0.5,0.1 l -66.6,32.7 c -0.7,0.3 -1.1,1 -1.1,1.8 0,0.8 0.4,1.5 1.1,1.8 l 17.6,8.4 35.1,-28.9 -30.8,30.9 21.9,10.4 c 0.3,0.1 0.6,0.2 0.9,0.2 0.2,0 0.5,0 0.7,-0.1 0.5,-0.2 0.9,-0.6 1.1,-1.1 l 21.7,-54.6 c 0.2,-0.5 0.1,-1 -0.3,-1.3"
       id="path32"
       inkscape:connector-curvature="0"
       style="fill:#ffffff" /></g></g><g
   aria-label="Свържете се 
с нас"
   style="font-style:normal;font-variant:normal;font-weight:normal;font-stretch:normal;font-size:15.46666718px;line-height:1.25;font-family:KonsensMedium;-inkscape-font-specification:'KonsensMedium, Normal';font-variant-ligatures:normal;font-variant-caps:normal;font-variant-numeric:normal;font-feature-settings:normal;text-align:center;letter-spacing:0px;word-spacing:0px;writing-mode:lr-tb;text-anchor:middle;fill:#ffffff;fill-opacity:1;stroke:none"
   id="text4541"><path
     d="m -301.56434,667.59801 q -0.41536,0.18125 -0.75521,0.33984 -0.33229,0.1586 -0.87604,0.3323 -0.46068,0.14349 -1.00443,0.24166 -0.53619,0.10573 -1.18567,0.10573 -1.22344,0 -2.22787,-0.33984 -0.99687,-0.3474 -1.73698,-1.07995 -0.725,-0.71745 -1.13281,-1.82005 -0.40781,-1.11016 -0.40781,-2.57526 0,-1.38959 0.39271,-2.48464 0.3927,-1.09505 1.13281,-1.85026 0.71745,-0.73255 1.72943,-1.11771 1.01953,-0.38515 2.25807,-0.38515 0.90625,0 1.80495,0.21901 0.90625,0.21901 2.00885,0.77031 v 1.77474 h -0.11328 q -0.92891,-0.77787 -1.84271,-1.13281 -0.9138,-0.35495 -1.95599,-0.35495 -0.85338,0 -1.54062,0.27943 -0.67969,0.27187 -1.21589,0.85338 -0.52109,0.56641 -0.81562,1.4349 -0.28698,0.86093 -0.28698,1.99375 0,1.18567 0.31719,2.03906 0.32473,0.85339 0.83072,1.38958 0.52865,0.55886 1.23099,0.83073 0.7099,0.26433 1.49532,0.26433 1.07994,0 2.02395,-0.37006 0.94402,-0.37005 1.76719,-1.11015 h 0.10573 z"
     style=""
     id="path825" /><path
     d="m -292.58491,665.86103 q 0,0.61172 -0.24922,1.0875 -0.24167,0.47578 -0.67214,0.79297 -0.48333,0.35495 -1.05729,0.51354 -0.5664,0.1586 -1.49531,0.1586 h -3.48906 v -8.43568 h 3.2625 q 0.94401,0 1.41979,0.068 0.48333,0.0604 0.90625,0.27942 0.47578,0.24922 0.69479,0.64948 0.22656,0.40026 0.22656,0.94401 0,0.62683 -0.35494,1.0875 -0.35495,0.46068 -0.91381,0.71745 v 0.0755 q 0.74766,0.18125 1.23099,0.70235 0.49089,0.51354 0.49089,1.35937 z m -1.91068,-3.72318 q 0,-0.27187 -0.12083,-0.49088 -0.11328,-0.21901 -0.35495,-0.33985 -0.31719,-0.15859 -0.71745,-0.17369 -0.39271,-0.0227 -0.97422,-0.0227 h -1.4802 v 2.31094 h 1.77474 q 0.55885,0 0.82317,-0.0378 0.27188,-0.0453 0.54375,-0.21146 0.28698,-0.18125 0.39271,-0.42292 0.11328,-0.24922 0.11328,-0.61172 z m 0.44557,3.73073 q 0,-0.41536 -0.13593,-0.67213 -0.13594,-0.26433 -0.59662,-0.48334 -0.28698,-0.13593 -0.61927,-0.15859 -0.33229,-0.0302 -0.92135,-0.0302 h -1.82005 v 2.75651 h 1.34427 q 0.84583,0 1.29895,-0.0529 0.46068,-0.0604 0.79297,-0.24922 0.3323,-0.1888 0.49089,-0.46068 0.16614,-0.27187 0.16614,-0.64948 z"
     style=""
     id="path827" /><path
     d="m -283.98309,665.82327 q 0,-0.38516 -0.13594,-0.67213 -0.12838,-0.29454 -0.43046,-0.47579 -0.31719,-0.1888 -0.725,-0.22656 -0.40026,-0.0378 -1.15547,-0.0378 h -1.32917 v 2.86979 h 1.29896 q 0.75521,0 1.17057,-0.0604 0.41537,-0.068 0.71745,-0.24922 0.30964,-0.19636 0.44557,-0.46068 0.14349,-0.27187 0.14349,-0.68724 z m 1.46511,-0.0227 q 0,0.61172 -0.24922,1.11016 -0.24167,0.49844 -0.66459,0.80807 -0.49843,0.37761 -1.06484,0.5362 -0.56641,0.1586 -1.45755,0.1586 h -3.22474 v -7.18959 h -2.47708 v -1.24609 h 3.89687 v 3.28515 h 1.84271 q 0.95156,0 1.47266,0.0982 0.52864,0.0982 1.04973,0.48333 0.43803,0.32474 0.65704,0.83073 0.21901,0.50599 0.21901,1.12526 z"
     style=""
     id="path829" /><path
     d="m -273.00236,664.09384 q 0,1.02709 -0.29453,1.88047 -0.29453,0.84584 -0.83073,1.4349 -0.49844,0.55885 -1.17812,0.86849 -0.67214,0.30208 -1.42735,0.30208 -0.65703,0 -1.19323,-0.14349 -0.52864,-0.14349 -1.07995,-0.44557 v 3.53437 h -1.41979 v -11.54713 h 1.41979 v 0.88359 q 0.56641,-0.47578 1.26875,-0.79297 0.7099,-0.32474 1.51042,-0.32474 1.52552,0 2.37136,1.15547 0.85338,1.14792 0.85338,3.19453 z m -1.4651,0.0378 q 0,-1.52552 -0.5211,-2.28073 -0.52109,-0.7552 -1.60104,-0.7552 -0.61172,0 -1.23099,0.26432 -0.61927,0.26432 -1.18568,0.69479 v 4.78047 q 0.60417,0.27187 1.03464,0.37005 0.43802,0.0982 0.98932,0.0982 1.18568,0 1.85026,-0.80052 0.66459,-0.80052 0.66459,-2.37136 z"
     style=""
     id="path831" /><path
     d="m -260.20913,668.41364 h -1.71432 l -2.70365,-3.85157 h -0.68724 v 3.85157 h -1.40468 v -3.85157 h -0.61172 l -2.82448,3.85157 h -1.63881 l 3.25495,-4.41797 q -0.37005,-0.19636 -0.65703,-0.55886 -0.27943,-0.3625 -0.51354,-1.09505 -0.20391,-0.64193 -0.48333,-0.89115 -0.27943,-0.24921 -0.91381,-0.24921 h -0.40026 v -1.22344 h 0.5211 q 0.93646,0 1.50286,0.3776 0.56641,0.37761 0.90625,1.32162 0.068,0.19635 0.16615,0.45312 0.10573,0.24922 0.18125,0.42292 0.24922,0.57396 0.63437,0.81562 0.39271,0.23412 0.87605,0.26433 v -3.65521 h 1.40468 v 3.65521 q 0.48334,-0.0302 0.87604,-0.27188 0.40026,-0.24167 0.64948,-0.80807 0.0831,-0.1888 0.18125,-0.43802 0.10573,-0.24922 0.16615,-0.43802 0.33229,-0.92891 0.89115,-1.31407 0.55885,-0.38515 1.50286,-0.38515 h 0.52109 v 1.22344 h -0.40026 q -0.64192,0 -0.9289,0.26432 -0.27943,0.26432 -0.46823,0.87604 -0.21146,0.67214 -0.50599,1.04974 -0.28698,0.37005 -0.62682,0.55885 z"
     style=""
     id="path833" /><path
     d="m -251.37319,664.34306 h -6.21537 q 0,0.77787 0.23412,1.35938 0.23411,0.57396 0.64193,0.94401 0.3927,0.3625 0.9289,0.54375 0.54375,0.18125 1.19323,0.18125 0.86094,0 1.72943,-0.33985 0.87604,-0.34739 1.24609,-0.67968 h 0.0755 v 1.54817 q -0.71744,0.30209 -1.4651,0.50599 -0.74766,0.20391 -1.57083,0.20391 -2.09948,0 -3.27761,-1.13281 -1.17812,-1.14037 -1.17812,-3.23229 0,-2.06928 1.12526,-3.28516 1.13281,-1.21589 2.97552,-1.21589 1.70677,0 2.62812,0.99688 0.92891,0.99687 0.92891,2.83203 z m -1.38203,-1.0875 q -0.008,-1.11771 -0.56641,-1.72942 -0.5513,-0.61172 -1.68411,-0.61172 -1.14037,0 -1.82005,0.67213 -0.67214,0.67214 -0.76277,1.66901 z"
     style=""
     id="path835" /><path
     d="m -243.02059,661.22405 h -3.05104 v 7.18959 h -1.41979 v -7.18959 h -3.05104 v -1.24609 h 7.52187 z"
     style=""
     id="path837" /><path
     d="m -234.48673,664.34306 h -6.21537 q 0,0.77787 0.23411,1.35938 0.23412,0.57396 0.64193,0.94401 0.39271,0.3625 0.92891,0.54375 0.54375,0.18125 1.19323,0.18125 0.86094,0 1.72942,-0.33985 0.87605,-0.34739 1.2461,-0.67968 h 0.0755 v 1.54817 q -0.71745,0.30209 -1.4651,0.50599 -0.74766,0.20391 -1.57084,0.20391 -2.09948,0 -3.2776,-1.13281 -1.17813,-1.14037 -1.17813,-3.23229 0,-2.06928 1.12526,-3.28516 1.13282,-1.21589 2.97552,-1.21589 1.70677,0 2.62813,0.99688 0.92891,0.99687 0.92891,2.83203 z m -1.38204,-1.0875 q -0.008,-1.11771 -0.5664,-1.72942 -0.5513,-0.61172 -1.68412,-0.61172 -1.14036,0 -1.82005,0.67213 -0.67213,0.67214 -0.76276,1.66901 z"
     style=""
     id="path839" /><path
     d="m -220.58334,667.88499 q -0.86849,0.40781 -1.49532,0.55885 -0.61927,0.1586 -1.23854,0.1586 -0.92135,0 -1.69167,-0.26433 -0.77031,-0.27187 -1.32161,-0.81562 -0.5513,-0.54375 -0.86094,-1.37448 -0.30208,-0.83073 -0.30208,-1.94089 0,-2.0164 1.11771,-3.21718 1.11771,-1.20834 3.05859,-1.20834 0.73255,0 1.4349,0.20391 0.70989,0.20391 1.29896,0.49844 v 1.57838 h -0.0831 q -0.70234,-0.53619 -1.38958,-0.79297 -0.67969,-0.25677 -1.32162,-0.25677 -1.26119,0 -1.95598,0.84584 -0.68724,0.84583 -0.68724,2.34869 0,1.50287 0.68724,2.3336 0.68723,0.83073 1.95598,0.83073 0.44558,0 0.8836,-0.11328 0.44557,-0.11328 0.80807,-0.29453 0.28698,-0.14349 0.58906,-0.33985 0.30964,-0.2039 0.43047,-0.30208 h 0.0831 z"
     style=""
     id="path841" /><path
     d="m -211.5586,664.34306 h -6.21537 q 0,0.77787 0.23412,1.35938 0.23411,0.57396 0.64192,0.94401 0.39271,0.3625 0.92891,0.54375 0.54375,0.18125 1.19323,0.18125 0.86094,0 1.72943,-0.33985 0.87604,-0.34739 1.24609,-0.67968 h 0.0755 v 1.54817 q -0.71745,0.30209 -1.4651,0.50599 -0.74766,0.20391 -1.57084,0.20391 -2.09948,0 -3.2776,-1.13281 -1.17813,-1.14037 -1.17813,-3.23229 0,-2.06928 1.12526,-3.28516 1.13282,-1.21589 2.97552,-1.21589 1.70678,0 2.62813,0.99688 0.92891,0.99687 0.92891,2.83203 z m -1.38204,-1.0875 q -0.008,-1.11771 -0.5664,-1.72942 -0.5513,-0.61172 -1.68412,-0.61172 -1.14036,0 -1.82005,0.67213 -0.67213,0.67214 -0.76276,1.66901 z"
     style=""
     id="path843" /><path
     d="m -274.14272,687.36788 q -0.86849,0.40781 -1.49532,0.55886 -0.61927,0.15859 -1.23854,0.15859 -0.92135,0 -1.69166,-0.26432 -0.77032,-0.27188 -1.32162,-0.81563 -0.5513,-0.54375 -0.86094,-1.37448 -0.30208,-0.83073 -0.30208,-1.94088 0,-2.01641 1.11771,-3.21719 1.11771,-1.20833 3.05859,-1.20833 0.73255,0 1.4349,0.2039 0.70989,0.20391 1.29896,0.49844 v 1.57838 h -0.0831 q -0.70234,-0.53619 -1.38958,-0.79296 -0.67969,-0.25677 -1.32161,-0.25677 -1.2612,0 -1.95599,0.84583 -0.68724,0.84583 -0.68724,2.3487 0,1.50286 0.68724,2.33359 0.68724,0.83073 1.95599,0.83073 0.44557,0 0.88359,-0.11328 0.44557,-0.11328 0.80807,-0.29453 0.28698,-0.14349 0.58907,-0.33985 0.30963,-0.2039 0.43046,-0.30208 h 0.0831 z"
     style=""
     id="path845" /><path
     d="m -259.68048,687.89653 h -1.4198 v -3.7987 h -4.22161 v 3.7987 h -1.41979 v -8.43568 h 1.41979 v 3.41354 h 4.22161 v -3.41354 h 1.4198 z"
     style=""
     id="path847" /><path
     d="m -250.33856,687.89653 h -1.41224 v -0.8987 q -0.1888,0.12838 -0.51354,0.3625 -0.31719,0.22656 -0.61927,0.3625 -0.35495,0.1737 -0.81562,0.28698 -0.46068,0.12083 -1.07995,0.12083 -1.14037,0 -1.93333,-0.75521 -0.79297,-0.75521 -0.79297,-1.92578 0,-0.95911 0.40781,-1.54818 0.41536,-0.59661 1.17812,-0.93645 0.77032,-0.33985 1.85026,-0.46068 1.07995,-0.12083 2.31849,-0.18125 v -0.21901 q 0,-0.48333 -0.17369,-0.80052 -0.16615,-0.31719 -0.48334,-0.49844 -0.30208,-0.1737 -0.725,-0.23411 -0.42291,-0.0604 -0.88359,-0.0604 -0.55886,0 -1.24609,0.15104 -0.68724,0.14349 -1.4198,0.42292 h -0.0755 v -1.44245 q 0.41537,-0.11328 1.20078,-0.24922 0.78542,-0.13594 1.54818,-0.13594 0.89115,0 1.54818,0.15105 0.66458,0.14348 1.14791,0.49843 0.47579,0.3474 0.725,0.8987 0.24922,0.5513 0.24922,1.36693 z m -1.41224,-2.07683 v -2.34869 q -0.64948,0.0378 -1.53307,0.11328 -0.87604,0.0755 -1.38958,0.21901 -0.61172,0.1737 -0.98933,0.54375 -0.3776,0.3625 -0.3776,1.00442 0,0.725 0.43802,1.09506 0.43802,0.3625 1.33672,0.3625 0.74766,0 1.36693,-0.28698 0.61927,-0.29453 1.14791,-0.70235 z"
     style=""
     id="path849" /><path
     d="m -241.27605,687.36788 q -0.86849,0.40781 -1.49532,0.55886 -0.61927,0.15859 -1.23854,0.15859 -0.92135,0 -1.69167,-0.26432 -0.77031,-0.27188 -1.32161,-0.81563 -0.5513,-0.54375 -0.86094,-1.37448 -0.30208,-0.83073 -0.30208,-1.94088 0,-2.01641 1.11771,-3.21719 1.11771,-1.20833 3.05859,-1.20833 0.73255,0 1.4349,0.2039 0.70989,0.20391 1.29896,0.49844 v 1.57838 h -0.0831 q -0.70234,-0.53619 -1.38958,-0.79296 -0.67969,-0.25677 -1.32162,-0.25677 -1.26119,0 -1.95598,0.84583 -0.68724,0.84583 -0.68724,2.3487 0,1.50286 0.68724,2.33359 0.68723,0.83073 1.95598,0.83073 0.44558,0 0.8836,-0.11328 0.44557,-0.11328 0.80807,-0.29453 0.28698,-0.14349 0.58906,-0.33985 0.30964,-0.2039 0.43047,-0.30208 h 0.0831 z"
     style=""
     id="path851" /></g>




</svg>