<?xml version="1.0" encoding="UTF-8" standalone="no"?>
<!-- Generator: Adobe Illustrator 19.1.0, SVG Export Plug-In . SVG Version: 6.00 Build 0)  -->

<svg
   xmlns:dc="http://purl.org/dc/elements/1.1/"
   xmlns:cc="http://creativecommons.org/ns#"
   xmlns:rdf="http://www.w3.org/1999/02/22-rdf-syntax-ns#"
   xmlns:svg="http://www.w3.org/2000/svg"
   xmlns="http://www.w3.org/2000/svg"
   xmlns:sodipodi="http://sodipodi.sourceforge.net/DTD/sodipodi-0.dtd"
   xmlns:inkscape="http://www.inkscape.org/namespaces/inkscape"
   version="1.1"
   id="Calque_1"
   x="0px"
   y="0px"
   viewBox="-330 571.3 138.7 138.7"
   style="enable-background:new -330 571.3 138.7 138.7;"
   xml:space="preserve"
   sodipodi:docname="main_menu_logo_report_sighting-.svg"
   inkscape:version="0.92.4 (5da689c313, 2019-01-14)"><metadata
   id="metadata69"><rdf:RDF><cc:Work
       rdf:about=""><dc:format>image/svg+xml</dc:format><dc:type
         rdf:resource="http://purl.org/dc/dcmitype/StillImage" /><dc:title></dc:title></cc:Work></rdf:RDF></metadata><defs
   id="defs67" /><sodipodi:namedview
   pagecolor="#ffffff"
   bordercolor="#666666"
   borderopacity="1"
   objecttolerance="10"
   gridtolerance="10"
   guidetolerance="10"
   inkscape:pageopacity="0"
   inkscape:pageshadow="2"
   inkscape:window-width="1536"
   inkscape:window-height="801"
   id="namedview65"
   showgrid="false"
   inkscape:zoom="3"
   inkscape:cx="63.47937"
   inkscape:cy="69.349998"
   inkscape:window-x="-8"
   inkscape:window-y="-8"
   inkscape:window-maximized="1"
   inkscape:current-layer="Calque_1" /><style
   type="text/css"
   id="style2">
	.st0{fill:#7A9C2B;}
	.st1{fill:#FFFFFF;}
</style><g
   id="g6"><path
     class="st0"
     d="m -329.67339,640.7 c 0,-38.3 31,-69.3 69.3,-69.3 38.3,0 69.3,31 69.3,69.3 0,38.3 -31,69.3 -69.3,69.3 -38.3,0 -69.3,-31 -69.3,-69.3"
     id="path4"
     style="fill:#7a9c2b;fill-opacity:1"
     inkscape:connector-curvature="0" /></g><g
   id="g62"
   transform="translate(0.32660803,-4.10002)"><g
     id="g44"><path
       class="st1"
       d="m -246.4,604.3 c -1.5,-0.4 -5.1,-1 -5.1,-1 0,0 -4.9,-3.9 -9.2,-3.9 -4.3,0 -9.2,3.9 -9.2,3.9 0,0 -3.6,0.6 -5.1,1 6.7,2.4 11.5,8.9 11.5,16.4 0,3.1 -0.8,6 -2.2,8.5 h 10 c -1.4,-2.5 -2.2,-5.4 -2.2,-8.5 0,-7.5 4.8,-13.9 11.5,-16.4"
       id="path42"
       inkscape:connector-curvature="0"
       style="fill:#ffffff" /></g><g
     id="g48"><path
       class="st1"
       d="m -281.9,605.1 c -9,0 -16.3,7.3 -16.3,16.3 0,9 7.3,16.3 16.3,16.3 9,0 16.3,-7.3 16.3,-16.3 0,-9 -7.3,-16.3 -16.3,-16.3 m 0,26.6 c -5.7,0 -10.3,-4.6 -10.3,-10.3 0,-5.7 4.6,-10.3 10.3,-10.3 5.7,0 10.3,4.6 10.3,10.3 0,5.6 -4.6,10.3 -10.3,10.3"
       id="path46"
       inkscape:connector-curvature="0"
       style="fill:#ffffff" /></g><g
     id="g52"><path
       class="st1"
       d="m -288.5,616.2 c -2.2,2.9 -2,6.9 0.3,9.5 -0.8,-2.7 -0.4,-5.8 1.5,-8.2 1.9,-2.4 4.7,-3.6 7.5,-3.5 -3.2,-1.5 -7.1,-0.7 -9.3,2.2"
       id="path50"
       inkscape:connector-curvature="0"
       style="fill:#ffffff" /></g><g
     id="g56"><path
       class="st1"
       d="m -239.5,605.1 c -9,0 -16.3,7.3 -16.3,16.3 0,9 7.3,16.3 16.3,16.3 9,0 16.3,-7.3 16.3,-16.3 0,-9 -7.3,-16.3 -16.3,-16.3 m 0,26.6 c -5.7,0 -10.3,-4.6 -10.3,-10.3 0,-5.7 4.6,-10.3 10.3,-10.3 5.7,0 10.3,4.6 10.3,10.3 0,5.6 -4.6,10.3 -10.3,10.3"
       id="path54"
       inkscape:connector-curvature="0"
       style="fill:#ffffff" /></g><g
     id="g60"><path
       class="st1"
       d="m -242.1,614 c 2.8,-0.1 5.7,1.1 7.5,3.5 1.9,2.4 2.3,5.5 1.5,8.2 2.3,-2.7 2.5,-6.6 0.3,-9.5 -2.2,-2.9 -6.1,-3.7 -9.3,-2.2"
       id="path58"
       inkscape:connector-curvature="0"
       style="fill:#ffffff" /></g></g><g
   aria-label="Report
a sighting"
   style="font-style:normal;font-variant:normal;font-weight:normal;font-stretch:normal;font-size:15.92933273px;line-height:1.25;font-family:KonsensMedium;-inkscape-font-specification:'KonsensMedium, Normal';font-variant-ligatures:normal;font-variant-caps:normal;font-variant-numeric:normal;font-feature-settings:normal;text-align:center;letter-spacing:0px;word-spacing:0px;writing-mode:lr-tb;text-anchor:middle;fill:#ffffff;fill-opacity:1;stroke:none"
   id="text73"><path
     d="m -275.93971,672.09857 h -1.94338 l -2.30975,-4.60358 h -2.81949 v 4.60358 h -1.7363 v -11.85142 h 5.08146 q 1.56107,0 2.59648,0.95576 1.0354,0.95576 1.0354,2.64427 0,1.27434 -0.66903,2.15046 -0.66903,0.87611 -1.73629,1.24249 z m -7.07262,-6.10093 h 3.13808 q 0.93983,0 1.51328,-0.57346 0.58939,-0.58938 0.58939,-1.59293 0,-0.98762 -0.5416,-1.52922 -0.5416,-0.5416 -1.48143,-0.5416 h -3.21772 z"
     style=""
     id="path896" /><path
     d="m -267.36948,669.43837 v 0.0797 q 0,1.22656 -0.97169,1.97524 -0.97169,0.74868 -2.59648,0.74868 -1.6248,0 -2.64427,-0.84426 -1.01948,-0.86018 -1.01948,-2.34161 v -2.0071 q 0,-1.56107 1.01948,-2.5009 1.01947,-0.93983 2.62834,-0.93983 1.60886,0 2.61241,0.93983 1.00355,0.9239 1.00355,2.51683 v 1.41771 h -5.71864 v 0.47788 q 0,0.93983 0.57346,1.43364 0.58939,0.47788 1.54515,0.47788 2.02302,0 2.02302,-1.43364 z m -1.49736,-2.15046 v -0.25487 q 0,-0.98761 -0.55753,-1.51328 -0.54159,-0.5416 -1.52921,-0.5416 -0.98762,0 -1.54515,0.5416 -0.55753,0.54159 -0.55753,1.52921 v 0.23894 z"
     style=""
     id="path898" /><path
     d="m -259.41278,669.16757 v -2.53276 q 0,-0.70089 -0.39823,-1.11505 -0.39823,-0.43009 -1.06727,-0.43009 -0.66903,0 -1.32213,0.36637 l -1.48143,0.82833 v 3.23365 l 1.48143,0.82833 q 0.6531,0.36637 1.32213,0.36637 0.66904,0 1.06727,-0.41416 0.39823,-0.43009 0.39823,-1.13099 z m -4.26906,5.862 h -1.577 v -11.30983 h 1.56107 v 1.01948 l 1.03541,-0.57346 q 0.95576,-0.54159 1.99117,-0.54159 1.25841,0 2.03895,0.78053 0.79647,0.78054 0.79647,2.03896 v 2.86728 q 0,1.25842 -0.79647,2.07081 -0.79647,0.79647 -2.05488,0.79647 -1.01948,0 -1.97524,-0.5416 l -1.01948,-0.57345 z"
     style=""
     id="path900" /><path
     d="m -250.06774,668.67377 v -1.48143 q 0,-1.01948 -0.60531,-1.59294 -0.58939,-0.57345 -1.56108,-0.57345 -0.98761,0 -1.577,0.57345 -0.58938,0.57346 -0.58938,1.59294 v 1.48143 q 0,1.01947 0.58938,1.60886 0.58939,0.57345 1.577,0.57345 0.97169,0 1.56108,-0.57345 0.60531,-0.57346 0.60531,-1.60886 z m 1.56108,-1.6248 v 1.78409 q 0,1.56107 -1.05134,2.5009 -1.0354,0.93983 -2.67613,0.93983 -1.64072,0 -2.69205,-0.93983 -1.03541,-0.93983 -1.03541,-2.5009 v -1.78409 q 0,-1.56107 1.03541,-2.5009 1.05133,-0.93983 2.69205,-0.93983 1.64073,0 2.67613,0.93983 1.05134,0.93983 1.05134,2.5009 z"
     style=""
     id="path902" /><path
     d="m -244.8113,672.09857 h -1.6248 v -8.37883 h 1.59294 v 1.27435 l 0.3823,-0.3823 q 1.00355,-0.92391 2.18232,-0.92391 h 0.43009 v 1.65665 h -0.41416 q -1.0832,0 -1.8478,0.63718 l -0.70089,0.57345 z"
     style=""
     id="path904" /><path
     d="m -235.77937,672.09857 h -1.05134 q -1.43364,0 -2.26196,-0.73275 -0.82833,-0.73275 -0.82833,-2.13453 v -4.10977 h -1.33806 v -1.40178 h 1.35399 v -2.26196 h 1.62479 v 2.26196 h 2.43719 v 1.40178 h -2.43719 v 4.03013 q 0,0.82832 0.36638,1.17877 0.3823,0.33451 1.17877,0.33451 h 0.95576 z"
     style=""
     id="path906" /><path
     d="m -290.87856,689.54119 v -1.06726 h -2.50091 q -1.59293,0 -1.59293,1.21063 0,0.4938 0.28673,0.78053 0.28673,0.2708 0.81239,0.2708 0.78054,0 1.6248,-0.46195 z m 1.59293,2.46905 h -1.59293 v -1.0832 l -0.9239,0.50974 q -1.24249,0.66903 -2.34161,0.66903 -1.09913,0 -1.78409,-0.6531 -0.66903,-0.6531 -0.66903,-1.70444 0,-1.22656 0.84425,-1.87966 0.86019,-0.6531 2.19825,-0.6531 h 2.69206 v -0.52567 q 0,-1.83187 -1.92745,-1.83187 -2.03896,0 -2.03896,1.64072 h -1.577 v -0.0797 q 0,-1.36992 0.98762,-2.15046 1.00355,-0.78054 2.61241,-0.78054 1.65665,0 2.58055,0.82833 0.93983,0.8124 0.93983,2.29382 z"
     style=""
     id="path908" /><path
     d="m -275.85123,686.30754 h -1.59293 q 0,-1.43364 -1.87966,-1.43364 -0.89204,0 -1.36992,0.31858 -0.46196,0.31859 -0.46196,0.84426 0,0.49381 0.39824,0.76461 0.39823,0.27079 0.98762,0.33451 0.58938,0.0637 1.27434,0.19115 0.70089,0.12744 1.29028,0.30266 0.58938,0.15929 0.98762,0.6531 0.39823,0.49381 0.39823,1.29028 0,1.17877 -0.93983,1.87966 -0.93983,0.68496 -2.58055,0.68496 -1.65665,0 -2.61241,-0.74868 -0.93983,-0.74867 -0.93983,-1.97523 v -0.0797 h 1.64072 q 0,1.44957 1.94338,1.44957 0.9239,0 1.41771,-0.30266 0.50974,-0.31858 0.50974,-0.84425 0,-0.52567 -0.55753,-0.76461 -0.5416,-0.23894 -1.32213,-0.33452 -0.78054,-0.0956 -1.57701,-0.25487 -0.78054,-0.15929 -1.33806,-0.70089 -0.5416,-0.55752 -0.5416,-1.51328 0,-1.17877 0.90797,-1.86374 0.9239,-0.68496 2.51684,-0.68496 1.64072,0 2.53276,0.74868 0.90797,0.73275 0.90797,1.97524 z"
     style=""
     id="path910" /><path
     d="m -272.18872,692.01024 h -1.64073 v -8.37883 h 1.64073 z m 0.1115,-11.11868 v 0.33452 q 0,0.36637 -0.2708,0.58938 -0.25487,0.22302 -0.6531,0.22302 -0.43009,0 -0.68496,-0.20709 -0.25487,-0.22301 -0.25487,-0.60531 v -0.33452 q 0,-0.3823 0.25487,-0.58938 0.25487,-0.22301 0.68496,-0.22301 0.39823,0 0.6531,0.22301 0.2708,0.22301 0.2708,0.58938 z"
     style=""
     id="path912" /><path
     d="m -265.29207,691.37306 h -2.86728 v 0.36638 q 0,1.03541 0.49381,1.52921 0.50974,0.50974 1.72037,0.50974 2.26196,0 2.26196,-1.33806 0,-0.58939 -0.41416,-0.82833 -0.39823,-0.23894 -1.1947,-0.23894 z m -1.48143,-3.67967 h 0.6531 q 1.78409,0 1.78409,-1.40178 0,-1.354 -1.60886,-1.354 h -0.78054 q -0.8124,0 -1.22656,0.31859 -0.41416,0.30266 -0.41416,1.0832 0,1.35399 1.59293,1.35399 z m 0.8124,1.22656 h -2.46905 q -0.63717,0 -0.63717,0.60531 0,0.58939 0.60531,0.58939 h 3.34516 q 2.97879,0 2.97879,2.27789 0,1.27435 -1.03541,1.95931 -1.03541,0.70089 -2.75577,0.70089 -3.67968,0 -3.67968,-3.23365 v -0.8124 q -0.82832,-0.3823 -0.82832,-1.48143 0,-0.63717 0.31858,-1.05133 0.31859,-0.41417 0.84426,-0.55753 -0.0637,-0.0478 -0.17523,-0.15929 -0.0956,-0.12744 -0.27079,-0.5416 -0.17523,-0.41416 -0.17523,-0.90797 0,-1.30621 0.8124,-1.99117 0.81239,-0.68496 2.19825,-0.68496 h 4.7788 v 1.38585 h -1.25842 q 0.49381,0.35045 0.49381,1.30621 0,1.21063 -0.84426,1.91152 -0.82832,0.68496 -2.24603,0.68496 z"
     style=""
     id="path914" /><path
     d="m -253.58127,692.01024 h -1.6248 v -5.5912 q 0,-0.62124 -0.33451,-1.00355 -0.33452,-0.3823 -0.90797,-0.3823 -0.5416,0 -1.25842,0.41416 l -1.36992,0.8124 v 5.75049 h -1.59294 v -11.85143 h 1.59294 v 4.57172 l 0.93983,-0.58938 q 0.98761,-0.58939 1.99116,-0.58939 1.17877,0 1.86373,0.73275 0.7009,0.73275 0.7009,1.94338 z"
     style=""
     id="path916" /><path
     d="m -246.85709,692.01024 h -1.05134 q -1.43364,0 -2.26196,-0.73275 -0.82833,-0.73275 -0.82833,-2.13453 v -4.10977 h -1.33806 v -1.40178 h 1.35399 v -2.26197 h 1.62479 v 2.26197 h 2.43719 v 1.40178 h -2.43719 v 4.03012 q 0,0.82833 0.36638,1.17877 0.3823,0.33452 1.17877,0.33452 h 0.95576 z"
     style=""
     id="path918" /><path
     d="m -243.53459,692.01024 h -1.64072 v -8.37883 h 1.64072 z m 0.1115,-11.11868 v 0.33452 q 0,0.36637 -0.2708,0.58938 -0.25487,0.22302 -0.6531,0.22302 -0.43009,0 -0.68496,-0.20709 -0.25487,-0.22301 -0.25487,-0.60531 v -0.33452 q 0,-0.3823 0.25487,-0.58938 0.25487,-0.22301 0.68496,-0.22301 0.39823,0 0.6531,0.22301 0.2708,0.22301 0.2708,0.58938 z"
     style=""
     id="path920" /><path
     d="m -234.10517,692.01024 h -1.6248 v -5.5912 q 0,-0.60531 -0.33451,-0.98762 -0.31859,-0.39823 -0.90797,-0.39823 -0.5416,0 -1.25842,0.41416 l -1.36992,0.8124 v 5.75049 h -1.59294 v -8.37883 h 1.57701 v 1.09912 l 0.95576,-0.58938 q 0.93983,-0.58939 1.99116,-0.58939 1.17877,0 1.86374,0.73275 0.70089,0.73275 0.70089,1.94338 z"
     style=""
     id="path922" /><path
     d="m -227.33546,691.37306 h -2.86728 v 0.36638 q 0,1.03541 0.49381,1.52921 0.50974,0.50974 1.72037,0.50974 2.26196,0 2.26196,-1.33806 0,-0.58939 -0.41416,-0.82833 -0.39823,-0.23894 -1.1947,-0.23894 z m -1.48143,-3.67967 h 0.65311 q 1.78408,0 1.78408,-1.40178 0,-1.354 -1.60886,-1.354 h -0.78054 q -0.81239,0 -1.22656,0.31859 -0.41416,0.30266 -0.41416,1.0832 0,1.35399 1.59293,1.35399 z m 0.8124,1.22656 h -2.46905 q -0.63717,0 -0.63717,0.60531 0,0.58939 0.60531,0.58939 h 3.34516 q 2.97879,0 2.97879,2.27789 0,1.27435 -1.03541,1.95931 -1.0354,0.70089 -2.75577,0.70089 -3.67968,0 -3.67968,-3.23365 v -0.8124 q -0.82832,-0.3823 -0.82832,-1.48143 0,-0.63717 0.31858,-1.05133 0.31859,-0.41417 0.84426,-0.55753 -0.0637,-0.0478 -0.17522,-0.15929 -0.0956,-0.12744 -0.2708,-0.5416 -0.17523,-0.41416 -0.17523,-0.90797 0,-1.30621 0.8124,-1.99117 0.8124,-0.68496 2.19825,-0.68496 h 4.7788 v 1.38585 h -1.25842 q 0.49381,0.35045 0.49381,1.30621 0,1.21063 -0.84425,1.91152 -0.82833,0.68496 -2.24604,0.68496 z"
     style=""
     id="path924" /></g>
</svg>