<?xml version="1.0" encoding="UTF-8" standalone="no"?>
<!-- Generator: Adobe Illustrator 19.1.0, SVG Export Plug-In . SVG Version: 6.00 Build 0)  -->

<svg
   xmlns:dc="http://purl.org/dc/elements/1.1/"
   xmlns:cc="http://creativecommons.org/ns#"
   xmlns:rdf="http://www.w3.org/1999/02/22-rdf-syntax-ns#"
   xmlns:svg="http://www.w3.org/2000/svg"
   xmlns="http://www.w3.org/2000/svg"
   xmlns:sodipodi="http://sodipodi.sourceforge.net/DTD/sodipodi-0.dtd"
   xmlns:inkscape="http://www.inkscape.org/namespaces/inkscape"
   version="1.1"
   id="Calque_1"
   x="0px"
   y="0px"
   viewBox="-330 571.3 138.60001 138.60001"
   xml:space="preserve"
   sodipodi:docname="main_menu_logo_links-bg.svg"
   inkscape:version="0.92.4 (5da689c313, 2019-01-14)"
   width="138.60001"
   height="138.60001"><metadata
   id="metadata31"><rdf:RDF><cc:Work
       rdf:about=""><dc:format>image/svg+xml</dc:format><dc:type
         rdf:resource="http://purl.org/dc/dcmitype/StillImage" /><dc:title /></cc:Work></rdf:RDF></metadata><defs
   id="defs29" /><sodipodi:namedview
   pagecolor="#ffffff"
   bordercolor="#666666"
   borderopacity="1"
   objecttolerance="10"
   gridtolerance="10"
   guidetolerance="10"
   inkscape:pageopacity="0"
   inkscape:pageshadow="2"
   inkscape:window-width="1920"
   inkscape:window-height="1017"
   id="namedview27"
   showgrid="false"
   inkscape:zoom="4"
   inkscape:cx="35.766678"
   inkscape:cy="89.379394"
   inkscape:window-x="-8"
   inkscape:window-y="-8"
   inkscape:window-maximized="1"
   inkscape:current-layer="Calque_1"
   fit-margin-top="0"
   fit-margin-left="0"
   fit-margin-right="0"
   fit-margin-bottom="0" /><style
   type="text/css"
   id="style2">
	.st0{fill:#40637D;}
	.st1{fill:#FFFFFF;}
</style><g
   id="g6"
   transform="translate(0,-0.1)"><path
     class="st0"
     d="m -330,640.7 c 0,-38.3 31,-69.3 69.3,-69.3 38.3,0 69.3,31 69.3,69.3 0,38.3 -31,69.3 -69.3,69.3 -38.3,0 -69.3,-31 -69.3,-69.3"
     id="path4"
     inkscape:connector-curvature="0"
     style="fill:#40637d" /></g><g
   id="g24"
   transform="translate(-0.0437875,-6.09999)"><g
     id="g22"><path
       class="st1"
       d="m -235.3,620.9 -11.3,11.3 c -6.2,6.2 -16.3,6.2 -22.5,0 -1,-1 -1.7,-2.1 -2.4,-3.2 l 5.2,-5.2 c 0.2,-0.3 0.6,-0.4 0.8,-0.6 0.4,1.2 1,2.4 2,3.4 3.1,3.1 8.2,3.1 11.3,0 l 11.3,-11.3 c 3.1,-3.1 3.1,-8.2 0,-11.3 -3.1,-3.1 -8.2,-3.1 -11.3,0 l -4,4 c -3.2,-1.3 -6.7,-1.6 -10.2,-1.1 l 8.5,-8.5 c 6.2,-6.2 16.3,-6.2 22.5,0 6.3,6.2 6.3,16.3 0.1,22.5 m -29.8,18.6 -4,4 c -3.1,3.1 -8.2,3.1 -11.3,0 -3.1,-3.1 -3.1,-8.2 0,-11.3 l 11.3,-11.3 c 3.1,-3.1 8.2,-3.1 11.3,0 1,1 1.6,2.1 2,3.4 0.3,-0.2 0.6,-0.3 0.8,-0.6 l 5.2,-5.2 c -0.7,-1.1 -1.4,-2.2 -2.4,-3.2 -6.2,-6.2 -16.3,-6.2 -22.5,0 l -11.3,11.3 c -6.2,6.2 -6.2,16.3 0,22.5 6.2,6.2 16.3,6.2 22.5,0 l 8.5,-8.5 c -3.4,0.5 -6.9,0.1 -10.1,-1.1"
       id="path20"
       inkscape:connector-curvature="0"
       style="fill:#ffffff" /></g></g><g
   aria-label="Партньори 
и връзки"
   style="font-style:normal;font-variant:normal;font-weight:normal;font-stretch:normal;font-size:15.92933273px;line-height:1.25;font-family:KonsensMedium;-inkscape-font-specification:'KonsensMedium, Normal';font-variant-ligatures:normal;font-variant-caps:normal;font-variant-numeric:normal;font-feature-settings:normal;text-align:center;letter-spacing:0px;word-spacing:0px;writing-mode:lr-tb;text-anchor:middle;fill:#ffffff;fill-opacity:1;stroke:none"
   id="text35"><path
     d="m -293.52935,669.09723 h -1.49531 v -9.91589 h -5.6112 v 9.91589 h -1.49531 v -11.24505 h 8.60182 z"
     style="font-style:normal;font-variant:normal;font-weight:normal;font-stretch:normal;font-size:15.46666718px;font-family:KonsensMedium;-inkscape-font-specification:'KonsensMedium, Normal';font-variant-ligatures:normal;font-variant-caps:normal;font-variant-numeric:normal;font-feature-settings:normal;text-align:center;writing-mode:lr-tb;text-anchor:middle"
     id="path820" /><path
     d="m -284.05904,669.09723 h -1.41224 v -0.8987 q -0.1888,0.12839 -0.51354,0.3625 -0.31718,0.22656 -0.61927,0.3625 -0.35495,0.1737 -0.81562,0.28698 -0.46068,0.12083 -1.07995,0.12083 -1.14037,0 -1.93333,-0.7552 -0.79297,-0.75521 -0.79297,-1.92579 0,-0.95911 0.40781,-1.54817 0.41536,-0.59662 1.17812,-0.93646 0.77032,-0.33985 1.85026,-0.46068 1.07995,-0.12083 2.31849,-0.18125 v -0.21901 q 0,-0.48333 -0.17369,-0.80052 -0.16615,-0.31719 -0.48334,-0.49844 -0.30208,-0.1737 -0.725,-0.23411 -0.42291,-0.0604 -0.88359,-0.0604 -0.55885,0 -1.24609,0.15104 -0.68724,0.14349 -1.4198,0.42292 h -0.0755 v -1.44245 q 0.41537,-0.11328 1.20078,-0.24922 0.78542,-0.13593 1.54818,-0.13593 0.89115,0 1.54818,0.15104 0.66458,0.14349 1.14792,0.49843 0.47578,0.3474 0.725,0.8987 0.24921,0.5513 0.24921,1.36693 z m -1.41224,-2.07682 v -2.3487 q -0.64947,0.0378 -1.53307,0.11328 -0.87604,0.0755 -1.38958,0.21901 -0.61172,0.1737 -0.98932,0.54375 -0.37761,0.3625 -0.37761,1.00443 0,0.725 0.43802,1.09505 0.43802,0.3625 1.33672,0.3625 0.74766,0 1.36693,-0.28698 0.61927,-0.29453 1.14791,-0.70234 z"
     style="font-style:normal;font-variant:normal;font-weight:normal;font-stretch:normal;font-size:15.46666718px;font-family:KonsensMedium;-inkscape-font-specification:'KonsensMedium, Normal';font-variant-ligatures:normal;font-variant-caps:normal;font-variant-numeric:normal;font-feature-settings:normal;text-align:center;writing-mode:lr-tb;text-anchor:middle"
     id="path822" /><path
     d="m -273.88638,664.77744 q 0,1.02708 -0.29453,1.88047 -0.29453,0.84583 -0.83073,1.43489 -0.49844,0.55886 -1.17812,0.86849 -0.67214,0.30208 -1.42735,0.30208 -0.65703,0 -1.19323,-0.14348 -0.52864,-0.14349 -1.07995,-0.44558 v 3.53438 h -1.41979 v -11.54714 h 1.41979 v 0.8836 q 0.56641,-0.47579 1.26875,-0.79297 0.7099,-0.32474 1.51042,-0.32474 1.52552,0 2.37136,1.15547 0.85338,1.14791 0.85338,3.19453 z m -1.4651,0.0378 q 0,-1.52552 -0.5211,-2.28073 -0.52109,-0.75521 -1.60104,-0.75521 -0.61172,0 -1.23099,0.26432 -0.61927,0.26433 -1.18568,0.69479 v 4.78047 q 0.60417,0.27188 1.03464,0.37006 0.43802,0.0982 0.98932,0.0982 1.18568,0 1.85026,-0.80052 0.66459,-0.80052 0.66459,-2.37135 z"
     style="font-style:normal;font-variant:normal;font-weight:normal;font-stretch:normal;font-size:15.46666718px;font-family:KonsensMedium;-inkscape-font-specification:'KonsensMedium, Normal';font-variant-ligatures:normal;font-variant-caps:normal;font-variant-numeric:normal;font-feature-settings:normal;text-align:center;writing-mode:lr-tb;text-anchor:middle"
     id="path824" /><path
     d="m -265.47336,661.90765 h -3.05104 v 7.18958 h -1.41979 v -7.18958 h -3.05104 v -1.2461 h 7.52187 z"
     style="font-style:normal;font-variant:normal;font-weight:normal;font-stretch:normal;font-size:15.46666718px;font-family:KonsensMedium;-inkscape-font-specification:'KonsensMedium, Normal';font-variant-ligatures:normal;font-variant-caps:normal;font-variant-numeric:normal;font-feature-settings:normal;text-align:center;writing-mode:lr-tb;text-anchor:middle"
     id="path826" /><path
     d="m -256.9395,669.09723 h -1.4198 v -3.7987 h -4.22161 v 3.7987 h -1.41979 v -8.43568 h 1.41979 v 3.41354 h 4.22161 v -3.41354 h 1.4198 z"
     style="font-style:normal;font-variant:normal;font-weight:normal;font-stretch:normal;font-size:15.46666718px;font-family:KonsensMedium;-inkscape-font-specification:'KonsensMedium, Normal';font-variant-ligatures:normal;font-variant-caps:normal;font-variant-numeric:normal;font-feature-settings:normal;text-align:center;writing-mode:lr-tb;text-anchor:middle"
     id="path828" /><path
     d="m -248.88143,666.50686 q 0,-0.38515 -0.13594,-0.67213 -0.12838,-0.29453 -0.43047,-0.47578 -0.31719,-0.1888 -0.725,-0.22656 -0.40026,-0.0378 -1.15547,-0.0378 h -1.40468 v 2.8698 h 1.37447 q 0.75521,0 1.17058,-0.0604 0.41536,-0.068 0.71745,-0.24922 0.30963,-0.19635 0.44557,-0.46068 0.14349,-0.27187 0.14349,-0.68724 z m 1.4651,-0.0226 q 0,0.61172 -0.24922,1.11015 -0.24166,0.49844 -0.66458,0.80808 -0.49844,0.3776 -1.06484,0.5362 -0.56641,0.15859 -1.45756,0.15859 h -3.30026 v -8.43568 h 1.4198 v 3.28516 h 1.91822 q 0.95157,0 1.47266,0.0982 0.52865,0.0982 1.04974,0.48333 0.43802,0.32474 0.65703,0.83073 0.21901,0.50599 0.21901,1.12526 z"
     style="font-style:normal;font-variant:normal;font-weight:normal;font-stretch:normal;font-size:15.46666718px;font-family:KonsensMedium;-inkscape-font-specification:'KonsensMedium, Normal';font-variant-ligatures:normal;font-variant-caps:normal;font-variant-numeric:normal;font-feature-settings:normal;text-align:center;writing-mode:lr-tb;text-anchor:middle"
     id="path830" /><path
     d="m -238.14237,664.88317 q 0,2.06172 -1.05729,3.25494 -1.05729,1.19323 -2.83203,1.19323 -1.78984,0 -2.84714,-1.19323 -1.04974,-1.19322 -1.04974,-3.25494 0,-2.06172 1.04974,-3.25495 1.0573,-1.20078 2.84714,-1.20078 1.77474,0 2.83203,1.20078 1.05729,1.19323 1.05729,3.25495 z m -1.4651,0 q 0,-1.63881 -0.64193,-2.43177 -0.64193,-0.80053 -1.78229,-0.80053 -1.15547,0 -1.7974,0.80053 -0.63437,0.79296 -0.63437,2.43177 0,1.58593 0.64193,2.40911 0.64192,0.81563 1.78984,0.81563 1.13281,0 1.77474,-0.80808 0.64948,-0.81562 0.64948,-2.41666 z"
     style="font-style:normal;font-variant:normal;font-weight:normal;font-stretch:normal;font-size:15.46666718px;font-family:KonsensMedium;-inkscape-font-specification:'KonsensMedium, Normal';font-variant-ligatures:normal;font-variant-caps:normal;font-variant-numeric:normal;font-feature-settings:normal;text-align:center;writing-mode:lr-tb;text-anchor:middle"
     id="path832" /><path
     d="m -228.51347,664.77744 q 0,1.02708 -0.29453,1.88047 -0.29453,0.84583 -0.83073,1.43489 -0.49843,0.55886 -1.17812,0.86849 -0.67214,0.30208 -1.42735,0.30208 -0.65703,0 -1.19322,-0.14348 -0.52865,-0.14349 -1.07995,-0.44558 v 3.53438 h -1.41979 v -11.54714 h 1.41979 v 0.8836 q 0.5664,-0.47579 1.26875,-0.79297 0.70989,-0.32474 1.51041,-0.32474 1.52553,0 2.37136,1.15547 0.85338,1.14791 0.85338,3.19453 z m -1.4651,0.0378 q 0,-1.52552 -0.52109,-2.28073 -0.5211,-0.75521 -1.60105,-0.75521 -0.61171,0 -1.23099,0.26432 -0.61927,0.26433 -1.18567,0.69479 v 4.78047 q 0.60416,0.27188 1.03463,0.37006 0.43802,0.0982 0.98933,0.0982 1.18567,0 1.85026,-0.80052 0.66458,-0.80052 0.66458,-2.37135 z"
     style="font-style:normal;font-variant:normal;font-weight:normal;font-stretch:normal;font-size:15.46666718px;font-family:KonsensMedium;-inkscape-font-specification:'KonsensMedium, Normal';font-variant-ligatures:normal;font-variant-caps:normal;font-variant-numeric:normal;font-feature-settings:normal;text-align:center;writing-mode:lr-tb;text-anchor:middle"
     id="path834" /><path
     d="m -219.19419,669.09723 h -1.40469 v -6.3362 l -4.41797,6.3362 h -1.28385 v -8.43568 h 1.40468 v 6.24557 l 4.37266,-6.24557 h 1.32917 z"
     style="font-style:normal;font-variant:normal;font-weight:normal;font-stretch:normal;font-size:15.46666718px;font-family:KonsensMedium;-inkscape-font-specification:'KonsensMedium, Normal';font-variant-ligatures:normal;font-variant-caps:normal;font-variant-numeric:normal;font-feature-settings:normal;text-align:center;writing-mode:lr-tb;text-anchor:middle"
     id="path836" /><path
     d="m -287.85773,689.00889 h -1.40469 v -6.33619 l -4.41797,6.33619 h -1.28385 v -8.43567 h 1.40468 v 6.24557 l 4.37266,-6.24557 h 1.32917 z"
     style="font-style:normal;font-variant:normal;font-weight:normal;font-stretch:normal;font-size:15.46666718px;font-family:KonsensMedium;-inkscape-font-specification:'KonsensMedium, Normal';font-variant-ligatures:normal;font-variant-caps:normal;font-variant-numeric:normal;font-feature-settings:normal;text-align:center;writing-mode:lr-tb;text-anchor:middle"
     id="path838" /><path
     d="m -272.65539,686.45629 q 0,0.61172 -0.24922,1.0875 -0.24167,0.47578 -0.67213,0.79297 -0.48334,0.35495 -1.0573,0.51354 -0.5664,0.15859 -1.49531,0.15859 h -3.48906 v -8.43567 h 3.2625 q 0.94401,0 1.41979,0.068 0.48333,0.0604 0.90625,0.27942 0.47578,0.24922 0.69479,0.64948 0.22657,0.40026 0.22657,0.94401 0,0.62683 -0.35495,1.0875 -0.35495,0.46068 -0.9138,0.71745 v 0.0755 q 0.74765,0.18125 1.23098,0.70235 0.49089,0.51354 0.49089,1.35937 z m -1.91068,-3.72318 q 0,-0.27187 -0.12083,-0.49088 -0.11328,-0.21901 -0.35495,-0.33985 -0.31719,-0.15859 -0.71745,-0.17369 -0.3927,-0.0227 -0.97421,-0.0227 h -1.48021 v 2.31094 h 1.77474 q 0.55885,0 0.82317,-0.0378 0.27188,-0.0453 0.54375,-0.21146 0.28698,-0.18125 0.39271,-0.42292 0.11328,-0.24922 0.11328,-0.61172 z m 0.44558,3.73073 q 0,-0.41536 -0.13594,-0.67213 -0.13594,-0.26433 -0.59662,-0.48334 -0.28698,-0.13593 -0.61927,-0.15859 -0.33229,-0.0302 -0.92135,-0.0302 h -1.82005 v 2.75651 h 1.34427 q 0.84583,0 1.29896,-0.0529 0.46067,-0.0604 0.79296,-0.24922 0.3323,-0.1888 0.49089,-0.46068 0.16615,-0.27187 0.16615,-0.64948 z"
     style="font-style:normal;font-variant:normal;font-weight:normal;font-stretch:normal;font-size:15.46666718px;font-family:KonsensMedium;-inkscape-font-specification:'KonsensMedium, Normal';font-variant-ligatures:normal;font-variant-caps:normal;font-variant-numeric:normal;font-feature-settings:normal;text-align:center;writing-mode:lr-tb;text-anchor:middle"
     id="path840" /><path
     d="m -262.98117,684.6891 q 0,1.02709 -0.29453,1.88047 -0.29453,0.84584 -0.83073,1.4349 -0.49844,0.55885 -1.17813,0.86849 -0.67213,0.30208 -1.42734,0.30208 -0.65703,0 -1.19323,-0.14349 -0.52865,-0.14349 -1.07995,-0.44557 v 3.53437 h -1.41979 v -11.54713 h 1.41979 v 0.88359 q 0.56641,-0.47578 1.26875,-0.79297 0.7099,-0.32474 1.51042,-0.32474 1.52552,0 2.37135,1.15547 0.85339,1.14792 0.85339,3.19453 z m -1.4651,0.0378 q 0,-1.52552 -0.5211,-2.28073 -0.52109,-0.7552 -1.60104,-0.7552 -0.61172,0 -1.23099,0.26432 -0.61927,0.26432 -1.18568,0.69479 v 4.78047 q 0.60417,0.27187 1.03464,0.37005 0.43802,0.0982 0.98932,0.0982 1.18568,0 1.85026,-0.80052 0.66459,-0.80052 0.66459,-2.37136 z"
     style="font-style:normal;font-variant:normal;font-weight:normal;font-stretch:normal;font-size:15.46666718px;font-family:KonsensMedium;-inkscape-font-specification:'KonsensMedium, Normal';font-variant-ligatures:normal;font-variant-caps:normal;font-variant-numeric:normal;font-feature-settings:normal;text-align:center;writing-mode:lr-tb;text-anchor:middle"
     id="path842" /><path
     d="m -254.41711,686.41853 q 0,-0.38516 -0.13593,-0.67214 -0.12839,-0.29453 -0.43047,-0.47578 -0.31719,-0.1888 -0.725,-0.22656 -0.40026,-0.0378 -1.15547,-0.0378 h -1.32917 v 2.86979 h 1.29896 q 0.75521,0 1.17057,-0.0604 0.41537,-0.068 0.71745,-0.24922 0.30964,-0.19636 0.44557,-0.46068 0.14349,-0.27188 0.14349,-0.68724 z m 1.46511,-0.0227 q 0,0.61172 -0.24922,1.11016 -0.24167,0.49844 -0.66459,0.80807 -0.49843,0.37761 -1.06484,0.5362 -0.56641,0.15859 -1.45755,0.15859 h -3.22474 v -7.18958 h -2.47708 v -1.24609 h 3.89687 v 3.28515 h 1.84271 q 0.95156,0 1.47266,0.0982 0.52864,0.0982 1.04974,0.48333 0.43802,0.32474 0.65703,0.83073 0.21901,0.50599 0.21901,1.12526 z"
     style="font-style:normal;font-variant:normal;font-weight:normal;font-stretch:normal;font-size:15.46666718px;font-family:KonsensMedium;-inkscape-font-specification:'KonsensMedium, Normal';font-variant-ligatures:normal;font-variant-caps:normal;font-variant-numeric:normal;font-feature-settings:normal;text-align:center;writing-mode:lr-tb;text-anchor:middle"
     id="path844" /><path
     d="m -244.99211,686.64509 q 0,0.7099 -0.33229,1.20078 -0.32474,0.49089 -0.83828,0.79297 -0.51354,0.29453 -1.13281,0.43047 -0.61927,0.13594 -1.23855,0.13594 -0.87604,0 -1.66901,-0.16615 -0.79296,-0.16614 -1.56328,-0.51354 v -1.55573 h 0.0982 q 0.5513,0.48334 1.40469,0.74766 0.85338,0.26432 1.6539,0.26432 0.37761,0 0.77787,-0.068 0.40026,-0.0755 0.69479,-0.23411 0.31719,-0.18125 0.50599,-0.43047 0.1888,-0.25677 0.1888,-0.69479 0,-0.45313 -0.1888,-0.725 -0.18125,-0.27188 -0.49844,-0.40781 -0.30963,-0.13594 -0.74765,-0.16615 -0.43802,-0.0302 -0.80052,-0.0302 h -1.23099 v -1.22344 h 0.85338 q 0.30208,0 0.78542,-0.0226 0.49088,-0.0227 0.79297,-0.12084 0.39271,-0.12838 0.61927,-0.3625 0.23411,-0.23411 0.23411,-0.74765 0,-0.35495 -0.18125,-0.58151 -0.18125,-0.23412 -0.45312,-0.3625 -0.27943,-0.12839 -0.62683,-0.1737 -0.33984,-0.0453 -0.60416,-0.0453 -0.77032,0 -1.51797,0.21146 -0.74011,0.2039 -1.2461,0.59661 h -0.0982 v -1.56328 q 0.62682,-0.20391 1.34427,-0.33229 0.71745,-0.12839 1.43489,-0.12839 0.58907,0 1.17058,0.10573 0.58906,0.10573 1.09505,0.3625 0.49844,0.25677 0.81562,0.70234 0.31719,0.43803 0.31719,1.0875 0,0.66459 -0.41536,1.17058 -0.40781,0.49843 -1.10261,0.71745 v 0.0529 q 0.77787,0.1888 1.23855,0.7099 0.46067,0.51354 0.46067,1.36692 z"
     style="font-style:normal;font-variant:normal;font-weight:normal;font-stretch:normal;font-size:15.46666718px;font-family:KonsensMedium;-inkscape-font-specification:'KonsensMedium, Normal';font-variant-ligatures:normal;font-variant-caps:normal;font-variant-numeric:normal;font-feature-settings:normal;text-align:center;writing-mode:lr-tb;text-anchor:middle"
     id="path846" /><path
     d="m -235.12154,689.00889 h -1.85781 l -3.50416,-3.86666 h -0.77032 v 3.86666 h -1.41979 v -8.43567 h 1.41979 v 3.6401 q 0.70235,0 1.13282,-0.24922 0.43046,-0.25677 0.73255,-0.81562 0.10573,-0.20391 0.2039,-0.43047 0.10573,-0.23412 0.20391,-0.44557 0.39271,-0.85339 0.98177,-1.27631 0.58906,-0.42291 1.69167,-0.42291 h 0.64948 v 1.22344 h -0.62683 q -0.59661,0 -0.93645,0.25677 -0.3323,0.24921 -0.60417,0.88359 -0.30208,0.7099 -0.64193,1.06484 -0.33229,0.3474 -0.70989,0.52865 z"
     style="font-style:normal;font-variant:normal;font-weight:normal;font-stretch:normal;font-size:15.46666718px;font-family:KonsensMedium;-inkscape-font-specification:'KonsensMedium, Normal';font-variant-ligatures:normal;font-variant-caps:normal;font-variant-numeric:normal;font-feature-settings:normal;text-align:center;writing-mode:lr-tb;text-anchor:middle"
     id="path848" /><path
     d="m -226.4744,689.00889 h -1.40469 v -6.33619 l -4.41797,6.33619 h -1.28385 v -8.43567 h 1.40469 v 6.24557 l 4.37265,-6.24557 h 1.32917 z"
     style="font-style:normal;font-variant:normal;font-weight:normal;font-stretch:normal;font-size:15.46666718px;font-family:KonsensMedium;-inkscape-font-specification:'KonsensMedium, Normal';font-variant-ligatures:normal;font-variant-caps:normal;font-variant-numeric:normal;font-feature-settings:normal;text-align:center;writing-mode:lr-tb;text-anchor:middle"
     id="path850" /></g>






</svg>