<?xml version="1.0" encoding="UTF-8" standalone="no"?>
<!-- Generator: Adobe Illustrator 19.1.0, SVG Export Plug-In . SVG Version: 6.00 Build 0)  -->

<svg
   xmlns:dc="http://purl.org/dc/elements/1.1/"
   xmlns:cc="http://creativecommons.org/ns#"
   xmlns:rdf="http://www.w3.org/1999/02/22-rdf-syntax-ns#"
   xmlns:svg="http://www.w3.org/2000/svg"
   xmlns="http://www.w3.org/2000/svg"
   xmlns:sodipodi="http://sodipodi.sourceforge.net/DTD/sodipodi-0.dtd"
   xmlns:inkscape="http://www.inkscape.org/namespaces/inkscape"
   version="1.1"
   id="Calque_1"
   x="0px"
   y="0px"
   viewBox="-330 571.3 138.60001 138.60001"
   xml:space="preserve"
   sodipodi:docname="main_menu_logo_contact-hu.svg"
   inkscape:version="0.92.4 (5da689c313, 2019-01-14)"
   width="138.60001"
   height="138.60001"><metadata
   id="metadata43"><rdf:RDF><cc:Work
       rdf:about=""><dc:format>image/svg+xml</dc:format><dc:type
         rdf:resource="http://purl.org/dc/dcmitype/StillImage" /><dc:title /></cc:Work></rdf:RDF></metadata><defs
   id="defs41" /><sodipodi:namedview
   pagecolor="#ffffff"
   bordercolor="#666666"
   borderopacity="1"
   objecttolerance="10"
   gridtolerance="10"
   guidetolerance="10"
   inkscape:pageopacity="0"
   inkscape:pageshadow="2"
   inkscape:window-width="2400"
   inkscape:window-height="1271"
   id="namedview39"
   showgrid="false"
   inkscape:zoom="3"
   inkscape:cx="-73.75714"
   inkscape:cy="69.350001"
   inkscape:window-x="2391"
   inkscape:window-y="-9"
   inkscape:window-maximized="1"
   inkscape:current-layer="Calque_1"
   fit-margin-top="0"
   fit-margin-left="0"
   fit-margin-right="0"
   fit-margin-bottom="0" /><style
   type="text/css"
   id="style2">
	.st0{fill:#E8E493;}
	.st1{fill:#40637D;}
	.st2{fill:#FFFFFF;}
</style><g
   id="g6"
   transform="translate(0,-0.1)"><path
     class="st0"
     d="m -330,640.7 c 0,-38.3 31,-69.3 69.3,-69.3 38.3,0 69.3,31 69.3,69.3 0,38.3 -31,69.3 -69.3,69.3 -38.3,0 -69.3,-31 -69.3,-69.3"
     id="path4"
     style="fill:#ff7837;fill-opacity:1"
     inkscape:connector-curvature="0" /></g><g
   id="g36"
   transform="translate(0,-16.363454)"><g
     id="g30"><path
       class="st2"
       d="m -272.3,659 c 0,0.4 0.2,0.8 0.6,1 0.4,0.2 0.8,0.2 1.2,-0.1 l 7.7,-5.3 -9.5,-4.5 z"
       id="path28"
       inkscape:connector-curvature="0"
       style="fill:#ffffff" /></g><g
     id="g34"><path
       class="st2"
       d="m -226.4,599.6 c -0.2,-0.2 -0.5,-0.3 -0.8,-0.3 -0.2,0 -0.3,0 -0.5,0.1 l -66.6,32.7 c -0.7,0.3 -1.1,1 -1.1,1.8 0,0.8 0.4,1.5 1.1,1.8 l 17.6,8.4 35.1,-28.9 -30.8,30.9 21.9,10.4 c 0.3,0.1 0.6,0.2 0.9,0.2 0.2,0 0.5,0 0.7,-0.1 0.5,-0.2 0.9,-0.6 1.1,-1.1 l 21.7,-54.6 c 0.2,-0.5 0.1,-1 -0.3,-1.3"
       id="path32"
       inkscape:connector-curvature="0"
       style="fill:#ffffff" /></g></g><g
   aria-label="Lépjen velünk 
kapcsolatba"
   style="font-style:normal;font-variant:normal;font-weight:normal;font-stretch:normal;font-size:15.46666718px;line-height:1.25;font-family:KonsensMedium;-inkscape-font-specification:'KonsensMedium, Normal';font-variant-ligatures:normal;font-variant-caps:normal;font-variant-numeric:normal;font-feature-settings:normal;text-align:center;letter-spacing:0px;word-spacing:0px;writing-mode:lr-tb;text-anchor:middle;fill:#ffffff;fill-opacity:1;stroke:none"
   id="text4541"><path
     d="m -303.12031,668.41364 h -7.17653 v -11.50721 h 1.7168 v 9.99147 h 5.45973 z"
     style=""
     id="path825" /><path
     d="m -294.87247,665.8307 v 0.0773 q 0,1.19093 -0.94347,1.91786 -0.94346,0.72694 -2.52106,0.72694 -1.5776,0 -2.56747,-0.81974 -0.98987,-0.8352 -0.98987,-2.2736 v -1.9488 q 0,-1.51573 0.98987,-2.42826 0.98987,-0.91254 2.552,-0.91254 1.56213,0 2.53653,0.91254 0.9744,0.89706 0.9744,2.44373 v 1.37653 h -5.55253 v 0.464 q 0,0.91254 0.5568,1.392 0.57227,0.464 1.50027,0.464 1.96426,0 1.96426,-1.392 z m -1.45387,-2.088 v -0.24746 q 0,-0.95894 -0.54133,-1.46934 -0.52587,-0.52586 -1.4848,-0.52586 -0.95893,0 -1.50027,0.52586 -0.54133,0.52587 -0.54133,1.4848 v 0.232 z m -1.4384,-4.71733 h -1.73226 l 1.5776,-2.11894 h 2.01066 z"
     style=""
     id="path827" /><path
     d="m -287.14687,665.56777 v -2.4592 q 0,-0.68053 -0.38666,-1.08267 -0.38667,-0.4176 -1.03627,-0.4176 -0.6496,0 -1.28373,0.35574 l -1.4384,0.80426 v 3.13974 l 1.4384,0.80426 q 0.63413,0.35574 1.28373,0.35574 0.6496,0 1.03627,-0.40214 0.38666,-0.4176 0.38666,-1.09813 z m -4.14506,5.69173 h -1.5312 v -10.98133 h 1.51573 v 0.98987 l 1.00533,-0.5568 q 0.928,-0.52587 1.93334,-0.52587 1.22186,0 1.97973,0.75787 0.77333,0.75786 0.77333,1.97973 v 2.784 q 0,1.22187 -0.77333,2.01067 -0.77333,0.77333 -1.9952,0.77333 -0.98987,0 -1.91787,-0.52587 l -0.98986,-0.5568 z"
     style=""
     id="path829" /><path
     d="m -284.60018,671.2595 h -0.3712 v -1.31466 h 0.26293 q 0.58773,0 0.85067,-0.26294 0.2784,-0.26293 0.2784,-0.86613 v -8.5376 h 1.59306 v 8.6304 q 0,1.14453 -0.696,1.74773 -0.696,0.6032 -1.91786,0.6032 z m 2.72213,-13.6416 v 0.3248 q 0,0.35573 -0.26293,0.57227 -0.24747,0.21653 -0.63414,0.21653 -0.4176,0 -0.66506,-0.20107 -0.24747,-0.21653 -0.24747,-0.58773 v -0.3248 q 0,-0.3712 0.24747,-0.57227 0.24746,-0.21653 0.66506,-0.21653 0.38667,0 0.63414,0.21653 0.26293,0.21654 0.26293,0.57227 z"
     style=""
     id="path831" /><path
     d="m -272.93759,665.8307 v 0.0773 q 0,1.19093 -0.94347,1.91786 -0.94346,0.72694 -2.52106,0.72694 -1.5776,0 -2.56747,-0.81974 -0.98987,-0.8352 -0.98987,-2.2736 v -1.9488 q 0,-1.51573 0.98987,-2.42826 0.98987,-0.91254 2.552,-0.91254 1.56213,0 2.53653,0.91254 0.9744,0.89706 0.9744,2.44373 v 1.37653 h -5.55253 v 0.464 q 0,0.91254 0.5568,1.392 0.57227,0.464 1.50027,0.464 1.96426,0 1.96426,-1.392 z m -1.45387,-2.088 v -0.24746 q 0,-0.95894 -0.54133,-1.46934 -0.52587,-0.52586 -1.4848,-0.52586 -0.95893,0 -1.50027,0.52586 -0.54133,0.52587 -0.54133,1.4848 v 0.232 z"
     style=""
     id="path833" /><path
     d="m -264.00922,668.41364 h -1.5776 v -5.4288 q 0,-0.58774 -0.3248,-0.95894 -0.30933,-0.38666 -0.8816,-0.38666 -0.52586,0 -1.22186,0.40213 l -1.33014,0.7888 v 5.58347 h -1.54666 v -8.13547 h 1.5312 v 1.0672 l 0.928,-0.57227 q 0.91253,-0.57227 1.93333,-0.57227 1.14453,0 1.8096,0.71147 0.68053,0.71147 0.68053,1.88694 z"
     style=""
     id="path835" /><path
     d="m -253.56849,668.41364 h -1.7632 l -2.90773,-8.13547 h 1.7168 l 2.10346,6.3568 2.1344,-6.3568 h 1.624 z"
     style=""
     id="path837" /><path
     d="m -242.65554,665.8307 v 0.0773 q 0,1.19093 -0.94346,1.91786 -0.94347,0.72694 -2.52107,0.72694 -1.5776,0 -2.56747,-0.81974 -0.98986,-0.8352 -0.98986,-2.2736 v -1.9488 q 0,-1.51573 0.98986,-2.42826 0.98987,-0.91254 2.552,-0.91254 1.56214,0 2.53654,0.91254 0.9744,0.89706 0.9744,2.44373 v 1.37653 h -5.55254 v 0.464 q 0,0.91254 0.5568,1.392 0.57227,0.464 1.50027,0.464 1.96427,0 1.96427,-1.392 z m -1.45386,-2.088 v -0.24746 q 0,-0.95894 -0.54134,-1.46934 -0.52586,-0.52586 -1.4848,-0.52586 -0.95893,0 -1.50026,0.52586 -0.54134,0.52587 -0.54134,1.4848 v 0.232 z"
     style=""
     id="path839" /><path
     d="m -239.03006,668.41364 h -1.59307 v -11.50721 h 1.59307 z"
     style=""
     id="path841" /><path
     d="m -230.01155,668.41364 h -1.5312 v -1.0672 l -0.928,0.57226 q -0.9744,0.58774 -1.93333,0.57227 -1.14453,0 -1.82507,-0.696 -0.66506,-0.71147 -0.66506,-1.88693 v -5.62987 h 1.5776 v 5.44427 q 0,0.6032 0.3248,0.9744 0.3248,0.35573 0.8816,0.35573 0.52586,0 1.22186,-0.40213 l 1.33014,-0.7888 v -5.58347 h 1.54666 z m -4.20693,-10.79574 v 0.30933 q 0,0.35574 -0.26293,0.57227 -0.24747,0.21653 -0.63414,0.21653 -0.40213,0 -0.6496,-0.20106 -0.24746,-0.21654 -0.24746,-0.58774 v -0.30933 q 0,-0.3712 0.24746,-0.57227 0.24747,-0.21653 0.6496,-0.21653 0.38667,0 0.63414,0.21653 0.26293,0.21654 0.26293,0.57227 z m 3.41813,0 v 0.30933 q 0,0.35574 -0.26293,0.57227 -0.24747,0.21653 -0.63413,0.21653 -0.40214,0 -0.6496,-0.20106 -0.24747,-0.21654 -0.24747,-0.58774 v -0.30933 q 0,-0.3712 0.24747,-0.57227 0.24746,-0.21653 0.6496,-0.21653 0.38666,0 0.63413,0.21653 0.26293,0.21654 0.26293,0.57227 z"
     style=""
     id="path843" /><path
     d="m -220.90193,668.41364 h -1.5776 v -5.4288 q 0,-0.58774 -0.3248,-0.95894 -0.30933,-0.38666 -0.8816,-0.38666 -0.52586,0 -1.22186,0.40213 l -1.33014,0.7888 v 5.58347 h -1.54666 v -8.13547 h 1.5312 v 1.0672 l 0.928,-0.57227 q 0.91253,-0.57227 1.93333,-0.57227 1.14453,0 1.8096,0.71147 0.68053,0.71147 0.68053,1.88694 z"
     style=""
     id="path845" /><path
     d="m -211.34376,668.41364 h -1.79414 l -2.32,-4.09867 -1.74773,1.82507 v 2.2736 h -1.54667 v -11.50721 h 1.54667 v 7.33121 l 3.65013,-3.95947 h 2.05707 l -2.79947,2.90773 z"
     style=""
     id="path847" /><path
     d="m -297.55835,687.74697 h -1.79413 l -2.32,-4.09867 -1.74774,1.82507 v 2.2736 h -1.54666 v -11.5072 h 1.54666 v 7.3312 l 3.65014,-3.95947 h 2.05706 l -2.79946,2.90774 z"
     style=""
     id="path849" /><path
     d="m -290.97946,685.34964 v -1.03627 h -2.42827 q -1.54666,0 -1.54666,1.17547 0,0.47946 0.2784,0.75786 0.2784,0.26294 0.7888,0.26294 0.75786,0 1.5776,-0.44854 z m 1.54667,2.39733 h -1.54667 v -1.05173 l -0.89707,0.49493 q -1.2064,0.6496 -2.2736,0.6496 -1.0672,0 -1.73226,-0.63413 -0.6496,-0.63414 -0.6496,-1.65494 0,-1.19093 0.81973,-1.82506 0.8352,-0.63414 2.1344,-0.63414 h 2.61387 v -0.5104 q 0,-1.77866 -1.87147,-1.77866 -1.97973,0 -1.97973,1.59306 h -1.5312 v -0.0773 q 0,-1.33013 0.95893,-2.088 0.9744,-0.75787 2.53653,-0.75787 1.60854,0 2.5056,0.80427 0.91254,0.7888 0.91254,2.2272 z"
     style=""
     id="path851" /><path
     d="m -281.67916,684.9011 v -2.4592 q 0,-0.68053 -0.38667,-1.08266 -0.38666,-0.4176 -1.03626,-0.4176 -0.6496,0 -1.28374,0.35573 l -1.4384,0.80427 v 3.13973 l 1.4384,0.80427 q 0.63414,0.35573 1.28374,0.35573 0.6496,0 1.03626,-0.40213 0.38667,-0.4176 0.38667,-1.09814 z m -4.14507,5.69174 h -1.5312 V 679.6115 h 1.51574 v 0.98987 l 1.00533,-0.5568 q 0.928,-0.52587 1.93333,-0.52587 1.22187,0 1.97974,0.75787 0.77333,0.75787 0.77333,1.97973 v 2.784 q 0,1.22187 -0.77333,2.01067 -0.77334,0.77333 -1.9952,0.77333 -0.98987,0 -1.91787,-0.52586 l -0.98987,-0.5568 z"
     style=""
     id="path853" /><path
     d="m -271.46101,684.73097 v 0.12373 q 0,1.45387 -0.928,2.24267 -0.928,0.7888 -2.52106,0.7888 -1.54667,0 -2.49014,-0.8352 -0.928,-0.85067 -0.928,-2.33547 v -2.05706 q 0,-1.46934 0.928,-2.30454 0.94347,-0.85066 2.49014,-0.85066 1.59306,0 2.52106,0.7888 0.928,0.77333 0.928,2.2272 v 0.12373 h -1.51573 q 0,-1.7632 -1.93333,-1.7632 -1.87147,0 -1.87147,1.91787 v 1.77866 q 0,1.91787 1.87147,1.91787 1.93333,0 1.93333,-1.7632 z"
     style=""
     id="path855" /><path
     d="m -263.0063,682.2099 h -1.54667 q 0,-1.392 -1.82506,-1.392 -0.86614,0 -1.33014,0.30934 -0.44853,0.30933 -0.44853,0.81973 0,0.47947 0.38667,0.7424 0.38666,0.26293 0.95893,0.3248 0.57227,0.0619 1.23733,0.1856 0.68054,0.12373 1.2528,0.29387 0.57227,0.15466 0.95894,0.63413 0.38666,0.47947 0.38666,1.2528 0,1.14453 -0.91253,1.82507 -0.91253,0.66506 -2.5056,0.66506 -1.60853,0 -2.53653,-0.72693 -0.91254,-0.72693 -0.91254,-1.91787 v -0.0773 h 1.59307 q 0,1.40747 1.88693,1.40747 0.89707,0 1.37654,-0.29387 0.49493,-0.30933 0.49493,-0.81973 0,-0.5104 -0.54133,-0.7424 -0.52587,-0.232 -1.28374,-0.3248 -0.75786,-0.0928 -1.5312,-0.24747 -0.75786,-0.15467 -1.2992,-0.68053 -0.52586,-0.54134 -0.52586,-1.46934 0,-1.14453 0.8816,-1.8096 0.89706,-0.66506 2.44373,-0.66506 1.59307,0 2.4592,0.72693 0.8816,0.71147 0.8816,1.91787 z"
     style=""
     id="path857" /><path
     d="m -255.56804,684.42164 v -1.4384 q 0,-0.98987 -0.58774,-1.54667 -0.57226,-0.5568 -1.51573,-0.5568 -0.95893,0 -1.5312,0.5568 -0.57227,0.5568 -0.57227,1.54667 v 1.4384 q 0,0.98986 0.57227,1.56213 0.57227,0.5568 1.5312,0.5568 0.94347,0 1.51573,-0.5568 0.58774,-0.5568 0.58774,-1.56213 z m 1.51573,-1.5776 v 1.73226 q 0,1.51574 -1.0208,2.42827 -1.00533,0.91253 -2.5984,0.91253 -1.59307,0 -2.61387,-0.91253 -1.00533,-0.91253 -1.00533,-2.42827 v -1.73226 q 0,-1.51574 1.00533,-2.42827 1.0208,-0.91253 2.61387,-0.91253 1.59307,0 2.5984,0.91253 1.0208,0.91253 1.0208,2.42827 z"
     style=""
     id="path859" /><path
     d="m -250.44881,687.74697 h -1.59307 v -11.5072 h 1.59307 z"
     style=""
     id="path861" /><path
     d="m -243.03883,685.34964 v -1.03627 h -2.42827 q -1.54667,0 -1.54667,1.17547 0,0.47946 0.2784,0.75786 0.2784,0.26294 0.7888,0.26294 0.75787,0 1.5776,-0.44854 z m 1.54666,2.39733 h -1.54666 v -1.05173 l -0.89707,0.49493 q -1.2064,0.6496 -2.2736,0.6496 -1.0672,0 -1.73227,-0.63413 -0.6496,-0.63414 -0.6496,-1.65494 0,-1.19093 0.81974,-1.82506 0.8352,-0.63414 2.1344,-0.63414 h 2.61386 v -0.5104 q 0,-1.77866 -1.87146,-1.77866 -1.97974,0 -1.97974,1.59306 h -1.5312 v -0.0773 q 0,-1.33013 0.95894,-2.088 0.9744,-0.75787 2.53653,-0.75787 1.60853,0 2.5056,0.80427 0.91253,0.7888 0.91253,2.2272 z"
     style=""
     id="path863" /><path
     d="m -235.03554,687.74697 h -1.0208 q -1.392,0 -2.19627,-0.71147 -0.80427,-0.71146 -0.80427,-2.07253 v -3.9904 h -1.2992 v -1.36107 h 1.31467 v -2.19626 h 1.5776 v 2.19626 h 2.3664 v 1.36107 h -2.3664 v 3.91307 q 0,0.80426 0.35573,1.14453 0.3712,0.3248 1.14454,0.3248 h 0.928 z"
     style=""
     id="path865" /><path
     d="m -227.75728,684.93204 v -2.4592 q 0,-0.68054 -0.38667,-1.08267 -0.38667,-0.4176 -1.03627,-0.4176 -0.63413,0 -1.28373,0.34027 l -1.4384,0.81973 v 3.13973 l 1.4384,0.80427 q 0.68053,0.35573 1.28373,0.35573 0.6496,0 1.03627,-0.40213 0.38667,-0.4176 0.38667,-1.09813 z m -3.1552,2.39733 -1.00534,-0.54133 v 0.95893 h -1.51573 v -11.5072 h 1.5312 v 4.37707 l 0.98987,-0.5568 q 0.9744,-0.52587 1.93333,-0.52587 1.22187,0 1.97973,0.77333 0.77334,0.75787 0.77334,1.9952 v 2.784 q 0,1.2064 -0.77334,1.9952 -0.77333,0.77334 -2.01066,0.77334 -0.928,0 -1.9024,-0.52587 z"
     style=""
     id="path867" /><path
     d="m -218.993,685.34964 v -1.03627 h -2.42827 q -1.54666,0 -1.54666,1.17547 0,0.47946 0.2784,0.75786 0.2784,0.26294 0.7888,0.26294 0.75786,0 1.5776,-0.44854 z m 1.54667,2.39733 h -1.54667 v -1.05173 l -0.89707,0.49493 q -1.2064,0.6496 -2.2736,0.6496 -1.0672,0 -1.73226,-0.63413 -0.6496,-0.63414 -0.6496,-1.65494 0,-1.19093 0.81973,-1.82506 0.8352,-0.63414 2.1344,-0.63414 h 2.61387 v -0.5104 q 0,-1.77866 -1.87147,-1.77866 -1.97973,0 -1.97973,1.59306 h -1.5312 v -0.0773 q 0,-1.33013 0.95893,-2.088 0.9744,-0.75787 2.53653,-0.75787 1.60854,0 2.5056,0.80427 0.91254,0.7888 0.91254,2.2272 z"
     style=""
     id="path869" /></g>





</svg>