<?xml version="1.0" encoding="UTF-8" standalone="no"?>
<!-- Generator: Adobe Illustrator 19.1.0, SVG Export Plug-In . SVG Version: 6.00 Build 0)  -->

<svg
   xmlns:dc="http://purl.org/dc/elements/1.1/"
   xmlns:cc="http://creativecommons.org/ns#"
   xmlns:rdf="http://www.w3.org/1999/02/22-rdf-syntax-ns#"
   xmlns:svg="http://www.w3.org/2000/svg"
   xmlns="http://www.w3.org/2000/svg"
   xmlns:sodipodi="http://sodipodi.sourceforge.net/DTD/sodipodi-0.dtd"
   xmlns:inkscape="http://www.inkscape.org/namespaces/inkscape"
   version="1.1"
   id="Calque_1"
   x="0px"
   y="0px"
   viewBox="-330 571.3 138.60001 138.60001"
   xml:space="preserve"
   sodipodi:docname="main_menu_logo_links-en.svg"
   inkscape:version="0.92.4 (5da689c313, 2019-01-14)"
   width="138.60001"
   height="138.60001"><metadata
   id="metadata31"><rdf:RDF><cc:Work
       rdf:about=""><dc:format>image/svg+xml</dc:format><dc:type
         rdf:resource="http://purl.org/dc/dcmitype/StillImage" /><dc:title></dc:title></cc:Work></rdf:RDF></metadata><defs
   id="defs29"><clipPath
     clipPathUnits="userSpaceOnUse"
     id="clipPath895"><g
       id="use897"
       inkscape:label="Clip"><path
         inkscape:connector-curvature="0"
         d="m -414.0992,668.99585 h -7.39121 v -11.85143 h 1.76815 v 10.29035 h 5.62306 z"
         style="font-style:normal;font-variant:normal;font-weight:normal;font-stretch:normal;font-size:15.92933273px;font-family:KonsensMedium;-inkscape-font-specification:'KonsensMedium, Normal';font-variant-ligatures:normal;font-variant-caps:normal;font-variant-numeric:normal;font-feature-settings:normal;text-align:center;writing-mode:lr-tb;text-anchor:middle;fill:#ffffff"
         id="path899" /><path
         inkscape:connector-curvature="0"
         d="m -406.62785,665.57104 v -1.48143 q 0,-1.01947 -0.60531,-1.59293 -0.58939,-0.57346 -1.56108,-0.57346 -0.98762,0 -1.577,0.57346 -0.58939,0.57346 -0.58939,1.59293 v 1.48143 q 0,1.01948 0.58939,1.60886 0.58938,0.57346 1.577,0.57346 0.97169,0 1.56108,-0.57346 0.60531,-0.57345 0.60531,-1.60886 z m 1.56108,-1.62479 v 1.78408 q 0,1.56108 -1.05134,2.50091 -1.03541,0.93983 -2.67613,0.93983 -1.64072,0 -2.69205,-0.93983 -1.03541,-0.93983 -1.03541,-2.50091 v -1.78408 q 0,-1.56108 1.03541,-2.50091 1.05133,-0.93983 2.69205,-0.93983 1.64072,0 2.67613,0.93983 1.05134,0.93983 1.05134,2.50091 z"
         style="font-style:normal;font-variant:normal;font-weight:normal;font-stretch:normal;font-size:15.92933273px;font-family:KonsensMedium;-inkscape-font-specification:'KonsensMedium, Normal';font-variant-ligatures:normal;font-variant-caps:normal;font-variant-numeric:normal;font-feature-settings:normal;text-align:center;writing-mode:lr-tb;text-anchor:middle;fill:#ffffff"
         id="path901" /><path
         inkscape:connector-curvature="0"
         d="m -398.44042,668.35867 h -2.86728 v 0.36638 q 0,1.03541 0.49381,1.52921 0.50974,0.50974 1.72037,0.50974 2.26196,0 2.26196,-1.33806 0,-0.58939 -0.41416,-0.82833 -0.39823,-0.23894 -1.1947,-0.23894 z m -1.48143,-3.67967 h 0.6531 q 1.78409,0 1.78409,-1.40178 0,-1.354 -1.60886,-1.354 h -0.78054 q -0.8124,0 -1.22656,0.31859 -0.41416,0.30266 -0.41416,1.08319 0,1.354 1.59293,1.354 z m 0.8124,1.22656 h -2.46905 q -0.63717,0 -0.63717,0.60531 0,0.58939 0.60531,0.58939 h 3.34516 q 2.97879,0 2.97879,2.27789 0,1.27435 -1.03541,1.95931 -1.03541,0.70089 -2.75577,0.70089 -3.67968,0 -3.67968,-3.23365 v -0.8124 q -0.82832,-0.3823 -0.82832,-1.48143 0,-0.63717 0.31858,-1.05133 0.31859,-0.41417 0.84426,-0.55753 -0.0637,-0.0478 -0.17523,-0.15929 -0.0956,-0.12744 -0.27079,-0.5416 -0.17523,-0.41416 -0.17523,-0.90797 0,-1.30621 0.8124,-1.99117 0.81239,-0.68496 2.19825,-0.68496 h 4.7788 v 1.38585 h -1.25842 q 0.49381,0.35045 0.49381,1.30621 0,1.21062 -0.84426,1.91152 -0.82832,0.68496 -2.24603,0.68496 z"
         style="font-style:normal;font-variant:normal;font-weight:normal;font-stretch:normal;font-size:15.92933273px;font-family:KonsensMedium;-inkscape-font-specification:'KonsensMedium, Normal';font-variant-ligatures:normal;font-variant-caps:normal;font-variant-numeric:normal;font-feature-settings:normal;text-align:center;writing-mode:lr-tb;text-anchor:middle;fill:#ffffff"
         id="path903" /><path
         inkscape:connector-curvature="0"
         d="m -387.54102,668.99585 h -1.64072 v -8.37883 h 1.64072 z m 0.1115,-11.11868 v 0.33452 q 0,0.36637 -0.2708,0.58938 -0.25487,0.22302 -0.6531,0.22302 -0.43009,0 -0.68496,-0.20709 -0.25487,-0.22301 -0.25487,-0.60531 v -0.33452 q 0,-0.3823 0.25487,-0.58938 0.25487,-0.22301 0.68496,-0.22301 0.39823,0 0.6531,0.22301 0.2708,0.22301 0.2708,0.58938 z"
         style="font-style:normal;font-variant:normal;font-weight:normal;font-stretch:normal;font-size:15.92933273px;font-family:KonsensMedium;-inkscape-font-specification:'KonsensMedium, Normal';font-variant-ligatures:normal;font-variant-caps:normal;font-variant-numeric:normal;font-feature-settings:normal;text-align:center;writing-mode:lr-tb;text-anchor:middle;fill:#ffffff"
         id="path905" /><path
         inkscape:connector-curvature="0"
         d="m -378.1116,668.99585 h -1.6248 v -5.5912 q 0,-0.60531 -0.33451,-0.98762 -0.31859,-0.39823 -0.90797,-0.39823 -0.5416,0 -1.25842,0.41416 l -1.36992,0.8124 v 5.75049 h -1.59294 v -8.37883 h 1.57701 v 1.09912 l 0.95576,-0.58938 q 0.93983,-0.58939 1.99116,-0.58939 1.17877,0 1.86374,0.73275 0.70089,0.73275 0.70089,1.94338 z"
         style="font-style:normal;font-variant:normal;font-weight:normal;font-stretch:normal;font-size:15.92933273px;font-family:KonsensMedium;-inkscape-font-specification:'KonsensMedium, Normal';font-variant-ligatures:normal;font-variant-caps:normal;font-variant-numeric:normal;font-feature-settings:normal;text-align:center;writing-mode:lr-tb;text-anchor:middle;fill:#ffffff"
         id="path907" /><path
         inkscape:connector-curvature="0"
         d="m -432.20189,685.48271 v -1.48143 q 0,-1.01948 -0.60532,-1.59293 -0.58938,-0.57346 -1.56107,-0.57346 -0.98762,0 -1.57701,0.57346 -0.58938,0.57345 -0.58938,1.59293 v 1.48143 q 0,1.01947 0.58938,1.60886 0.58939,0.57346 1.57701,0.57346 0.97169,0 1.56107,-0.57346 0.60532,-0.57346 0.60532,-1.60886 z m 1.56107,-1.6248 v 1.78409 q 0,1.56107 -1.05134,2.50091 -1.0354,0.93983 -2.67612,0.93983 -1.64072,0 -2.69206,-0.93983 -1.03541,-0.93984 -1.03541,-2.50091 v -1.78409 q 0,-1.56107 1.03541,-2.5009 1.05134,-0.93983 2.69206,-0.93983 1.64072,0 2.67612,0.93983 1.05134,0.93983 1.05134,2.5009 z"
         style="font-style:normal;font-variant:normal;font-weight:normal;font-stretch:normal;font-size:15.92933273px;font-family:KonsensMedium;-inkscape-font-specification:'KonsensMedium, Normal';font-variant-ligatures:normal;font-variant-caps:normal;font-variant-numeric:normal;font-feature-settings:normal;text-align:center;writing-mode:lr-tb;text-anchor:middle;fill:#ffffff"
         id="path909" /><path
         inkscape:connector-curvature="0"
         d="m -426.94546,688.90751 h -1.62479 v -8.37883 h 1.59293 v 1.27435 l 0.3823,-0.3823 q 1.00355,-0.9239 2.18232,-0.9239 h 0.43009 v 1.65665 h -0.41416 q -1.08319,0 -1.8478,0.63717 l -0.70089,0.57346 z"
         style="font-style:normal;font-variant:normal;font-weight:normal;font-stretch:normal;font-size:15.92933273px;font-family:KonsensMedium;-inkscape-font-specification:'KonsensMedium, Normal';font-variant-ligatures:normal;font-variant-caps:normal;font-variant-numeric:normal;font-feature-settings:normal;text-align:center;writing-mode:lr-tb;text-anchor:middle;fill:#ffffff"
         id="path911" /><path
         inkscape:connector-curvature="0"
         d="m -416.36739,688.90751 h -1.62479 v -8.37883 h 1.59293 v 1.27435 l 0.38231,-0.3823 q 1.00354,-0.9239 2.18231,-0.9239 h 0.4301 v 1.65665 h -0.41417 q -1.08319,0 -1.8478,0.63717 l -0.70089,0.57346 z"
         style="font-style:normal;font-variant:normal;font-weight:normal;font-stretch:normal;font-size:15.92933273px;font-family:KonsensMedium;-inkscape-font-specification:'KonsensMedium, Normal';font-variant-ligatures:normal;font-variant-caps:normal;font-variant-numeric:normal;font-feature-settings:normal;text-align:center;writing-mode:lr-tb;text-anchor:middle;fill:#ffffff"
         id="path913" /><path
         inkscape:connector-curvature="0"
         d="m -405.00978,686.24731 v 0.0797 q 0,1.22656 -0.97169,1.97524 -0.97169,0.74868 -2.59648,0.74868 -1.62479,0 -2.64427,-0.84426 -1.01947,-0.86018 -1.01947,-2.34161 v -2.0071 q 0,-1.56107 1.01947,-2.5009 1.01948,-0.93983 2.62834,-0.93983 1.60887,0 2.61241,0.93983 1.00355,0.9239 1.00355,2.51683 v 1.41771 h -5.71863 v 0.47788 q 0,0.93984 0.57346,1.43364 0.58938,0.47788 1.54514,0.47788 2.02303,0 2.02303,-1.43364 z m -1.49735,-2.15046 v -0.25486 q 0,-0.98762 -0.55753,-1.51329 -0.5416,-0.5416 -1.52922,-0.5416 -0.98761,0 -1.54514,0.5416 -0.55753,0.5416 -0.55753,1.52921 v 0.23894 z"
         style="font-style:normal;font-variant:normal;font-weight:normal;font-stretch:normal;font-size:15.92933273px;font-family:KonsensMedium;-inkscape-font-specification:'KonsensMedium, Normal';font-variant-ligatures:normal;font-variant-caps:normal;font-variant-numeric:normal;font-feature-settings:normal;text-align:center;writing-mode:lr-tb;text-anchor:middle;fill:#ffffff"
         id="path915" /><path
         inkscape:connector-curvature="0"
         d="m -398.34708,688.27034 h -2.86728 v 0.36637 q 0,1.03541 0.49381,1.52922 0.50973,0.50974 1.72036,0.50974 2.26197,0 2.26197,-1.33806 0,-0.58939 -0.41416,-0.82833 -0.39824,-0.23894 -1.1947,-0.23894 z m -1.48143,-3.67968 h 0.6531 q 1.78409,0 1.78409,-1.40178 0,-1.35399 -1.60887,-1.35399 h -0.78053 q -0.8124,0 -1.22656,0.31859 -0.41416,0.30265 -0.41416,1.08319 0,1.35399 1.59293,1.35399 z m 0.81239,1.22656 h -2.46904 q -0.63718,0 -0.63718,0.60532 0,0.58938 0.60532,0.58938 h 3.34516 q 2.97878,0 2.97878,2.2779 0,1.27434 -1.0354,1.95931 -1.03541,0.70089 -2.75578,0.70089 -3.67967,0 -3.67967,-3.23366 v -0.81239 q -0.82833,-0.38231 -0.82833,-1.48143 0,-0.63718 0.31859,-1.05134 0.31859,-0.41416 0.84425,-0.55753 -0.0637,-0.0478 -0.17522,-0.15929 -0.0956,-0.12743 -0.2708,-0.5416 -0.17522,-0.41416 -0.17522,-0.90797 0,-1.3062 0.8124,-1.99116 0.81239,-0.68497 2.19824,-0.68497 h 4.7788 v 1.38586 h -1.25841 q 0.49381,0.35044 0.49381,1.3062 0,1.21063 -0.84426,1.91152 -0.82832,0.68496 -2.24604,0.68496 z"
         style="font-style:normal;font-variant:normal;font-weight:normal;font-stretch:normal;font-size:15.92933273px;font-family:KonsensMedium;-inkscape-font-specification:'KonsensMedium, Normal';font-variant-ligatures:normal;font-variant-caps:normal;font-variant-numeric:normal;font-feature-settings:normal;text-align:center;writing-mode:lr-tb;text-anchor:middle;fill:#ffffff"
         id="path917" /><path
         inkscape:connector-curvature="0"
         d="m -392.05226,688.90751 h -1.64072 v -8.37883 h 1.64072 z m 0.1115,-11.11867 v 0.33452 q 0,0.36637 -0.27079,0.58938 -0.25487,0.22301 -0.65311,0.22301 -0.43009,0 -0.68496,-0.20708 -0.25487,-0.22301 -0.25487,-0.60531 v -0.33452 q 0,-0.3823 0.25487,-0.58939 0.25487,-0.22301 0.68496,-0.22301 0.39824,0 0.65311,0.22301 0.27079,0.22301 0.27079,0.58939 z"
         style="font-style:normal;font-variant:normal;font-weight:normal;font-stretch:normal;font-size:15.92933273px;font-family:KonsensMedium;-inkscape-font-specification:'KonsensMedium, Normal';font-variant-ligatures:normal;font-variant-caps:normal;font-variant-numeric:normal;font-feature-settings:normal;text-align:center;writing-mode:lr-tb;text-anchor:middle;fill:#ffffff"
         id="path919" /><path
         inkscape:connector-curvature="0"
         d="m -383.02107,683.20481 h -1.59294 q 0,-1.43364 -1.87966,-1.43364 -0.89204,0 -1.36992,0.31859 -0.46195,0.31859 -0.46195,0.84425 0,0.49381 0.39823,0.76461 0.39823,0.2708 0.98762,0.33452 0.58939,0.0637 1.27435,0.19115 0.70089,0.12743 1.29027,0.30266 0.58939,0.15929 0.98762,0.6531 0.39823,0.49381 0.39823,1.29028 0,1.17877 -0.93983,1.87966 -0.93983,0.68496 -2.58055,0.68496 -1.65665,0 -2.61241,-0.74868 -0.93983,-0.74868 -0.93983,-1.97524 v -0.0796 h 1.64072 q 0,1.44956 1.94338,1.44956 0.9239,0 1.41771,-0.30265 0.50974,-0.31859 0.50974,-0.84426 0,-0.52567 -0.55753,-0.76461 -0.54159,-0.23894 -1.32213,-0.33451 -0.78054,-0.0956 -1.57701,-0.25487 -0.78053,-0.15929 -1.33806,-0.70089 -0.5416,-0.55753 -0.5416,-1.51329 0,-1.17877 0.90798,-1.86373 0.9239,-0.68496 2.51683,-0.68496 1.64072,0 2.53276,0.74868 0.90798,0.73275 0.90798,1.97523 z"
         style="font-style:normal;font-variant:normal;font-weight:normal;font-stretch:normal;font-size:15.92933273px;font-family:KonsensMedium;-inkscape-font-specification:'KonsensMedium, Normal';font-variant-ligatures:normal;font-variant-caps:normal;font-variant-numeric:normal;font-feature-settings:normal;text-align:center;writing-mode:lr-tb;text-anchor:middle;fill:#ffffff"
         id="path921" /><path
         inkscape:connector-curvature="0"
         d="m -376.34793,688.90751 h -1.05134 q -1.43364,0 -2.26196,-0.73275 -0.82833,-0.73275 -0.82833,-2.13453 v -4.10976 h -1.33806 v -1.40179 h 1.35399 v -2.26196 h 1.6248 v 2.26196 h 2.43718 v 1.40179 h -2.43718 v 4.03012 q 0,0.82832 0.36637,1.17877 0.3823,0.33451 1.17877,0.33451 h 0.95576 z"
         style="font-style:normal;font-variant:normal;font-weight:normal;font-stretch:normal;font-size:15.92933273px;font-family:KonsensMedium;-inkscape-font-specification:'KonsensMedium, Normal';font-variant-ligatures:normal;font-variant-caps:normal;font-variant-numeric:normal;font-feature-settings:normal;text-align:center;writing-mode:lr-tb;text-anchor:middle;fill:#ffffff"
         id="path923" /><path
         inkscape:connector-curvature="0"
         d="m -367.6754,686.24731 v 0.0797 q 0,1.22656 -0.97169,1.97524 -0.97169,0.74868 -2.59648,0.74868 -1.6248,0 -2.64427,-0.84426 -1.01948,-0.86018 -1.01948,-2.34161 v -2.0071 q 0,-1.56107 1.01948,-2.5009 1.01947,-0.93983 2.62834,-0.93983 1.60886,0 2.61241,0.93983 1.00355,0.9239 1.00355,2.51683 v 1.41771 h -5.71863 v 0.47788 q 0,0.93984 0.57345,1.43364 0.58939,0.47788 1.54515,0.47788 2.02302,0 2.02302,-1.43364 z m -1.49736,-2.15046 v -0.25486 q 0,-0.98762 -0.55753,-1.51329 -0.54159,-0.5416 -1.52921,-0.5416 -0.98762,0 -1.54515,0.5416 -0.55752,0.5416 -0.55752,1.52921 v 0.23894 z"
         style="font-style:normal;font-variant:normal;font-weight:normal;font-stretch:normal;font-size:15.92933273px;font-family:KonsensMedium;-inkscape-font-specification:'KonsensMedium, Normal';font-variant-ligatures:normal;font-variant-caps:normal;font-variant-numeric:normal;font-feature-settings:normal;text-align:center;writing-mode:lr-tb;text-anchor:middle;fill:#ffffff"
         id="path925" /><path
         inkscape:connector-curvature="0"
         d="m -363.94371,688.90751 h -1.62479 v -8.37883 h 1.59293 v 1.27435 l 0.38231,-0.3823 q 1.00355,-0.9239 2.18232,-0.9239 h 0.43009 v 1.65665 h -0.41416 q -1.0832,0 -1.84781,0.63717 l -0.70089,0.57346 z"
         style="font-style:normal;font-variant:normal;font-weight:normal;font-stretch:normal;font-size:15.92933273px;font-family:KonsensMedium;-inkscape-font-specification:'KonsensMedium, Normal';font-variant-ligatures:normal;font-variant-caps:normal;font-variant-numeric:normal;font-feature-settings:normal;text-align:center;writing-mode:lr-tb;text-anchor:middle;fill:#ffffff"
         id="path927" /></g></clipPath></defs><sodipodi:namedview
   pagecolor="#ffffff"
   bordercolor="#666666"
   borderopacity="1"
   objecttolerance="10"
   gridtolerance="10"
   guidetolerance="10"
   inkscape:pageopacity="0"
   inkscape:pageshadow="2"
   inkscape:window-width="1920"
   inkscape:window-height="1017"
   id="namedview27"
   showgrid="false"
   inkscape:zoom="4"
   inkscape:cx="3.010677"
   inkscape:cy="101.33984"
   inkscape:window-x="1912"
   inkscape:window-y="-8"
   inkscape:window-maximized="1"
   inkscape:current-layer="Calque_1"
   fit-margin-top="0"
   fit-margin-left="0"
   fit-margin-right="0"
   fit-margin-bottom="0" /><style
   type="text/css"
   id="style2">
	.st0{fill:#40637D;}
	.st1{fill:#FFFFFF;}
</style><g
   id="g6"
   transform="translate(0,-0.1)"><path
     class="st0"
     d="m -330,640.7 c 0,-38.3 31,-69.3 69.3,-69.3 38.3,0 69.3,31 69.3,69.3 0,38.3 -31,69.3 -69.3,69.3 -38.3,0 -69.3,-31 -69.3,-69.3"
     id="path4"
     inkscape:connector-curvature="0"
     style="fill:#40637d" /></g><g
   id="g24"
   transform="translate(-0.0437875,-6.34999)"><g
     id="g22"><path
       class="st1"
       d="m -235.3,620.9 -11.3,11.3 c -6.2,6.2 -16.3,6.2 -22.5,0 -1,-1 -1.7,-2.1 -2.4,-3.2 l 5.2,-5.2 c 0.2,-0.3 0.6,-0.4 0.8,-0.6 0.4,1.2 1,2.4 2,3.4 3.1,3.1 8.2,3.1 11.3,0 l 11.3,-11.3 c 3.1,-3.1 3.1,-8.2 0,-11.3 -3.1,-3.1 -8.2,-3.1 -11.3,0 l -4,4 c -3.2,-1.3 -6.7,-1.6 -10.2,-1.1 l 8.5,-8.5 c 6.2,-6.2 16.3,-6.2 22.5,0 6.3,6.2 6.3,16.3 0.1,22.5 m -29.8,18.6 -4,4 c -3.1,3.1 -8.2,3.1 -11.3,0 -3.1,-3.1 -3.1,-8.2 0,-11.3 l 11.3,-11.3 c 3.1,-3.1 8.2,-3.1 11.3,0 1,1 1.6,2.1 2,3.4 0.3,-0.2 0.6,-0.3 0.8,-0.6 l 5.2,-5.2 c -0.7,-1.1 -1.4,-2.2 -2.4,-3.2 -6.2,-6.2 -16.3,-6.2 -22.5,0 l -11.3,11.3 c -6.2,6.2 -6.2,16.3 0,22.5 6.2,6.2 16.3,6.2 22.5,0 l 8.5,-8.5 c -3.4,0.5 -6.9,0.1 -10.1,-1.1"
       id="path20"
       inkscape:connector-curvature="0"
       style="fill:#ffffff" /></g></g><g
   aria-label="Partners 
and Links"
   style="font-style:normal;font-variant:normal;font-weight:normal;font-stretch:normal;font-size:15.92933273px;line-height:1.25;font-family:KonsensMedium;-inkscape-font-specification:'KonsensMedium, Normal';font-variant-ligatures:normal;font-variant-caps:normal;font-variant-numeric:normal;font-feature-settings:normal;text-align:start;letter-spacing:0px;word-spacing:0px;writing-mode:lr-tb;text-anchor:start;fill:#ffffff;fill-opacity:1;stroke:none"
   id="text35"><path
     d="m -289.95198,670.41357 h -1.7363 v -11.85142 h 4.85845 q 1.56107,0 2.59648,0.95576 1.0354,0.93983 1.0354,2.62834 0,1.67258 -1.11505,2.67613 -1.11505,0.98762 -2.62834,0.98762 h -3.01064 z m 0,-6.11686 h 2.91506 q 0.93983,0 1.51329,-0.57346 0.58939,-0.58938 0.58939,-1.577 0,-1.00355 -0.5416,-1.52922 -0.5416,-0.54159 -1.48143,-0.54159 h -2.99471 z"
     style="font-style:normal;font-variant:normal;font-weight:normal;font-stretch:normal;font-size:15.92933273px;font-family:KonsensMedium;-inkscape-font-specification:'KonsensMedium, Normal';font-variant-ligatures:normal;font-variant-caps:normal;font-variant-numeric:normal;font-feature-settings:normal;text-align:center;writing-mode:lr-tb;text-anchor:middle"
     id="path931" /><path
     d="m -276.43246,667.94453 v -1.06727 h -2.50091 q -1.59293,0 -1.59293,1.21063 0,0.49381 0.28672,0.78054 0.28673,0.2708 0.8124,0.2708 0.78054,0 1.62479,-0.46195 z m 1.59293,2.46904 h -1.59293 v -1.08319 l -0.92391,0.50974 q -1.24248,0.66903 -2.34161,0.66903 -1.09912,0 -1.78408,-0.6531 -0.66904,-0.65311 -0.66904,-1.70444 0,-1.22656 0.84426,-1.87966 0.86018,-0.6531 2.19825,-0.6531 h 2.69205 v -0.52567 q 0,-1.83188 -1.92744,-1.83188 -2.03896,0 -2.03896,1.64073 h -1.577 v -0.0797 q 0,-1.36992 0.98762,-2.15046 1.00354,-0.78054 2.61241,-0.78054 1.65665,0 2.58055,0.82833 0.93983,0.81239 0.93983,2.29382 z"
     style="font-style:normal;font-variant:normal;font-weight:normal;font-stretch:normal;font-size:15.92933273px;font-family:KonsensMedium;-inkscape-font-specification:'KonsensMedium, Normal';font-variant-ligatures:normal;font-variant-caps:normal;font-variant-numeric:normal;font-feature-settings:normal;text-align:center;writing-mode:lr-tb;text-anchor:middle"
     id="path933" /><path
     d="m -271.07149,670.41357 h -1.6248 v -8.37882 h 1.59294 v 1.27434 l 0.3823,-0.3823 q 1.00355,-0.9239 2.18232,-0.9239 h 0.43009 v 1.65665 h -0.41416 q -1.0832,0 -1.8478,0.63717 l -0.70089,0.57346 z"
     style="font-style:normal;font-variant:normal;font-weight:normal;font-stretch:normal;font-size:15.92933273px;font-family:KonsensMedium;-inkscape-font-specification:'KonsensMedium, Normal';font-variant-ligatures:normal;font-variant-caps:normal;font-variant-numeric:normal;font-feature-settings:normal;text-align:center;writing-mode:lr-tb;text-anchor:middle"
     id="path935" /><path
     d="m -262.03956,670.41357 h -1.05134 q -1.43364,0 -2.26196,-0.73275 -0.82833,-0.73274 -0.82833,-2.13453 v -4.10976 h -1.33806 v -1.40178 h 1.35399 v -2.26197 h 1.62479 v 2.26197 h 2.43719 v 1.40178 h -2.43719 v 4.03012 q 0,0.82832 0.36638,1.17877 0.3823,0.33451 1.17877,0.33451 h 0.95576 z"
     style="font-style:normal;font-variant:normal;font-weight:normal;font-stretch:normal;font-size:15.92933273px;font-family:KonsensMedium;-inkscape-font-specification:'KonsensMedium, Normal';font-variant-ligatures:normal;font-variant-caps:normal;font-variant-numeric:normal;font-feature-settings:normal;text-align:center;writing-mode:lr-tb;text-anchor:middle"
     id="path937" /><path
     d="m -253.28739,670.41357 h -1.62479 v -5.59119 q 0,-0.60532 -0.33452,-0.98762 -0.31858,-0.39823 -0.90797,-0.39823 -0.5416,0 -1.25842,0.41416 l -1.36992,0.8124 v 5.75048 h -1.59293 v -8.37882 h 1.577 v 1.09912 l 0.95576,-0.58939 q 0.93983,-0.58938 1.99117,-0.58938 1.17877,0 1.86373,0.73275 0.70089,0.73275 0.70089,1.94338 z"
     style="font-style:normal;font-variant:normal;font-weight:normal;font-stretch:normal;font-size:15.92933273px;font-family:KonsensMedium;-inkscape-font-specification:'KonsensMedium, Normal';font-variant-ligatures:normal;font-variant-caps:normal;font-variant-numeric:normal;font-feature-settings:normal;text-align:center;writing-mode:lr-tb;text-anchor:middle"
     id="path939" /><path
     d="m -244.06456,667.75338 v 0.0796 q 0,1.22656 -0.97169,1.97524 -0.97168,0.74868 -2.59648,0.74868 -1.62479,0 -2.64427,-0.84426 -1.01947,-0.86018 -1.01947,-2.34161 v -2.00709 q 0,-1.56108 1.01947,-2.50091 1.01948,-0.93983 2.62834,-0.93983 1.60887,0 2.61241,0.93983 1.00355,0.9239 1.00355,2.51684 v 1.41771 h -5.71863 v 0.47788 q 0,0.93983 0.57346,1.43364 0.58938,0.47788 1.54514,0.47788 2.02303,0 2.02303,-1.43364 z m -1.49735,-2.15046 v -0.25487 q 0,-0.98762 -0.55753,-1.51329 -0.5416,-0.5416 -1.52922,-0.5416 -0.98761,0 -1.54514,0.5416 -0.55753,0.5416 -0.55753,1.52922 v 0.23894 z"
     style="font-style:normal;font-variant:normal;font-weight:normal;font-stretch:normal;font-size:15.92933273px;font-family:KonsensMedium;-inkscape-font-specification:'KonsensMedium, Normal';font-variant-ligatures:normal;font-variant-caps:normal;font-variant-numeric:normal;font-feature-settings:normal;text-align:center;writing-mode:lr-tb;text-anchor:middle"
     id="path941" /><path
     d="m -240.33286,670.41357 h -1.62479 v -8.37882 h 1.59293 v 1.27434 l 0.38231,-0.3823 q 1.00354,-0.9239 2.18231,-0.9239 h 0.4301 v 1.65665 h -0.41417 q -1.08319,0 -1.8478,0.63717 l -0.70089,0.57346 z"
     style="font-style:normal;font-variant:normal;font-weight:normal;font-stretch:normal;font-size:15.92933273px;font-family:KonsensMedium;-inkscape-font-specification:'KonsensMedium, Normal';font-variant-ligatures:normal;font-variant-caps:normal;font-variant-numeric:normal;font-feature-settings:normal;text-align:center;writing-mode:lr-tb;text-anchor:middle"
     id="path943" /><path
     d="m -229.29383,664.71087 h -1.59294 q 0,-1.43364 -1.87966,-1.43364 -0.89204,0 -1.36992,0.31859 -0.46195,0.31859 -0.46195,0.84425 0,0.49381 0.39823,0.76461 0.39824,0.2708 0.98762,0.33452 0.58939,0.0637 1.27435,0.19115 0.70089,0.12744 1.29027,0.30266 0.58939,0.15929 0.98762,0.6531 0.39824,0.49381 0.39824,1.29028 0,1.17877 -0.93983,1.87966 -0.93984,0.68496 -2.58056,0.68496 -1.65665,0 -2.61241,-0.74868 -0.93983,-0.74868 -0.93983,-1.97524 v -0.0796 h 1.64072 q 0,1.44957 1.94338,1.44957 0.9239,0 1.41771,-0.30266 0.50974,-0.31859 0.50974,-0.84426 0,-0.52566 -0.55753,-0.7646 -0.54159,-0.23894 -1.32213,-0.33452 -0.78054,-0.0956 -1.577,-0.25487 -0.78054,-0.15929 -1.33807,-0.70089 -0.5416,-0.55753 -0.5416,-1.51329 0,-1.17877 0.90798,-1.86373 0.9239,-0.68496 2.51683,-0.68496 1.64072,0 2.53277,0.74868 0.90797,0.73275 0.90797,1.97524 z"
     style="font-style:normal;font-variant:normal;font-weight:normal;font-stretch:normal;font-size:15.92933273px;font-family:KonsensMedium;-inkscape-font-specification:'KonsensMedium, Normal';font-variant-ligatures:normal;font-variant-caps:normal;font-variant-numeric:normal;font-feature-settings:normal;text-align:center;writing-mode:lr-tb;text-anchor:middle"
     id="path945" /><path
     d="m -290.44467,687.85619 v -1.06726 h -2.50091 q -1.59293,0 -1.59293,1.21063 0,0.49381 0.28673,0.78053 0.28672,0.2708 0.81239,0.2708 0.78054,0 1.62479,-0.46195 z m 1.59293,2.46905 h -1.59293 v -1.08319 l -0.9239,0.50973 q -1.24249,0.66904 -2.34162,0.66904 -1.09912,0 -1.78408,-0.65311 -0.66903,-0.6531 -0.66903,-1.70444 0,-1.22655 0.84425,-1.87966 0.86018,-0.6531 2.19825,-0.6531 h 2.69206 v -0.52567 q 0,-1.83187 -1.92745,-1.83187 -2.03896,0 -2.03896,1.64072 h -1.577 v -0.0796 q 0,-1.36992 0.98762,-2.15046 1.00354,-0.78053 2.61241,-0.78053 1.65665,0 2.58055,0.82832 0.93983,0.8124 0.93983,2.29383 z"
     style="font-style:normal;font-variant:normal;font-weight:normal;font-stretch:normal;font-size:15.92933273px;font-family:KonsensMedium;-inkscape-font-specification:'KonsensMedium, Normal';font-variant-ligatures:normal;font-variant-caps:normal;font-variant-numeric:normal;font-feature-settings:normal;text-align:center;writing-mode:lr-tb;text-anchor:middle"
     id="path947" /><path
     d="m -279.62368,690.32524 h -1.62479 v -5.5912 q 0,-0.60531 -0.33452,-0.98761 -0.31858,-0.39824 -0.90797,-0.39824 -0.5416,0 -1.25842,0.41417 l -1.36992,0.81239 v 5.75049 h -1.59293 v -8.37883 h 1.577 v 1.09913 l 0.95576,-0.58939 q 0.93983,-0.58939 1.99117,-0.58939 1.17877,0 1.86373,0.73275 0.70089,0.73275 0.70089,1.94338 z"
     style="font-style:normal;font-variant:normal;font-weight:normal;font-stretch:normal;font-size:15.92933273px;font-family:KonsensMedium;-inkscape-font-specification:'KonsensMedium, Normal';font-variant-ligatures:normal;font-variant-caps:normal;font-variant-numeric:normal;font-feature-settings:normal;text-align:center;writing-mode:lr-tb;text-anchor:middle"
     id="path949" /><path
     d="m -271.77077,687.77655 v -3.23366 l -1.49735,-0.84425 q -0.65311,-0.35045 -1.30621,-0.35045 -0.66903,0 -1.08319,0.43009 -0.39824,0.41417 -0.39824,1.11506 v 2.53276 q 0,0.70089 0.39824,1.13098 0.41416,0.41417 1.08319,0.41417 0.63718,0 1.30621,-0.36638 z m 1.57701,2.54869 h -1.56108 v -1.00355 l -1.05133,0.57346 q -0.97169,0.5416 -1.99117,0.5416 -1.25842,0 -2.05488,-0.78054 -0.78054,-0.78054 -0.78054,-2.03896 v -2.86728 q 0,-1.25841 0.8124,-2.07081 0.81239,-0.8124 2.07081,-0.8124 0.97169,0 1.94338,0.5416 l 1.0354,0.57346 v -4.508 h 1.57701 z"
     style="font-style:normal;font-variant:normal;font-weight:normal;font-stretch:normal;font-size:15.92933273px;font-family:KonsensMedium;-inkscape-font-specification:'KonsensMedium, Normal';font-variant-ligatures:normal;font-variant-caps:normal;font-variant-numeric:normal;font-feature-settings:normal;text-align:center;writing-mode:lr-tb;text-anchor:middle"
     id="path951" /><path
     d="m -255.81406,690.32524 h -7.39121 v -11.85142 h 1.76816 v 10.29035 h 5.62305 z"
     style="font-style:normal;font-variant:normal;font-weight:normal;font-stretch:normal;font-size:15.92933273px;font-family:KonsensMedium;-inkscape-font-specification:'KonsensMedium, Normal';font-variant-ligatures:normal;font-variant-caps:normal;font-variant-numeric:normal;font-feature-settings:normal;text-align:center;writing-mode:lr-tb;text-anchor:middle"
     id="path953" /><path
     d="m -252.34096,690.32524 h -1.64072 v -8.37883 h 1.64072 z m 0.1115,-11.11867 v 0.33451 q 0,0.36638 -0.2708,0.58939 -0.25487,0.22301 -0.6531,0.22301 -0.43009,0 -0.68496,-0.20708 -0.25487,-0.22301 -0.25487,-0.60532 v -0.33451 q 0,-0.38231 0.25487,-0.58939 0.25487,-0.22301 0.68496,-0.22301 0.39823,0 0.6531,0.22301 0.2708,0.22301 0.2708,0.58939 z"
     style="font-style:normal;font-variant:normal;font-weight:normal;font-stretch:normal;font-size:15.92933273px;font-family:KonsensMedium;-inkscape-font-specification:'KonsensMedium, Normal';font-variant-ligatures:normal;font-variant-caps:normal;font-variant-numeric:normal;font-feature-settings:normal;text-align:center;writing-mode:lr-tb;text-anchor:middle"
     id="path955" /><path
     d="m -242.91154,690.32524 h -1.6248 v -5.5912 q 0,-0.60531 -0.33451,-0.98761 -0.31859,-0.39824 -0.90797,-0.39824 -0.5416,0 -1.25842,0.41417 l -1.36992,0.81239 v 5.75049 h -1.59294 v -8.37883 h 1.57701 v 1.09913 l 0.95576,-0.58939 q 0.93983,-0.58939 1.99116,-0.58939 1.17877,0 1.86374,0.73275 0.70089,0.73275 0.70089,1.94338 z"
     style="font-style:normal;font-variant:normal;font-weight:normal;font-stretch:normal;font-size:15.92933273px;font-family:KonsensMedium;-inkscape-font-specification:'KonsensMedium, Normal';font-variant-ligatures:normal;font-variant-caps:normal;font-variant-numeric:normal;font-feature-settings:normal;text-align:center;writing-mode:lr-tb;text-anchor:middle"
     id="path957" /><path
     d="m -233.06747,690.32524 h -1.8478 l -2.3894,-4.22127 -1.80001,1.87966 v 2.34161 h -1.59294 v -11.85142 h 1.59294 v 7.5505 l 3.75932,-4.07791 h 2.1186 l -2.88321,2.99472 z"
     style="font-style:normal;font-variant:normal;font-weight:normal;font-stretch:normal;font-size:15.92933273px;font-family:KonsensMedium;-inkscape-font-specification:'KonsensMedium, Normal';font-variant-ligatures:normal;font-variant-caps:normal;font-variant-numeric:normal;font-feature-settings:normal;text-align:center;writing-mode:lr-tb;text-anchor:middle"
     id="path959" /><path
     d="m -225.26857,684.62254 h -1.59293 q 0,-1.43364 -1.87966,-1.43364 -0.89204,0 -1.36992,0.31859 -0.46195,0.31858 -0.46195,0.84425 0,0.49381 0.39823,0.76461 0.39823,0.2708 0.98762,0.33451 0.58938,0.0637 1.27434,0.19116 0.7009,0.12743 1.29028,0.30265 0.58939,0.1593 0.98762,0.65311 0.39823,0.49381 0.39823,1.29027 0,1.17877 -0.93983,1.87966 -0.93983,0.68496 -2.58055,0.68496 -1.65665,0 -2.61241,-0.74867 -0.93983,-0.74868 -0.93983,-1.97524 v -0.0797 h 1.64072 q 0,1.44957 1.94338,1.44957 0.9239,0 1.41771,-0.30266 0.50974,-0.31858 0.50974,-0.84425 0,-0.52567 -0.55753,-0.76461 -0.5416,-0.23894 -1.32213,-0.33451 -0.78054,-0.0956 -1.57701,-0.25487 -0.78053,-0.1593 -1.33806,-0.70089 -0.5416,-0.55753 -0.5416,-1.51329 0,-1.17877 0.90797,-1.86373 0.9239,-0.68496 2.51684,-0.68496 1.64072,0 2.53276,0.74867 0.90797,0.73275 0.90797,1.97524 z"
     style="font-style:normal;font-variant:normal;font-weight:normal;font-stretch:normal;font-size:15.92933273px;font-family:KonsensMedium;-inkscape-font-specification:'KonsensMedium, Normal';font-variant-ligatures:normal;font-variant-caps:normal;font-variant-numeric:normal;font-feature-settings:normal;text-align:center;writing-mode:lr-tb;text-anchor:middle"
     id="path961" /></g>

</svg>