<?xml version="1.0" encoding="UTF-8" standalone="no"?>
<!-- Generator: Adobe Illustrator 19.1.0, SVG Export Plug-In . SVG Version: 6.00 Build 0)  -->

<svg
   xmlns:dc="http://purl.org/dc/elements/1.1/"
   xmlns:cc="http://creativecommons.org/ns#"
   xmlns:rdf="http://www.w3.org/1999/02/22-rdf-syntax-ns#"
   xmlns:svg="http://www.w3.org/2000/svg"
   xmlns="http://www.w3.org/2000/svg"
   xmlns:sodipodi="http://sodipodi.sourceforge.net/DTD/sodipodi-0.dtd"
   xmlns:inkscape="http://www.inkscape.org/namespaces/inkscape"
   version="1.1"
   id="Calque_1"
   x="0px"
   y="0px"
   viewBox="-330 571.3 138.60001 138.60001"
   xml:space="preserve"
   sodipodi:docname="main_menu_logo_links-de.svg"
   inkscape:version="0.92.4 (5da689c313, 2019-01-14)"
   width="138.60001"
   height="138.60001"><metadata
   id="metadata31"><rdf:RDF><cc:Work
       rdf:about=""><dc:format>image/svg+xml</dc:format><dc:type
         rdf:resource="http://purl.org/dc/dcmitype/StillImage" /><dc:title></dc:title></cc:Work></rdf:RDF></metadata><defs
   id="defs29" /><sodipodi:namedview
   pagecolor="#ffffff"
   bordercolor="#666666"
   borderopacity="1"
   objecttolerance="10"
   gridtolerance="10"
   guidetolerance="10"
   inkscape:pageopacity="0"
   inkscape:pageshadow="2"
   inkscape:window-width="1920"
   inkscape:window-height="1017"
   id="namedview27"
   showgrid="false"
   inkscape:zoom="4"
   inkscape:cx="4.010677"
   inkscape:cy="32.740361"
   inkscape:window-x="1912"
   inkscape:window-y="-8"
   inkscape:window-maximized="1"
   inkscape:current-layer="Calque_1"
   fit-margin-top="0"
   fit-margin-left="0"
   fit-margin-right="0"
   fit-margin-bottom="0" /><style
   type="text/css"
   id="style2">
	.st0{fill:#40637D;}
	.st1{fill:#FFFFFF;}
</style><g
   id="g6"
   transform="translate(0,-0.1)"><path
     class="st0"
     d="m -330,640.7 c 0,-38.3 31,-69.3 69.3,-69.3 38.3,0 69.3,31 69.3,69.3 0,38.3 -31,69.3 -69.3,69.3 -38.3,0 -69.3,-31 -69.3,-69.3"
     id="path4"
     inkscape:connector-curvature="0"
     style="fill:#40637d" /></g><g
   id="g24"
   transform="translate(-0.0437875,-6.34999)"><g
     id="g22"><path
       class="st1"
       d="m -235.3,620.9 -11.3,11.3 c -6.2,6.2 -16.3,6.2 -22.5,0 -1,-1 -1.7,-2.1 -2.4,-3.2 l 5.2,-5.2 c 0.2,-0.3 0.6,-0.4 0.8,-0.6 0.4,1.2 1,2.4 2,3.4 3.1,3.1 8.2,3.1 11.3,0 l 11.3,-11.3 c 3.1,-3.1 3.1,-8.2 0,-11.3 -3.1,-3.1 -8.2,-3.1 -11.3,0 l -4,4 c -3.2,-1.3 -6.7,-1.6 -10.2,-1.1 l 8.5,-8.5 c 6.2,-6.2 16.3,-6.2 22.5,0 6.3,6.2 6.3,16.3 0.1,22.5 m -29.8,18.6 -4,4 c -3.1,3.1 -8.2,3.1 -11.3,0 -3.1,-3.1 -3.1,-8.2 0,-11.3 l 11.3,-11.3 c 3.1,-3.1 8.2,-3.1 11.3,0 1,1 1.6,2.1 2,3.4 0.3,-0.2 0.6,-0.3 0.8,-0.6 l 5.2,-5.2 c -0.7,-1.1 -1.4,-2.2 -2.4,-3.2 -6.2,-6.2 -16.3,-6.2 -22.5,0 l -11.3,11.3 c -6.2,6.2 -6.2,16.3 0,22.5 6.2,6.2 16.3,6.2 22.5,0 l 8.5,-8.5 c -3.4,0.5 -6.9,0.1 -10.1,-1.1"
       id="path20"
       inkscape:connector-curvature="0"
       style="fill:#ffffff" /></g></g><g
   aria-label="Partner 
und Links"
   style="font-style:normal;font-variant:normal;font-weight:normal;font-stretch:normal;font-size:15.92933273px;line-height:1.25;font-family:KonsensMedium;-inkscape-font-specification:'KonsensMedium, Normal';font-variant-ligatures:normal;font-variant-caps:normal;font-variant-numeric:normal;font-feature-settings:normal;text-align:center;letter-spacing:0px;word-spacing:0px;writing-mode:lr-tb;text-anchor:middle;fill:#ffffff;fill-opacity:1;stroke:none"
   id="text35"><path
     d="m -285.61186,668.99585 h -1.7363 v -11.85142 h 4.85845 q 1.56107,0 2.59648,0.95576 1.0354,0.93983 1.0354,2.62834 0,1.67258 -1.11505,2.67612 -1.11505,0.98762 -2.62834,0.98762 h -3.01064 z m 0,-6.11686 h 2.91506 q 0.93984,0 1.51329,-0.57346 0.58939,-0.58939 0.58939,-1.577 0,-1.00355 -0.5416,-1.52922 -0.5416,-0.5416 -1.48143,-0.5416 h -2.99471 z"
     style=""
     id="path854" /><path
     d="m -272.09234,666.5268 v -1.06726 h -2.50091 q -1.59293,0 -1.59293,1.21063 0,0.49381 0.28673,0.78053 0.28672,0.2708 0.81239,0.2708 0.78054,0 1.62479,-0.46195 z m 1.59293,2.46905 h -1.59293 v -1.0832 l -0.9239,0.50974 q -1.24249,0.66904 -2.34162,0.66904 -1.09912,0 -1.78408,-0.65311 -0.66903,-0.6531 -0.66903,-1.70444 0,-1.22655 0.84425,-1.87966 0.86018,-0.6531 2.19825,-0.6531 h 2.69206 v -0.52567 q 0,-1.83187 -1.92745,-1.83187 -2.03896,0 -2.03896,1.64072 h -1.577 v -0.0797 q 0,-1.36992 0.98762,-2.15046 1.00354,-0.78053 2.61241,-0.78053 1.65665,0 2.58055,0.82832 0.93983,0.8124 0.93983,2.29383 z"
     style=""
     id="path856" /><path
     d="m -266.73137,668.99585 h -1.6248 v -8.37883 h 1.59294 v 1.27435 l 0.3823,-0.38231 q 1.00355,-0.9239 2.18232,-0.9239 h 0.43009 v 1.65665 h -0.41416 q -1.08319,0 -1.8478,0.63718 l -0.70089,0.57345 z"
     style=""
     id="path858" /><path
     d="m -257.69944,668.99585 h -1.05134 q -1.43364,0 -2.26196,-0.73275 -0.82833,-0.73275 -0.82833,-2.13453 v -4.10977 h -1.33806 v -1.40178 h 1.35399 v -2.26196 h 1.62479 v 2.26196 h 2.43719 v 1.40178 h -2.43719 v 4.03012 q 0,0.82833 0.36638,1.17877 0.3823,0.33452 1.17877,0.33452 h 0.95576 z"
     style=""
     id="path860" /><path
     d="m -248.94727,668.99585 h -1.62479 v -5.5912 q 0,-0.60531 -0.33452,-0.98761 -0.31858,-0.39824 -0.90797,-0.39824 -0.5416,0 -1.25842,0.41416 l -1.36992,0.8124 v 5.75049 h -1.59293 v -8.37883 h 1.577 v 1.09912 l 0.95576,-0.58938 q 0.93983,-0.58939 1.99117,-0.58939 1.17877,0 1.86373,0.73275 0.70089,0.73275 0.70089,1.94338 z"
     style=""
     id="path862" /><path
     d="m -239.72444,666.33565 v 0.0797 q 0,1.22656 -0.97168,1.97523 -0.97169,0.74868 -2.59649,0.74868 -1.62479,0 -2.64426,-0.84425 -1.01948,-0.86018 -1.01948,-2.34161 v -2.0071 q 0,-1.56107 1.01948,-2.5009 1.01947,-0.93983 2.62834,-0.93983 1.60886,0 2.61241,0.93983 1.00354,0.9239 1.00354,2.51683 v 1.41771 h -5.71863 v 0.47788 q 0,0.93983 0.57346,1.43364 0.58938,0.47788 1.54514,0.47788 2.02303,0 2.02303,-1.43364 z m -1.49735,-2.15046 v -0.25487 q 0,-0.98762 -0.55753,-1.51328 -0.5416,-0.5416 -1.52921,-0.5416 -0.98762,0 -1.54515,0.5416 -0.55753,0.54159 -0.55753,1.52921 v 0.23894 z"
     style=""
     id="path864" /><path
     d="m -235.99274,668.99585 h -1.62479 v -8.37883 h 1.59293 v 1.27435 l 0.38231,-0.38231 q 1.00354,-0.9239 2.18231,-0.9239 h 0.4301 v 1.65665 h -0.41417 q -1.08319,0 -1.8478,0.63718 l -0.70089,0.57345 z"
     style=""
     id="path866" /><path
     d="m -288.89691,688.90752 h -1.57701 v -1.09913 l -0.95576,0.58939 q -1.00355,0.60531 -1.99117,0.58938 -1.17877,0 -1.87966,-0.71682 -0.68496,-0.73275 -0.68496,-1.94338 v -5.79827 h 1.62479 v 5.60712 q 0,0.62125 0.33452,1.00355 0.33452,0.36637 0.90797,0.36637 0.5416,0 1.25842,-0.41416 l 1.36992,-0.81239 v -5.75049 h 1.59294 z"
     style=""
     id="path868" /><path
     d="m -279.51479,688.90752 h -1.62479 v -5.5912 q 0,-0.60531 -0.33451,-0.98762 -0.31859,-0.39823 -0.90798,-0.39823 -0.54159,0 -1.25841,0.41416 l -1.36993,0.8124 v 5.75049 h -1.59293 v -8.37883 h 1.577 v 1.09912 l 0.95576,-0.58938 q 0.93984,-0.58939 1.99117,-0.58939 1.17877,0 1.86373,0.73275 0.70089,0.73275 0.70089,1.94338 z"
     style=""
     id="path870" /><path
     d="m -271.66187,686.35882 v -3.23365 l -1.49736,-0.84426 q -0.6531,-0.35044 -1.30621,-0.35044 -0.66903,0 -1.08319,0.43009 -0.39823,0.41416 -0.39823,1.11505 v 2.53277 q 0,0.70089 0.39823,1.13098 0.41416,0.41416 1.08319,0.41416 0.63718,0 1.30621,-0.36637 z m 1.577,2.5487 h -1.56107 v -1.00355 l -1.05134,0.57345 q -0.97169,0.5416 -1.99117,0.5416 -1.25841,0 -2.05488,-0.78054 -0.78054,-0.78053 -0.78054,-2.03895 v -2.86728 q 0,-1.25842 0.8124,-2.07081 0.81239,-0.8124 2.07081,-0.8124 0.97169,0 1.94338,0.5416 l 1.03541,0.57345 v -4.508 h 1.577 z"
     style=""
     id="path872" /><path
     d="m -255.70516,688.90752 h -7.39121 v -11.85143 h 1.76815 v 10.29035 h 5.62306 z"
     style=""
     id="path874" /><path
     d="m -252.23207,688.90752 h -1.64072 v -8.37883 h 1.64072 z m 0.11151,-11.11868 v 0.33452 q 0,0.36637 -0.2708,0.58938 -0.25487,0.22301 -0.65311,0.22301 -0.43009,0 -0.68496,-0.20708 -0.25487,-0.22301 -0.25487,-0.60531 v -0.33452 q 0,-0.3823 0.25487,-0.58938 0.25487,-0.22301 0.68496,-0.22301 0.39824,0 0.65311,0.22301 0.2708,0.22301 0.2708,0.58938 z"
     style=""
     id="path876" /><path
     d="m -242.80265,688.90752 h -1.62479 v -5.5912 q 0,-0.60531 -0.33452,-0.98762 -0.31858,-0.39823 -0.90797,-0.39823 -0.5416,0 -1.25842,0.41416 l -1.36992,0.8124 v 5.75049 h -1.59293 v -8.37883 h 1.577 v 1.09912 l 0.95576,-0.58938 q 0.93983,-0.58939 1.99117,-0.58939 1.17877,0 1.86373,0.73275 0.70089,0.73275 0.70089,1.94338 z"
     style=""
     id="path878" /><path
     d="m -232.95857,688.90752 h -1.84781 l -2.3894,-4.22128 -1.80001,1.87966 v 2.34162 h -1.59293 v -11.85143 h 1.59293 v 7.55051 l 3.75932,-4.07791 h 2.1186 l -2.88321,2.99471 z"
     style=""
     id="path880" /><path
     d="m -225.15968,683.20481 h -1.59293 q 0,-1.43364 -1.87966,-1.43364 -0.89204,0 -1.36992,0.31859 -0.46195,0.31859 -0.46195,0.84426 0,0.49381 0.39823,0.7646 0.39823,0.2708 0.98762,0.33452 0.58938,0.0637 1.27434,0.19115 0.70089,0.12744 1.29028,0.30266 0.58938,0.15929 0.98762,0.6531 0.39823,0.49381 0.39823,1.29028 0,1.17877 -0.93983,1.87966 -0.93983,0.68496 -2.58055,0.68496 -1.65665,0 -2.61241,-0.74868 -0.93983,-0.74868 -0.93983,-1.97524 v -0.0796 h 1.64072 q 0,1.44957 1.94338,1.44957 0.9239,0 1.41771,-0.30266 0.50974,-0.31859 0.50974,-0.84426 0,-0.52566 -0.55753,-0.7646 -0.5416,-0.23894 -1.32213,-0.33452 -0.78054,-0.0956 -1.57701,-0.25487 -0.78054,-0.15929 -1.33806,-0.70089 -0.5416,-0.55753 -0.5416,-1.51329 0,-1.17877 0.90797,-1.86373 0.9239,-0.68496 2.51684,-0.68496 1.64072,0 2.53276,0.74868 0.90797,0.73275 0.90797,1.97524 z"
     style=""
     id="path882" /></g>

</svg>