<?xml version="1.0" encoding="utf-8"?>
<!-- Generator: Adobe Illustrator 19.1.0, SVG Export Plug-In . SVG Version: 6.00 Build 0)  -->
<svg version="1.1" id="Calque_1" xmlns="http://www.w3.org/2000/svg" xmlns:xlink="http://www.w3.org/1999/xlink" x="0px" y="0px"
	 viewBox="-351 228.6 138.7 138.7" style="enable-background:new -351 228.6 138.7 138.7;" xml:space="preserve">
<style type="text/css">
	.st0{fill:#D3D501;}
	.st1{fill:#FFFFFF;}
	.st2{fill:#7A9C2B;}
	.st3{fill:#E8E493;}
	.st4{fill:#40637D;}
	.st5{fill:#5E9EB5;}
	.st6{fill:#D0A82B;}
	.st7{fill:#559973;}
	.st8{fill:#00662C;}
</style>
<g>
	<path class="st0" d="M-351,297.6c0-38.3,31-69.3,69.3-69.3s69.3,31,69.3,69.3s-31,69.3-69.3,69.3S-351,335.9-351,297.6"/>
</g>
<g>
	<g>
		<path class="st1" d="M-270.7,296.3c-0.4,0.6-1.1,1.1-1.9,1.3l-3.7,1c-0.3,0.1-0.6,0.1-0.9,0.1c-0.7,0-1.4-0.2-1.9-0.6
			c-0.8-0.6-1.3-1.5-1.4-2.5l-0.3-3.9c-0.1-0.8,0.1-1.6,0.6-2.2l0.1-0.2h-13.4c-1.1,0-2-0.9-2-2s0.9-2,2-2h16.2l3.6-5.2h-19.8
			c-1.1,0-2-0.9-2-2s0.9-2,2-2l22.6-0.1l8.5-12.1v-9c0-1.5-1.1-2.7-2.6-2.7h-6.5v5.1c0,2.4-2,4.3-4.4,4.3h-13
			c-2.4,0-4.3-1.9-4.3-4.3v-5.1h-6.5c-1.5,0-2.7,1.2-2.7,2.7v45.9c0,1.5,1.2,2.7,2.7,2.7h34.8c1.5,0,2.6-1.3,2.6-2.7v-16.4
			L-270.7,296.3z M-293.5,267.2h22c1.1,0,2,0.9,2,2s-0.9,2-2,2h-22c-1.1,0-2-0.9-2-2S-294.6,267.2-293.5,267.2"/>
	</g>
	<g>
		<path class="st1" d="M-289,259.4h13c1,0,1.8-0.8,1.8-1.8v-7.5c0-1-0.8-1.8-1.8-1.8h-2c0-2.5-2.1-4.6-4.6-4.6s-4.6,2-4.6,4.6h-1.9
			c-1,0-1.8,0.8-1.8,1.8v7.5C-290.8,258.6-290,259.4-289,259.4 M-282.5,246.3c1.1,0,2,0.9,2,2h-4.1
			C-284.5,247.2-283.6,246.3-282.5,246.3"/>
	</g>
	<g>
		<path class="st1" d="M-246,255.8c-0.1-0.3-0.2-0.6-0.5-0.8l-3.3-2.3c-0.2-0.2-0.5-0.2-0.7-0.2c-0.4,0-0.8,0.2-1,0.5l-23.1,33.1
			l5.3,3.7l23.1-33.1C-246,256.5-246,256.1-246,255.8"/>
	</g>
	<g>
		<path class="st1" d="M-278.3,291.5l0.3,3.9c0,0.2,0.1,0.4,0.3,0.5c0.1,0.1,0.3,0.1,0.4,0.1s0.1,0,0.2,0l3.8-1
			c0.2,0,0.3-0.2,0.4-0.3l1.4-2l-5.3-3.7l-1.4,2C-278.3,291.2-278.3,291.4-278.3,291.5"/>
	</g>
</g>
<g>
	<path class="st4" d="M-327.4,330h-0.7c-0.2,0-0.3-0.1-0.3-0.3v-7.6h0l-0.6,1.2l-2.3,4.8c-0.1,0.1-0.2,0.2-0.3,0.2h-0.5
		c-0.2,0-0.3-0.1-0.3-0.2l-2.4-5l-0.5-1.1h0v7.6c0,0.2-0.1,0.3-0.3,0.3h-0.7c-0.2,0-0.3-0.1-0.3-0.3v-10.1c0-0.2,0.1-0.2,0.2-0.2
		h0.7c0.2,0,0.3,0.1,0.4,0.2l2.7,5.5l0.8,1.7h0l0.8-1.7l2.7-5.4c0.1-0.2,0.2-0.3,0.4-0.3h0.6c0.2,0,0.2,0.1,0.2,0.2v10.1
		C-327.1,329.9-327.2,330-327.4,330z"/>
	<path class="st4" d="M-319.4,326.5h-4.5c0,1.9,0.6,2.5,2.1,2.5c0.7,0,1.7-0.1,2.2-0.2c0.2,0,0.3,0,0.4,0.2l0.1,0.4
		c0,0.1,0,0.3-0.2,0.3c-0.6,0.3-1.8,0.4-2.6,0.4c-2.9,0-3.3-2-3.3-4c0-1.6,0.3-4.1,3.2-4.1c2.7,0,3.2,1.8,3.2,3.5
		C-318.7,326.1-318.8,326.5-319.4,326.5z M-322,323.1c-1.4,0-1.9,0.9-2,2.4h3.9C-320,324.3-320.3,323.1-322,323.1z"/>
	<path class="st4" d="M-314.8,330.1c-0.8,0-1.9-0.1-2.4-0.4c-0.2-0.1-0.2-0.2-0.2-0.3l0.1-0.3c0-0.2,0.2-0.2,0.4-0.2
		c0.7,0.1,1.7,0.2,2.3,0.2c1.2,0,1.7-0.4,1.7-1.2c0-0.9-0.3-1.2-1.6-1.3c-1.5-0.2-2.8-0.6-2.8-2.2c0-1.5,1.1-2.3,2.8-2.3
		c0.6,0,1.7,0.1,2.4,0.4c0.2,0.1,0.2,0.2,0.2,0.3l-0.1,0.4c0,0.2-0.2,0.2-0.4,0.2c-0.7-0.1-1.4-0.2-2.1-0.2c-1.2,0-1.5,0.3-1.5,1.2
		c0,0.8,0.4,0.9,1.6,1.1c1.4,0.2,2.7,0.5,2.7,2.4C-311.8,329.5-313.3,330.1-314.8,330.1z"/>
	<path class="st4" d="M-302.9,330.1c-3.1,0-3.2-2.3-3.2-4.2c0-1.6,0.3-3.9,3.2-3.9c3,0,3.3,2,3.3,3.9
		C-299.5,327.8-299.7,330.1-302.9,330.1z M-302.9,323.1c-1.6,0-2,1-2,2.9c0,2,0.4,2.9,2,2.9c1.7,0,2.1-0.9,2.1-2.9
		C-300.8,324.1-301.1,323.1-302.9,323.1z"/>
	<path class="st4" d="M-294.6,330.1c-1,0-2.2-0.1-3-0.4c-0.4-0.1-0.4-0.4-0.4-0.6V319c0-0.2,0.1-0.3,0.3-0.3h0.7
		c0.2,0,0.3,0.1,0.3,0.3v3.5l0,0c0.9-0.4,1.7-0.5,2.3-0.5c2.5,0,3.1,1.6,3.1,4C-291.3,328.7-292.1,330.1-294.6,330.1z M-294.4,323.1
		c-0.7,0-1.5,0.1-2.3,0.4v5.3c0.6,0.1,1.4,0.2,2,0.2c1.2,0,2-0.3,2-2.8C-292.6,323.9-293.1,323.1-294.4,323.1z"/>
	<path class="st4" d="M-287.3,330.1c-0.8,0-1.9-0.1-2.4-0.4c-0.2-0.1-0.2-0.2-0.2-0.3l0.1-0.3c0-0.2,0.2-0.2,0.4-0.2
		c0.7,0.1,1.7,0.2,2.3,0.2c1.2,0,1.7-0.4,1.7-1.2c0-0.9-0.3-1.2-1.6-1.3c-1.5-0.2-2.8-0.6-2.8-2.2c0-1.5,1.1-2.3,2.8-2.3
		c0.6,0,1.7,0.1,2.4,0.4c0.2,0.1,0.2,0.2,0.2,0.3l-0.1,0.4c0,0.2-0.2,0.2-0.4,0.2c-0.7-0.1-1.4-0.2-2.1-0.2c-1.2,0-1.5,0.3-1.5,1.2
		c0,0.8,0.4,0.9,1.6,1.1c1.4,0.2,2.7,0.5,2.7,2.4C-284.3,329.5-285.8,330.1-287.3,330.1z"/>
	<path class="st4" d="M-277.2,326.5h-4.5c0,1.9,0.6,2.5,2.1,2.5c0.7,0,1.7-0.1,2.2-0.2c0.2,0,0.3,0,0.4,0.2l0.1,0.4
		c0,0.1,0,0.3-0.2,0.3c-0.6,0.3-1.8,0.4-2.6,0.4c-2.9,0-3.3-2-3.3-4c0-1.6,0.3-4.1,3.2-4.1c2.7,0,3.2,1.8,3.2,3.5
		C-276.4,326.1-276.6,326.5-277.2,326.5z M-279.7,323.1c-1.4,0-1.9,0.9-2,2.4h3.9C-277.8,324.3-278,323.1-279.7,323.1z"/>
	<path class="st4" d="M-270.8,323.3c-0.8,0.2-2.2,0.6-2.6,0.8v5.7c0,0.2-0.1,0.3-0.3,0.3h-0.7c-0.2,0-0.3-0.1-0.3-0.3v-7.3
		c0-0.2,0.1-0.3,0.3-0.3h0.7c0.2,0,0.3,0.1,0.3,0.3v0.7l0,0c0.4-0.3,1.6-0.9,2.4-1c0.2,0,0.2,0,0.3,0.2l0.1,0.7
		C-270.5,323.2-270.6,323.3-270.8,323.3z"/>
	<path class="st4" d="M-266.2,329.8c-0.1,0.2-0.1,0.2-0.3,0.2h-0.7c-0.2,0-0.2-0.1-0.3-0.2l-2.8-7.3c0-0.1,0-0.3,0.1-0.3h0.9
		c0.2,0,0.2,0.1,0.3,0.2l1.6,4.5c0,0,0.5,1.5,0.6,1.7h0c0-0.2,0.6-1.7,0.6-1.7l1.6-4.4c0.1-0.2,0.1-0.2,0.2-0.2h0.9
		c0.1,0,0.2,0.1,0.1,0.2L-266.2,329.8z"/>
	<path class="st4" d="M-257.3,329.1c-0.8,0.5-1.7,1-3,1c-1.6,0-2.2-0.8-2.2-2.2c0-1.8,0.8-2.7,3-2.7h2.2v-0.5c0-1.2-0.5-1.6-1.9-1.6
		c-0.6,0-1.6,0.1-2.3,0.1c-0.2,0-0.3,0-0.3-0.1l-0.1-0.4c0-0.1,0-0.3,0.3-0.4c0.6-0.2,1.9-0.3,2.7-0.3c2.6,0,2.8,1.1,2.8,2.8v3.5
		c0,0.6,0.1,0.6,0.6,0.7c0.2,0,0.3,0.1,0.3,0.2v0.4c0,0.1-0.1,0.3-0.3,0.3c-0.2,0-0.4,0-0.6,0C-256.8,330-257.2,329.8-257.3,329.1
		L-257.3,329.1z M-257.3,326.2h-2.4c-1,0-1.6,0.4-1.6,1.6c0,0.9,0.3,1.2,1.2,1.2c0.8,0,2-0.5,2.7-0.9V326.2z"/>
	<path class="st4" d="M-249.7,329.5c0,0.2,0,0.2-0.1,0.3c-0.4,0.2-1.3,0.3-1.8,0.3c-1.4,0-1.7-0.7-1.7-1.7v-5.2h-0.9
		c-0.2,0-0.3-0.1-0.3-0.3v-0.4c0-0.2,0.1-0.3,0.3-0.3h0.9v-1.7c0-0.2,0.1-0.3,0.3-0.3l0.6-0.2c0.2,0,0.3,0,0.3,0.2v2h1.8
		c0.2,0,0.3,0.1,0.3,0.3v0.5c0,0.2,0,0.3-0.3,0.3h-1.8v4.9c0,0.8,0.2,0.9,1.1,0.9c0.2,0,0.7,0,0.9-0.1c0.3,0,0.3,0,0.4,0.2
		L-249.7,329.5z"/>
	<path class="st4" d="M-248,320.8c-0.6,0-0.7-0.3-0.7-0.7c0-0.4,0.1-0.7,0.7-0.7c0.6,0,0.7,0.3,0.7,0.7
		C-247.3,320.5-247.4,320.8-248,320.8z M-247.7,330h-0.7c-0.2,0-0.3-0.1-0.3-0.3v-7.3c0-0.2,0.1-0.3,0.3-0.3h0.7
		c0.2,0,0.3,0.1,0.3,0.3v7.3C-247.4,329.9-247.5,330-247.7,330z"/>
	<path class="st4" d="M-242.3,330.1c-3.1,0-3.2-2.3-3.2-4.2c0-1.6,0.3-3.9,3.2-3.9c3,0,3.3,2,3.3,3.9
		C-238.9,327.8-239.1,330.1-242.3,330.1z M-242.3,323.1c-1.6,0-2,1-2,2.9c0,2,0.4,2.9,2,2.9c1.7,0,2.1-0.9,2.1-2.9
		C-240.2,324.1-240.5,323.1-242.3,323.1z"/>
	<path class="st4" d="M-231.2,330h-0.7c-0.2,0-0.3-0.1-0.3-0.3l0-4.7c0-1.5-0.3-1.8-1.3-1.8c-0.8,0-2.2,0.7-2.7,0.9v5.7
		c0,0.2-0.1,0.3-0.3,0.3h-0.7c-0.2,0-0.3-0.1-0.3-0.3v-7.3c0-0.2,0.1-0.3,0.3-0.3h0.7c0.2,0,0.3,0,0.3,0.3v0.6l0,0
		c0.5-0.3,1.7-1,2.8-1c2.1,0,2.3,1.2,2.3,3v4.7C-230.9,329.9-231,330-231.2,330z"/>
	<path class="st4" d="M-226.8,330.1c-0.8,0-1.9-0.1-2.4-0.4c-0.2-0.1-0.2-0.2-0.2-0.3l0.1-0.3c0-0.2,0.2-0.2,0.4-0.2
		c0.7,0.1,1.7,0.2,2.3,0.2c1.2,0,1.7-0.4,1.7-1.2c0-0.9-0.3-1.2-1.6-1.3c-1.5-0.2-2.8-0.6-2.8-2.2c0-1.5,1.1-2.3,2.8-2.3
		c0.6,0,1.7,0.1,2.4,0.4c0.2,0.1,0.2,0.2,0.2,0.3l-0.1,0.4c0,0.2-0.2,0.2-0.4,0.2c-0.7-0.1-1.4-0.2-2.1-0.2c-1.2,0-1.5,0.3-1.5,1.2
		c0,0.8,0.4,0.9,1.6,1.1c1.4,0.2,2.7,0.5,2.7,2.4C-223.8,329.5-225.2,330.1-226.8,330.1z"/>
</g>
</svg>
