<?xml version="1.0" encoding="UTF-8" standalone="no"?>
<!-- Generator: Adobe Illustrator 19.1.0, SVG Export Plug-In . SVG Version: 6.00 Build 0)  -->

<svg
   xmlns:dc="http://purl.org/dc/elements/1.1/"
   xmlns:cc="http://creativecommons.org/ns#"
   xmlns:rdf="http://www.w3.org/1999/02/22-rdf-syntax-ns#"
   xmlns:svg="http://www.w3.org/2000/svg"
   xmlns="http://www.w3.org/2000/svg"
   xmlns:sodipodi="http://sodipodi.sourceforge.net/DTD/sodipodi-0.dtd"
   xmlns:inkscape="http://www.inkscape.org/namespaces/inkscape"
   version="1.1"
   id="Calque_1"
   x="0px"
   y="0px"
   viewBox="-33.6 228.6 138.7 138.7"
   style="enable-background:new -33.6 228.6 138.7 138.7;"
   xml:space="preserve"
   sodipodi:docname="main_menu_logo_map-fr.svg"
   inkscape:version="0.92.2 5c3e80d, 2017-08-06"><metadata
     id="metadata105"><rdf:RDF><cc:Work
         rdf:about=""><dc:format>image/svg+xml</dc:format><dc:type
           rdf:resource="http://purl.org/dc/dcmitype/StillImage" /></cc:Work></rdf:RDF></metadata><defs
     id="defs103" /><sodipodi:namedview
     pagecolor="#ffffff"
     bordercolor="#666666"
     borderopacity="1"
     objecttolerance="10"
     gridtolerance="10"
     guidetolerance="10"
     inkscape:pageopacity="0"
     inkscape:pageshadow="2"
     inkscape:window-width="1827"
     inkscape:window-height="1086"
     id="namedview101"
     showgrid="false"
     inkscape:zoom="5"
     inkscape:cx="58.299837"
     inkscape:cy="69.349998"
     inkscape:window-x="451"
     inkscape:window-y="54"
     inkscape:window-maximized="0"
     inkscape:current-layer="Calque_1" /><style
     type="text/css"
     id="style2">
	.st0{fill:#D3D501;}
	.st1{fill:#FFFFFF;}
	.st2{fill:#7A9C2B;}
	.st3{fill:#E8E493;}
	.st4{fill:#40637D;}
	.st5{fill:#5E9EB5;}
	.st6{fill:#D0A82B;}
	.st7{fill:#559973;}
	.st8{fill:#00662C;}
</style><g
     id="g36"><g
       id="g30"><path
         class="st1"
         d="M24.1,315.9c0,0.4,0.2,0.8,0.6,1s0.8,0.2,1.2-0.1l7.7-5.3l-9.5-4.5L24.1,315.9L24.1,315.9z"
         id="path28" /></g><g
       id="g34"><path
         class="st1"
         d="M70,256.5c-0.2-0.2-0.5-0.3-0.8-0.3c-0.2,0-0.3,0-0.5,0.1L2.1,289c-0.7,0.3-1.1,1-1.1,1.8s0.4,1.5,1.1,1.8    l17.6,8.4l35.1-28.9L24,303l21.9,10.4c0.3,0.1,0.6,0.2,0.9,0.2c0.2,0,0.5,0,0.7-0.1c0.5-0.2,0.9-0.6,1.1-1.1l21.7-54.6    C70.5,257.3,70.4,256.8,70,256.5"
         id="path32" /></g></g><path
     style="fill:#5e9eb5"
     d="m 105.1,297.29999 a 69.099998,69.099998 0 0 1 -69.1,69.1 69.099998,69.099998 0 0 1 -69.099998,-69.1 69.099998,69.099998 0 0 1 69.099998,-69.1 69.099998,69.099998 0 0 1 69.1,69.1 z"
     id="circle38" /><g
     id="g54"><path
       class="st1"
       d="M30.5,268.5H10.7c-0.8,0-1.5,0.5-1.7,1.3l-3.8,13.1l26.6,2.9l2.1-10C32.6,273.5,31.4,271,30.5,268.5   L30.5,268.5z"
       id="path40" /><path
       class="st1"
       d="M55.4,288.4l8,0.9L61,281c-0.3,0.5-0.6,0.9-1,1.4C58.4,284.7,56.8,286.7,55.4,288.4L55.4,288.4z"
       id="path42" /><g
       id="g52"><path
         class="st1"
         d="M38,282.3l-0.9,4.1l4.3,0.5C40.4,285.5,39.3,284,38,282.3C38.1,282.4,38.1,282.3,38,282.3L38,282.3z"
         id="path44" /><path
         class="st1"
         d="M0.1,300.6c-0.2,0.5,0,1.1,0.3,1.6c0.3,0.4,0.9,0.7,1.4,0.7h26.4l2.5-11.8l-27-3L0.1,300.6z"
         id="path46" /><path
         class="st1"
         d="M65,294.8l-28.9-3.2l-2.3,11.2H65c1,0,1.8-0.8,1.8-1.8c0-0.2,0-0.4-0.1-0.6L65,294.8z"
         id="path48" /><path
         class="st1"
         d="M48.3,290.7c0.2,0.2,0.5,0.3,0.7,0.3c0.3,0,0.5-0.1,0.7-0.3c1.6-1.7,4.8-5.3,8-9.8c4-5.7,8.9-14.1,8.9-21.5    c0-9.7-7.9-17.7-17.7-17.7c-9.7,0-17.7,7.9-17.7,17.7c0,7.5,4.8,15.8,8.9,21.5C43.5,285.4,46.7,288.9,48.3,290.7L48.3,290.7z     M49.1,248.3c5.9,0,10.8,4.8,10.8,10.8c0,5.9-4.8,10.8-10.8,10.8c-5.9,0-10.8-4.8-10.8-10.8C38.3,253.1,43.1,248.3,49.1,248.3    L49.1,248.3z"
         id="path50" /></g></g><g
     id="g98"><g
       id="g96"><path
         class="st1"
         d="M12.2,313.7c0.2,0.1,0.3,0.2,0.2,0.4l-0.1,0.5c0,0.1-0.1,0.2-0.3,0.2c-0.7-0.1-1.8-0.2-2.8-0.2    c-2.6,0-2.9,2.2-2.9,4.6c0,2.3,0.4,4.4,2.9,4.4c1,0,2-0.1,2.8-0.2c0.2,0,0.3,0.1,0.3,0.2l0.1,0.4c0,0.2,0,0.3-0.2,0.4    c-0.8,0.3-2.4,0.5-3.1,0.5c-3.6,0-4.3-2.7-4.3-5.6c0-3,0.6-5.9,4.3-5.9C9.8,313.3,11.3,313.4,12.2,313.7z"
         id="path56" /><path
         class="st1"
         d="M19.1,323.8c-0.8,0.5-1.8,1.1-3.2,1.1c-1.6,0-2.3-0.8-2.3-2.3c0-1.9,0.9-2.9,3.2-2.9h2.3V319    c0-1.3-0.5-1.6-2-1.6c-0.6,0-1.7,0.1-2.4,0.2c-0.2,0-0.3,0-0.3-0.2l-0.1-0.4c0-0.2,0-0.3,0.3-0.4c0.7-0.2,2-0.3,2.8-0.3    c2.7,0,3,1.2,3,3v3.8c0,0.7,0.1,0.7,0.6,0.7c0.2,0,0.3,0.1,0.3,0.2v0.4c0,0.2-0.1,0.3-0.3,0.3c-0.2,0-0.4,0.1-0.6,0.1    C19.6,324.7,19.3,324.5,19.1,323.8L19.1,323.8z M19.1,320.7h-2.5c-1,0-1.7,0.4-1.7,1.7c0,0.9,0.3,1.2,1.3,1.2c0.9,0,2.1-0.5,2.9-1    V320.7z"
         id="path58" /><path
         class="st1"
         d="M27,317.6c-0.9,0.2-2.3,0.6-2.7,0.8v6c0,0.2-0.1,0.3-0.3,0.3h-0.7c-0.2,0-0.3-0.1-0.3-0.3v-7.7    c0-0.2,0.1-0.3,0.3-0.3H24c0.2,0,0.3,0.1,0.3,0.3v0.7l0,0c0.4-0.4,1.7-0.9,2.5-1.1c0.2-0.1,0.3,0,0.3,0.2l0.1,0.7    C27.2,317.4,27.2,317.6,27,317.6z"
         id="path60" /><path
         class="st1"
         d="M32.7,324.1c0,0.2,0,0.3-0.2,0.3c-0.4,0.2-1.4,0.3-1.9,0.3c-1.5,0-1.8-0.7-1.8-1.8v-5.5h-0.9    c-0.2,0-0.3-0.1-0.3-0.3v-0.5c0-0.2,0.1-0.3,0.3-0.3h1v-1.8c0-0.2,0.1-0.3,0.3-0.3l0.7-0.2c0.2-0.1,0.3,0,0.3,0.3v2.1H32    c0.2,0,0.3,0.1,0.3,0.3v0.5c0,0.2-0.1,0.3-0.3,0.3h-1.9v5.2c0,0.8,0.2,1,1.2,1c0.2,0,0.7-0.1,1-0.1c0.3,0,0.3,0,0.4,0.2    L32.7,324.1z"
         id="path62" /><path
         class="st1"
         d="M39.6,321h-4.8c0,2.1,0.6,2.7,2.2,2.7c0.7,0,1.8-0.1,2.4-0.2c0.2,0,0.3,0,0.4,0.2l0.1,0.4    c0,0.2,0,0.3-0.2,0.3c-0.6,0.3-1.9,0.5-2.7,0.5c-3.1,0-3.5-2.1-3.5-4.3c0-1.6,0.3-4.3,3.5-4.3c2.9,0,3.3,1.9,3.4,3.8    C40.4,320.5,40.2,321,39.6,321z M36.9,317.4c-1.5,0-2,1-2.1,2.5H39C39,318.7,38.7,317.4,36.9,317.4z"
         id="path64" /><path
         class="st1"
         d="M53,324.7h-0.7c-0.2,0-0.3-0.1-0.3-0.3v-0.6l-0.1,0c-0.5,0.3-1.7,1.1-2.9,1.1c-2.1,0-2.8-1.5-2.8-4.2    c0-2.8,0.7-4.4,3.3-4.4c0.6,0,1.4,0.1,2.3,0.5l0,0V313c0-0.2,0.1-0.3,0.3-0.3H53c0.2,0,0.3,0.1,0.3,0.3v11.4    C53.3,324.6,53.2,324.7,53,324.7z M52,317.8c-0.9-0.3-1.7-0.4-2.4-0.4c-1.4,0-1.9,0.8-1.9,3.2c0,2.6,0.5,3,1.5,3    c0.8,0,2.2-0.7,2.8-1V317.8z"
         id="path66" /><path
         class="st1"
         d="M61.2,321h-4.8c0,2.1,0.6,2.7,2.2,2.7c0.7,0,1.8-0.1,2.4-0.2c0.2,0,0.3,0,0.4,0.2l0.1,0.4    c0,0.2,0,0.3-0.2,0.3c-0.6,0.3-1.9,0.5-2.7,0.5c-3.1,0-3.5-2.1-3.5-4.3c0-1.6,0.3-4.3,3.5-4.3c2.9,0,3.3,1.9,3.4,3.8    C61.9,320.5,61.8,321,61.2,321z M58.5,317.4c-1.5,0-2,1-2.1,2.5h4.2C60.5,318.7,60.3,317.4,58.5,317.4z"
         id="path68" /><path
         class="st1"
         d="M66.1,324.8c-0.9,0-2-0.1-2.6-0.4c-0.2-0.1-0.2-0.2-0.2-0.4l0.1-0.4c0-0.2,0.2-0.2,0.4-0.2    c0.7,0.1,1.8,0.2,2.4,0.2c1.3,0,1.8-0.4,1.8-1.2c0-1-0.3-1.2-1.7-1.4c-1.5-0.2-3-0.6-3-2.3c0-1.6,1.2-2.4,3-2.4    c0.7,0,1.8,0.1,2.5,0.4c0.2,0.1,0.2,0.2,0.2,0.4l-0.1,0.4c0,0.2-0.2,0.2-0.4,0.2c-0.7-0.1-1.5-0.2-2.2-0.2c-1.3,0-1.6,0.4-1.6,1.2    c0,0.9,0.4,1,1.8,1.2c1.5,0.2,2.9,0.6,2.9,2.5C69.3,324.2,67.7,324.8,66.1,324.8z"
         id="path70" /><path
         class="st1"
         d="M-6.2,345.2c-0.9,0-2-0.1-2.6-0.4c-0.2-0.1-0.2-0.2-0.2-0.4l0.1-0.4c0-0.2,0.2-0.2,0.4-0.2    c0.7,0.1,1.8,0.2,2.4,0.2c1.3,0,1.8-0.4,1.8-1.2c0-1-0.3-1.2-1.7-1.4c-1.5-0.2-3-0.6-3-2.3c0-1.6,1.2-2.4,3-2.4    c0.7,0,1.8,0.1,2.5,0.4c0.2,0.1,0.2,0.2,0.2,0.4l-0.1,0.4c0,0.2-0.2,0.2-0.4,0.2c-0.7-0.1-1.5-0.2-2.2-0.2c-1.3,0-1.6,0.4-1.6,1.2    c0,0.9,0.4,1,1.8,1.2c1.5,0.2,2.9,0.6,2.9,2.5C-3,344.6-4.5,345.2-6.2,345.2z"
         id="path72" /><path
         class="st1"
         d="M-0.4,335.4c-0.6,0-0.7-0.4-0.7-0.8c0-0.4,0.1-0.7,0.7-0.7c0.6,0,0.7,0.3,0.7,0.7    C0.3,335,0.2,335.4-0.4,335.4z M0,345.1h-0.7c-0.2,0-0.3-0.1-0.3-0.3v-7.7c0-0.2,0.1-0.3,0.3-0.3H0c0.2,0,0.3,0.1,0.3,0.3v7.7    C0.2,345,0.2,345.1,0,345.1z"
         id="path74" /><path
         class="st1"
         d="M8.9,337c0.4,0.1,0.4,0.4,0.4,0.7v7.4c0,1.8-0.4,3.1-3.3,3.1c-0.8,0-2.1-0.1-2.8-0.4    c-0.2-0.1-0.2-0.2-0.2-0.4l0.1-0.4c0-0.2,0.2-0.2,0.4-0.2c0.7,0.1,1.7,0.2,2.4,0.2c1.6,0,2-0.5,2-1.7v-0.7c-1,0.4-1.8,0.5-2.4,0.5    c-2.6,0-3.3-1.7-3.3-4.2c0-2.8,0.8-4.4,3.5-4.4C6.9,336.6,8.1,336.8,8.9,337z M5.6,344.1c0.6,0,1.6-0.1,2.4-0.4V338    c-0.6-0.1-1.5-0.2-2.2-0.2c-1.2,0-2.2,0.4-2.2,3C3.7,343.2,4.2,344.1,5.6,344.1z"
         id="path76" /><path
         class="st1"
         d="M17.6,345.1h-0.7c-0.2,0-0.3-0.1-0.3-0.3l0-5c0-1.6-0.3-2-1.4-2c-0.8,0-2.3,0.7-2.8,1v6    c0,0.2-0.1,0.3-0.3,0.3h-0.7c-0.2,0-0.3-0.1-0.3-0.3v-7.7c0-0.2,0.1-0.3,0.3-0.3h0.7c0.2,0,0.3,0.1,0.3,0.3v0.6l0.1,0    c0.5-0.4,1.8-1.1,3-1.1c2.2,0,2.5,1.3,2.5,3.1v5C17.9,345,17.8,345.1,17.6,345.1z"
         id="path78" /><path
         class="st1"
         d="M25,344.2c-0.8,0.5-1.8,1.1-3.2,1.1c-1.6,0-2.3-0.8-2.3-2.3c0-1.9,0.9-2.9,3.2-2.9H25v-0.6    c0-1.3-0.5-1.6-2-1.6c-0.6,0-1.7,0.1-2.4,0.2c-0.2,0-0.3,0-0.3-0.2l-0.1-0.4c0-0.2,0-0.3,0.3-0.4c0.7-0.2,2-0.3,2.8-0.3    c2.7,0,3,1.2,3,3v3.8c0,0.7,0.1,0.7,0.6,0.7c0.2,0,0.3,0.1,0.3,0.2v0.4c0,0.2-0.1,0.3-0.3,0.3c-0.2,0-0.4,0.1-0.6,0.1    C25.5,345.1,25.2,344.9,25,344.2L25,344.2z M25,341.1h-2.5c-1,0-1.7,0.4-1.7,1.7c0,0.9,0.3,1.2,1.3,1.2c0.9,0,2.1-0.5,2.9-1V341.1    z"
         id="path80" /><path
         class="st1"
         d="M31.2,344.7c0,0.1,0,0.2-0.2,0.3c-0.3,0.1-0.6,0.2-0.9,0.2c-1.1,0-1.4-0.6-1.4-1.4v-10.4    c0-0.2,0.1-0.3,0.3-0.3h0.7c0.2,0,0.3,0.1,0.3,0.3v9.9c0,0.6,0.2,0.6,0.9,0.6c0.2,0,0.3,0,0.3,0.2L31.2,344.7z"
         id="path82" /><path
         class="st1"
         d="M38.5,341.4h-4.8c0,2.1,0.6,2.7,2.2,2.7c0.7,0,1.8-0.1,2.4-0.2c0.2,0,0.3,0,0.4,0.2l0.1,0.4    c0,0.2,0,0.3-0.2,0.3c-0.6,0.3-1.9,0.5-2.7,0.5c-3.1,0-3.5-2.1-3.5-4.3c0-1.6,0.3-4.3,3.5-4.3c2.9,0,3.3,1.9,3.4,3.8    C39.2,340.9,39.1,341.4,38.5,341.4z M35.7,337.8c-1.5,0-2,1-2.1,2.5h4.2C37.8,339.1,37.6,337.8,35.7,337.8z"
         id="path84" /><path
         class="st1"
         d="M52.3,345.1h-0.7c-0.2,0-0.3-0.1-0.3-0.3v-5.1c0-1.4-0.3-1.9-1.3-1.9c-0.8,0-2.1,0.7-2.7,1c0,0.1,0,0.5,0,0.9    v5.1c0,0.2-0.1,0.3-0.3,0.3h-0.7c-0.2,0-0.3-0.1-0.3-0.3l0-5.2c0-1.1-0.3-1.8-1.3-1.8c-0.7,0-1.9,0.6-2.7,1v6    c0,0.2-0.1,0.3-0.3,0.3h-0.7c-0.2,0-0.3-0.1-0.3-0.3v-7.7c0-0.2,0.1-0.3,0.3-0.3h0.7c0.2,0,0.3,0.1,0.3,0.3v0.6c0,0,0,0,0,0    c0.7-0.4,1.7-1.1,2.8-1.1c1.2,0,1.9,0.4,2.2,1.2c0.9-0.6,1.9-1.2,3.1-1.2c2.1,0,2.4,1.2,2.4,3v5.1C52.6,345,52.5,345.1,52.3,345.1    z"
         id="path86" /><path
         class="st1"
         d="M60.5,341.4h-4.8c0,2.1,0.6,2.7,2.2,2.7c0.7,0,1.8-0.1,2.4-0.2c0.2,0,0.3,0,0.4,0.2l0.1,0.4    c0,0.2,0,0.3-0.2,0.3c-0.6,0.3-1.9,0.5-2.7,0.5c-3.1,0-3.5-2.1-3.5-4.3c0-1.6,0.3-4.3,3.5-4.3c2.9,0,3.3,1.9,3.4,3.8    C61.3,340.9,61.2,341.4,60.5,341.4z M57.8,337.8c-1.5,0-2,1-2.1,2.5h4.2C59.9,339.1,59.6,337.8,57.8,337.8z"
         id="path88" /><path
         class="st1"
         d="M69.3,345.1h-0.7c-0.2,0-0.3-0.1-0.3-0.3l0-5c0-1.6-0.3-2-1.4-2c-0.8,0-2.3,0.7-2.8,1v6    c0,0.2-0.1,0.3-0.3,0.3h-0.7c-0.2,0-0.3-0.1-0.3-0.3v-7.7c0-0.2,0.1-0.3,0.3-0.3h0.7c0.2,0,0.3,0.1,0.3,0.3v0.6l0.1,0    c0.5-0.4,1.8-1.1,3-1.1c2.2,0,2.5,1.3,2.5,3.1v5C69.6,345,69.5,345.1,69.3,345.1z"
         id="path90" /><path
         class="st1"
         d="M76.1,344.5c0,0.2,0,0.3-0.2,0.3c-0.4,0.2-1.4,0.3-1.9,0.3c-1.5,0-1.8-0.7-1.8-1.8v-5.5h-0.9    c-0.2,0-0.3-0.1-0.3-0.3v-0.5c0-0.2,0.1-0.3,0.3-0.3h1V335c0-0.2,0.1-0.3,0.3-0.3l0.7-0.2c0.2-0.1,0.3,0,0.3,0.3v2.1h1.9    c0.2,0,0.3,0.1,0.3,0.3v0.5c0,0.2-0.1,0.3-0.3,0.3h-1.9v5.2c0,0.8,0.2,1,1.2,1c0.2,0,0.7-0.1,1-0.1c0.3,0,0.3,0,0.4,0.2    L76.1,344.5z"
         id="path92" /><path
         class="st1"
         d="M79.5,345.2c-0.9,0-2-0.1-2.6-0.4c-0.2-0.1-0.2-0.2-0.2-0.4l0.1-0.4c0-0.2,0.2-0.2,0.4-0.2    c0.7,0.1,1.8,0.2,2.4,0.2c1.3,0,1.8-0.4,1.8-1.2c0-1-0.3-1.2-1.7-1.4c-1.5-0.2-3-0.6-3-2.3c0-1.6,1.2-2.4,3-2.4    c0.7,0,1.8,0.1,2.5,0.4c0.2,0.1,0.2,0.2,0.2,0.4l-0.1,0.4c0,0.2-0.2,0.2-0.4,0.2c-0.7-0.1-1.5-0.2-2.2-0.2c-1.3,0-1.6,0.4-1.6,1.2    c0,0.9,0.4,1,1.8,1.2c1.5,0.2,2.9,0.6,2.9,2.5C82.7,344.6,81.2,345.2,79.5,345.2z"
         id="path94" /></g></g></svg>