<?xml version="1.0" encoding="UTF-8" standalone="no"?>
<!-- Generator: Adobe Illustrator 19.1.0, SVG Export Plug-In . SVG Version: 6.00 Build 0)  -->

<svg
   xmlns:dc="http://purl.org/dc/elements/1.1/"
   xmlns:cc="http://creativecommons.org/ns#"
   xmlns:rdf="http://www.w3.org/1999/02/22-rdf-syntax-ns#"
   xmlns:svg="http://www.w3.org/2000/svg"
   xmlns="http://www.w3.org/2000/svg"
   xmlns:sodipodi="http://sodipodi.sourceforge.net/DTD/sodipodi-0.dtd"
   xmlns:inkscape="http://www.inkscape.org/namespaces/inkscape"
   version="1.1"
   id="Calque_1"
   x="0px"
   y="0px"
   viewBox="-330 571.3 138.7 138.7"
   style="enable-background:new -330 571.3 138.7 138.7;"
   xml:space="preserve"
   sodipodi:docname="main_menu_logo_species_records-tr.svg"
   inkscape:version="0.92.4 (5da689c313, 2019-01-14)"><metadata
   id="metadata67"><rdf:RDF><cc:Work
       rdf:about=""><dc:format>image/svg+xml</dc:format><dc:type
         rdf:resource="http://purl.org/dc/dcmitype/StillImage" /></cc:Work></rdf:RDF></metadata><defs
   id="defs65" /><sodipodi:namedview
   pagecolor="#ffffff"
   bordercolor="#666666"
   borderopacity="1"
   objecttolerance="10"
   gridtolerance="10"
   guidetolerance="10"
   inkscape:pageopacity="0"
   inkscape:pageshadow="2"
   inkscape:window-width="2400"
   inkscape:window-height="1271"
   id="namedview63"
   showgrid="false"
   inkscape:zoom="4"
   inkscape:cx="-31.225006"
   inkscape:cy="69.349998"
   inkscape:window-x="2391"
   inkscape:window-y="-9"
   inkscape:window-maximized="1"
   inkscape:current-layer="Calque_1" /><style
   type="text/css"
   id="style2">
	.st0{fill:#D3D501;}
	.st1{fill:#40637D;}
	.st2{fill:#FFFFFF;}
</style><g
   id="g6"><path
     class="st0"
     d="M-330,640.7c0-38.3,31-69.3,69.3-69.3c38.3,0,69.3,31,69.3,69.3s-31,69.3-69.3,69.3   C-299,710-330,679-330,640.7"
     id="path4" /></g><g
   id="g60"
   transform="translate(0,1.549997)"><g
     id="g46"><path
       class="st2"
       d="m -249.7,639.4 c -0.4,0.6 -1.1,1.1 -1.9,1.3 l -3.7,1 c -0.3,0.1 -0.6,0.1 -0.9,0.1 -0.7,0 -1.4,-0.2 -1.9,-0.6 -0.8,-0.6 -1.3,-1.5 -1.4,-2.5 l -0.3,-3.9 c -0.1,-0.8 0.1,-1.6 0.6,-2.2 l 0.1,-0.2 h -13.4 c -1.1,0 -2,-0.9 -2,-2 0,-1.1 0.9,-2 2,-2 h 16.2 l 3.6,-5.2 h -19.8 c -1.1,0 -2,-0.9 -2,-2 0,-1.1 0.9,-2 2,-2 l 22.6,-0.1 8.5,-12.1 v -9 c 0,-1.5 -1.1,-2.7 -2.6,-2.7 h -6.5 v 5.1 c 0,2.4 -2,4.3 -4.4,4.3 h -13 c -2.4,0 -4.3,-1.9 -4.3,-4.3 v -5.1 h -6.5 c -1.5,0 -2.7,1.2 -2.7,2.7 v 45.9 c 0,1.5 1.2,2.7 2.7,2.7 h 34.8 c 1.5,0 2.6,-1.3 2.6,-2.7 v -16.4 z m -22.8,-29.1 h 22 c 1.1,0 2,0.9 2,2 0,1.1 -0.9,2 -2,2 h -22 c -1.1,0 -2,-0.9 -2,-2 0,-1.1 0.9,-2 2,-2"
       id="path44"
       inkscape:connector-curvature="0"
       style="fill:#ffffff" /></g><g
     id="g50"><path
       class="st2"
       d="m -268,602.5 h 13 c 1,0 1.8,-0.8 1.8,-1.8 v -7.5 c 0,-1 -0.8,-1.8 -1.8,-1.8 h -2 c 0,-2.5 -2.1,-4.6 -4.6,-4.6 -2.5,0 -4.6,2 -4.6,4.6 h -1.9 c -1,0 -1.8,0.8 -1.8,1.8 v 7.5 c 0.1,1 0.9,1.8 1.9,1.8 m 6.5,-13.1 c 1.1,0 2,0.9 2,2 h -4.1 c 0.1,-1.1 1,-2 2.1,-2"
       id="path48"
       inkscape:connector-curvature="0"
       style="fill:#ffffff" /></g><g
     id="g54"><path
       class="st2"
       d="m -225,598.9 c -0.1,-0.3 -0.2,-0.6 -0.5,-0.8 l -3.3,-2.3 c -0.2,-0.2 -0.5,-0.2 -0.7,-0.2 -0.4,0 -0.8,0.2 -1,0.5 l -23.1,33.1 5.3,3.7 23.1,-33.1 c 0.2,-0.2 0.2,-0.6 0.2,-0.9"
       id="path52"
       inkscape:connector-curvature="0"
       style="fill:#ffffff" /></g><g
     id="g58"><path
       class="st2"
       d="m -257.3,634.6 0.3,3.9 c 0,0.2 0.1,0.4 0.3,0.5 0.1,0.1 0.3,0.1 0.4,0.1 0.1,0 0.1,0 0.2,0 l 3.8,-1 c 0.2,0 0.3,-0.2 0.4,-0.3 l 1.4,-2 -5.3,-3.7 -1.4,2 c -0.1,0.2 -0.1,0.4 -0.1,0.5"
       id="path56"
       inkscape:connector-curvature="0"
       style="fill:#ffffff" /></g></g><g
   aria-label="Türlerimin 
kayıtları"
   style="font-style:normal;font-variant:normal;font-weight:normal;font-stretch:normal;font-size:15.46666718px;line-height:1.25;font-family:KonsensMedium;-inkscape-font-specification:'KonsensMedium, Normal';font-variant-ligatures:normal;font-variant-caps:normal;font-variant-numeric:normal;font-feature-settings:normal;text-align:center;letter-spacing:0px;word-spacing:0px;writing-mode:lr-tb;text-anchor:middle;fill:#40637d;fill-opacity:1;stroke:none"
   id="text71"><path
     d="m -291.47837,670.2074 h -1.74774 v -10.00694 h -3.35626 v -1.50026 h 8.46026 v 1.50026 h -3.35626 z"
     style=""
     id="path826" /><path
     d="m -280.65557,670.2074 h -1.5312 v -1.0672 l -0.928,0.57226 q -0.9744,0.58774 -1.93333,0.57227 -1.14454,0 -1.82507,-0.696 -0.66507,-0.71147 -0.66507,-1.88693 v -5.62987 h 1.5776 v 5.44427 q 0,0.6032 0.3248,0.9744 0.3248,0.35573 0.8816,0.35573 0.52587,0 1.22187,-0.40213 l 1.33013,-0.7888 v -5.58347 h 1.54667 z m -4.20693,-10.79574 v 0.30934 q 0,0.35573 -0.26294,0.57226 -0.24746,0.21654 -0.63413,0.21654 -0.40213,0 -0.6496,-0.20107 -0.24747,-0.21653 -0.24747,-0.58773 v -0.30934 q 0,-0.3712 0.24747,-0.57226 0.24747,-0.21654 0.6496,-0.21654 0.38667,0 0.63413,0.21654 0.26294,0.21653 0.26294,0.57226 z m 3.41813,0 v 0.30934 q 0,0.35573 -0.26293,0.57226 -0.24747,0.21654 -0.63414,0.21654 -0.40213,0 -0.6496,-0.20107 -0.24746,-0.21653 -0.24746,-0.58773 v -0.30934 q 0,-0.3712 0.24746,-0.57226 0.24747,-0.21654 0.6496,-0.21654 0.38667,0 0.63414,0.21654 0.26293,0.21653 0.26293,0.57226 z"
     style=""
     id="path828" /><path
     d="m -276.85343,670.2074 h -1.5776 v -8.13547 h 1.54666 v 1.23733 l 0.3712,-0.3712 q 0.9744,-0.89706 2.11894,-0.89706 h 0.4176 v 1.60853 h -0.40214 q -1.05173,0 -1.79413,0.61867 l -0.68053,0.5568 z"
     style=""
     id="path830" /><path
     d="m -271.03797,670.2074 h -1.59306 v -11.5072 h 1.59306 z"
     style=""
     id="path832" /><path
     d="m -262.01945,667.62446 v 0.0773 q 0,1.19093 -0.94346,1.91786 -0.94347,0.72694 -2.52107,0.72694 -1.5776,0 -2.56747,-0.81974 -0.98986,-0.8352 -0.98986,-2.2736 v -1.9488 q 0,-1.51573 0.98986,-2.42826 0.98987,-0.91254 2.552,-0.91254 1.56214,0 2.53654,0.91254 0.9744,0.89706 0.9744,2.44373 v 1.37653 h -5.55254 v 0.464 q 0,0.91254 0.5568,1.392 0.57227,0.464 1.50027,0.464 1.96427,0 1.96427,-1.392 z m -1.45386,-2.088 V 665.289 q 0,-0.95894 -0.54134,-1.46934 -0.52586,-0.52586 -1.4848,-0.52586 -0.95893,0 -1.50026,0.52586 -0.54134,0.52587 -0.54134,1.4848 v 0.232 z"
     style=""
     id="path834" /><path
     d="m -258.39614,670.2074 h -1.5776 v -8.13547 h 1.54667 v 1.23733 l 0.3712,-0.3712 q 0.9744,-0.89706 2.11893,-0.89706 h 0.4176 v 1.60853 h -0.40213 q -1.05174,0 -1.79414,0.61867 l -0.68053,0.5568 z"
     style=""
     id="path836" /><path
     d="m -252.54974,670.2074 h -1.59307 v -8.13547 h 1.59307 z m 0.10827,-10.79574 v 0.3248 q 0,0.35574 -0.26294,0.57227 -0.24746,0.21653 -0.63413,0.21653 -0.4176,0 -0.66507,-0.20106 -0.24746,-0.21654 -0.24746,-0.58774 v -0.3248 q 0,-0.3712 0.24746,-0.57226 0.24747,-0.21654 0.66507,-0.21654 0.38667,0 0.63413,0.21654 0.26294,0.21653 0.26294,0.57226 z"
     style=""
     id="path838" /><path
     d="m -239.34193,670.2074 h -1.56213 v -5.62987 q 0,-1.12907 -0.94347,-1.12907 -0.44853,0 -1.09813,0.3712 l -1.09814,0.6496 v 5.73814 h -1.54666 v -5.62987 q 0,-1.1136 -0.95894,-1.1136 -0.47946,0 -1.08266,0.35573 l -1.09814,0.6496 v 5.73814 h -1.54666 v -8.13547 h 1.51573 v 0.95893 l 0.77333,-0.464 q 0.86614,-0.5568 1.77867,-0.5568 1.40747,0 1.9024,1.14454 l 0.928,-0.57227 q 0.95893,-0.57227 1.87147,-0.57227 1.0208,0 1.59306,0.63414 0.57227,0.61866 0.57227,1.74773 z"
     style=""
     id="path840" /><path
     d="m -235.57266,670.2074 h -1.59306 v -8.13547 h 1.59306 z m 0.10827,-10.79574 v 0.3248 q 0,0.35574 -0.26293,0.57227 -0.24747,0.21653 -0.63414,0.21653 -0.4176,0 -0.66506,-0.20106 -0.24747,-0.21654 -0.24747,-0.58774 v -0.3248 q 0,-0.3712 0.24747,-0.57226 0.24746,-0.21654 0.66506,-0.21654 0.38667,0 0.63414,0.21654 0.26293,0.21653 0.26293,0.57226 z"
     style=""
     id="path842" /><path
     d="m -226.41711,670.2074 h -1.5776 v -5.4288 q 0,-0.58774 -0.3248,-0.95894 -0.30934,-0.38666 -0.8816,-0.38666 -0.52587,0 -1.22187,0.40213 l -1.33013,0.7888 v 5.58347 h -1.54667 v -8.13547 h 1.5312 v 1.0672 l 0.928,-0.57227 q 0.91253,-0.57226 1.93333,-0.57226 1.14454,0 1.8096,0.71146 0.68054,0.71147 0.68054,1.88694 z"
     style=""
     id="path844" /><path
     d="m -281.67094,689.54073 h -1.79413 l -2.32,-4.09867 -1.74773,1.82507 v 2.2736 h -1.54667 v -11.5072 h 1.54667 v 7.3312 l 3.65013,-3.95947 h 2.05707 l -2.79947,2.90774 z"
     style=""
     id="path846" /><path
     d="m -275.09204,687.1434 v -1.03627 h -2.42827 q -1.54667,0 -1.54667,1.17547 0,0.47946 0.2784,0.75786 0.2784,0.26294 0.7888,0.26294 0.75787,0 1.5776,-0.44854 z m 1.54666,2.39733 h -1.54666 V 688.489 l -0.89707,0.49493 q -1.2064,0.6496 -2.2736,0.6496 -1.0672,0 -1.73227,-0.63413 -0.6496,-0.63414 -0.6496,-1.65494 0,-1.19093 0.81974,-1.82506 0.8352,-0.63414 2.1344,-0.63414 h 2.61386 v -0.5104 q 0,-1.77866 -1.87146,-1.77866 -1.97974,0 -1.97974,1.59306 h -1.5312 v -0.0773 q 0,-1.33013 0.95894,-2.088 0.9744,-0.75787 2.53653,-0.75787 1.60853,0 2.5056,0.80427 0.91253,0.7888 0.91253,2.2272 z"
     style=""
     id="path848" /><path
     d="m -271.03132,692.3866 h -0.4176 v -1.36107 h 0.30933 q 0.5568,0 0.85067,-0.21653 0.29387,-0.21654 0.47947,-0.71147 l 0.35573,-0.928 -3.17067,-7.76427 h 1.7168 l 2.2736,5.78454 1.9488,-5.78454 h 1.63947 l -3.30987,9.0944 q -0.6496,1.88694 -2.67573,1.88694 z"
     style=""
     id="path850" /><path
     d="m -262.05026,689.54073 h -1.59307 v -8.13547 h 1.59307 z"
     style=""
     id="path852" /><path
     d="m -255.23019,689.54073 h -1.0208 q -1.392,0 -2.19626,-0.71147 -0.80427,-0.71146 -0.80427,-2.07253 v -3.9904 h -1.2992 v -1.36107 h 1.31467 V 679.209 h 1.5776 v 2.19626 h 2.3664 v 1.36107 h -2.3664 v 3.91307 q 0,0.80426 0.35573,1.14453 0.3712,0.3248 1.14453,0.3248 h 0.928 z"
     style=""
     id="path854" /><path
     d="m -252.02182,689.54073 h -1.59307 v -11.5072 h 1.59307 z"
     style=""
     id="path856" /><path
     d="m -244.61183,687.1434 v -1.03627 h -2.42827 q -1.54667,0 -1.54667,1.17547 0,0.47946 0.2784,0.75786 0.2784,0.26294 0.7888,0.26294 0.75787,0 1.5776,-0.44854 z m 1.54666,2.39733 h -1.54666 V 688.489 l -0.89707,0.49493 q -1.2064,0.6496 -2.2736,0.6496 -1.0672,0 -1.73227,-0.63413 -0.6496,-0.63414 -0.6496,-1.65494 0,-1.19093 0.81974,-1.82506 0.8352,-0.63414 2.1344,-0.63414 h 2.61386 v -0.5104 q 0,-1.77866 -1.87146,-1.77866 -1.97974,0 -1.97974,1.59306 h -1.5312 v -0.0773 q 0,-1.33013 0.95894,-2.088 0.9744,-0.75787 2.53653,-0.75787 1.60853,0 2.5056,0.80427 0.91253,0.7888 0.91253,2.2272 z"
     style=""
     id="path858" /><path
     d="m -239.4102,689.54073 h -1.5776 v -8.13547 h 1.54666 v 1.23734 l 0.3712,-0.3712 q 0.9744,-0.89707 2.11894,-0.89707 h 0.4176 v 1.60853 h -0.40214 q -1.05173,0 -1.79413,0.61867 l -0.68053,0.5568 z"
     style=""
     id="path860" /><path
     d="m -233.5638,689.54073 h -1.59307 v -8.13547 h 1.59307 z"
     style=""
     id="path862" /></g>






</svg>