<?xml version="1.0" encoding="UTF-8" standalone="no"?>
<!-- Generator: Adobe Illustrator 19.1.0, SVG Export Plug-In . SVG Version: 6.00 Build 0)  -->

<svg
   xmlns:dc="http://purl.org/dc/elements/1.1/"
   xmlns:cc="http://creativecommons.org/ns#"
   xmlns:rdf="http://www.w3.org/1999/02/22-rdf-syntax-ns#"
   xmlns:svg="http://www.w3.org/2000/svg"
   xmlns="http://www.w3.org/2000/svg"
   xmlns:sodipodi="http://sodipodi.sourceforge.net/DTD/sodipodi-0.dtd"
   xmlns:inkscape="http://www.inkscape.org/namespaces/inkscape"
   version="1.1"
   id="Calque_1"
   x="0px"
   y="0px"
   viewBox="-330 571.3 138.60001 138.60001"
   xml:space="preserve"
   sodipodi:docname="main_menu_logo_report_sighting-pt.svg"
   inkscape:version="0.92.4 (5da689c313, 2019-01-14)"
   width="138.60001"
   height="138.60001"><metadata
   id="metadata69"><rdf:RDF><cc:Work
       rdf:about=""><dc:format>image/svg+xml</dc:format><dc:type
         rdf:resource="http://purl.org/dc/dcmitype/StillImage" /><dc:title /></cc:Work></rdf:RDF></metadata><defs
   id="defs67" /><sodipodi:namedview
   pagecolor="#ffffff"
   bordercolor="#666666"
   borderopacity="1"
   objecttolerance="10"
   gridtolerance="10"
   guidetolerance="10"
   inkscape:pageopacity="0"
   inkscape:pageshadow="2"
   inkscape:window-width="2400"
   inkscape:window-height="1271"
   id="namedview65"
   showgrid="false"
   inkscape:zoom="4"
   inkscape:cx="-31.424988"
   inkscape:cy="69.350001"
   inkscape:window-x="2391"
   inkscape:window-y="-9"
   inkscape:window-maximized="1"
   inkscape:current-layer="Calque_1"
   fit-margin-top="0"
   fit-margin-left="0"
   fit-margin-right="0"
   fit-margin-bottom="0" /><style
   type="text/css"
   id="style2">
	.st0{fill:#7A9C2B;}
	.st1{fill:#FFFFFF;}
</style><g
   id="g6"
   transform="translate(0,-0.1)"><path
     class="st0"
     d="m -330,640.7 c 0,-38.3 31,-69.3 69.3,-69.3 38.3,0 69.3,31 69.3,69.3 0,38.3 -31,69.3 -69.3,69.3 -38.3,0 -69.3,-31 -69.3,-69.3"
     id="path4"
     style="fill:#7a9c2b;fill-opacity:1"
     inkscape:connector-curvature="0" /></g><g
   id="g62"
   transform="translate(0,-4.20001)"><g
     id="g44"><path
       class="st1"
       d="m -246.4,604.3 c -1.5,-0.4 -5.1,-1 -5.1,-1 0,0 -4.9,-3.9 -9.2,-3.9 -4.3,0 -9.2,3.9 -9.2,3.9 0,0 -3.6,0.6 -5.1,1 6.7,2.4 11.5,8.9 11.5,16.4 0,3.1 -0.8,6 -2.2,8.5 h 10 c -1.4,-2.5 -2.2,-5.4 -2.2,-8.5 0,-7.5 4.8,-13.9 11.5,-16.4"
       id="path42"
       inkscape:connector-curvature="0"
       style="fill:#ffffff" /></g><g
     id="g48"><path
       class="st1"
       d="m -281.9,605.1 c -9,0 -16.3,7.3 -16.3,16.3 0,9 7.3,16.3 16.3,16.3 9,0 16.3,-7.3 16.3,-16.3 0,-9 -7.3,-16.3 -16.3,-16.3 m 0,26.6 c -5.7,0 -10.3,-4.6 -10.3,-10.3 0,-5.7 4.6,-10.3 10.3,-10.3 5.7,0 10.3,4.6 10.3,10.3 0,5.6 -4.6,10.3 -10.3,10.3"
       id="path46"
       inkscape:connector-curvature="0"
       style="fill:#ffffff" /></g><g
     id="g52"><path
       class="st1"
       d="m -288.5,616.2 c -2.2,2.9 -2,6.9 0.3,9.5 -0.8,-2.7 -0.4,-5.8 1.5,-8.2 1.9,-2.4 4.7,-3.6 7.5,-3.5 -3.2,-1.5 -7.1,-0.7 -9.3,2.2"
       id="path50"
       inkscape:connector-curvature="0"
       style="fill:#ffffff" /></g><g
     id="g56"><path
       class="st1"
       d="m -239.5,605.1 c -9,0 -16.3,7.3 -16.3,16.3 0,9 7.3,16.3 16.3,16.3 9,0 16.3,-7.3 16.3,-16.3 0,-9 -7.3,-16.3 -16.3,-16.3 m 0,26.6 c -5.7,0 -10.3,-4.6 -10.3,-10.3 0,-5.7 4.6,-10.3 10.3,-10.3 5.7,0 10.3,4.6 10.3,10.3 0,5.6 -4.6,10.3 -10.3,10.3"
       id="path54"
       inkscape:connector-curvature="0"
       style="fill:#ffffff" /></g><g
     id="g60"><path
       class="st1"
       d="m -242.1,614 c 2.8,-0.1 5.7,1.1 7.5,3.5 1.9,2.4 2.3,5.5 1.5,8.2 2.3,-2.7 2.5,-6.6 0.3,-9.5 -2.2,-2.9 -6.1,-3.7 -9.3,-2.2"
       id="path58"
       inkscape:connector-curvature="0"
       style="fill:#ffffff" /></g></g><g
   aria-label="Relatar uma 
observação"
   style="font-style:normal;font-variant:normal;font-weight:normal;font-stretch:normal;font-size:15.46666718px;line-height:1.25;font-family:KonsensMedium;-inkscape-font-specification:'KonsensMedium, Normal';font-variant-ligatures:normal;font-variant-caps:normal;font-variant-numeric:normal;font-feature-settings:normal;text-align:center;letter-spacing:0px;word-spacing:0px;writing-mode:lr-tb;text-anchor:middle;fill:#ffffff;fill-opacity:1;stroke:none"
   id="text73"><path
     d="m -294.98399,672.14996 h -1.88693 l -2.24267,-4.46986 h -2.7376 v 4.46986 h -1.68586 v -11.5072 h 4.93386 q 1.51574,0 2.52107,0.928 1.00533,0.928 1.00533,2.56747 0,1.23733 -0.6496,2.088 -0.6496,0.85067 -1.68586,1.2064 z m -6.8672,-5.92373 h 3.04694 q 0.91253,0 1.46933,-0.5568 0.57227,-0.57227 0.57227,-1.54667 0,-0.95893 -0.52587,-1.4848 -0.52587,-0.52586 -1.4384,-0.52586 h -3.12427 z"
     style=""
     id="path831" /><path
     d="m -286.66268,669.56703 v 0.0773 q 0,1.19094 -0.94347,1.91787 -0.94346,0.72693 -2.52106,0.72693 -1.5776,0 -2.56747,-0.81973 -0.98987,-0.8352 -0.98987,-2.2736 v -1.9488 q 0,-1.51573 0.98987,-2.42827 0.98987,-0.91253 2.552,-0.91253 1.56213,0 2.53653,0.91253 0.9744,0.89707 0.9744,2.44374 v 1.37653 h -5.55253 v 0.464 q 0,0.91253 0.5568,1.392 0.57227,0.464 1.50027,0.464 1.96426,0 1.96426,-1.392 z m -1.45387,-2.088 v -0.24747 q 0,-0.95893 -0.54133,-1.46933 -0.52587,-0.52587 -1.4848,-0.52587 -0.95893,0 -1.50027,0.52587 -0.54133,0.52587 -0.54133,1.4848 v 0.232 z"
     style=""
     id="path833" /><path
     d="m -283.02028,672.14996 h -1.59306 v -11.5072 h 1.59306 z"
     style=""
     id="path835" /><path
     d="m -275.61029,669.75263 v -1.03627 h -2.42827 q -1.54667,0 -1.54667,1.17547 0,0.47947 0.2784,0.75787 0.2784,0.26293 0.7888,0.26293 0.75787,0 1.5776,-0.44853 z m 1.54666,2.39733 h -1.54666 v -1.05173 l -0.89707,0.49493 q -1.2064,0.6496 -2.2736,0.6496 -1.0672,0 -1.73227,-0.63413 -0.6496,-0.63413 -0.6496,-1.65493 0,-1.19094 0.81974,-1.82507 0.8352,-0.63413 2.1344,-0.63413 h 2.61386 v -0.5104 q 0,-1.77867 -1.87146,-1.77867 -1.97974,0 -1.97974,1.59307 h -1.5312 v -0.0773 q 0,-1.33013 0.95894,-2.088 0.9744,-0.75786 2.53653,-0.75786 1.60853,0 2.5056,0.80426 0.91253,0.7888 0.91253,2.2272 z"
     style=""
     id="path837" /><path
     d="m -267.60701,672.14996 h -1.0208 q -1.392,0 -2.19626,-0.71146 -0.80427,-0.71147 -0.80427,-2.07254 v -3.9904 h -1.2992 v -1.36106 h 1.31467 v -2.19627 h 1.5776 v 2.19627 h 2.3664 v 1.36106 h -2.3664 v 3.91307 q 0,0.80427 0.35573,1.14453 0.3712,0.3248 1.14453,0.3248 h 0.928 z"
     style=""
     id="path839" /><path
     d="m -260.80821,669.75263 v -1.03627 h -2.42827 q -1.54666,0 -1.54666,1.17547 0,0.47947 0.2784,0.75787 0.2784,0.26293 0.7888,0.26293 0.75786,0 1.5776,-0.44853 z m 1.54667,2.39733 h -1.54667 v -1.05173 l -0.89707,0.49493 q -1.2064,0.6496 -2.2736,0.6496 -1.0672,0 -1.73226,-0.63413 -0.6496,-0.63413 -0.6496,-1.65493 0,-1.19094 0.81973,-1.82507 0.8352,-0.63413 2.1344,-0.63413 h 2.61387 v -0.5104 q 0,-1.77867 -1.87147,-1.77867 -1.97973,0 -1.97973,1.59307 h -1.5312 v -0.0773 q 0,-1.33013 0.95893,-2.088 0.9744,-0.75786 2.53653,-0.75786 1.60854,0 2.5056,0.80426 0.91254,0.7888 0.91254,2.2272 z"
     style=""
     id="path841" /><path
     d="m -255.60658,672.14996 h -1.5776 v -8.13546 h 1.54667 v 1.23733 l 0.3712,-0.3712 q 0.9744,-0.89707 2.11893,-0.89707 h 0.4176 v 1.60854 h -0.40213 q -1.05173,0 -1.79413,0.61866 l -0.68054,0.5568 z"
     style=""
     id="path843" /><path
     d="m -240.10801,672.14996 h -1.5312 v -1.0672 l -0.928,0.57227 q -0.9744,0.58773 -1.93333,0.57227 -1.14454,0 -1.82507,-0.696 -0.66507,-0.71147 -0.66507,-1.88694 v -5.62986 h 1.5776 v 5.44426 q 0,0.6032 0.3248,0.9744 0.3248,0.35574 0.8816,0.35574 0.52587,0 1.22187,-0.40214 l 1.33013,-0.7888 v -5.58346 h 1.54667 z"
     style=""
     id="path845" /><path
     d="m -226.94611,672.14996 h -1.56214 v -5.62986 q 0,-1.12907 -0.94347,-1.12907 -0.44853,0 -1.09813,0.3712 l -1.09813,0.6496 v 5.73813 h -1.54667 v -5.62986 q 0,-1.1136 -0.95893,-1.1136 -0.47947,0 -1.08267,0.35573 l -1.09813,0.6496 v 5.73813 h -1.54667 v -8.13546 h 1.51573 v 0.95893 l 0.77334,-0.464 q 0.86613,-0.5568 1.77866,-0.5568 1.40747,0 1.9024,1.14453 l 0.928,-0.57226 q 0.95894,-0.57227 1.87147,-0.57227 1.0208,0 1.59307,0.63413 0.57227,0.61867 0.57227,1.74774 z"
     style=""
     id="path847" /><path
     d="m -219.60404,669.75263 v -1.03627 h -2.42827 q -1.54666,0 -1.54666,1.17547 0,0.47947 0.2784,0.75787 0.2784,0.26293 0.7888,0.26293 0.75786,0 1.5776,-0.44853 z m 1.54667,2.39733 h -1.54667 v -1.05173 l -0.89707,0.49493 q -1.2064,0.6496 -2.2736,0.6496 -1.0672,0 -1.73226,-0.63413 -0.6496,-0.63413 -0.6496,-1.65493 0,-1.19094 0.81973,-1.82507 0.8352,-0.63413 2.1344,-0.63413 h 2.61387 v -0.5104 q 0,-1.77867 -1.87147,-1.77867 -1.97973,0 -1.97973,1.59307 h -1.5312 v -0.0773 q 0,-1.33013 0.95893,-2.088 0.9744,-0.75786 2.53653,-0.75786 1.60854,0 2.5056,0.80426 0.91254,0.7888 0.91254,2.2272 z"
     style=""
     id="path849" /><path
     d="m -296.50721,688.15796 v -1.4384 q 0,-0.98986 -0.58773,-1.54666 -0.57227,-0.5568 -1.51574,-0.5568 -0.95893,0 -1.5312,0.5568 -0.57226,0.5568 -0.57226,1.54666 v 1.4384 q 0,0.98987 0.57226,1.56214 0.57227,0.5568 1.5312,0.5568 0.94347,0 1.51574,-0.5568 0.58773,-0.5568 0.58773,-1.56214 z m 1.51573,-1.5776 v 1.73227 q 0,1.51573 -1.0208,2.42827 -1.00533,0.91253 -2.5984,0.91253 -1.59306,0 -2.61386,-0.91253 -1.00534,-0.91254 -1.00534,-2.42827 v -1.73227 q 0,-1.51573 1.00534,-2.42826 1.0208,-0.91254 2.61386,-0.91254 1.59307,0 2.5984,0.91254 1.0208,0.91253 1.0208,2.42826 z"
     style=""
     id="path851" /><path
     d="m -287.30479,688.66836 v -2.4592 q 0,-0.68053 -0.38666,-1.08266 -0.38667,-0.4176 -1.03627,-0.4176 -0.63413,0 -1.28373,0.34026 l -1.4384,0.81974 v 3.13973 l 1.4384,0.80427 q 0.68053,0.35573 1.28373,0.35573 0.6496,0 1.03627,-0.40213 0.38666,-0.4176 0.38666,-1.09814 z m -3.1552,2.39734 -1.00533,-0.54134 v 0.95894 h -1.51573 v -11.5072 h 1.5312 v 4.37706 l 0.98986,-0.5568 q 0.9744,-0.52586 1.93334,-0.52586 1.22186,0 1.97973,0.77333 0.77333,0.75787 0.77333,1.9952 v 2.784 q 0,1.2064 -0.77333,1.9952 -0.77333,0.77333 -2.01067,0.77333 -0.928,0 -1.9024,-0.52586 z"
     style=""
     id="path853" /><path
     d="m -277.2413,685.94623 h -1.54667 q 0,-1.392 -1.82506,-1.392 -0.86614,0 -1.33014,0.30933 -0.44853,0.30934 -0.44853,0.81974 0,0.47946 0.38667,0.7424 0.38666,0.26293 0.95893,0.3248 0.57227,0.0619 1.23733,0.1856 0.68054,0.12373 1.2528,0.29386 0.57227,0.15467 0.95894,0.63414 0.38666,0.47946 0.38666,1.2528 0,1.14453 -0.91253,1.82506 -0.91253,0.66507 -2.5056,0.66507 -1.60853,0 -2.53653,-0.72693 -0.91254,-0.72694 -0.91254,-1.91787 v -0.0773 h 1.59307 q 0,1.40746 1.88693,1.40746 0.89707,0 1.37654,-0.29386 0.49493,-0.30934 0.49493,-0.81974 0,-0.5104 -0.54133,-0.7424 -0.52587,-0.232 -1.28374,-0.3248 -0.75786,-0.0928 -1.5312,-0.24746 -0.75786,-0.15467 -1.2992,-0.68054 -0.52586,-0.54133 -0.52586,-1.46933 0,-1.14453 0.8816,-1.8096 0.89706,-0.66507 2.44373,-0.66507 1.59307,0 2.4592,0.72694 0.8816,0.71146 0.8816,1.91786 z"
     style=""
     id="path855" /><path
     d="m -268.50384,688.90036 v 0.0773 q 0,1.19093 -0.94347,1.91786 -0.94347,0.72694 -2.52107,0.72694 -1.5776,0 -2.56746,-0.81974 -0.98987,-0.8352 -0.98987,-2.2736 v -1.9488 q 0,-1.51573 0.98987,-2.42826 0.98986,-0.91254 2.552,-0.91254 1.56213,0 2.53653,0.91254 0.9744,0.89706 0.9744,2.44373 v 1.37653 h -5.55253 v 0.464 q 0,0.91254 0.5568,1.392 0.57226,0.464 1.50026,0.464 1.96427,0 1.96427,-1.392 z m -1.45387,-2.088 v -0.24746 q 0,-0.95894 -0.54133,-1.46934 -0.52587,-0.52586 -1.4848,-0.52586 -0.95894,0 -1.50027,0.52586 -0.54133,0.52587 -0.54133,1.4848 v 0.232 z"
     style=""
     id="path857" /><path
     d="m -264.88053,691.4833 h -1.5776 v -8.13547 h 1.54666 v 1.23733 l 0.3712,-0.3712 q 0.9744,-0.89706 2.11894,-0.89706 h 0.4176 v 1.60853 h -0.40214 q -1.05173,0 -1.79413,0.61867 l -0.68053,0.5568 z"
     style=""
     id="path859" /><path
     d="m -256.83787,691.4833 h -1.7632 l -2.90773,-8.13547 h 1.7168 l 2.10347,6.3568 2.1344,-6.3568 h 1.624 z"
     style=""
     id="path861" /><path
     d="m -247.67121,689.08596 v -1.03626 h -2.42827 q -1.54667,0 -1.54667,1.17546 0,0.47947 0.2784,0.75787 0.2784,0.26293 0.7888,0.26293 0.75787,0 1.5776,-0.44853 z m 1.54666,2.39734 h -1.54666 v -1.05174 l -0.89707,0.49494 q -1.2064,0.6496 -2.2736,0.6496 -1.0672,0 -1.73227,-0.63414 -0.6496,-0.63413 -0.6496,-1.65493 0,-1.19093 0.81974,-1.82507 0.8352,-0.63413 2.1344,-0.63413 h 2.61386 v -0.5104 q 0,-1.77867 -1.87146,-1.77867 -1.97974,0 -1.97974,1.59307 h -1.5312 v -0.0773 q 0,-1.33014 0.95894,-2.088 0.9744,-0.75787 2.53653,-0.75787 1.60853,0 2.5056,0.80427 0.91253,0.7888 0.91253,2.2272 z"
     style=""
     id="path863" /><path
     d="m -241.19768,692.7361 h -0.696 l 0.63413,-1.12907 q -1.37653,-0.10827 -2.19627,-0.94347 -0.80426,-0.8352 -0.80426,-2.21173 v -2.05707 q 0,-1.46933 0.928,-2.30453 0.94346,-0.85067 2.49013,-0.85067 1.59307,0 2.52107,0.7888 0.928,0.77334 0.928,2.2272 v 0.12374 h -1.51574 q 0,-1.7632 -1.93333,-1.7632 -1.87147,0 -1.87147,1.91786 v 1.77867 q 0,1.91787 1.87147,1.91787 1.93333,0 1.93333,-1.7632 h 1.51574 v 0.12373 q 0,1.31467 -0.77334,2.10347 -0.77333,0.77333 -2.11893,0.89706 l -0.30933,0.52587 q 0.57226,0 0.91253,0.2784 0.34027,0.2784 0.34027,0.77333 0,0.57227 -0.43307,0.928 -0.4176,0.3712 -1.2064,0.3712 -0.77333,0 -1.2064,-0.3248 -0.4176,-0.3248 -0.4176,-0.86613 v -0.0309 h 1.0208 q 0,0.38666 0.6032,0.38666 0.6032,0 0.6032,-0.464 0,-0.43306 -0.81973,-0.43306 z"
     style=""
     id="path865" /><path
     d="m -230.23737,689.08596 v -1.03626 h -2.42827 q -1.54667,0 -1.54667,1.17546 0,0.47947 0.2784,0.75787 0.2784,0.26293 0.7888,0.26293 0.75787,0 1.5776,-0.44853 z m 1.54666,2.39734 h -1.54666 v -1.05174 l -0.89707,0.49494 q -1.2064,0.6496 -2.2736,0.6496 -1.0672,0 -1.73227,-0.63414 -0.6496,-0.63413 -0.6496,-1.65493 0,-1.19093 0.81974,-1.82507 0.8352,-0.63413 2.1344,-0.63413 h 2.61386 v -0.5104 q 0,-1.77867 -1.87146,-1.77867 -1.97974,0 -1.97974,1.59307 h -1.5312 v -0.0773 q 0,-1.33014 0.95894,-2.088 0.9744,-0.75787 2.53653,-0.75787 1.60853,0 2.5056,0.80427 0.91253,0.7888 0.91253,2.2272 z m -0.232,-11.5072 v 0.0928 q 0,0.89706 -0.49493,1.4848 -0.49493,0.58773 -1.36107,0.58773 -0.4176,0 -0.7888,-0.15467 -0.35573,-0.15466 -0.5568,-0.34026 -0.20106,-0.20107 -0.464,-0.35574 -0.24746,-0.15466 -0.47946,-0.15466 -0.30934,0 -0.49494,0.26293 -0.17013,0.24747 -0.17013,0.696 h -1.33013 v -0.0928 q 0,-0.91253 0.49493,-1.4848 0.49493,-0.58773 1.36107,-0.58773 0.54133,0 0.95893,0.26293 0.4176,0.24747 0.72693,0.49493 0.30934,0.24747 0.61867,0.24747 0.66507,0 0.66507,-0.95893 z"
     style=""
     id="path867" /><path
     d="m -221.10721,688.15796 v -1.4384 q 0,-0.98986 -0.58773,-1.54666 -0.57227,-0.5568 -1.51574,-0.5568 -0.95893,0 -1.5312,0.5568 -0.57226,0.5568 -0.57226,1.54666 v 1.4384 q 0,0.98987 0.57226,1.56214 0.57227,0.5568 1.5312,0.5568 0.94347,0 1.51574,-0.5568 0.58773,-0.5568 0.58773,-1.56214 z m 1.51573,-1.5776 v 1.73227 q 0,1.51573 -1.0208,2.42827 -1.00533,0.91253 -2.5984,0.91253 -1.59306,0 -2.61386,-0.91253 -1.00534,-0.91254 -1.00534,-2.42827 v -1.73227 q 0,-1.51573 1.00534,-2.42826 1.0208,-0.91254 2.61386,-0.91254 1.59307,0 2.5984,0.91254 1.0208,0.91253 1.0208,2.42826 z"
     style=""
     id="path869" /></g>



</svg>