<?xml version="1.0" encoding="UTF-8" standalone="no"?>
<!-- Generator: Adobe Illustrator 19.1.0, SVG Export Plug-In . SVG Version: 6.00 Build 0)  -->

<svg
   xmlns:dc="http://purl.org/dc/elements/1.1/"
   xmlns:cc="http://creativecommons.org/ns#"
   xmlns:rdf="http://www.w3.org/1999/02/22-rdf-syntax-ns#"
   xmlns:svg="http://www.w3.org/2000/svg"
   xmlns="http://www.w3.org/2000/svg"
   xmlns:sodipodi="http://sodipodi.sourceforge.net/DTD/sodipodi-0.dtd"
   xmlns:inkscape="http://www.inkscape.org/namespaces/inkscape"
   version="1.1"
   id="Calque_1"
   x="0px"
   y="0px"
   viewBox="-330 571.3 138.7 138.7"
   style="enable-background:new -330 571.3 138.7 138.7;"
   xml:space="preserve"
   sodipodi:docname="main_menu_logo_species_records-el.svg"
   inkscape:version="0.92.4 (5da689c313, 2019-01-14)"><metadata
   id="metadata67"><rdf:RDF><cc:Work
       rdf:about=""><dc:format>image/svg+xml</dc:format><dc:type
         rdf:resource="http://purl.org/dc/dcmitype/StillImage" /><dc:title></dc:title></cc:Work></rdf:RDF></metadata><defs
   id="defs65" /><sodipodi:namedview
   pagecolor="#ffffff"
   bordercolor="#666666"
   borderopacity="1"
   objecttolerance="10"
   gridtolerance="10"
   guidetolerance="10"
   inkscape:pageopacity="0"
   inkscape:pageshadow="2"
   inkscape:window-width="1920"
   inkscape:window-height="1017"
   id="namedview63"
   showgrid="false"
   inkscape:zoom="4"
   inkscape:cx="16.152994"
   inkscape:cy="69.349998"
   inkscape:window-x="1912"
   inkscape:window-y="-8"
   inkscape:window-maximized="1"
   inkscape:current-layer="Calque_1" /><style
   type="text/css"
   id="style2">
	.st0{fill:#D3D501;}
	.st1{fill:#40637D;}
	.st2{fill:#FFFFFF;}
</style><g
   id="g6"><path
     class="st0"
     d="M-330,640.7c0-38.3,31-69.3,69.3-69.3c38.3,0,69.3,31,69.3,69.3s-31,69.3-69.3,69.3   C-299,710-330,679-330,640.7"
     id="path4" /></g><g
   id="g60"
   transform="translate(0,1.549997)"><g
     id="g46"><path
       class="st2"
       d="m -249.7,639.4 c -0.4,0.6 -1.1,1.1 -1.9,1.3 l -3.7,1 c -0.3,0.1 -0.6,0.1 -0.9,0.1 -0.7,0 -1.4,-0.2 -1.9,-0.6 -0.8,-0.6 -1.3,-1.5 -1.4,-2.5 l -0.3,-3.9 c -0.1,-0.8 0.1,-1.6 0.6,-2.2 l 0.1,-0.2 h -13.4 c -1.1,0 -2,-0.9 -2,-2 0,-1.1 0.9,-2 2,-2 h 16.2 l 3.6,-5.2 h -19.8 c -1.1,0 -2,-0.9 -2,-2 0,-1.1 0.9,-2 2,-2 l 22.6,-0.1 8.5,-12.1 v -9 c 0,-1.5 -1.1,-2.7 -2.6,-2.7 h -6.5 v 5.1 c 0,2.4 -2,4.3 -4.4,4.3 h -13 c -2.4,0 -4.3,-1.9 -4.3,-4.3 v -5.1 h -6.5 c -1.5,0 -2.7,1.2 -2.7,2.7 v 45.9 c 0,1.5 1.2,2.7 2.7,2.7 h 34.8 c 1.5,0 2.6,-1.3 2.6,-2.7 v -16.4 z m -22.8,-29.1 h 22 c 1.1,0 2,0.9 2,2 0,1.1 -0.9,2 -2,2 h -22 c -1.1,0 -2,-0.9 -2,-2 0,-1.1 0.9,-2 2,-2"
       id="path44"
       inkscape:connector-curvature="0"
       style="fill:#ffffff" /></g><g
     id="g50"><path
       class="st2"
       d="m -268,602.5 h 13 c 1,0 1.8,-0.8 1.8,-1.8 v -7.5 c 0,-1 -0.8,-1.8 -1.8,-1.8 h -2 c 0,-2.5 -2.1,-4.6 -4.6,-4.6 -2.5,0 -4.6,2 -4.6,4.6 h -1.9 c -1,0 -1.8,0.8 -1.8,1.8 v 7.5 c 0.1,1 0.9,1.8 1.9,1.8 m 6.5,-13.1 c 1.1,0 2,0.9 2,2 h -4.1 c 0.1,-1.1 1,-2 2.1,-2"
       id="path48"
       inkscape:connector-curvature="0"
       style="fill:#ffffff" /></g><g
     id="g54"><path
       class="st2"
       d="m -225,598.9 c -0.1,-0.3 -0.2,-0.6 -0.5,-0.8 l -3.3,-2.3 c -0.2,-0.2 -0.5,-0.2 -0.7,-0.2 -0.4,0 -0.8,0.2 -1,0.5 l -23.1,33.1 5.3,3.7 23.1,-33.1 c 0.2,-0.2 0.2,-0.6 0.2,-0.9"
       id="path52"
       inkscape:connector-curvature="0"
       style="fill:#ffffff" /></g><g
     id="g58"><path
       class="st2"
       d="m -257.3,634.6 0.3,3.9 c 0,0.2 0.1,0.4 0.3,0.5 0.1,0.1 0.3,0.1 0.4,0.1 0.1,0 0.1,0 0.2,0 l 3.8,-1 c 0.2,0 0.3,-0.2 0.4,-0.3 l 1.4,-2 -5.3,-3.7 -1.4,2 c -0.1,0.2 -0.1,0.4 -0.1,0.5"
       id="path56"
       inkscape:connector-curvature="0"
       style="fill:#ffffff" /></g></g><g
   aria-label="Οι παρατηρήσεις 
μου"
   style="font-style:normal;font-variant:normal;font-weight:normal;font-stretch:normal;font-size:15.92933273px;line-height:1.25;font-family:KonsensMedium;-inkscape-font-specification:'KonsensMedium, Normal';font-variant-ligatures:normal;font-variant-caps:normal;font-variant-numeric:normal;font-feature-settings:normal;text-align:center;letter-spacing:0px;word-spacing:0px;writing-mode:lr-tb;text-anchor:middle;fill:#000000;fill-opacity:1;stroke:none"
   id="text71"><path
     d="m -315.55297,660.25375 q 0.68724,0.75521 1.04974,1.85026 0.37006,1.09505 0.37006,2.48464 0,1.38958 -0.37761,2.49218 -0.37005,1.09506 -1.04219,1.82761 -0.69479,0.76276 -1.64635,1.14792 -0.94401,0.38515 -2.1599,0.38515 -1.18567,0 -2.15989,-0.39271 -0.96667,-0.3927 -1.64636,-1.14036 -0.67968,-0.74766 -1.04974,-1.83516 -0.3625,-1.0875 -0.3625,-2.48463 0,-1.37448 0.3625,-2.46198 0.3625,-1.09505 1.0573,-1.87292 0.66458,-0.7401 1.64635,-1.13281 0.98932,-0.39271 2.15234,-0.39271 1.20834,0 2.16745,0.40026 0.96667,0.39271 1.6388,1.12526 z m -0.13593,4.3349 q 0,-2.19011 -0.98177,-3.37578 -0.98178,-1.19323 -2.68099,-1.19323 -1.71433,0 -2.6961,1.19323 -0.97422,1.18567 -0.97422,3.37578 0,2.21276 0.99688,3.39088 0.99687,1.17058 2.67344,1.17058 1.67656,0 2.66588,-1.17058 0.99688,-1.17812 0.99688,-3.39088 z"
     style="font-style:normal;font-variant:normal;font-weight:normal;font-stretch:normal;font-size:15.46666718px;font-family:KonsensMedium;-inkscape-font-specification:'KonsensMedium, Normal';font-variant-ligatures:normal;font-variant-caps:normal;font-variant-numeric:normal;font-feature-settings:normal;text-align:center;writing-mode:lr-tb;text-anchor:middle;fill:#40637d;fill-opacity:1"
     id="path886" /><path
     d="M -310.44021,670.2074 H -311.86 v -8.43568 h 1.41979 z"
     style="font-style:normal;font-variant:normal;font-weight:normal;font-stretch:normal;font-size:15.46666718px;font-family:KonsensMedium;-inkscape-font-specification:'KonsensMedium, Normal';font-variant-ligatures:normal;font-variant-caps:normal;font-variant-numeric:normal;font-feature-settings:normal;text-align:center;writing-mode:lr-tb;text-anchor:middle;fill:#40637d;fill-opacity:1"
     id="path888" /><path
     d="m -293.46016,670.2074 h -1.392 q -1.19093,0 -1.88693,-0.6032 -0.696,-0.6032 -0.696,-1.7632 v -4.42347 h -2.58294 v 6.78987 h -1.5776 v -6.78987 h -1.392 v -1.3456 h 9.4656 v 1.36107 h -2.32 v 4.28426 q 0,0.58774 0.26294,0.85067 0.2784,0.24747 0.86613,0.24747 h 1.2528 z"
     style="font-style:normal;font-variant:normal;font-weight:normal;font-stretch:normal;font-size:15.46666718px;font-family:KonsensMedium;-inkscape-font-specification:'KonsensMedium, Normal';font-variant-ligatures:normal;font-variant-caps:normal;font-variant-numeric:normal;font-feature-settings:normal;text-align:center;writing-mode:lr-tb;text-anchor:middle;fill:#40637d;fill-opacity:1"
     id="path890" /><path
     d="m -284.58187,670.2074 h -1.41979 v -0.8836 q -0.61172,0.52865 -1.27631,0.82318 -0.66458,0.29453 -1.44244,0.29453 -1.51042,0 -2.40157,-1.16302 -0.88359,-1.16302 -0.88359,-3.22474 0,-1.07239 0.30208,-1.91068 0.30964,-0.83828 0.83073,-1.42734 0.51354,-0.57396 1.19323,-0.87604 0.68724,-0.30208 1.41979,-0.30208 0.66459,0 1.17813,0.16614 0.51354,0.16615 1.07995,0.46068 v -0.39271 h 1.41979 z m -1.41979,-2.07683 v -4.80312 q -0.57396,-0.25677 -1.02709,-0.37005 -0.45312,-0.12084 -0.98932,-0.12084 -1.19323,0 -1.85781,0.83073 -0.66459,0.83073 -0.66459,2.35625 0,1.50287 0.51355,2.28828 0.51354,0.77787 1.64635,0.77787 0.60417,0 1.22344,-0.26432 0.61927,-0.27188 1.15547,-0.6948 z"
     style="font-style:normal;font-variant:normal;font-weight:normal;font-stretch:normal;font-size:15.46666718px;font-family:KonsensMedium;-inkscape-font-specification:'KonsensMedium, Normal';font-variant-ligatures:normal;font-variant-caps:normal;font-variant-numeric:normal;font-feature-settings:normal;text-align:center;writing-mode:lr-tb;text-anchor:middle;fill:#40637d;fill-opacity:1"
     id="path892" /><path
     d="m -274.33369,665.84985 q 0,1.94843 -1.04974,3.23984 -1.04219,1.28385 -2.71875,1.28385 -0.49089,0 -1.11016,-0.13593 -0.61172,-0.13594 -1.15547,-0.46068 v 3.54193 h -1.41979 v -7.99011 q 0,-0.9289 0.26432,-1.6237 0.27188,-0.70234 0.77031,-1.20078 0.46823,-0.46823 1.17058,-0.71745 0.70989,-0.24921 1.48021,-0.24921 1.83515,0 2.80182,1.11015 0.96667,1.11016 0.96667,3.20209 z m -1.46511,0.0906 q 0,-1.64635 -0.60417,-2.41667 -0.60416,-0.77031 -1.70677,-0.77031 -1.19323,0 -1.72942,0.725 -0.52865,0.725 -0.52865,2.09948 v 3.04349 q 0.5513,0.25677 0.99688,0.37005 0.45312,0.10573 1.01953,0.10573 1.22343,0 1.88802,-0.83828 0.66458,-0.83828 0.66458,-2.31849 z"
     style="font-style:normal;font-variant:normal;font-weight:normal;font-stretch:normal;font-size:15.46666718px;font-family:KonsensMedium;-inkscape-font-specification:'KonsensMedium, Normal';font-variant-ligatures:normal;font-variant-caps:normal;font-variant-numeric:normal;font-feature-settings:normal;text-align:center;writing-mode:lr-tb;text-anchor:middle;fill:#40637d;fill-opacity:1"
     id="path894" /><path
     d="m -265.27875,670.2074 h -1.41979 v -0.8836 q -0.61172,0.52865 -1.2763,0.82318 -0.66458,0.29453 -1.44245,0.29453 -1.51041,0 -2.40156,-1.16302 -0.88359,-1.16302 -0.88359,-3.22474 0,-1.07239 0.30208,-1.91068 0.30964,-0.83828 0.83073,-1.42734 0.51354,-0.57396 1.19323,-0.87604 0.68724,-0.30208 1.41979,-0.30208 0.66458,0 1.17813,0.16614 0.51354,0.16615 1.07994,0.46068 v -0.39271 h 1.41979 z m -1.41979,-2.07683 v -4.80312 q -0.57396,-0.25677 -1.02708,-0.37005 -0.45313,-0.12084 -0.98932,-0.12084 -1.19323,0 -1.85782,0.83073 -0.66458,0.83073 -0.66458,2.35625 0,1.50287 0.51354,2.28828 0.51354,0.77787 1.64636,0.77787 0.60416,0 1.22343,-0.26432 0.61928,-0.27188 1.15547,-0.6948 z"
     style="font-style:normal;font-variant:normal;font-weight:normal;font-stretch:normal;font-size:15.46666718px;font-family:KonsensMedium;-inkscape-font-specification:'KonsensMedium, Normal';font-variant-ligatures:normal;font-variant-caps:normal;font-variant-numeric:normal;font-feature-settings:normal;text-align:center;writing-mode:lr-tb;text-anchor:middle;fill:#40637d;fill-opacity:1"
     id="path896" /><path
     d="m -256.28422,663.01781 h -3.05104 v 7.18959 h -1.41979 v -7.18959 h -3.05104 v -1.24609 h 7.52187 z"
     style="font-style:normal;font-variant:normal;font-weight:normal;font-stretch:normal;font-size:15.46666718px;font-family:KonsensMedium;-inkscape-font-specification:'KonsensMedium, Normal';font-variant-ligatures:normal;font-variant-caps:normal;font-variant-numeric:normal;font-feature-settings:normal;text-align:center;writing-mode:lr-tb;text-anchor:middle;fill:#40637d;fill-opacity:1"
     id="path898" /><path
     d="m -247.75791,673.31886 h -1.41979 v -7.91459 q 0,-0.58151 -0.068,-1.0875 -0.068,-0.51354 -0.24922,-0.80052 -0.1888,-0.31719 -0.54375,-0.46823 -0.35495,-0.15859 -0.92135,-0.15859 -0.58151,0 -1.21589,0.28698 -0.63437,0.28698 -1.21589,0.73255 v 6.29844 h -1.41979 v -8.43568 h 1.41979 v 0.93646 q 0.66459,-0.5513 1.37448,-0.86094 0.7099,-0.30963 1.45756,-0.30963 1.36692,0 2.08437,0.82317 0.71745,0.82318 0.71745,2.37136 z"
     style="font-style:normal;font-variant:normal;font-weight:normal;font-stretch:normal;font-size:15.46666718px;font-family:KonsensMedium;-inkscape-font-specification:'KonsensMedium, Normal';font-variant-ligatures:normal;font-variant-caps:normal;font-variant-numeric:normal;font-feature-settings:normal;text-align:center;writing-mode:lr-tb;text-anchor:middle;fill:#40637d;fill-opacity:1"
     id="path900" /><path
     d="m -237.57015,665.84985 q 0,1.94843 -1.04974,3.23984 -1.04219,1.28385 -2.71875,1.28385 -0.49089,0 -1.11016,-0.13593 -0.61172,-0.13594 -1.15547,-0.46068 v 3.54193 h -1.41979 v -7.99011 q 0,-0.9289 0.26432,-1.6237 0.27188,-0.70234 0.77032,-1.20078 0.46823,-0.46823 1.17057,-0.71745 0.7099,-0.24921 1.48021,-0.24921 1.83515,0 2.80182,1.11015 0.96667,1.11016 0.96667,3.20209 z m -1.46511,0.0906 q 0,-1.64635 -0.60416,-2.41667 -0.60417,-0.77031 -1.70677,-0.77031 -1.19323,0 -1.72943,0.725 -0.52865,0.725 -0.52865,2.09948 v 3.04349 q 0.55131,0.25677 0.99688,0.37005 0.45312,0.10573 1.01953,0.10573 1.22344,0 1.88802,-0.83828 0.66458,-0.83828 0.66458,-2.31849 z"
     style="font-style:normal;font-variant:normal;font-weight:normal;font-stretch:normal;font-size:15.46666718px;font-family:KonsensMedium;-inkscape-font-specification:'KonsensMedium, Normal';font-variant-ligatures:normal;font-variant-caps:normal;font-variant-numeric:normal;font-feature-settings:normal;text-align:center;writing-mode:lr-tb;text-anchor:middle;fill:#40637d;fill-opacity:1"
     id="path902" /><path
     d="m -228.30375,673.31886 h -1.41979 v -7.91459 q 0,-0.58151 -0.068,-1.0875 -0.068,-0.51354 -0.24922,-0.80052 -0.1888,-0.31719 -0.54375,-0.46823 -0.35495,-0.15859 -0.92135,-0.15859 -0.58151,0 -1.21589,0.28698 -0.63437,0.28698 -1.21588,0.73255 v 6.29844 h -1.41979 v -8.43568 h 1.41979 v 0.93646 q 0.66458,-0.5513 1.37448,-0.86094 0.70989,-0.30963 1.45755,-0.30963 1.36693,0 2.08437,0.82317 0.71745,0.82318 0.71745,2.37136 z m -2.39401,-15.76875 -0.37005,2.9 h -1.09505 l -0.37006,-2.9 z"
     style="font-style:normal;font-variant:normal;font-weight:normal;font-stretch:normal;font-size:15.46666718px;font-family:KonsensMedium;-inkscape-font-specification:'KonsensMedium, Normal';font-variant-ligatures:normal;font-variant-caps:normal;font-variant-numeric:normal;font-feature-settings:normal;text-align:center;writing-mode:lr-tb;text-anchor:middle;fill:#40637d;fill-opacity:1"
     id="path904" /><path
     d="m -218.3803,665.99333 q 0,2.12214 -1.06485,3.28516 -1.05729,1.16302 -2.81693,1.16302 -1.82005,0 -2.86224,-1.19323 -1.04218,-1.19323 -1.04218,-3.25495 0,-2.07682 1.06484,-3.2625 1.06484,-1.19322 2.85469,-1.19322 0.41536,0 0.81562,0.0831 0.40026,0.0831 0.61927,0.15104 h 3.625 v 1.24609 h -2.175 q 0.46823,0.55131 0.725,1.28386 0.25678,0.73255 0.25678,1.69166 z m -1.46511,0 q 0,-1.62369 -0.61927,-2.43177 -0.61927,-0.80807 -1.78229,-0.80807 -1.21589,0 -1.83516,0.84583 -0.61927,0.84584 -0.61927,2.39401 0,1.57839 0.62682,2.40157 0.63438,0.82317 1.8125,0.82317 1.14792,0 1.7823,-0.80807 0.63437,-0.81562 0.63437,-2.41667 z"
     style="font-style:normal;font-variant:normal;font-weight:normal;font-stretch:normal;font-size:15.46666718px;font-family:KonsensMedium;-inkscape-font-specification:'KonsensMedium, Normal';font-variant-ligatures:normal;font-variant-caps:normal;font-variant-numeric:normal;font-feature-settings:normal;text-align:center;writing-mode:lr-tb;text-anchor:middle;fill:#40637d;fill-opacity:1"
     id="path906" /><path
     d="m -209.61234,669.72406 q -0.80807,0.3625 -1.58594,0.5211 -0.77786,0.15859 -1.64635,0.15859 -0.59662,0 -1.21589,-0.12083 -0.61927,-0.12084 -1.14792,-0.42292 -0.52109,-0.29453 -0.85338,-0.77031 -0.32474,-0.48333 -0.32474,-1.19323 0,-0.725 0.42292,-1.26875 0.43046,-0.54375 1.34427,-0.83073 v -0.0529 q -0.68724,-0.18125 -1.09506,-0.67969 -0.40781,-0.49844 -0.40781,-1.19323 0,-0.67214 0.35495,-1.11016 0.3625,-0.44557 0.85339,-0.70234 0.48333,-0.24922 1.09505,-0.37005 0.61172,-0.12084 1.20833,-0.12084 0.74011,0 1.35938,0.12839 0.61927,0.12083 1.29895,0.33229 v 1.56328 h -0.0982 q -0.49844,-0.38515 -1.23854,-0.59661 -0.73256,-0.21146 -1.48776,-0.21146 -0.33985,0 -0.63438,0.0453 -0.29453,0.0378 -0.61172,0.1888 -0.26432,0.11329 -0.46068,0.37006 -0.1888,0.24921 -0.1888,0.58151 0,0.46067 0.21146,0.71744 0.21146,0.25678 0.57396,0.37006 0.33984,0.10573 0.73255,0.12083 0.39271,0.008 0.79297,0.008 h 0.83828 v 1.25365 h -1.19323 q -0.46823,0 -0.84583,0.0378 -0.37761,0.0302 -0.69479,0.15859 -0.30964,0.12839 -0.49844,0.40781 -0.18125,0.27943 -0.18125,0.725 0,0.40026 0.19635,0.67969 0.19636,0.27943 0.50599,0.43802 0.27943,0.14349 0.65703,0.21901 0.38516,0.0755 0.80808,0.0755 0.77031,0 1.64635,-0.27187 0.87604,-0.27188 1.41224,-0.74011 h 0.0982 z"
     style="font-style:normal;font-variant:normal;font-weight:normal;font-stretch:normal;font-size:15.46666718px;font-family:KonsensMedium;-inkscape-font-specification:'KonsensMedium, Normal';font-variant-ligatures:normal;font-variant-caps:normal;font-variant-numeric:normal;font-feature-settings:normal;text-align:center;writing-mode:lr-tb;text-anchor:middle;fill:#40637d;fill-opacity:1"
     id="path908" /><path
     d="m -206.43291,670.2074 h -1.41979 v -8.43568 h 1.41979 z"
     style="font-style:normal;font-variant:normal;font-weight:normal;font-stretch:normal;font-size:15.46666718px;font-family:KonsensMedium;-inkscape-font-specification:'KonsensMedium, Normal';font-variant-ligatures:normal;font-variant-caps:normal;font-variant-numeric:normal;font-feature-settings:normal;text-align:center;writing-mode:lr-tb;text-anchor:middle;fill:#40637d;fill-opacity:1"
     id="path910" /><path
     d="m -197.31755,670.9324 q 0,0.65703 -0.35494,1.29896 -0.35495,0.64192 -0.82318,1.0875 h -1.33672 v -0.10573 q 0.64948,-0.56641 0.93646,-1.02709 0.29453,-0.45312 0.29453,-0.98932 0,-0.40781 -0.22656,-0.7099 -0.22657,-0.29453 -0.56641,-0.29453 h -0.69479 q -0.88359,0 -1.63125,-0.22656 -0.74766,-0.22656 -1.31406,-0.73255 -0.55131,-0.49844 -0.86849,-1.28386 -0.30964,-0.78541 -0.30964,-1.88802 0,-2.03906 1.17057,-3.2625 1.17813,-1.22343 3.13412,-1.22343 0.63437,0 1.23854,0.14349 0.60417,0.13593 1.11016,0.33984 v 1.59349 h -0.0906 q -0.70989,-0.46823 -1.30651,-0.65703 -0.58906,-0.1888 -1.1026,-0.1888 -1.25365,0 -1.9711,0.89869 -0.70989,0.8987 -0.70989,2.35625 0,0.84584 0.21146,1.38203 0.21901,0.5362 0.59661,0.87605 0.3776,0.33229 0.86094,0.48333 0.49088,0.14349 1.05729,0.14349 h 0.75521 q 0.86849,0 1.40469,0.58151 0.53619,0.57396 0.53619,1.40469 z"
     style="font-style:normal;font-variant:normal;font-weight:normal;font-stretch:normal;font-size:15.46666718px;font-family:KonsensMedium;-inkscape-font-specification:'KonsensMedium, Normal';font-variant-ligatures:normal;font-variant-caps:normal;font-variant-numeric:normal;font-feature-settings:normal;text-align:center;writing-mode:lr-tb;text-anchor:middle;fill:#40637d;fill-opacity:1"
     id="path912" /><path
     d="m -267.33291,690.11906 h -1.40469 v -0.89114 q -0.55885,0.58906 -1.0724,0.82317 -0.50599,0.22657 -1.09505,0.22657 -0.5664,0 -1.01953,-0.20391 -0.45312,-0.20391 -1.0875,-0.80807 v 3.96484 h -1.41979 v -11.54713 h 1.41979 v 6.32864 q 0.24167,0.29453 0.83828,0.60417 0.59662,0.30963 1.28386,0.30963 0.70234,0 1.21588,-0.24921 0.51354,-0.25678 0.92136,-0.7099 v -6.28333 h 1.41979 z"
     style="font-style:normal;font-variant:normal;font-weight:normal;font-stretch:normal;font-size:15.46666718px;font-family:KonsensMedium;-inkscape-font-specification:'KonsensMedium, Normal';font-variant-ligatures:normal;font-variant-caps:normal;font-variant-numeric:normal;font-feature-settings:normal;text-align:center;writing-mode:lr-tb;text-anchor:middle;fill:#40637d;fill-opacity:1"
     id="path914" /><path
     d="m -257.33395,685.905 q 0,2.06172 -1.0573,3.25495 -1.05729,1.19323 -2.83203,1.19323 -1.78984,0 -2.84713,-1.19323 -1.04974,-1.19323 -1.04974,-3.25495 0,-2.06172 1.04974,-3.25495 1.05729,-1.20078 2.84713,-1.20078 1.77474,0 2.83203,1.20078 1.0573,1.19323 1.0573,3.25495 z m -1.46511,0 q 0,-1.6388 -0.64192,-2.43177 -0.64193,-0.80052 -1.7823,-0.80052 -1.15547,0 -1.79739,0.80052 -0.63438,0.79297 -0.63438,2.43177 0,1.58594 0.64193,2.40912 0.64193,0.81562 1.78984,0.81562 1.13282,0 1.77474,-0.80807 0.64948,-0.81563 0.64948,-2.41667 z"
     style="font-style:normal;font-variant:normal;font-weight:normal;font-stretch:normal;font-size:15.46666718px;font-family:KonsensMedium;-inkscape-font-specification:'KonsensMedium, Normal';font-variant-ligatures:normal;font-variant-caps:normal;font-variant-numeric:normal;font-feature-settings:normal;text-align:center;writing-mode:lr-tb;text-anchor:middle;fill:#40637d;fill-opacity:1"
     id="path916" /><path
     d="m -248.09776,687.04537 q 0,1.64635 -0.92135,2.47708 -0.92135,0.82318 -2.62813,0.82318 -1.68411,0 -2.61302,-0.80808 -0.9289,-0.81562 -0.9289,-2.49218 v -5.36198 h 1.41979 v 4.84088 q 0,0.70235 0.0755,1.15547 0.0755,0.45313 0.31719,0.80052 0.23411,0.32474 0.63437,0.49089 0.40782,0.15859 1.10261,0.15859 0.64948,0 1.07994,-0.16615 0.43803,-0.16614 0.66459,-0.49843 0.21901,-0.33229 0.29453,-0.79297 0.0831,-0.46823 0.0831,-1.14792 v -4.84088 h 1.41979 z"
     style="font-style:normal;font-variant:normal;font-weight:normal;font-stretch:normal;font-size:15.46666718px;font-family:KonsensMedium;-inkscape-font-specification:'KonsensMedium, Normal';font-variant-ligatures:normal;font-variant-caps:normal;font-variant-numeric:normal;font-feature-settings:normal;text-align:center;writing-mode:lr-tb;text-anchor:middle;fill:#40637d;fill-opacity:1"
     id="path918" /></g>
</svg>