<?xml version="1.0" encoding="utf-8"?>
<!-- Generator: Adobe Illustrator 16.0.0, SVG Export Plug-In . SVG Version: 6.00 Build 0)  -->
<!DOCTYPE svg PUBLIC "-//W3C//DTD SVG 1.1//EN" "http://www.w3.org/Graphics/SVG/1.1/DTD/svg11.dtd">
<svg version="1.1" id="Calque_1" xmlns="http://www.w3.org/2000/svg" xmlns:xlink="http://www.w3.org/1999/xlink" x="0px" y="0px"
	 width="45.701px" height="45.7px" viewBox="0 0 45.701 45.7" enable-background="new 0 0 45.701 45.7" xml:space="preserve">
<g>
	<path fill="#FFFFFF" d="M45.201,22.85c0,12.344-10.007,22.351-22.35,22.351C10.507,45.2,0.5,35.193,0.5,22.85
		S10.507,0.5,22.852,0.5C35.194,0.5,45.201,10.506,45.201,22.85"/>
	<circle fill="none" stroke="#4E956C" stroke-miterlimit="10" cx="22.851" cy="22.85" r="22.351"/>
	<path fill="#71AA8A" d="M10.265,16.62c2.988-2.566,5.352-4.596,11.758-0.976c3.077,1.738,5.56,2.394,7.627,2.394
		c3.618,0,5.963-2.013,7.99-3.756c0.724-0.619,0.816-1.722,0.209-2.461c-0.61-0.738-1.689-0.833-2.411-0.212
		c-2.989,2.568-5.351,4.597-11.759,0.976c-8.466-4.782-12.431-1.375-15.616,1.362c-0.725,0.62-0.817,1.722-0.209,2.461
		C8.461,17.146,9.541,17.242,10.265,16.62 M35.438,20.346c-2.989,2.568-5.351,4.597-11.759,0.977
		c-8.466-4.783-12.431-1.375-15.616,1.361c-0.725,0.621-0.817,1.723-0.209,2.461c0.607,0.738,1.688,0.834,2.411,0.212
		c2.988-2.565,5.352-4.596,11.758-0.976c3.077,1.738,5.56,2.394,7.627,2.394c3.618,0,5.963-2.013,7.99-3.754
		c0.724-0.621,0.816-1.724,0.209-2.463C37.24,19.819,36.16,19.725,35.438,20.346 M35.438,29.082
		c-2.989,2.568-5.351,4.597-11.759,0.977c-8.466-4.782-12.431-1.376-15.616,1.361c-0.725,0.621-0.817,1.723-0.209,2.463
		c0.607,0.736,1.688,0.834,2.411,0.212c2.988-2.567,5.35-4.597,11.758-0.978c3.077,1.739,5.56,2.395,7.627,2.395
		c3.618,0,5.963-2.014,7.99-3.754c0.724-0.622,0.816-1.725,0.209-2.463C37.238,28.556,36.16,28.461,35.438,29.082"/>
</g>
</svg>
