<?xml version="1.0" encoding="utf-8"?>
<!-- Generator: Adobe Illustrator 16.0.0, SVG Export Plug-In . SVG Version: 6.00 Build 0)  -->
<!DOCTYPE svg PUBLIC "-//W3C//DTD SVG 1.1//EN" "http://www.w3.org/Graphics/SVG/1.1/DTD/svg11.dtd">
<svg version="1.1" id="Calque_1" xmlns="http://www.w3.org/2000/svg" xmlns:xlink="http://www.w3.org/1999/xlink" x="0px" y="0px"
	 width="45.701px" height="45.7px" viewBox="0 0 45.701 45.7" enable-background="new 0 0 45.701 45.7" xml:space="preserve">
<g>
	<path fill="#3F627C" d="M45.201,22.849c0,12.345-10.008,22.351-22.351,22.351C10.507,45.2,0.5,35.194,0.5,22.849
		C0.5,10.505,10.507,0.5,22.851,0.5C35.193,0.5,45.201,10.505,45.201,22.849"/>
	<circle fill="none" stroke="#FFFFFF" stroke-miterlimit="10" cx="22.851" cy="22.849" r="22.351"/>
	<path fill="#FFFFFF" d="M39.762,14.384L39.762,14.384c-0.224-0.72-1.388-1.179-2.634-1.302c-1.533-0.154-3.493,0.165-5.198,0.872
		c-1.295,0.537-2.495,1.207-3.729,2.177c-1.939,1.524-2.968,2.752-3.487,3.437c-0.419,0.554-0.509,1.185-0.895,1.476
		c-0.02-0.145,0.032-0.529-0.218-0.674c-0.074-0.043-0.157-0.094-0.24-0.142c0.094-0.388,0.579-2.247,1.357-3.313
		c0.946-1.299,2.003-2.041,2.14-2.126c0.168-0.106,0.346-0.114,0.462-0.188c0.089-0.055,0.147-0.297,0.1-0.324
		c-0.181-0.098-0.379,0.114-0.504,0.25c-0.132,0.144-1.502,1.082-2.342,2.306c-0.783,1.142-1.277,2.967-1.366,3.312
		c-0.147-0.079-0.282-0.14-0.357-0.14c-0.069,0-0.185,0.05-0.312,0.115c-0.104-0.397-0.595-2.186-1.36-3.305
		c-0.84-1.222-2.211-2.145-2.342-2.288c-0.123-0.136-0.324-0.348-0.503-0.25c-0.051,0.027,0.01,0.27,0.098,0.324
		c0.117,0.073,0.293,0.081,0.462,0.188c0.137,0.085,1.194,0.812,2.14,2.108c0.763,1.045,1.242,2.863,1.353,3.305
		c-0.1,0.057-0.2,0.116-0.288,0.168c-0.249,0.145-0.197,0.529-0.218,0.674c-0.348-0.186-0.627-0.998-1.137-1.752
		c-0.541-0.805-1.305-1.636-3.242-3.16c-1.236-0.97-2.436-1.64-3.73-2.177c-1.705-0.707-3.665-1.026-5.198-0.872
		c-1.248,0.123-2.414,0.582-2.634,1.302c-0.172,0.559,0.594,2.292,1.303,3.299c0.527,0.749,0.639,1.614,0.832,2.468
		c0.277,1.219,0.78,3.04,2.163,3.492c1.268,0.416,3.743-0.332,3.743-0.332s0.053,0.443-0.778,0.775
		c-0.864,0.348-1.332,0.888-1.828,1.83c-0.447,0.846-0.804,1.979-0.804,2.479c0,0.776,0.194,1.054,0.165,1.414
		c-0.034,0.446,0.125,0.887,0.431,1.22c0.344,0.376,0.208,0.707,0.36,1.123c0.139,0.376,0.68,0.68,0.68,0.68
		s-0.062,0.851,0.554,1.414c0.498,0.457,1.062,0.756,1.428,1.08c0.373,0.334,0.652,0.598,1.455,0.75
		c0.463,0.088,0.749,0.84,1.719,0.785c1.053-0.061,1.049-0.018,1.721-0.292c1.078-0.442,1.562-2.534,2.021-4.553
		c0.362-1.581,0.638-2.563,1.116-2.896c-0.135,0.926,0.067,2.463,0.067,2.463s-0.146,0.791-0.012,0.926
		c-0.062,0.406,0.063,0.961,0.132,0.947c0.028,0.332,0.201,0.935,0.444,0.935c0.242,0,0.416-0.603,0.443-0.935
		c0.069,0.014,0.193-0.541,0.132-0.947c0.135-0.135-0.011-0.926-0.011-0.926s0.187-1.442,0.062-2.482
		c0.427,0.218,0.759,1.334,1.12,2.915c0.461,2.019,0.944,4.11,2.024,4.553c0.669,0.274,0.667-0.004,1.719,0.056
		c0.97,0.056,1.256-0.862,1.719-0.949c0.804-0.152,1.082-0.416,1.455-0.748c0.368-0.326,0.929-0.625,1.429-1.082
		c0.613-0.563,0.554-1.414,0.554-1.414s0.543-0.305,0.681-0.68c0.149-0.416,0.014-0.746,0.358-1.123
		c0.306-0.332,0.466-0.773,0.43-1.219c-0.027-0.361,0.168-0.639,0.168-1.414c0-0.5-0.357-1.234-0.807-2.08
		c-0.497-0.942-0.963-1.482-1.828-1.83c-0.831-0.332-0.775-0.775-0.775-0.775s2.472,0.749,3.742,0.332
		c1.382-0.452,1.886-2.273,2.163-3.492c0.193-0.854,0.305-1.719,0.831-2.468C39.167,16.676,39.934,14.943,39.762,14.384"/>
</g>
</svg>
