<?xml version="1.0" encoding="UTF-8" standalone="no"?>
<!-- Generator: Adobe Illustrator 16.0.0, SVG Export Plug-In . SVG Version: 6.00 Build 0)  -->

<svg
   xmlns:dc="http://purl.org/dc/elements/1.1/"
   xmlns:cc="http://creativecommons.org/ns#"
   xmlns:rdf="http://www.w3.org/1999/02/22-rdf-syntax-ns#"
   xmlns:svg="http://www.w3.org/2000/svg"
   xmlns="http://www.w3.org/2000/svg"
   xmlns:sodipodi="http://sodipodi.sourceforge.net/DTD/sodipodi-0.dtd"
   xmlns:inkscape="http://www.inkscape.org/namespaces/inkscape"
   version="1.1"
   id="Capa_1"
   x="0px"
   y="0px"
   width="45.700001"
   height="45.700001"
   viewBox="0 0 45.700001 45.700001"
   xml:space="preserve"
   sodipodi:docname="filter_local-active.svg"
   inkscape:version="0.92.2 5c3e80d, 2017-08-06"><metadata
     id="metadata41"><rdf:RDF><cc:Work
         rdf:about=""><dc:format>image/svg+xml</dc:format><dc:type
           rdf:resource="http://purl.org/dc/dcmitype/StillImage" /><dc:title /></cc:Work></rdf:RDF></metadata><defs
     id="defs39" /><sodipodi:namedview
     pagecolor="#ffffff"
     bordercolor="#666666"
     borderopacity="1"
     objecttolerance="10"
     gridtolerance="10"
     guidetolerance="10"
     inkscape:pageopacity="0"
     inkscape:pageshadow="2"
     inkscape:window-width="1460"
     inkscape:window-height="938"
     id="namedview37"
     showgrid="false"
     inkscape:pagecheckerboard="false"
     inkscape:zoom="5"
     inkscape:cx="24.809754"
     inkscape:cy="17.188858"
     inkscape:window-x="586"
     inkscape:window-y="232"
     inkscape:window-maximized="0"
     inkscape:current-layer="g4" /><g
     id="g4"
     transform="translate(0,-566.3)"><circle
       style="opacity:1;fill:#3f627c;fill-opacity:1;stroke:#ffffff;stroke-width:1;stroke-miterlimit:10;stroke-dasharray:none;stroke-opacity:1"
       id="path831"
       cx="23.051001"
       cy="589.34924"
       r="22.304325" /><path
       inkscape:connector-curvature="0"
       style="fill:#ffffff;stroke-width:0.05228759;fill-opacity:1"
       id="path860"
       d="m 33.996328,589.57667 4.927217,10.12189 c 0.200366,0.41166 -0.01025,0.74844 -0.468078,0.74844 H 7.543301 c -0.45783,0 -0.668497,-0.33678 -0.468078,-0.74844 l 4.927269,-10.12189 c 0.07838,-0.16099 0.289046,-0.29276 0.468078,-0.29276 h 4.22489 c 0.130197,0 0.306041,0.0815 0.391269,0.17998 0.28664,0.33124 0.578614,0.65485 0.869752,0.97516 0.276497,0.30405 0.554458,0.61208 0.830222,0.92732 h -5.01391 c -0.179085,0 -0.389751,0.13171 -0.468079,0.29276 l -3.264105,6.70546 h 25.917393 l -3.263844,-6.70546 c -0.07833,-0.16105 -0.288993,-0.29276 -0.468131,-0.29276 h -5.025256 c 0.275712,-0.31524 0.553778,-0.62327 0.830274,-0.92732 0.292027,-0.32126 0.585622,-0.64424 0.872942,-0.97558 0.08512,-0.0982 0.260601,-0.17956 0.390588,-0.17956 h 4.233779 c 0.178981,0 0.389595,0.13166 0.467974,0.29276 z m -3.752942,-6.91723 c 0,5.53077 -4.604341,6.56805 -6.769779,11.88314 -0.175948,0.4319 -0.784001,0.4297 -0.960001,-0.002 -1.953412,-4.79221 -5.88957,-6.10636 -6.642669,-10.37553 -0.74149,-4.20283 2.16842,-8.31974 6.417205,-8.72137 4.321047,-0.40847 7.955244,2.9793 7.955244,7.21585 z m -3.421021,0 c 0,-2.1143 -1.713934,-3.82829 -3.828288,-3.82829 -2.114354,0 -3.828289,1.71399 -3.828289,3.82829 0,2.11435 1.713935,3.82829 3.828289,3.82829 2.114354,0 3.828288,-1.71394 3.828288,-3.82829 z" /></g><g
     id="g6"
     transform="translate(0,-566.3)" /><g
     id="g8"
     transform="translate(0,-566.3)" /><g
     id="g10"
     transform="translate(0,-566.3)" /><g
     id="g12"
     transform="translate(0,-566.3)" /><g
     id="g14"
     transform="translate(0,-566.3)" /><g
     id="g16"
     transform="translate(0,-566.3)" /><g
     id="g18"
     transform="translate(0,-566.3)" /><g
     id="g20"
     transform="translate(0,-566.3)" /><g
     id="g22"
     transform="translate(0,-566.3)" /><g
     id="g24"
     transform="translate(0,-566.3)" /><g
     id="g26"
     transform="translate(0,-566.3)" /><g
     id="g28"
     transform="translate(0,-566.3)" /><g
     id="g30"
     transform="translate(0,-566.3)" /><g
     id="g32"
     transform="translate(0,-566.3)" /><g
     id="g34"
     transform="translate(0,-566.3)" /></svg>