<?xml version="1.0" encoding="utf-8"?>
<!-- Generator: Adobe Illustrator 16.0.0, SVG Export Plug-In . SVG Version: 6.00 Build 0)  -->
<!DOCTYPE svg PUBLIC "-//W3C//DTD SVG 1.1//EN" "http://www.w3.org/Graphics/SVG/1.1/DTD/svg11.dtd">
<svg version="1.1" id="Calque_1" xmlns="http://www.w3.org/2000/svg" xmlns:xlink="http://www.w3.org/1999/xlink" x="0px" y="0px"
	 width="45.701px" height="45.7px" viewBox="0 0 45.701 45.7" enable-background="new 0 0 45.701 45.7" xml:space="preserve">
<g>
	<path fill="#FFFFFF" d="M45.201,22.85c0,12.344-10.008,22.351-22.35,22.351C10.507,45.201,0.5,35.194,0.5,22.85
		C0.5,10.505,10.507,0.5,22.851,0.5C35.193,0.5,45.201,10.505,45.201,22.85"/>
	<circle fill="none" stroke="#B6D3C3" stroke-miterlimit="10" cx="22.851" cy="22.85" r="22.351"/>
	<path fill="#86B79B" d="M34.789,22.016l6.25,0.282c0,0-5.774,0.729-6.475,0.939c-1.326,3.539-5.236,2.637-6.505,4.34
		c-1.996,2.672-5.667,3.58-11.378,2.024c-0.581,0.835-6.344,5.265-7.99,5.801c-1.639,0.533,3.399-3.419,3.399-3.419
		S9.675,33.66,8.04,34.093c-1.635,0.433,4.401-4.12,4.401-4.12s-2.621,1.091-4.042,1.181c-1.425,0.088,2.742-2.564,2.742-2.564
		s-1.285,0.095-1.77,0.095s-0.699-0.397,1.044-1.181c1.739-0.789,5.42-2.594,8.814-3.248c0.23-1.18-5.916-10.381-5.571-11.144
		c0.339-0.762,3.473-0.495,7.937,4.659c0.423-0.762-0.841-12.104,0.151-11.07c0.998,1.028,5.232,9.504,5.692,15.993
		c0.727,0.152,2.072-0.997,3.551-1.681C33.635,19.781,34.789,22.016,34.789,22.016"/>
</g>
</svg>
