<?xml version="1.0" encoding="utf-8"?>
<!-- Generator: Adobe Illustrator 16.0.0, SVG Export Plug-In . SVG Version: 6.00 Build 0)  -->
<!DOCTYPE svg PUBLIC "-//W3C//DTD SVG 1.1//EN" "http://www.w3.org/Graphics/SVG/1.1/DTD/svg11.dtd">
<svg version="1.1" id="Calque_1" xmlns="http://www.w3.org/2000/svg" xmlns:xlink="http://www.w3.org/1999/xlink" x="0px" y="0px"
	 width="45.701px" height="45.7px" viewBox="0 0 45.701 45.7" enable-background="new 0 0 45.701 45.7" xml:space="preserve">
<g>
	<path fill="#FFFFFF" d="M45.201,22.85c0,12.344-10.008,22.35-22.351,22.35C10.507,45.2,0.5,35.194,0.5,22.85
		C0.5,10.506,10.507,0.5,22.851,0.5C35.193,0.5,45.201,10.506,45.201,22.85"/>
	<circle fill="none" stroke="#B6D3C3" stroke-miterlimit="10" cx="22.851" cy="22.85" r="22.351"/>
	<path fill="#86B79B" d="M5.499,27.04c0.064,0.234,0.116,0.477,0.149,0.721c0.055,0.402,0.185,0.775,0.396,1.121
		c0.064,0.107,0.145,0.207,0.196,0.32c0.024,0.055-0.002,0.133-0.003,0.201c0,0.051,0.001,0.102,0.003,0.152
		c0.056-0.014,0.142-0.008,0.164-0.041c0.065-0.109,0.138-0.229,0.15-0.35c0.024-0.213,0.008-0.432,0.008-0.67
		c0.04-0.025,0.117-0.076,0.197-0.127c0.021-0.014,0.048-0.033,0.069-0.029c0.512,0.049,0.987,0.193,1.416,0.494
		c0.177,0.123,0.402,0.131,0.623,0.082c0.068-0.018,0.173,0.004,0.224,0.051c0.131,0.117,0.24,0.26,0.353,0.383
		c0.053-0.324-0.141-0.762-0.419-0.961c-0.265-0.191-0.547-0.328-0.852-0.445C8.04,27.889,7.963,27.69,7.86,27.559
		c0.159-0.146,0.307-0.131,0.492-0.076c0.184,0.055,0.33,0.164,0.496,0.24c0.113,0.053,0.241,0.107,0.36,0.1
		c0.271-0.016,0.477,0.031,0.506,0.371c0.151-0.205,0.106-0.551-0.071-0.711c-0.16-0.145-0.316-0.281-0.537-0.355
		c-0.346-0.113-0.67-0.283-0.997-0.475c0.143,0.035,0.285,0.084,0.43,0.098c0.15,0.016,0.329,0.109,0.445-0.139
		c0.087,0.109,0.154,0.193,0.239,0.297c0.12,0.008,0.163-0.057,0.131-0.201c-0.059-0.262-0.21-0.387-0.47-0.383
		c-0.024,0.002-0.061,0.004-0.071-0.01c-0.139-0.174-0.338-0.121-0.518-0.148c-0.129-0.021-0.255-0.062-0.372-0.129
		c0.172,0.01,0.344,0.02,0.515,0.029c0.03-0.232-0.074-0.352-0.265-0.416c-0.306-0.098-1.123-0.396-1.333-0.684
		c0.192,0,0.367,0.006,0.539-0.002c0.122-0.004,0.242-0.031,0.363-0.039C7.82,24.924,7.9,24.94,7.978,24.952
		c0.092,0.018,0.183,0.053,0.275,0.059c0.291,0.018,0.585,0.049,0.875,0.027c0.126-0.01,0.236-0.162,0.367-0.193
		c0.172-0.045,0.245-0.162,0.304-0.293c0.112-0.25,0.214-0.506,0.307-0.764c0.047-0.135,0.104-0.154,0.202-0.055
		c0.136,0.141,0.267,0.285,0.401,0.428c0.125,0.133,0.231,0.309,0.384,0.379c0.143,0.068,0.286,0.131,0.375,0.248
		c0.198,0.258,0.498,0.35,0.756,0.508c0.109,0.066,0.201,0.16,0.31,0.229c0.237,0.148,0.474,0.303,0.724,0.432
		c0.321,0.166,0.645,0.338,0.985,0.457c0.352,0.121,0.726,0.18,1.089,0.273c0.145,0.037,0.287,0.084,0.42,0.146
		c0.174,0.08,0.331,0.201,0.51,0.262c0.167,0.057,0.354,0.049,0.529,0.088c0.174,0.039,0.342,0.102,0.513,0.15
		c0.119,0.033,0.242,0.049,0.357,0.092c0.302,0.109,0.601,0.23,0.9,0.35c0.104,0.043,0.203,0.129,0.311,0.137
		c0.257,0.021,0.426,0.199,0.629,0.314c0.133,0.076,0.271,0.146,0.401,0.23c0.09,0.059,0.17,0.133,0.251,0.197
		c-0.201,0.23-0.4,0.439-0.569,0.668c-0.061,0.084-0.063,0.223-0.07,0.336c-0.037,0.697,0.145,1.332,0.554,1.902
		c0.293,0.404,0.598,0.805,0.864,1.229c0.124,0.195,0.187,0.436,0.247,0.664c0.037,0.141-0.007,0.283-0.157,0.365
		c-0.253,0.135-0.321,0.578-0.229,0.814c0.022,0.059,0.094,0.098,0.134,0.135c0.136-0.225,0.251-0.418,0.366-0.611
		c0.029,0.008,0.056,0.014,0.084,0.021c-0.264,0.451-0.325,0.908-0.062,1.393c0.07-0.146,0.127-0.303,0.218-0.434
		c0.155-0.23,0.204-0.533,0.446-0.693c0.092-0.062,0.258-0.094,0.356-0.053c0.188,0.074,0.366,0.193,0.521,0.328
		c0.272,0.238,0.525,0.504,0.792,0.754c0.124,0.115,0.267,0.217,0.391,0.336c0.052,0.049,0.079,0.125,0.118,0.189
		c0.158-0.127,0.192-0.451,0.082-0.648c-0.033-0.061-0.034-0.139-0.068-0.199c-0.05-0.086-0.104-0.178-0.177-0.242
		c-0.143-0.127-0.279-0.25-0.318-0.512c0.215,0.102,0.403,0.174,0.572,0.275c0.141,0.084,0.229,0.223,0.443,0.119
		c0.156-0.074,0.499,0.16,0.594,0.33c0.027,0.049,0.083,0.082,0.126,0.123c0.019-0.057,0.056-0.115,0.054-0.17
		c-0.009-0.221-0.059-0.426-0.281-0.537c-0.039-0.021-0.087-0.055-0.098-0.092c-0.081-0.244-0.287-0.312-0.501-0.385
		c-0.112-0.039-0.211-0.115-0.313-0.178c-0.097-0.057-0.188-0.121-0.323-0.211c0.105-0.02,0.177-0.033,0.248-0.049
		c0.209-0.043,0.425-0.068,0.492-0.332c0.01-0.041,0.106-0.094,0.15-0.084c0.065,0.018,0.131,0.074,0.172,0.131
		c0.033,0.047,0.032,0.119,0.051,0.199c0.036-0.029,0.083-0.053,0.081-0.064c-0.032-0.135-0.037-0.299-0.12-0.393
		c-0.088-0.098-0.253-0.184-0.383-0.18c-0.202,0.008-0.4,0.105-0.606,0.139c-0.127,0.021-0.271,0.023-0.393-0.016
		c-0.22-0.07-0.428-0.176-0.641-0.266c-0.335-0.141-0.44-0.488-0.668-0.729c-0.011-0.014-0.02-0.033-0.025-0.051
		c-0.09-0.328-0.173-0.658-0.271-0.982c-0.062-0.201-0.149-0.395-0.232-0.613c0.029-0.02,0.073-0.066,0.123-0.076
		c0.222-0.045,0.442-0.1,0.666-0.109c0.108-0.004,0.226,0.068,0.332,0.119c0.217,0.107,0.422,0.242,0.647,0.332
		c0.108,0.043,0.254-0.014,0.375,0.014c0.179,0.043,0.347,0.133,0.526,0.178c0.311,0.078,0.627,0.141,0.94,0.205
		c0.062,0.014,0.148-0.008,0.184,0.029c0.162,0.152,0.358,0.131,0.552,0.131c0.278,0.002,0.558-0.006,0.837-0.004
		c0.188,0.004,0.375,0.027,0.562,0.021c0.08-0.002,0.154-0.07,0.236-0.084c0.259-0.049,0.52-0.086,0.781-0.127
		c0.045-0.01,0.095-0.004,0.133-0.021c0.33-0.16,0.574,0.035,0.839,0.18c0.201,0.113,0.421,0.188,0.63,0.281
		c0.104,0.043,0.229,0.033,0.305,0.15c0.019,0.027,0.168,0.004,0.227-0.039c0.106-0.078,0.184-0.051,0.252,0.029
		c0.1,0.117,0.185,0.246,0.286,0.363c0.036,0.041,0.097,0.059,0.147,0.086c-0.004-0.057,0.006-0.119-0.011-0.172
		c-0.051-0.152-0.114-0.303-0.18-0.473c0.012,0.002,0.024,0.004,0.036,0.008c0.107,0.041,0.205,0.076,0.296,0.115
		c0.07,0.027,0.131,0.023,0.188,0.002c1.772,0.391,3.593,0.463,3.735,0.35c0.22-0.176,3.556-0.439,4.521-0.527
		s1.141-0.643,1.141-0.643s-0.264,0.203-0.264,0s-0.477-1.168-0.395-0.674c0.083,0.492-0.877,0.674-0.877,0.674v-0.342
		c0,0-0.791,0.414-0.747,0.332c0.045-0.082-0.395-0.354-0.395-0.354c0.052,0.521-0.658,0.311-0.658,0.311v-0.311
		c0,0-0.571,0.217-0.746,0.301c-0.176,0.082-0.22-0.307-0.22-0.307l-0.746,0.307l-0.264-0.129c-0.235,0.285-1.023,0.039-1.598-0.195
		c0.341-0.061,0.683-0.123,1.028-0.166c0.681-0.086,1.367-0.135,2.051-0.205c0.471-0.047,0.938-0.123,1.409-0.15
		c0.569-0.031,1.122-0.156,1.68-0.26c0.361-0.064,0.665-0.23,0.944-0.455c0.297-0.242,0.317-0.777,0.037-1.029
		c-0.067-0.061-0.147-0.105-0.218-0.162c-0.109-0.09-0.203-0.207-0.325-0.262c-0.179-0.076-0.385-0.17-0.563-0.143
		c-0.526,0.076-0.985-0.088-1.454-0.277c-0.604-0.24-1.218-0.461-1.829-0.684c-0.103-0.037-0.218-0.066-0.324-0.059
		c-0.343,0.025-0.562-0.184-0.786-0.387c-0.028-0.025-0.064-0.053-0.075-0.088c-0.104-0.338-0.421-0.461-0.672-0.641
		c-0.096-0.068-0.27-0.094-0.383-0.059c-0.241,0.078-0.479,0.061-0.706,0c-0.541-0.139-1.082-0.092-1.623-0.037
		c-0.231,0.023-0.455,0.127-0.685,0.188c-0.363,0.098-0.723,0.209-1.091,0.273c-0.324,0.061-0.657,0.135-0.983-0.045
		c-0.134-0.072-0.29-0.055-0.386,0.109c-0.075,0.129-0.192,0.111-0.307,0.064c-0.164-0.066-0.323-0.135-0.506-0.053
		c-0.04,0.02-0.104,0.002-0.149-0.018c-0.163-0.074-0.312-0.104-0.409,0.109c-0.163-0.143-0.317-0.234-0.492-0.039
		c-0.019,0.023-0.116-0.002-0.165-0.027c-0.16-0.092-0.314-0.197-0.473-0.297c-0.038-0.025-0.092-0.041-0.111-0.074
		c-0.069-0.129-0.139-0.248-0.319-0.203c-0.018,0.006-0.059-0.033-0.065-0.059c-0.096-0.305-0.269-0.545-0.546-0.715
		c-0.041-0.025-0.055-0.098-0.077-0.15c-0.074-0.178-0.122-0.371-0.325-0.461c-0.034-0.016-0.062-0.068-0.071-0.111
		c-0.076-0.316-0.295-0.539-0.504-0.77c-0.08-0.09-0.134-0.205-0.217-0.291c-0.166-0.168-0.348-0.32-0.516-0.486
		c-0.125-0.123-0.24-0.254-0.356-0.387c-0.106-0.119-0.202-0.246-0.313-0.361c-0.03-0.031-0.111-0.059-0.138-0.041
		c-0.156,0.098-0.222-0.012-0.295-0.113c-0.125-0.17-0.242-0.346-0.381-0.506c-0.068-0.08-0.166-0.133-0.295-0.068
		c-0.045,0.021-0.146-0.029-0.198-0.074c-0.174-0.145-0.326-0.316-0.508-0.451c-0.084-0.059-0.215-0.053-0.322-0.082
		c-0.105-0.031-0.23-0.041-0.309-0.107c-0.329-0.277-0.688-0.439-1.128-0.418c-0.119,0.008-0.246-0.064-0.357-0.121
		c-0.207-0.104-0.404-0.225-0.608-0.334c-0.12-0.062-0.233-0.074-0.365,0.006c-0.061,0.035-0.186,0-0.264-0.037
		c-0.214-0.105-0.414-0.236-0.629-0.34c-0.069-0.033-0.17-0.043-0.244-0.021c-0.238,0.07-0.448,0.01-0.653-0.102
		c-0.103-0.055-0.205-0.125-0.313-0.148c-0.104-0.023-0.224-0.01-0.327,0.018c-0.203,0.051-0.395,0.105-0.594-0.021
		c-0.248-0.156-0.511-0.225-0.783-0.041c-0.036,0.025-0.09,0.023-0.153,0.037c0.013-0.1,0.021-0.172,0.032-0.268
		c-0.075,0.012-0.131,0.018-0.197,0.027c0.332-0.344,0.26-0.76,0.183-1.14c-0.092-0.442-0.594-0.51-0.886-0.776
		c0.213-0.149,0.413-0.291,0.616-0.427c0.032-0.022,0.107-0.007,0.12-0.031c0.042-0.081,0.064-0.171,0.097-0.266
		c0.021,0.023,0.049,0.06,0.093,0.112c0.06-0.094,0.114-0.18,0.176-0.273c0.016,0.014,0.054,0.044,0.104,0.088
		c0.018-0.058,0.029-0.1,0.043-0.146c0.033,0.03,0.06,0.054,0.1,0.09c0.022-0.07,0.041-0.124,0.059-0.177l0.052-0.035
		c0.017,0.06,0.03,0.118,0.046,0.178c0.024-0.015,0.049-0.028,0.073-0.043c0.008-0.049,0.014-0.099,0.016-0.115
		c0.088-0.036,0.156-0.072,0.231-0.093c0.538-0.161,1.036-0.457,1.633-0.432c0.263,0.012,0.528-0.092,0.793-0.138
		c0.152-0.025,0.31-0.032,0.461-0.062c0.108-0.021,0.211-0.073,0.319-0.097c0.056-0.013,0.12,0.017,0.181,0.014
		c0.565-0.04,1.131-0.093,1.696-0.123c0.298-0.017,0.573-0.078,0.859-0.173c0.262-0.087,0.567-0.051,0.854-0.059
		c0.14-0.002,0.284,0.072,0.369-0.004c0.162,0.019,0.293,0.05,0.423,0.046c0.452-0.011,0.905-0.034,1.357-0.058
		c0.042-0.001,0.081-0.037,0.123-0.051c0.116-0.036,0.232-0.099,0.348-0.099c0.492,0.006,0.96-0.1,1.429-0.223
		c0.745-0.197,1.494-0.369,2.235-0.573c0.249-0.068,0.481-0.197,0.72-0.301c0.138-0.056,0.271-0.115,0.408-0.17
		c0.281-0.116,0.549-0.233,0.763-0.476c0.199-0.222,0.494-0.357,0.688-0.581c0.258-0.295,0.461-0.635,0.678-0.962
		c0.04-0.059,0.025-0.151,0.048-0.224c0.015-0.041,0.067-0.108,0.085-0.103c0.168,0.048,0.142-0.085,0.163-0.169
		c0.06-0.221,0.112-0.445,0.175-0.667c0.019-0.064,0.062-0.121,0.104-0.2c-0.036-0.021-0.075-0.043-0.112-0.064
		c0.035-0.254,0.092-0.507,0.098-0.76c0.002-0.183-0.052-0.368-0.108-0.543c-0.018-0.058-0.13-0.082-0.199-0.122
		c-0.027,0.058-0.055,0.115-0.082,0.173c-0.044,0.093-0.082,0.188-0.13,0.277c-0.056,0.106-0.13,0.176-0.126,0.337
		c0.005,0.216-0.103,0.458-0.226,0.647c-0.101,0.152-0.318,0.221-0.44,0.364c-0.125,0.146-0.227,0.289-0.434,0.33
		c-0.049,0.011-0.075,0.137-0.116,0.22c-0.085-0.141-0.192-0.122-0.27-0.013c-0.127,0.175-0.3,0.196-0.484,0.173
		c-0.159-0.021-0.25,0.055-0.334,0.174c-0.036,0.052-0.104,0.095-0.165,0.107c-0.191,0.039-0.378,0.061-0.528,0.219
		c-0.117,0.122-0.263,0.232-0.454,0.07c-0.11-0.092-0.354,0.011-0.452,0.155c-0.062,0.091-0.138,0.175-0.222,0.278
		c-0.039-0.059-0.053-0.079-0.063-0.099c-0.153-0.264-0.152-0.261-0.43-0.147c-0.119,0.049-0.24,0.113-0.365,0.124
		c-0.131,0.01-0.27-0.021-0.397-0.061c-0.197-0.06-0.378-0.047-0.575,0.021c-0.17,0.062-0.358,0.065-0.564,0.099
		c-0.165-0.161-0.271-0.162-0.535-0.031c-0.146,0.072-0.313,0.106-0.466,0.154c-0.207-0.284-0.408-0.347-0.713-0.235
		c-0.143,0.053-0.286,0.1-0.441,0.153c0.053-0.274-0.112-0.442-0.356-0.387c-0.181,0.041-0.358,0.113-0.541,0.139
		c-0.089,0.012-0.225-0.025-0.276-0.089c-0.122-0.154-0.255-0.149-0.416-0.104c-0.191,0.054-0.382,0.104-0.565,0.152
		c-0.106-0.206-0.379-0.36-0.563-0.33c-0.07,0.012-0.147,0.049-0.198,0.098c-0.184,0.178-0.234,0.188-0.423,0.032
		c-0.231-0.188-0.315-0.187-0.579-0.034c-0.121,0.07-0.26,0.113-0.393,0.168c-0.054-0.229-0.314-0.36-0.511-0.266
		c-0.095,0.045-0.189,0.09-0.278,0.145c-0.092,0.058-0.176,0.126-0.263,0.191c-0.059-0.233-0.205-0.331-0.414-0.206
		c-0.319,0.19-0.617,0.186-0.938,0.04c-0.017-0.008-0.083,0.07-0.106,0.118c-0.017,0.035,0.003,0.087-0.004,0.13
		c-0.003,0.017-0.036,0.03-0.07,0.054c-0.011-0.076-0.021-0.134-0.032-0.206c-0.334,0.105-0.659,0.198-0.977,0.313
		c-0.136,0.047-0.256,0.137-0.392,0.213c0.014-0.05,0.029-0.104,0.052-0.186c-0.491-0.212-0.702,0.186-0.976,0.434
		c-0.297-0.167-0.666-0.082-0.878,0.188c-0.042,0.054-0.128,0.07-0.192,0.11c-0.079,0.05-0.165,0.096-0.23,0.163
		c-0.078,0.082-0.14,0.183-0.223,0.293c-0.062-0.072-0.111-0.127-0.159-0.183c-0.127,0.128-0.249,0.25-0.371,0.372
		c-0.172,0.174-0.353,0.34-0.516,0.52c-0.083,0.092-0.137,0.211-0.212,0.33c-0.095-0.141-0.206-0.086-0.292,0.01
		c-0.136,0.153-0.257,0.322-0.386,0.484c-0.031,0.04-0.059,0.108-0.096,0.113c-0.253,0.038-0.319,0.235-0.382,0.464
		c-0.135-0.155-0.219-0.069-0.283,0.039c-0.144,0.246-0.289,0.49-0.414,0.745c-0.045,0.093-0.028,0.213-0.042,0.321
		c0.018,0.003,0.032,0.004,0.05,0.007c-0.045,0.042-0.093,0.085-0.138,0.127c-0.171-0.111-0.217-0.098-0.286,0.104
		c-0.047,0.133-0.064,0.278-0.118,0.409c-0.068,0.166-0.178,0.316-0.239,0.485c-0.086,0.24-0.147,0.493-0.216,0.741
		c-0.054,0.188-0.112,0.377-0.15,0.57c-0.026,0.133-0.038,0.27-0.029,0.404c0.021,0.275,0.067,0.553,0.083,0.828
		c0.007,0.123-0.016,0.26-0.062,0.373c-0.121,0.287-0.22,0.566-0.206,0.889c0.008,0.195-0.073,0.395-0.098,0.594
		s-0.034,0.396-0.038,0.596c-0.007,0.301-0.002,0.598-0.002,0.926c-0.052-0.006-0.126-0.006-0.191-0.029
		c-0.234-0.088-0.467-0.146-0.722-0.094c-0.104,0.02-0.216-0.018-0.321-0.004c-0.348,0.041-0.636,0.215-0.897,0.441
		c-0.077,0.066-0.163,0.127-0.248,0.186c-0.116,0.082-0.169,0.174-0.022,0.324C5.04,23.5,4.983,23.61,4.963,23.741
		c-0.021,0.133-0.038,0.271-0.028,0.406c0.025,0.408,0.092,0.814,0.093,1.223C5.027,25.977,5.346,26.483,5.499,27.04"/>
</g>
</svg>
