<?xml version="1.0" encoding="utf-8"?>
<!-- Generator: Adobe Illustrator 16.0.0, SVG Export Plug-In . SVG Version: 6.00 Build 0)  -->
<!DOCTYPE svg PUBLIC "-//W3C//DTD SVG 1.1//EN" "http://www.w3.org/Graphics/SVG/1.1/DTD/svg11.dtd">
<svg version="1.1" id="Calque_1" xmlns="http://www.w3.org/2000/svg" xmlns:xlink="http://www.w3.org/1999/xlink" x="0px" y="0px"
	 width="45.7px" height="45.7px" viewBox="0 0 45.7 45.7" enable-background="new 0 0 45.7 45.7" xml:space="preserve">
<g>
	<path fill="#CFA725" stroke="#FFFFFF" stroke-miterlimit="10" d="M45.2,22.85c0,12.344-10.007,22.351-22.35,22.351
		C10.507,45.2,0.5,35.193,0.5,22.85C0.5,10.506,10.507,0.5,22.851,0.5C35.193,0.5,45.2,10.506,45.2,22.85"/>
	<path fill="#FFFFFF" d="M23.204,6.377c-0.047-0.375-0.662-0.375-0.708,0c-1.542,12.405-9.42,14.961-9.42,23.584
		c0,5.326,4.474,9.646,9.772,9.646c5.301,0,9.775-4.319,9.775-9.646C32.624,21.338,24.744,18.782,23.204,6.377 M21.716,20.089
		c-0.105,0.384-0.215,0.777-0.329,1.184c-0.7,2.486-1.495,5.304-1.495,8.564c0,1.763-1.043,2.392-2.018,2.392
		c-1.113,0-2.019-0.913-2.019-2.035c0-3.851,1.854-6.369,3.493-8.588c0.511-0.695,0.995-1.352,1.389-2.008
		c0.181-0.298,0.664-0.286,0.885,0.011C21.726,19.75,21.76,19.926,21.716,20.089"/>
</g>
</svg>
