<?xml version="1.0" encoding="utf-8"?>
<!-- Generator: Adobe Illustrator 16.0.0, SVG Export Plug-In . SVG Version: 6.00 Build 0)  -->
<!DOCTYPE svg PUBLIC "-//W3C//DTD SVG 1.1//EN" "http://www.w3.org/Graphics/SVG/1.1/DTD/svg11.dtd">
<svg version="1.1" id="Calque_1" xmlns="http://www.w3.org/2000/svg" xmlns:xlink="http://www.w3.org/1999/xlink" x="0px" y="0px"
	 width="45.7px" height="45.7px" viewBox="0 0 45.7 45.7" enable-background="new 0 0 45.7 45.7" xml:space="preserve">
<path fill="#CFA725" stroke="#FFFFFF" stroke-miterlimit="10" d="M45.2,22.85C45.2,35.193,35.192,45.2,22.85,45.2
	C10.506,45.2,0.5,35.193,0.5,22.85C0.5,10.506,10.506,0.5,22.85,0.5C35.192,0.5,45.2,10.506,45.2,22.85"/>
<path fill="#FFFFFF" d="M10.264,16.618c2.988-2.565,5.351-4.596,11.757-0.976c3.078,1.738,5.561,2.395,7.628,2.395
	c3.618,0,5.963-2.014,7.989-3.756c0.724-0.62,0.817-1.723,0.209-2.461c-0.609-0.739-1.689-0.834-2.411-0.212
	c-2.989,2.568-5.35,4.597-11.759,0.976c-8.464-4.782-12.43-1.375-15.615,1.362c-0.724,0.619-0.817,1.722-0.209,2.461
	C8.46,17.145,9.541,17.24,10.264,16.618 M35.437,20.344c-2.989,2.568-5.35,4.597-11.759,0.976
	c-8.464-4.782-12.43-1.375-15.615,1.362c-0.724,0.622-0.817,1.723-0.209,2.461c0.607,0.738,1.688,0.833,2.411,0.212
	c2.988-2.566,5.351-4.596,11.757-0.977c3.078,1.739,5.561,2.395,7.628,2.395c3.618,0,5.963-2.013,7.989-3.754
	c0.724-0.622,0.817-1.724,0.209-2.463C37.24,19.818,36.16,19.724,35.437,20.344 M35.437,29.082
	c-2.989,2.568-5.35,4.596-11.759,0.976c-8.464-4.782-12.43-1.375-15.615,1.361c-0.724,0.622-0.817,1.723-0.209,2.462
	c0.607,0.737,1.688,0.834,2.411,0.213c2.988-2.568,5.35-4.597,11.757-0.978c3.078,1.74,5.561,2.395,7.628,2.395
	c3.618,0,5.963-2.014,7.989-3.754c0.724-0.623,0.817-1.725,0.209-2.463C37.238,28.555,36.16,28.46,35.437,29.082"/>
</svg>
