<?xml version="1.0" encoding="UTF-8" standalone="no"?>
<!-- Generator: Adobe Illustrator 16.0.0, SVG Export Plug-In . SVG Version: 6.00 Build 0)  -->

<svg
   xmlns:dc="http://purl.org/dc/elements/1.1/"
   xmlns:cc="http://creativecommons.org/ns#"
   xmlns:rdf="http://www.w3.org/1999/02/22-rdf-syntax-ns#"
   xmlns:svg="http://www.w3.org/2000/svg"
   xmlns="http://www.w3.org/2000/svg"
   xmlns:sodipodi="http://sodipodi.sourceforge.net/DTD/sodipodi-0.dtd"
   xmlns:inkscape="http://www.inkscape.org/namespaces/inkscape"
   version="1.1"
   id="Calque_1"
   x="0px"
   y="0px"
   width="45.702"
   height="45.702"
   viewBox="0 0 45.701999 45.701999"
   enable-background="new 0 0 45.701 45.7"
   xml:space="preserve"
   sodipodi:docname="filter_other2.svg"
   inkscape:version="0.92.4 (5da689c313, 2019-01-14)"><metadata
   id="metadata15"><rdf:RDF><cc:Work
       rdf:about=""><dc:format>image/svg+xml</dc:format><dc:type
         rdf:resource="http://purl.org/dc/dcmitype/StillImage" /><dc:title /></cc:Work></rdf:RDF></metadata><defs
   id="defs13" /><sodipodi:namedview
   pagecolor="#ffffff"
   bordercolor="#666666"
   borderopacity="1"
   objecttolerance="10"
   gridtolerance="10"
   guidetolerance="10"
   inkscape:pageopacity="0"
   inkscape:pageshadow="2"
   inkscape:window-width="1920"
   inkscape:window-height="1017"
   id="namedview11"
   showgrid="false"
   inkscape:zoom="3.5"
   inkscape:cx="-111.3012"
   inkscape:cy="48.038415"
   inkscape:window-x="1912"
   inkscape:window-y="-8"
   inkscape:window-maximized="1"
   inkscape:current-layer="Calque_1"
   fit-margin-top="0"
   fit-margin-left="0"
   fit-margin-right="0"
   fit-margin-bottom="0" />

<g
   inkscape:export-ydpi="525.14111"
   inkscape:export-xdpi="525.14111"
   style="stroke-width:2.9369638"
   transform="matrix(0.34048767,0,0,0.34048767,95.44623,62.402738)"
   id="g923" /><g
   id="g851"><g
     inkscape:export-ydpi="525.14111"
     inkscape:export-xdpi="525.14111"
     id="g8">
	<path
   style="fill:#ffffff"
   inkscape:connector-curvature="0"
   id="path2"
   d="M 45.201,22.851 C 45.201,35.194 35.193,45.2 22.85,45.2 10.507,45.2 0.5,35.194 0.5,22.851 0.5,10.505 10.507,0.5 22.851,0.5 c 12.342,0 22.35,10.005 22.35,22.351" />
	<circle
   style="fill:none;stroke:#4e956c;stroke-miterlimit:10;stroke-opacity:1"
   id="circle4"
   r="22.351"
   cy="22.851"
   cx="22.851"
   stroke-miterlimit="10" />
	
</g><g
     id="g1209"
     transform="matrix(1.2000002,0,0,1.2000002,376.58143,115.51561)"
     style="stroke-width:0.83333319"
     inkscape:export-xdpi="525.14111"
     inkscape:export-ydpi="525.14111"><path
       style="fill:#71aa8a;fill-opacity:1;stroke-width:0.83333319"
       d="m -303.55658,-73.464583 c -0.10231,-0.102315 -0.0933,-0.218222 0.0296,-0.379159 0.32612,-0.427231 0.38694,-0.872885 0.18063,-1.323524 -0.21297,-0.465185 -0.77017,-0.754863 -1.27357,-0.662107 -0.28111,0.0518 -0.48553,0.17154 -0.81444,0.477075 -0.44689,0.41513 -0.75677,0.552035 -1.24951,0.552035 -0.74155,0 -1.35246,-0.449022 -1.59597,-1.173051 -0.0807,-0.23983 -0.0761,-0.711723 0.009,-0.983648 0.10317,-0.327915 0.26309,-0.538967 0.88789,-1.171834 l 0.57905,-0.586526 -0.15984,-0.219947 c -0.28149,-0.387326 -0.50378,-0.940953 -0.5532,-1.377737 -0.0256,-0.226298 -0.0444,-0.235208 -0.49705,-0.235208 -0.30603,0 -0.33924,-0.0054 -0.39399,-0.06418 -0.0799,-0.0858 -0.0754,-0.18677 0.0122,-0.274403 0.0691,-0.06906 0.0875,-0.07198 0.45399,-0.07198 0.43618,0 0.38172,0.04154 0.44222,-0.337253 0.0653,-0.408831 0.27991,-0.916574 0.53302,-1.26103 0.0711,-0.09678 0.14018,-0.193854 0.15349,-0.215727 0.017,-0.02801 -0.0564,-0.120673 -0.24828,-0.313385 -0.29398,-0.295204 -0.33281,-0.385896 -0.21906,-0.511592 0.10942,-0.120902 0.206,-0.08148 0.50203,0.204905 0.15006,0.145165 0.28368,0.263937 0.29693,0.263937 0.0133,0 0.35291,-0.329793 0.75481,-0.732873 l 0.73073,-0.732871 -0.26962,-0.274935 c -0.23561,-0.240257 -0.26962,-0.287806 -0.26962,-0.376981 0,-0.126749 0.0742,-0.199117 0.20421,-0.199117 0.0828,0 0.13723,0.03949 0.37189,0.269619 l 0.27493,0.269619 0.73288,-0.730729 c 0.40308,-0.4019 0.73275,-0.737677 0.73261,-0.746171 -1.5e-4,-0.0085 -0.11891,-0.137538 -0.26393,-0.286766 -0.22534,-0.231868 -0.26368,-0.285582 -0.26368,-0.369365 0,-0.158001 0.15185,-0.25423 0.28778,-0.182371 0.0434,0.02291 0.18406,0.148184 0.31271,0.278392 0.12866,0.130208 0.24112,0.236742 0.24991,0.236742 0.009,0 0.10371,-0.06396 0.21093,-0.142134 0.40396,-0.294497 0.90746,-0.504857 1.36426,-0.569985 l 0.25776,-0.03675 0.0146,-0.395381 c 0.0103,-0.275636 0.0275,-0.414795 0.0572,-0.459483 0.0765,-0.11532 0.21397,-0.113528 0.30072,0.0039 0.0405,0.05482 0.0508,0.140675 0.0543,0.451495 0.005,0.428733 -0.0143,0.395511 0.24757,0.428954 0.48157,0.0615 1.00458,0.28314 1.44615,0.612843 l 0.15578,0.116323 0.25478,-0.252656 c 0.14013,-0.138961 0.29112,-0.266231 0.33554,-0.282821 0.10618,-0.03966 0.21227,0.0083 0.25697,0.116248 0.0468,0.112955 0.0129,0.168891 -0.28677,0.473137 l -0.2505,0.254334 0.14972,0.201954 c 0.28267,0.381311 0.4914,0.869569 0.56323,1.317541 0.0587,0.366262 0.004,0.326022 0.44683,0.329991 0.37746,0.0034 0.39069,0.0057 0.45476,0.078 0.0853,0.09628 0.0835,0.173707 -0.006,0.263197 -0.0691,0.06906 -0.0875,0.07198 -0.454,0.07198 -0.43617,0 -0.38171,-0.04154 -0.44221,0.337252 -0.0656,0.410513 -0.26702,0.890917 -0.52075,1.241857 -0.0763,0.105489 -0.15008,0.210576 -0.16403,0.233527 -0.0186,0.03057 0.0474,0.114796 0.24683,0.315051 0.22416,0.225101 0.27219,0.289109 0.27219,0.362796 0,0.122224 -0.0838,0.207535 -0.20384,0.207535 -0.0823,0 -0.13969,-0.04083 -0.37833,-0.268973 l -0.28135,-0.268974 -0.73755,0.73755 -0.73755,0.73755 0.26997,0.275293 c 0.23594,0.240597 0.26997,0.288156 0.26997,0.377341 0,0.126749 -0.0742,0.199116 -0.20421,0.199116 -0.0828,0 -0.13722,-0.03949 -0.37189,-0.269619 l -0.27493,-0.269618 -0.73287,0.730728 c -0.40308,0.401901 -0.73287,0.741569 -0.73287,0.754819 0,0.01325 0.11877,0.146863 0.26393,0.296918 0.21616,0.223439 0.26394,0.289177 0.26394,0.363134 0,0.117873 -0.12491,0.223386 -0.23334,0.197108 -0.041,-0.0099 -0.19513,-0.137571 -0.34245,-0.28362 -0.19607,-0.194362 -0.27906,-0.258747 -0.3096,-0.240187 -0.0229,0.01394 -0.12806,0.08778 -0.23359,0.164075 -0.367,0.265342 -0.90177,0.482682 -1.31511,0.534479 -0.28535,0.03576 -0.26393,9e-4 -0.26393,0.429848 0,0.36499 -0.003,0.38355 -0.072,0.452581 -0.0876,0.08763 -0.18861,0.09212 -0.27441,0.01219 -0.0591,-0.05507 -0.0644,-0.08925 -0.0676,-0.432563 -0.002,-0.205022 -0.002,-0.381861 -5e-4,-0.392975 0.004,-0.02658 -0.0635,-0.04448 -0.25987,-0.06908 -0.42661,-0.05346 -0.96747,-0.27359 -1.3528,-0.550589 l -0.22374,-0.160835 -0.60296,0.605639 c -0.5305,0.532864 -0.61435,0.630037 -0.69785,0.808678 -0.45051,0.963877 0.48836,1.982821 1.49901,1.626866 0.16884,-0.05946 0.32405,-0.170293 0.57483,-0.410442 0.13067,-0.125128 0.30159,-0.268096 0.37981,-0.317706 0.57715,-0.366015 1.33674,-0.333187 1.88739,0.08157 0.70863,0.533752 0.87465,1.520574 0.38035,2.2608 -0.21235,0.317998 -0.36834,0.395014 -0.51103,0.25232 z"
       id="path1279"
       inkscape:connector-curvature="0" /></g><path
     style="stroke-width:2.9369638;fill:#71aa8a;fill-opacity:1"
     d="m -219.65942,-62.906076 c -0.17456,-0.0228 -0.31738,-0.0738 -0.31738,-0.11335 0,-0.0395 -0.14774,-0.12528 -0.3283,-0.19057 -0.41948,-0.15168 -0.97959,-0.69522 -1.25717,-1.21996 -0.16797,-0.31752 -0.21672,-0.57412 -0.21697,-1.14197 -3.9e-4,-0.85511 0.0753,-1.02629 0.9896,-2.23843 l 0.62479,-0.82832 -0.028,-0.77536 -0.0281,-0.77536 -1.17188,-0.37755 c -0.64453,-0.20766 -1.75328,-0.66286 -2.46388,-1.01158 -0.7106,-0.34871 -1.34931,-0.63402 -1.41935,-0.63402 -0.07,0 -0.35515,0.23071 -0.63357,0.51269 l -0.50623,0.5127 -0.15527,1.07422 c -0.24716,1.7099 -0.74093,2.46823 -1.85409,2.84753 -0.5546,0.18897 -1.40765,0.14073 -1.95198,-0.11039 -0.53511,-0.24687 -5.71294,-5.42469 -5.9598,-5.9598 -0.25368,-0.54989 -0.29846,-1.38906 -0.10517,-1.97102 0.3628,-1.09226 1.1263,-1.58701 2.82892,-1.83312 0.71015,-0.10264 1.15148,-0.21789 1.33507,-0.34862 0.36136,-0.2573 0.77793,-0.75788 0.77793,-0.93479 0,-0.0775 -0.28531,-0.72234 -0.63402,-1.43294 -0.34872,-0.7106 -0.80393,-1.81935 -1.01158,-2.46388 l -0.37755,-1.17188 -0.77065,-0.0279 -0.77065,-0.0279 -0.78125,0.59955 c -1.17055,0.8983 -1.43297,1.01428 -2.29493,1.01428 -0.56828,0 -0.8242,-0.0486 -1.14196,-0.21664 -0.50732,-0.26836 -1.0436,-0.81053 -1.21082,-1.22411 -0.0695,-0.17189 -0.1728,-0.34389 -0.22956,-0.38221 -0.14379,-0.0971 -0.14379,-8.06433 0,-8.16142 0.0568,-0.0383 0.16006,-0.21032 0.22956,-0.38221 0.16722,-0.41358 0.7035,-0.95575 1.21082,-1.22411 0.31776,-0.1681 0.57368,-0.21665 1.14196,-0.21665 0.86196,0 1.12438,0.11599 2.29493,1.01429 l 0.78125,0.59955 0.77065,-0.0279 0.77065,-0.0279 0.37755,-1.17188 c 0.20765,-0.64453 0.66286,-1.75328 1.01158,-2.46388 0.34871,-0.71061 0.63402,-1.35543 0.63402,-1.43294 0,-0.17692 -0.41657,-0.67749 -0.77793,-0.9348 -0.18359,-0.13073 -0.62492,-0.24597 -1.33507,-0.34862 -1.70262,-0.2461 -2.46612,-0.74085 -2.82892,-1.833114 -0.19329,-0.58196 -0.14851,-1.42112 0.10517,-1.97102 0.24686,-0.53511 5.42469,-5.71293 5.9598,-5.9598 0.54989,-0.25368 1.38906,-0.29846 1.97101,-0.10516 1.09526,0.36378 1.58686,1.12522 1.83506,2.8423 l 0.15527,1.07422 0.50623,0.5127 c 0.27842,0.28198 0.56353,0.51269 0.63357,0.51269 0.07,0 0.70875,-0.28531 1.41935,-0.63402 0.7106,-0.34871 1.81935,-0.80392 2.46388,-1.01158 l 1.17188,-0.37755 0.0281,-0.77536 0.028,-0.77536 -0.62479,-0.82832 c -0.91266,-1.20996 -0.98961,-1.38361 -0.99185,-2.23843 -0.002,-0.62831 0.0385,-0.80536 0.28237,-1.24554 0.28803,-0.51988 0.69029,-0.89619 1.19557,-1.11846 0.15285,-0.0672 0.30927,-0.1671 0.34758,-0.2219 0.0977,-0.13977 8.16384,-0.13714 8.25908,0.003 0.0383,0.0563 0.27695,0.22206 0.53025,0.36838 0.79779,0.46085 1.25046,1.27862 1.24629,2.25151 -0.003,0.64661 -0.23994,1.15736 -1.03033,2.21891 l -0.63617,0.85442 0.0287,0.74845 0.0287,0.74845 1.31836,0.43276 c 0.7251,0.23802 1.8457,0.69617 2.49023,1.01811 0.64453,0.32194 1.21732,0.58478 1.27287,0.58409 0.0556,-6.9e-4 0.32489,-0.23197 0.59853,-0.51395 l 0.49754,-0.5127 0.16587,-1.12737 c 0.19465,-1.323 0.47036,-1.92228 1.107,-2.40616 0.23053,-0.17522 0.60406,-0.36862 0.83007,-0.42978 0.61856,-0.16739 1.54563,-0.0613 2.04279,0.23375 0.53764,0.31908 5.56599,5.37716 5.7949,5.82917 0.2694,0.53195 0.30561,1.6289 0.0712,2.15652 -0.47225,1.062894 -1.11521,1.459144 -2.76755,1.705614 l -1.11711,0.16663 -0.5127,0.49693 c -0.28198,0.27331 -0.51269,0.54661 -0.51269,0.60732 0,0.0607 0.26239,0.6335 0.58308,1.27287 0.3207,0.63936 0.77005,1.73377 0.99855,2.43201 0.2285,0.69824 0.46049,1.30182 0.51554,1.34128 0.0551,0.0395 0.40266,0.0724 0.77246,0.0732 l 0.67237,0.001 0.84872,-0.63193 c 1.05587,-0.78616 1.56738,-1.02331 2.21321,-1.02608 0.97289,-0.004 1.79066,0.4485 2.2515,1.24628 0.14633,0.25331 0.3121,0.49192 0.36839,0.53024 0.16224,0.11046 0.13989,8.1928 -0.0232,8.37999 -0.069,0.0792 -0.2536,0.35088 -0.41015,0.60364 -0.62387,1.00724 -2.04232,1.43995 -3.11902,0.95148 -0.23762,-0.1078 -0.81653,-0.48228 -1.28646,-0.83218 l -0.85442,-0.63617 -0.74845,0.0286 -0.74845,0.0287 -0.42935,1.30575 c -0.23614,0.71816 -0.69372,1.83172 -1.01685,2.47456 -0.32313,0.64285 -0.58751,1.22132 -0.58751,1.28548 0,0.0642 0.23072,0.34028 0.5127,0.6136 l 0.5127,0.49693 1.11711,0.16663 c 1.65234,0.24647 2.2953,0.64272 2.76755,1.70561 0.23442,0.52762 0.19821,1.62457 -0.0712,2.15652 -0.23054,0.45521 -5.25916,5.51123 -5.80134,5.83295 -0.59385,0.35237 -1.65624,0.42325 -2.26826,0.15132 -1.0629,-0.47225 -1.45915,-1.11521 -1.70561,-2.76755 l -0.16664,-1.11711 -0.49693,-0.5127 c -0.27331,-0.28198 -0.5462,-0.51269 -0.60641,-0.51269 -0.0602,0 -0.63762,0.26403 -1.28312,0.58673 -0.6455,0.3227 -1.76229,0.78029 -2.48175,1.01685 l -1.3081,0.43012 -0.0287,0.74845 -0.0287,0.74845 0.63617,0.85443 c 0.79039,1.06154 1.02755,1.57229 1.03032,2.2189 0.004,0.96113 -0.46277,1.79919 -1.25825,2.25852 -0.24672,0.14247 -0.47991,0.30509 -0.51819,0.36138 -0.0685,0.10067 -7.25434,0.17525 -7.96262,0.0826 z"
     id="path939"
     inkscape:connector-curvature="0"
     transform="matrix(0.34048767,0,0,0.34048767,95.44623,62.402738)" /><path
     style="fill:#71aa8a;fill-opacity:1;stroke-width:1"
     d="m 30.25614,26.125839 c -0.79743,-0.193324 -1.4361,-0.881912 -1.57259,-1.695514 -0.0431,-0.256665 -0.0169,-0.622698 0.28256,-3.94098 0.18152,-2.011919 0.33944,-3.715947 0.35093,-3.786727 0.0205,-0.126853 0.0182,-0.129077 -0.17242,-0.15582 -1.21694,-0.170783 -2.75188,-0.563974 -4.02196,-1.030269 -0.61487,-0.225742 -0.81896,-0.340521 -1.08946,-0.612713 -0.56174,-0.565244 -0.70681,-1.419571 -0.36507,-2.14986 0.15159,-0.323928 0.33219,-0.524947 0.81672,-0.909083 0.63235,-0.501305 0.96046,-0.792224 1.5719,-1.393721 1.1053,-1.087322 1.7972,-1.963053 2.80618,-3.551763 0.35004,-0.551171 0.67861,-0.859661 1.17818,-1.106217 0.79613,-0.39291 1.59174,-0.39291 2.38787,0 0.49958,0.246556 0.82814,0.555046 1.17819,1.106217 1.00963,1.589724 1.72701,2.495206 2.8457,3.591843 0.57682,0.565439 0.91533,0.864469 1.53237,1.353641 0.48454,0.384136 0.66514,0.585155 0.81673,0.909083 0.34174,0.730289 0.19666,1.584616 -0.36508,2.14986 -0.27049,0.272192 -0.47459,0.386971 -1.08946,0.612713 -1.27007,0.466295 -2.80501,0.859486 -4.02196,1.030269 -0.19057,0.02674 -0.19303,0.02896 -0.17243,0.15582 0.0114,0.07079 0.16942,1.774808 0.35095,3.786727 0.29937,3.318282 0.32562,3.684315 0.28256,3.94098 -0.13814,0.823375 -0.77767,1.505646 -1.5911,1.697428 -0.33539,0.07908 -1.61042,0.07782 -1.93931,-0.0016 z M 26.00307,13.899903 c 0.20142,-0.07659 1.15919,-0.903133 1.89582,-1.636089 0.67846,-0.675081 1.52347,-1.62058 1.63225,-1.826362 0.1489,-0.281666 -0.062,-0.619068 -0.38695,-0.619068 -0.16668,0 -0.24478,0.06865 -0.75596,0.664515 -0.62425,0.727664 -1.56266,1.65684 -2.26837,2.246053 -0.31997,0.267157 -0.60046,0.520698 -0.62334,0.563423 -0.10856,0.202834 0.005,0.524019 0.21663,0.609266 0.11596,0.04685 0.16285,0.04657 0.28992,-0.0017 z"
     id="path839"
     inkscape:connector-curvature="0" /></g></svg>