<?xml version="1.0" encoding="UTF-8" standalone="no"?>
<!-- Generator: Adobe Illustrator 16.0.0, SVG Export Plug-In . SVG Version: 6.00 Build 0)  -->

<svg
   xmlns:dc="http://purl.org/dc/elements/1.1/"
   xmlns:cc="http://creativecommons.org/ns#"
   xmlns:rdf="http://www.w3.org/1999/02/22-rdf-syntax-ns#"
   xmlns:svg="http://www.w3.org/2000/svg"
   xmlns="http://www.w3.org/2000/svg"
   xmlns:sodipodi="http://sodipodi.sourceforge.net/DTD/sodipodi-0.dtd"
   xmlns:inkscape="http://www.inkscape.org/namespaces/inkscape"
   version="1.1"
   id="Calque_1"
   x="0px"
   y="0px"
   width="45.702"
   height="45.702"
   viewBox="0 0 45.701999 45.701999"
   enable-background="new 0 0 45.701 45.7"
   xml:space="preserve"
   sodipodi:docname="filter_Tunicate-active.svg"
   inkscape:version="0.92.2 (5c3e80d, 2017-08-06)"><metadata
     id="metadata15"><rdf:RDF><cc:Work
         rdf:about=""><dc:format>image/svg+xml</dc:format><dc:type
           rdf:resource="http://purl.org/dc/dcmitype/StillImage" /><dc:title></dc:title></cc:Work></rdf:RDF></metadata><defs
     id="defs13"><clipPath
       clipPathUnits="userSpaceOnUse"
       id="clipPath4558"><g
         style="fill:#ffffff;fill-opacity:1"
         id="use4560"
         inkscape:label="Clip"><path
           style="fill:#ffffff;fill-opacity:1;stroke-width:0.06050232"
           inkscape:connector-curvature="0"
           d="m 85.300212,31.19494 h -6.070557 l 0.123368,1.577786 c 0.10588,1.35563 1.253769,2.417493 2.613417,2.417493 h 6.667544 c 1.359648,0 2.507538,-1.061863 2.613417,-2.417493 l 0.123368,-1.577786 z m 0,0"
           id="path42" /><path
           style="fill:#ffffff;fill-opacity:1;stroke-width:0.06050232"
           inkscape:connector-curvature="0"
           d="m 93.948735,29.379634 c 0.440534,-0.263989 0.9047,-0.548066 1.375245,-0.845142 4.180571,-2.637759 5.00491,-3.847569 5.2611,-4.527984 0.61377,-1.628835 -0.29825,-4.157643 -0.896659,-5.520127 -0.08863,-0.201596 -0.1808,-0.402718 -0.276753,-0.602424 l -9.401256,11.495677 z m 0,0"
           id="path44" /><path
           style="fill:#ffffff;fill-opacity:1;stroke-width:0.06050232"
           inkscape:connector-curvature="0"
           d="m 98.4805,16.155151 c -0.738316,-1.229427 -1.575424,-2.334065 -2.404967,-3.152501 0,-2.43e-4 0,-2.43e-4 -2.4e-4,-4.87e-4 -0.626525,-0.617775 -1.29725,-1.175294 -2.005081,-1.670421 l -5.979803,17.528186 z m 0,0"
           id="path46" /><path
           style="fill:#ffffff;fill-opacity:1;stroke-width:0.06050232"
           inkscape:connector-curvature="0"
           d="M 92.483916,10.359691 C 90.558242,9.3354059 88.426717,8.7318003 86.207747,8.5959066 V 28.755703 Z m 0,0"
           id="path48" /><path
           style="fill:#ffffff;fill-opacity:1;stroke-width:0.06050232"
           inkscape:connector-curvature="0"
           d="m 84.392677,8.5959066 c -2.218733,0.1358937 -4.350258,0.7394993 -6.275933,1.7640204 l 6.275933,18.395776 z m 0,0"
           id="path50" /><path
           style="fill:#ffffff;fill-opacity:1;stroke-width:0.06050232"
           inkscape:connector-curvature="0"
           d="m 76.530213,11.331982 c -0.70783,0.495126 -1.378791,1.052646 -2.005321,1.670668 -0.829544,0.818436 -1.66665,1.923074 -2.405204,3.152501 l 10.390564,12.705486 z m 0,0"
           id="path52" /><path
           style="fill:#ffffff;fill-opacity:1;stroke-width:0.06050232"
           inkscape:connector-curvature="0"
           d="m 71.188756,17.883957 c -0.09572,0.199942 -0.188124,0.400828 -0.276751,0.602424 -0.598405,1.362484 -1.51043,3.891292 -0.896663,5.520127 0.256426,0.680415 1.080534,1.890225 5.261102,4.527984 0.470547,0.297076 0.934949,0.581153 1.375246,0.845142 h 3.938086 z m 0,0"
           id="path54" /></g></clipPath></defs><sodipodi:namedview
     pagecolor="#ffffff"
     bordercolor="#666666"
     borderopacity="1"
     objecttolerance="10"
     gridtolerance="10"
     guidetolerance="10"
     inkscape:pageopacity="0"
     inkscape:pageshadow="2"
     inkscape:window-width="1920"
     inkscape:window-height="1137"
     id="namedview11"
     showgrid="false"
     inkscape:zoom="5.1641137"
     inkscape:cx="-6.7770429"
     inkscape:cy="22.85"
     inkscape:window-x="1912"
     inkscape:window-y="-8"
     inkscape:window-maximized="1"
     inkscape:current-layer="g8"
     inkscape:pagecheckerboard="true"
     fit-margin-top="0"
     fit-margin-left="0"
     fit-margin-right="0"
     fit-margin-bottom="0" /><g
     id="g8"
     transform="translate(0,0.0019989)"><path
       d="m 45.2015,22.848001 c 0,12.344 -10.008,22.352 -22.35,22.352 -12.344,0 -22.35100025,-10.008 -22.35100025,-22.352 0,-12.344 10.00700025,-22.3500001 22.35200025,-22.3500001 12.341,0 22.349,10.0060001 22.349,22.3500001"
       id="path2"
       inkscape:connector-curvature="0"
       style="fill:#3f627c" /><circle
       stroke-miterlimit="10"
       cx="22.851"
       cy="22.849001"
       r="22.351"
       id="circle4"
       style="fill:none;stroke:#ffffff;stroke-miterlimit:10" /><path
       style="fill:#ffffff;fill-opacity:1;stroke-width:0.06108318"
       d="m 25.933098,38.687003 c -1.455556,-0.139496 -2.513613,-0.545665 -2.863945,-1.09942 -0.09335,-0.147547 -0.24305,-0.303045 -0.332675,-0.345549 -0.284262,-0.134808 -0.640529,-1.004645 -0.76756,-1.87402 -0.0948,-0.64881 -0.103876,-0.656513 -0.503687,-0.427765 -0.246229,0.14088 -0.381883,0.182545 -0.51054,0.156816 -0.108858,-0.02177 -0.332848,0.02025 -0.591478,0.111005 -0.653518,0.229291 -1.094579,0.29845 -1.851721,0.290356 -0.495591,-0.0052 -0.827629,-0.04299 -1.127507,-0.12798 -0.29862,-0.08464 -0.458001,-0.102839 -0.53582,-0.06119 -0.08405,0.04499 -0.20196,0.0107 -0.48883,-0.142107 -0.55222,-0.294157 -1.027818,-0.762266 -1.299235,-1.278776 -0.201986,-0.38438 -0.233747,-0.503528 -0.260832,-0.978565 l -0.03084,-0.540895 -0.610082,-0.656238 c -0.739899,-0.795872 -1.221967,-1.429893 -1.52261,-2.002549 -0.22534,-0.429224 -0.537976,-1.385356 -0.537976,-1.645289 0,-0.09128 -0.08124,-0.193865 -0.241421,-0.304872 -0.339432,-0.235227 -0.820897,-0.758631 -0.974121,-1.058973 -0.07125,-0.139651 -0.159529,-0.467483 -0.196186,-0.728518 -0.26423,-1.881575 -0.441659,-2.335939 -1.1341157,-2.904272 -0.434168,-0.356344 -0.671415,-0.654825 -0.587324,-0.738913 0.02105,-0.02106 0.109294,-0.04022 0.196083,-0.04259 0.1345,-0.0037 0.12199,-0.01741 -0.08472,-0.09308 -0.362385,-0.132664 -0.582109,-0.369999 -0.582109,-0.628769 0,-0.181402 0.05533,-0.268452 0.357384,-0.562183 0.615536,-0.59859 1.7751057,-1.048688 2.7020477,-1.048826 0.717548,-1.22e-4 1.051207,0.159742 1.210368,0.57986 0.03851,0.101662 0.09551,0.154412 0.145929,0.135064 0.04955,-0.01902 0.256492,0.160684 0.515899,0.447973 0.411722,0.455976 1.00771,0.868853 1.254185,0.868853 0.282948,0 0.456571,-1.303475 0.353928,-2.657117 -0.04866,-0.641775 -0.04469,-0.805916 0.02071,-0.85579 0.0661,-0.05041 0.06008,-0.10056 -0.03289,-0.27392 -0.0626,-0.116719 -0.113813,-0.258636 -0.113813,-0.315376 0,-0.296953 0.703595,-0.742327 1.465997,-0.927971 1.746329,-0.425226 3.843151,-0.174932 4.355053,0.519856 0.121802,0.165323 0.118845,0.201523 -0.05074,0.620848 -0.03519,0.08701 -0.02,0.107121 0.06926,0.09163 0.08754,-0.01519 0.127793,0.03381 0.171745,0.20909 0.05012,0.199889 0.02011,0.335547 -0.236457,1.068956 -0.586336,1.676029 -0.717652,2.18744 -0.748976,2.916841 -0.03348,0.779626 -0.02862,0.796044 0.731753,2.473866 0.251217,0.55433 0.473005,1.076591 0.492861,1.16058 0.01985,0.08399 0.131896,0.517525 0.248975,0.96341 0.117079,0.445884 0.257172,1.174299 0.311318,1.618704 0.123859,1.016606 0.281796,1.559594 0.582377,2.002217 0.251209,0.369923 0.3792,0.462433 0.476637,0.344505 0.152284,-0.184303 0.392204,-1.798127 0.496645,-3.340672 0.239257,-3.533729 0.364312,-4.310112 1.283956,-7.971355 0.555728,-2.212438 0.652359,-2.902213 0.549887,-3.925284 -0.09706,-0.969042 -0.304216,-1.913781 -0.860411,-3.923903 C 23.79013,10.131831 23.748558,9.9347439 23.745,9.4024629 c -0.0029,-0.426553 0.02554,-0.653112 0.107164,-0.855164 0.06107,-0.151182 0.11513,-0.389539 0.120128,-0.529686 0.0109,-0.305336 0.140336,-0.466076 0.537568,-0.667516 0.461932,-0.23425 1.28539,-0.352565 2.43112,-0.349302 2.150665,0.0062 3.350076,0.451858 2.996026,1.11341 -0.04197,0.07843 -0.02078,0.183438 0.07625,0.377754 0.122243,0.244825 0.138077,0.396001 0.175327,1.6740431 0.04912,1.685352 0.132283,2.688458 0.289637,3.493578 0.134619,0.688806 0.217957,0.934952 0.31655,0.934952 0.09437,0 0.500665,-0.447115 0.764727,-0.841556 0.118687,-0.177292 0.361814,-0.633109 0.540279,-1.012924 0.178465,-0.379815 0.413803,-0.792305 0.522975,-0.916644 0.109169,-0.124338 0.216493,-0.314088 0.238494,-0.421667 0.05784,-0.282768 0.364553,-0.472448 0.76211,-0.471295 0.876813,0.0026 2.795487,0.700263 3.333773,1.212325 0.275375,0.261956 0.328015,0.537083 0.138935,0.726162 -0.08318,0.08318 -0.106894,0.210595 -0.106894,0.574285 0,0.460493 -0.0069,0.481223 -0.469055,1.404914 -0.740039,1.47915 -0.774224,1.652789 -0.840015,4.266556 -0.05465,2.17102 -0.08145,2.356565 -0.454546,3.145783 -0.111172,0.235169 -0.342723,0.602353 -0.51455,0.815964 l -0.312416,0.388382 0.0046,0.833282 c 0.0066,1.192459 -0.08213,1.93635 -0.376248,3.153017 -0.1606,0.664358 -0.592354,1.916727 -0.946704,2.746085 -0.490589,1.148221 -0.750106,1.817193 -0.925725,2.386325 -0.156138,0.505997 -0.168651,0.620241 -0.157233,1.435456 0.01438,1.02629 -0.05528,1.61865 -0.265744,2.260077 -0.200819,0.612027 -0.392776,0.941951 -0.562227,0.966309 -0.07468,0.01074 -0.135787,0.04673 -0.135787,0.08001 0,0.148112 -0.660091,0.751279 -0.97733,0.89305 -0.681297,0.304464 -1.514493,0.44709 -2.748741,0.470536 -0.621523,0.0118 -1.239989,0.01091 -1.374373,-0.0019 z m 2.351701,-0.921629 c 0.117586,-0.0189 0.470547,-0.0983 0.784358,-0.176439 0.890422,-0.221715 1.496365,-0.707166 1.665816,-1.334571 0.110578,-0.409419 0.03172,-1.155129 -0.191128,-1.807426 -0.194529,-0.5694 -0.198087,-0.599495 -0.196396,-1.661355 0.0021,-1.269264 -0.01977,-1.337322 -0.390735,-1.220022 -0.130053,0.04112 -0.442617,0.17704 -0.694584,0.302032 l -0.458125,0.22726 0.0151,0.944914 c 0.01379,0.862487 0.03453,1.019672 0.237826,1.801954 0.304457,1.171556 0.305082,1.158004 -0.05457,1.181077 -0.183946,0.0118 -0.337398,-0.01436 -0.418856,-0.07142 -0.120182,-0.08418 -0.112215,-0.08785 0.122324,-0.0564 0.219156,0.02939 0.250879,0.01865 0.250879,-0.08488 0,-0.0652 -0.03862,-0.171355 -0.08583,-0.235912 -0.08299,-0.113492 -0.09329,-0.113818 -0.311259,-0.0099 -0.160757,0.07666 -0.214796,0.135224 -0.188355,0.20413 0.0282,0.07347 0.01129,0.08617 -0.07051,0.053 -0.05917,-0.02399 -0.474468,-0.05854 -0.922876,-0.07678 -0.777187,-0.0316 -0.804302,-0.03697 -0.58029,-0.114965 0.129248,-0.045 0.372436,-0.08238 0.540413,-0.08308 0.167981,-6.63e-4 0.415367,-0.03006 0.549749,-0.06524 0.276369,-0.07237 0.83218,-0.350104 0.900043,-0.449738 0.07718,-0.113329 0.0513,-0.306003 -0.07419,-0.552139 -0.09299,-0.182394 -0.104716,-0.256747 -0.05075,-0.321779 0.110379,-0.133 0.07435,-0.68197 -0.05408,-0.823996 -0.06375,-0.0705 -0.110201,-0.215681 -0.110201,-0.344425 v -0.22252 l -0.610833,-0.03691 c -0.721257,-0.04359 -1.031159,-0.118807 -1.526724,-0.370563 -0.485844,-0.24682 -0.660541,-0.373087 -1.1153,-0.806136 -0.279924,-0.266559 -0.429797,-0.365157 -0.561092,-0.36913 -0.158219,-0.0048 -0.183608,0.01956 -0.217308,0.208372 -0.04477,0.250852 -0.167478,0.62822 -0.218484,0.671915 -0.05947,0.05094 -0.239874,0.441373 -0.239874,0.519124 0,0.04002 -0.05497,0.122523 -0.122167,0.183331 -0.06719,0.06081 -0.122164,0.148498 -0.122164,0.194866 0,0.04637 -0.03837,0.145188 -0.08527,0.219596 -0.04689,0.07441 -0.105835,0.203792 -0.130977,0.287516 -0.03982,0.132622 -0.03354,0.142126 0.0488,0.07379 0.05199,-0.04314 0.173733,-0.101161 0.270556,-0.128927 0.162428,-0.04658 0.151549,-0.02541 -0.140724,0.273959 -0.427325,0.437693 -0.543936,0.780493 -0.538702,1.583614 0.0053,0.808103 0.15592,1.211621 0.622393,1.667043 0.408872,0.399187 0.696461,0.581942 1.053414,0.669416 0.306017,0.07499 1.149782,0.190895 1.618704,0.22235 0.364987,0.02447 1.501166,-0.01626 1.801952,-0.06461 z m -3.076411,-2.066991 c -0.09623,-0.05019 -0.243974,-0.09125 -0.328323,-0.09125 -0.139187,0 -0.149832,-0.01763 -0.115184,-0.190883 0.02099,-0.104988 0.03818,-0.284269 0.03818,-0.398407 0,-0.471494 0.870504,-1.081611 1.688368,-1.183338 0.510376,-0.06348 1.145536,-0.01173 1.289901,0.105099 0.09349,0.07566 0.06186,0.08198 -0.260068,0.05197 -0.616796,-0.0575 -0.808004,-0.05511 -0.987804,0.01231 -0.09503,0.03564 -0.361235,0.115454 -0.591577,0.177376 -0.347324,0.09337 -0.450347,0.152313 -0.60363,0.345357 -0.168047,0.211635 -0.181453,0.261263 -0.147659,0.546608 0.04629,0.390812 0.174287,0.524977 0.598841,0.627682 l 0.326918,0.07909 -0.366499,0.0048 c -0.215345,0.0029 -0.438661,-0.03281 -0.541461,-0.08643 z m 5.819119,-1.340333 c 0.194886,-0.10078 0.527827,-0.459729 0.579911,-0.625209 0.0192,-0.061 0.07404,-0.335798 0.121873,-0.610665 0.04783,-0.274864 0.292644,-1.126975 0.544026,-1.893578 0.251382,-0.766603 0.529967,-1.737416 0.619079,-2.157364 0.08911,-0.419947 0.188673,-0.863992 0.221243,-0.98677 0.06801,-0.256342 -0.01055,-0.540308 -0.14947,-0.540308 -0.04847,0 -0.127092,-0.01494 -0.174695,-0.03321 -0.04761,-0.01826 -0.147547,0.01618 -0.222094,0.07654 -0.118943,0.09631 -0.172399,0.326668 -0.436474,1.880971 -0.331267,1.949763 -0.674305,3.43352 -0.877616,3.795968 -0.07736,0.137911 -0.238305,0.293738 -0.389573,0.377183 -0.219699,0.121192 -0.257758,0.17107 -0.257758,0.337809 0,0.172992 0.138711,0.46714 0.220287,0.46714 0.01656,0 0.10713,-0.03982 0.201261,-0.08851 z M 19.02535,34.232816 c 0.831262,-0.1761 1.37012,-0.530089 1.814774,-1.192165 0.282325,-0.42037 0.258001,-0.450652 -0.328159,-0.408496 -0.277163,0.01992 -0.682602,0.07734 -0.900977,0.127577 -0.218372,0.05023 -0.740631,0.13751 -1.160578,0.193945 -0.651082,0.0875 -0.795028,0.12722 -0.977331,0.269723 -0.117585,0.09191 -0.330612,0.240141 -0.473395,0.329401 -0.142781,0.08926 -0.259604,0.189777 -0.259604,0.223374 0,0.07867 0.6132,0.358209 1.007873,0.459466 0.410281,0.105261 0.770961,0.104463 1.277397,-0.0028 z m -2.58946,-0.734528 c 0.08255,-0.09947 0.04942,-0.167175 -0.09195,-0.187923 -0.110432,-0.01622 -0.237946,0.132899 -0.185802,0.217266 0.05697,0.09218 0.18842,0.0783 0.277752,-0.02935 z m 14.588839,-1.27128 c 0.201944,-0.826407 0.398771,-1.869926 0.360015,-1.908682 -0.01201,-0.01201 -0.119436,0.149152 -0.238725,0.358139 -0.138667,0.242933 -0.255637,0.567228 -0.324315,0.89918 -0.05908,0.285564 -0.130602,0.629156 -0.158927,0.763539 -0.02832,0.134383 -0.05208,0.409259 -0.0528,0.61083 -0.0013,0.364853 -0.0011,0.365857 0.108483,0.223782 0.06039,-0.07849 0.198201,-0.504553 0.306267,-0.946788 z m -10.863992,0.204593 c 0.945277,-0.07979 1.257869,-0.151013 1.51181,-0.344451 0.217311,-0.165536 0.260282,-0.379932 0.106895,-0.53332 -0.0504,-0.0504 -0.09163,-0.133855 -0.09163,-0.185466 0,-0.21942 -0.412268,-0.283886 -0.758781,-0.118643 -0.286064,0.136412 -0.331871,0.264841 -0.09447,0.264841 0.478172,0 -0.05253,0.246549 -1.131954,0.525876 -0.498612,0.129026 -0.807219,0.16452 -1.679788,0.193188 -1.029462,0.03383 -1.058801,0.03826 -0.79408,0.12015 0.675015,0.208803 1.211598,0.223044 2.93199,0.07782 z m 3.306246,-0.107685 c 0.245011,-0.625355 0.580807,-2.385511 0.427776,-2.242292 -0.03738,0.03498 -0.09301,0.18616 -0.123631,0.335955 -0.03062,0.149797 -0.113325,0.429726 -0.183785,0.622062 -0.07046,0.192338 -0.128115,0.391992 -0.128115,0.443684 0,0.05169 -0.0238,0.141707 -0.0529,0.200045 -0.158275,0.317378 -0.196972,0.808522 -0.0637,0.808522 0.03219,0 0.08815,-0.07559 0.124351,-0.167976 z m -7.582066,-0.507055 c 0,-0.08204 -0.407496,-0.254111 -0.540472,-0.228219 -0.06329,0.01233 0.0016,0.06936 0.173974,0.152988 0.316398,0.153487 0.366498,0.16377 0.366498,0.07523 z m 11.78905,-0.913131 c 0,-0.0336 -0.01212,-0.06108 -0.02694,-0.06108 -0.01482,0 -0.04392,0.02748 -0.06468,0.06108 -0.02075,0.0336 -0.0086,0.06109 0.02693,0.06109 0.03558,0 0.06468,-0.02749 0.06468,-0.06109 z m 0.916247,-0.04886 c 0,-0.06047 -0.03436,-0.144989 -0.07635,-0.187811 -0.10578,-0.107865 0.235084,-0.390117 0.418098,-0.346208 0.113957,0.02735 0.126456,0.0061 0.114269,-0.194686 -0.0075,-0.123963 -0.04449,-0.235655 -0.08214,-0.248205 -0.145757,-0.04859 -0.05713,-0.120238 0.189663,-0.15334 0.147832,-0.01983 0.292009,-0.0065 0.337433,0.0312 0.111047,0.09216 0.159247,0.02142 0.112448,-0.165033 -0.0262,-0.104391 -0.06499,-0.142145 -0.11423,-0.111196 -0.111385,0.06999 -0.471605,0.08203 -0.471605,0.01573 0,-0.03169 -0.04123,-0.05761 -0.09162,-0.05761 -0.0504,0 -0.09162,-0.03644 -0.09162,-0.08098 0,-0.10922 -0.236439,-0.323908 -0.442854,-0.402109 -0.174848,-0.06624 -0.237736,-0.296268 -0.09162,-0.335147 0.495138,-0.13175 0.605328,-0.140606 0.690441,-0.05549 0.0486,0.04861 0.08837,0.06034 0.08837,0.02607 0,-0.03427 0.06838,-0.136083 0.151953,-0.226261 0.128013,-0.138131 0.166916,-0.151545 0.24692,-0.08514 0.07726,0.06412 0.108728,0.06421 0.168734,4.24e-4 0.05769,-0.06127 0.05712,-0.08445 -0.0026,-0.106343 -0.042,-0.0154 -0.07635,-0.09443 -0.07635,-0.175611 0,-0.12443 0.02982,-0.147622 0.189786,-0.147622 0.14176,0 0.181076,-0.0227 0.155375,-0.08967 -0.04923,-0.128276 0.08744,-0.191593 0.154582,-0.07161 0.07942,0.141918 0.25146,0.131626 0.205779,-0.01231 -0.02429,-0.07654 0.03421,-0.18664 0.18295,-0.344357 0.154351,-0.163659 0.199573,-0.250933 0.153759,-0.296746 -0.107894,-0.107897 -0.07887,-0.296496 0.042,-0.27283 0.122347,0.02396 0.259603,-0.194463 0.259603,-0.413121 0,-0.07856 0.03153,-0.212049 0.07006,-0.296625 0.04781,-0.104941 0.05036,-0.178596 0.008,-0.231937 -0.03412,-0.04299 -0.06389,-0.170528 -0.06617,-0.283419 -0.0031,-0.153694 0.02557,-0.213027 0.114126,-0.236185 0.06505,-0.01704 0.118273,-0.06994 0.118273,-0.117598 0,-0.159268 0.195118,-0.387767 0.331114,-0.387767 0.0736,0 0.22696,-0.06872 0.340803,-0.152708 0.113838,-0.08399 0.254996,-0.152708 0.313676,-0.152708 0.147364,0 0.19108,-0.09309 0.144118,-0.306906 -0.04112,-0.187246 -0.152381,-0.253054 -0.152381,-0.09014 0,0.05039 -0.04123,0.09162 -0.09162,0.09162 -0.05039,0 -0.09163,-0.02657 -0.09163,-0.05905 0,-0.03248 -0.101154,-0.160202 -0.224789,-0.283837 l -0.22479,-0.224792 0.154914,-0.128475 c 0.0852,-0.07066 0.205444,-0.157993 0.267201,-0.194067 0.100811,-0.05889 0.103972,-0.08566 0.03093,-0.261998 -0.0712,-0.171872 -0.06883,-0.205638 0.01888,-0.270364 0.05513,-0.04068 0.125954,-0.164113 0.157369,-0.274301 0.04823,-0.169157 0.03869,-0.211848 -0.06131,-0.274296 -0.08905,-0.05561 -0.118425,-0.143044 -0.118425,-0.352462 0,-0.153179 0.02974,-0.308252 0.0661,-0.344604 0.04741,-0.04741 0.04362,-0.102093 -0.0134,-0.193403 -0.07011,-0.112263 -0.05987,-0.147793 0.08661,-0.300688 0.198544,-0.207239 0.202881,-0.234463 0.04395,-0.276026 -0.06885,-0.018 -0.122167,-0.08332 -0.122167,-0.149649 0,-0.185948 0.07822,-0.216219 0.186789,-0.07229 0.0839,0.111231 0.105673,0.117169 0.136364,0.03719 0.02009,-0.05234 -0.01692,-0.163109 -0.08223,-0.246143 -0.06532,-0.08303 -0.118755,-0.180993 -0.118755,-0.217689 0,-0.0367 -0.05498,-0.06671 -0.122167,-0.06671 -0.06719,0 -0.122165,-0.02749 -0.122165,-0.06109 0,-0.0336 0.04123,-0.06108 0.09163,-0.06108 0.163892,0 0.06306,-0.392271 -0.130192,-0.506471 -0.045,-0.02659 -0.07782,-0.109055 -0.07295,-0.183249 0.0049,-0.07419 -0.07799,-0.390727 -0.184142,-0.7034 -0.375711,-1.106637 -0.206879,-0.871977 0.56705,0.788152 0.181614,0.389579 0.38999,0.911838 0.463057,1.160582 0.144686,0.492559 0.208856,0.568657 0.780542,0.925653 0.385181,0.240529 0.469799,0.267479 0.530662,0.169005 0.07234,-0.117046 0.224497,-1.019724 0.303918,-1.802981 0.09015,-0.889028 0.28215,-2.017403 0.466413,-2.741028 0.140987,-0.553677 0.701699,-2.255048 0.817846,-2.481581 0.04926,-0.09608 0.07403,-0.350949 0.06679,-0.687322 -0.01098,-0.509622 -0.0037,-0.542088 0.155388,-0.694501 0.143263,-0.137254 0.158246,-0.182618 0.105846,-0.320442 -0.03357,-0.0883 -0.106138,-0.210383 -0.161256,-0.271288 -0.0868,-0.09591 -0.08828,-0.118285 -0.01102,-0.167156 0.04905,-0.03103 0.133932,-0.05684 0.188612,-0.05736 0.05468,-4.66e-4 0.134569,-0.04329 0.177535,-0.09506 0.06575,-0.07922 0.04516,-0.128812 -0.129957,-0.313112 -0.411568,-0.433143 -1.493697,-0.768327 -1.787328,-0.55362 -0.09775,0.07148 -0.09871,0.09514 -0.01222,0.302149 0.118556,0.283746 0.06728,0.322751 -0.424273,0.322751 h -0.3665 l -0.0199,0.208663 c -0.01892,0.198436 -0.257229,0.590115 -0.423303,0.695748 -0.04259,0.02708 -0.148884,0.192008 -0.23622,0.366499 -0.278295,0.556015 -0.818125,1.321047 -1.282736,1.817859 -0.247845,0.26502 -0.450628,0.533225 -0.450628,0.596009 0,0.06278 -0.04434,0.203037 -0.09854,0.311673 -0.08216,0.164705 -0.123415,0.191279 -0.248285,0.15994 -0.11716,-0.02941 -0.195412,0.0081 -0.359585,0.172252 -0.115412,0.11541 -0.20984,0.191653 -0.20984,0.169429 0,-0.02223 0.06719,-0.301223 0.149311,-0.619995 l 0.149379,-0.579576 -0.136985,-0.122167 c -0.162108,-0.144574 -0.283804,-0.406185 -0.283804,-0.610101 0,-0.08043 -0.02438,-0.161297 -0.05418,-0.179715 -0.05645,-0.03489 -0.335003,-1.145228 -0.407155,-1.622969 -0.05578,-0.369358 -0.127108,-0.488666 -0.292133,-0.488666 -0.174618,0 -0.284943,-0.10826 -0.284943,-0.279613 0,-0.07316 -0.04256,-0.168335 -0.09459,-0.211511 -0.08303,-0.06891 -0.06318,-0.110497 0.162359,-0.34031 0.141319,-0.143995 0.325421,-0.270089 0.409114,-0.280206 0.322502,-0.03899 0.341957,-0.415438 0.02147,-0.415438 -0.168123,0 -0.178923,-0.01588 -0.206599,-0.303917 -0.01801,-0.187521 -0.09117,-0.397558 -0.191021,-0.5484371 -0.166447,-0.251518 -0.208313,-0.430392 -0.100735,-0.430392 0.0336,0 0.06109,-0.02749 0.06109,-0.06109 0,-0.0336 -0.04972,-0.06108 -0.110493,-0.06108 -0.06077,0 -0.163847,-0.03919 -0.229062,-0.08709 -0.11546,-0.0848 -0.114034,-0.09184 0.05443,-0.268193 0.164685,-0.172393 0.168633,-0.189554 0.08212,-0.356862 -0.04999,-0.09667 -0.0777,-0.24475 -0.06158,-0.329076 0.03976,-0.208005 -0.154237,-0.375911 -0.43433,-0.375911 -0.26282,0 -0.340056,-0.08954 -0.142144,-0.164785 0.07899,-0.03003 0.178692,-0.09686 0.221555,-0.148507 0.208728,-0.251501 -0.752361,-0.429468 -1.823824,-0.337721 -0.719675,0.06162 -1.032703,0.280984 -0.610831,0.428048 0.252089,0.08788 0.229769,0.173684 -0.04582,0.176129 -0.359202,0.0032 -0.474648,0.143403 -0.484008,0.587853 -0.0072,0.339859 0.009,0.392353 0.168209,0.544836 0.13215,0.126609 0.159725,0.188508 0.11043,0.247904 -0.05992,0.0722 -0.107609,0.445332 -0.127747,0.9996191 -0.0042,0.117585 0.01442,0.385587 0.04157,0.595562 0.05195,0.401974 0.02207,0.449045 -0.185448,0.292086 -0.165503,-0.125178 -0.210196,-0.115202 -0.210196,0.04693 0,0.195317 0.113129,0.296226 0.249983,0.222984 0.07103,-0.03801 0.122528,-0.03667 0.147572,0.0038 0.02115,0.03424 0.0646,0.0461 0.09652,0.02636 0.03193,-0.01974 0.153937,-0.0042 0.271124,0.03444 0.243117,0.08024 0.366155,0.248573 0.259579,0.35515 -0.05128,0.05128 -0.04439,0.09683 0.02682,0.177337 0.0527,0.05959 0.114572,0.248801 0.137497,0.420477 0.04153,0.310973 0.04098,0.312281 -0.144496,0.349376 -0.241525,0.04831 -0.289312,0.233898 -0.188241,0.731087 0.04236,0.208344 0.08389,0.672049 0.09229,1.030452 0.0084,0.358405 0.03819,0.688254 0.06616,0.732998 0.02798,0.04475 0.06169,0.721272 0.07491,1.503391 0.02297,1.359226 0.02912,1.420426 0.139074,1.385526 0.144101,-0.04574 0.160716,0.161647 0.02391,0.298454 -0.06719,0.06719 -0.08108,0.164371 -0.0529,0.37001 0.02497,0.182146 0.01233,0.310096 -0.03645,0.368861 -0.09081,0.109421 -0.03106,0.437552 0.08799,0.483238 0.0669,0.02567 0.06989,0.07567 0.01519,0.253918 -0.05343,0.174096 -0.05103,0.232509 0.01112,0.270921 0.09685,0.05986 0.03552,0.411314 -0.0983,0.563199 -0.0796,0.09036 -0.07651,0.11521 0.02728,0.218996 0.111787,0.111787 0.112916,0.138529 0.02497,0.592717 -0.0902,0.46586 -0.06608,0.810572 0.08056,1.151562 0.0359,0.08348 0.0157,0.118869 -0.08256,0.144561 -0.159436,0.04169 -0.160077,0.06148 -0.01,0.307702 0.146171,0.239728 0.05431,0.332241 -0.144472,0.145494 -0.07559,-0.07102 -0.156024,-0.110547 -0.17873,-0.08784 -0.07081,0.07081 -0.04565,0.127696 0.06985,0.157898 0.06112,0.01597 0.158612,0.129136 0.216656,0.251456 0.05804,0.12232 0.141827,0.222397 0.186186,0.222397 0.05436,0 0.0136,0.133275 -0.125032,0.40881 -0.113127,0.224845 -0.205683,0.433538 -0.205683,0.46376 0,0.03023 0.05539,0.125375 0.123102,0.21145 0.110571,0.140568 0.113678,0.166909 0.03054,0.258778 -0.1259,0.139119 -0.116245,0.224922 0.02961,0.263064 0.07471,0.01953 0.122164,0.08332 0.122164,0.164196 0,0.07274 0.04123,0.173479 0.09163,0.223873 0.0504,0.05039 0.09162,0.120089 0.09162,0.154881 0,0.03479 -0.04123,0.04657 -0.09162,0.02618 -0.05039,-0.02039 -0.129349,-0.05241 -0.175458,-0.07116 -0.06163,-0.02507 -0.07613,0.0062 -0.05473,0.118109 0.02489,0.130208 0.01052,0.147338 -0.09942,0.118587 -0.09,-0.02353 -0.128511,-0.0051 -0.128511,0.06154 0,0.133906 0.124806,0.195625 0.191935,0.09491 0.03679,-0.0552 0.04243,-0.02108 0.01639,0.09907 -0.02184,0.100788 -0.07815,0.214129 -0.125113,0.251863 -0.133373,0.107173 0.144097,0.268395 0.338287,0.196558 0.182444,-0.06749 0.232237,-0.02396 0.123067,0.107578 -0.119071,0.143469 -0.134834,0.512955 -0.02189,0.512955 0.104948,0 0.11406,0.07184 0.02091,0.164965 -0.04892,0.04892 -0.03229,0.07833 0.06108,0.10796 0.07057,0.02239 0.128315,0.08944 0.128315,0.14897 0,0.05954 0.06872,0.139556 0.152708,0.177824 0.1719,0.07832 0.207001,0.255446 0.05062,0.255446 -0.05615,0 -0.152352,-0.04549 -0.213791,-0.10109 -0.104062,-0.09418 -0.111703,-0.09398 -0.111703,0.0029 0,0.0572 0.07121,0.170007 0.158246,0.250669 0.08999,0.08339 0.139309,0.177306 0.114341,0.217703 -0.02415,0.03907 -0.0069,0.09396 0.0385,0.121977 0.04533,0.02801 0.05883,0.07304 0.03,0.100067 -0.02882,0.02702 -0.06468,0.01478 -0.07968,-0.02722 -0.01501,-0.042 -0.06071,-0.07635 -0.101588,-0.07635 -0.131892,0 -0.21932,-0.133179 -0.160087,-0.243861 0.0439,-0.08202 0.01223,-0.123425 -0.155567,-0.203445 -0.21118,-0.100706 -0.277363,-0.250541 -0.134324,-0.304103 0.05155,-0.0193 0.02384,-0.08294 -0.08528,-0.195871 -0.145957,-0.15106 -0.351735,-0.168848 -0.261342,-0.02258 0.04521,0.07314 -0.212653,0.308717 -0.287372,0.262539 -0.02926,-0.01808 -0.0532,-0.07087 -0.0532,-0.117295 0,-0.106385 -0.102066,-0.172341 -0.186214,-0.120334 -0.04382,0.02708 -0.04154,0.06671 0.0072,0.125446 0.03919,0.04722 0.0566,0.141936 0.03867,0.210468 -0.04604,0.176056 0.41347,0.397181 0.64357,0.309696 0.2319,-0.08817 0.24429,-0.01734 0.03039,0.173784 -0.152886,0.136603 -0.192708,0.224148 -0.205994,0.452865 -0.01517,0.261215 -0.0052,0.283531 0.126427,0.283531 0.107468,0 0.150775,0.04165 0.174663,0.167977 0.01748,0.09239 0.05121,0.229553 0.07499,0.304806 0.03412,0.108035 0.01385,0.147695 -0.09636,0.188462 -0.104296,0.03858 -0.119152,0.06425 -0.05878,0.101564 0.119649,0.07395 0.245512,-0.135211 0.245512,-0.407985 0,-0.166087 0.02622,-0.232661 0.09162,-0.232661 0.05575,0 0.09163,0.05686 0.09163,0.145228 0,0.07988 0.03815,0.176893 0.08479,0.215594 0.0612,0.0508 0.07158,0.128925 0.0373,0.280886 -0.04298,0.190568 -0.03705,0.204931 0.0626,0.151604 0.06054,-0.0324 0.119895,-0.08837 0.131893,-0.124364 0.01429,-0.0429 0.08424,-0.03306 0.202979,0.02854 0.170102,0.08825 0.183889,0.08661 0.225872,-0.02688 0.05002,-0.135211 0.141184,-0.157136 0.207468,-0.04988 0.02426,0.03924 -0.009,0.114348 -0.07427,0.16798 -0.144625,0.118756 -0.118619,0.310792 0.04209,0.310792 0.06472,0 0.117843,-0.02061 0.118032,-0.04582 1.83e-4,-0.0252 0.111296,-0.05 0.2469,-0.05513 0.206835,-0.0078 0.267674,0.01922 0.377641,0.167979 0.149921,0.20278 0.230278,0.226284 0.230278,0.06735 z m 0.211896,-0.748283 c -0.0561,-0.09078 -0.01148,-0.122912 0.08654,-0.06233 0.05251,0.03245 0.05876,0.06393 0.01773,0.0893 -0.03486,0.02154 -0.08178,0.0094 -0.104264,-0.02697 z m -1.901544,-0.333918 c 0.01464,-0.2289 0.02128,-0.236714 0.16257,-0.191006 0.0504,0.0163 0.125981,0.0387 0.167973,0.04976 0.04307,0.01133 -0.0153,0.09325 -0.133957,0.187916 l -0.210307,0.167806 z m 0.996999,0.04241 c -0.12364,-0.136617 -0.13127,-0.255167 -0.01644,-0.255167 0.04675,0 0.103063,0.07196 0.125139,0.159915 0.05168,0.205904 0.01808,0.235348 -0.10871,0.09525 z m -0.427207,-0.112644 c -0.08006,-0.08006 -0.03934,-0.264692 0.05838,-0.264692 0.07984,0 0.08475,0.0173 0.02529,0.08895 -0.0406,0.04892 -0.05609,0.11764 -0.03441,0.152708 0.04407,0.07131 0.01339,0.08567 -0.04924,0.02304 z m 0.848389,-0.25918 c -0.0402,-0.06504 0.02085,-0.249845 0.08254,-0.249845 0.107611,0 0.18461,0.145399 0.118915,0.224554 -0.07827,0.09431 -0.152997,0.103691 -0.201451,0.02529 z m -0.980121,-0.311924 c 0.0211,-0.03414 0.06396,-0.04626 0.09523,-0.02694 0.08473,0.05236 0.06893,0.08902 -0.03837,0.08902 -0.05238,0 -0.07796,-0.02794 -0.05686,-0.06208 z m 0.518591,-0.108603 c 0,-0.03228 0.0444,-0.09554 0.09867,-0.14058 0.08537,-0.07085 0.09566,-0.06636 0.07635,0.03327 -0.02299,0.118723 -0.175024,0.211928 -0.175024,0.107311 z M 27.5518,28.822533 c 0,-0.187762 -0.0057,-0.192672 -0.111704,-0.09671 -0.160438,0.145194 -0.19371,0.127122 -0.19371,-0.105221 0,-0.242633 0.106113,-0.352171 0.293647,-0.30313 0.07402,0.01937 0.176335,4.23e-4 0.227361,-0.0418 0.155804,-0.129306 0.172216,-0.01975 0.05192,0.346666 -0.131986,0.402023 -0.267518,0.50345 -0.267518,0.200201 z m -0.122165,-0.759166 c 0,-0.05599 0.02954,-0.09195 0.06566,-0.07992 0.03611,0.01205 0.06567,0.048 0.06567,0.07992 0,0.03192 -0.02954,0.06788 -0.06567,0.07992 -0.03611,0.01205 -0.06566,-0.02393 -0.06566,-0.07992 z m 1.832495,-0.03054 c 0,-0.06719 0.02748,-0.122167 0.06108,-0.122167 0.0336,0 0.06108,0.05498 0.06108,0.122167 0,0.06719 -0.02748,0.122166 -0.06108,0.122166 -0.0336,0 -0.06108,-0.05498 -0.06108,-0.122166 z m -3.115241,0 c 0,-0.0336 0.02748,-0.06109 0.06108,-0.06109 0.0336,0 0.06108,0.02749 0.06108,0.06109 0,0.0336 -0.02748,0.06108 -0.06108,0.06108 -0.0336,0 -0.06108,-0.02748 -0.06108,-0.06108 z m 0.710976,-0.286716 c -0.06879,-0.06879 -0.0419,-0.140868 0.05256,-0.140868 0.05039,0 0.09162,0.02587 0.09162,0.05748 0,0.07702 -0.09539,0.132189 -0.144187,0.08339 z m 2.660305,-0.145448 c 0.01205,-0.03611 0.048,-0.06567 0.07992,-0.06567 0.03191,0 0.06788,0.02954 0.07992,0.06567 0.01203,0.03611 -0.02393,0.06567 -0.07992,0.06567 -0.05599,0 -0.09196,-0.02956 -0.07992,-0.06567 z m 0.660207,-0.484085 c 0,-0.0336 0.02749,-0.06108 0.06108,-0.06108 0.0336,0 0.06108,0.02748 0.06108,0.06108 0,0.0336 -0.02748,0.06109 -0.06108,0.06109 -0.0336,0 -0.06108,-0.02749 -0.06108,-0.06109 z m 1.099497,-3.939864 c 0,-0.0504 0.02748,-0.09163 0.06108,-0.09163 0.0336,0 0.06108,0.04123 0.06108,0.09163 0,0.05039 -0.02748,0.09162 -0.06108,0.09162 -0.0336,0 -0.06108,-0.04123 -0.06108,-0.09162 z M 25.978332,10.869279 c -0.04168,-0.06674 -0.07578,-0.137076 -0.07578,-0.156312 0,-0.06476 0.120957,0.03909 0.185071,0.158886 0.08361,0.156225 -0.01152,0.153985 -0.109294,-0.0026 z M 14.102324,30.277282 c 0.02219,-0.192922 -0.08924,-0.262746 -0.324913,-0.203597 -0.109636,0.02752 -0.152572,0.07951 -0.152572,0.184746 0,0.163979 0.08034,0.216314 0.305417,0.198957 0.117648,-0.0091 0.157152,-0.05043 0.172068,-0.180106 z m 10.010067,-1.006364 c -0.01549,-0.05943 -0.02918,-0.0256 -0.03042,0.07519 -0.0011,0.100785 0.01143,0.149411 0.02816,0.108055 0.01673,-0.04136 0.01776,-0.123817 0.0023,-0.183248 z m 5.638403,-0.16914 c 0,-0.181869 -0.09278,-0.199576 -0.1811,-0.03455 -0.08789,0.164222 -0.08064,0.187263 0.05894,0.187263 0.08959,0 0.122166,-0.04073 0.122166,-0.152706 z m -0.705065,0.03476 c 0.01932,-0.03128 0.0059,-0.07495 -0.02986,-0.09704 -0.0904,-0.05587 -0.258508,0.01734 -0.212129,0.09239 0.04774,0.07725 0.195368,0.08009 0.241989,0.0046 z M 25.76639,28.693281 c -0.0133,-0.03989 -0.05684,-0.08342 -0.09676,-0.09673 -0.04463,-0.01487 -0.05829,0.01305 -0.03546,0.07253 0.0426,0.111032 0.168862,0.134133 0.132214,0.02419 z m -9.499704,-0.69809 c 0.05879,-0.02073 0.106895,-0.07573 0.106895,-0.122204 0,-0.100018 -0.09787,-0.112152 -0.15528,-0.01926 -0.02219,0.03588 -0.0779,0.05083 -0.123816,0.03321 -0.04592,-0.01761 -0.09974,-0.0058 -0.119593,0.02638 -0.0516,0.0835 0.03017,0.193329 0.114143,0.153303 0.03891,-0.01854 0.118859,-0.05069 0.177651,-0.07143 z m 0.412312,-0.355808 c 0,-0.192198 0.12032,-0.268192 0.163455,-0.103238 0.02994,0.114474 0.04834,0.11897 0.19441,0.04747 0.08874,-0.04343 0.202573,-0.07092 0.252966,-0.06106 0.110721,0.02163 0.378723,-0.486299 0.327298,-0.620315 -0.04203,-0.109529 0.104982,-0.123035 0.208832,-0.01919 0.05514,0.05514 0.09358,0.02002 0.164926,-0.150746 0.05117,-0.122456 0.09303,-0.268601 0.09303,-0.324769 0,-0.05616 0.03689,-0.132641 0.08198,-0.169941 0.290635,-0.240428 0.487721,-1.545055 0.270998,-1.793879 -0.05098,-0.05854 -0.07976,-0.142296 -0.06392,-0.186133 0.01584,-0.04383 -0.08397,-0.193567 -0.221761,-0.332739 -0.137797,-0.139175 -0.250538,-0.301227 -0.250538,-0.36012 0,-0.05889 -0.04548,-0.132526 -0.101061,-0.163633 -0.15899,-0.08898 -0.05469,-0.254929 0.160228,-0.254929 0.200971,0 0.235917,-0.06509 0.0969,-0.180466 -0.04855,-0.04029 -0.175108,-0.208582 -0.281243,-0.373978 -0.106135,-0.165398 -0.227077,-0.300721 -0.268761,-0.300721 -0.04168,0 -0.12554,-0.05497 -0.186348,-0.122167 -0.06081,-0.06719 -0.144111,-0.122165 -0.185117,-0.122165 -0.113713,0 -0.745077,0.290228 -0.790204,0.363244 -0.02187,0.03539 -0.228929,0.06434 -0.460134,0.06434 -0.231205,0 -0.437837,0.02826 -0.459184,0.0628 -0.02136,0.03454 0.0596,0.241839 0.17989,0.460672 0.120285,0.218832 0.258534,0.493213 0.307222,0.609738 0.08207,0.196427 0.08088,0.207772 -0.01637,0.155724 -0.119201,-0.0638 -0.50022,0.06883 -0.50022,0.174116 0,0.03522 -0.04026,0.06403 -0.08948,0.06403 -0.04921,0 -0.114464,0.0481 -0.145004,0.106896 -0.05251,0.101096 -0.129904,0.781022 -0.152333,1.338385 -0.0056,0.139783 -0.02712,0.271211 -0.04777,0.292056 -0.05779,0.05834 -0.0035,0.528123 0.07148,0.618464 0.03664,0.04415 0.109355,0.06387 0.16159,0.04382 0.0586,-0.02249 0.137741,0.01985 0.20662,0.110526 0.09911,0.13047 0.126335,0.137925 0.242464,0.06639 0.169892,-0.104654 0.228779,-0.04143 0.120318,0.129177 -0.188674,0.296788 -0.370929,0.671191 -0.341203,0.70092 0.01734,0.01735 0.04885,-0.01364 0.07003,-0.06885 0.02119,-0.0552 0.103661,-0.100369 0.18328,-0.100369 0.08821,0 0.185105,-0.06157 0.24802,-0.157586 0.08792,-0.13419 0.133483,-0.151918 0.306825,-0.119398 0.127117,0.02385 0.203568,0.01379 0.203568,-0.02683 0,-0.03885 0.06146,-0.04959 0.152709,-0.02669 0.08399,0.02107 0.153128,0.01473 0.153641,-0.01411 0.002,-0.118723 0.10693,-0.206796 0.202469,-0.170134 0.153507,0.05891 0.123257,0.263348 -0.0507,0.342603 -0.08399,0.03827 -0.152708,0.120144 -0.152708,0.181942 0,0.0618 -0.03259,0.112362 -0.07241,0.112362 -0.08132,0 -0.355165,0.240426 -0.355165,0.311814 0,0.03965 0.06233,0.06054 0.320686,0.107449 0.0252,0.0046 0.04582,-0.05878 0.04582,-0.140784 z m -0.578397,-0.886247 c -0.01971,-0.03191 0.01807,-0.08688 0.084,-0.122167 0.166048,-0.08886 0.188975,-0.08183 0.188975,0.05802 0,0.127723 -0.204053,0.175673 -0.27298,0.06415 z m 0.495292,-0.228698 c -0.06879,-0.06879 -0.0419,-0.140867 0.05256,-0.140867 0.0504,0 0.09162,0.02587 0.09162,0.05747 0,0.07702 -0.09539,0.132192 -0.144187,0.08339 z m 0.632854,-0.0187 c 0,-0.0336 0.02911,-0.06108 0.06468,-0.06108 0.03558,0 0.0477,0.02748 0.02694,0.06108 -0.02075,0.0336 -0.04988,0.06108 -0.06469,0.06108 -0.01482,0 -0.02694,-0.02748 -0.02694,-0.06108 z M 15.373156,26.28933 c -0.04995,-0.130159 0.06166,-0.272254 0.213825,-0.272254 0.144718,0 0.150695,0.173798 0.0078,0.226524 -0.05879,0.0217 -0.123686,0.06436 -0.144208,0.09483 -0.02052,0.03047 -0.05535,0.0084 -0.07741,-0.0491 z m 1.470391,-0.06699 c -0.06504,-0.06504 0.01648,-0.141206 0.111931,-0.104577 0.04912,0.01883 0.07411,0.05888 0.05552,0.08896 -0.03959,0.06407 -0.112233,0.07084 -0.167451,0.01563 z m 0.356223,-0.08057 c -0.02191,-0.03547 0.0043,-0.08143 0.05828,-0.102137 0.134378,-0.05156 0.176181,0.0051 0.06923,0.09387 -0.0602,0.04997 -0.100144,0.05256 -0.127513,0.0083 z m 0.242767,-2.934527 c 0.02075,-0.0336 0.04988,-0.06108 0.06468,-0.06108 0.01482,0 0.02694,0.02749 0.02694,0.06108 0,0.0336 -0.0291,0.06108 -0.06468,0.06108 -0.03558,0 -0.0477,-0.02749 -0.02694,-0.06108 z m -1.130038,3.970408 c 0,-0.0336 -0.02748,-0.06109 -0.06108,-0.06109 -0.0336,0 -0.06109,0.02749 -0.06109,0.06109 0,0.0336 0.02749,0.06108 0.06109,0.06108 0.0336,0 0.06108,-0.02748 0.06108,-0.06108 z M 13.31896,26.980826 c 0.09205,-0.09881 0.182804,-0.130887 0.333543,-0.117899 0.184802,0.01593 0.233708,-0.01584 0.454538,-0.295213 0.336643,-0.425885 0.666347,-1.115384 0.74525,-1.558516 0.03589,-0.201576 0.0905,-0.450914 0.121361,-0.554088 0.07323,-0.244855 0.07125,-0.437213 -0.0049,-0.484327 -0.0336,-0.02075 -0.06109,-0.113963 -0.06109,-0.20711 0,-0.235884 -0.23519,-0.961465 -0.339786,-1.048273 -0.06683,-0.05546 -0.140327,-0.05015 -0.324193,0.02342 -0.235065,0.09406 -0.381855,0.09746 -0.680559,0.01577 -0.29681,-0.08116 -0.894826,0.266036 -1.177527,0.683649 -0.17945,0.265086 -0.208991,0.710477 -0.07981,1.203081 0.07182,0.273848 0.07627,0.957998 0.009,1.376076 -0.01395,0.08657 0.04636,0.298812 0.138823,0.488667 0.130262,0.267452 0.218824,0.363541 0.436011,0.473061 0.1499,0.07559 0.279396,0.137437 0.287765,0.137437 0.0084,0 0.07212,-0.06108 0.141682,-0.13574 z m 19.586269,-0.464043 c -0.01313,-0.02288 -0.0049,-0.185089 0.01835,-0.360476 0.03445,-0.260057 0.02741,-0.30657 -0.03819,-0.252123 -0.09662,0.08018 -0.114427,0.751928 -0.01835,0.692559 0.03414,-0.0211 0.05133,-0.05708 0.0382,-0.07996 z m -1.709516,-0.894117 c -0.0199,-0.05184 -0.06475,-0.09426 -0.09969,-0.09426 -0.04021,0 -0.03615,0.04383 0.01104,0.119388 0.08428,0.134955 0.143623,0.118134 0.08865,-0.02514 z m -6.215,-0.941665 c 0.05361,-0.188209 0.05695,-0.286251 0.01132,-0.331885 -0.0918,-0.0918 -0.106611,-0.0566 -0.146479,0.348101 -0.03934,0.399321 0.01879,0.392347 0.135164,-0.01621 z M 11.497348,22.158494 c 0.263011,-0.0788 0.566205,-0.32434 0.510929,-0.413777 -0.05897,-0.09542 -1.005606,0.268734 -1.101369,0.423681 -0.05214,0.08436 0.29526,0.07853 0.59044,-0.0099 z M 11.09274,21.716247 c 0.465912,-0.169116 0.664272,-0.291865 0.795644,-0.492367 0.117905,-0.179944 0.07157,-0.276709 -0.132489,-0.276709 -0.262319,0 -1.9182127,0.681259 -1.9182127,0.789182 0,0.02602 0.06185,0.07854 0.137436,0.116718 0.1839297,0.09288 0.6378967,0.0373 1.1176217,-0.136824 z M 32.316287,21.49692 c 0,-0.0336 -0.02911,-0.06109 -0.06468,-0.06109 -0.03558,0 -0.0477,0.02749 -0.02693,0.06109 0.02076,0.0336 0.04988,0.06108 0.06468,0.06108 0.01482,0 0.02693,-0.02748 0.02693,-0.06108 z M 10.645798,21.091012 c 0.143462,-0.05527 0.301091,-0.13773 0.350284,-0.183249 0.156161,-0.14449 -0.05178,-0.100711 -0.455942,0.096 -0.394713,0.192105 -0.322116,0.252054 0.105658,0.08725 z m -0.260077,-0.448385 c 0.222041,-0.113276 0.347568,-0.228067 0.297971,-0.272488 -0.05862,-0.0525 -0.629363,0.149987 -0.7429567,0.26358 l -0.130201,0.130203 h 0.168715 c 0.09279,0 0.2757047,-0.05458 0.4064717,-0.121295 z m 7.959941,-1.3094 c 0.07441,-0.04777 0.263689,-0.105547 0.420625,-0.128382 0.27403,-0.03987 0.612694,-0.281455 0.521873,-0.372278 -0.06596,-0.06596 -2.312098,0.08276 -2.387134,0.158058 -0.13517,0.135643 0.196079,0.304334 0.602596,0.306878 0.201573,0.0011 0.407729,0.02894 0.458122,0.0615 0.127115,0.08215 0.226184,0.0755 0.383918,-0.02578 z m 0.865676,-0.818651 c 0.400879,-0.116514 0.5829,-0.245427 0.5829,-0.412827 0,-0.126648 -0.275142,-0.150321 -1.019853,-0.08774 -0.396558,0.03333 -1.160813,0.07706 -1.698347,0.09721 -1.514081,0.05673 -1.492081,0.049 -0.901757,0.317112 0.569867,0.258821 0.54118,0.254767 1.634755,0.231002 0.751831,-0.01634 1.075383,-0.04974 1.402302,-0.144751 z M 17.168066,17.82221 c 0.122148,-0.04053 0.642503,-0.07423 1.216989,-0.07881 0.651065,-0.0052 1.011245,-0.03094 1.025362,-0.0733 0.02735,-0.08207 -0.405807,-0.143506 -1.014345,-0.143857 -0.626955,-4.86e-4 -2.327906,0.135254 -2.327906,0.185604 0,0.161821 0.725434,0.234608 1.0999,0.110361 z m 1.893175,-0.66489 c 0.11983,-0.06513 -0.09281,-0.147616 -0.523456,-0.203059 -0.376395,-0.04845 -1.371005,0.04707 -1.563667,0.150181 -0.135251,0.07238 -0.135851,0.07635 -0.01889,0.12497 0.146276,0.0608 1.976791,-0.0018 2.106005,-0.07209 z"
       id="path29-3"
       inkscape:connector-curvature="0" /></g></svg>