<?xml version="1.0" encoding="UTF-8" standalone="no"?>
<!-- Generator: Adobe Illustrator 16.0.0, SVG Export Plug-In . SVG Version: 6.00 Build 0)  -->

<svg
   xmlns:dc="http://purl.org/dc/elements/1.1/"
   xmlns:cc="http://creativecommons.org/ns#"
   xmlns:rdf="http://www.w3.org/1999/02/22-rdf-syntax-ns#"
   xmlns:svg="http://www.w3.org/2000/svg"
   xmlns="http://www.w3.org/2000/svg"
   xmlns:xlink="http://www.w3.org/1999/xlink"
   xmlns:sodipodi="http://sodipodi.sourceforge.net/DTD/sodipodi-0.dtd"
   xmlns:inkscape="http://www.inkscape.org/namespaces/inkscape"
   version="1.1"
   id="Calque_1"
   x="0px"
   y="0px"
   width="45.702"
   height="45.702"
   viewBox="0 0 45.701999 45.701999"
   enable-background="new 0 0 45.701 45.7"
   xml:space="preserve"
   sodipodi:docname="filter_Mollusks-active.svg"
   inkscape:version="0.92.2 (5c3e80d, 2017-08-06)"><metadata
     id="metadata15"><rdf:RDF><cc:Work
         rdf:about=""><dc:format>image/svg+xml</dc:format><dc:type
           rdf:resource="http://purl.org/dc/dcmitype/StillImage" /><dc:title></dc:title></cc:Work></rdf:RDF></metadata><defs
     id="defs13"><clipPath
       clipPathUnits="userSpaceOnUse"
       id="clipPath4558"><use
         x="0"
         y="0"
         xlink:href="#g4554"
         id="use4560"
         width="100%"
         height="100%"
         transform="translate(62.449212,-0.95593813)" /></clipPath></defs><sodipodi:namedview
     pagecolor="#ffffff"
     bordercolor="#666666"
     borderopacity="1"
     objecttolerance="10"
     gridtolerance="10"
     guidetolerance="10"
     inkscape:pageopacity="0"
     inkscape:pageshadow="2"
     inkscape:window-width="1920"
     inkscape:window-height="1137"
     id="namedview11"
     showgrid="false"
     inkscape:zoom="5.1641137"
     inkscape:cx="-6.7770429"
     inkscape:cy="22.85"
     inkscape:window-x="1912"
     inkscape:window-y="-8"
     inkscape:window-maximized="1"
     inkscape:current-layer="g4554"
     fit-margin-top="0"
     fit-margin-left="0"
     fit-margin-right="0"
     fit-margin-bottom="0"
     inkscape:pagecheckerboard="true" /><g
     id="g8"
     transform="translate(0,0.0019989)"><path
       d="m 45.2015,22.848001 c 0,12.344 -10.008,22.352 -22.35,22.352 -12.344,0 -22.35100017,-10.008 -22.35100017,-22.352 0,-12.344 10.00700017,-22.35000007 22.35200017,-22.35000007 12.341,0 22.349,10.00600007 22.349,22.35000007"
       id="path2"
       inkscape:connector-curvature="0"
       style="fill:#3f627c" /><circle
       stroke-miterlimit="10"
       cx="22.851"
       cy="22.849001"
       r="22.351"
       id="circle4"
       style="fill:none;stroke:#ffffff;stroke-miterlimit:10" /><g
       style="fill:#ffffff;fill-opacity:1"
       id="g4554"
       inkscape:label="Clip"
       transform="translate(-62.449212,0.95593813)"><path
         style="fill:#ffffff;fill-opacity:1;stroke-width:0.06050232"
         inkscape:connector-curvature="0"
         d="m 85.300212,31.19494 h -6.070557 l 0.123368,1.577786 c 0.10588,1.35563 1.253769,2.417493 2.613417,2.417493 h 6.667544 c 1.359648,0 2.507538,-1.061863 2.613417,-2.417493 l 0.123368,-1.577786 z m 0,0"
         id="path2-3" /><path
         style="fill:#ffffff;fill-opacity:1;stroke-width:0.06050232"
         inkscape:connector-curvature="0"
         d="m 93.948735,29.379634 c 0.440534,-0.263989 0.9047,-0.548066 1.375245,-0.845142 4.180571,-2.637759 5.00491,-3.847569 5.2611,-4.527984 0.61377,-1.628835 -0.29825,-4.157643 -0.896659,-5.520127 -0.08863,-0.201596 -0.1808,-0.402718 -0.276753,-0.602424 l -9.401256,11.495677 z m 0,0"
         id="path4" /><path
         style="fill:#ffffff;fill-opacity:1;stroke-width:0.06050232"
         inkscape:connector-curvature="0"
         d="m 98.4805,16.155151 c -0.738316,-1.229427 -1.575424,-2.334065 -2.404967,-3.152501 0,-2.43e-4 0,-2.43e-4 -2.4e-4,-4.87e-4 -0.626525,-0.617775 -1.29725,-1.175294 -2.005081,-1.670421 l -5.979803,17.528186 z m 0,0"
         id="path6-0" /><path
         style="fill:#ffffff;fill-opacity:1;stroke-width:0.06050232"
         inkscape:connector-curvature="0"
         d="M 92.483916,10.359691 C 90.558242,9.3354059 88.426717,8.7318003 86.207747,8.5959066 V 28.755703 Z m 0,0"
         id="path8" /><path
         style="fill:#ffffff;fill-opacity:1;stroke-width:0.06050232"
         inkscape:connector-curvature="0"
         d="m 84.392677,8.5959066 c -2.218733,0.1358937 -4.350258,0.7394993 -6.275933,1.7640204 l 6.275933,18.395776 z m 0,0"
         id="path10" /><path
         style="fill:#ffffff;fill-opacity:1;stroke-width:0.06050232"
         inkscape:connector-curvature="0"
         d="m 76.530213,11.331982 c -0.70783,0.495126 -1.378791,1.052646 -2.005321,1.670668 -0.829544,0.818436 -1.66665,1.923074 -2.405204,3.152501 l 10.390564,12.705486 z m 0,0"
         id="path12" /><path
         style="fill:#ffffff;fill-opacity:1;stroke-width:0.06050232"
         inkscape:connector-curvature="0"
         d="m 71.188756,17.883957 c -0.09572,0.199942 -0.188124,0.400828 -0.276751,0.602424 -0.598405,1.362484 -1.51043,3.891292 -0.896663,5.520127 0.256426,0.680415 1.080534,1.890225 5.261102,4.527984 0.470547,0.297076 0.934949,0.581153 1.375246,0.845142 h 3.938086 z m 0,0"
         id="path14" /></g></g></svg>