<?xml version="1.0" encoding="UTF-8" standalone="no"?>
<!-- Generator: Adobe Illustrator 16.0.0, SVG Export Plug-In . SVG Version: 6.00 Build 0)  -->

<svg
   xmlns:dc="http://purl.org/dc/elements/1.1/"
   xmlns:cc="http://creativecommons.org/ns#"
   xmlns:rdf="http://www.w3.org/1999/02/22-rdf-syntax-ns#"
   xmlns:svg="http://www.w3.org/2000/svg"
   xmlns="http://www.w3.org/2000/svg"
   xmlns:sodipodi="http://sodipodi.sourceforge.net/DTD/sodipodi-0.dtd"
   xmlns:inkscape="http://www.inkscape.org/namespaces/inkscape"
   version="1.1"
   id="Calque_1"
   x="0px"
   y="0px"
   width="45.701px"
   height="45.7px"
   viewBox="0 0 45.701 45.7"
   enable-background="new 0 0 45.701 45.7"
   xml:space="preserve"
   sodipodi:docname="filter_Worms.svg"
   inkscape:version="0.92.2 (5c3e80d, 2017-08-06)"><metadata
     id="metadata15"><rdf:RDF><cc:Work
         rdf:about=""><dc:format>image/svg+xml</dc:format><dc:type
           rdf:resource="http://purl.org/dc/dcmitype/StillImage" /><dc:title /></cc:Work></rdf:RDF></metadata><defs
     id="defs13"><clipPath
       clipPathUnits="userSpaceOnUse"
       id="clipPath4558"><g
         id="use4560"
         inkscape:label="Clip"><path
           style="fill:#86b79b;fill-opacity:1;stroke-width:0.06050232"
           inkscape:connector-curvature="0"
           d="m 85.300212,31.19494 h -6.070557 l 0.123368,1.577786 c 0.10588,1.35563 1.253769,2.417493 2.613417,2.417493 h 6.667544 c 1.359648,0 2.507538,-1.061863 2.613417,-2.417493 l 0.123368,-1.577786 z m 0,0"
           id="path834" /><path
           style="fill:#86b79b;fill-opacity:1;stroke-width:0.06050232"
           inkscape:connector-curvature="0"
           d="m 93.948735,29.379634 c 0.440534,-0.263989 0.9047,-0.548066 1.375245,-0.845142 4.180571,-2.637759 5.00491,-3.847569 5.2611,-4.527984 0.61377,-1.628835 -0.29825,-4.157643 -0.896659,-5.520127 -0.08863,-0.201596 -0.1808,-0.402718 -0.276753,-0.602424 l -9.401256,11.495677 z m 0,0"
           id="path836" /><path
           style="fill:#86b79b;fill-opacity:1;stroke-width:0.06050232"
           inkscape:connector-curvature="0"
           d="m 98.4805,16.155151 c -0.738316,-1.229427 -1.575424,-2.334065 -2.404967,-3.152501 0,-2.43e-4 0,-2.43e-4 -2.4e-4,-4.87e-4 -0.626525,-0.617775 -1.29725,-1.175294 -2.005081,-1.670421 l -5.979803,17.528186 z m 0,0"
           id="path838" /><path
           style="fill:#86b79b;fill-opacity:1;stroke-width:0.06050232"
           inkscape:connector-curvature="0"
           d="M 92.483916,10.359691 C 90.558242,9.3354059 88.426717,8.7318003 86.207747,8.5959066 V 28.755703 Z m 0,0"
           id="path840" /><path
           style="fill:#86b79b;fill-opacity:1;stroke-width:0.06050232"
           inkscape:connector-curvature="0"
           d="m 84.392677,8.5959066 c -2.218733,0.1358937 -4.350258,0.7394993 -6.275933,1.7640204 l 6.275933,18.395776 z m 0,0"
           id="path842" /><path
           style="fill:#86b79b;fill-opacity:1;stroke-width:0.06050232"
           inkscape:connector-curvature="0"
           d="m 76.530213,11.331982 c -0.70783,0.495126 -1.378791,1.052646 -2.005321,1.670668 -0.829544,0.818436 -1.66665,1.923074 -2.405204,3.152501 l 10.390564,12.705486 z m 0,0"
           id="path844" /><path
           style="fill:#86b79b;fill-opacity:1;stroke-width:0.06050232"
           inkscape:connector-curvature="0"
           d="m 71.188756,17.883957 c -0.09572,0.199942 -0.188124,0.400828 -0.276751,0.602424 -0.598405,1.362484 -1.51043,3.891292 -0.896663,5.520127 0.256426,0.680415 1.080534,1.890225 5.261102,4.527984 0.470547,0.297076 0.934949,0.581153 1.375246,0.845142 h 3.938086 z m 0,0"
           id="path846" /></g></clipPath></defs><sodipodi:namedview
     pagecolor="#ffffff"
     bordercolor="#666666"
     borderopacity="1"
     objecttolerance="10"
     gridtolerance="10"
     guidetolerance="10"
     inkscape:pageopacity="0"
     inkscape:pageshadow="2"
     inkscape:window-width="1781"
     inkscape:window-height="945"
     id="namedview11"
     showgrid="false"
     inkscape:pagecheckerboard="true"
     inkscape:zoom="5.1641137"
     inkscape:cx="-10.456281"
     inkscape:cy="15.104238"
     inkscape:window-x="0"
     inkscape:window-y="0"
     inkscape:window-maximized="0"
     inkscape:current-layer="g8" /><g
     id="g8"><path
       d="m 45.2015,22.8495 c 0,12.344 -10.008,22.351 -22.35,22.351 -12.344,0 -22.35100025,-10.007 -22.35100025,-22.351 0,-12.345 10.00700025,-22.34999943 22.35100025,-22.34999943 12.342,0 22.35,10.00499943 22.35,22.34999943"
       id="path2"
       inkscape:connector-curvature="0"
       style="fill:#ffffff" /><circle
       fill="none"
       stroke="#B6D3C3"
       stroke-miterlimit="10"
       cx="22.851"
       cy="22.85"
       r="22.351"
       id="circle4" /><path
       d="m 38.022549,35.857027 c -0.39919,-1.798065 -1.13552,-2.926406 -2.900189,-4.504871 -0.01885,-0.166542 -0.0598,-0.332834 -0.136705,-0.492385 -0.161547,-0.332085 -0.346192,-0.649375 -0.524657,-0.969664 0.637267,-0.468976 1.114109,-0.742259 1.125095,-0.748752 0.245381,-0.138638 0.333334,-0.449937 0.195568,-0.695943 -0.138702,-0.245381 -0.450812,-0.333707 -0.695319,-0.195068 -0.04875,0.02696 -0.517728,0.294819 -1.15025,0.753246 -0.218539,-0.344694 -0.436018,-0.690324 -0.674533,-1.019101 0.644571,-0.742197 1.131399,-1.364671 1.252249,-1.519789 0.172472,-0.223158 0.131647,-0.543757 -0.09088,-0.716791 -0.223595,-0.171661 -0.544632,-0.131274 -0.717228,0.0912 -0.245444,0.316854 -0.641574,0.802685 -1.09432,1.329402 -0.36829,-0.450562 -0.754433,-0.883334 -1.160488,-1.297503 0.616604,-0.460425 1.18839,-0.833896 1.55643,-1.051 0.242447,-0.143571 0.324282,-0.456367 0.180711,-0.699251 -0.142758,-0.243383 -0.457053,-0.322722 -0.699376,-0.180712 -0.07478,0.04401 -0.854993,0.5103 -1.780837,1.212111 -0.247378,-0.226343 -0.496878,-0.452373 -0.75618,-0.665356 0.374095,-0.380026 0.694445,-0.750563 0.90668,-1.085894 0.151685,-0.237952 0.08095,-0.553683 -0.156617,-0.704932 -0.237391,-0.151435 -0.553683,-0.08065 -0.705243,0.157304 -0.194571,0.305181 -0.500001,0.652372 -0.863047,1.012609 -0.494757,-0.363171 -1.007679,-0.702497 -1.537267,-1.017104 0.735206,-0.611236 1.299938,-0.89794 1.312922,-0.904494 0.252372,-0.12472 0.357178,-0.430338 0.232397,-0.683334 -0.123721,-0.251935 -0.428901,-0.357054 -0.681274,-0.233958 -0.06498,0.03147 -0.862922,0.429901 -1.8206,1.287828 -0.363171,-0.187389 -0.724532,-0.375905 -1.099563,-0.540636 -0.02091,-0.009 -0.03976,-0.01997 -0.05974,-0.02903 0.293258,-0.340636 0.579463,-0.663358 0.830088,-0.932521 0.193445,-0.206056 0.181522,-0.529402 -0.02491,-0.721787 -0.206618,-0.191635 -0.529838,-0.181522 -0.721349,0.02541 -0.174595,0.186517 -0.572909,0.620038 -1.037516,1.167666 -0.315357,-0.158677 -0.62472,-0.32628 -0.929901,-0.499751 0.600687,-0.561111 1.043633,-0.942696 1.055494,-0.953246 0.214606,-0.183583 0.239326,-0.506243 0.05599,-0.720226 -0.183521,-0.214606 -0.506929,-0.238014 -0.720474,-0.05593 -0.0568,0.049 -0.602373,0.518852 -1.308741,1.187578 -0.23352,-0.149001 -0.457054,-0.312547 -0.683396,-0.470786 0.908802,-0.847629 1.620038,-1.681524 1.720912,-2.288016 0.04675,-0.278465 -0.141822,-0.541324 -0.419101,-0.587641 -0.279275,-0.05187 -0.542634,0.141136 -0.588515,0.420037 -0.06093,0.367167 -0.664356,1.044446 -1.550312,1.843073 -0.361049,-0.280899 -0.715231,-0.570101 -1.056617,-0.874346 0.485018,-0.322284 0.902996,-0.637515 1.178152,-0.920474 0.197566,-0.202498 0.193758,-0.525594 -0.009,-0.722659 -0.201373,-0.19507 -0.525655,-0.192635 -0.723158,0.0094 -0.258428,0.265856 -0.6902,0.581586 -1.207055,0.913234 -0.394195,-0.389451 -0.774157,-0.793946 -1.135394,-1.215482 0.766105,-0.366728 1.487454,-0.632584 2.030151,-0.652559 0.282335,-0.0098 0.501748,-0.246754 0.491761,-0.528777 -0.01005,-0.282209 -0.257429,-0.519787 -0.528715,-0.491698 -0.75025,0.02741 -1.697004,0.377529 -2.653559,0.851935 -0.197566,-0.256429 -0.396255,-0.512359 -0.58271,-0.778652 0.458865,-0.295692 0.926718,-0.639513 1.39482,-1.052997 0.210238,-0.186953 0.230275,-0.509862 0.04376,-0.721348 -0.188514,-0.211486 -0.510799,-0.2299 -0.722223,-0.04382 -0.428027,0.37909 -0.857927,0.69276 -1.2799,0.962672 -0.41236,-0.656803 -1.183397,-1.972473 -1.757242,-2.959989 -0.045,-0.07747 -0.09607,-0.149438 -0.151623,-0.21623 0.256055,-0.638577 0.734082,-1.6659804 1.413859,-2.4432595 0.298126,-0.340887 0.628589,-0.5275907 0.949751,-0.6198505 0.107433,-0.030842 0.175717,-0.1361426 0.160049,-0.2468167 -0.0156,-0.1106741 -0.110425,-0.1930093 -0.222159,-0.192884 -0.501437,7.368e-4 -1.057742,0.178901 -1.578153,0.7290262 -0.94482,0.9988761 -1.442198,1.7820861 -1.682087,2.2282785 -0.304642,-0.0488 -0.626053,-0.0084 -0.923431,0.134039 -0.24301,0.116416 -0.447379,0.294944 -0.595444,0.513794 -0.51186,-0.108801 -1.399565,-0.230711 -2.6919497,-0.180274 -0.756679,0.02965 -1.2570535,0.331086 -1.5876401,0.708053 -0.073718,0.08408 -0.074215,0.209613 -0.00119,0.294257 0.073037,0.08465 0.1973153,0.102496 0.2912614,0.04195 0.2808347,-0.181024 0.6389497,-0.306866 1.0917597,-0.306866 0.9742187,0 1.9979407,0.281773 2.6559317,0.504807 0.02752,0.186204 0.08964,0.367603 0.186017,0.533957 0.551499,0.951624 1.241512,2.136394 1.591948,2.715171 -0.930773,0.229401 -1.548314,0.224469 -1.560237,0.226092 -0.279525,-0.0062 -0.514732,0.216355 -0.522909,0.497753 -0.0058,0.281772 0.214607,0.515731 0.496067,0.523846 0.0078,0 0.02684,4.42e-4 0.05475,4.42e-4 0.217479,0 1.025594,-0.02696 2.126906,-0.341137 0.239325,0.359551 0.484955,0.713734 0.742322,1.058428 -1.031712,0.689014 -1.785769,1.27191 -1.861612,1.330774 -0.22241,0.173721 -0.261423,0.49482 -0.08877,0.717291 0.100682,0.129214 0.251249,0.19663 0.404058,0.19663 0.109738,0 0.219351,-0.03552 0.313233,-0.107682 0.409114,-0.318852 1.087392,-0.811236 1.862486,-1.325344 0.340137,0.417541 0.69844,0.818851 1.06648,1.210987 -0.728278,0.373657 -1.384645,0.690325 -1.798565,0.88246 -0.256367,0.118227 -0.368415,0.422035 -0.248564,0.677965 0.08596,0.186517 0.270287,0.296193 0.462858,0.296193 0.07191,0 0.145755,-0.01479 0.21467,-0.04745 0.08464,-0.03882 1.002434,-0.465356 2.120849,-1.046505 0.447879,0.435956 0.913921,0.85256 1.395757,1.250563 -0.554682,0.414606 -1.126343,0.824032 -1.691948,1.20874 -0.233458,0.158676 -0.293509,0.476405 -0.135768,0.709675 0.09981,0.145194 0.259239,0.223533 0.42297,0.223533 0.09969,0 0.199564,-0.02847 0.28733,-0.08827 0.321223,-0.218414 1.070412,-0.737328 1.935331,-1.390324 0.318415,0.240012 0.6505,0.46111 0.981711,0.684956 -0.494819,0.583583 -0.923846,1.164732 -1.177341,1.671661 -0.125594,0.25231 -0.02372,0.559051 0.228527,0.685332 0.07284,0.03639 0.150624,0.05374 0.228526,0.05374 0.187516,0 0.36698,-0.103123 0.456868,-0.282272 0.231523,-0.462422 0.643445,-1.009613 1.123345,-1.56623 0.418853,0.25774 0.842074,0.511174 1.277967,0.743758 -0.298316,0.498626 -0.509864,0.962048 -0.555619,1.324283 -0.03595,0.279713 0.161549,0.535643 0.441948,0.571661 0.02184,0.0025 0.04388,0.0041 0.06473,0.0041 0.253496,0 0.473909,-0.188078 0.506929,-0.446068 0.0299,-0.237953 0.209427,-0.595943 0.464732,-1.007616 0.241573,0.115293 0.475906,0.241573 0.72241,0.349251 0.111736,0.049 0.217478,0.109613 0.327154,0.161111 -0.294258,0.492385 -0.56754,1.033022 -0.796068,1.637703 -0.09987,0.263796 0.03395,0.558616 0.297254,0.658427 0.05974,0.02247 0.120786,0.03278 0.180711,0.03278 0.206617,0 0.400001,-0.125594 0.477778,-0.330089 0.215482,-0.571723 0.478902,-1.083583 0.762235,-1.54538 0.401187,0.219537 0.792136,0.456803 1.171225,0.708738 -0.830088,0.633459 -1.485332,1.086955 -1.501312,1.097941 -0.232647,0.159551 -0.291448,0.477716 -0.13196,0.7103 0.099,0.144071 0.258489,0.221349 0.422035,0.221349 0.09982,0 0.199626,-0.02871 0.288327,-0.08964 0.07104,-0.049 0.845194,-0.583147 1.782898,-1.311861 0.297378,0.226466 0.581586,0.465419 0.859988,0.71236 -0.458865,0.558177 -0.820163,1.146255 -0.971662,1.730775 -0.07178,0.272846 0.09176,0.551685 0.36517,0.623158 0.04276,0.01099 0.08564,0.01642 0.129713,0.01642 0.225343,0 0.432833,-0.152184 0.492821,-0.382022 0.108739,-0.415543 0.374158,-0.855493 0.728277,-1.292572 0.453933,0.457553 0.877716,0.943384 1.273909,1.452997 -0.397941,0.347191 -0.765169,0.611672 -1.05668,0.724907 -0.263233,0.102248 -0.392946,0.397939 -0.291136,0.660861 0.07884,0.202061 0.271473,0.325593 0.476779,0.325593 0.06192,0 0.123908,-0.01069 0.184769,-0.03483 0.379089,-0.14719 0.824033,-0.459987 1.285831,-0.851935 0.195568,0.288827 0.389201,0.579588 0.565606,0.881835 -0.357866,0.42497 -0.689201,0.886018 -0.954558,1.381275 -0.133707,0.248813 -0.03995,0.558677 0.209427,0.691885 0.07572,0.04089 0.159612,0.06024 0.240449,0.06024 0.182522,0 0.35824,-0.09769 0.450999,-0.269413 0.166542,-0.309676 0.364919,-0.606117 0.581585,-0.888765 0.01991,0.04139 0.04588,0.07934 0.06585,0.120724 0.164544,0.341074 0.444943,0.580213 0.767229,0.721349 0.0078,0.148502 0.02078,0.312797 0.04376,0.492822 0.229276,1.987829 1.180899,3.818354 2.824408,4.878404 0.161611,0.10874 0.253372,0.171224 0.253372,0.171224 0.147627,0.09688 0.30618,-0.110112 0.169662,-0.225594 -0.0156,-0.01417 -0.218539,-0.184643 -0.235455,-0.198875 -1.403497,-1.137517 -2.09507,-2.870352 -2.10693,-4.684459 -0.0022,-0.12266 8.83e-4,-0.227405 0.004,-0.329652 0.110549,-0.02566 0.220474,-0.06292 0.327215,-0.114794 0.277279,-0.134581 0.494758,-0.343134 0.642447,-0.5897 2.088828,1.296256 2.939078,3.566481 2.946944,3.587642 0.03383,0.09295 0.179837,0.05381 0.15749,-0.04801 z"
       id="path2-31"
       inkscape:connector-curvature="0"
       style="fill:#86b79b;fill-opacity:1;stroke-width:0.062422" /></g></svg>