<?xml version="1.0" encoding="UTF-8" standalone="no"?>
<!-- Generator: Adobe Illustrator 19.1.0, SVG Export Plug-In . SVG Version: 6.00 Build 0)  -->

<svg
   xmlns:dc="http://purl.org/dc/elements/1.1/"
   xmlns:cc="http://creativecommons.org/ns#"
   xmlns:rdf="http://www.w3.org/1999/02/22-rdf-syntax-ns#"
   xmlns:svg="http://www.w3.org/2000/svg"
   xmlns="http://www.w3.org/2000/svg"
   xmlns:sodipodi="http://sodipodi.sourceforge.net/DTD/sodipodi-0.dtd"
   xmlns:inkscape="http://www.inkscape.org/namespaces/inkscape"
   version="1.1"
   id="Calque_1"
   x="0px"
   y="0px"
   viewBox="-330 571.3 138.60001 138.60001"
   xml:space="preserve"
   sodipodi:docname="main_menu_logo_contact-mt.svg"
   inkscape:version="0.92.4 (5da689c313, 2019-01-14)"
   width="138.60001"
   height="138.60001"><metadata
   id="metadata43"><rdf:RDF><cc:Work
       rdf:about=""><dc:format>image/svg+xml</dc:format><dc:type
         rdf:resource="http://purl.org/dc/dcmitype/StillImage" /><dc:title /></cc:Work></rdf:RDF></metadata><defs
   id="defs41" /><sodipodi:namedview
   pagecolor="#ffffff"
   bordercolor="#666666"
   borderopacity="1"
   objecttolerance="10"
   gridtolerance="10"
   guidetolerance="10"
   inkscape:pageopacity="0"
   inkscape:pageshadow="2"
   inkscape:window-width="1920"
   inkscape:window-height="1017"
   id="namedview39"
   showgrid="false"
   inkscape:zoom="3"
   inkscape:cx="66.872572"
   inkscape:cy="69.350001"
   inkscape:window-x="-8"
   inkscape:window-y="-8"
   inkscape:window-maximized="1"
   inkscape:current-layer="text4541"
   fit-margin-top="0"
   fit-margin-left="0"
   fit-margin-right="0"
   fit-margin-bottom="0" /><style
   type="text/css"
   id="style2">
	.st0{fill:#E8E493;}
	.st1{fill:#40637D;}
	.st2{fill:#FFFFFF;}
</style><g
   id="g6"
   transform="translate(0,-0.1)"><path
     class="st0"
     d="m -330,640.7 c 0,-38.3 31,-69.3 69.3,-69.3 38.3,0 69.3,31 69.3,69.3 0,38.3 -31,69.3 -69.3,69.3 -38.3,0 -69.3,-31 -69.3,-69.3"
     id="path4"
     style="fill:#ff7837;fill-opacity:1"
     inkscape:connector-curvature="0" /></g><g
   id="g36"
   transform="translate(0,-16.363454)"><g
     id="g30"><path
       class="st2"
       d="m -272.3,659 c 0,0.4 0.2,0.8 0.6,1 0.4,0.2 0.8,0.2 1.2,-0.1 l 7.7,-5.3 -9.5,-4.5 z"
       id="path28"
       inkscape:connector-curvature="0"
       style="fill:#ffffff" /></g><g
     id="g34"><path
       class="st2"
       d="m -226.4,599.6 c -0.2,-0.2 -0.5,-0.3 -0.8,-0.3 -0.2,0 -0.3,0 -0.5,0.1 l -66.6,32.7 c -0.7,0.3 -1.1,1 -1.1,1.8 0,0.8 0.4,1.5 1.1,1.8 l 17.6,8.4 35.1,-28.9 -30.8,30.9 21.9,10.4 c 0.3,0.1 0.6,0.2 0.9,0.2 0.2,0 0.5,0 0.7,-0.1 0.5,-0.2 0.9,-0.6 1.1,-1.1 l 21.7,-54.6 c 0.2,-0.5 0.1,-1 -0.3,-1.3"
       id="path32"
       inkscape:connector-curvature="0"
       style="fill:#ffffff" /></g></g><g
   aria-label="Ikkuntattjana"
   style="font-style:normal;font-variant:normal;font-weight:normal;font-stretch:normal;font-size:15.46666718px;line-height:1.25;font-family:KonsensMedium;-inkscape-font-specification:'KonsensMedium, Normal';font-variant-ligatures:normal;font-variant-caps:normal;font-variant-numeric:normal;font-feature-settings:normal;text-align:center;letter-spacing:0px;word-spacing:0px;writing-mode:lr-tb;text-anchor:middle;fill:#ffffff;fill-opacity:1;stroke:none"
   id="text4541"><path
     d="m -306.88801,668.41364 h -1.73227 v -11.50721 h 1.73227 z"
     style=""
     id="path821" /><path
     d="m -297.15054,668.41364 h -1.79413 l -2.32,-4.09867 -1.74774,1.82507 v 2.2736 h -1.54666 v -11.50721 h 1.54666 v 7.33121 l 3.65014,-3.95947 h 2.05706 l -2.79946,2.90773 z"
     style=""
     id="path823" /><path
     d="m -288.35991,668.41364 h -1.79414 l -2.32,-4.09867 -1.74773,1.82507 v 2.2736 h -1.54667 v -11.50721 h 1.54667 v 7.33121 l 3.65013,-3.95947 h 2.05707 l -2.79947,2.90773 z"
     style=""
     id="path825" /><path
     d="m -280.34043,668.41364 h -1.5312 v -1.0672 l -0.928,0.57226 q -0.9744,0.58774 -1.93334,0.57227 -1.14453,0 -1.82506,-0.696 -0.66507,-0.71147 -0.66507,-1.88693 v -5.62987 h 1.5776 v 5.44427 q 0,0.6032 0.3248,0.9744 0.3248,0.35573 0.8816,0.35573 0.52587,0 1.22187,-0.40213 l 1.33013,-0.7888 v -5.58347 h 1.54667 z"
     style=""
     id="path827" /><path
     d="m -271.24411,668.41364 h -1.5776 v -5.4288 q 0,-0.58774 -0.3248,-0.95894 -0.30934,-0.38666 -0.8816,-0.38666 -0.52587,0 -1.22187,0.40213 l -1.33013,0.7888 v 5.58347 h -1.54667 v -8.13547 h 1.5312 v 1.0672 l 0.928,-0.57227 q 0.91253,-0.57227 1.93333,-0.57227 1.14454,0 1.8096,0.71147 0.68054,0.71147 0.68054,1.88694 z"
     style=""
     id="path829" /><path
     d="m -264.71523,668.41364 h -1.0208 q -1.392,0 -2.19627,-0.71147 -0.80427,-0.71147 -0.80427,-2.07253 v -3.9904 h -1.2992 v -1.36107 h 1.31467 v -2.19627 h 1.5776 v 2.19627 h 2.3664 v 1.36107 h -2.3664 v 3.91306 q 0,0.80427 0.35573,1.14454 0.3712,0.3248 1.14454,0.3248 h 0.928 z"
     style=""
     id="path831" /><path
     d="m -257.91644,666.0163 v -1.03626 h -2.42826 q -1.54667,0 -1.54667,1.17546 0,0.47947 0.2784,0.75787 0.2784,0.26293 0.7888,0.26293 0.75787,0 1.5776,-0.44853 z m 1.54667,2.39734 h -1.54667 v -1.05174 l -0.89706,0.49494 q -1.2064,0.6496 -2.2736,0.6496 -1.0672,0 -1.73227,-0.63414 -0.6496,-0.63413 -0.6496,-1.65493 0,-1.19093 0.81973,-1.82507 0.8352,-0.63413 2.1344,-0.63413 h 2.61387 v -0.5104 q 0,-1.77867 -1.87147,-1.77867 -1.97973,0 -1.97973,1.59307 h -1.5312 v -0.0773 q 0,-1.33014 0.95893,-2.088 0.9744,-0.75787 2.53654,-0.75787 1.60853,0 2.5056,0.80427 0.91253,0.7888 0.91253,2.2272 z"
     style=""
     id="path833" /><path
     d="m -249.91315,668.41364 h -1.0208 q -1.392,0 -2.19627,-0.71147 -0.80426,-0.71147 -0.80426,-2.07253 v -3.9904 h -1.2992 v -1.36107 h 1.31466 v -2.19627 h 1.5776 v 2.19627 h 2.3664 v 1.36107 h -2.3664 v 3.91306 q 0,0.80427 0.35574,1.14454 0.3712,0.3248 1.14453,0.3248 h 0.928 z"
     style=""
     id="path835" /><path
     d="m -243.76395,668.41364 h -1.0208 q -1.392,0 -2.19627,-0.71147 -0.80427,-0.71147 -0.80427,-2.07253 v -3.9904 h -1.2992 v -1.36107 h 1.31467 v -2.19627 h 1.5776 v 2.19627 h 2.3664 v 1.36107 h -2.3664 v 3.91306 q 0,0.80427 0.35573,1.14454 0.3712,0.3248 1.14454,0.3248 h 0.928 z"
     style=""
     id="path837" /><path
     d="m -243.16946,671.2595 h -0.3712 v -1.31466 h 0.26294 q 0.58773,0 0.85066,-0.26294 0.2784,-0.26293 0.2784,-0.86613 v -8.5376 h 1.59307 v 8.6304 q 0,1.14453 -0.696,1.74773 -0.696,0.6032 -1.91787,0.6032 z m 2.72214,-13.6416 v 0.3248 q 0,0.35573 -0.26294,0.57227 -0.24746,0.21653 -0.63413,0.21653 -0.4176,0 -0.66507,-0.20107 -0.24746,-0.21653 -0.24746,-0.58773 v -0.3248 q 0,-0.3712 0.24746,-0.57227 0.24747,-0.21653 0.66507,-0.21653 0.38667,0 0.63413,0.21653 0.26294,0.21654 0.26294,0.57227 z"
     style=""
     id="path839" /><path
     d="m -233.11539,666.0163 v -1.03626 h -2.42827 q -1.54667,0 -1.54667,1.17546 0,0.47947 0.2784,0.75787 0.2784,0.26293 0.7888,0.26293 0.75787,0 1.5776,-0.44853 z m 1.54666,2.39734 h -1.54666 v -1.05174 l -0.89707,0.49494 q -1.2064,0.6496 -2.2736,0.6496 -1.0672,0 -1.73227,-0.63414 -0.6496,-0.63413 -0.6496,-1.65493 0,-1.19093 0.81974,-1.82507 0.8352,-0.63413 2.1344,-0.63413 h 2.61386 v -0.5104 q 0,-1.77867 -1.87146,-1.77867 -1.97974,0 -1.97974,1.59307 h -1.5312 v -0.0773 q 0,-1.33014 0.95894,-2.088 0.9744,-0.75787 2.53653,-0.75787 1.60853,0 2.5056,0.80427 0.91253,0.7888 0.91253,2.2272 z"
     style=""
     id="path841" /><path
     d="m -222.60869,668.41364 h -1.5776 v -5.4288 q 0,-0.58774 -0.3248,-0.95894 -0.30934,-0.38666 -0.8816,-0.38666 -0.52587,0 -1.22187,0.40213 l -1.33013,0.7888 v 5.58347 h -1.54667 v -8.13547 h 1.5312 v 1.0672 l 0.928,-0.57227 q 0.91253,-0.57227 1.93333,-0.57227 1.14454,0 1.8096,0.71147 0.68054,0.71147 0.68054,1.88694 z"
     style=""
     id="path843" /><path
     d="m -215.26227,666.0163 v -1.03626 h -2.42827 q -1.54667,0 -1.54667,1.17546 0,0.47947 0.2784,0.75787 0.2784,0.26293 0.7888,0.26293 0.75787,0 1.5776,-0.44853 z m 1.54666,2.39734 h -1.54666 v -1.05174 l -0.89707,0.49494 q -1.2064,0.6496 -2.2736,0.6496 -1.0672,0 -1.73227,-0.63414 -0.6496,-0.63413 -0.6496,-1.65493 0,-1.19093 0.81974,-1.82507 0.8352,-0.63413 2.1344,-0.63413 h 2.61386 v -0.5104 q 0,-1.77867 -1.87146,-1.77867 -1.97974,0 -1.97974,1.59307 h -1.5312 v -0.0773 q 0,-1.33014 0.95894,-2.088 0.9744,-0.75787 2.53653,-0.75787 1.60853,0 2.5056,0.80427 0.91253,0.7888 0.91253,2.2272 z"
     style=""
     id="path845" /></g>




</svg>