<?xml version="1.0" encoding="UTF-8" standalone="no"?>
<!-- Generator: Adobe Illustrator 19.1.0, SVG Export Plug-In . SVG Version: 6.00 Build 0)  -->

<svg
   xmlns:dc="http://purl.org/dc/elements/1.1/"
   xmlns:cc="http://creativecommons.org/ns#"
   xmlns:rdf="http://www.w3.org/1999/02/22-rdf-syntax-ns#"
   xmlns:svg="http://www.w3.org/2000/svg"
   xmlns="http://www.w3.org/2000/svg"
   xmlns:sodipodi="http://sodipodi.sourceforge.net/DTD/sodipodi-0.dtd"
   xmlns:inkscape="http://www.inkscape.org/namespaces/inkscape"
   version="1.1"
   id="Calque_1"
   x="0px"
   y="0px"
   viewBox="-330 571.3 138.7 138.7"
   style="enable-background:new -330 571.3 138.7 138.7;"
   xml:space="preserve"
   sodipodi:docname="main_menu_logo_invasive_species-ba.svg"
   inkscape:version="0.92.4 (5da689c313, 2019-01-14)"><metadata
   id="metadata93"><rdf:RDF><cc:Work
       rdf:about=""><dc:format>image/svg+xml</dc:format><dc:type
         rdf:resource="http://purl.org/dc/dcmitype/StillImage" /><dc:title /></cc:Work></rdf:RDF></metadata><defs
   id="defs91" /><sodipodi:namedview
   pagecolor="#ffffff"
   bordercolor="#666666"
   borderopacity="1"
   objecttolerance="10"
   gridtolerance="10"
   guidetolerance="10"
   inkscape:pageopacity="0"
   inkscape:pageshadow="2"
   inkscape:window-width="1920"
   inkscape:window-height="1017"
   id="namedview89"
   showgrid="false"
   inkscape:zoom="5"
   inkscape:cx="71.248875"
   inkscape:cy="69.349998"
   inkscape:window-x="-8"
   inkscape:window-y="-8"
   inkscape:window-maximized="1"
   inkscape:current-layer="text97" /><style
   type="text/css"
   id="style2">
	.st0{fill:#559973;}
	.st1{fill:#FFFFFF;}
</style><g
   id="g6"><path
     class="st0"
     d="M-330,640.7c0-38.3,31-69.3,69.3-69.3c38.3,0,69.3,31,69.3,69.3s-31,69.3-69.3,69.3   C-299,710-330,679-330,640.7"
     id="path4" /></g><g
   id="g86"><g
     id="g44"><path
       class="st1"
       d="M-246.8,607.9c-6.1-6.3-16.1-6.5-22.4-0.4c-6.3,6.1-6.5,16.1-0.4,22.4c6.1,6.3,16.1,6.5,22.4,0.4    C-240.9,624.2-240.7,614.2-246.8,607.9"
       id="path42" /></g><g
     id="g48"><path
       class="st1"
       d="M-281.2,629c3.9-3.8,4-10.1,0.2-14c-3.8-3.9-10.1-4-14-0.2c-3.9,3.8-4,10.1-0.2,14    C-291.5,632.7-285.2,632.8-281.2,629"
       id="path46" /></g><g
     id="g52"><path
       class="st1"
       d="M-225.4,616c-2.8-2.9-7.5-3-10.5-0.2c-2.9,2.8-3,7.5-0.2,10.5c2.8,2.9,7.5,3,10.5,0.2    C-222.6,623.6-222.5,618.9-225.4,616"
       id="path50" /></g><g
     id="g56"><path
       class="st1"
       d="M-281.4,632.4c-2.9,2.8-3,7.5-0.2,10.5c2.8,2.9,7.5,3,10.5,0.2c2.9-2.8,3-7.5,0.2-10.5    C-273.8,629.7-278.4,629.6-281.4,632.4"
       id="path54" /></g><g
     id="g60"><path
       class="st1"
       d="M-264,639.8c-1.9,1.9-2,5-0.1,6.9c1.9,1.9,5,2,6.9,0.1c1.9-1.9,2-5,0.1-6.9C-259,637.9-262.1,637.9-264,639.8    "
       id="path58" /></g><g
     id="g64"><path
       class="st1"
       d="M-276.2,605.6c1.9-1.9,2-5,0.1-6.9c-1.9-1.9-5-2-6.9-0.1c-1.9,1.9-2,5-0.1,6.9    C-281.2,607.5-278.1,607.5-276.2,605.6"
       id="path62" /></g><g
     id="g68"><path
       class="st1"
       d="M-250.9,596.6c1.9-1.9,2-5,0.1-6.9c-1.9-1.9-5-2-6.9-0.1c-1.9,1.9-2,5-0.1,6.9S-252.9,598.5-250.9,596.6"
       id="path66" /></g><g
     id="g72"><path
       class="st1"
       d="M-241.2,634.8c-1.9,1.9-2,5-0.1,6.9c1.9,1.9,5,2,6.9,0.1c1.9-1.9,2-5,0.1-6.9    C-236.1,633-239.2,632.9-241.2,634.8"
       id="path70" /></g><g
     id="g76"><path
       class="st1"
       d="M-229.3,640.3c-1,0.9-1,2.5-0.1,3.5c0.9,1,2.5,1,3.5,0.1c1-0.9,1-2.5,0.1-3.5    C-226.7,639.4-228.3,639.3-229.3,640.3"
       id="path74" /></g><g
     id="g80"><path
       class="st1"
       d="M-290.8,638.1c-1,0.9-1,2.5-0.1,3.5c0.9,1,2.5,1,3.5,0.1c1-0.9,1-2.5,0.1-3.5    C-288.2,637.2-289.8,637.1-290.8,638.1"
       id="path78" /></g><g
     id="g84"><path
       class="st1"
       d="M-249.5,601.6c0.9,1,2.5,1,3.5,0.1c1-0.9,1-2.5,0.1-3.5c-0.9-1-2.5-1-3.5-0.1    C-250.4,599.1-250.4,600.6-249.5,601.6"
       id="path82" /></g></g><g
   aria-label="Invazivne 
vrste"
   style="font-style:normal;font-variant:normal;font-weight:normal;font-stretch:normal;font-size:15.46666718px;line-height:1.25;font-family:KonsensMedium;-inkscape-font-specification:'KonsensMedium, Normal';font-variant-ligatures:normal;font-variant-caps:normal;font-variant-numeric:normal;font-feature-settings:normal;text-align:center;letter-spacing:0px;word-spacing:0px;writing-mode:lr-tb;text-anchor:middle;fill:#ffffff;fill-opacity:1;stroke:none"
   id="text97"><path
     d="m -291.95128,670.15735 h -1.73227 v -11.5072 h 1.73227 z"
     style=""
     id="path843" /><path
     d="m -282.73967,670.15735 h -1.5776 v -5.4288 q 0,-0.58773 -0.3248,-0.95893 -0.30934,-0.38667 -0.8816,-0.38667 -0.52587,0 -1.22187,0.40213 l -1.33013,0.7888 v 5.58347 h -1.54667 v -8.13547 h 1.5312 v 1.0672 l 0.928,-0.57226 q 0.91253,-0.57227 1.93333,-0.57227 1.14454,0 1.8096,0.71147 0.68054,0.71146 0.68054,1.88693 z"
     style=""
     id="path845" /><path
     d="m -276.93773,670.15735 h -1.7632 l -2.90773,-8.13547 h 1.7168 l 2.10347,6.3568 2.1344,-6.3568 h 1.624 z"
     style=""
     id="path847" /><path
     d="m -267.78438,667.76002 v -1.03627 h -2.42826 q -1.54667,0 -1.54667,1.17547 0,0.47946 0.2784,0.75786 0.2784,0.26294 0.7888,0.26294 0.75787,0 1.5776,-0.44854 z m 1.54667,2.39733 h -1.54667 v -1.05173 l -0.89706,0.49493 q -1.2064,0.6496 -2.2736,0.6496 -1.0672,0 -1.73227,-0.63413 -0.6496,-0.63414 -0.6496,-1.65494 0,-1.19093 0.81973,-1.82506 0.8352,-0.63414 2.1344,-0.63414 h 2.61387 v -0.5104 q 0,-1.77866 -1.87147,-1.77866 -1.97973,0 -1.97973,1.59306 h -1.5312 v -0.0773 q 0,-1.33013 0.95893,-2.088 0.9744,-0.75787 2.53654,-0.75787 1.60853,0 2.5056,0.80427 0.91253,0.7888 0.91253,2.2272 z"
     style=""
     id="path849" /><path
     d="m -257.59885,670.15735 h -6.8208 v -1.3456 l 4.7792,-5.4288 h -4.79466 v -1.36107 h 6.7744 v 1.3456 l -4.74827,5.44427 h 4.81013 z"
     style=""
     id="path851" /><path
     d="m -254.01396,670.15735 h -1.59307 v -8.13547 h 1.59307 z m 0.10826,-10.79574 v 0.3248 q 0,0.35574 -0.26293,0.57227 -0.24747,0.21653 -0.63413,0.21653 -0.4176,0 -0.66507,-0.20106 -0.24747,-0.21654 -0.24747,-0.58774 v -0.3248 q 0,-0.3712 0.24747,-0.57226 0.24747,-0.21654 0.66507,-0.21654 0.38666,0 0.63413,0.21654 0.26293,0.21653 0.26293,0.57226 z"
     style=""
     id="path853" /><path
     d="m -247.92082,670.15735 h -1.7632 l -2.90773,-8.13547 h 1.7168 l 2.10346,6.3568 2.1344,-6.3568 h 1.624 z"
     style=""
     id="path855" /><path
     d="m -236.76259,670.15735 h -1.5776 v -5.4288 q 0,-0.58773 -0.3248,-0.95893 -0.30933,-0.38667 -0.8816,-0.38667 -0.52586,0 -1.22186,0.40213 l -1.33014,0.7888 v 5.58347 h -1.54666 v -8.13547 h 1.5312 v 1.0672 l 0.928,-0.57226 q 0.91253,-0.57227 1.93333,-0.57227 1.14453,0 1.8096,0.71147 0.68053,0.71146 0.68053,1.88693 z"
     style=""
     id="path857" /><path
     d="m -227.80763,667.57442 v 0.0773 q 0,1.19093 -0.94346,1.91787 -0.94347,0.72693 -2.52107,0.72693 -1.5776,0 -2.56747,-0.81973 -0.98986,-0.8352 -0.98986,-2.2736 v -1.9488 q 0,-1.51574 0.98986,-2.42827 0.98987,-0.91253 2.552,-0.91253 1.56214,0 2.53654,0.91253 0.9744,0.89707 0.9744,2.44373 v 1.37654 h -5.55254 v 0.464 q 0,0.91253 0.5568,1.392 0.57227,0.464 1.50027,0.464 1.96427,0 1.96427,-1.392 z m -1.45386,-2.088 v -0.24747 q 0,-0.95893 -0.54134,-1.46933 -0.52586,-0.52587 -1.4848,-0.52587 -0.95893,0 -1.50026,0.52587 -0.54134,0.52586 -0.54134,1.4848 v 0.232 z"
     style=""
     id="path859" /><path
     d="m -274.45884,689.49068 h -1.7632 l -2.90774,-8.13546 h 1.7168 l 2.10347,6.3568 2.1344,-6.3568 h 1.624 z"
     style=""
     id="path861" /><path
     d="m -268.60568,689.49068 h -1.5776 v -8.13546 h 1.54667 v 1.23733 l 0.3712,-0.3712 q 0.9744,-0.89707 2.11894,-0.89707 h 0.4176 v 1.60854 h -0.40214 q -1.05173,0 -1.79413,0.61866 l -0.68054,0.5568 z"
     style=""
     id="path863" /><path
     d="m -257.88727,683.95362 h -1.54667 q 0,-1.392 -1.82507,-1.392 -0.86613,0 -1.33013,0.30933 -0.44853,0.30933 -0.44853,0.81973 0,0.47947 0.38666,0.7424 0.38667,0.26294 0.95894,0.3248 0.57226,0.0619 1.23733,0.1856 0.68053,0.12374 1.2528,0.29387 0.57227,0.15467 0.95893,0.63413 0.38667,0.47947 0.38667,1.2528 0,1.14454 -0.91253,1.82507 -0.91254,0.66507 -2.5056,0.66507 -1.60854,0 -2.53654,-0.72694 -0.91253,-0.72693 -0.91253,-1.91786 v -0.0773 h 1.59307 q 0,1.40747 1.88693,1.40747 0.89707,0 1.37653,-0.29387 0.49494,-0.30933 0.49494,-0.81973 0,-0.5104 -0.54134,-0.7424 -0.52586,-0.232 -1.28373,-0.3248 -0.75787,-0.0928 -1.5312,-0.24747 -0.75787,-0.15466 -1.2992,-0.68053 -0.52587,-0.54133 -0.52587,-1.46933 0,-1.14454 0.8816,-1.8096 0.89707,-0.66507 2.44374,-0.66507 1.59306,0 2.4592,0.72693 0.8816,0.71147 0.8816,1.91787 z"
     style=""
     id="path865" /><path
     d="m -251.40795,689.49068 h -1.0208 q -1.392,0 -2.19627,-0.71146 -0.80426,-0.71147 -0.80426,-2.07254 v -3.9904 h -1.2992 v -1.36106 h 1.31466 v -2.19627 h 1.5776 v 2.19627 h 2.3664 v 1.36106 h -2.3664 v 3.91307 q 0,0.80427 0.35574,1.14453 0.3712,0.3248 1.14453,0.3248 h 0.928 z"
     style=""
     id="path867" /><path
     d="m -243.29303,686.90775 v 0.0773 q 0,1.19094 -0.94346,1.91787 -0.94347,0.72693 -2.52107,0.72693 -1.5776,0 -2.56747,-0.81973 -0.98986,-0.8352 -0.98986,-2.2736 v -1.9488 q 0,-1.51573 0.98986,-2.42827 0.98987,-0.91253 2.552,-0.91253 1.56214,0 2.53654,0.91253 0.9744,0.89707 0.9744,2.44374 v 1.37653 h -5.55254 v 0.464 q 0,0.91253 0.5568,1.392 0.57227,0.464 1.50027,0.464 1.96427,0 1.96427,-1.392 z m -1.45386,-2.088 v -0.24747 q 0,-0.95893 -0.54134,-1.46933 -0.52586,-0.52587 -1.4848,-0.52587 -0.95893,0 -1.50026,0.52587 -0.54134,0.52587 -0.54134,1.4848 v 0.232 z"
     style=""
     id="path869" /></g>



</svg>