<?xml version="1.0" encoding="UTF-8" standalone="no"?>
<!-- Generator: Adobe Illustrator 19.1.0, SVG Export Plug-In . SVG Version: 6.00 Build 0)  -->

<svg
   xmlns:dc="http://purl.org/dc/elements/1.1/"
   xmlns:cc="http://creativecommons.org/ns#"
   xmlns:rdf="http://www.w3.org/1999/02/22-rdf-syntax-ns#"
   xmlns:svg="http://www.w3.org/2000/svg"
   xmlns="http://www.w3.org/2000/svg"
   xmlns:sodipodi="http://sodipodi.sourceforge.net/DTD/sodipodi-0.dtd"
   xmlns:inkscape="http://www.inkscape.org/namespaces/inkscape"
   version="1.1"
   id="Calque_1"
   x="0px"
   y="0px"
   viewBox="-33.6 228.6 138.2 138.2"
   xml:space="preserve"
   sodipodi:docname="main_menu_logo_map-ba.svg"
   inkscape:version="0.92.4 (5da689c313, 2019-01-14)"
   width="138.2"
   height="138.2"><metadata
     id="metadata105"><rdf:RDF><cc:Work
         rdf:about=""><dc:format>image/svg+xml</dc:format><dc:type
           rdf:resource="http://purl.org/dc/dcmitype/StillImage" /><dc:title /></cc:Work></rdf:RDF></metadata><defs
     id="defs103" /><sodipodi:namedview
     pagecolor="#ffffff"
     bordercolor="#666666"
     borderopacity="1"
     objecttolerance="10"
     gridtolerance="10"
     guidetolerance="10"
     inkscape:pageopacity="0"
     inkscape:pageshadow="2"
     inkscape:window-width="1920"
     inkscape:window-height="1017"
     id="namedview101"
     showgrid="false"
     inkscape:zoom="4"
     inkscape:cx="-13.975006"
     inkscape:cy="43.725374"
     inkscape:window-x="-8"
     inkscape:window-y="-8"
     inkscape:window-maximized="1"
     inkscape:current-layer="text6172"
     fit-margin-top="0"
     fit-margin-left="0"
     fit-margin-right="0"
     fit-margin-bottom="0" /><style
     type="text/css"
     id="style2">
	.st0{fill:#D3D501;}
	.st1{fill:#FFFFFF;}
	.st2{fill:#7A9C2B;}
	.st3{fill:#E8E493;}
	.st4{fill:#40637D;}
	.st5{fill:#5E9EB5;}
	.st6{fill:#D0A82B;}
	.st7{fill:#559973;}
	.st8{fill:#00662C;}
</style><g
     id="g36"
     transform="translate(-0.20000144,-0.39997711)"><g
       id="g30"><path
         class="st1"
         d="m 24.1,315.9 c 0,0.4 0.2,0.8 0.6,1 0.4,0.2 0.8,0.2 1.2,-0.1 l 7.7,-5.3 -9.5,-4.5 z"
         id="path28"
         inkscape:connector-curvature="0"
         style="fill:#ffffff" /></g><g
       id="g34"><path
         class="st1"
         d="m 70,256.5 c -0.2,-0.2 -0.5,-0.3 -0.8,-0.3 -0.2,0 -0.3,0 -0.5,0.1 L 2.1,289 c -0.7,0.3 -1.1,1 -1.1,1.8 0,0.8 0.4,1.5 1.1,1.8 L 19.7,301 54.8,272.1 24,303 45.9,313.4 c 0.3,0.1 0.6,0.2 0.9,0.2 0.2,0 0.5,0 0.7,-0.1 0.5,-0.2 0.9,-0.6 1.1,-1.1 l 21.7,-54.6 c 0.2,-0.5 0.1,-1 -0.3,-1.3"
         id="path32"
         inkscape:connector-curvature="0"
         style="fill:#ffffff" /></g></g><path
     style="fill:#5e9eb5"
     d="m 104.6,297.70001 a 69.099998,69.099998 0 0 1 -69.1,69.1 69.099998,69.099998 0 0 1 -69.099998,-69.1 69.099998,69.099998 0 0 1 69.099998,-69.1 69.099998,69.099998 0 0 1 69.1,69.1 z"
     id="circle38" /><g
     id="g54"
     transform="translate(2.0902517,-0.39997711)"><path
       class="st1"
       d="M 30.5,268.5 H 10.7 c -0.8,0 -1.5,0.5 -1.7,1.3 l -3.8,13.1 26.6,2.9 2.1,-10 c -1.3,-2.3 -2.5,-4.8 -3.4,-7.3 z"
       id="path40"
       inkscape:connector-curvature="0"
       style="fill:#ffffff" /><path
       class="st1"
       d="m 55.4,288.4 8,0.9 L 61,281 c -0.3,0.5 -0.6,0.9 -1,1.4 -1.6,2.3 -3.2,4.3 -4.6,6 z"
       id="path42"
       inkscape:connector-curvature="0"
       style="fill:#ffffff" /><g
       id="g52"><path
         class="st1"
         d="m 38,282.3 -0.9,4.1 4.3,0.5 c -1,-1.4 -2.1,-2.9 -3.4,-4.6 0.1,0.1 0.1,0 0,0 z"
         id="path44"
         inkscape:connector-curvature="0"
         style="fill:#ffffff" /><path
         class="st1"
         d="m 0.1,300.6 c -0.2,0.5 0,1.1 0.3,1.6 0.3,0.4 0.9,0.7 1.4,0.7 h 26.4 l 2.5,-11.8 -27,-3 z"
         id="path46"
         inkscape:connector-curvature="0"
         style="fill:#ffffff" /><path
         class="st1"
         d="m 65,294.8 -28.9,-3.2 -2.3,11.2 H 65 c 1,0 1.8,-0.8 1.8,-1.8 0,-0.2 0,-0.4 -0.1,-0.6 z"
         id="path48"
         inkscape:connector-curvature="0"
         style="fill:#ffffff" /><path
         class="st1"
         d="m 48.3,290.7 c 0.2,0.2 0.5,0.3 0.7,0.3 0.3,0 0.5,-0.1 0.7,-0.3 1.6,-1.7 4.8,-5.3 8,-9.8 4,-5.7 8.9,-14.1 8.9,-21.5 0,-9.7 -7.9,-17.7 -17.7,-17.7 -9.7,0 -17.7,7.9 -17.7,17.7 0,7.5 4.8,15.8 8.9,21.5 3.4,4.5 6.6,8 8.2,9.8 z m 0.8,-42.4 c 5.9,0 10.8,4.8 10.8,10.8 0,5.9 -4.8,10.8 -10.8,10.8 -5.9,0 -10.8,-4.8 -10.8,-10.8 0,-6 4.8,-10.8 10.8,-10.8 z"
         id="path50"
         inkscape:connector-curvature="0"
         style="fill:#ffffff" /></g></g><g
     id="g98"
     transform="translate(18.292845,-14.399977)"><g
       id="g96"><g
   aria-label="Karta sa 
unosima"
   style="font-style:normal;font-variant:normal;font-weight:normal;font-stretch:normal;font-size:15.46666718px;line-height:1.25;font-family:KonsensMedium;-inkscape-font-specification:'KonsensMedium, Normal';font-variant-ligatures:normal;font-variant-caps:normal;font-variant-numeric:normal;font-feature-settings:normal;text-align:center;letter-spacing:0px;word-spacing:0px;writing-mode:lr-tb;text-anchor:middle;fill:#ffffff;fill-opacity:1;stroke:none"
   id="text6172"><path
     d="m -3.5968129,344.09995 h -1.9333334 l -3.1242668,-5.69174 -2.2735999,2.72213 v 2.96961 h -1.685867 v -11.50721 h 1.685867 v 6.3568 l 5.0421333,-6.3568 h 2.1189334 l -3.6810667,4.46987 z"
     style=""
     id="path834" /><path
     d="m 3.0785039,341.70261 v -1.03627 H 0.65023719 q -1.54666672,0 -1.54666672,1.17547 0,0.47947 0.27840001,0.75787 0.27840001,0.26293 0.78880002,0.26293 0.7578667,0 1.5776001,-0.44853 z m 1.5466668,2.39734 H 3.0785039 v -1.05174 l -0.8970667,0.49494 q -1.2064,0.6496 -2.27360004,0.6496 -1.06720006,0 -1.73226676,-0.63414 -0.6496,-0.63413 -0.6496,-1.65493 0,-1.19094 0.8197334,-1.82507 0.83520001,-0.63413 2.13440005,-0.63413 H 3.0939706 v -0.5104 q 0,-1.77867 -1.8714667,-1.77867 -1.97973343,0 -1.97973343,1.59307 H -2.2884296 v -0.0773 q 0,-1.33013 0.9589334,-2.088 0.97440002,-0.75786 2.5365334,-0.75786 1.6085334,0 2.5056001,0.80426 0.9125334,0.7888 0.9125334,2.2272 z"
     style=""
     id="path836" /><path
     d="M 8.2801361,344.09995 H 6.702536 v -8.13547 h 1.5466667 v 1.23733 l 0.3712,-0.3712 q 0.9744001,-0.89707 2.1189333,-0.89707 h 0.4176 v 1.60854 h -0.402133 q -1.0517336,0 -1.7941336,0.61866 l -0.6805333,0.5568 z"
     style=""
     id="path838" /><path
     d="m 17.049737,344.09995 h -1.0208 q -1.392,0 -2.196266,-0.71147 -0.804267,-0.71147 -0.804267,-2.07254 v -3.9904 h -1.2992 v -1.36106 h 1.314667 v -2.19627 h 1.5776 v 2.19627 h 2.3664 v 1.36106 h -2.3664 v 3.91307 q 0,0.80427 0.355733,1.14454 0.3712,0.3248 1.144533,0.3248 h 0.928 z"
     style=""
     id="path840" /><path
     d="m 23.861838,341.70261 v -1.03627 h -2.428267 q -1.546667,0 -1.546667,1.17547 0,0.47947 0.2784,0.75787 0.2784,0.26293 0.7888,0.26293 0.757867,0 1.5776,-0.44853 z m 1.546666,2.39734 h -1.546666 v -1.05174 l -0.897067,0.49494 q -1.2064,0.6496 -2.2736,0.6496 -1.0672,0 -1.732267,-0.63414 -0.6496,-0.63413 -0.6496,-1.65493 0,-1.19094 0.819734,-1.82507 0.8352,-0.63413 2.1344,-0.63413 h 2.613866 v -0.5104 q 0,-1.77867 -1.871466,-1.77867 -1.979734,0 -1.979734,1.59307 h -1.5312 v -0.0773 q 0,-1.33013 0.958934,-2.088 0.9744,-0.75786 2.536533,-0.75786 1.608533,0 2.5056,0.80426 0.912533,0.7888 0.912533,2.2272 z"
     style=""
     id="path842" /><path
     d="m 38.452706,338.56288 h -1.546667 q 0,-1.392 -1.825067,-1.392 -0.866133,0 -1.330133,0.30933 -0.448533,0.30933 -0.448533,0.81973 0,0.47947 0.386666,0.7424 0.386667,0.26294 0.958934,0.3248 0.572266,0.0619 1.237333,0.1856 0.680533,0.12374 1.2528,0.29387 0.572267,0.15467 0.958933,0.63413 0.386667,0.47947 0.386667,1.2528 0,1.14454 -0.912533,1.82507 -0.912534,0.66507 -2.5056,0.66507 -1.608534,0 -2.536534,-0.72693 -0.912533,-0.72694 -0.912533,-1.91787 v -0.0773 h 1.593067 q 0,1.40747 1.886933,1.40747 0.897067,0 1.376533,-0.29386 0.494934,-0.30934 0.494934,-0.81974 0,-0.5104 -0.541334,-0.7424 -0.525866,-0.232 -1.283733,-0.3248 -0.757867,-0.0928 -1.5312,-0.24747 -0.757867,-0.15466 -1.2992,-0.68053 -0.525867,-0.54133 -0.525867,-1.46933 0,-1.14454 0.8816,-1.8096 0.897067,-0.66507 2.443734,-0.66507 1.593066,0 2.4592,0.72693 0.8816,0.71147 0.8816,1.91787 z"
     style=""
     id="path844" /><path
     d="m 45.581629,341.70261 v -1.03627 h -2.428267 q -1.546666,0 -1.546666,1.17547 0,0.47947 0.2784,0.75787 0.2784,0.26293 0.7888,0.26293 0.757866,0 1.5776,-0.44853 z m 1.546667,2.39734 h -1.546667 v -1.05174 l -0.897067,0.49494 q -1.2064,0.6496 -2.2736,0.6496 -1.0672,0 -1.732266,-0.63414 -0.6496,-0.63413 -0.6496,-1.65493 0,-1.19094 0.819733,-1.82507 0.8352,-0.63413 2.1344,-0.63413 h 2.613867 v -0.5104 q 0,-1.77867 -1.871467,-1.77867 -1.979733,0 -1.979733,1.59307 h -1.5312 v -0.0773 q 0,-1.33013 0.958933,-2.088 0.9744,-0.75786 2.536533,-0.75786 1.608534,0 2.5056,0.80426 0.912534,0.7888 0.912534,2.2272 z"
     style=""
     id="path846" /><path
     d="m -5.5989005,363.43328 h -1.5312 v -1.0672 l -0.9280001,0.57227 q -0.9744,0.58773 -1.9333334,0.57226 -1.144533,0 -1.825067,-0.696 -0.665066,-0.71146 -0.665066,-1.88693 v -5.62987 h 1.5776 v 5.44427 q 0,0.6032 0.3248,0.9744 0.3248,0.35573 0.8815997,0.35573 0.5258667,0 1.2218667,-0.40213 l 1.3301334,-0.7888 v -5.58347 h 1.5466667 z"
     style=""
     id="path848" /><path
     d="m 3.5107252,363.43328 h -1.5776 v -5.4288 q 0,-0.58773 -0.3248,-0.95893 -0.3093334,-0.38667 -0.88160008,-0.38667 -0.52586668,0 -1.2218667,0.40213 l -1.33013342,0.7888 v 5.58347 h -1.5466667 v -8.13547 h 1.5312001 v 1.0672 l 0.928,-0.57226 q 0.91253336462,-0.57227 1.9333334,-0.57227 1.1445334,0 1.8096001,0.71147 0.6805333,0.71146 0.6805333,1.88693 z"
     style=""
     id="path850" /><path
     d="m 11.166484,360.10795 v -1.4384 q 0,-0.98987 -0.587733,-1.54667 -0.572267,-0.5568 -1.5157335,-0.5568 -0.9589334,0 -1.5312001,0.5568 -0.5722667,0.5568 -0.5722667,1.54667 v 1.4384 q 0,0.98986 0.5722667,1.56213 0.5722667,0.5568 1.5312001,0.5568 0.9434665,0 1.5157335,-0.5568 0.587733,-0.5568 0.587733,-1.56213 z m 1.515734,-1.5776 v 1.73226 q 0,1.51574 -1.0208,2.42827 -1.005334,0.91253 -2.5984005,0.91253 -1.5930668,0 -2.6138668,-0.91253 -1.0053334,-0.91253 -1.0053334,-2.42827 v -1.73226 q 0,-1.51574 1.0053334,-2.42827 1.0208,-0.91253 2.6138668,-0.91253 1.5930665,0 2.5984005,0.91253 1.0208,0.91253 1.0208,2.42827 z"
     style=""
     id="path852" /><path
     d="m 21.188644,357.89621 h -1.546666 q 0,-1.392 -1.825067,-1.392 -0.866134,0 -1.330134,0.30934 -0.448533,0.30933 -0.448533,0.81973 0,0.47947 0.386667,0.7424 0.386666,0.26293 0.958933,0.3248 0.572267,0.0619 1.237333,0.1856 0.680534,0.12373 1.252801,0.29387 0.572266,0.15466 0.958933,0.63413 0.386667,0.47947 0.386667,1.2528 0,1.14453 -0.912534,1.82507 -0.912533,0.66506 -2.5056,0.66506 -1.608533,0 -2.536533,-0.72693 -0.912534,-0.72693 -0.912534,-1.91787 v -0.0773 h 1.593067 q 0,1.40747 1.886933,1.40747 0.897067,0 1.376534,-0.29387 0.494933,-0.30933 0.494933,-0.81973 0,-0.5104 -0.541333,-0.7424 -0.525867,-0.232 -1.283734,-0.3248 -0.757866,-0.0928 -1.5312,-0.24747 -0.757866,-0.15467 -1.2992,-0.68053 -0.525866,-0.54134 -0.525866,-1.46934 0,-1.14453 0.8816,-1.8096 0.897066,-0.66506 2.443733,-0.66506 1.593067,0 2.4592,0.72693 0.8816,0.71147 0.8816,1.91787 z"
     style=""
     id="path854" /><path
     d="m 24.744768,363.43328 h -1.593067 v -8.13547 h 1.593067 z m 0.108266,-10.79573 v 0.3248 q 0,0.35573 -0.262933,0.57226 -0.247467,0.21654 -0.634133,0.21654 -0.417601,0 -0.665067,-0.20107 -0.247467,-0.21653 -0.247467,-0.58773 v -0.3248 q 0,-0.3712 0.247467,-0.57227 0.247466,-0.21653 0.665067,-0.21653 0.386666,0 0.634133,0.21653 0.262933,0.21653 0.262933,0.57227 z"
     style=""
     id="path856" /><path
     d="m 37.952578,363.43328 h -1.562133 v -5.62987 q 0,-1.12906 -0.943467,-1.12906 -0.448533,0 -1.098133,0.3712 l -1.098133,0.6496 v 5.73813 h -1.546667 v -5.62987 q 0,-1.1136 -0.958933,-1.1136 -0.479467,0 -1.082667,0.35574 l -1.098134,0.6496 v 5.73813 h -1.546666 v -8.13547 h 1.515733 v 0.95894 l 0.773334,-0.464 q 0.866133,-0.5568 1.778666,-0.5568 1.407467,0 1.9024,1.14453 l 0.928,-0.57227 q 0.958934,-0.57226 1.871467,-0.57226 1.0208,0 1.593067,0.63413 0.572266,0.61867 0.572266,1.74773 z"
     style=""
     id="path858" /><path
     d="m 45.294653,361.03595 v -1.03627 h -2.428267 q -1.546667,0 -1.546667,1.17547 0,0.47946 0.2784,0.75786 0.2784,0.26294 0.7888,0.26294 0.757867,0 1.5776,-0.44854 z m 1.546666,2.39733 h -1.546666 v -1.05173 l -0.897067,0.49493 q -1.2064,0.6496 -2.2736,0.6496 -1.0672,0 -1.732267,-0.63413 -0.6496,-0.63414 -0.6496,-1.65494 0,-1.19093 0.819734,-1.82506 0.8352,-0.63414 2.1344,-0.63414 h 2.613866 v -0.5104 q 0,-1.77866 -1.871466,-1.77866 -1.979734,0 -1.979734,1.59306 h -1.5312 v -0.0773 q 0,-1.33013 0.958934,-2.088 0.9744,-0.75787 2.536533,-0.75787 1.608533,0 2.5056,0.80427 0.912533,0.7888 0.912533,2.2272 z"
     style=""
     id="path860" /></g>




</g></g></svg>