<?xml version="1.0" encoding="UTF-8" standalone="no"?>
<!-- Generator: Adobe Illustrator 19.1.0, SVG Export Plug-In . SVG Version: 6.00 Build 0)  -->

<svg
   xmlns:dc="http://purl.org/dc/elements/1.1/"
   xmlns:cc="http://creativecommons.org/ns#"
   xmlns:rdf="http://www.w3.org/1999/02/22-rdf-syntax-ns#"
   xmlns:svg="http://www.w3.org/2000/svg"
   xmlns="http://www.w3.org/2000/svg"
   xmlns:sodipodi="http://sodipodi.sourceforge.net/DTD/sodipodi-0.dtd"
   xmlns:inkscape="http://www.inkscape.org/namespaces/inkscape"
   version="1.1"
   id="Calque_1"
   x="0px"
   y="0px"
   viewBox="-330 571.3 138.7 138.7"
   style="enable-background:new -330 571.3 138.7 138.7;"
   xml:space="preserve"
   sodipodi:docname="main_menu_logo_contact-de.svg"
   inkscape:version="0.92.2 5c3e80d, 2017-08-06"><metadata
     id="metadata43"><rdf:RDF><cc:Work
         rdf:about=""><dc:format>image/svg+xml</dc:format><dc:type
           rdf:resource="http://purl.org/dc/dcmitype/StillImage" /><dc:title /></cc:Work></rdf:RDF></metadata><defs
     id="defs41" /><sodipodi:namedview
     pagecolor="#ffffff"
     bordercolor="#666666"
     borderopacity="1"
     objecttolerance="10"
     gridtolerance="10"
     guidetolerance="10"
     inkscape:pageopacity="0"
     inkscape:pageshadow="2"
     inkscape:window-width="2560"
     inkscape:window-height="1315"
     id="namedview39"
     showgrid="false"
     inkscape:zoom="5"
     inkscape:cx="16.086991"
     inkscape:cy="69.349998"
     inkscape:window-x="0"
     inkscape:window-y="1"
     inkscape:window-maximized="1"
     inkscape:current-layer="text4541" /><style
     type="text/css"
     id="style2">
	.st0{fill:#E8E493;}
	.st1{fill:#40637D;}
	.st2{fill:#FFFFFF;}
</style><g
     id="g6"><path
       class="st0"
       d="M-330,640.7c0-38.3,31-69.3,69.3-69.3c38.3,0,69.3,31,69.3,69.3s-31,69.3-69.3,69.3   C-299,710-330,679-330,640.7"
       id="path4"
       style="fill:#ff7837;fill-opacity:1" /></g><g
     id="g36"><g
       id="g30"><path
         class="st2"
         d="M-272.3,659c0,0.4,0.2,0.8,0.6,1c0.4,0.2,0.8,0.2,1.2-0.1l7.7-5.3l-9.5-4.5V659z"
         id="path28" /></g><g
       id="g34"><path
         class="st2"
         d="M-226.4,599.6c-0.2-0.2-0.5-0.3-0.8-0.3c-0.2,0-0.3,0-0.5,0.1l-66.6,32.7c-0.7,0.3-1.1,1-1.1,1.8    c0,0.8,0.4,1.5,1.1,1.8l17.6,8.4l35.1-28.9l-30.8,30.9l21.9,10.4c0.3,0.1,0.6,0.2,0.9,0.2c0.2,0,0.5,0,0.7-0.1    c0.5-0.2,0.9-0.6,1.1-1.1l21.7-54.6C-225.9,600.4-226,599.9-226.4,599.6"
         id="path32" /></g></g><g
     aria-label="Kontakt"
     style="font-style:normal;font-weight:normal;font-size:40px;line-height:1.25;font-family:sans-serif;letter-spacing:0px;word-spacing:0px;fill:#ffffff;fill-opacity:1;stroke:none"
     id="text4541"><path
       d="m -280.67872,684.82477 h -1.99116 l -3.21773,-5.862 -2.34161,2.80357 v 3.05843 h -1.7363 v -11.85143 h 1.7363 v 6.54696 l 5.19296,-6.54696 h 2.18232 l -3.79118,4.60358 z"
       style="font-style:normal;font-variant:normal;font-weight:normal;font-stretch:normal;font-size:15.92933273px;font-family:KonsensMedium;-inkscape-font-specification:'KonsensMedium, Normal';font-variant-ligatures:normal;font-variant-caps:normal;font-variant-numeric:normal;font-feature-settings:normal;text-align:start;writing-mode:lr-tb;text-anchor:start;fill:#ffffff;fill-opacity:1"
       id="path821" /><path
       d="m -273.48513,681.39996 v -1.48143 q 0,-1.01947 -0.60532,-1.59293 -0.58938,-0.57346 -1.56107,-0.57346 -0.98762,0 -1.577,0.57346 -0.58939,0.57346 -0.58939,1.59293 v 1.48143 q 0,1.01948 0.58939,1.60886 0.58938,0.57346 1.577,0.57346 0.97169,0 1.56107,-0.57346 0.60532,-0.57345 0.60532,-1.60886 z m 1.56107,-1.62479 v 1.78408 q 0,1.56108 -1.05133,2.50091 -1.03541,0.93983 -2.67613,0.93983 -1.64072,0 -2.69206,-0.93983 -1.0354,-0.93983 -1.0354,-2.50091 v -1.78408 q 0,-1.56108 1.0354,-2.50091 1.05134,-0.93983 2.69206,-0.93983 1.64072,0 2.67613,0.93983 1.05133,0.93983 1.05133,2.50091 z"
       style="font-style:normal;font-variant:normal;font-weight:normal;font-stretch:normal;font-size:15.92933273px;font-family:KonsensMedium;-inkscape-font-specification:'KonsensMedium, Normal';font-variant-ligatures:normal;font-variant-caps:normal;font-variant-numeric:normal;font-feature-settings:normal;text-align:start;writing-mode:lr-tb;text-anchor:start;fill:#ffffff;fill-opacity:1"
       id="path823" /><path
       d="m -262.76494,684.82477 h -1.62479 v -5.5912 q 0,-0.60531 -0.33452,-0.98762 -0.31858,-0.39823 -0.90797,-0.39823 -0.5416,0 -1.25842,0.41416 l -1.36992,0.8124 v 5.75049 h -1.59293 v -8.37883 h 1.577 v 1.09912 l 0.95576,-0.58938 q 0.93983,-0.58939 1.99117,-0.58939 1.17877,0 1.86373,0.73275 0.70089,0.73275 0.70089,1.94338 z"
       style="font-style:normal;font-variant:normal;font-weight:normal;font-stretch:normal;font-size:15.92933273px;font-family:KonsensMedium;-inkscape-font-specification:'KonsensMedium, Normal';font-variant-ligatures:normal;font-variant-caps:normal;font-variant-numeric:normal;font-feature-settings:normal;text-align:start;writing-mode:lr-tb;text-anchor:start;fill:#ffffff;fill-opacity:1"
       id="path825" /><path
       d="m -255.86779,684.82477 h -1.05133 q -1.43364,0 -2.26197,-0.73275 -0.82832,-0.73275 -0.82832,-2.13453 v -4.10977 h -1.33807 v -1.40178 h 1.354 v -2.26197 h 1.62479 v 2.26197 h 2.43719 v 1.40178 h -2.43719 v 4.03012 q 0,0.82833 0.36637,1.17877 0.38231,0.33452 1.17877,0.33452 h 0.95576 z"
       style="font-style:normal;font-variant:normal;font-weight:normal;font-stretch:normal;font-size:15.92933273px;font-family:KonsensMedium;-inkscape-font-specification:'KonsensMedium, Normal';font-variant-ligatures:normal;font-variant-caps:normal;font-variant-numeric:normal;font-feature-settings:normal;text-align:start;writing-mode:lr-tb;text-anchor:start;fill:#ffffff;fill-opacity:1"
       id="path827" /><path
       d="m -248.85191,682.35572 v -1.06726 h -2.50091 q -1.59293,0 -1.59293,1.21063 0,0.4938 0.28673,0.78053 0.28673,0.2708 0.8124,0.2708 0.78053,0 1.62479,-0.46195 z m 1.59293,2.46905 h -1.59293 v -1.0832 l -0.9239,0.50974 q -1.24249,0.66903 -2.34161,0.66903 -1.09913,0 -1.78409,-0.6531 -0.66903,-0.6531 -0.66903,-1.70444 0,-1.22656 0.84425,-1.87966 0.86019,-0.6531 2.19825,-0.6531 h 2.69206 v -0.52567 q 0,-1.83187 -1.92745,-1.83187 -2.03895,0 -2.03895,1.64072 h -1.57701 v -0.0797 q 0,-1.36992 0.98762,-2.15046 1.00355,-0.78053 2.61241,-0.78053 1.65665,0 2.58055,0.82832 0.93983,0.8124 0.93983,2.29382 z"
       style="font-style:normal;font-variant:normal;font-weight:normal;font-stretch:normal;font-size:15.92933273px;font-family:KonsensMedium;-inkscape-font-specification:'KonsensMedium, Normal';font-variant-ligatures:normal;font-variant-caps:normal;font-variant-numeric:normal;font-feature-settings:normal;text-align:start;writing-mode:lr-tb;text-anchor:start;fill:#ffffff;fill-opacity:1"
       id="path829" /><path
       d="m -237.48932,684.82477 h -1.8478 l -2.3894,-4.22128 -1.80002,1.87967 v 2.34161 h -1.59293 v -11.85143 h 1.59293 v 7.55051 l 3.75933,-4.07791 h 2.1186 l -2.88321,2.99471 z"
       style="font-style:normal;font-variant:normal;font-weight:normal;font-stretch:normal;font-size:15.92933273px;font-family:KonsensMedium;-inkscape-font-specification:'KonsensMedium, Normal';font-variant-ligatures:normal;font-variant-caps:normal;font-variant-numeric:normal;font-feature-settings:normal;text-align:start;writing-mode:lr-tb;text-anchor:start;fill:#ffffff;fill-opacity:1"
       id="path831" /><path
       d="m -231.38266,684.82477 h -1.05134 q -1.43364,0 -2.26196,-0.73275 -0.82833,-0.73275 -0.82833,-2.13453 v -4.10977 h -1.33806 v -1.40178 h 1.35399 v -2.26197 h 1.6248 v 2.26197 h 2.43718 v 1.40178 h -2.43718 v 4.03012 q 0,0.82833 0.36637,1.17877 0.3823,0.33452 1.17877,0.33452 h 0.95576 z"
       style="font-style:normal;font-variant:normal;font-weight:normal;font-stretch:normal;font-size:15.92933273px;font-family:KonsensMedium;-inkscape-font-specification:'KonsensMedium, Normal';font-variant-ligatures:normal;font-variant-caps:normal;font-variant-numeric:normal;font-feature-settings:normal;text-align:start;writing-mode:lr-tb;text-anchor:start;fill:#ffffff;fill-opacity:1"
       id="path833" /></g></svg>