<?xml version="1.0" encoding="UTF-8" standalone="no"?>
<!-- Generator: Adobe Illustrator 19.1.0, SVG Export Plug-In . SVG Version: 6.00 Build 0)  -->

<svg
   xmlns:dc="http://purl.org/dc/elements/1.1/"
   xmlns:cc="http://creativecommons.org/ns#"
   xmlns:rdf="http://www.w3.org/1999/02/22-rdf-syntax-ns#"
   xmlns:svg="http://www.w3.org/2000/svg"
   xmlns="http://www.w3.org/2000/svg"
   xmlns:sodipodi="http://sodipodi.sourceforge.net/DTD/sodipodi-0.dtd"
   xmlns:inkscape="http://www.inkscape.org/namespaces/inkscape"
   version="1.1"
   id="Calque_1"
   x="0px"
   y="0px"
   viewBox="-330 571.3 138.7 138.7"
   style="enable-background:new -330 571.3 138.7 138.7;"
   xml:space="preserve"
   sodipodi:docname="main_menu_logo_species_records-sr.svg"
   inkscape:version="0.92.4 (5da689c313, 2019-01-14)"><metadata
   id="metadata67"><rdf:RDF><cc:Work
       rdf:about=""><dc:format>image/svg+xml</dc:format><dc:type
         rdf:resource="http://purl.org/dc/dcmitype/StillImage" /></cc:Work></rdf:RDF></metadata><defs
   id="defs65" /><sodipodi:namedview
   pagecolor="#ffffff"
   bordercolor="#666666"
   borderopacity="1"
   objecttolerance="10"
   gridtolerance="10"
   guidetolerance="10"
   inkscape:pageopacity="0"
   inkscape:pageshadow="2"
   inkscape:window-width="2400"
   inkscape:window-height="1271"
   id="namedview63"
   showgrid="false"
   inkscape:zoom="4"
   inkscape:cx="-31.225006"
   inkscape:cy="69.349998"
   inkscape:window-x="2391"
   inkscape:window-y="-9"
   inkscape:window-maximized="1"
   inkscape:current-layer="Calque_1" /><style
   type="text/css"
   id="style2">
	.st0{fill:#D3D501;}
	.st1{fill:#40637D;}
	.st2{fill:#FFFFFF;}
</style><g
   id="g6"><path
     class="st0"
     d="M-330,640.7c0-38.3,31-69.3,69.3-69.3c38.3,0,69.3,31,69.3,69.3s-31,69.3-69.3,69.3   C-299,710-330,679-330,640.7"
     id="path4" /></g><g
   id="g60"
   transform="translate(0,1.549997)"><g
     id="g46"><path
       class="st2"
       d="m -249.7,639.4 c -0.4,0.6 -1.1,1.1 -1.9,1.3 l -3.7,1 c -0.3,0.1 -0.6,0.1 -0.9,0.1 -0.7,0 -1.4,-0.2 -1.9,-0.6 -0.8,-0.6 -1.3,-1.5 -1.4,-2.5 l -0.3,-3.9 c -0.1,-0.8 0.1,-1.6 0.6,-2.2 l 0.1,-0.2 h -13.4 c -1.1,0 -2,-0.9 -2,-2 0,-1.1 0.9,-2 2,-2 h 16.2 l 3.6,-5.2 h -19.8 c -1.1,0 -2,-0.9 -2,-2 0,-1.1 0.9,-2 2,-2 l 22.6,-0.1 8.5,-12.1 v -9 c 0,-1.5 -1.1,-2.7 -2.6,-2.7 h -6.5 v 5.1 c 0,2.4 -2,4.3 -4.4,4.3 h -13 c -2.4,0 -4.3,-1.9 -4.3,-4.3 v -5.1 h -6.5 c -1.5,0 -2.7,1.2 -2.7,2.7 v 45.9 c 0,1.5 1.2,2.7 2.7,2.7 h 34.8 c 1.5,0 2.6,-1.3 2.6,-2.7 v -16.4 z m -22.8,-29.1 h 22 c 1.1,0 2,0.9 2,2 0,1.1 -0.9,2 -2,2 h -22 c -1.1,0 -2,-0.9 -2,-2 0,-1.1 0.9,-2 2,-2"
       id="path44"
       inkscape:connector-curvature="0"
       style="fill:#ffffff" /></g><g
     id="g50"><path
       class="st2"
       d="m -268,602.5 h 13 c 1,0 1.8,-0.8 1.8,-1.8 v -7.5 c 0,-1 -0.8,-1.8 -1.8,-1.8 h -2 c 0,-2.5 -2.1,-4.6 -4.6,-4.6 -2.5,0 -4.6,2 -4.6,4.6 h -1.9 c -1,0 -1.8,0.8 -1.8,1.8 v 7.5 c 0.1,1 0.9,1.8 1.9,1.8 m 6.5,-13.1 c 1.1,0 2,0.9 2,2 h -4.1 c 0.1,-1.1 1,-2 2.1,-2"
       id="path48"
       inkscape:connector-curvature="0"
       style="fill:#ffffff" /></g><g
     id="g54"><path
       class="st2"
       d="m -225,598.9 c -0.1,-0.3 -0.2,-0.6 -0.5,-0.8 l -3.3,-2.3 c -0.2,-0.2 -0.5,-0.2 -0.7,-0.2 -0.4,0 -0.8,0.2 -1,0.5 l -23.1,33.1 5.3,3.7 23.1,-33.1 c 0.2,-0.2 0.2,-0.6 0.2,-0.9"
       id="path52"
       inkscape:connector-curvature="0"
       style="fill:#ffffff" /></g><g
     id="g58"><path
       class="st2"
       d="m -257.3,634.6 0.3,3.9 c 0,0.2 0.1,0.4 0.3,0.5 0.1,0.1 0.3,0.1 0.4,0.1 0.1,0 0.1,0 0.2,0 l 3.8,-1 c 0.2,0 0.3,-0.2 0.4,-0.3 l 1.4,-2 -5.3,-3.7 -1.4,2 c -0.1,0.2 -0.1,0.4 -0.1,0.5"
       id="path56"
       inkscape:connector-curvature="0"
       style="fill:#ffffff" /></g></g><g
   aria-label="Моје врсте 
записи"
   style="font-style:normal;font-variant:normal;font-weight:normal;font-stretch:normal;font-size:15.46666718px;line-height:1.25;font-family:KonsensMedium;-inkscape-font-specification:'KonsensMedium, Normal';font-variant-ligatures:normal;font-variant-caps:normal;font-variant-numeric:normal;font-feature-settings:normal;text-align:center;letter-spacing:0px;word-spacing:0px;writing-mode:lr-tb;text-anchor:middle;fill:#40637d;fill-opacity:1;stroke:none"
   id="text71"><path
     d="m -292.98734,670.2074 h -1.49531 v -9.68933 l -3.12657,6.59297 h -0.89114 l -3.10391,-6.59297 v 9.68933 h -1.39713 v -11.24505 h 2.03906 l 2.99818,6.26067 2.9,-6.26067 h 2.07682 z"
     style=""
     id="path826" /><path
     d="m -282.8751,665.99333 q 0,2.06172 -1.05729,3.25495 -1.05729,1.19323 -2.83203,1.19323 -1.78985,0 -2.84714,-1.19323 -1.04974,-1.19323 -1.04974,-3.25495 0,-2.06171 1.04974,-3.25494 1.05729,-1.20078 2.84714,-1.20078 1.77474,0 2.83203,1.20078 1.05729,1.19323 1.05729,3.25494 z m -1.4651,0 q 0,-1.6388 -0.64193,-2.43177 -0.64193,-0.80052 -1.78229,-0.80052 -1.15547,0 -1.7974,0.80052 -0.63437,0.79297 -0.63437,2.43177 0,1.58594 0.64192,2.40912 0.64193,0.81562 1.78985,0.81562 1.13281,0 1.77474,-0.80807 0.64948,-0.81562 0.64948,-2.41667 z"
     style=""
     id="path828" /><path
     d="m -278.04177,660.35948 h -1.60104 v -1.47266 h 1.60104 z m -0.0906,10.05182 q 0,1.48021 -0.75521,2.23542 -0.75521,0.75521 -2.02396,0.75521 -0.30208,0 -0.80052,-0.0604 -0.49089,-0.0604 -0.82318,-0.15104 v -1.35182 h 0.0755 q 0.21146,0.0831 0.56641,0.1888 0.3625,0.10573 0.70234,0.10573 0.54375,0 0.87605,-0.15104 0.33229,-0.15104 0.49843,-0.45313 0.16615,-0.30208 0.21146,-0.73255 0.0529,-0.42292 0.0529,-1.03464 v -6.79687 h -1.75964 v -1.19323 h 3.17943 z"
     style=""
     id="path830" /><path
     d="m -268.29203,666.13682 h -6.21536 q 0,0.77787 0.23411,1.35938 0.23412,0.57396 0.64193,0.94401 0.39271,0.3625 0.92891,0.54375 0.54375,0.18125 1.19323,0.18125 0.86093,0 1.72942,-0.33984 0.87604,-0.3474 1.2461,-0.67969 h 0.0755 v 1.54818 q -0.71745,0.30208 -1.46511,0.50599 -0.74765,0.2039 -1.57083,0.2039 -2.09948,0 -3.2776,-1.13281 -1.17813,-1.14037 -1.17813,-3.23229 0,-2.06927 1.12526,-3.28516 1.13281,-1.21588 2.97552,-1.21588 1.70677,0 2.62813,0.99687 0.9289,0.99688 0.9289,2.83203 z m -1.38203,-1.0875 q -0.008,-1.1177 -0.5664,-1.72942 -0.55131,-0.61172 -1.68412,-0.61172 -1.14036,0 -1.82005,0.67213 -0.67214,0.67214 -0.76276,1.66901 z"
     style=""
     id="path832" /><path
     d="m -253.73916,667.65479 q 0,0.61172 -0.24922,1.0875 -0.24167,0.47578 -0.67214,0.79297 -0.48333,0.35495 -1.05729,0.51354 -0.56641,0.1586 -1.49531,0.1586 h -3.48907 v -8.43568 h 3.2625 q 0.94401,0 1.4198,0.068 0.48333,0.0604 0.90625,0.27943 0.47578,0.24921 0.69479,0.64948 0.22656,0.40026 0.22656,0.94401 0,0.62682 -0.35495,1.0875 -0.35495,0.46067 -0.9138,0.71744 v 0.0755 q 0.74766,0.18125 1.23099,0.70235 0.49089,0.51354 0.49089,1.35937 z m -1.91068,-3.72317 q 0,-0.27188 -0.12084,-0.49089 -0.11328,-0.21901 -0.35494,-0.33984 -0.31719,-0.1586 -0.71745,-0.1737 -0.39271,-0.0227 -0.97422,-0.0227 h -1.48021 v 2.31094 h 1.77474 q 0.55886,0 0.82318,-0.0378 0.27187,-0.0453 0.54375,-0.21146 0.28698,-0.18125 0.39271,-0.42292 0.11328,-0.24921 0.11328,-0.61171 z m 0.44557,3.73073 q 0,-0.41537 -0.13594,-0.67214 -0.13593,-0.26432 -0.59661,-0.48333 -0.28698,-0.13594 -0.61927,-0.1586 -0.33229,-0.0302 -0.92136,-0.0302 h -1.82005 v 2.75651 h 1.34427 q 0.84584,0 1.29896,-0.0529 0.46068,-0.0604 0.79297,-0.24922 0.33229,-0.1888 0.49089,-0.46068 0.16614,-0.27187 0.16614,-0.64947 z"
     style=""
     id="path834" /><path
     d="m -244.06494,665.88761 q 0,1.02708 -0.29454,1.88046 -0.29453,0.84584 -0.83073,1.4349 -0.49843,0.55885 -1.17812,0.86849 -0.67214,0.30208 -1.42734,0.30208 -0.65704,0 -1.19323,-0.14349 -0.52865,-0.14349 -1.07995,-0.44557 v 3.53438 h -1.41979 v -11.54714 h 1.41979 v 0.88359 q 0.5664,-0.47578 1.26875,-0.79296 0.70989,-0.32474 1.51042,-0.32474 1.52552,0 2.37135,1.15546 0.85339,1.14792 0.85339,3.19454 z m -1.46511,0.0378 q 0,-1.52552 -0.52109,-2.28073 -0.5211,-0.75521 -1.60104,-0.75521 -0.61172,0 -1.23099,0.26432 -0.61928,0.26432 -1.18568,0.69479 v 4.78047 q 0.60417,0.27188 1.03463,0.37005 0.43803,0.0982 0.98933,0.0982 1.18567,0 1.85026,-0.80052 0.66458,-0.80052 0.66458,-2.37135 z"
     style=""
     id="path836" /><path
     d="m -235.53864,669.67875 q -0.86849,0.40781 -1.49531,0.55886 -0.61928,0.15859 -1.23855,0.15859 -0.92135,0 -1.69166,-0.26432 -0.77032,-0.27188 -1.32162,-0.81563 -0.5513,-0.54375 -0.86093,-1.37448 -0.30209,-0.83073 -0.30209,-1.94088 0,-2.01641 1.11771,-3.21719 1.11771,-1.20833 3.05859,-1.20833 0.73256,0 1.4349,0.2039 0.7099,0.20391 1.29896,0.49844 v 1.57839 h -0.0831 q -0.70235,-0.5362 -1.38959,-0.79297 -0.67969,-0.25677 -1.32161,-0.25677 -1.2612,0 -1.95599,0.84583 -0.68724,0.84583 -0.68724,2.3487 0,1.50286 0.68724,2.33359 0.68724,0.83073 1.95599,0.83073 0.44557,0 0.88359,-0.11328 0.44557,-0.11328 0.80807,-0.29453 0.28698,-0.14349 0.58907,-0.33985 0.30963,-0.2039 0.43047,-0.30208 h 0.0831 z"
     style=""
     id="path838" /><path
     d="m -227.37484,663.01781 h -3.05104 v 7.18959 h -1.4198 v -7.18959 h -3.05104 v -1.24609 h 7.52188 z"
     style=""
     id="path840" /><path
     d="m -218.84098,666.13682 h -6.21537 q 0,0.77787 0.23412,1.35938 0.23411,0.57396 0.64192,0.94401 0.39271,0.3625 0.92891,0.54375 0.54375,0.18125 1.19323,0.18125 0.86094,0 1.72942,-0.33984 0.87605,-0.3474 1.2461,-0.67969 h 0.0755 v 1.54818 q -0.71745,0.30208 -1.4651,0.50599 -0.74766,0.2039 -1.57084,0.2039 -2.09948,0 -3.2776,-1.13281 -1.17813,-1.14037 -1.17813,-3.23229 0,-2.06927 1.12526,-3.28516 1.13282,-1.21588 2.97552,-1.21588 1.70677,0 2.62813,0.99687 0.92891,0.99688 0.92891,2.83203 z m -1.38204,-1.0875 q -0.008,-1.1177 -0.5664,-1.72942 -0.5513,-0.61172 -1.68412,-0.61172 -1.14036,0 -1.82005,0.67213 -0.67213,0.67214 -0.76276,1.66901 z"
     style=""
     id="path842" /><path
     d="m -281.71963,687.32649 q 0,0.70989 -0.33229,1.20078 -0.32474,0.49088 -0.83828,0.79297 -0.51355,0.29453 -1.13282,0.43047 -0.61927,0.13593 -1.23854,0.13593 -0.87604,0 -1.66901,-0.16614 -0.79297,-0.16615 -1.56328,-0.51354 v -1.55573 h 0.0982 q 0.5513,0.48333 1.40468,0.74765 0.85339,0.26433 1.65391,0.26433 0.3776,0 0.77786,-0.068 0.40027,-0.0755 0.6948,-0.23412 0.31718,-0.18125 0.50599,-0.43047 0.1888,-0.25677 0.1888,-0.69479 0,-0.45312 -0.1888,-0.725 -0.18125,-0.27187 -0.49844,-0.40781 -0.30964,-0.13594 -0.74766,-0.16615 -0.43802,-0.0302 -0.80052,-0.0302 h -1.23099 v -1.22344 h 0.85339 q 0.30208,0 0.78541,-0.0227 0.49089,-0.0226 0.79297,-0.12083 0.39271,-0.12839 0.61927,-0.3625 0.23412,-0.23412 0.23412,-0.74766 0,-0.35495 -0.18125,-0.58151 -0.18125,-0.23411 -0.45313,-0.3625 -0.27942,-0.12838 -0.62682,-0.1737 -0.33984,-0.0453 -0.60417,-0.0453 -0.77031,0 -1.51797,0.21146 -0.7401,0.20391 -1.24609,0.59661 h -0.0982 v -1.56328 q 0.62683,-0.2039 1.34427,-0.33229 0.71745,-0.12838 1.4349,-0.12838 0.58906,0 1.17057,0.10572 0.58907,0.10573 1.09506,0.3625 0.49843,0.25678 0.81562,0.70235 0.31719,0.43802 0.31719,1.0875 0,0.66458 -0.41537,1.17057 -0.40781,0.49844 -1.1026,0.71745 v 0.0529 q 0.77786,0.18881 1.23854,0.7099 0.46068,0.51354 0.46068,1.36693 z"
     style=""
     id="path844" /><path
     d="m -272.90635,689.69029 h -1.41224 v -0.8987 q -0.1888,0.12839 -0.51354,0.3625 -0.31719,0.22656 -0.61927,0.3625 -0.35495,0.1737 -0.81563,0.28698 -0.46067,0.12083 -1.07994,0.12083 -1.14037,0 -1.93334,-0.7552 -0.79297,-0.75521 -0.79297,-1.92579 0,-0.95911 0.40782,-1.54817 0.41536,-0.59662 1.17812,-0.93646 0.77031,-0.33985 1.85026,-0.46068 1.07995,-0.12083 2.31849,-0.18125 v -0.21901 q 0,-0.48333 -0.1737,-0.80052 -0.16614,-0.31719 -0.48333,-0.49844 -0.30208,-0.1737 -0.725,-0.23411 -0.42292,-0.0604 -0.88359,-0.0604 -0.55886,0 -1.2461,0.15104 -0.68724,0.14349 -1.41979,0.42292 h -0.0755 v -1.44245 q 0.41536,-0.11328 1.20078,-0.24922 0.78542,-0.13593 1.54818,-0.13593 0.89114,0 1.54817,0.15104 0.66459,0.14349 1.14792,0.49843 0.47578,0.3474 0.725,0.8987 0.24922,0.5513 0.24922,1.36693 z m -1.41224,-2.07682 v -2.3487 q -0.64948,0.0378 -1.53307,0.11328 -0.87604,0.0755 -1.38959,0.21901 -0.61171,0.1737 -0.98932,0.54375 -0.3776,0.3625 -0.3776,1.00443 0,0.725 0.43802,1.09505 0.43802,0.3625 1.33672,0.3625 0.74765,0 1.36692,-0.28698 0.61927,-0.29453 1.14792,-0.70234 z"
     style=""
     id="path846" /><path
     d="m -263.09619,689.69029 h -1.41979 v -7.21224 h -4.22162 v 7.21224 h -1.41979 v -8.43568 h 7.0612 z"
     style=""
     id="path848" /><path
     d="m -253.20296,689.69029 h -1.40469 v -6.3362 l -4.41797,6.3362 h -1.28385 v -8.43568 h 1.40468 v 6.24557 l 4.37266,-6.24557 h 1.32917 z"
     style=""
     id="path850" /><path
     d="m -244.0876,689.16164 q -0.86849,0.40782 -1.49531,0.55886 -0.61927,0.15859 -1.23854,0.15859 -0.92136,0 -1.69167,-0.26432 -0.77031,-0.27188 -1.32162,-0.81563 -0.5513,-0.54375 -0.86093,-1.37448 -0.30209,-0.83073 -0.30209,-1.94088 0,-2.01641 1.11771,-3.21719 1.11771,-1.20833 3.0586,-1.20833 0.73255,0 1.43489,0.2039 0.7099,0.20391 1.29896,0.49844 v 1.57839 h -0.0831 q -0.70235,-0.5362 -1.38959,-0.79297 -0.67968,-0.25677 -1.32161,-0.25677 -1.2612,0 -1.95599,0.84583 -0.68724,0.84583 -0.68724,2.3487 0,1.50286 0.68724,2.33359 0.68724,0.83073 1.95599,0.83073 0.44557,0 0.88359,-0.11328 0.44558,-0.11328 0.80808,-0.29453 0.28697,-0.14349 0.58906,-0.33984 0.30963,-0.20391 0.43047,-0.30209 h 0.0831 z"
     style=""
     id="path852" /><path
     d="m -235.01755,689.69029 h -1.40468 v -6.3362 l -4.41797,6.3362 h -1.28386 v -8.43568 h 1.40469 v 6.24557 l 4.37266,-6.24557 h 1.32916 z"
     style=""
     id="path854" /></g>




</svg>