<?xml version="1.0" encoding="UTF-8" standalone="no"?>
<!-- Generator: Adobe Illustrator 19.1.0, SVG Export Plug-In . SVG Version: 6.00 Build 0)  -->

<svg
   xmlns:dc="http://purl.org/dc/elements/1.1/"
   xmlns:cc="http://creativecommons.org/ns#"
   xmlns:rdf="http://www.w3.org/1999/02/22-rdf-syntax-ns#"
   xmlns:svg="http://www.w3.org/2000/svg"
   xmlns="http://www.w3.org/2000/svg"
   xmlns:sodipodi="http://sodipodi.sourceforge.net/DTD/sodipodi-0.dtd"
   xmlns:inkscape="http://www.inkscape.org/namespaces/inkscape"
   version="1.1"
   id="Calque_1"
   x="0px"
   y="0px"
   viewBox="-330 571.3 138.7 138.7"
   style="enable-background:new -330 571.3 138.7 138.7;"
   xml:space="preserve"
   sodipodi:docname="main_menu_logo_species_records-pt.svg"
   inkscape:version="0.92.4 (5da689c313, 2019-01-14)"><metadata
   id="metadata67"><rdf:RDF><cc:Work
       rdf:about=""><dc:format>image/svg+xml</dc:format><dc:type
         rdf:resource="http://purl.org/dc/dcmitype/StillImage" /></cc:Work></rdf:RDF></metadata><defs
   id="defs65" /><sodipodi:namedview
   pagecolor="#ffffff"
   bordercolor="#666666"
   borderopacity="1"
   objecttolerance="10"
   gridtolerance="10"
   guidetolerance="10"
   inkscape:pageopacity="0"
   inkscape:pageshadow="2"
   inkscape:window-width="2400"
   inkscape:window-height="1271"
   id="namedview63"
   showgrid="false"
   inkscape:zoom="4"
   inkscape:cx="104.27352"
   inkscape:cy="69.349998"
   inkscape:window-x="2391"
   inkscape:window-y="-9"
   inkscape:window-maximized="1"
   inkscape:current-layer="Calque_1" /><style
   type="text/css"
   id="style2">
	.st0{fill:#D3D501;}
	.st1{fill:#40637D;}
	.st2{fill:#FFFFFF;}
</style><g
   id="g6"><path
     class="st0"
     d="M-330,640.7c0-38.3,31-69.3,69.3-69.3c38.3,0,69.3,31,69.3,69.3s-31,69.3-69.3,69.3   C-299,710-330,679-330,640.7"
     id="path4" /></g><g
   id="g60"
   transform="translate(0,1.549997)"><g
     id="g46"><path
       class="st2"
       d="m -249.7,639.4 c -0.4,0.6 -1.1,1.1 -1.9,1.3 l -3.7,1 c -0.3,0.1 -0.6,0.1 -0.9,0.1 -0.7,0 -1.4,-0.2 -1.9,-0.6 -0.8,-0.6 -1.3,-1.5 -1.4,-2.5 l -0.3,-3.9 c -0.1,-0.8 0.1,-1.6 0.6,-2.2 l 0.1,-0.2 h -13.4 c -1.1,0 -2,-0.9 -2,-2 0,-1.1 0.9,-2 2,-2 h 16.2 l 3.6,-5.2 h -19.8 c -1.1,0 -2,-0.9 -2,-2 0,-1.1 0.9,-2 2,-2 l 22.6,-0.1 8.5,-12.1 v -9 c 0,-1.5 -1.1,-2.7 -2.6,-2.7 h -6.5 v 5.1 c 0,2.4 -2,4.3 -4.4,4.3 h -13 c -2.4,0 -4.3,-1.9 -4.3,-4.3 v -5.1 h -6.5 c -1.5,0 -2.7,1.2 -2.7,2.7 v 45.9 c 0,1.5 1.2,2.7 2.7,2.7 h 34.8 c 1.5,0 2.6,-1.3 2.6,-2.7 v -16.4 z m -22.8,-29.1 h 22 c 1.1,0 2,0.9 2,2 0,1.1 -0.9,2 -2,2 h -22 c -1.1,0 -2,-0.9 -2,-2 0,-1.1 0.9,-2 2,-2"
       id="path44"
       inkscape:connector-curvature="0"
       style="fill:#ffffff" /></g><g
     id="g50"><path
       class="st2"
       d="m -268,602.5 h 13 c 1,0 1.8,-0.8 1.8,-1.8 v -7.5 c 0,-1 -0.8,-1.8 -1.8,-1.8 h -2 c 0,-2.5 -2.1,-4.6 -4.6,-4.6 -2.5,0 -4.6,2 -4.6,4.6 h -1.9 c -1,0 -1.8,0.8 -1.8,1.8 v 7.5 c 0.1,1 0.9,1.8 1.9,1.8 m 6.5,-13.1 c 1.1,0 2,0.9 2,2 h -4.1 c 0.1,-1.1 1,-2 2.1,-2"
       id="path48"
       inkscape:connector-curvature="0"
       style="fill:#ffffff" /></g><g
     id="g54"><path
       class="st2"
       d="m -225,598.9 c -0.1,-0.3 -0.2,-0.6 -0.5,-0.8 l -3.3,-2.3 c -0.2,-0.2 -0.5,-0.2 -0.7,-0.2 -0.4,0 -0.8,0.2 -1,0.5 l -23.1,33.1 5.3,3.7 23.1,-33.1 c 0.2,-0.2 0.2,-0.6 0.2,-0.9"
       id="path52"
       inkscape:connector-curvature="0"
       style="fill:#ffffff" /></g><g
     id="g58"><path
       class="st2"
       d="m -257.3,634.6 0.3,3.9 c 0,0.2 0.1,0.4 0.3,0.5 0.1,0.1 0.3,0.1 0.4,0.1 0.1,0 0.1,0 0.2,0 l 3.8,-1 c 0.2,0 0.3,-0.2 0.4,-0.3 l 1.4,-2 -5.3,-3.7 -1.4,2 c -0.1,0.2 -0.1,0.4 -0.1,0.5"
       id="path56"
       inkscape:connector-curvature="0"
       style="fill:#ffffff" /></g></g><g
   aria-label="Os meus registos 
de espécies"
   style="font-style:normal;font-variant:normal;font-weight:normal;font-stretch:normal;font-size:15.46666718px;line-height:1.25;font-family:KonsensMedium;-inkscape-font-specification:'KonsensMedium, Normal';font-variant-ligatures:normal;font-variant-caps:normal;font-variant-numeric:normal;font-feature-settings:normal;text-align:center;letter-spacing:0px;word-spacing:0px;writing-mode:lr-tb;text-anchor:middle;fill:#40637d;fill-opacity:1;stroke:none"
   id="text71"><path
     d="m -316.12705,665.4282 v -1.9488 q 0,-3.40267 -3.1552,-3.40267 -3.17066,0 -3.17066,3.40267 v 1.9488 q 0,1.82506 0.85066,2.62933 0.86614,0.7888 2.30454,0.7888 1.42293,0 2.28906,-0.7888 0.8816,-0.80427 0.8816,-2.62933 z m 1.70134,-2.01067 v 2.07253 q 0,2.42827 -1.36107,3.63467 -1.36107,1.2064 -3.54187,1.2064 -2.1808,0 -3.51093,-1.19093 -1.31467,-1.2064 -1.31467,-3.65014 v -2.07253 q 0,-2.42827 1.36107,-3.63467 1.36107,-1.2064 3.51093,-1.2064 2.19627,0 3.5264,1.2064 1.33014,1.19094 1.33014,3.63467 z"
     style=""
     id="path826" /><path
     d="m -305.81368,664.67033 h -1.54666 q 0,-1.392 -1.82507,-1.392 -0.86613,0 -1.33013,0.30933 -0.44854,0.30934 -0.44854,0.81974 0,0.47946 0.38667,0.7424 0.38667,0.26293 0.95893,0.3248 0.57227,0.0619 1.23734,0.1856 0.68053,0.12373 1.2528,0.29386 0.57226,0.15467 0.95893,0.63414 0.38667,0.47946 0.38667,1.2528 0,1.14453 -0.91254,1.82506 -0.91253,0.66507 -2.5056,0.66507 -1.60853,0 -2.53653,-0.72693 -0.91254,-0.72694 -0.91254,-1.91787 v -0.0773 h 1.59307 q 0,1.40746 1.88694,1.40746 0.89706,0 1.37653,-0.29386 0.49493,-0.30934 0.49493,-0.81974 0,-0.5104 -0.54133,-0.7424 -0.52587,-0.232 -1.28373,-0.3248 -0.75787,-0.0928 -1.53121,-0.24746 -0.75786,-0.15467 -1.2992,-0.68054 -0.52586,-0.54133 -0.52586,-1.46933 0,-1.14453 0.8816,-1.8096 0.89706,-0.66507 2.44373,-0.66507 1.59307,0 2.4592,0.72694 0.8816,0.71146 0.8816,1.91786 z"
     style=""
     id="path828" /><path
     d="m -288.47579,670.2074 h -1.56213 v -5.62987 q 0,-1.12907 -0.94347,-1.12907 -0.44853,0 -1.09813,0.3712 l -1.09813,0.6496 v 5.73814 h -1.54667 v -5.62987 q 0,-1.1136 -0.95893,-1.1136 -0.47947,0 -1.08267,0.35573 l -1.09813,0.6496 v 5.73814 h -1.54667 v -8.13547 h 1.51573 v 0.95893 l 0.77334,-0.464 q 0.86613,-0.5568 1.77866,-0.5568 1.40747,0 1.9024,1.14454 l 0.928,-0.57227 q 0.95894,-0.57227 1.87147,-0.57227 1.0208,0 1.59307,0.63414 0.57226,0.61866 0.57226,1.74773 z"
     style=""
     id="path830" /><path
     d="m -279.52518,667.62446 v 0.0773 q 0,1.19093 -0.94346,1.91786 -0.94347,0.72694 -2.52107,0.72694 -1.5776,0 -2.56747,-0.81974 -0.98986,-0.8352 -0.98986,-2.2736 v -1.9488 q 0,-1.51573 0.98986,-2.42826 0.98987,-0.91254 2.552,-0.91254 1.56214,0 2.53654,0.91254 0.9744,0.89706 0.9744,2.44373 v 1.37653 h -5.55254 v 0.464 q 0,0.91254 0.5568,1.392 0.57227,0.464 1.50027,0.464 1.96427,0 1.96427,-1.392 z m -1.45386,-2.088 V 665.289 q 0,-0.95894 -0.54134,-1.46934 -0.52586,-0.52586 -1.4848,-0.52586 -0.95893,0 -1.50026,0.52586 -0.54134,0.52587 -0.54134,1.4848 v 0.232 z"
     style=""
     id="path832" /><path
     d="m -270.67413,670.2074 h -1.5312 v -1.0672 l -0.928,0.57226 q -0.9744,0.58774 -1.93334,0.57227 -1.14453,0 -1.82506,-0.696 -0.66507,-0.71147 -0.66507,-1.88693 v -5.62987 h 1.5776 v 5.44427 q 0,0.6032 0.3248,0.9744 0.3248,0.35573 0.8816,0.35573 0.52587,0 1.22187,-0.40213 l 1.33013,-0.7888 v -5.58347 h 1.54667 z"
     style=""
     id="path834" /><path
     d="m -261.95118,664.67033 h -1.54666 q 0,-1.392 -1.82507,-1.392 -0.86613,0 -1.33013,0.30933 -0.44854,0.30934 -0.44854,0.81974 0,0.47946 0.38667,0.7424 0.38667,0.26293 0.95893,0.3248 0.57227,0.0619 1.23734,0.1856 0.68053,0.12373 1.2528,0.29386 0.57226,0.15467 0.95893,0.63414 0.38667,0.47946 0.38667,1.2528 0,1.14453 -0.91254,1.82506 -0.91253,0.66507 -2.5056,0.66507 -1.60853,0 -2.53653,-0.72693 -0.91253,-0.72694 -0.91253,-1.91787 v -0.0773 h 1.59306 q 0,1.40746 1.88694,1.40746 0.89706,0 1.37653,-0.29386 0.49493,-0.30934 0.49493,-0.81974 0,-0.5104 -0.54133,-0.7424 -0.52587,-0.232 -1.28373,-0.3248 -0.75787,-0.0928 -1.5312,-0.24746 -0.75787,-0.15467 -1.2992,-0.68054 -0.52587,-0.54133 -0.52587,-1.46933 0,-1.14453 0.8816,-1.8096 0.89707,-0.66507 2.44373,-0.66507 1.59307,0 2.4592,0.72694 0.8816,0.71146 0.8816,1.91786 z"
     style=""
     id="path836" /><path
     d="m -253.97062,670.2074 h -1.5776 v -8.13547 h 1.54667 v 1.23733 l 0.3712,-0.3712 q 0.9744,-0.89706 2.11893,-0.89706 h 0.4176 v 1.60853 h -0.40213 q -1.05174,0 -1.79414,0.61867 l -0.68053,0.5568 z"
     style=""
     id="path838" /><path
     d="m -242.94288,667.62446 v 0.0773 q 0,1.19093 -0.94347,1.91786 -0.94347,0.72694 -2.52107,0.72694 -1.5776,0 -2.56746,-0.81974 -0.98987,-0.8352 -0.98987,-2.2736 v -1.9488 q 0,-1.51573 0.98987,-2.42826 0.98986,-0.91254 2.552,-0.91254 1.56213,0 2.53653,0.91254 0.9744,0.89706 0.9744,2.44373 v 1.37653 h -5.55253 v 0.464 q 0,0.91254 0.5568,1.392 0.57226,0.464 1.50026,0.464 1.96427,0 1.96427,-1.392 z m -1.45387,-2.088 V 665.289 q 0,-0.95894 -0.54133,-1.46934 -0.52587,-0.52586 -1.4848,-0.52586 -0.95894,0 -1.50027,0.52586 -0.54133,0.52587 -0.54133,1.4848 v 0.232 z"
     style=""
     id="path840" /><path
     d="m -236.47371,669.58873 h -2.784 v 0.35573 q 0,1.00534 0.47947,1.4848 0.49493,0.49494 1.6704,0.49494 2.19627,0 2.19627,-1.2992 0,-0.57227 -0.40214,-0.80427 -0.38666,-0.232 -1.16,-0.232 z m -1.4384,-3.5728 h 0.63414 q 1.73226,0 1.73226,-1.36107 0,-1.31466 -1.56213,-1.31466 h -0.75787 q -0.7888,0 -1.19093,0.30933 -0.40213,0.29387 -0.40213,1.05173 0,1.31467 1.54666,1.31467 z m 0.7888,1.19093 h -2.39733 q -0.61867,0 -0.61867,0.58774 0,0.57226 0.58774,0.57226 h 3.248 q 2.89226,0 2.89226,2.21174 0,1.23733 -1.00533,1.9024 -1.00533,0.68053 -2.67573,0.68053 -3.5728,0 -3.5728,-3.13973 v -0.7888 q -0.80427,-0.3712 -0.80427,-1.4384 0,-0.61867 0.30933,-1.0208 0.30934,-0.40214 0.81974,-0.54134 -0.0619,-0.0464 -0.17014,-0.15466 -0.0928,-0.12374 -0.26293,-0.52587 -0.17013,-0.40213 -0.17013,-0.8816 0,-1.26827 0.7888,-1.93333 0.7888,-0.66507 2.1344,-0.66507 h 4.64 v 1.3456 h -1.22187 q 0.47947,0.34027 0.47947,1.26827 0,1.17546 -0.81974,1.856 -0.80426,0.66506 -2.1808,0.66506 z"
     style=""
     id="path842" /><path
     d="m -230.36172,670.2074 h -1.59307 v -8.13547 h 1.59307 z m 0.10827,-10.79574 v 0.3248 q 0,0.35574 -0.26294,0.57227 -0.24746,0.21653 -0.63413,0.21653 -0.4176,0 -0.66507,-0.20106 -0.24746,-0.21654 -0.24746,-0.58774 v -0.3248 q 0,-0.3712 0.24746,-0.57226 0.24747,-0.21654 0.66507,-0.21654 0.38667,0 0.63413,0.21654 0.26294,0.21653 0.26294,0.57226 z"
     style=""
     id="path844" /><path
     d="m -221.59284,664.67033 h -1.54667 q 0,-1.392 -1.82506,-1.392 -0.86614,0 -1.33014,0.30933 -0.44853,0.30934 -0.44853,0.81974 0,0.47946 0.38667,0.7424 0.38666,0.26293 0.95893,0.3248 0.57227,0.0619 1.23733,0.1856 0.68054,0.12373 1.2528,0.29386 0.57227,0.15467 0.95894,0.63414 0.38666,0.47946 0.38666,1.2528 0,1.14453 -0.91253,1.82506 -0.91253,0.66507 -2.5056,0.66507 -1.60853,0 -2.53653,-0.72693 -0.91254,-0.72694 -0.91254,-1.91787 v -0.0773 h 1.59307 q 0,1.40746 1.88693,1.40746 0.89707,0 1.37654,-0.29386 0.49493,-0.30934 0.49493,-0.81974 0,-0.5104 -0.54133,-0.7424 -0.52587,-0.232 -1.28374,-0.3248 -0.75786,-0.0928 -1.5312,-0.24746 -0.75786,-0.15467 -1.2992,-0.68054 -0.52586,-0.54133 -0.52586,-1.46933 0,-1.14453 0.8816,-1.8096 0.89706,-0.66507 2.44373,-0.66507 1.59307,0 2.4592,0.72694 0.8816,0.71146 0.8816,1.91786 z"
     style=""
     id="path846" /><path
     d="m -215.11352,670.2074 h -1.0208 q -1.392,0 -2.19626,-0.71147 -0.80427,-0.71147 -0.80427,-2.07253 v -3.9904 h -1.2992 v -1.36107 h 1.31467 v -2.19627 h 1.5776 v 2.19627 h 2.3664 v 1.36107 h -2.3664 v 3.91306 q 0,0.80427 0.35573,1.14454 0.3712,0.3248 1.14453,0.3248 h 0.928 z"
     style=""
     id="path848" /><path
     d="m -208.29779,666.88206 v -1.4384 q 0,-0.98986 -0.58774,-1.54666 -0.57226,-0.5568 -1.51573,-0.5568 -0.95893,0 -1.5312,0.5568 -0.57227,0.5568 -0.57227,1.54666 v 1.4384 q 0,0.98987 0.57227,1.56214 0.57227,0.5568 1.5312,0.5568 0.94347,0 1.51573,-0.5568 0.58774,-0.5568 0.58774,-1.56214 z m 1.51573,-1.5776 v 1.73227 q 0,1.51573 -1.0208,2.42827 -1.00533,0.91253 -2.5984,0.91253 -1.59307,0 -2.61387,-0.91253 -1.00533,-0.91254 -1.00533,-2.42827 v -1.73227 q 0,-1.51573 1.00533,-2.42826 1.0208,-0.91254 2.61387,-0.91254 1.59307,0 2.5984,0.91254 1.0208,0.91253 1.0208,2.42826 z"
     style=""
     id="path850" /><path
     d="m -198.27201,664.67033 h -1.54666 q 0,-1.392 -1.82507,-1.392 -0.86613,0 -1.33013,0.30933 -0.44854,0.30934 -0.44854,0.81974 0,0.47946 0.38667,0.7424 0.38667,0.26293 0.95893,0.3248 0.57227,0.0619 1.23734,0.1856 0.68053,0.12373 1.2528,0.29386 0.57226,0.15467 0.95893,0.63414 0.38667,0.47946 0.38667,1.2528 0,1.14453 -0.91254,1.82506 -0.91253,0.66507 -2.5056,0.66507 -1.60853,0 -2.53653,-0.72693 -0.91253,-0.72694 -0.91253,-1.91787 v -0.0773 h 1.59306 q 0,1.40746 1.88694,1.40746 0.89706,0 1.37653,-0.29386 0.49493,-0.30934 0.49493,-0.81974 0,-0.5104 -0.54133,-0.7424 -0.52587,-0.232 -1.28373,-0.3248 -0.75787,-0.0928 -1.5312,-0.24746 -0.75787,-0.15467 -1.2992,-0.68054 -0.52587,-0.54133 -0.52587,-1.46933 0,-1.14453 0.8816,-1.8096 0.89707,-0.66507 2.44373,-0.66507 1.59307,0 2.4592,0.72694 0.8816,0.71146 0.8816,1.91786 z"
     style=""
     id="path852" /><path
     d="m -298.5725,687.06606 v -3.13973 l -1.45387,-0.81973 q -0.63413,-0.34027 -1.26826,-0.34027 -0.6496,0 -1.05174,0.4176 -0.38666,0.40213 -0.38666,1.08267 v 2.4592 q 0,0.68053 0.38666,1.09813 0.40214,0.40213 1.05174,0.40213 0.61866,0 1.26826,-0.35573 z m 1.5312,2.47467 h -1.51573 v -0.9744 l -1.0208,0.5568 q -0.94347,0.52587 -1.93334,0.52587 -1.22186,0 -1.9952,-0.75787 -0.75786,-0.75787 -0.75786,-1.97973 v -2.784 q 0,-1.22187 0.7888,-2.01067 0.7888,-0.7888 2.01066,-0.7888 0.94347,0 1.88694,0.52587 l 1.00533,0.5568 v -4.37707 h 1.5312 z"
     style=""
     id="path854" /><path
     d="m -287.99861,686.9578 v 0.0773 q 0,1.19093 -0.94347,1.91787 -0.94347,0.72693 -2.52107,0.72693 -1.5776,0 -2.56747,-0.81973 -0.98986,-0.8352 -0.98986,-2.2736 v -1.9488 q 0,-1.51574 0.98986,-2.42827 0.98987,-0.91253 2.55201,-0.91253 1.56213,0 2.53653,0.91253 0.9744,0.89707 0.9744,2.44373 v 1.37654 h -5.55254 v 0.464 q 0,0.91253 0.5568,1.392 0.57227,0.464 1.50027,0.464 1.96427,0 1.96427,-1.392 z m -1.45387,-2.088 v -0.24747 q 0,-0.95893 -0.54133,-1.46933 -0.52587,-0.52587 -1.4848,-0.52587 -0.95894,0 -1.50027,0.52587 -0.54134,0.52586 -0.54134,1.4848 v 0.232 z"
     style=""
     id="path856" /><path
     d="m -274.67674,686.9578 v 0.0773 q 0,1.19093 -0.94347,1.91787 -0.94346,0.72693 -2.52106,0.72693 -1.5776,0 -2.56747,-0.81973 -0.98987,-0.8352 -0.98987,-2.2736 v -1.9488 q 0,-1.51574 0.98987,-2.42827 0.98987,-0.91253 2.552,-0.91253 1.56213,0 2.53653,0.91253 0.9744,0.89707 0.9744,2.44373 v 1.37654 h -5.55253 v 0.464 q 0,0.91253 0.5568,1.392 0.57227,0.464 1.50027,0.464 1.96426,0 1.96426,-1.392 z m -1.45387,-2.088 v -0.24747 q 0,-0.95893 -0.54133,-1.46933 -0.52587,-0.52587 -1.4848,-0.52587 -0.95893,0 -1.50027,0.52587 -0.54133,0.52586 -0.54133,1.4848 v 0.232 z"
     style=""
     id="path858" /><path
     d="m -266.13503,684.00366 h -1.54667 q 0,-1.392 -1.82506,-1.392 -0.86614,0 -1.33014,0.30934 -0.44853,0.30933 -0.44853,0.81973 0,0.47947 0.38667,0.7424 0.38666,0.26293 0.95893,0.3248 0.57227,0.0619 1.23733,0.1856 0.68054,0.12373 1.2528,0.29387 0.57227,0.15466 0.95894,0.63413 0.38666,0.47947 0.38666,1.2528 0,1.14453 -0.91253,1.82507 -0.91253,0.66506 -2.5056,0.66506 -1.60853,0 -2.53653,-0.72693 -0.91254,-0.72693 -0.91254,-1.91787 v -0.0773 h 1.59307 q 0,1.40747 1.88693,1.40747 0.89707,0 1.37654,-0.29387 0.49493,-0.30933 0.49493,-0.81973 0,-0.5104 -0.54133,-0.7424 -0.52587,-0.232 -1.28374,-0.3248 -0.75786,-0.0928 -1.5312,-0.24747 -0.75786,-0.15467 -1.2992,-0.68053 -0.52586,-0.54134 -0.52586,-1.46934 0,-1.14453 0.8816,-1.8096 0.89706,-0.66506 2.44373,-0.66506 1.59307,0 2.4592,0.72693 0.8816,0.71147 0.8816,1.91787 z"
     style=""
     id="path860" /><path
     d="m -258.52664,686.69486 v -2.4592 q 0,-0.68053 -0.38667,-1.08266 -0.38666,-0.4176 -1.03626,-0.4176 -0.6496,0 -1.28374,0.35573 l -1.4384,0.80427 v 3.13973 l 1.4384,0.80427 q 0.63414,0.35573 1.28374,0.35573 0.6496,0 1.03626,-0.40213 0.38667,-0.4176 0.38667,-1.09814 z m -4.14507,5.69174 h -1.5312 v -10.98134 h 1.51574 v 0.98987 l 1.00533,-0.5568 q 0.928,-0.52587 1.93333,-0.52587 1.22187,0 1.97974,0.75787 0.77333,0.75787 0.77333,1.97973 v 2.784 q 0,1.22187 -0.77333,2.01067 -0.77334,0.77333 -1.9952,0.77333 -0.98987,0 -1.91787,-0.52586 l -0.98987,-0.5568 z"
     style=""
     id="path862" /><path
     d="m -248.15382,686.9578 v 0.0773 q 0,1.19093 -0.94347,1.91787 -0.94347,0.72693 -2.52107,0.72693 -1.5776,0 -2.56746,-0.81973 -0.98987,-0.8352 -0.98987,-2.2736 v -1.9488 q 0,-1.51574 0.98987,-2.42827 0.98986,-0.91253 2.552,-0.91253 1.56213,0 2.53653,0.91253 0.9744,0.89707 0.9744,2.44373 v 1.37654 h -5.55253 v 0.464 q 0,0.91253 0.5568,1.392 0.57226,0.464 1.50026,0.464 1.96427,0 1.96427,-1.392 z m -1.45387,-2.088 v -0.24747 q 0,-0.95893 -0.54133,-1.46933 -0.52587,-0.52587 -1.4848,-0.52587 -0.95894,0 -1.50027,0.52587 -0.54133,0.52586 -0.54133,1.4848 v 0.232 z m -1.4384,-4.71734 h -1.73227 l 1.5776,-2.11893 h 2.01067 z"
     style=""
     id="path864" /><path
     d="m -239.45745,686.52473 v 0.12373 q 0,1.45387 -0.928,2.24267 -0.928,0.7888 -2.52106,0.7888 -1.54667,0 -2.49014,-0.8352 -0.928,-0.85067 -0.928,-2.33547 v -2.05706 q 0,-1.46934 0.928,-2.30454 0.94347,-0.85066 2.49014,-0.85066 1.59306,0 2.52106,0.7888 0.928,0.77333 0.928,2.2272 v 0.12373 h -1.51573 q 0,-1.7632 -1.93333,-1.7632 -1.87147,0 -1.87147,1.91787 v 1.77866 q 0,1.91787 1.87147,1.91787 1.93333,0 1.93333,-1.7632 z"
     style=""
     id="path866" /><path
     d="m -235.87474,689.54073 h -1.59307 v -8.13547 h 1.59307 z m 0.10827,-10.79573 v 0.3248 q 0,0.35573 -0.26294,0.57226 -0.24746,0.21654 -0.63413,0.21654 -0.4176,0 -0.66507,-0.20107 -0.24746,-0.21653 -0.24746,-0.58773 v -0.3248 q 0,-0.3712 0.24746,-0.57227 0.24747,-0.21653 0.66507,-0.21653 0.38667,0 0.63413,0.21653 0.26294,0.21653 0.26294,0.57227 z"
     style=""
     id="path868" /><path
     d="m -226.79653,686.9578 v 0.0773 q 0,1.19093 -0.94346,1.91787 -0.94347,0.72693 -2.52107,0.72693 -1.5776,0 -2.56747,-0.81973 -0.98986,-0.8352 -0.98986,-2.2736 v -1.9488 q 0,-1.51574 0.98986,-2.42827 0.98987,-0.91253 2.552,-0.91253 1.56214,0 2.53654,0.91253 0.9744,0.89707 0.9744,2.44373 v 1.37654 h -5.55254 v 0.464 q 0,0.91253 0.5568,1.392 0.57227,0.464 1.50027,0.464 1.96427,0 1.96427,-1.392 z m -1.45386,-2.088 v -0.24747 q 0,-0.95893 -0.54134,-1.46933 -0.52586,-0.52587 -1.4848,-0.52587 -0.95893,0 -1.50026,0.52587 -0.54134,0.52586 -0.54134,1.4848 v 0.232 z"
     style=""
     id="path870" /><path
     d="m -218.25482,684.00366 h -1.54667 q 0,-1.392 -1.82507,-1.392 -0.86613,0 -1.33013,0.30934 -0.44853,0.30933 -0.44853,0.81973 0,0.47947 0.38666,0.7424 0.38667,0.26293 0.95894,0.3248 0.57226,0.0619 1.23733,0.1856 0.68053,0.12373 1.2528,0.29387 0.57227,0.15466 0.95893,0.63413 0.38667,0.47947 0.38667,1.2528 0,1.14453 -0.91253,1.82507 -0.91254,0.66506 -2.5056,0.66506 -1.60854,0 -2.53654,-0.72693 -0.91253,-0.72693 -0.91253,-1.91787 v -0.0773 h 1.59307 q 0,1.40747 1.88693,1.40747 0.89707,0 1.37653,-0.29387 0.49494,-0.30933 0.49494,-0.81973 0,-0.5104 -0.54134,-0.7424 -0.52586,-0.232 -1.28373,-0.3248 -0.75787,-0.0928 -1.5312,-0.24747 -0.75787,-0.15467 -1.2992,-0.68053 -0.52587,-0.54134 -0.52587,-1.46934 0,-1.14453 0.8816,-1.8096 0.89707,-0.66506 2.44374,-0.66506 1.59306,0 2.4592,0.72693 0.8816,0.71147 0.8816,1.91787 z"
     style=""
     id="path872" /></g>



</svg>