<?xml version="1.0" encoding="UTF-8" standalone="no"?>
<!-- Generator: Adobe Illustrator 19.1.0, SVG Export Plug-In . SVG Version: 6.00 Build 0)  -->

<svg
   xmlns:dc="http://purl.org/dc/elements/1.1/"
   xmlns:cc="http://creativecommons.org/ns#"
   xmlns:rdf="http://www.w3.org/1999/02/22-rdf-syntax-ns#"
   xmlns:svg="http://www.w3.org/2000/svg"
   xmlns="http://www.w3.org/2000/svg"
   xmlns:sodipodi="http://sodipodi.sourceforge.net/DTD/sodipodi-0.dtd"
   xmlns:inkscape="http://www.inkscape.org/namespaces/inkscape"
   version="1.1"
   id="Calque_1"
   x="0px"
   y="0px"
   viewBox="-33.6 228.6 138.7 138.7"
   style="enable-background:new -33.6 228.6 138.7 138.7;"
   xml:space="preserve"
   sodipodi:docname="main_menu_logo_map-.svg"
   inkscape:version="0.92.4 (5da689c313, 2019-01-14)"><metadata
     id="metadata105"><rdf:RDF><cc:Work
         rdf:about=""><dc:format>image/svg+xml</dc:format><dc:type
           rdf:resource="http://purl.org/dc/dcmitype/StillImage" /><dc:title></dc:title></cc:Work></rdf:RDF></metadata><defs
     id="defs103" /><sodipodi:namedview
     pagecolor="#ffffff"
     bordercolor="#666666"
     borderopacity="1"
     objecttolerance="10"
     gridtolerance="10"
     guidetolerance="10"
     inkscape:pageopacity="0"
     inkscape:pageshadow="2"
     inkscape:window-width="1920"
     inkscape:window-height="1017"
     id="namedview101"
     showgrid="false"
     inkscape:zoom="4"
     inkscape:cx="24.999837"
     inkscape:cy="69.349998"
     inkscape:window-x="1912"
     inkscape:window-y="-8"
     inkscape:window-maximized="1"
     inkscape:current-layer="Calque_1" /><style
     type="text/css"
     id="style2">
	.st0{fill:#D3D501;}
	.st1{fill:#FFFFFF;}
	.st2{fill:#7A9C2B;}
	.st3{fill:#E8E493;}
	.st4{fill:#40637D;}
	.st5{fill:#5E9EB5;}
	.st6{fill:#D0A82B;}
	.st7{fill:#559973;}
	.st8{fill:#00662C;}
</style><g
     id="g36"
     transform="translate(-0.49999982)"><g
       id="g30"><path
         class="st1"
         d="m 24.1,315.9 c 0,0.4 0.2,0.8 0.6,1 0.4,0.2 0.8,0.2 1.2,-0.1 l 7.7,-5.3 -9.5,-4.5 v 8.9 z"
         id="path28"
         inkscape:connector-curvature="0"
         style="fill:#ffffff" /></g><g
       id="g34"><path
         class="st1"
         d="m 70,256.5 c -0.2,-0.2 -0.5,-0.3 -0.8,-0.3 -0.2,0 -0.3,0 -0.5,0.1 L 2.1,289 c -0.7,0.3 -1.1,1 -1.1,1.8 0,0.8 0.4,1.5 1.1,1.8 L 19.7,301 54.8,272.1 24,303 45.9,313.4 c 0.3,0.1 0.6,0.2 0.9,0.2 0.2,0 0.5,0 0.7,-0.1 0.5,-0.2 0.9,-0.6 1.1,-1.1 l 21.7,-54.6 c 0.2,-0.5 0.1,-1 -0.3,-1.3"
         id="path32"
         inkscape:connector-curvature="0"
         style="fill:#ffffff" /></g></g><path
     style="fill:#5e9eb5"
     d="m 104.3,298.09998 a 69.099998,69.099998 0 0 1 -69.099999,69.09999 69.099998,69.099998 0 0 1 -69.099999,-69.09999 69.099998,69.099998 0 0 1 69.099999,-69.1 69.099998,69.099998 0 0 1 69.099999,69.1 z"
     id="circle38" /><g
     id="g54"
     transform="translate(1.7902533)"><path
       class="st1"
       d="M 30.5,268.5 H 10.7 c -0.8,0 -1.5,0.5 -1.7,1.3 l -3.8,13.1 26.6,2.9 2.1,-10 c -1.3,-2.3 -2.5,-4.8 -3.4,-7.3 z"
       id="path40"
       inkscape:connector-curvature="0"
       style="fill:#ffffff" /><path
       class="st1"
       d="m 55.4,288.4 8,0.9 L 61,281 c -0.3,0.5 -0.6,0.9 -1,1.4 -1.6,2.3 -3.2,4.3 -4.6,6 z"
       id="path42"
       inkscape:connector-curvature="0"
       style="fill:#ffffff" /><g
       id="g52"><path
         class="st1"
         d="m 38,282.3 -0.9,4.1 4.3,0.5 c -1,-1.4 -2.1,-2.9 -3.4,-4.6 0.1,0.1 0.1,0 0,0 z"
         id="path44"
         inkscape:connector-curvature="0"
         style="fill:#ffffff" /><path
         class="st1"
         d="m 0.1,300.6 c -0.2,0.5 0,1.1 0.3,1.6 0.3,0.4 0.9,0.7 1.4,0.7 h 26.4 l 2.5,-11.8 -27,-3 z"
         id="path46"
         inkscape:connector-curvature="0"
         style="fill:#ffffff" /><path
         class="st1"
         d="m 65,294.8 -28.9,-3.2 -2.3,11.2 H 65 c 1,0 1.8,-0.8 1.8,-1.8 0,-0.2 0,-0.4 -0.1,-0.6 z"
         id="path48"
         inkscape:connector-curvature="0"
         style="fill:#ffffff" /><path
         class="st1"
         d="m 48.3,290.7 c 0.2,0.2 0.5,0.3 0.7,0.3 0.3,0 0.5,-0.1 0.7,-0.3 1.6,-1.7 4.8,-5.3 8,-9.8 4,-5.7 8.9,-14.1 8.9,-21.5 0,-9.7 -7.9,-17.7 -17.7,-17.7 -9.7,0 -17.7,7.9 -17.7,17.7 0,7.5 4.8,15.8 8.9,21.5 3.4,4.5 6.6,8 8.2,9.8 z m 0.8,-42.4 c 5.9,0 10.8,4.8 10.8,10.8 0,5.9 -4.8,10.8 -10.8,10.8 -5.9,0 -10.8,-4.8 -10.8,-10.8 0,-6 4.8,-10.8 10.8,-10.8 z"
         id="path50"
         inkscape:connector-curvature="0"
         style="fill:#ffffff" /></g></g><g
     id="g98"
     transform="translate(18,-14)"><g
       id="g96"><g
   aria-label="Sightings
map"
   style="font-style:normal;font-variant:normal;font-weight:normal;font-stretch:normal;font-size:15.92933273px;line-height:1.25;font-family:KonsensMedium;-inkscape-font-specification:'KonsensMedium, Normal';font-variant-ligatures:normal;font-variant-caps:normal;font-variant-numeric:normal;font-feature-settings:normal;text-align:start;letter-spacing:0px;word-spacing:0px;writing-mode:lr-tb;text-anchor:start;fill:#000000;fill-opacity:1;stroke:none"
   id="text6172"><path
     d="m -8.3552541,335.75297 h -1.7840849 q 0,-2.18231 -2.62834,-2.18231 -1.226559,0 -1.895591,0.50973 -0.669032,0.49381 -0.669032,1.36993 0,0.62124 0.382304,1.01947 0.398233,0.38231 1.019477,0.57346 0.621244,0.19115 1.369923,0.31859 0.764608,0.12743 1.513287,0.33451 0.748678,0.19116 1.3699223,0.50974 0.6212439,0.30266 1.0035479,0.95576 0.3982334,0.6531 0.3982334,1.59294 0,1.59293 -1.2265587,2.53276 -1.2106289,0.9239 -3.2814429,0.9239 -2.118601,0 -3.313301,-0.90797 -1.17877,-0.9239 -1.17877,-2.69206 v -0.0956 h 1.784085 q 0,2.19824 2.723916,2.19824 1.290276,0 1.991166,-0.49381 0.71682,-0.50973 0.71682,-1.38585 0,-0.60531 -0.398233,-0.98762 -0.382304,-0.39823 -1.003548,-0.57345 -0.605315,-0.19115 -1.353993,-0.31859 -0.748679,-0.14336 -1.513287,-0.33452 -0.748679,-0.20708 -1.369923,-0.52566 -0.605314,-0.33452 -1.003547,-0.98762 -0.382304,-0.6531 -0.382304,-1.60886 0,-1.57701 1.162841,-2.50091 1.17877,-0.93983 3.169937,-0.93983 2.086743,0 3.2336546,0.9239 1.1628413,0.90797 1.1628413,2.67613 z"
     style="font-style:normal;font-variant:normal;font-weight:normal;font-stretch:normal;font-size:15.92933273px;font-family:KonsensMedium;-inkscape-font-specification:'KonsensMedium, Normal';font-variant-ligatures:normal;font-variant-caps:normal;font-variant-numeric:normal;font-feature-settings:normal;text-align:center;writing-mode:lr-tb;text-anchor:middle;fill:#ffffff"
     id="path869" /><path
     d="m -4.5220099,344.09995 h -1.6407213 v -8.37883 h 1.6407213 z m 0.1115053,-11.11868 v 0.33452 q 0,0.36637 -0.2707987,0.58938 -0.2548693,0.22301 -0.6531026,0.22301 -0.430092,0 -0.6849613,-0.20708 -0.2548693,-0.22301 -0.2548693,-0.60531 v -0.33452 q 0,-0.3823 0.2548693,-0.58938 0.2548693,-0.22302 0.6849613,-0.22302 0.3982333,0 0.6531026,0.22302 0.2707987,0.22301 0.2707987,0.58938 z"
     style="font-style:normal;font-variant:normal;font-weight:normal;font-stretch:normal;font-size:15.92933273px;font-family:KonsensMedium;-inkscape-font-specification:'KonsensMedium, Normal';font-variant-ligatures:normal;font-variant-caps:normal;font-variant-numeric:normal;font-feature-settings:normal;text-align:center;writing-mode:lr-tb;text-anchor:middle;fill:#ffffff"
     id="path871" /><path
     d="m 2.3746442,343.46277 h -2.8672799 v 0.36638 q 0,1.0354 0.49380931,1.52921 0.50973865,0.50974 1.72036789,0.50974 2.2619653,0 2.2619653,-1.33806 0,-0.58939 -0.4141627,-0.82833 -0.3982333,-0.23894 -1.1946999,-0.23894 z M 0.89321624,339.7831 H 1.5463189 q 1.7840853,0 1.7840853,-1.40179 0,-1.35399 -1.6088627,-1.35399 H 0.94100424 q -0.81239597,0 -1.22655862,0.31859 -0.41416265,0.30266 -0.41416265,1.08319 0,1.354 1.59293327,1.354 z m 0.81239596,1.22655 h -2.46904656 q -0.63717334,0 -0.63717334,0.60532 0,0.58938 0.60531467,0.58938 H 2.5498668 q 2.9787853,0 2.9787853,2.2779 0,1.27435 -1.0354067,1.95931 -1.0354066,0.70089 -2.7557745,0.70089 -3.6796759,0 -3.6796759,-3.23366 v -0.81239 q -0.8283253,-0.38231 -0.8283253,-1.48143 0,-0.63717 0.3185867,-1.05134 0.3185866,-0.41416 0.8442546,-0.55752 -0.063717,-0.0478 -0.1752227,-0.1593 -0.095576,-0.12743 -0.2707986,-0.54159 -0.1752227,-0.41417 -0.1752227,-0.90798 0,-1.3062 0.812396,-1.99116 0.81239597,-0.68496 2.19824791,-0.68496 H 5.5605107 v 1.38585 H 4.3020934 q 0.4938094,0.35044 0.4938094,1.3062 0,1.21063 -0.8442547,1.91152 -0.8283253,0.68496 -2.2460359,0.68496 z"
     style="font-style:normal;font-variant:normal;font-weight:normal;font-stretch:normal;font-size:15.92933273px;font-family:KonsensMedium;-inkscape-font-specification:'KonsensMedium, Normal';font-variant-ligatures:normal;font-variant-caps:normal;font-variant-numeric:normal;font-feature-settings:normal;text-align:center;writing-mode:lr-tb;text-anchor:middle;fill:#ffffff"
     id="path873" /><path
     d="M 14.085442,344.09995 H 12.46065 v -5.5912 q 0,-0.62124 -0.334516,-1.00355 -0.334516,-0.3823 -0.907972,-0.3823 -0.541597,0 -1.2584173,0.41416 l -1.3699226,0.8124 v 5.75049 H 6.9968889 v -11.85143 h 1.5929332 v 4.57172 l 0.9398307,-0.58939 q 0.9876182,-0.58938 1.9911662,-0.58938 1.178771,0 1.863732,0.73275 0.700891,0.73275 0.700891,1.94338 z"
     style="font-style:normal;font-variant:normal;font-weight:normal;font-stretch:normal;font-size:15.92933273px;font-family:KonsensMedium;-inkscape-font-specification:'KonsensMedium, Normal';font-variant-ligatures:normal;font-variant-caps:normal;font-variant-numeric:normal;font-feature-settings:normal;text-align:center;writing-mode:lr-tb;text-anchor:middle;fill:#ffffff"
     id="path875" /><path
     d="m 20.809624,344.09995 h -1.051336 q -1.43364,0 -2.261966,-0.73275 -0.828325,-0.73275 -0.828325,-2.13453 v -4.10977 h -1.338064 v -1.40178 h 1.353993 v -2.26197 h 1.624792 v 2.26197 h 2.437188 v 1.40178 h -2.437188 v 4.03012 q 0,0.82832 0.366375,1.17877 0.382304,0.33452 1.178771,0.33452 h 0.95576 z"
     style="font-style:normal;font-variant:normal;font-weight:normal;font-stretch:normal;font-size:15.92933273px;font-family:KonsensMedium;-inkscape-font-specification:'KonsensMedium, Normal';font-variant-ligatures:normal;font-variant-caps:normal;font-variant-numeric:normal;font-feature-settings:normal;text-align:center;writing-mode:lr-tb;text-anchor:middle;fill:#ffffff"
     id="path877" /><path
     d="M 24.132121,344.09995 H 22.4914 v -8.37883 h 1.640721 z m 0.111505,-11.11868 v 0.33452 q 0,0.36637 -0.270798,0.58938 -0.25487,0.22301 -0.653103,0.22301 -0.430092,0 -0.684961,-0.20708 -0.25487,-0.22301 -0.25487,-0.60531 v -0.33452 q 0,-0.3823 0.25487,-0.58938 0.254869,-0.22302 0.684961,-0.22302 0.398233,0 0.653103,0.22302 0.270798,0.22301 0.270798,0.58938 z"
     style="font-style:normal;font-variant:normal;font-weight:normal;font-stretch:normal;font-size:15.92933273px;font-family:KonsensMedium;-inkscape-font-specification:'KonsensMedium, Normal';font-variant-ligatures:normal;font-variant-caps:normal;font-variant-numeric:normal;font-feature-settings:normal;text-align:center;writing-mode:lr-tb;text-anchor:middle;fill:#ffffff"
     id="path879" /><path
     d="m 33.561541,344.09995 h -1.624792 v -5.5912 q 0,-0.60532 -0.334516,-0.98762 -0.318587,-0.39823 -0.907972,-0.39823 -0.541597,0 -1.258417,0.41416 l -1.369923,0.8124 v 5.75049 h -1.592933 v -8.37883 h 1.577004 v 1.09912 l 0.95576,-0.58939 q 0.93983,-0.58938 1.991166,-0.58938 1.178771,0 1.863732,0.73275 0.700891,0.73275 0.700891,1.94338 z"
     style="font-style:normal;font-variant:normal;font-weight:normal;font-stretch:normal;font-size:15.92933273px;font-family:KonsensMedium;-inkscape-font-specification:'KonsensMedium, Normal';font-variant-ligatures:normal;font-variant-caps:normal;font-variant-numeric:normal;font-feature-settings:normal;text-align:center;writing-mode:lr-tb;text-anchor:middle;fill:#ffffff"
     id="path881" /><path
     d="m 40.33126,343.46277 h -2.86728 v 0.36638 q 0,1.0354 0.493809,1.52921 0.509739,0.50974 1.720368,0.50974 2.261965,0 2.261965,-1.33806 0,-0.58939 -0.414162,-0.82833 -0.398234,-0.23894 -1.1947,-0.23894 z m -1.481428,-3.67967 h 0.653102 q 1.784086,0 1.784086,-1.40179 0,-1.35399 -1.608863,-1.35399 H 38.89762 q -0.812396,0 -1.226559,0.31859 -0.414163,0.30266 -0.414163,1.08319 0,1.354 1.592934,1.354 z m 0.812396,1.22655 h -2.469047 q -0.637173,0 -0.637173,0.60532 0,0.58938 0.605314,0.58938 h 3.34516 q 2.978786,0 2.978786,2.2779 0,1.27435 -1.035407,1.95931 -1.035407,0.70089 -2.755775,0.70089 -3.679676,0 -3.679676,-3.23366 v -0.81239 q -0.828325,-0.38231 -0.828325,-1.48143 0,-0.63717 0.318587,-1.05134 0.318586,-0.41416 0.844254,-0.55752 -0.06372,-0.0478 -0.175222,-0.1593 -0.09558,-0.12743 -0.270799,-0.54159 -0.175223,-0.41417 -0.175223,-0.90798 0,-1.3062 0.812396,-1.99116 0.812396,-0.68496 2.198248,-0.68496 h 4.7788 v 1.38585 h -1.258417 q 0.493809,0.35044 0.493809,1.3062 0,1.21063 -0.844254,1.91152 -0.828326,0.68496 -2.246036,0.68496 z"
     style="font-style:normal;font-variant:normal;font-weight:normal;font-stretch:normal;font-size:15.92933273px;font-family:KonsensMedium;-inkscape-font-specification:'KonsensMedium, Normal';font-variant-ligatures:normal;font-variant-caps:normal;font-variant-numeric:normal;font-feature-settings:normal;text-align:center;writing-mode:lr-tb;text-anchor:middle;fill:#ffffff"
     id="path883" /><path
     d="m 51.643822,338.39724 h -1.592933 q 0,-1.43364 -1.879661,-1.43364 -0.892043,0 -1.369923,0.31859 -0.461951,0.31859 -0.461951,0.84426 0,0.4938 0.398234,0.7646 0.398233,0.2708 0.987618,0.33452 0.589386,0.0637 1.274347,0.19115 0.700891,0.12744 1.290276,0.30266 0.589385,0.15929 0.987618,0.6531 0.398234,0.49381 0.398234,1.29028 0,1.17877 -0.939831,1.87966 -0.93983,0.68496 -2.580552,0.68496 -1.65665,0 -2.61241,-0.74868 -0.939831,-0.74868 -0.939831,-1.97524 v -0.0796 h 1.640721 q 0,1.44957 1.943379,1.44957 0.923901,0 1.417711,-0.30266 0.509738,-0.31859 0.509738,-0.84426 0,-0.52566 -0.557526,-0.7646 -0.541598,-0.23894 -1.322135,-0.33452 -0.780537,-0.0956 -1.577004,-0.25487 -0.780537,-0.15929 -1.338064,-0.70089 -0.541597,-0.55753 -0.541597,-1.51329 0,-1.17877 0.907972,-1.86373 0.923901,-0.68496 2.516834,-0.68496 1.640722,0 2.532764,0.74868 0.907972,0.73275 0.907972,1.97524 z"
     style="font-style:normal;font-variant:normal;font-weight:normal;font-stretch:normal;font-size:15.92933273px;font-family:KonsensMedium;-inkscape-font-specification:'KonsensMedium, Normal';font-variant-ligatures:normal;font-variant-caps:normal;font-variant-numeric:normal;font-feature-settings:normal;text-align:center;writing-mode:lr-tb;text-anchor:middle;fill:#ffffff"
     id="path885" /><path
     d="m 13.514351,364.01161 h -1.608863 v -5.79828 q 0,-1.16284 -0.971689,-1.16284 -0.461951,0 -1.1309827,0.38231 l -1.1309826,0.66903 v 5.90978 H 7.0789004 v -5.79828 q 0,-1.14691 -0.9876187,-1.14691 -0.4938093,0 -1.1150532,0.36638 l -1.1309827,0.66903 v 5.90978 H 2.2523126 v -8.37883 h 1.5610746 v 0.98762 l 0.7964666,-0.47788 q 0.8920426,-0.57346 1.8318733,-0.57346 1.4495692,0 1.9593079,1.17878 l 0.95576,-0.58939 q 0.987619,-0.58939 1.927449,-0.58939 1.051336,0 1.640721,0.65311 0.589386,0.63717 0.589386,1.80001 z"
     style="font-style:normal;font-variant:normal;font-weight:normal;font-stretch:normal;font-size:15.92933273px;font-family:KonsensMedium;-inkscape-font-specification:'KonsensMedium, Normal';font-variant-ligatures:normal;font-variant-caps:normal;font-variant-numeric:normal;font-feature-settings:normal;text-align:center;writing-mode:lr-tb;text-anchor:middle;fill:#ffffff"
     id="path887" /><path
     d="m 21.076054,361.54256 v -1.06726 h -2.500905 q -1.592933,0 -1.592933,1.21063 0,0.49381 0.286728,0.78054 0.286728,0.27079 0.812396,0.27079 0.780537,0 1.624792,-0.46195 z m 1.592934,2.46905 h -1.592934 v -1.08319 l -0.923901,0.50974 q -1.242488,0.66903 -2.341612,0.66903 -1.099124,0 -1.784085,-0.65311 -0.669032,-0.6531 -0.669032,-1.70443 0,-1.22656 0.844255,-1.87967 0.860184,-0.6531 2.198248,-0.6531 h 2.692057 v -0.52567 q 0,-1.83187 -1.927449,-1.83187 -2.038955,0 -2.038955,1.64072 h -1.577004 v -0.0796 q 0,-1.36993 0.987619,-2.15046 1.003548,-0.78054 2.61241,-0.78054 1.656651,0 2.580552,0.82832 0.939831,0.8124 0.939831,2.29383 z"
     style="font-style:normal;font-variant:normal;font-weight:normal;font-stretch:normal;font-size:15.92933273px;font-family:KonsensMedium;-inkscape-font-specification:'KonsensMedium, Normal';font-variant-ligatures:normal;font-variant-caps:normal;font-variant-numeric:normal;font-feature-settings:normal;text-align:center;writing-mode:lr-tb;text-anchor:middle;fill:#ffffff"
     id="path889" /><path
     d="m 30.654561,361.08061 v -2.53276 q 0,-0.70089 -0.398234,-1.11505 -0.398233,-0.4301 -1.067265,-0.4301 -0.669032,0 -1.322135,0.36638 l -1.481428,0.82832 v 3.23366 l 1.481428,0.82832 q 0.653103,0.36638 1.322135,0.36638 0.669032,0 1.067265,-0.41416 0.398234,-0.4301 0.398234,-1.13099 z m -4.269062,5.862 h -1.577004 v -11.30983 h 1.561075 v 1.01948 l 1.035407,-0.57346 q 0.95576,-0.54159 1.991166,-0.54159 1.258418,0 2.038955,0.78053 0.796466,0.78054 0.796466,2.03896 v 2.86728 q 0,1.25842 -0.796466,2.07081 -0.796467,0.79647 -2.054884,0.79647 -1.019477,0 -1.975237,-0.5416 l -1.019478,-0.57346 z"
     style="font-style:normal;font-variant:normal;font-weight:normal;font-stretch:normal;font-size:15.92933273px;font-family:KonsensMedium;-inkscape-font-specification:'KonsensMedium, Normal';font-variant-ligatures:normal;font-variant-caps:normal;font-variant-numeric:normal;font-feature-settings:normal;text-align:center;writing-mode:lr-tb;text-anchor:middle;fill:#ffffff"
     id="path891" /></g>
</g></g></svg>