<?xml version="1.0" encoding="UTF-8" standalone="no"?>
<!-- Generator: Adobe Illustrator 19.1.0, SVG Export Plug-In . SVG Version: 6.00 Build 0)  -->

<svg
   xmlns:dc="http://purl.org/dc/elements/1.1/"
   xmlns:cc="http://creativecommons.org/ns#"
   xmlns:rdf="http://www.w3.org/1999/02/22-rdf-syntax-ns#"
   xmlns:svg="http://www.w3.org/2000/svg"
   xmlns="http://www.w3.org/2000/svg"
   xmlns:sodipodi="http://sodipodi.sourceforge.net/DTD/sodipodi-0.dtd"
   xmlns:inkscape="http://www.inkscape.org/namespaces/inkscape"
   version="1.1"
   id="Calque_1"
   x="0px"
   y="0px"
   viewBox="-330 571.3 138.7 138.7"
   style="enable-background:new -330 571.3 138.7 138.7;"
   xml:space="preserve"
   sodipodi:docname="main_menu_logo_report_sighting-.svg"
   inkscape:version="0.92.2 5c3e80d, 2017-08-06"><metadata
     id="metadata69"><rdf:RDF><cc:Work
         rdf:about=""><dc:format>image/svg+xml</dc:format><dc:type
           rdf:resource="http://purl.org/dc/dcmitype/StillImage" /></cc:Work></rdf:RDF></metadata><defs
     id="defs67" /><sodipodi:namedview
     pagecolor="#ffffff"
     bordercolor="#666666"
     borderopacity="1"
     objecttolerance="10"
     gridtolerance="10"
     guidetolerance="10"
     inkscape:pageopacity="0"
     inkscape:pageshadow="2"
     inkscape:window-width="2560"
     inkscape:window-height="1315"
     id="namedview65"
     showgrid="false"
     inkscape:zoom="8"
     inkscape:cx="58.376326"
     inkscape:cy="69.349998"
     inkscape:window-x="0"
     inkscape:window-y="1"
     inkscape:window-maximized="1"
     inkscape:current-layer="Calque_1" /><style
     type="text/css"
     id="style2">
	.st0{fill:#7A9C2B;}
	.st1{fill:#FFFFFF;}
</style><g
     id="g6"><path
       class="st0"
       d="M-330,640.7c0-38.3,31-69.3,69.3-69.3c38.3,0,69.3,31,69.3,69.3s-31,69.3-69.3,69.3   C-299,710-330,679-330,640.7"
       id="path4" /></g><g
     id="g62"><g
       id="g44"><path
         class="st1"
         d="M-246.4,604.3c-1.5-0.4-5.1-1-5.1-1s-4.9-3.9-9.2-3.9c-4.3,0-9.2,3.9-9.2,3.9s-3.6,0.6-5.1,1    c6.7,2.4,11.5,8.9,11.5,16.4c0,3.1-0.8,6-2.2,8.5h10c-1.4-2.5-2.2-5.4-2.2-8.5C-257.9,613.2-253.1,606.8-246.4,604.3"
         id="path42" /></g><g
       id="g48"><path
         class="st1"
         d="M-281.9,605.1c-9,0-16.3,7.3-16.3,16.3c0,9,7.3,16.3,16.3,16.3c9,0,16.3-7.3,16.3-16.3    S-272.9,605.1-281.9,605.1 M-281.9,631.7c-5.7,0-10.3-4.6-10.3-10.3c0-5.7,4.6-10.3,10.3-10.3c5.7,0,10.3,4.6,10.3,10.3    C-271.6,627-276.2,631.7-281.9,631.7"
         id="path46" /></g><g
       id="g52"><path
         class="st1"
         d="M-288.5,616.2c-2.2,2.9-2,6.9,0.3,9.5c-0.8-2.7-0.4-5.8,1.5-8.2c1.9-2.4,4.7-3.6,7.5-3.5    C-282.4,612.5-286.3,613.3-288.5,616.2"
         id="path50" /></g><g
       id="g56"><path
         class="st1"
         d="M-239.5,605.1c-9,0-16.3,7.3-16.3,16.3c0,9,7.3,16.3,16.3,16.3c9,0,16.3-7.3,16.3-16.3    S-230.5,605.1-239.5,605.1 M-239.5,631.7c-5.7,0-10.3-4.6-10.3-10.3c0-5.7,4.6-10.3,10.3-10.3c5.7,0,10.3,4.6,10.3,10.3    C-229.2,627-233.8,631.7-239.5,631.7"
         id="path54" /></g><g
       id="g60"><path
         class="st1"
         d="M-242.1,614c2.8-0.1,5.7,1.1,7.5,3.5c1.9,2.4,2.3,5.5,1.5,8.2c2.3-2.7,2.5-6.6,0.3-9.5    C-235,613.3-238.9,612.5-242.1,614"
         id="path58" /></g></g><g
     aria-label="Report
a sighting"
     style="font-style:normal;font-variant:normal;font-weight:normal;font-stretch:normal;font-size:15.92933273px;line-height:1.25;font-family:KonsensMedium;-inkscape-font-specification:'KonsensMedium, Normal';font-variant-ligatures:normal;font-variant-caps:normal;font-variant-numeric:normal;font-feature-settings:normal;text-align:center;letter-spacing:0px;word-spacing:0px;writing-mode:lr-tb;text-anchor:middle;fill:#ffffff;fill-opacity:1;stroke:none"
     id="text73"><path
       d="m -276.09527,663.04584 h -1.94338 l -2.30975,-4.60358 h -2.81949 v 4.60358 h -1.7363 v -11.85143 h 5.08146 q 1.56107,0 2.59648,0.95576 1.0354,0.95576 1.0354,2.64427 0,1.27435 -0.66903,2.15046 -0.66903,0.87612 -1.73629,1.24249 z m -7.07262,-6.10094 h 3.13808 q 0.93983,0 1.51328,-0.57345 0.58939,-0.58939 0.58939,-1.59294 0,-0.98761 -0.5416,-1.52921 -0.5416,-0.5416 -1.48143,-0.5416 h -3.21772 z"
       style=""
       id="path831" /><path
       d="m -267.21019,660.38564 v 0.0797 q 0,1.22655 -0.97169,1.97523 -0.97168,0.74868 -2.59648,0.74868 -1.62479,0 -2.64427,-0.84425 -1.01947,-0.86019 -1.01947,-2.34162 v -2.00709 q 0,-1.56108 1.01947,-2.50091 1.01948,-0.93983 2.62834,-0.93983 1.60887,0 2.61241,0.93983 1.00355,0.9239 1.00355,2.51684 v 1.41771 h -5.71863 v 0.47788 q 0,0.93983 0.57346,1.43364 0.58938,0.47788 1.54514,0.47788 2.02303,0 2.02303,-1.43364 z m -1.49735,-2.15046 v -0.25487 q 0,-0.98762 -0.55753,-1.51329 -0.5416,-0.54159 -1.52922,-0.54159 -0.98761,0 -1.54514,0.54159 -0.55753,0.5416 -0.55753,1.52922 v 0.23894 z"
       style=""
       id="path833" /><path
       d="m -259.25722,660.11484 v -2.53276 q 0,-0.70089 -0.39823,-1.11506 -0.39823,-0.43009 -1.06727,-0.43009 -0.66903,0 -1.32213,0.36638 l -1.48143,0.82832 v 3.23366 l 1.48143,0.82832 q 0.6531,0.36638 1.32213,0.36638 0.66904,0 1.06727,-0.41417 0.39823,-0.43009 0.39823,-1.13098 z m -4.26906,5.86199 h -1.577 v -11.30982 h 1.56107 v 1.01948 l 1.03541,-0.57346 q 0.95576,-0.5416 1.99117,-0.5416 1.25841,0 2.03895,0.78054 0.79647,0.78054 0.79647,2.03895 v 2.86728 q 0,1.25842 -0.79647,2.07082 -0.79647,0.79646 -2.05488,0.79646 -1.01948,0 -1.97524,-0.54159 l -1.01948,-0.57346 z"
       style=""
       id="path835" /><path
       d="m -249.91217,659.62103 v -1.48143 q 0,-1.01947 -0.60532,-1.59293 -0.58938,-0.57346 -1.56107,-0.57346 -0.98762,0 -1.57701,0.57346 -0.58938,0.57346 -0.58938,1.59293 v 1.48143 q 0,1.01948 0.58938,1.60886 0.58939,0.57346 1.57701,0.57346 0.97169,0 1.56107,-0.57346 0.60532,-0.57345 0.60532,-1.60886 z m 1.56107,-1.62479 v 1.78408 q 0,1.56108 -1.05134,2.50091 -1.0354,0.93983 -2.67612,0.93983 -1.64073,0 -2.69206,-0.93983 -1.03541,-0.93983 -1.03541,-2.50091 v -1.78408 q 0,-1.56108 1.03541,-2.50091 1.05133,-0.93983 2.69206,-0.93983 1.64072,0 2.67612,0.93983 1.05134,0.93983 1.05134,2.50091 z"
       style=""
       id="path837" /><path
       d="m -244.65574,663.04584 h -1.6248 v -8.37883 h 1.59294 v 1.27435 l 0.3823,-0.38231 q 1.00355,-0.9239 2.18232,-0.9239 h 0.43009 v 1.65665 h -0.41416 q -1.0832,0 -1.8478,0.63717 l -0.70089,0.57346 z"
       style=""
       id="path839" /><path
       d="m -235.62381,663.04584 h -1.05134 q -1.43364,0 -2.26196,-0.73275 -0.82833,-0.73275 -0.82833,-2.13453 v -4.10977 h -1.33806 v -1.40178 h 1.35399 v -2.26197 h 1.62479 v 2.26197 h 2.43719 v 1.40178 h -2.43719 v 4.03012 q 0,0.82833 0.36638,1.17877 0.3823,0.33452 1.17877,0.33452 h 0.95576 z"
       style=""
       id="path841" /><path
       d="m -290.9719,680.48846 v -1.06727 h -2.5009 q -1.59294,0 -1.59294,1.21063 0,0.49381 0.28673,0.78054 0.28673,0.2708 0.8124,0.2708 0.78054,0 1.62479,-0.46195 z m 1.59294,2.46904 h -1.59294 v -1.08319 l -0.9239,0.50974 q -1.24249,0.66903 -2.34161,0.66903 -1.09912,0 -1.78409,-0.6531 -0.66903,-0.65311 -0.66903,-1.70444 0,-1.22656 0.84426,-1.87966 0.86018,-0.65311 2.19824,-0.65311 h 2.69206 v -0.52566 q 0,-1.83188 -1.92745,-1.83188 -2.03895,0 -2.03895,1.64072 h -1.57701 v -0.0796 q 0,-1.36993 0.98762,-2.15046 1.00355,-0.78054 2.61241,-0.78054 1.65665,0 2.58056,0.82833 0.93983,0.81239 0.93983,2.29382 z"
       style=""
       id="path843" /><path
       d="m -275.94456,677.2548 h -1.59294 q 0,-1.43364 -1.87966,-1.43364 -0.89204,0 -1.36992,0.31859 -0.46195,0.31859 -0.46195,0.84425 0,0.49381 0.39823,0.76461 0.39824,0.2708 0.98762,0.33452 0.58939,0.0637 1.27435,0.19115 0.70089,0.12743 1.29027,0.30266 0.58939,0.15929 0.98762,0.6531 0.39824,0.49381 0.39824,1.29028 0,1.17877 -0.93984,1.87966 -0.93983,0.68496 -2.58055,0.68496 -1.65665,0 -2.61241,-0.74868 -0.93983,-0.74868 -0.93983,-1.97524 v -0.0796 h 1.64072 q 0,1.44956 1.94338,1.44956 0.9239,0 1.41771,-0.30265 0.50974,-0.31859 0.50974,-0.84426 0,-0.52567 -0.55753,-0.76461 -0.54159,-0.23894 -1.32213,-0.33451 -0.78054,-0.0956 -1.577,-0.25487 -0.78054,-0.15929 -1.33807,-0.70089 -0.5416,-0.55753 -0.5416,-1.51329 0,-1.17877 0.90798,-1.86373 0.9239,-0.68496 2.51683,-0.68496 1.64072,0 2.53276,0.74868 0.90798,0.73275 0.90798,1.97523 z"
       style=""
       id="path845" /><path
       d="m -272.28206,682.9575 h -1.64072 v -8.37883 h 1.64072 z m 0.1115,-11.11867 v 0.33452 q 0,0.36637 -0.27079,0.58938 -0.25487,0.22301 -0.65311,0.22301 -0.43009,0 -0.68496,-0.20708 -0.25487,-0.22301 -0.25487,-0.60531 v -0.33452 q 0,-0.3823 0.25487,-0.58939 0.25487,-0.22301 0.68496,-0.22301 0.39824,0 0.65311,0.22301 0.27079,0.22301 0.27079,0.58939 z"
       style=""
       id="path847" /><path
       d="m -265.38541,682.32033 h -2.86728 v 0.36637 q 0,1.03541 0.49381,1.52922 0.50974,0.50974 1.72037,0.50974 2.26197,0 2.26197,-1.33806 0,-0.58939 -0.41417,-0.82833 -0.39823,-0.23894 -1.1947,-0.23894 z m -1.48142,-3.67968 h 0.6531 q 1.78408,0 1.78408,-1.40178 0,-1.35399 -1.60886,-1.35399 h -0.78054 q -0.81239,0 -1.22655,0.31859 -0.41417,0.30265 -0.41417,1.08319 0,1.35399 1.59294,1.35399 z m 0.81239,1.22656 h -2.46904 q -0.63718,0 -0.63718,0.60532 0,0.58938 0.60532,0.58938 h 3.34516 q 2.97878,0 2.97878,2.2779 0,1.27434 -1.03541,1.95931 -1.0354,0.70089 -2.75577,0.70089 -3.67968,0 -3.67968,-3.23366 v -0.81239 q -0.82832,-0.38231 -0.82832,-1.48143 0,-0.63718 0.31859,-1.05134 0.31858,-0.41416 0.84425,-0.55753 -0.0637,-0.0478 -0.17522,-0.15929 -0.0956,-0.12743 -0.2708,-0.5416 -0.17522,-0.41416 -0.17522,-0.90797 0,-1.3062 0.81239,-1.99116 0.8124,-0.68497 2.19825,-0.68497 h 4.7788 v 1.38586 h -1.25842 q 0.49381,0.35044 0.49381,1.3062 0,1.21063 -0.84425,1.91152 -0.82833,0.68496 -2.24604,0.68496 z"
       style=""
       id="path849" /><path
       d="m -253.67461,682.9575 h -1.62479 v -5.59119 q 0,-0.62125 -0.33452,-1.00355 -0.33451,-0.3823 -0.90797,-0.3823 -0.5416,0 -1.25842,0.41416 l -1.36992,0.81239 v 5.75049 h -1.59293 v -11.85142 h 1.59293 v 4.57172 l 0.93983,-0.58939 q 0.98762,-0.58938 1.99117,-0.58938 1.17877,0 1.86373,0.73275 0.70089,0.73275 0.70089,1.94338 z"
       style=""
       id="path851" /><path
       d="m -246.77746,682.9575 h -1.05133 q -1.43364,0 -2.26197,-0.73275 -0.82832,-0.73275 -0.82832,-2.13453 v -4.10976 h -1.33807 v -1.40179 h 1.354 v -2.26196 h 1.62479 v 2.26196 h 2.43719 v 1.40179 h -2.43719 v 4.03012 q 0,0.82832 0.36637,1.17877 0.38231,0.33451 1.17877,0.33451 h 0.95576 z"
       style=""
       id="path853" /><path
       d="m -243.44126,682.9575 h -1.64072 v -8.37883 h 1.64072 z m 0.11151,-11.11867 v 0.33452 q 0,0.36637 -0.2708,0.58938 -0.25487,0.22301 -0.6531,0.22301 -0.4301,0 -0.68496,-0.20708 -0.25487,-0.22301 -0.25487,-0.60531 v -0.33452 q 0,-0.3823 0.25487,-0.58939 0.25486,-0.22301 0.68496,-0.22301 0.39823,0 0.6531,0.22301 0.2708,0.22301 0.2708,0.58939 z"
       style=""
       id="path855" /><path
       d="m -234.01184,682.9575 h -1.62479 v -5.59119 q 0,-0.60532 -0.33452,-0.98762 -0.31858,-0.39823 -0.90797,-0.39823 -0.54159,0 -1.25841,0.41416 l -1.36993,0.81239 v 5.75049 h -1.59293 v -8.37883 h 1.577 v 1.09913 l 0.95576,-0.58939 q 0.93983,-0.58938 1.99117,-0.58938 1.17877,0 1.86373,0.73275 0.70089,0.73275 0.70089,1.94338 z"
       style=""
       id="path857" /><path
       d="m -227.24212,682.32033 h -2.86728 v 0.36637 q 0,1.03541 0.49381,1.52922 0.50974,0.50974 1.72037,0.50974 2.26196,0 2.26196,-1.33806 0,-0.58939 -0.41416,-0.82833 -0.39823,-0.23894 -1.1947,-0.23894 z m -1.48143,-3.67968 h 0.65311 q 1.78408,0 1.78408,-1.40178 0,-1.35399 -1.60886,-1.35399 h -0.78054 q -0.81239,0 -1.22656,0.31859 -0.41416,0.30265 -0.41416,1.08319 0,1.35399 1.59293,1.35399 z m 0.8124,1.22656 h -2.46905 q -0.63717,0 -0.63717,0.60532 0,0.58938 0.60531,0.58938 h 3.34516 q 2.97879,0 2.97879,2.2779 0,1.27434 -1.03541,1.95931 -1.0354,0.70089 -2.75577,0.70089 -3.67968,0 -3.67968,-3.23366 v -0.81239 q -0.82832,-0.38231 -0.82832,-1.48143 0,-0.63718 0.31858,-1.05134 0.31859,-0.41416 0.84426,-0.55753 -0.0637,-0.0478 -0.17522,-0.15929 -0.0956,-0.12743 -0.2708,-0.5416 -0.17523,-0.41416 -0.17523,-0.90797 0,-1.3062 0.8124,-1.99116 0.8124,-0.68497 2.19825,-0.68497 h 4.7788 v 1.38586 h -1.25842 q 0.49381,0.35044 0.49381,1.3062 0,1.21063 -0.84425,1.91152 -0.82833,0.68496 -2.24604,0.68496 z"
       style=""
       id="path859" /></g></svg>