<?xml version="1.0" encoding="UTF-8" standalone="no"?>
<!-- Generator: Adobe Illustrator 19.1.0, SVG Export Plug-In . SVG Version: 6.00 Build 0)  -->

<svg
   xmlns:dc="http://purl.org/dc/elements/1.1/"
   xmlns:cc="http://creativecommons.org/ns#"
   xmlns:rdf="http://www.w3.org/1999/02/22-rdf-syntax-ns#"
   xmlns:svg="http://www.w3.org/2000/svg"
   xmlns="http://www.w3.org/2000/svg"
   xmlns:sodipodi="http://sodipodi.sourceforge.net/DTD/sodipodi-0.dtd"
   xmlns:inkscape="http://www.inkscape.org/namespaces/inkscape"
   version="1.1"
   id="Calque_1"
   x="0px"
   y="0px"
   viewBox="-330 571.3 138.7 138.7"
   style="enable-background:new -330 571.3 138.7 138.7;"
   xml:space="preserve"
   sodipodi:docname="main_menu_logo_invasive_species-.svg"
   inkscape:version="0.92.2 5c3e80d, 2017-08-06"><metadata
     id="metadata93"><rdf:RDF><cc:Work
         rdf:about=""><dc:format>image/svg+xml</dc:format><dc:type
           rdf:resource="http://purl.org/dc/dcmitype/StillImage" /><dc:title /></cc:Work></rdf:RDF></metadata><defs
     id="defs91" /><sodipodi:namedview
     pagecolor="#ffffff"
     bordercolor="#666666"
     borderopacity="1"
     objecttolerance="10"
     gridtolerance="10"
     guidetolerance="10"
     inkscape:pageopacity="0"
     inkscape:pageshadow="2"
     inkscape:window-width="2560"
     inkscape:window-height="1315"
     id="namedview89"
     showgrid="false"
     inkscape:zoom="8"
     inkscape:cx="58.376326"
     inkscape:cy="69.349998"
     inkscape:window-x="0"
     inkscape:window-y="1"
     inkscape:window-maximized="1"
     inkscape:current-layer="Calque_1" /><style
     type="text/css"
     id="style2">
	.st0{fill:#559973;}
	.st1{fill:#FFFFFF;}
</style><g
     id="g6"><path
       class="st0"
       d="M-330,640.7c0-38.3,31-69.3,69.3-69.3c38.3,0,69.3,31,69.3,69.3s-31,69.3-69.3,69.3   C-299,710-330,679-330,640.7"
       id="path4" /></g><g
     id="g86"><g
       id="g44"><path
         class="st1"
         d="M-246.8,607.9c-6.1-6.3-16.1-6.5-22.4-0.4c-6.3,6.1-6.5,16.1-0.4,22.4c6.1,6.3,16.1,6.5,22.4,0.4    C-240.9,624.2-240.7,614.2-246.8,607.9"
         id="path42" /></g><g
       id="g48"><path
         class="st1"
         d="M-281.2,629c3.9-3.8,4-10.1,0.2-14c-3.8-3.9-10.1-4-14-0.2c-3.9,3.8-4,10.1-0.2,14    C-291.5,632.7-285.2,632.8-281.2,629"
         id="path46" /></g><g
       id="g52"><path
         class="st1"
         d="M-225.4,616c-2.8-2.9-7.5-3-10.5-0.2c-2.9,2.8-3,7.5-0.2,10.5c2.8,2.9,7.5,3,10.5,0.2    C-222.6,623.6-222.5,618.9-225.4,616"
         id="path50" /></g><g
       id="g56"><path
         class="st1"
         d="M-281.4,632.4c-2.9,2.8-3,7.5-0.2,10.5c2.8,2.9,7.5,3,10.5,0.2c2.9-2.8,3-7.5,0.2-10.5    C-273.8,629.7-278.4,629.6-281.4,632.4"
         id="path54" /></g><g
       id="g60"><path
         class="st1"
         d="M-264,639.8c-1.9,1.9-2,5-0.1,6.9c1.9,1.9,5,2,6.9,0.1c1.9-1.9,2-5,0.1-6.9C-259,637.9-262.1,637.9-264,639.8    "
         id="path58" /></g><g
       id="g64"><path
         class="st1"
         d="M-276.2,605.6c1.9-1.9,2-5,0.1-6.9c-1.9-1.9-5-2-6.9-0.1c-1.9,1.9-2,5-0.1,6.9    C-281.2,607.5-278.1,607.5-276.2,605.6"
         id="path62" /></g><g
       id="g68"><path
         class="st1"
         d="M-250.9,596.6c1.9-1.9,2-5,0.1-6.9c-1.9-1.9-5-2-6.9-0.1c-1.9,1.9-2,5-0.1,6.9S-252.9,598.5-250.9,596.6"
         id="path66" /></g><g
       id="g72"><path
         class="st1"
         d="M-241.2,634.8c-1.9,1.9-2,5-0.1,6.9c1.9,1.9,5,2,6.9,0.1c1.9-1.9,2-5,0.1-6.9    C-236.1,633-239.2,632.9-241.2,634.8"
         id="path70" /></g><g
       id="g76"><path
         class="st1"
         d="M-229.3,640.3c-1,0.9-1,2.5-0.1,3.5c0.9,1,2.5,1,3.5,0.1c1-0.9,1-2.5,0.1-3.5    C-226.7,639.4-228.3,639.3-229.3,640.3"
         id="path74" /></g><g
       id="g80"><path
         class="st1"
         d="M-290.8,638.1c-1,0.9-1,2.5-0.1,3.5c0.9,1,2.5,1,3.5,0.1c1-0.9,1-2.5,0.1-3.5    C-288.2,637.2-289.8,637.1-290.8,638.1"
         id="path78" /></g><g
       id="g84"><path
         class="st1"
         d="M-249.5,601.6c0.9,1,2.5,1,3.5,0.1c1-0.9,1-2.5,0.1-3.5c-0.9-1-2.5-1-3.5-0.1    C-250.4,599.1-250.4,600.6-249.5,601.6"
         id="path82" /></g></g><g
     aria-label="Invasive
species"
     style="font-style:normal;font-variant:normal;font-weight:normal;font-stretch:normal;font-size:15.92933273px;line-height:1.25;font-family:KonsensMedium;-inkscape-font-specification:'KonsensMedium, Normal';font-variant-ligatures:normal;font-variant-caps:normal;font-variant-numeric:normal;font-feature-settings:normal;text-align:center;letter-spacing:0px;word-spacing:0px;writing-mode:lr-tb;text-anchor:middle;fill:#000000;fill-opacity:1;stroke:none"
     id="text97"><path
       d="m -288.43187,670.15735 h -1.78409 v -11.85142 h 1.78409 z"
       style="fill:#ffffff"
       id="path843" /><path
       d="m -278.94471,670.15735 h -1.62479 v -5.5912 q 0,-0.60531 -0.33452,-0.98762 -0.31859,-0.39823 -0.90797,-0.39823 -0.5416,0 -1.25842,0.41416 l -1.36992,0.8124 v 5.75049 h -1.59294 v -8.37883 h 1.57701 v 1.09912 l 0.95576,-0.58938 q 0.93983,-0.58939 1.99117,-0.58939 1.17877,0 1.86373,0.73275 0.70089,0.73275 0.70089,1.94338 z"
       style="fill:#ffffff"
       id="path845" /><path
       d="m -272.79624,670.15735 h -1.81594 l -2.99472,-8.37883 h 1.76816 l 2.16639,6.54696 2.19825,-6.54696 h 1.67258 z"
       style="fill:#ffffff"
       id="path847" /><path
       d="m -263.04052,667.6883 v -1.06726 h -2.5009 q -1.59294,0 -1.59294,1.21063 0,0.49381 0.28673,0.78053 0.28673,0.2708 0.8124,0.2708 0.78053,0 1.62479,-0.46195 z m 1.59293,2.46905 h -1.59293 v -1.0832 l -0.9239,0.50974 q -1.24249,0.66903 -2.34161,0.66903 -1.09913,0 -1.78409,-0.6531 -0.66903,-0.6531 -0.66903,-1.70444 0,-1.22656 0.84426,-1.87966 0.86018,-0.6531 2.19824,-0.6531 h 2.69206 v -0.52567 q 0,-1.83187 -1.92745,-1.83187 -2.03895,0 -2.03895,1.64072 h -1.57701 v -0.0797 q 0,-1.36992 0.98762,-2.15046 1.00355,-0.78053 2.61241,-0.78053 1.65665,0 2.58055,0.82832 0.93983,0.8124 0.93983,2.29382 z"
       style="fill:#ffffff"
       id="path849" /><path
       d="m -252.61776,664.45465 h -1.59293 q 0,-1.43364 -1.87966,-1.43364 -0.89204,0 -1.36992,0.31858 -0.46195,0.31859 -0.46195,0.84426 0,0.49381 0.39823,0.76461 0.39823,0.2708 0.98762,0.33451 0.58938,0.0637 1.27434,0.19115 0.70089,0.12744 1.29028,0.30266 0.58939,0.1593 0.98762,0.6531 0.39823,0.49381 0.39823,1.29028 0,1.17877 -0.93983,1.87966 -0.93983,0.68496 -2.58055,0.68496 -1.65665,0 -2.61241,-0.74868 -0.93983,-0.74867 -0.93983,-1.97523 v -0.0797 h 1.64072 q 0,1.44957 1.94338,1.44957 0.9239,0 1.41771,-0.30266 0.50974,-0.31858 0.50974,-0.84425 0,-0.52567 -0.55753,-0.76461 -0.5416,-0.23894 -1.32213,-0.33452 -0.78054,-0.0956 -1.57701,-0.25487 -0.78054,-0.15929 -1.33806,-0.70089 -0.5416,-0.55752 -0.5416,-1.51328 0,-1.17877 0.90797,-1.86373 0.9239,-0.68497 2.51684,-0.68497 1.64072,0 2.53276,0.74868 0.90797,0.73275 0.90797,1.97524 z"
       style="fill:#ffffff"
       id="path851" /><path
       d="m -248.95526,670.15735 h -1.64072 v -8.37883 h 1.64072 z m 0.11151,-11.11868 v 0.33452 q 0,0.36638 -0.2708,0.58939 -0.25487,0.22301 -0.6531,0.22301 -0.43009,0 -0.68496,-0.20708 -0.25487,-0.22302 -0.25487,-0.60532 v -0.33452 q 0,-0.3823 0.25487,-0.58938 0.25487,-0.22301 0.68496,-0.22301 0.39823,0 0.6531,0.22301 0.2708,0.22301 0.2708,0.58938 z"
       style="fill:#ffffff"
       id="path853" /><path
       d="m -242.67984,670.15735 h -1.81595 l -2.99471,-8.37883 h 1.76815 l 2.16639,6.54696 2.19825,-6.54696 h 1.67258 z"
       style="fill:#ffffff"
       id="path855" /><path
       d="m -231.26747,667.49715 v 0.0797 q 0,1.22656 -0.97169,1.97523 -0.97169,0.74868 -2.59648,0.74868 -1.6248,0 -2.64427,-0.84425 -1.01948,-0.86019 -1.01948,-2.34161 v -2.0071 q 0,-1.56107 1.01948,-2.50091 1.01947,-0.93983 2.62834,-0.93983 1.60886,0 2.61241,0.93983 1.00354,0.92391 1.00354,2.51684 v 1.41771 h -5.71863 v 0.47788 q 0,0.93983 0.57346,1.43364 0.58939,0.47788 1.54515,0.47788 2.02302,0 2.02302,-1.43364 z m -1.49736,-2.15046 v -0.25487 q 0,-0.98762 -0.55753,-1.51329 -0.5416,-0.54159 -1.52921,-0.54159 -0.98762,0 -1.54515,0.54159 -0.55753,0.5416 -0.55753,1.52922 v 0.23894 z"
       style="fill:#ffffff"
       id="path857" /><path
       d="m -282.03413,684.36631 h -1.59294 q 0,-1.43364 -1.87966,-1.43364 -0.89204,0 -1.36992,0.31859 -0.46195,0.31859 -0.46195,0.84425 0,0.49381 0.39823,0.76461 0.39824,0.2708 0.98762,0.33452 0.58939,0.0637 1.27435,0.19115 0.70089,0.12744 1.29027,0.30266 0.58939,0.15929 0.98762,0.6531 0.39824,0.49381 0.39824,1.29028 0,1.17877 -0.93983,1.87966 -0.93983,0.68496 -2.58056,0.68496 -1.65665,0 -2.61241,-0.74868 -0.93983,-0.74868 -0.93983,-1.97524 v -0.0796 h 1.64072 q 0,1.44957 1.94338,1.44957 0.9239,0 1.41771,-0.30266 0.50974,-0.31859 0.50974,-0.84426 0,-0.52566 -0.55752,-0.7646 -0.5416,-0.23894 -1.32214,-0.33452 -0.78054,-0.0956 -1.577,-0.25487 -0.78054,-0.15929 -1.33807,-0.70089 -0.54159,-0.55753 -0.54159,-1.51329 0,-1.17877 0.90797,-1.86373 0.9239,-0.68496 2.51683,-0.68496 1.64072,0 2.53277,0.74868 0.90797,0.73275 0.90797,1.97524 z"
       style="fill:#ffffff"
       id="path859" /><path
       d="m -274.19814,687.13802 v -2.53277 q 0,-0.70089 -0.39824,-1.11505 -0.39823,-0.43009 -1.06726,-0.43009 -0.66904,0 -1.32214,0.36637 l -1.48143,0.82833 v 3.23365 l 1.48143,0.82833 q 0.6531,0.36637 1.32214,0.36637 0.66903,0 1.06726,-0.41416 0.39824,-0.43009 0.39824,-1.13098 z m -4.26907,5.86199 h -1.577 v -11.30982 h 1.56107 v 1.01947 l 1.03541,-0.57345 q 0.95576,-0.5416 1.99117,-0.5416 1.25842,0 2.03895,0.78054 0.79647,0.78053 0.79647,2.03895 v 2.86728 q 0,1.25842 -0.79647,2.07081 -0.79646,0.79647 -2.05488,0.79647 -1.01948,0 -1.97524,-0.5416 l -1.01948,-0.57345 z"
       style="fill:#ffffff"
       id="path861" /><path
       d="m -263.51504,687.40882 v 0.0796 q 0,1.22656 -0.97169,1.97524 -0.97169,0.74868 -2.59648,0.74868 -1.62479,0 -2.64427,-0.84426 -1.01947,-0.86018 -1.01947,-2.34161 v -2.00709 q 0,-1.56108 1.01947,-2.50091 1.01948,-0.93983 2.62834,-0.93983 1.60887,0 2.61241,0.93983 1.00355,0.9239 1.00355,2.51684 v 1.41771 h -5.71863 v 0.47788 q 0,0.93983 0.57346,1.43364 0.58938,0.47788 1.54514,0.47788 2.02303,0 2.02303,-1.43364 z m -1.49735,-2.15046 v -0.25487 q 0,-0.98762 -0.55753,-1.51329 -0.5416,-0.5416 -1.52922,-0.5416 -0.98762,0 -1.54514,0.5416 -0.55753,0.5416 -0.55753,1.52922 v 0.23894 z"
       style="fill:#ffffff"
       id="path863" /><path
       d="m -254.55852,686.96279 v 0.12744 q 0,1.49736 -0.95576,2.30975 -0.95576,0.8124 -2.59648,0.8124 -1.59294,0 -2.56463,-0.86019 -0.95576,-0.87611 -0.95576,-2.40532 v -2.11861 q 0,-1.51328 0.95576,-2.37347 0.97169,-0.87611 2.56463,-0.87611 1.64072,0 2.59648,0.8124 0.95576,0.79646 0.95576,2.29382 v 0.12743 h -1.56108 q 0,-1.81594 -1.99116,-1.81594 -1.92745,0 -1.92745,1.97524 v 1.83187 q 0,1.97524 1.92745,1.97524 1.99116,0 1.99116,-1.81595 z"
       style="fill:#ffffff"
       id="path865" /><path
       d="m -250.86864,690.06901 h -1.64072 v -8.37882 h 1.64072 z m 0.11151,-11.11867 v 0.33452 q 0,0.36637 -0.2708,0.58938 -0.25487,0.22301 -0.65311,0.22301 -0.43009,0 -0.68496,-0.20708 -0.25487,-0.22301 -0.25487,-0.60531 v -0.33452 q 0,-0.3823 0.25487,-0.58939 0.25487,-0.22301 0.68496,-0.22301 0.39824,0 0.65311,0.22301 0.2708,0.22302 0.2708,0.58939 z"
       style="fill:#ffffff"
       id="path867" /><path
       d="m -241.51887,687.40882 v 0.0796 q 0,1.22656 -0.97169,1.97524 -0.97169,0.74868 -2.59648,0.74868 -1.62479,0 -2.64427,-0.84426 -1.01948,-0.86018 -1.01948,-2.34161 v -2.00709 q 0,-1.56108 1.01948,-2.50091 1.01948,-0.93983 2.62834,-0.93983 1.60886,0 2.61241,0.93983 1.00355,0.9239 1.00355,2.51684 v 1.41771 h -5.71863 v 0.47788 q 0,0.93983 0.57345,1.43364 0.58939,0.47788 1.54515,0.47788 2.02302,0 2.02302,-1.43364 z m -1.49736,-2.15046 v -0.25487 q 0,-0.98762 -0.55752,-1.51329 -0.5416,-0.5416 -1.52922,-0.5416 -0.98762,0 -1.54515,0.5416 -0.55752,0.5416 -0.55752,1.52922 v 0.23894 z"
       style="fill:#ffffff"
       id="path869" /><path
       d="m -232.72165,684.36631 h -1.59293 q 0,-1.43364 -1.87966,-1.43364 -0.89204,0 -1.36992,0.31859 -0.46195,0.31859 -0.46195,0.84425 0,0.49381 0.39823,0.76461 0.39823,0.2708 0.98762,0.33452 0.58938,0.0637 1.27434,0.19115 0.70089,0.12744 1.29028,0.30266 0.58938,0.15929 0.98762,0.6531 0.39823,0.49381 0.39823,1.29028 0,1.17877 -0.93983,1.87966 -0.93983,0.68496 -2.58055,0.68496 -1.65665,0 -2.61241,-0.74868 -0.93983,-0.74868 -0.93983,-1.97524 v -0.0796 h 1.64072 q 0,1.44957 1.94338,1.44957 0.9239,0 1.41771,-0.30266 0.50974,-0.31859 0.50974,-0.84426 0,-0.52566 -0.55753,-0.7646 -0.5416,-0.23894 -1.32213,-0.33452 -0.78054,-0.0956 -1.57701,-0.25487 -0.78054,-0.15929 -1.33806,-0.70089 -0.5416,-0.55753 -0.5416,-1.51329 0,-1.17877 0.90797,-1.86373 0.9239,-0.68496 2.51684,-0.68496 1.64072,0 2.53276,0.74868 0.90797,0.73275 0.90797,1.97524 z"
       style="fill:#ffffff"
       id="path871" /></g></svg>