<?xml version="1.0" encoding="UTF-8" standalone="no"?>
<!-- Generator: Adobe Illustrator 19.1.0, SVG Export Plug-In . SVG Version: 6.00 Build 0)  -->

<svg
   xmlns:dc="http://purl.org/dc/elements/1.1/"
   xmlns:cc="http://creativecommons.org/ns#"
   xmlns:rdf="http://www.w3.org/1999/02/22-rdf-syntax-ns#"
   xmlns:svg="http://www.w3.org/2000/svg"
   xmlns="http://www.w3.org/2000/svg"
   xmlns:sodipodi="http://sodipodi.sourceforge.net/DTD/sodipodi-0.dtd"
   xmlns:inkscape="http://www.inkscape.org/namespaces/inkscape"
   version="1.1"
   id="Calque_1"
   x="0px"
   y="0px"
   viewBox="-330 571.3 138.60001 138.60001"
   xml:space="preserve"
   sodipodi:docname="main_menu_logo_contact-tr.svg"
   inkscape:version="0.92.4 (5da689c313, 2019-01-14)"
   width="138.60001"
   height="138.60001"><metadata
   id="metadata43"><rdf:RDF><cc:Work
       rdf:about=""><dc:format>image/svg+xml</dc:format><dc:type
         rdf:resource="http://purl.org/dc/dcmitype/StillImage" /><dc:title /></cc:Work></rdf:RDF></metadata><defs
   id="defs41" /><sodipodi:namedview
   pagecolor="#ffffff"
   bordercolor="#666666"
   borderopacity="1"
   objecttolerance="10"
   gridtolerance="10"
   guidetolerance="10"
   inkscape:pageopacity="0"
   inkscape:pageshadow="2"
   inkscape:window-width="2400"
   inkscape:window-height="1271"
   id="namedview39"
   showgrid="false"
   inkscape:zoom="3"
   inkscape:cx="-129.92381"
   inkscape:cy="69.350001"
   inkscape:window-x="2391"
   inkscape:window-y="-9"
   inkscape:window-maximized="1"
   inkscape:current-layer="Calque_1"
   fit-margin-top="0"
   fit-margin-left="0"
   fit-margin-right="0"
   fit-margin-bottom="0" /><style
   type="text/css"
   id="style2">
	.st0{fill:#E8E493;}
	.st1{fill:#40637D;}
	.st2{fill:#FFFFFF;}
</style><g
   id="g6"
   transform="translate(0,-0.1)"><path
     class="st0"
     d="m -330,640.7 c 0,-38.3 31,-69.3 69.3,-69.3 38.3,0 69.3,31 69.3,69.3 0,38.3 -31,69.3 -69.3,69.3 -38.3,0 -69.3,-31 -69.3,-69.3"
     id="path4"
     style="fill:#ff7837;fill-opacity:1"
     inkscape:connector-curvature="0" /></g><g
   id="g36"
   transform="translate(0,-16.363454)"><g
     id="g30"><path
       class="st2"
       d="m -272.3,659 c 0,0.4 0.2,0.8 0.6,1 0.4,0.2 0.8,0.2 1.2,-0.1 l 7.7,-5.3 -9.5,-4.5 z"
       id="path28"
       inkscape:connector-curvature="0"
       style="fill:#ffffff" /></g><g
     id="g34"><path
       class="st2"
       d="m -226.4,599.6 c -0.2,-0.2 -0.5,-0.3 -0.8,-0.3 -0.2,0 -0.3,0 -0.5,0.1 l -66.6,32.7 c -0.7,0.3 -1.1,1 -1.1,1.8 0,0.8 0.4,1.5 1.1,1.8 l 17.6,8.4 35.1,-28.9 -30.8,30.9 21.9,10.4 c 0.3,0.1 0.6,0.2 0.9,0.2 0.2,0 0.5,0 0.7,-0.1 0.5,-0.2 0.9,-0.6 1.1,-1.1 l 21.7,-54.6 c 0.2,-0.5 0.1,-1 -0.3,-1.3"
       id="path32"
       inkscape:connector-curvature="0"
       style="fill:#ffffff" /></g></g><g
   aria-label="Bize ulaşın"
   style="font-style:normal;font-variant:normal;font-weight:normal;font-stretch:normal;font-size:15.46666718px;line-height:1.25;font-family:KonsensMedium;-inkscape-font-specification:'KonsensMedium, Normal';font-variant-ligatures:normal;font-variant-caps:normal;font-variant-numeric:normal;font-feature-settings:normal;text-align:center;letter-spacing:0px;word-spacing:0px;writing-mode:lr-tb;text-anchor:middle;fill:#ffffff;fill-opacity:1;stroke:none"
   id="text4541"><path
     d="m -297.72123,666.97524 h 3.2944 q 0.81973,0 1.33013,-0.464 0.52587,-0.464 0.52587,-1.36107 0,-0.89707 -0.5568,-1.392 -0.5568,-0.49493 -1.392,-0.49493 h -3.2016 z m 0,-5.1504 h 2.90773 q 0.8352,0 1.36107,-0.47947 0.54133,-0.47947 0.54133,-1.3456 0,-0.85067 -0.5104,-1.26827 -0.5104,-0.4176 -1.36107,-0.4176 h -2.93866 z m 3.5728,6.5888 h -5.2432 v -11.50721 h 4.94933 q 1.40747,0 2.30453,0.75787 0.91254,0.7424 0.91254,2.2272 0,0.5104 -0.15467,0.95894 -0.1392,0.44853 -0.35573,0.71146 -0.21654,0.26294 -0.43307,0.464 -0.21653,0.20107 -0.3712,0.2784 l -0.1392,0.0773 q 0.0773,0.0155 0.20107,0.0773 0.12373,0.0464 0.43306,0.26293 0.30934,0.21654 0.54134,0.5104 0.24746,0.2784 0.44853,0.80427 0.20107,0.52587 0.20107,1.16 0,1.51573 -0.9744,2.3664 -0.95894,0.85067 -2.32,0.85067 z"
     style=""
     id="path821" /><path
     d="m -287.33247,668.41364 h -1.59306 v -8.13547 h 1.59306 z m 0.10827,-10.79574 v 0.3248 q 0,0.35573 -0.26293,0.57227 -0.24747,0.21653 -0.63414,0.21653 -0.4176,0 -0.66506,-0.20107 -0.24747,-0.21653 -0.24747,-0.58773 v -0.3248 q 0,-0.3712 0.24747,-0.57227 0.24746,-0.21653 0.66506,-0.21653 0.38667,0 0.63414,0.21653 0.26293,0.21654 0.26293,0.57227 z"
     style=""
     id="path823" /><path
     d="m -278.50172,668.41364 h -6.8208 v -1.3456 l 4.7792,-5.4288 h -4.79467 v -1.36107 h 6.7744 v 1.3456 l -4.74827,5.44427 h 4.81014 z"
     style=""
     id="path825" /><path
     d="m -270.04122,665.8307 v 0.0773 q 0,1.19093 -0.94347,1.91786 -0.94346,0.72694 -2.52106,0.72694 -1.5776,0 -2.56747,-0.81974 -0.98987,-0.8352 -0.98987,-2.2736 v -1.9488 q 0,-1.51573 0.98987,-2.42826 0.98987,-0.91254 2.552,-0.91254 1.56213,0 2.53653,0.91254 0.9744,0.89706 0.9744,2.44373 v 1.37653 h -5.55253 v 0.464 q 0,0.91254 0.5568,1.392 0.57227,0.464 1.50027,0.464 1.96426,0 1.96426,-1.392 z m -1.45387,-2.088 v -0.24746 q 0,-0.95894 -0.54133,-1.46934 -0.52587,-0.52586 -1.4848,-0.52586 -0.95893,0 -1.50027,0.52586 -0.54133,0.52587 -0.54133,1.4848 v 0.232 z"
     style=""
     id="path827" /><path
     d="m -256.71572,668.41364 h -1.5312 v -1.0672 l -0.928,0.57226 q -0.9744,0.58774 -1.93333,0.57227 -1.14453,0 -1.82507,-0.696 -0.66506,-0.71147 -0.66506,-1.88693 v -5.62987 h 1.5776 v 5.44427 q 0,0.6032 0.3248,0.9744 0.3248,0.35573 0.8816,0.35573 0.52586,0 1.22186,-0.40213 l 1.33014,-0.7888 v -5.58347 h 1.54666 z"
     style=""
     id="path829" /><path
     d="m -252.89569,668.41364 h -1.59307 v -11.50721 h 1.59307 z"
     style=""
     id="path831" /><path
     d="m -245.48571,666.0163 v -1.03626 h -2.42826 q -1.54667,0 -1.54667,1.17546 0,0.47947 0.2784,0.75787 0.2784,0.26293 0.7888,0.26293 0.75787,0 1.5776,-0.44853 z m 1.54667,2.39734 h -1.54667 v -1.05174 l -0.89706,0.49494 q -1.2064,0.6496 -2.2736,0.6496 -1.0672,0 -1.73227,-0.63414 -0.6496,-0.63413 -0.6496,-1.65493 0,-1.19093 0.81973,-1.82507 0.8352,-0.63413 2.1344,-0.63413 h 2.61387 v -0.5104 q 0,-1.77867 -1.87147,-1.77867 -1.97973,0 -1.97973,1.59307 h -1.5312 v -0.0773 q 0,-1.33014 0.95893,-2.088 0.9744,-0.75787 2.53654,-0.75787 1.60853,0 2.5056,0.80427 0.91253,0.7888 0.91253,2.2272 z"
     style=""
     id="path833" /><path
     d="m -235.55158,665.98186 q 0,0.80808 -0.48333,1.42735 -0.47578,0.61172 -1.31406,0.9289 0.0151,0.14349 0.0302,0.3474 0.0226,0.20391 0.0226,0.40026 0,1.22344 -0.69479,1.87292 -0.68724,0.64948 -1.78984,0.64948 -0.27943,0 -0.71745,-0.0529 -0.43802,-0.0529 -0.77787,-0.14349 v -1.20833 h 0.068 q 0.19636,0.0755 0.52865,0.1737 0.33229,0.0982 0.70989,0.0982 0.78542,0 1.15547,-0.29453 0.37005,-0.29453 0.37005,-0.95911 0,-0.18125 -0.0151,-0.35495 -0.008,-0.16615 -0.0227,-0.27943 -0.15859,0.0151 -0.30963,0.0227 -0.15104,0.008 -0.32474,0.008 -0.93646,0 -1.72188,-0.21901 -0.77786,-0.22656 -1.30651,-0.49088 v -1.59349 h 0.0755 q 0.67214,0.50599 1.49532,0.80807 0.82317,0.29453 1.57838,0.29453 0.93646,0 1.46511,-0.30208 0.52864,-0.30209 0.52864,-0.95157 0,-0.49843 -0.28698,-0.7552 -0.28698,-0.25677 -1.1026,-0.43802 -0.30208,-0.068 -0.79297,-0.1586 -0.48333,-0.0906 -0.88359,-0.19635 -1.11016,-0.29453 -1.57839,-0.86094 -0.46068,-0.57396 -0.46068,-1.40469 0,-0.52109 0.21146,-0.98177 0.21901,-0.46068 0.65703,-0.82318 0.42292,-0.35494 1.0724,-0.55885 0.65703,-0.21146 1.4651,-0.21146 0.75521,0 1.52552,0.1888 0.77787,0.18125 1.29141,0.44558 v 1.51797 h -0.0755 q -0.54375,-0.40026 -1.32161,-0.67214 -0.77787,-0.27943 -1.52553,-0.27943 -0.77786,0 -1.31406,0.30209 -0.5362,0.29453 -0.5362,0.88359 0,0.52109 0.32474,0.78542 0.31719,0.26432 1.02709,0.43047 0.39271,0.0906 0.87604,0.18125 0.49088,0.0906 0.81562,0.16614 0.98933,0.22656 1.52552,0.77787 0.5362,0.55885 0.5362,1.4802 z"
     style=""
     id="path835" /><path
     d="m -232.17205,668.41364 h -1.59306 v -8.13547 h 1.59306 z"
     style=""
     id="path837" /><path
     d="m -223.01651,668.41364 h -1.5776 v -5.4288 q 0,-0.58774 -0.3248,-0.95894 -0.30933,-0.38666 -0.8816,-0.38666 -0.52586,0 -1.22186,0.40213 l -1.33014,0.7888 v 5.58347 h -1.54666 v -8.13547 h 1.5312 v 1.0672 l 0.928,-0.57227 q 0.91253,-0.57227 1.93333,-0.57227 1.14453,0 1.8096,0.71147 0.68053,0.71147 0.68053,1.88694 z"
     style=""
     id="path839" /></g>






</svg>