<?xml version="1.0" encoding="UTF-8" standalone="no"?>
<!-- Generator: Adobe Illustrator 19.1.0, SVG Export Plug-In . SVG Version: 6.00 Build 0)  -->

<svg
   xmlns:dc="http://purl.org/dc/elements/1.1/"
   xmlns:cc="http://creativecommons.org/ns#"
   xmlns:rdf="http://www.w3.org/1999/02/22-rdf-syntax-ns#"
   xmlns:svg="http://www.w3.org/2000/svg"
   xmlns="http://www.w3.org/2000/svg"
   xmlns:sodipodi="http://sodipodi.sourceforge.net/DTD/sodipodi-0.dtd"
   xmlns:inkscape="http://www.inkscape.org/namespaces/inkscape"
   version="1.1"
   id="Calque_1"
   x="0px"
   y="0px"
   viewBox="-330 571.3 138.7 138.7"
   style="enable-background:new -330 571.3 138.7 138.7;"
   xml:space="preserve"
   sodipodi:docname="main_menu_logo_report_sighting-ro.svg"
   inkscape:version="0.92.4 (5da689c313, 2019-01-14)"><metadata
   id="metadata69"><rdf:RDF><cc:Work
       rdf:about=""><dc:format>image/svg+xml</dc:format><dc:type
         rdf:resource="http://purl.org/dc/dcmitype/StillImage" /><dc:title></dc:title></cc:Work></rdf:RDF></metadata><defs
   id="defs67" /><sodipodi:namedview
   pagecolor="#ffffff"
   bordercolor="#666666"
   borderopacity="1"
   objecttolerance="10"
   gridtolerance="10"
   guidetolerance="10"
   inkscape:pageopacity="0"
   inkscape:pageshadow="2"
   inkscape:window-width="1536"
   inkscape:window-height="801"
   id="namedview65"
   showgrid="false"
   inkscape:zoom="3"
   inkscape:cx="-21.199997"
   inkscape:cy="69.349998"
   inkscape:window-x="-8"
   inkscape:window-y="-8"
   inkscape:window-maximized="1"
   inkscape:current-layer="Calque_1" /><style
   type="text/css"
   id="style2">
	.st0{fill:#7A9C2B;}
	.st1{fill:#FFFFFF;}
</style><g
   id="g6"
   transform="translate(0.07895716)"><path
     class="st0"
     d="m -330,640.7 c 0,-38.3 31,-69.3 69.3,-69.3 38.3,0 69.3,31 69.3,69.3 0,38.3 -31,69.3 -69.3,69.3 -38.3,0 -69.3,-31 -69.3,-69.3"
     id="path4"
     inkscape:connector-curvature="0"
     style="fill:#7a9c2b" /></g><g
   id="g62"
   transform="translate(0.07895716,-3.85002)"><g
     id="g44"><path
       class="st1"
       d="m -246.4,604.3 c -1.5,-0.4 -5.1,-1 -5.1,-1 0,0 -4.9,-3.9 -9.2,-3.9 -4.3,0 -9.2,3.9 -9.2,3.9 0,0 -3.6,0.6 -5.1,1 6.7,2.4 11.5,8.9 11.5,16.4 0,3.1 -0.8,6 -2.2,8.5 h 10 c -1.4,-2.5 -2.2,-5.4 -2.2,-8.5 0,-7.5 4.8,-13.9 11.5,-16.4"
       id="path42"
       inkscape:connector-curvature="0"
       style="fill:#ffffff" /></g><g
     id="g48"><path
       class="st1"
       d="m -281.9,605.1 c -9,0 -16.3,7.3 -16.3,16.3 0,9 7.3,16.3 16.3,16.3 9,0 16.3,-7.3 16.3,-16.3 0,-9 -7.3,-16.3 -16.3,-16.3 m 0,26.6 c -5.7,0 -10.3,-4.6 -10.3,-10.3 0,-5.7 4.6,-10.3 10.3,-10.3 5.7,0 10.3,4.6 10.3,10.3 0,5.6 -4.6,10.3 -10.3,10.3"
       id="path46"
       inkscape:connector-curvature="0"
       style="fill:#ffffff" /></g><g
     id="g52"><path
       class="st1"
       d="m -288.5,616.2 c -2.2,2.9 -2,6.9 0.3,9.5 -0.8,-2.7 -0.4,-5.8 1.5,-8.2 1.9,-2.4 4.7,-3.6 7.5,-3.5 -3.2,-1.5 -7.1,-0.7 -9.3,2.2"
       id="path50"
       inkscape:connector-curvature="0"
       style="fill:#ffffff" /></g><g
     id="g56"><path
       class="st1"
       d="m -239.5,605.1 c -9,0 -16.3,7.3 -16.3,16.3 0,9 7.3,16.3 16.3,16.3 9,0 16.3,-7.3 16.3,-16.3 0,-9 -7.3,-16.3 -16.3,-16.3 m 0,26.6 c -5.7,0 -10.3,-4.6 -10.3,-10.3 0,-5.7 4.6,-10.3 10.3,-10.3 5.7,0 10.3,4.6 10.3,10.3 0,5.6 -4.6,10.3 -10.3,10.3"
       id="path54"
       inkscape:connector-curvature="0"
       style="fill:#ffffff" /></g><g
     id="g60"><path
       class="st1"
       d="m -242.1,614 c 2.8,-0.1 5.7,1.1 7.5,3.5 1.9,2.4 2.3,5.5 1.5,8.2 2.3,-2.7 2.5,-6.6 0.3,-9.5 -2.2,-2.9 -6.1,-3.7 -9.3,-2.2"
       id="path58"
       inkscape:connector-curvature="0"
       style="fill:#ffffff" /></g></g><g
   aria-label="Raportează 
o observație"
   style="font-style:normal;font-variant:normal;font-weight:normal;font-stretch:normal;font-size:15.92933273px;line-height:1.25;font-family:KonsensMedium;-inkscape-font-specification:'KonsensMedium, Normal';font-variant-ligatures:normal;font-variant-caps:normal;font-variant-numeric:normal;font-feature-settings:normal;text-align:center;letter-spacing:0px;word-spacing:0px;writing-mode:lr-tb;text-anchor:middle;fill:#ffffff;fill-opacity:1;stroke:none"
   id="text73"><path
     d="m -294.04688,673.0152 h -1.94338 l -2.30975,-4.60358 h -2.81949 v 4.60358 h -1.7363 v -11.85143 h 5.08146 q 1.56107,0 2.59648,0.95576 1.0354,0.95576 1.0354,2.64427 0,1.27435 -0.66903,2.15046 -0.66903,0.87612 -1.7363,1.24249 z m -7.07262,-6.10094 h 3.13807 q 0.93983,0 1.51329,-0.57345 0.58939,-0.58939 0.58939,-1.59294 0,-0.98761 -0.5416,-1.52921 -0.5416,-0.5416 -1.48143,-0.5416 h -3.21772 z"
     style=""
     id="path869" /><path
     d="m -287.13331,670.54615 v -1.06726 h -2.5009 q -1.59293,0 -1.59293,1.21063 0,0.4938 0.28672,0.78053 0.28673,0.2708 0.8124,0.2708 0.78054,0 1.62479,-0.46195 z m 1.59294,2.46905 h -1.59294 v -1.0832 l -0.9239,0.50974 q -1.24248,0.66903 -2.34161,0.66903 -1.09912,0 -1.78408,-0.6531 -0.66904,-0.6531 -0.66904,-1.70444 0,-1.22656 0.84426,-1.87966 0.86018,-0.6531 2.19825,-0.6531 h 2.69205 v -0.52567 q 0,-1.83187 -1.92745,-1.83187 -2.03895,0 -2.03895,1.64072 h -1.577 v -0.0797 q 0,-1.36992 0.98761,-2.15046 1.00355,-0.78054 2.61242,-0.78054 1.65665,0 2.58055,0.82833 0.93983,0.8124 0.93983,2.29382 z"
     style=""
     id="path871" /><path
     d="m -277.55106,670.0842 v -2.53276 q 0,-0.70089 -0.39823,-1.11506 -0.39824,-0.43009 -1.06727,-0.43009 -0.66903,0 -1.32213,0.36638 l -1.48143,0.82832 v 3.23366 l 1.48143,0.82832 q 0.6531,0.36638 1.32213,0.36638 0.66903,0 1.06727,-0.41417 0.39823,-0.43009 0.39823,-1.13098 z m -4.26906,5.86199 h -1.57701 v -11.30982 h 1.56108 v 1.01948 l 1.03541,-0.57346 q 0.95576,-0.5416 1.99116,-0.5416 1.25842,0 2.03896,0.78054 0.79646,0.78054 0.79646,2.03895 v 2.86728 q 0,1.25842 -0.79646,2.07082 -0.79647,0.79646 -2.05489,0.79646 -1.01947,0 -1.97523,-0.54159 l -1.01948,-0.57346 z"
     style=""
     id="path873" /><path
     d="m -268.20602,669.59039 v -1.48143 q 0,-1.01947 -0.60531,-1.59293 -0.58939,-0.57346 -1.56108,-0.57346 -0.98762,0 -1.577,0.57346 -0.58939,0.57346 -0.58939,1.59293 v 1.48143 q 0,1.01948 0.58939,1.60886 0.58938,0.57346 1.577,0.57346 0.97169,0 1.56108,-0.57346 0.60531,-0.57345 0.60531,-1.60886 z m 1.56107,-1.62479 v 1.78408 q 0,1.56108 -1.05133,2.50091 -1.03541,0.93983 -2.67613,0.93983 -1.64072,0 -2.69206,-0.93983 -1.0354,-0.93983 -1.0354,-2.50091 v -1.78408 q 0,-1.56108 1.0354,-2.50091 1.05134,-0.93983 2.69206,-0.93983 1.64072,0 2.67613,0.93983 1.05133,0.93983 1.05133,2.50091 z"
     style=""
     id="path875" /><path
     d="m -262.94959,673.0152 h -1.62479 v -8.37883 h 1.59293 v 1.27435 l 0.38231,-0.38231 q 1.00355,-0.9239 2.18232,-0.9239 h 0.43009 v 1.65665 h -0.41416 q -1.0832,0 -1.84781,0.63717 l -0.70089,0.57346 z"
     style=""
     id="path877" /><path
     d="m -253.91766,673.0152 h -1.05133 q -1.43364,0 -2.26197,-0.73275 -0.82832,-0.73275 -0.82832,-2.13453 v -4.10977 h -1.33807 v -1.40178 h 1.354 v -2.26197 h 1.62479 v 2.26197 h 2.43719 v 1.40178 h -2.43719 v 4.03012 q 0,0.82833 0.36637,1.17877 0.38231,0.33452 1.17877,0.33452 h 0.95576 z"
     style=""
     id="path879" /><path
     d="m -245.55999,670.355 v 0.0797 q 0,1.22655 -0.97169,1.97523 -0.97169,0.74868 -2.59648,0.74868 -1.62479,0 -2.64427,-0.84425 -1.01947,-0.86019 -1.01947,-2.34161 v -2.0071 q 0,-1.56108 1.01947,-2.50091 1.01948,-0.93983 2.62834,-0.93983 1.60887,0 2.61241,0.93983 1.00355,0.92391 1.00355,2.51684 v 1.41771 h -5.71863 v 0.47788 q 0,0.93983 0.57346,1.43364 0.58938,0.47788 1.54514,0.47788 2.02303,0 2.02303,-1.43364 z m -1.49735,-2.15046 v -0.25487 q 0,-0.98762 -0.55753,-1.51329 -0.5416,-0.54159 -1.52922,-0.54159 -0.98762,0 -1.54514,0.54159 -0.55753,0.5416 -0.55753,1.52922 v 0.23894 z"
     style=""
     id="path881" /><path
     d="m -238.09709,670.54615 v -1.06726 h -2.5009 q -1.59294,0 -1.59294,1.21063 0,0.4938 0.28673,0.78053 0.28673,0.2708 0.8124,0.2708 0.78053,0 1.62479,-0.46195 z m 1.59293,2.46905 h -1.59293 v -1.0832 l -0.9239,0.50974 q -1.24249,0.66903 -2.34161,0.66903 -1.09913,0 -1.78409,-0.6531 -0.66903,-0.6531 -0.66903,-1.70444 0,-1.22656 0.84425,-1.87966 0.86019,-0.6531 2.19825,-0.6531 h 2.69206 v -0.52567 q 0,-1.83187 -1.92745,-1.83187 -2.03895,0 -2.03895,1.64072 h -1.57701 v -0.0797 q 0,-1.36992 0.98762,-2.15046 1.00355,-0.78054 2.61241,-0.78054 1.65665,0 2.58055,0.82833 0.93983,0.8124 0.93983,2.29382 z"
     style=""
     id="path883" /><path
     d="m -227.61061,673.0152 h -7.02484 v -1.38585 l 4.92217,-5.5912 h -4.9381 v -1.40178 h 6.97705 v 1.38585 l -4.8903,5.60713 h 4.95402 z"
     style=""
     id="path885" /><path
     d="m -218.54776,673.0152 h -1.45448 v -0.92558 q -0.19445,0.13222 -0.52891,0.37334 -0.32667,0.23334 -0.63779,0.37334 -0.36557,0.1789 -0.84002,0.29557 -0.47446,0.12445 -1.11226,0.12445 -1.17447,0 -1.99116,-0.7778 -0.81669,-0.7778 -0.81669,-1.98339 0,-0.98781 0.42001,-1.59449 0.42779,-0.61446 1.21337,-0.96447 0.79335,-0.35001 1.9056,-0.47446 1.11226,-0.12445 2.38785,-0.18667 v -0.22556 q 0,-0.4978 -0.1789,-0.82447 -0.17111,-0.32668 -0.49779,-0.51335 -0.31112,-0.17889 -0.74668,-0.24112 -0.43557,-0.0622 -0.91003,-0.0622 -0.57557,0 -1.28337,0.15556 -0.7078,0.14778 -1.46226,0.43557 h -0.0778 v -1.4856 q 0.42779,-0.11667 1.2367,-0.25667 0.80891,-0.14001 1.59449,-0.14001 0.9178,0 1.59449,0.15556 0.68446,0.14778 1.18225,0.51335 0.49002,0.35779 0.74669,0.92558 0.25667,0.56779 0.25667,1.40782 z m -1.45448,-2.13895 v -2.41896 q -0.66891,0.0389 -1.57893,0.11667 -0.90225,0.0778 -1.43116,0.22556 -0.63001,0.1789 -1.01891,0.56002 -0.3889,0.37334 -0.3889,1.03447 0,0.74669 0.45112,1.12781 0.45113,0.37335 1.37671,0.37335 0.77002,0 1.40781,-0.29557 0.6378,-0.30334 1.18226,-0.72335 z m 0.9178,-10.89697 q -0.0778,1.3067 -0.8478,2.13895 -0.76224,0.83224 -2.07672,0.83224 -1.31449,0 -2.08451,-0.83224 -0.76224,-0.83225 -0.83224,-2.13895 h 1.29115 q 0.0933,1.02669 0.50556,1.49337 0.42002,0.46668 1.12781,0.46668 0.69225,0 1.10448,-0.46668 0.42001,-0.46668 0.5289,-1.49337 z"
     style=""
     id="path887" /><path
     d="m -300.31358,689.65609 v -1.48143 q 0,-1.01948 -0.60531,-1.59293 -0.58939,-0.57346 -1.56108,-0.57346 -0.98762,0 -1.577,0.57346 -0.58939,0.57345 -0.58939,1.59293 v 1.48143 q 0,1.01948 0.58939,1.60886 0.58938,0.57346 1.577,0.57346 0.97169,0 1.56108,-0.57346 0.60531,-0.57345 0.60531,-1.60886 z m 1.56107,-1.62479 v 1.78408 q 0,1.56108 -1.05133,2.50091 -1.03541,0.93983 -2.67613,0.93983 -1.64072,0 -2.69206,-0.93983 -1.0354,-0.93983 -1.0354,-2.50091 v -1.78408 q 0,-1.56108 1.0354,-2.50091 1.05134,-0.93983 2.69206,-0.93983 1.64072,0 2.67613,0.93983 1.05133,0.93983 1.05133,2.50091 z"
     style=""
     id="path889" /><path
     d="m -286.40652,689.65609 v -1.48143 q 0,-1.01948 -0.60532,-1.59293 -0.58938,-0.57346 -1.56107,-0.57346 -0.98762,0 -1.57701,0.57346 -0.58938,0.57345 -0.58938,1.59293 v 1.48143 q 0,1.01948 0.58938,1.60886 0.58939,0.57346 1.57701,0.57346 0.97169,0 1.56107,-0.57346 0.60532,-0.57345 0.60532,-1.60886 z m 1.56107,-1.62479 v 1.78408 q 0,1.56108 -1.05134,2.50091 -1.0354,0.93983 -2.67612,0.93983 -1.64073,0 -2.69206,-0.93983 -1.03541,-0.93983 -1.03541,-2.50091 v -1.78408 q 0,-1.56108 1.03541,-2.50091 1.05133,-0.93983 2.69206,-0.93983 1.64072,0 2.67612,0.93983 1.05134,0.93983 1.05134,2.50091 z"
     style=""
     id="path891" /><path
     d="m -276.92882,690.18176 v -2.53277 q 0,-0.70089 -0.39823,-1.11505 -0.39824,-0.43009 -1.06727,-0.43009 -0.6531,0 -1.32213,0.35044 l -1.48143,0.84426 v 3.23365 l 1.48143,0.82833 q 0.70089,0.36637 1.32213,0.36637 0.66903,0 1.06727,-0.41416 0.39823,-0.43009 0.39823,-1.13098 z m -3.24959,2.46904 -1.0354,-0.55752 v 0.98762 h -1.56108 v -11.85143 h 1.57701 v 4.508 l 1.01947,-0.57345 q 1.00355,-0.5416 1.99117,-0.5416 1.25842,0 2.03896,0.79647 0.79646,0.78053 0.79646,2.05488 v 2.86728 q 0,1.24249 -0.79646,2.05488 -0.79647,0.79647 -2.07082,0.79647 -0.95576,0 -1.95931,-0.5416 z"
     style=""
     id="path893" /><path
     d="m -266.5643,687.37819 h -1.59293 q 0,-1.43364 -1.87967,-1.43364 -0.89204,0 -1.36992,0.31859 -0.46195,0.31859 -0.46195,0.84426 0,0.4938 0.39823,0.7646 0.39824,0.2708 0.98762,0.33452 0.58939,0.0637 1.27435,0.19115 0.70089,0.12744 1.29028,0.30266 0.58938,0.15929 0.98761,0.6531 0.39824,0.49381 0.39824,1.29028 0,1.17877 -0.93983,1.87966 -0.93983,0.68496 -2.58056,0.68496 -1.65665,0 -2.61241,-0.74868 -0.93983,-0.74868 -0.93983,-1.97524 v -0.0796 h 1.64072 q 0,1.44957 1.94338,1.44957 0.9239,0 1.41771,-0.30266 0.50974,-0.31859 0.50974,-0.84426 0,-0.52566 -0.55752,-0.7646 -0.5416,-0.23894 -1.32214,-0.33452 -0.78054,-0.0956 -1.577,-0.25487 -0.78054,-0.15929 -1.33807,-0.70089 -0.54159,-0.55753 -0.54159,-1.51329 0,-1.17877 0.90797,-1.86373 0.9239,-0.68496 2.51683,-0.68496 1.64072,0 2.53277,0.74868 0.90797,0.73275 0.90797,1.97524 z"
     style=""
     id="path895" /><path
     d="m -257.56547,690.4207 v 0.0796 q 0,1.22656 -0.97169,1.97524 -0.97169,0.74868 -2.59648,0.74868 -1.6248,0 -2.64427,-0.84426 -1.01948,-0.86018 -1.01948,-2.34161 v -2.00709 q 0,-1.56108 1.01948,-2.50091 1.01947,-0.93983 2.62834,-0.93983 1.60886,0 2.61241,0.93983 1.00354,0.9239 1.00354,2.51684 v 1.41771 h -5.71863 v 0.47788 q 0,0.93983 0.57346,1.43364 0.58939,0.47788 1.54515,0.47788 2.02302,0 2.02302,-1.43364 z m -1.49736,-2.15046 v -0.25487 q 0,-0.98762 -0.55753,-1.51329 -0.5416,-0.5416 -1.52921,-0.5416 -0.98762,0 -1.54515,0.5416 -0.55753,0.5416 -0.55753,1.52922 v 0.23894 z"
     style=""
     id="path897" /><path
     d="m -253.83378,693.0809 h -1.62479 v -8.37883 h 1.59293 v 1.27434 l 0.38231,-0.3823 q 1.00355,-0.9239 2.18232,-0.9239 h 0.43009 v 1.65665 h -0.41416 q -1.0832,0 -1.84781,0.63717 l -0.70089,0.57346 z"
     style=""
     id="path899" /><path
     d="m -245.55053,693.0809 h -1.81594 l -2.99471,-8.37883 h 1.76815 l 2.16639,6.54695 2.19825,-6.54695 h 1.67258 z"
     style=""
     id="path901" /><path
     d="m -236.10966,690.61185 v -1.06727 h -2.5009 q -1.59294,0 -1.59294,1.21063 0,0.49381 0.28673,0.78054 0.28673,0.2708 0.8124,0.2708 0.78053,0 1.62479,-0.46195 z m 1.59293,2.46905 h -1.59293 v -1.0832 l -0.9239,0.50974 q -1.24249,0.66903 -2.34161,0.66903 -1.09913,0 -1.78409,-0.6531 -0.66903,-0.6531 -0.66903,-1.70444 0,-1.22656 0.84425,-1.87966 0.86019,-0.6531 2.19825,-0.6531 h 2.69206 v -0.52567 q 0,-1.83188 -1.92745,-1.83188 -2.03895,0 -2.03895,1.64073 h -1.57701 v -0.0797 q 0,-1.36992 0.98762,-2.15046 1.00355,-0.78054 2.61241,-0.78054 1.65665,0 2.58055,0.82833 0.93983,0.81239 0.93983,2.29382 z"
     style=""
     id="path903" /><path
     d="m -227.57023,693.00312 q -0.41223,0.10889 -0.90225,0.17889 -0.48223,0.07 -0.86335,0.07 -1.33004,0 -2.02228,-0.71557 -0.69224,-0.71558 -0.69224,-2.29451 v -4.62013 h -0.98781 v -1.22892 h 0.98781 v -2.49674 h 1.46226 v 2.49674 h 3.01786 v 1.22892 h -3.01786 v 3.959 q 0,0.68446 0.0311,1.07336 0.0311,0.38112 0.21778,0.71558 0.17112,0.31112 0.46668,0.4589 0.30335,0.14 0.91781,0.14 0.35779,0 0.74669,-0.10111 0.38889,-0.10889 0.56001,-0.1789 h 0.0778 z m -1.68005,0.97224 -1.36115,2.39563 h -1.13558 l 0.7778,-2.39563 z"
     style=""
     id="path905" /><path
     d="m -224.41628,693.0809 h -1.64072 v -8.37883 h 1.64072 z m 0.1115,-11.11868 v 0.33452 q 0,0.36637 -0.27079,0.58938 -0.25487,0.22301 -0.65311,0.22301 -0.43009,0 -0.68496,-0.20708 -0.25487,-0.22301 -0.25487,-0.60531 v -0.33452 q 0,-0.3823 0.25487,-0.58938 0.25487,-0.22301 0.68496,-0.22301 0.39824,0 0.65311,0.22301 0.27079,0.22301 0.27079,0.58938 z"
     style=""
     id="path907" /><path
     d="m -215.06651,690.4207 v 0.0796 q 0,1.22656 -0.97169,1.97524 -0.97169,0.74868 -2.59648,0.74868 -1.62479,0 -2.64427,-0.84426 -1.01948,-0.86018 -1.01948,-2.34161 v -2.00709 q 0,-1.56108 1.01948,-2.50091 1.01948,-0.93983 2.62834,-0.93983 1.60886,0 2.61241,0.93983 1.00355,0.9239 1.00355,2.51684 v 1.41771 h -5.71863 v 0.47788 q 0,0.93983 0.57345,1.43364 0.58939,0.47788 1.54515,0.47788 2.02302,0 2.02302,-1.43364 z m -1.49736,-2.15046 v -0.25487 q 0,-0.98762 -0.55753,-1.51329 -0.54159,-0.5416 -1.52921,-0.5416 -0.98762,0 -1.54515,0.5416 -0.55752,0.5416 -0.55752,1.52922 v 0.23894 z"
     style=""
     id="path909" /></g>
</svg>