<?xml version="1.0" encoding="UTF-8" standalone="no"?>
<!-- Generator: Adobe Illustrator 19.1.0, SVG Export Plug-In . SVG Version: 6.00 Build 0)  -->

<svg
   xmlns:dc="http://purl.org/dc/elements/1.1/"
   xmlns:cc="http://creativecommons.org/ns#"
   xmlns:rdf="http://www.w3.org/1999/02/22-rdf-syntax-ns#"
   xmlns:svg="http://www.w3.org/2000/svg"
   xmlns="http://www.w3.org/2000/svg"
   xmlns:sodipodi="http://sodipodi.sourceforge.net/DTD/sodipodi-0.dtd"
   xmlns:inkscape="http://www.inkscape.org/namespaces/inkscape"
   version="1.1"
   id="Calque_1"
   x="0px"
   y="0px"
   viewBox="-330 571.3 138.60001 138.60001"
   xml:space="preserve"
   sodipodi:docname="main_menu_logo_contact-sr.svg"
   inkscape:version="0.92.4 (5da689c313, 2019-01-14)"
   width="138.60001"
   height="138.60001"><metadata
   id="metadata43"><rdf:RDF><cc:Work
       rdf:about=""><dc:format>image/svg+xml</dc:format><dc:type
         rdf:resource="http://purl.org/dc/dcmitype/StillImage" /><dc:title /></cc:Work></rdf:RDF></metadata><defs
   id="defs41" /><sodipodi:namedview
   pagecolor="#ffffff"
   bordercolor="#666666"
   borderopacity="1"
   objecttolerance="10"
   gridtolerance="10"
   guidetolerance="10"
   inkscape:pageopacity="0"
   inkscape:pageshadow="2"
   inkscape:window-width="2400"
   inkscape:window-height="1271"
   id="namedview39"
   showgrid="false"
   inkscape:zoom="3"
   inkscape:cx="-104.67245"
   inkscape:cy="69.350001"
   inkscape:window-x="2391"
   inkscape:window-y="-9"
   inkscape:window-maximized="1"
   inkscape:current-layer="Calque_1"
   fit-margin-top="0"
   fit-margin-left="0"
   fit-margin-right="0"
   fit-margin-bottom="0" /><style
   type="text/css"
   id="style2">
	.st0{fill:#E8E493;}
	.st1{fill:#40637D;}
	.st2{fill:#FFFFFF;}
</style><g
   id="g6"
   transform="translate(0,-0.1)"><path
     class="st0"
     d="m -330,640.7 c 0,-38.3 31,-69.3 69.3,-69.3 38.3,0 69.3,31 69.3,69.3 0,38.3 -31,69.3 -69.3,69.3 -38.3,0 -69.3,-31 -69.3,-69.3"
     id="path4"
     style="fill:#ff7837;fill-opacity:1"
     inkscape:connector-curvature="0" /></g><g
   id="g36"
   transform="translate(0,-16.363454)"><g
     id="g30"><path
       class="st2"
       d="m -272.3,659 c 0,0.4 0.2,0.8 0.6,1 0.4,0.2 0.8,0.2 1.2,-0.1 l 7.7,-5.3 -9.5,-4.5 z"
       id="path28"
       inkscape:connector-curvature="0"
       style="fill:#ffffff" /></g><g
     id="g34"><path
       class="st2"
       d="m -226.4,599.6 c -0.2,-0.2 -0.5,-0.3 -0.8,-0.3 -0.2,0 -0.3,0 -0.5,0.1 l -66.6,32.7 c -0.7,0.3 -1.1,1 -1.1,1.8 0,0.8 0.4,1.5 1.1,1.8 l 17.6,8.4 35.1,-28.9 -30.8,30.9 21.9,10.4 c 0.3,0.1 0.6,0.2 0.9,0.2 0.2,0 0.5,0 0.7,-0.1 0.5,-0.2 0.9,-0.6 1.1,-1.1 l 21.7,-54.6 c 0.2,-0.5 0.1,-1 -0.3,-1.3"
       id="path32"
       inkscape:connector-curvature="0"
       style="fill:#ffffff" /></g></g><g
   aria-label="Контактирајте 
нас"
   style="font-style:normal;font-variant:normal;font-weight:normal;font-stretch:normal;font-size:15.46666718px;line-height:1.25;font-family:KonsensMedium;-inkscape-font-specification:'KonsensMedium, Normal';font-variant-ligatures:normal;font-variant-caps:normal;font-variant-numeric:normal;font-feature-settings:normal;text-align:center;letter-spacing:0px;word-spacing:0px;writing-mode:lr-tb;text-anchor:middle;fill:#ffffff;fill-opacity:1;stroke:none"
   id="text4541"><path
     d="m -308.1422,668.41364 h -1.91823 l -4.56901,-5.12787 h -1.01953 v 5.12787 h -1.49532 v -11.24506 h 1.49532 v 5.04479 q 0.38515,-0.008 0.725,-0.0755 0.33984,-0.068 0.64192,-0.25677 0.30209,-0.17369 0.59662,-0.49088 0.29453,-0.32474 0.52109,-0.79297 0.0982,-0.20391 0.22656,-0.51354 0.13594,-0.30964 0.27188,-0.64948 0.52109,-1.25365 1.21588,-1.75964 0.70235,-0.50599 2.06172,-0.50599 h 0.59662 v 1.33672 h -0.62683 q -0.52109,0 -0.81562,0.0982 -0.29453,0.0906 -0.52865,0.30963 -0.21901,0.19636 -0.38515,0.52865 -0.1586,0.33229 -0.33229,0.77786 -0.39271,0.99688 -0.80053,1.46511 -0.40026,0.46823 -1.07994,0.81562 z"
     style=""
     id="path825" /><path
     d="m -299.38179,664.19957 q 0,2.06172 -1.05729,3.25495 -1.05729,1.19323 -2.83203,1.19323 -1.78984,0 -2.84713,-1.19323 -1.04974,-1.19323 -1.04974,-3.25495 0,-2.06172 1.04974,-3.25495 1.05729,-1.20078 2.84713,-1.20078 1.77474,0 2.83203,1.20078 1.05729,1.19323 1.05729,3.25495 z m -1.4651,0 q 0,-1.6388 -0.64193,-2.43177 -0.64192,-0.80052 -1.78229,-0.80052 -1.15547,0 -1.79739,0.80052 -0.63438,0.79297 -0.63438,2.43177 0,1.58594 0.64193,2.40912 0.64192,0.81562 1.78984,0.81562 1.13281,0 1.77474,-0.80807 0.64948,-0.81563 0.64948,-2.41667 z"
     style=""
     id="path827" /><path
     d="m -290.11538,668.41364 h -1.41979 v -3.7987 h -4.22162 v 3.7987 h -1.41979 v -8.43568 h 1.41979 v 3.41354 h 4.22162 v -3.41354 h 1.41979 z"
     style=""
     id="path829" /><path
     d="m -281.1284,661.22405 h -3.05104 v 7.18959 h -1.41979 v -7.18959 h -3.05105 v -1.24609 h 7.52188 z"
     style=""
     id="path831" /><path
     d="m -273.10054,668.41364 h -1.41224 v -0.8987 q -0.1888,0.12838 -0.51354,0.3625 -0.31719,0.22656 -0.61927,0.3625 -0.35495,0.1737 -0.81562,0.28698 -0.46068,0.12083 -1.07995,0.12083 -1.14037,0 -1.93333,-0.75521 -0.79297,-0.75521 -0.79297,-1.92578 0,-0.95911 0.40781,-1.54818 0.41536,-0.59661 1.17812,-0.93646 0.77032,-0.33984 1.85026,-0.46067 1.07995,-0.12084 2.31849,-0.18125 v -0.21901 q 0,-0.48334 -0.17369,-0.80052 -0.16615,-0.31719 -0.48334,-0.49844 -0.30208,-0.1737 -0.725,-0.23412 -0.42291,-0.0604 -0.88359,-0.0604 -0.55886,0 -1.24609,0.15104 -0.68724,0.14349 -1.4198,0.42292 h -0.0755 v -1.44245 q 0.41537,-0.11328 1.20078,-0.24922 0.78542,-0.13594 1.54818,-0.13594 0.89115,0 1.54818,0.15104 0.66458,0.14349 1.14791,0.49844 0.47579,0.3474 0.725,0.8987 0.24922,0.5513 0.24922,1.36693 z m -1.41224,-2.07683 v -2.3487 q -0.64948,0.0378 -1.53307,0.11329 -0.87604,0.0755 -1.38958,0.21901 -0.61172,0.17369 -0.98933,0.54375 -0.3776,0.3625 -0.3776,1.00442 0,0.725 0.43802,1.09506 0.43802,0.3625 1.33672,0.3625 0.74766,0 1.36693,-0.28698 0.61927,-0.29454 1.14791,-0.70235 z"
     style=""
     id="path833" /><path
     d="m -262.73908,668.41364 h -1.85781 l -3.50417,-3.86667 h -0.77031 v 3.86667 h -1.41979 v -8.43568 h 1.41979 v 3.6401 q 0.70235,0 1.13281,-0.24922 0.43047,-0.25677 0.73256,-0.81562 0.10573,-0.20391 0.2039,-0.43047 0.10573,-0.23411 0.20391,-0.44557 0.39271,-0.85339 0.98177,-1.27631 0.58906,-0.42291 1.69167,-0.42291 h 0.64948 v 1.22344 h -0.62683 q -0.59661,0 -0.93646,0.25677 -0.33229,0.24922 -0.60416,0.88359 -0.30209,0.7099 -0.64193,1.06484 -0.33229,0.3474 -0.70989,0.52865 z"
     style=""
     id="path835" /><path
     d="m -254.99819,661.22405 h -3.05104 v 7.18959 h -1.41979 v -7.18959 h -3.05105 v -1.24609 h 7.52188 z"
     style=""
     id="path837" /><path
     d="m -246.41902,668.41364 h -1.40469 v -6.3362 l -4.41797,6.3362 h -1.28385 v -8.43568 h 1.40468 v 6.24557 l 4.37266,-6.24557 h 1.32917 z"
     style=""
     id="path839" /><path
     d="m -236.1935,664.09384 q 0,1.02709 -0.29453,1.88047 -0.29453,0.84584 -0.83073,1.4349 -0.49844,0.55885 -1.17812,0.86849 -0.67214,0.30208 -1.42735,0.30208 -0.65703,0 -1.19323,-0.14349 -0.52864,-0.14349 -1.07995,-0.44557 v 3.53437 h -1.41979 v -11.54713 h 1.41979 v 0.88359 q 0.56641,-0.47578 1.26875,-0.79297 0.7099,-0.32474 1.51042,-0.32474 1.52552,0 2.37136,1.15547 0.85338,1.14792 0.85338,3.19453 z m -1.4651,0.0378 q 0,-1.52552 -0.5211,-2.28073 -0.52109,-0.7552 -1.60104,-0.7552 -0.61172,0 -1.23099,0.26432 -0.61927,0.26432 -1.18568,0.69479 v 4.78047 q 0.60417,0.27187 1.03464,0.37005 0.43802,0.0982 0.98932,0.0982 1.18568,0 1.85026,-0.80052 0.66459,-0.80052 0.66459,-2.37136 z"
     style=""
     id="path841" /><path
     d="m -227.42554,668.41364 h -1.41224 v -0.8987 q -0.1888,0.12838 -0.51354,0.3625 -0.31719,0.22656 -0.61927,0.3625 -0.35495,0.1737 -0.81562,0.28698 -0.46068,0.12083 -1.07995,0.12083 -1.14037,0 -1.93334,-0.75521 -0.79296,-0.75521 -0.79296,-1.92578 0,-0.95911 0.40781,-1.54818 0.41536,-0.59661 1.17812,-0.93646 0.77032,-0.33984 1.85026,-0.46067 1.07995,-0.12084 2.31849,-0.18125 v -0.21901 q 0,-0.48334 -0.17369,-0.80052 -0.16615,-0.31719 -0.48334,-0.49844 -0.30208,-0.1737 -0.725,-0.23412 -0.42291,-0.0604 -0.88359,-0.0604 -0.55886,0 -1.2461,0.15104 -0.68724,0.14349 -1.41979,0.42292 h -0.0755 v -1.44245 q 0.41537,-0.11328 1.20078,-0.24922 0.78542,-0.13594 1.54818,-0.13594 0.89115,0 1.54818,0.15104 0.66458,0.14349 1.14791,0.49844 0.47579,0.3474 0.725,0.8987 0.24922,0.5513 0.24922,1.36693 z m -1.41224,-2.07683 v -2.3487 q -0.64948,0.0378 -1.53307,0.11329 -0.87604,0.0755 -1.38958,0.21901 -0.61172,0.17369 -0.98933,0.54375 -0.3776,0.3625 -0.3776,1.00442 0,0.725 0.43802,1.09506 0.43802,0.3625 1.33672,0.3625 0.74766,0 1.36693,-0.28698 0.61927,-0.29454 1.14791,-0.70235 z"
     style=""
     id="path843" /><path
     d="m -222.04845,658.56572 h -1.60104 v -1.47266 h 1.60104 z m -0.0906,10.05182 q 0,1.48021 -0.75521,2.23542 -0.7552,0.75521 -2.02395,0.75521 -0.30209,0 -0.80052,-0.0604 -0.49089,-0.0604 -0.82318,-0.15104 v -1.35182 h 0.0755 q 0.21146,0.0831 0.56641,0.1888 0.3625,0.10573 0.70234,0.10573 0.54375,0 0.87604,-0.15105 0.33229,-0.15104 0.49844,-0.45312 0.16614,-0.30208 0.21146,-0.73255 0.0529,-0.42292 0.0529,-1.03464 v -6.79687 h -1.75963 v -1.19323 h 3.17942 z"
     style=""
     id="path845" /><path
     d="m -213.15965,661.22405 h -3.05104 v 7.18959 h -1.41979 v -7.18959 h -3.05105 v -1.24609 h 7.52188 z"
     style=""
     id="path847" /><path
     d="m -204.62579,664.34306 h -6.21537 q 0,0.77787 0.23412,1.35938 0.23411,0.57396 0.64192,0.94401 0.39271,0.3625 0.92891,0.54375 0.54375,0.18125 1.19323,0.18125 0.86094,0 1.72943,-0.33985 0.87604,-0.34739 1.24609,-0.67968 h 0.0755 v 1.54817 q -0.71745,0.30209 -1.4651,0.50599 -0.74766,0.20391 -1.57084,0.20391 -2.09948,0 -3.2776,-1.13281 -1.17813,-1.14037 -1.17813,-3.23229 0,-2.06928 1.12526,-3.28516 1.13282,-1.21589 2.97553,-1.21589 1.70677,0 2.62812,0.99688 0.92891,0.99687 0.92891,2.83203 z m -1.38203,-1.0875 q -0.008,-1.11771 -0.56641,-1.72942 -0.5513,-0.61172 -1.68412,-0.61172 -1.14036,0 -1.82005,0.67213 -0.67213,0.67214 -0.76276,1.66901 z"
     style=""
     id="path849" /><path
     d="m -266.53777,687.89653 h -1.4198 v -3.7987 h -4.22161 v 3.7987 h -1.41979 v -8.43568 h 1.41979 v 3.41354 h 4.22161 v -3.41354 h 1.4198 z"
     style=""
     id="path851" /><path
     d="m -257.19585,687.89653 h -1.41224 v -0.8987 q -0.1888,0.12838 -0.51354,0.3625 -0.31719,0.22656 -0.61927,0.3625 -0.35495,0.1737 -0.81563,0.28698 -0.46067,0.12083 -1.07994,0.12083 -1.14037,0 -1.93334,-0.75521 -0.79297,-0.75521 -0.79297,-1.92578 0,-0.95911 0.40782,-1.54818 0.41536,-0.59661 1.17812,-0.93645 0.77031,-0.33985 1.85026,-0.46068 1.07995,-0.12083 2.31849,-0.18125 v -0.21901 q 0,-0.48333 -0.1737,-0.80052 -0.16614,-0.31719 -0.48333,-0.49844 -0.30208,-0.1737 -0.725,-0.23411 -0.42292,-0.0604 -0.88359,-0.0604 -0.55886,0 -1.2461,0.15104 -0.68724,0.14349 -1.41979,0.42292 h -0.0755 v -1.44245 q 0.41537,-0.11328 1.20078,-0.24922 0.78542,-0.13594 1.54818,-0.13594 0.89115,0 1.54818,0.15105 0.66458,0.14348 1.14791,0.49843 0.47578,0.3474 0.725,0.8987 0.24922,0.5513 0.24922,1.36693 z m -1.41224,-2.07683 v -2.34869 q -0.64948,0.0378 -1.53307,0.11328 -0.87604,0.0755 -1.38958,0.21901 -0.61172,0.1737 -0.98933,0.54375 -0.3776,0.3625 -0.3776,1.00442 0,0.725 0.43802,1.09506 0.43802,0.3625 1.33672,0.3625 0.74765,0 1.36693,-0.28698 0.61927,-0.29453 1.14791,-0.70235 z"
     style=""
     id="path853" /><path
     d="m -248.13335,687.36788 q -0.86849,0.40781 -1.49531,0.55886 -0.61927,0.15859 -1.23854,0.15859 -0.92136,0 -1.69167,-0.26432 -0.77031,-0.27188 -1.32161,-0.81563 -0.5513,-0.54375 -0.86094,-1.37448 -0.30208,-0.83073 -0.30208,-1.94088 0,-2.01641 1.11771,-3.21719 1.1177,-1.20833 3.05859,-1.20833 0.73255,0 1.43489,0.2039 0.7099,0.20391 1.29896,0.49844 v 1.57838 h -0.0831 q -0.70234,-0.53619 -1.38958,-0.79296 -0.67969,-0.25677 -1.32162,-0.25677 -1.2612,0 -1.95599,0.84583 -0.68724,0.84583 -0.68724,2.3487 0,1.50286 0.68724,2.33359 0.68724,0.83073 1.95599,0.83073 0.44558,0 0.8836,-0.11328 0.44557,-0.11328 0.80807,-0.29453 0.28698,-0.14349 0.58906,-0.33985 0.30964,-0.2039 0.43047,-0.30208 h 0.0831 z"
     style=""
     id="path855" /></g>




</svg>