<?xml version="1.0" encoding="UTF-8" standalone="no"?>
<!-- Generator: Adobe Illustrator 19.1.0, SVG Export Plug-In . SVG Version: 6.00 Build 0)  -->

<svg
   xmlns:dc="http://purl.org/dc/elements/1.1/"
   xmlns:cc="http://creativecommons.org/ns#"
   xmlns:rdf="http://www.w3.org/1999/02/22-rdf-syntax-ns#"
   xmlns:svg="http://www.w3.org/2000/svg"
   xmlns="http://www.w3.org/2000/svg"
   xmlns:sodipodi="http://sodipodi.sourceforge.net/DTD/sodipodi-0.dtd"
   xmlns:inkscape="http://www.inkscape.org/namespaces/inkscape"
   version="1.1"
   id="Calque_1"
   x="0px"
   y="0px"
   viewBox="-330 571.3 138.60001 138.60001"
   xml:space="preserve"
   sodipodi:docname="main_menu_logo_links-es.svg"
   inkscape:version="0.92.4 (5da689c313, 2019-01-14)"
   width="138.60001"
   height="138.60001"><metadata
   id="metadata31"><rdf:RDF><cc:Work
       rdf:about=""><dc:format>image/svg+xml</dc:format><dc:type
         rdf:resource="http://purl.org/dc/dcmitype/StillImage" /><dc:title></dc:title></cc:Work></rdf:RDF></metadata><defs
   id="defs29" /><sodipodi:namedview
   pagecolor="#ffffff"
   bordercolor="#666666"
   borderopacity="1"
   objecttolerance="10"
   gridtolerance="10"
   guidetolerance="10"
   inkscape:pageopacity="0"
   inkscape:pageshadow="2"
   inkscape:window-width="1920"
   inkscape:window-height="1017"
   id="namedview27"
   showgrid="false"
   inkscape:zoom="4"
   inkscape:cx="-1.7787209"
   inkscape:cy="86.965919"
   inkscape:window-x="1912"
   inkscape:window-y="-8"
   inkscape:window-maximized="1"
   inkscape:current-layer="Calque_1"
   fit-margin-top="0"
   fit-margin-left="0"
   fit-margin-right="0"
   fit-margin-bottom="0" /><style
   type="text/css"
   id="style2">
	.st0{fill:#40637D;}
	.st1{fill:#FFFFFF;}
</style><g
   id="g6"
   transform="translate(-0.25300687,-0.1)"><path
     class="st0"
     d="m -330,640.7 c 0,-38.3 31,-69.3 69.3,-69.3 38.3,0 69.3,31 69.3,69.3 0,38.3 -31,69.3 -69.3,69.3 -38.3,0 -69.3,-31 -69.3,-69.3"
     id="path4"
     inkscape:connector-curvature="0"
     style="fill:#40637d" /></g><g
   id="g24"
   transform="translate(-0.29679437,-6.09999)"><g
     id="g22"><path
       class="st1"
       d="m -235.3,620.9 -11.3,11.3 c -6.2,6.2 -16.3,6.2 -22.5,0 -1,-1 -1.7,-2.1 -2.4,-3.2 l 5.2,-5.2 c 0.2,-0.3 0.6,-0.4 0.8,-0.6 0.4,1.2 1,2.4 2,3.4 3.1,3.1 8.2,3.1 11.3,0 l 11.3,-11.3 c 3.1,-3.1 3.1,-8.2 0,-11.3 -3.1,-3.1 -8.2,-3.1 -11.3,0 l -4,4 c -3.2,-1.3 -6.7,-1.6 -10.2,-1.1 l 8.5,-8.5 c 6.2,-6.2 16.3,-6.2 22.5,0 6.3,6.2 6.3,16.3 0.1,22.5 m -29.8,18.6 -4,4 c -3.1,3.1 -8.2,3.1 -11.3,0 -3.1,-3.1 -3.1,-8.2 0,-11.3 l 11.3,-11.3 c 3.1,-3.1 8.2,-3.1 11.3,0 1,1 1.6,2.1 2,3.4 0.3,-0.2 0.6,-0.3 0.8,-0.6 l 5.2,-5.2 c -0.7,-1.1 -1.4,-2.2 -2.4,-3.2 -6.2,-6.2 -16.3,-6.2 -22.5,0 l -11.3,11.3 c -6.2,6.2 -6.2,16.3 0,22.5 6.2,6.2 16.3,6.2 22.5,0 l 8.5,-8.5 c -3.4,0.5 -6.9,0.1 -10.1,-1.1"
       id="path20"
       inkscape:connector-curvature="0"
       style="fill:#ffffff" /></g></g><g
   aria-label="Socios
y Enlaces"
   style="font-style:normal;font-variant:normal;font-weight:normal;font-stretch:normal;font-size:15.92933273px;line-height:1.25;font-family:KonsensMedium;-inkscape-font-specification:'KonsensMedium, Normal';font-variant-ligatures:normal;font-variant-caps:normal;font-variant-numeric:normal;font-feature-settings:normal;text-align:center;letter-spacing:0px;word-spacing:0px;writing-mode:lr-tb;text-anchor:middle;fill:#ffffff;fill-opacity:1;stroke:none"
   id="text35"><path
     d="m -276.35033,657.76039 h -1.78408 q 0,-2.18232 -2.62834,-2.18232 -1.22656,0 -1.89559,0.50974 -0.66903,0.49381 -0.66903,1.36992 0,0.62125 0.3823,1.01948 0.39823,0.3823 1.01948,0.57346 0.62124,0.19115 1.36992,0.31858 0.76461,0.12744 1.51329,0.33452 0.74868,0.19115 1.36992,0.50974 0.62124,0.30266 1.00355,0.95576 0.39823,0.6531 0.39823,1.59293 0,1.59293 -1.22656,2.53276 -1.21063,0.92391 -3.28144,0.92391 -2.1186,0 -3.3133,-0.90798 -1.17877,-0.9239 -1.17877,-2.69205 v -0.0956 h 1.78408 q 0,2.19825 2.72392,2.19825 1.29028,0 1.99117,-0.49381 0.71682,-0.50974 0.71682,-1.38585 0,-0.60532 -0.39824,-0.98762 -0.3823,-0.39823 -1.00355,-0.57346 -0.60531,-0.19115 -1.35399,-0.31858 -0.74868,-0.14337 -1.51328,-0.33452 -0.74868,-0.20708 -1.36993,-0.52567 -0.60531,-0.33451 -1.00355,-0.98762 -0.3823,-0.6531 -0.3823,-1.60886 0,-1.577 1.16284,-2.5009 1.17877,-0.93983 3.16994,-0.93983 2.08674,0 3.23365,0.9239 1.16284,0.90797 1.16284,2.67612 z"
     style=""
     id="path898" /><path
     d="m -268.51882,662.68255 v -1.48142 q 0,-1.01948 -0.60531,-1.59294 -0.58939,-0.57345 -1.56108,-0.57345 -0.98762,0 -1.577,0.57345 -0.58939,0.57346 -0.58939,1.59294 v 1.48142 q 0,1.01948 0.58939,1.60887 0.58938,0.57345 1.577,0.57345 0.97169,0 1.56108,-0.57345 0.60531,-0.57346 0.60531,-1.60887 z m 1.56108,-1.62479 v 1.78409 q 0,1.56107 -1.05134,2.5009 -1.03541,0.93983 -2.67613,0.93983 -1.64072,0 -2.69205,-0.93983 -1.03541,-0.93983 -1.03541,-2.5009 v -1.78409 q 0,-1.56107 1.03541,-2.5009 1.05133,-0.93983 2.69205,-0.93983 1.64072,0 2.67613,0.93983 1.05134,0.93983 1.05134,2.5009 z"
     style=""
     id="path900" /><path
     d="m -258.03757,663.00114 v 0.12744 q 0,1.49735 -0.95576,2.30975 -0.95576,0.81239 -2.59648,0.81239 -1.59293,0 -2.56462,-0.86018 -0.95576,-0.87611 -0.95576,-2.40533 v -2.1186 q 0,-1.51329 0.95576,-2.37347 0.97169,-0.87611 2.56462,-0.87611 1.64072,0 2.59648,0.81239 0.95576,0.79647 0.95576,2.29383 v 0.12743 h -1.56107 q 0,-1.81594 -1.99117,-1.81594 -1.92745,0 -1.92745,1.97523 v 1.83188 q 0,1.97523 1.92745,1.97523 1.99117,0 1.99117,-1.81594 z"
     style=""
     id="path902" /><path
     d="m -254.34769,666.10736 h -1.64072 v -8.37883 h 1.64072 z m 0.11151,-11.11867 v 0.33451 q 0,0.36638 -0.2708,0.58939 -0.25487,0.22301 -0.6531,0.22301 -0.43009,0 -0.68496,-0.20708 -0.25487,-0.22301 -0.25487,-0.60532 v -0.33451 q 0,-0.38231 0.25487,-0.58939 0.25487,-0.22301 0.68496,-0.22301 0.39823,0 0.6531,0.22301 0.2708,0.22301 0.2708,0.58939 z"
     style=""
     id="path904" /><path
     d="m -246.33598,662.68255 v -1.48142 q 0,-1.01948 -0.60531,-1.59294 -0.58939,-0.57345 -1.56108,-0.57345 -0.98762,0 -1.577,0.57345 -0.58939,0.57346 -0.58939,1.59294 v 1.48142 q 0,1.01948 0.58939,1.60887 0.58938,0.57345 1.577,0.57345 0.97169,0 1.56108,-0.57345 0.60531,-0.57346 0.60531,-1.60887 z m 1.56108,-1.62479 v 1.78409 q 0,1.56107 -1.05134,2.5009 -1.03541,0.93983 -2.67613,0.93983 -1.64072,0 -2.69205,-0.93983 -1.03541,-0.93983 -1.03541,-2.5009 v -1.78409 q 0,-1.56107 1.03541,-2.5009 1.05133,-0.93983 2.69205,-0.93983 1.64072,0 2.67613,0.93983 1.05134,0.93983 1.05134,2.5009 z"
     style=""
     id="path906" /><path
     d="m -236.01402,660.40466 h -1.59293 q 0,-1.43364 -1.87966,-1.43364 -0.89205,0 -1.36993,0.31859 -0.46195,0.31858 -0.46195,0.84425 0,0.49381 0.39824,0.76461 0.39823,0.2708 0.98762,0.33452 0.58938,0.0637 1.27434,0.19115 0.70089,0.12743 1.29028,0.30265 0.58938,0.1593 0.98762,0.65311 0.39823,0.49381 0.39823,1.29027 0,1.17877 -0.93983,1.87966 -0.93983,0.68497 -2.58055,0.68497 -1.65665,0 -2.61241,-0.74868 -0.93983,-0.74868 -0.93983,-1.97524 v -0.0797 h 1.64072 q 0,1.44957 1.94338,1.44957 0.9239,0 1.41771,-0.30266 0.50974,-0.31858 0.50974,-0.84425 0,-0.52567 -0.55753,-0.76461 -0.5416,-0.23894 -1.32214,-0.33451 -0.78053,-0.0956 -1.577,-0.25487 -0.78054,-0.1593 -1.33806,-0.70089 -0.5416,-0.55753 -0.5416,-1.51329 0,-1.17877 0.90797,-1.86373 0.9239,-0.68496 2.51684,-0.68496 1.64072,0 2.53276,0.74868 0.90797,0.73274 0.90797,1.97523 z"
     style=""
     id="path908" /><path
     d="m -294.64342,688.95002 h -0.43009 v -1.40178 h 0.31858 q 0.57346,0 0.87612,-0.22301 0.30265,-0.22301 0.49381,-0.73275 l 0.36637,-0.95576 -3.26551,-7.99652 h 1.76815 l 2.34162,5.95757 2.00709,-5.95757 h 1.68851 l -3.40888,9.36645 q -0.66903,1.94337 -2.75577,1.94337 z"
     style=""
     id="path910" /><path
     d="m -274.676,686.01903 h -7.7098 V 674.1676 h 7.66201 v 1.54515 h -5.92571 v 3.48852 h 5.30447 v 1.57701 h -5.30447 v 3.67967 h 5.9735 z"
     style=""
     id="path912" /><path
     d="m -265.54551,686.01903 h -1.62479 v -5.5912 q 0,-0.60531 -0.33452,-0.98762 -0.31858,-0.39823 -0.90797,-0.39823 -0.5416,0 -1.25842,0.41416 l -1.36992,0.8124 v 5.75049 h -1.59293 v -8.37883 h 1.577 v 1.09912 l 0.95576,-0.58938 q 0.93983,-0.58939 1.99117,-0.58939 1.17877,0 1.86373,0.73275 0.70089,0.73275 0.70089,1.94338 z"
     style=""
     id="path914" /><path
     d="m -261.69086,686.01903 h -1.64072 V 674.1676 h 1.64072 z"
     style=""
     id="path916" /><path
     d="m -254.05921,683.54998 v -1.06727 h -2.50091 q -1.59293,0 -1.59293,1.21063 0,0.49381 0.28672,0.78054 0.28673,0.2708 0.8124,0.2708 0.78054,0 1.62479,-0.46195 z m 1.59293,2.46905 h -1.59293 v -1.0832 l -0.92391,0.50974 q -1.24248,0.66903 -2.34161,0.66903 -1.09912,0 -1.78408,-0.6531 -0.66903,-0.6531 -0.66903,-1.70444 0,-1.22656 0.84425,-1.87966 0.86018,-0.6531 2.19825,-0.6531 h 2.69205 v -0.52567 q 0,-1.83187 -1.92744,-1.83187 -2.03896,0 -2.03896,1.64072 h -1.577 v -0.0797 q 0,-1.36992 0.98762,-2.15046 1.00354,-0.78054 2.61241,-0.78054 1.65665,0 2.58055,0.82833 0.93983,0.8124 0.93983,2.29382 z"
     style=""
     id="path918" /><path
     d="m -243.47716,682.91281 v 0.12743 q 0,1.49736 -0.95576,2.30975 -0.95576,0.8124 -2.59648,0.8124 -1.59293,0 -2.56462,-0.86018 -0.95576,-0.87612 -0.95576,-2.40533 v -2.1186 q 0,-1.51329 0.95576,-2.37347 0.97169,-0.87612 2.56462,-0.87612 1.64072,0 2.59648,0.8124 0.95576,0.79647 0.95576,2.29382 v 0.12744 h -1.56107 q 0,-1.81595 -1.99117,-1.81595 -1.92745,0 -1.92745,1.97524 v 1.83187 q 0,1.97524 1.92745,1.97524 1.99117,0 1.99117,-1.81594 z"
     style=""
     id="path920" /><path
     d="m -234.45095,683.35883 v 0.0796 q 0,1.22656 -0.97169,1.97524 -0.97169,0.74868 -2.59648,0.74868 -1.6248,0 -2.64427,-0.84425 -1.01948,-0.86019 -1.01948,-2.34162 v -2.00709 q 0,-1.56108 1.01948,-2.50091 1.01947,-0.93983 2.62834,-0.93983 1.60886,0 2.61241,0.93983 1.00355,0.9239 1.00355,2.51684 v 1.41771 h -5.71864 v 0.47788 q 0,0.93983 0.57346,1.43364 0.58939,0.47788 1.54515,0.47788 2.02302,0 2.02302,-1.43364 z m -1.49736,-2.15046 v -0.25487 q 0,-0.98762 -0.55753,-1.51329 -0.54159,-0.54159 -1.52921,-0.54159 -0.98762,0 -1.54515,0.54159 -0.55753,0.5416 -0.55753,1.52922 v 0.23894 z"
     style=""
     id="path922" /><path
     d="m -225.65373,680.31633 h -1.59293 q 0,-1.43364 -1.87966,-1.43364 -0.89205,0 -1.36993,0.31858 -0.46195,0.31859 -0.46195,0.84426 0,0.49381 0.39824,0.7646 0.39823,0.2708 0.98761,0.33452 0.58939,0.0637 1.27435,0.19115 0.70089,0.12744 1.29028,0.30266 0.58938,0.15929 0.98762,0.6531 0.39823,0.49381 0.39823,1.29028 0,1.17877 -0.93983,1.87966 -0.93983,0.68496 -2.58055,0.68496 -1.65665,0 -2.61241,-0.74868 -0.93983,-0.74868 -0.93983,-1.97523 v -0.0797 h 1.64072 q 0,1.44957 1.94338,1.44957 0.9239,0 1.41771,-0.30266 0.50973,-0.31859 0.50973,-0.84425 0,-0.52567 -0.55752,-0.76461 -0.5416,-0.23894 -1.32214,-0.33452 -0.78053,-0.0956 -1.577,-0.25487 -0.78054,-0.15929 -1.33806,-0.70089 -0.5416,-0.55752 -0.5416,-1.51328 0,-1.17877 0.90797,-1.86374 0.9239,-0.68496 2.51683,-0.68496 1.64073,0 2.53277,0.74868 0.90797,0.73275 0.90797,1.97524 z"
     style=""
     id="path924" /></g>

</svg>