<?xml version="1.0" encoding="UTF-8" standalone="no"?>
<!-- Generator: Adobe Illustrator 19.1.0, SVG Export Plug-In . SVG Version: 6.00 Build 0)  -->

<svg
   xmlns:dc="http://purl.org/dc/elements/1.1/"
   xmlns:cc="http://creativecommons.org/ns#"
   xmlns:rdf="http://www.w3.org/1999/02/22-rdf-syntax-ns#"
   xmlns:svg="http://www.w3.org/2000/svg"
   xmlns="http://www.w3.org/2000/svg"
   xmlns:sodipodi="http://sodipodi.sourceforge.net/DTD/sodipodi-0.dtd"
   xmlns:inkscape="http://www.inkscape.org/namespaces/inkscape"
   version="1.1"
   id="Calque_1"
   x="0px"
   y="0px"
   viewBox="-330 571.3 138.7 138.7"
   style="enable-background:new -330 571.3 138.7 138.7;"
   xml:space="preserve"
   sodipodi:docname="main_menu_logo_invasive_species-el.svg"
   inkscape:version="0.92.2 5c3e80d, 2017-08-06"><metadata
     id="metadata93"><rdf:RDF><cc:Work
         rdf:about=""><dc:format>image/svg+xml</dc:format><dc:type
           rdf:resource="http://purl.org/dc/dcmitype/StillImage" /><dc:title /></cc:Work></rdf:RDF></metadata><defs
     id="defs91" /><sodipodi:namedview
     pagecolor="#ffffff"
     bordercolor="#666666"
     borderopacity="1"
     objecttolerance="10"
     gridtolerance="10"
     guidetolerance="10"
     inkscape:pageopacity="0"
     inkscape:pageshadow="2"
     inkscape:window-width="2560"
     inkscape:window-height="1315"
     id="namedview89"
     showgrid="false"
     inkscape:zoom="5"
     inkscape:cx="49.574945"
     inkscape:cy="69.349998"
     inkscape:window-x="56"
     inkscape:window-y="0"
     inkscape:window-maximized="0"
     inkscape:current-layer="text97" /><style
     type="text/css"
     id="style2">
	.st0{fill:#559973;}
	.st1{fill:#FFFFFF;}
</style><g
     id="g6"><path
       class="st0"
       d="M-330,640.7c0-38.3,31-69.3,69.3-69.3c38.3,0,69.3,31,69.3,69.3s-31,69.3-69.3,69.3   C-299,710-330,679-330,640.7"
       id="path4" /></g><g
     id="g86"><g
       id="g44"><path
         class="st1"
         d="M-246.8,607.9c-6.1-6.3-16.1-6.5-22.4-0.4c-6.3,6.1-6.5,16.1-0.4,22.4c6.1,6.3,16.1,6.5,22.4,0.4    C-240.9,624.2-240.7,614.2-246.8,607.9"
         id="path42" /></g><g
       id="g48"><path
         class="st1"
         d="M-281.2,629c3.9-3.8,4-10.1,0.2-14c-3.8-3.9-10.1-4-14-0.2c-3.9,3.8-4,10.1-0.2,14    C-291.5,632.7-285.2,632.8-281.2,629"
         id="path46" /></g><g
       id="g52"><path
         class="st1"
         d="M-225.4,616c-2.8-2.9-7.5-3-10.5-0.2c-2.9,2.8-3,7.5-0.2,10.5c2.8,2.9,7.5,3,10.5,0.2    C-222.6,623.6-222.5,618.9-225.4,616"
         id="path50" /></g><g
       id="g56"><path
         class="st1"
         d="M-281.4,632.4c-2.9,2.8-3,7.5-0.2,10.5c2.8,2.9,7.5,3,10.5,0.2c2.9-2.8,3-7.5,0.2-10.5    C-273.8,629.7-278.4,629.6-281.4,632.4"
         id="path54" /></g><g
       id="g60"><path
         class="st1"
         d="M-264,639.8c-1.9,1.9-2,5-0.1,6.9c1.9,1.9,5,2,6.9,0.1c1.9-1.9,2-5,0.1-6.9C-259,637.9-262.1,637.9-264,639.8    "
         id="path58" /></g><g
       id="g64"><path
         class="st1"
         d="M-276.2,605.6c1.9-1.9,2-5,0.1-6.9c-1.9-1.9-5-2-6.9-0.1c-1.9,1.9-2,5-0.1,6.9    C-281.2,607.5-278.1,607.5-276.2,605.6"
         id="path62" /></g><g
       id="g68"><path
         class="st1"
         d="M-250.9,596.6c1.9-1.9,2-5,0.1-6.9c-1.9-1.9-5-2-6.9-0.1c-1.9,1.9-2,5-0.1,6.9S-252.9,598.5-250.9,596.6"
         id="path66" /></g><g
       id="g72"><path
         class="st1"
         d="M-241.2,634.8c-1.9,1.9-2,5-0.1,6.9c1.9,1.9,5,2,6.9,0.1c1.9-1.9,2-5,0.1-6.9    C-236.1,633-239.2,632.9-241.2,634.8"
         id="path70" /></g><g
       id="g76"><path
         class="st1"
         d="M-229.3,640.3c-1,0.9-1,2.5-0.1,3.5c0.9,1,2.5,1,3.5,0.1c1-0.9,1-2.5,0.1-3.5    C-226.7,639.4-228.3,639.3-229.3,640.3"
         id="path74" /></g><g
       id="g80"><path
         class="st1"
         d="M-290.8,638.1c-1,0.9-1,2.5-0.1,3.5c0.9,1,2.5,1,3.5,0.1c1-0.9,1-2.5,0.1-3.5    C-288.2,637.2-289.8,637.1-290.8,638.1"
         id="path78" /></g><g
       id="g84"><path
         class="st1"
         d="M-249.5,601.6c0.9,1,2.5,1,3.5,0.1c1-0.9,1-2.5,0.1-3.5c-0.9-1-2.5-1-3.5-0.1    C-250.4,599.1-250.4,600.6-249.5,601.6"
         id="path82" /></g></g><g
     aria-label="Χωροκατακτητικά
είδη"
     style="font-style:normal;font-variant:normal;font-weight:normal;font-stretch:normal;font-size:15.92933273px;line-height:1.25;font-family:KonsensMedium;-inkscape-font-specification:'KonsensMedium, Normal';font-variant-ligatures:normal;font-variant-caps:normal;font-variant-numeric:normal;font-feature-settings:normal;text-align:center;letter-spacing:0px;word-spacing:0px;writing-mode:lr-tb;text-anchor:middle;fill:#ffffff;fill-opacity:1;stroke:none"
     id="text97"><path
       d="m -318.63334,658.9123 -3.88177,5.55833 3.87422,5.68672 h -1.72942 l -3.06615,-4.62943 -3.14167,4.62943 h -1.63125 l 3.91953,-5.61875 -3.8289,-5.6263 h 1.72187 l 3.02839,4.56901 3.09635,-4.56901 z"
       style="font-style:normal;font-variant:normal;font-weight:normal;font-stretch:normal;font-size:15.46666718px;font-family:KonsensMedium;-inkscape-font-specification:'KonsensMedium, Normal';font-variant-ligatures:normal;font-variant-caps:normal;font-variant-numeric:normal;font-feature-settings:normal;text-align:center;writing-mode:lr-tb;text-anchor:middle"
       id="path843" /><path
       d="m -306.39141,666.35865 q 0,0.725 -0.18125,1.45755 -0.1737,0.725 -0.55885,1.29141 -0.41537,0.60417 -1.01198,0.94401 -0.58906,0.33229 -1.45755,0.33229 -0.725,0 -1.33672,-0.37005 -0.61172,-0.37761 -0.89115,-0.88359 h -0.0453 q -0.29453,0.51354 -0.85339,0.88359 -0.55885,0.37005 -1.32916,0.37005 -0.85339,0 -1.47266,-0.34739 -0.61172,-0.35495 -0.99687,-0.92891 -0.38516,-0.57396 -0.56641,-1.29141 -0.1737,-0.725 -0.1737,-1.45755 0,-1.28385 0.43047,-2.32604 0.43047,-1.04974 1.51797,-2.31094 h 1.72187 v 0.12839 q -1.01953,0.81562 -1.62369,1.97864 -0.59662,1.16302 -0.59662,2.54505 0,0.49844 0.0604,0.92891 0.0604,0.42292 0.28698,0.8987 0.19635,0.41536 0.54375,0.69479 0.35495,0.27188 0.89114,0.27188 0.38516,0 0.64948,-0.0906 0.27188,-0.0982 0.42292,-0.22656 0.16615,-0.13594 0.27187,-0.30209 0.11329,-0.16614 0.1586,-0.27942 v -4.41042 h 1.40469 v 4.41042 q 0.068,0.12838 0.17369,0.29453 0.10573,0.16614 0.26433,0.29453 0.18125,0.14349 0.39271,0.22656 0.21901,0.0831 0.65703,0.0831 0.52864,0 0.88359,-0.26433 0.35495,-0.27187 0.55885,-0.70234 0.18881,-0.41537 0.27188,-0.87604 0.0831,-0.46068 0.0831,-0.95157 0,-1.37447 -0.59661,-2.5375 -0.58906,-1.16302 -1.6237,-1.98619 v -0.12839 h 1.72187 q 1.0875,1.2612 1.51797,2.31094 0.43047,1.04219 0.43047,2.32604 z"
       style="font-style:normal;font-variant:normal;font-weight:normal;font-stretch:normal;font-size:15.46666718px;font-family:KonsensMedium;-inkscape-font-specification:'KonsensMedium, Normal';font-variant-ligatures:normal;font-variant-caps:normal;font-variant-numeric:normal;font-feature-settings:normal;text-align:center;writing-mode:lr-tb;text-anchor:middle"
       id="path845" /><path
       d="m -296.67188,665.7998 q 0,1.94843 -1.04974,3.23984 -1.04218,1.28385 -2.71875,1.28385 -0.49088,0 -1.11015,-0.13593 -0.61172,-0.13594 -1.15547,-0.46068 v 3.54193 h -1.41979 v -7.99011 q 0,-0.9289 0.26432,-1.6237 0.27188,-0.70234 0.77031,-1.20078 0.46823,-0.46823 1.17058,-0.71744 0.70989,-0.24922 1.4802,-0.24922 1.83516,0 2.80183,1.11015 0.96666,1.11016 0.96666,3.20209 z m -1.4651,0.0906 q 0,-1.64635 -0.60417,-2.41667 -0.60416,-0.77031 -1.70677,-0.77031 -1.19323,0 -1.72943,0.725 -0.52864,0.725 -0.52864,2.09948 v 3.04349 q 0.5513,0.25677 0.99687,0.37005 0.45313,0.10573 1.01954,0.10573 1.22343,0 1.88802,-0.83828 0.66458,-0.83828 0.66458,-2.31849 z"
       style="font-style:normal;font-variant:normal;font-weight:normal;font-stretch:normal;font-size:15.46666718px;font-family:KonsensMedium;-inkscape-font-specification:'KonsensMedium, Normal';font-variant-ligatures:normal;font-variant-caps:normal;font-variant-numeric:normal;font-feature-settings:normal;text-align:center;writing-mode:lr-tb;text-anchor:middle"
       id="path847" /><path
       d="m -287.26953,665.94329 q 0,2.06171 -1.05729,3.25494 -1.05729,1.19323 -2.83203,1.19323 -1.78985,0 -2.84714,-1.19323 -1.04974,-1.19323 -1.04974,-3.25494 0,-2.06172 1.04974,-3.25495 1.05729,-1.20078 2.84714,-1.20078 1.77474,0 2.83203,1.20078 1.05729,1.19323 1.05729,3.25495 z m -1.46511,0 q 0,-1.63881 -0.64192,-2.43177 -0.64193,-0.80053 -1.78229,-0.80053 -1.15547,0 -1.7974,0.80053 -0.63438,0.79296 -0.63438,2.43177 0,1.58593 0.64193,2.40911 0.64193,0.81563 1.78985,0.81563 1.13281,0 1.77474,-0.80808 0.64947,-0.81562 0.64947,-2.41666 z"
       style="font-style:normal;font-variant:normal;font-weight:normal;font-stretch:normal;font-size:15.46666718px;font-family:KonsensMedium;-inkscape-font-specification:'KonsensMedium, Normal';font-variant-ligatures:normal;font-variant-caps:normal;font-variant-numeric:normal;font-feature-settings:normal;text-align:center;writing-mode:lr-tb;text-anchor:middle"
       id="path849" /><path
       d="m -277.45938,670.15735 h -1.87291 l -3.40599,-3.69297 -0.84584,0.82318 v 2.86979 h -1.41979 v -8.43568 h 1.41979 v 4.15365 l 2.9,-3.14922 q 0.54375,-0.59662 1.01954,-0.80807 0.48333,-0.21146 0.95911,-0.21146 0.21146,0 0.43802,0.008 0.22656,0.008 0.27943,0.008 v 1.25365 h -0.0831 q -0.12084,-0.0151 -0.30209,-0.0227 -0.1737,-0.008 -0.27187,-0.008 -0.35495,0 -0.64948,0.18125 -0.28698,0.1737 -0.50599,0.42292 l -1.89557,2.04661 z"
       style="font-style:normal;font-variant:normal;font-weight:normal;font-stretch:normal;font-size:15.46666718px;font-family:KonsensMedium;-inkscape-font-specification:'KonsensMedium, Normal';font-variant-ligatures:normal;font-variant-caps:normal;font-variant-numeric:normal;font-feature-settings:normal;text-align:center;writing-mode:lr-tb;text-anchor:middle"
       id="path851" /><path
       d="m -269.06901,670.15735 h -1.41979 v -0.8836 q -0.61172,0.52865 -1.2763,0.82318 -0.66459,0.29453 -1.44245,0.29453 -1.51042,0 -2.40156,-1.16302 -0.8836,-1.16302 -0.8836,-3.22474 0,-1.07239 0.30208,-1.91067 0.30964,-0.83829 0.83073,-1.42735 0.51355,-0.57396 1.19323,-0.87604 0.68724,-0.30208 1.41979,-0.30208 0.66459,0 1.17813,0.16614 0.51354,0.16615 1.07995,0.46068 v -0.39271 h 1.41979 z m -1.41979,-2.07682 v -4.80313 q -0.57396,-0.25677 -1.02709,-0.37005 -0.45312,-0.12083 -0.98932,-0.12083 -1.19323,0 -1.85781,0.83072 -0.66458,0.83073 -0.66458,2.35625 0,1.50287 0.51354,2.28829 0.51354,0.77786 1.64635,0.77786 0.60417,0 1.22344,-0.26432 0.61927,-0.27188 1.15547,-0.69479 z"
       style="font-style:normal;font-variant:normal;font-weight:normal;font-stretch:normal;font-size:15.46666718px;font-family:KonsensMedium;-inkscape-font-specification:'KonsensMedium, Normal';font-variant-ligatures:normal;font-variant-caps:normal;font-variant-numeric:normal;font-feature-settings:normal;text-align:center;writing-mode:lr-tb;text-anchor:middle"
       id="path853" /><path
       d="m -260.07448,662.96777 h -3.05104 v 7.18958 h -1.41979 v -7.18958 h -3.05104 v -1.2461 h 7.52187 z"
       style="font-style:normal;font-variant:normal;font-weight:normal;font-stretch:normal;font-size:15.46666718px;font-family:KonsensMedium;-inkscape-font-specification:'KonsensMedium, Normal';font-variant-ligatures:normal;font-variant-caps:normal;font-variant-numeric:normal;font-feature-settings:normal;text-align:center;writing-mode:lr-tb;text-anchor:middle"
       id="path855" /><path
       d="m -251.75963,670.15735 h -1.4198 v -0.8836 q -0.61172,0.52865 -1.2763,0.82318 -0.66458,0.29453 -1.44245,0.29453 -1.51041,0 -2.40156,-1.16302 -0.88359,-1.16302 -0.88359,-3.22474 0,-1.07239 0.30208,-1.91067 0.30964,-0.83829 0.83073,-1.42735 0.51354,-0.57396 1.19323,-0.87604 0.68724,-0.30208 1.41979,-0.30208 0.66458,0 1.17813,0.16614 0.51354,0.16615 1.07994,0.46068 v -0.39271 h 1.4198 z m -1.4198,-2.07682 v -4.80313 q -0.57395,-0.25677 -1.02708,-0.37005 -0.45312,-0.12083 -0.98932,-0.12083 -1.19323,0 -1.85782,0.83072 -0.66458,0.83073 -0.66458,2.35625 0,1.50287 0.51354,2.28829 0.51354,0.77786 1.64636,0.77786 0.60416,0 1.22343,-0.26432 0.61928,-0.27188 1.15547,-0.69479 z"
       style="font-style:normal;font-variant:normal;font-weight:normal;font-stretch:normal;font-size:15.46666718px;font-family:KonsensMedium;-inkscape-font-specification:'KonsensMedium, Normal';font-variant-ligatures:normal;font-variant-caps:normal;font-variant-numeric:normal;font-feature-settings:normal;text-align:center;writing-mode:lr-tb;text-anchor:middle"
       id="path857" /><path
       d="m -241.36042,670.15735 h -1.87291 l -3.40599,-3.69297 -0.84583,0.82318 v 2.86979 h -1.4198 v -8.43568 h 1.4198 v 4.15365 l 2.9,-3.14922 q 0.54375,-0.59662 1.01953,-0.80807 0.48333,-0.21146 0.95911,-0.21146 0.21146,0 0.43802,0.008 0.22656,0.008 0.27943,0.008 v 1.25365 h -0.0831 q -0.12084,-0.0151 -0.30209,-0.0227 -0.1737,-0.008 -0.27187,-0.008 -0.35495,0 -0.64948,0.18125 -0.28698,0.1737 -0.50599,0.42292 l -1.89557,2.04661 z"
       style="font-style:normal;font-variant:normal;font-weight:normal;font-stretch:normal;font-size:15.46666718px;font-family:KonsensMedium;-inkscape-font-specification:'KonsensMedium, Normal';font-variant-ligatures:normal;font-variant-caps:normal;font-variant-numeric:normal;font-feature-settings:normal;text-align:center;writing-mode:lr-tb;text-anchor:middle"
       id="path859" /><path
       d="m -233.61198,662.96777 h -3.05104 v 7.18958 h -1.41979 v -7.18958 h -3.05105 v -1.2461 h 7.52188 z"
       style="font-style:normal;font-variant:normal;font-weight:normal;font-stretch:normal;font-size:15.46666718px;font-family:KonsensMedium;-inkscape-font-specification:'KonsensMedium, Normal';font-variant-ligatures:normal;font-variant-caps:normal;font-variant-numeric:normal;font-feature-settings:normal;text-align:center;writing-mode:lr-tb;text-anchor:middle"
       id="path861" /><path
       d="m -225.08567,673.26881 h -1.4198 v -7.91459 q 0,-0.58151 -0.068,-1.0875 -0.068,-0.51354 -0.24921,-0.80052 -0.18881,-0.31718 -0.54375,-0.46823 -0.35495,-0.15859 -0.92136,-0.15859 -0.58151,0 -1.21588,0.28698 -0.63438,0.28698 -1.21589,0.73255 v 6.29844 h -1.41979 v -8.43568 h 1.41979 v 0.93646 q 0.66458,-0.5513 1.37448,-0.86094 0.7099,-0.30963 1.45755,-0.30963 1.36693,0 2.08438,0.82317 0.71745,0.82318 0.71745,2.37136 z"
       style="font-style:normal;font-variant:normal;font-weight:normal;font-stretch:normal;font-size:15.46666718px;font-family:KonsensMedium;-inkscape-font-specification:'KonsensMedium, Normal';font-variant-ligatures:normal;font-variant-caps:normal;font-variant-numeric:normal;font-feature-settings:normal;text-align:center;writing-mode:lr-tb;text-anchor:middle"
       id="path863" /><path
       d="m -216.15156,662.96777 h -3.05104 v 7.18958 h -1.4198 v -7.18958 h -3.05104 v -1.2461 h 7.52188 z"
       style="font-style:normal;font-variant:normal;font-weight:normal;font-stretch:normal;font-size:15.46666718px;font-family:KonsensMedium;-inkscape-font-specification:'KonsensMedium, Normal';font-variant-ligatures:normal;font-variant-caps:normal;font-variant-numeric:normal;font-feature-settings:normal;text-align:center;writing-mode:lr-tb;text-anchor:middle"
       id="path865" /><path
       d="m -213.24401,670.15735 h -1.41979 v -8.43568 h 1.41979 z"
       style="font-style:normal;font-variant:normal;font-weight:normal;font-stretch:normal;font-size:15.46666718px;font-family:KonsensMedium;-inkscape-font-specification:'KonsensMedium, Normal';font-variant-ligatures:normal;font-variant-caps:normal;font-variant-numeric:normal;font-feature-settings:normal;text-align:center;writing-mode:lr-tb;text-anchor:middle"
       id="path867" /><path
       d="m -202.81459,670.15735 h -1.87291 l -3.40599,-3.69297 -0.84584,0.82318 v 2.86979 h -1.41979 v -8.43568 h 1.41979 v 4.15365 l 2.90001,-3.14922 q 0.54375,-0.59662 1.01953,-0.80807 0.48333,-0.21146 0.95911,-0.21146 0.21146,0 0.43802,0.008 0.22656,0.008 0.27943,0.008 v 1.25365 h -0.0831 q -0.12084,-0.0151 -0.30209,-0.0227 -0.1737,-0.008 -0.27187,-0.008 -0.35495,0 -0.64948,0.18125 -0.28698,0.1737 -0.50599,0.42292 l -1.89557,2.04661 z"
       style="font-style:normal;font-variant:normal;font-weight:normal;font-stretch:normal;font-size:15.46666718px;font-family:KonsensMedium;-inkscape-font-specification:'KonsensMedium, Normal';font-variant-ligatures:normal;font-variant-caps:normal;font-variant-numeric:normal;font-feature-settings:normal;text-align:center;writing-mode:lr-tb;text-anchor:middle"
       id="path869" /><path
       d="m -194.42422,670.15735 h -1.41979 v -0.8836 q -0.61172,0.52865 -1.2763,0.82318 -0.66458,0.29453 -1.44245,0.29453 -1.51041,0 -2.40156,-1.16302 -0.88359,-1.16302 -0.88359,-3.22474 0,-1.07239 0.30208,-1.91067 0.30963,-0.83829 0.83073,-1.42735 0.51354,-0.57396 1.19323,-0.87604 0.68724,-0.30208 1.41979,-0.30208 0.66458,0 1.17812,0.16614 0.51355,0.16615 1.07995,0.46068 v -0.39271 h 1.41979 z m -1.41979,-2.07682 v -4.80313 q -0.57396,-0.25677 -1.02708,-0.37005 -0.45313,-0.12083 -0.98932,-0.12083 -1.19323,0 -1.85782,0.83072 -0.66458,0.83073 -0.66458,2.35625 0,1.50287 0.51354,2.28829 0.51354,0.77786 1.64636,0.77786 0.60416,0 1.22343,-0.26432 0.61927,-0.27188 1.15547,-0.69479 z m -1.20833,-10.58047 -0.37005,2.9 h -1.09506 l -0.37005,-2.9 z"
       style="font-style:normal;font-variant:normal;font-weight:normal;font-stretch:normal;font-size:15.46666718px;font-family:KonsensMedium;-inkscape-font-specification:'KonsensMedium, Normal';font-variant-ligatures:normal;font-variant-caps:normal;font-variant-numeric:normal;font-feature-settings:normal;text-align:center;writing-mode:lr-tb;text-anchor:middle"
       id="path871" /><path
       d="m -268.97083,689.58568 q -0.80808,0.3625 -1.58594,0.52109 -0.77787,0.1586 -1.64636,0.1586 -0.59661,0 -1.21588,-0.12083 -0.61927,-0.12084 -1.14792,-0.42292 -0.52109,-0.29453 -0.85338,-0.77031 -0.32474,-0.48334 -0.32474,-1.19323 0,-0.725 0.42291,-1.26875 0.43047,-0.54375 1.34427,-0.83073 v -0.0529 q -0.68723,-0.18125 -1.09505,-0.67968 -0.40781,-0.49844 -0.40781,-1.19323 0,-0.67214 0.35495,-1.11016 0.3625,-0.44557 0.85338,-0.70234 0.48334,-0.24922 1.09506,-0.37006 0.61171,-0.12083 1.20833,-0.12083 0.7401,0 1.35937,0.12839 0.61928,0.12083 1.29896,0.33229 v 1.56328 h -0.0982 q -0.49844,-0.38516 -1.23855,-0.59662 -0.73255,-0.21145 -1.48776,-0.21145 -0.33984,0 -0.63437,0.0453 -0.29453,0.0378 -0.61172,0.1888 -0.26432,0.11328 -0.46068,0.37005 -0.1888,0.24922 -0.1888,0.58151 0,0.46068 0.21146,0.71745 0.21146,0.25677 0.57396,0.37005 0.33984,0.10573 0.73255,0.12084 0.39271,0.008 0.79297,0.008 h 0.83828 v 1.25364 h -1.19323 q -0.46823,0 -0.84583,0.0378 -0.37761,0.0302 -0.6948,0.15859 -0.30963,0.12838 -0.49843,0.40781 -0.18125,0.27943 -0.18125,0.725 0,0.40026 0.19635,0.67969 0.19636,0.27943 0.50599,0.43802 0.27943,0.14349 0.65703,0.21901 0.38516,0.0755 0.80808,0.0755 0.77031,0 1.64635,-0.27187 0.87604,-0.27188 1.41224,-0.74011 h 0.0982 z"
       style="font-style:normal;font-variant:normal;font-weight:normal;font-stretch:normal;font-size:15.46666718px;font-family:KonsensMedium;-inkscape-font-specification:'KonsensMedium, Normal';font-variant-ligatures:normal;font-variant-caps:normal;font-variant-numeric:normal;font-feature-settings:normal;text-align:center;writing-mode:lr-tb;text-anchor:middle"
       id="path873" /><path
       d="m -265.79141,690.06901 h -1.41979 v -8.43567 h 1.41979 z m 0.21146,-12.65729 -0.37005,2.9 h -1.09505 l -0.37005,-2.9 z"
       style="font-style:normal;font-variant:normal;font-weight:normal;font-stretch:normal;font-size:15.46666718px;font-family:KonsensMedium;-inkscape-font-specification:'KonsensMedium, Normal';font-variant-ligatures:normal;font-variant-caps:normal;font-variant-numeric:normal;font-feature-settings:normal;text-align:center;writing-mode:lr-tb;text-anchor:middle"
       id="path875" /><path
       d="m -255.76224,685.90782 q 0,2.05416 -1.04974,3.22474 -1.04219,1.17057 -2.83958,1.17057 -1.82006,0 -2.86979,-1.14037 -1.04219,-1.14791 -1.04219,-3.12656 0,-1.06484 0.32474,-1.80495 0.32474,-0.74765 0.80807,-1.23099 0.52109,-0.54375 1.20078,-0.85338 0.67969,-0.30964 1.37448,-0.43802 -0.57396,-0.47578 -1.25365,-0.98177 -0.67968,-0.51354 -1.45,-1.05729 v -1.35183 h 6.11719 v 1.19323 h -4.23672 v 0.0755 q 0.51355,0.3474 1.35183,0.93646 0.83828,0.58906 1.54062,1.22344 1.13281,1.02708 1.57839,1.97864 0.44557,0.94401 0.44557,2.18256 z m -1.4651,0 q 0,-1.01953 -0.41537,-1.88047 -0.41536,-0.86094 -1.24609,-1.51042 -0.49844,0.0604 -1.04974,0.24167 -0.54375,0.18125 -1.04219,0.58151 -0.47578,0.3776 -0.80052,1.03463 -0.31719,0.65703 -0.31719,1.61615 0,1.51797 0.64193,2.30338 0.64193,0.78542 1.82005,0.78542 1.15547,0 1.78229,-0.79297 0.62683,-0.80052 0.62683,-2.3789 z"
       style="font-style:normal;font-variant:normal;font-weight:normal;font-stretch:normal;font-size:15.46666718px;font-family:KonsensMedium;-inkscape-font-specification:'KonsensMedium, Normal';font-variant-ligatures:normal;font-variant-caps:normal;font-variant-numeric:normal;font-feature-settings:normal;text-align:center;writing-mode:lr-tb;text-anchor:middle"
       id="path877" /><path
       d="m -246.51849,693.18047 h -1.41979 v -7.91458 q 0,-0.58151 -0.068,-1.0875 -0.068,-0.51354 -0.24922,-0.80052 -0.1888,-0.31719 -0.54375,-0.46823 -0.35495,-0.15859 -0.92135,-0.15859 -0.58151,0 -1.21589,0.28697 -0.63437,0.28698 -1.21588,0.73256 v 6.29843 h -1.4198 v -8.43567 h 1.4198 v 0.93646 q 0.66458,-0.55131 1.37448,-0.86094 0.70989,-0.30964 1.45755,-0.30964 1.36692,0 2.08437,0.82318 0.71745,0.82318 0.71745,2.37135 z"
       style="font-style:normal;font-variant:normal;font-weight:normal;font-stretch:normal;font-size:15.46666718px;font-family:KonsensMedium;-inkscape-font-specification:'KonsensMedium, Normal';font-variant-ligatures:normal;font-variant-caps:normal;font-variant-numeric:normal;font-feature-settings:normal;text-align:center;writing-mode:lr-tb;text-anchor:middle"
       id="path879" /></g></svg>