<?xml version="1.0" encoding="UTF-8" standalone="no"?>
<!-- Generator: Adobe Illustrator 19.1.0, SVG Export Plug-In . SVG Version: 6.00 Build 0)  -->

<svg
   xmlns:dc="http://purl.org/dc/elements/1.1/"
   xmlns:cc="http://creativecommons.org/ns#"
   xmlns:rdf="http://www.w3.org/1999/02/22-rdf-syntax-ns#"
   xmlns:svg="http://www.w3.org/2000/svg"
   xmlns="http://www.w3.org/2000/svg"
   xmlns:sodipodi="http://sodipodi.sourceforge.net/DTD/sodipodi-0.dtd"
   xmlns:inkscape="http://www.inkscape.org/namespaces/inkscape"
   version="1.1"
   id="Calque_1"
   x="0px"
   y="0px"
   viewBox="-330 571.3 138.60001 138.60001"
   xml:space="preserve"
   sodipodi:docname="main_menu_logo_report_sighting-bg.svg"
   inkscape:version="0.92.4 (5da689c313, 2019-01-14)"
   width="138.60001"
   height="138.60001"><metadata
   id="metadata69"><rdf:RDF><cc:Work
       rdf:about=""><dc:format>image/svg+xml</dc:format><dc:type
         rdf:resource="http://purl.org/dc/dcmitype/StillImage" /><dc:title /></cc:Work></rdf:RDF></metadata><defs
   id="defs67" /><sodipodi:namedview
   pagecolor="#ffffff"
   bordercolor="#666666"
   borderopacity="1"
   objecttolerance="10"
   gridtolerance="10"
   guidetolerance="10"
   inkscape:pageopacity="0"
   inkscape:pageshadow="2"
   inkscape:window-width="1920"
   inkscape:window-height="1017"
   id="namedview65"
   showgrid="false"
   inkscape:zoom="4"
   inkscape:cx="205.38289"
   inkscape:cy="28.489252"
   inkscape:window-x="-8"
   inkscape:window-y="-8"
   inkscape:window-maximized="1"
   inkscape:current-layer="text73"
   fit-margin-top="0"
   fit-margin-left="0"
   fit-margin-right="0"
   fit-margin-bottom="0" /><style
   type="text/css"
   id="style2">
	.st0{fill:#7A9C2B;}
	.st1{fill:#FFFFFF;}
</style><g
   id="g6"
   transform="translate(0,-0.1)"><path
     class="st0"
     d="m -330,640.7 c 0,-38.3 31,-69.3 69.3,-69.3 38.3,0 69.3,31 69.3,69.3 0,38.3 -31,69.3 -69.3,69.3 -38.3,0 -69.3,-31 -69.3,-69.3"
     id="path4"
     style="fill:#7a9c2b;fill-opacity:1"
     inkscape:connector-curvature="0" /></g><g
   id="g62"
   transform="translate(0,-4.20001)"><g
     id="g44"><path
       class="st1"
       d="m -246.4,604.3 c -1.5,-0.4 -5.1,-1 -5.1,-1 0,0 -4.9,-3.9 -9.2,-3.9 -4.3,0 -9.2,3.9 -9.2,3.9 0,0 -3.6,0.6 -5.1,1 6.7,2.4 11.5,8.9 11.5,16.4 0,3.1 -0.8,6 -2.2,8.5 h 10 c -1.4,-2.5 -2.2,-5.4 -2.2,-8.5 0,-7.5 4.8,-13.9 11.5,-16.4"
       id="path42"
       inkscape:connector-curvature="0"
       style="fill:#ffffff" /></g><g
     id="g48"><path
       class="st1"
       d="m -281.9,605.1 c -9,0 -16.3,7.3 -16.3,16.3 0,9 7.3,16.3 16.3,16.3 9,0 16.3,-7.3 16.3,-16.3 0,-9 -7.3,-16.3 -16.3,-16.3 m 0,26.6 c -5.7,0 -10.3,-4.6 -10.3,-10.3 0,-5.7 4.6,-10.3 10.3,-10.3 5.7,0 10.3,4.6 10.3,10.3 0,5.6 -4.6,10.3 -10.3,10.3"
       id="path46"
       inkscape:connector-curvature="0"
       style="fill:#ffffff" /></g><g
     id="g52"><path
       class="st1"
       d="m -288.5,616.2 c -2.2,2.9 -2,6.9 0.3,9.5 -0.8,-2.7 -0.4,-5.8 1.5,-8.2 1.9,-2.4 4.7,-3.6 7.5,-3.5 -3.2,-1.5 -7.1,-0.7 -9.3,2.2"
       id="path50"
       inkscape:connector-curvature="0"
       style="fill:#ffffff" /></g><g
     id="g56"><path
       class="st1"
       d="m -239.5,605.1 c -9,0 -16.3,7.3 -16.3,16.3 0,9 7.3,16.3 16.3,16.3 9,0 16.3,-7.3 16.3,-16.3 0,-9 -7.3,-16.3 -16.3,-16.3 m 0,26.6 c -5.7,0 -10.3,-4.6 -10.3,-10.3 0,-5.7 4.6,-10.3 10.3,-10.3 5.7,0 10.3,4.6 10.3,10.3 0,5.6 -4.6,10.3 -10.3,10.3"
       id="path54"
       inkscape:connector-curvature="0"
       style="fill:#ffffff" /></g><g
     id="g60"><path
       class="st1"
       d="m -242.1,614 c 2.8,-0.1 5.7,1.1 7.5,3.5 1.9,2.4 2.3,5.5 1.5,8.2 2.3,-2.7 2.5,-6.6 0.3,-9.5 -2.2,-2.9 -6.1,-3.7 -9.3,-2.2"
       id="path58"
       inkscape:connector-curvature="0"
       style="fill:#ffffff" /></g></g><g
   aria-label="Съобщение за 
наблюдение"
   style="font-style:normal;font-variant:normal;font-weight:normal;font-stretch:normal;font-size:15.46666718px;line-height:1.25;font-family:KonsensMedium;-inkscape-font-specification:'KonsensMedium, Normal';font-variant-ligatures:normal;font-variant-caps:normal;font-variant-numeric:normal;font-feature-settings:normal;text-align:center;letter-spacing:0px;word-spacing:0px;writing-mode:lr-tb;text-anchor:middle;fill:#ffffff;fill-opacity:1;stroke:none"
   id="text73"><path
     d="m -307.93007,671.33434 q -0.41536,0.18125 -0.75521,0.33984 -0.33229,0.1586 -0.87604,0.33229 -0.46068,0.14349 -1.00443,0.24167 -0.53619,0.10573 -1.18567,0.10573 -1.22344,0 -2.22787,-0.33984 -0.99687,-0.3474 -1.73698,-1.07995 -0.725,-0.71745 -1.13281,-1.82005 -0.40781,-1.11016 -0.40781,-2.57526 0,-1.38959 0.39271,-2.48464 0.3927,-1.09505 1.13281,-1.85026 0.71745,-0.73255 1.72943,-1.11771 1.01953,-0.38516 2.25807,-0.38516 0.90625,0 1.80495,0.21902 0.90625,0.21901 2.00885,0.77031 v 1.77474 h -0.11328 q -0.92891,-0.77787 -1.84271,-1.13282 -0.9138,-0.35494 -1.95599,-0.35494 -0.85338,0 -1.54062,0.27942 -0.67969,0.27188 -1.21589,0.85339 -0.52109,0.56641 -0.81562,1.4349 -0.28698,0.86093 -0.28698,1.99375 0,1.18567 0.31718,2.03906 0.32474,0.85338 0.83073,1.38958 0.52865,0.55886 1.23099,0.83073 0.7099,0.26432 1.49532,0.26432 1.07994,0 2.02395,-0.37005 0.94401,-0.37005 1.76719,-1.11016 h 0.10573 z"
     style=""
     id="path831" /><path
     d="m -299.56236,669.5596 q 0,-0.38516 -0.13594,-0.67214 -0.12838,-0.29453 -0.43047,-0.47578 -0.31718,-0.1888 -0.725,-0.22656 -0.40026,-0.0378 -1.15547,-0.0378 h -1.32916 v 2.86979 h 1.29896 q 0.7552,0 1.17057,-0.0604 0.41536,-0.068 0.71745,-0.24921 0.30963,-0.19636 0.44557,-0.46068 0.14349,-0.27188 0.14349,-0.68724 z m 1.4651,-0.0227 q 0,0.61172 -0.24922,1.11016 -0.24166,0.49844 -0.66458,0.80807 -0.49844,0.37761 -1.06484,0.5362 -0.56641,0.15859 -1.45755,0.15859 h -3.22474 v -7.18958 h -2.47709 v -1.24609 h 3.89688 v 3.28515 h 1.84271 q 0.95156,0 1.47265,0.0982 0.52865,0.0982 1.04974,0.48333 0.43802,0.32474 0.65703,0.83073 0.21901,0.50599 0.21901,1.12526 z"
     style=""
     id="path833" /><path
     d="m -288.81575,667.9359 q 0,2.06172 -1.05729,3.25495 -1.05729,1.19323 -2.83203,1.19323 -1.78984,0 -2.84713,-1.19323 -1.04974,-1.19323 -1.04974,-3.25495 0,-2.06172 1.04974,-3.25495 1.05729,-1.20078 2.84713,-1.20078 1.77474,0 2.83203,1.20078 1.05729,1.19323 1.05729,3.25495 z m -1.4651,0 q 0,-1.6388 -0.64193,-2.43177 -0.64192,-0.80052 -1.78229,-0.80052 -1.15547,0 -1.79739,0.80052 -0.63438,0.79297 -0.63438,2.43177 0,1.58594 0.64193,2.40912 0.64192,0.81562 1.78984,0.81562 1.13281,0 1.77474,-0.80807 0.64948,-0.81563 0.64948,-2.41667 z"
     style=""
     id="path835" /><path
     d="m -280.41028,664.96038 q 0.52865,0.52865 0.80052,1.28385 0.27188,0.74766 0.27188,1.75964 0,1.88802 -1.13281,3.13411 -1.13282,1.2461 -2.78672,1.2461 -0.81563,0 -1.50287,-0.27188 -0.68724,-0.27942 -1.17057,-0.85338 -0.60417,-0.71745 -0.90625,-1.80495 -0.29453,-1.09505 -0.29453,-2.66589 0,-0.5664 0.0529,-1.14791 0.0529,-0.58907 0.24167,-1.40469 0.15104,-0.70234 0.43802,-1.35182 0.29453,-0.64948 0.69479,-1.04974 0.54375,-0.5513 1.42735,-0.8836 0.89114,-0.33984 2.35625,-0.46823 0.59661,-0.0529 1.11015,-0.0831 0.51355,-0.0378 0.92136,-0.068 v 1.30651 q -0.49844,0.0302 -0.98933,0.0604 -0.48333,0.0302 -0.96666,0.0755 -0.96667,0.0831 -1.75209,0.31719 -0.77786,0.23411 -1.14036,0.60416 -0.40026,0.40027 -0.60417,1.04974 -0.19635,0.64193 -0.25677,1.22344 0.56641,-0.40781 1.23854,-0.67969 0.67969,-0.27942 1.44245,-0.27942 0.7099,0 1.36693,0.23411 0.65703,0.23412 1.14036,0.71745 z m -0.37005,3.12656 q 0,-1.39713 -0.67213,-2.08437 -0.67214,-0.69479 -1.77474,-0.69479 -0.65703,0 -1.2612,0.21145 -0.60417,0.20391 -1.14792,0.55131 -0.0151,0.1888 -0.0302,0.44557 -0.008,0.24922 -0.008,0.46068 0,1.31406 0.21901,2.12968 0.21901,0.81563 0.61927,1.29896 0.3474,0.40781 0.75521,0.58151 0.40781,0.16615 0.87604,0.16615 1.14037,0 1.78229,-0.82318 0.64193,-0.82318 0.64193,-2.24297 z"
     style=""
     id="path837" /><path
     d="m -266.64283,672.14996 h -10.45208 v -8.43567 h 1.41979 v 7.21224 h 3.2474 v -7.21224 h 1.41979 v 7.21224 h 3.24739 v -7.21224 h 1.4198 v 7.21224 h 1.01953 v 3.24739 h -1.32162 z"
     style=""
     id="path839" /><path
     d="m -256.28892,668.07939 h -6.21537 q 0,0.77786 0.23412,1.35938 0.23411,0.57395 0.64193,0.94401 0.3927,0.3625 0.9289,0.54375 0.54375,0.18125 1.19323,0.18125 0.86094,0 1.72943,-0.33985 0.87604,-0.34739 1.24609,-0.67969 h 0.0755 v 1.54818 q -0.71744,0.30209 -1.4651,0.50599 -0.74766,0.20391 -1.57083,0.20391 -2.09948,0 -3.27761,-1.13281 -1.17812,-1.14037 -1.17812,-3.2323 0,-2.06927 1.12526,-3.28515 1.13281,-1.21589 2.97552,-1.21589 1.70677,0 2.62812,0.99688 0.92891,0.99687 0.92891,2.83203 z m -1.38203,-1.0875 q -0.008,-1.11771 -0.56641,-1.72943 -0.5513,-0.61172 -1.68411,-0.61172 -1.14037,0 -1.82006,0.67214 -0.67213,0.67214 -0.76276,1.66901 z"
     style=""
     id="path841" /><path
     d="m -247.07538,672.14996 h -1.41979 v -3.79869 h -4.22162 v 3.79869 h -1.41979 v -8.43567 h 1.41979 v 3.41354 h 4.22162 v -3.41354 h 1.41979 z"
     style=""
     id="path843" /><path
     d="m -237.18215,672.14996 h -1.40469 v -6.33619 l -4.41797,6.33619 h -1.28385 v -8.43567 h 1.40468 v 6.24557 l 4.37266,-6.24557 h 1.32917 z"
     style=""
     id="path845" /><path
     d="m -227.31913,668.07939 h -6.21537 q 0,0.77786 0.23412,1.35938 0.23411,0.57395 0.64192,0.94401 0.39271,0.3625 0.92891,0.54375 0.54375,0.18125 1.19323,0.18125 0.86094,0 1.72943,-0.33985 0.87604,-0.34739 1.24609,-0.67969 h 0.0755 v 1.54818 q -0.71745,0.30209 -1.4651,0.50599 -0.74766,0.20391 -1.57084,0.20391 -2.09948,0 -3.2776,-1.13281 -1.17813,-1.14037 -1.17813,-3.2323 0,-2.06927 1.12526,-3.28515 1.13282,-1.21589 2.97553,-1.21589 1.70677,0 2.62812,0.99688 0.92891,0.99687 0.92891,2.83203 z m -1.38203,-1.0875 q -0.008,-1.11771 -0.56641,-1.72943 -0.5513,-0.61172 -1.68412,-0.61172 -1.14036,0 -1.82005,0.67214 -0.67213,0.67214 -0.76276,1.66901 z"
     style=""
     id="path847" /><path
     d="m -213.86132,669.78616 q 0,0.7099 -0.33229,1.20078 -0.32474,0.49089 -0.83828,0.79297 -0.51354,0.29453 -1.13281,0.43047 -0.61927,0.13594 -1.23854,0.13594 -0.87604,0 -1.66901,-0.16615 -0.79297,-0.16614 -1.56328,-0.51354 v -1.55573 h 0.0982 q 0.5513,0.48333 1.40469,0.74766 0.85339,0.26432 1.65391,0.26432 0.3776,0 0.77786,-0.068 0.40026,-0.0755 0.69479,-0.23411 0.31719,-0.18125 0.50599,-0.43047 0.1888,-0.25677 0.1888,-0.69479 0,-0.45313 -0.1888,-0.725 -0.18125,-0.27188 -0.49844,-0.40782 -0.30963,-0.13593 -0.74765,-0.16614 -0.43802,-0.0302 -0.80052,-0.0302 h -1.23099 v -1.22344 h 0.85338 q 0.30209,0 0.78542,-0.0226 0.49089,-0.0227 0.79297,-0.12084 0.39271,-0.12838 0.61927,-0.3625 0.23411,-0.23411 0.23411,-0.74765 0,-0.35495 -0.18125,-0.58151 -0.18125,-0.23412 -0.45312,-0.3625 -0.27943,-0.12839 -0.62682,-0.1737 -0.33985,-0.0453 -0.60417,-0.0453 -0.77031,0 -1.51797,0.21145 -0.7401,0.20391 -1.24609,0.59662 h -0.0982 v -1.56328 q 0.62682,-0.20391 1.34427,-0.33229 0.71745,-0.12839 1.4349,-0.12839 0.58906,0 1.17057,0.10573 0.58906,0.10573 1.09505,0.3625 0.49844,0.25677 0.81563,0.70234 0.31718,0.43802 0.31718,1.0875 0,0.66459 -0.41536,1.17058 -0.40781,0.49843 -1.1026,0.71744 v 0.0529 q 0.77786,0.1888 1.23854,0.70989 0.46067,0.51355 0.46067,1.36693 z"
     style=""
     id="path849" /><path
     d="m -205.04804,672.14996 h -1.41224 v -0.89869 q -0.1888,0.12838 -0.51354,0.3625 -0.31719,0.22656 -0.61927,0.3625 -0.35495,0.17369 -0.81563,0.28697 -0.46067,0.12084 -1.07994,0.12084 -1.14037,0 -1.93334,-0.75521 -0.79297,-0.75521 -0.79297,-1.92578 0,-0.95912 0.40782,-1.54818 0.41536,-0.59661 1.17812,-0.93646 0.77031,-0.33984 1.85026,-0.46067 1.07995,-0.12084 2.31849,-0.18125 v -0.21901 q 0,-0.48334 -0.1737,-0.80053 -0.16614,-0.31718 -0.48333,-0.49843 -0.30208,-0.1737 -0.725,-0.23412 -0.42292,-0.0604 -0.88359,-0.0604 -0.55886,0 -1.2461,0.15104 -0.68724,0.14349 -1.41979,0.42291 h -0.0755 v -1.44244 q 0.41537,-0.11329 1.20078,-0.24922 0.78542,-0.13594 1.54818,-0.13594 0.89114,0 1.54818,0.15104 0.66458,0.14349 1.14791,0.49844 0.47578,0.34739 0.725,0.8987 0.24922,0.5513 0.24922,1.36692 z m -1.41224,-2.07682 v -2.3487 q -0.64948,0.0378 -1.53307,0.11328 -0.87604,0.0755 -1.38958,0.21901 -0.61172,0.1737 -0.98933,0.54375 -0.3776,0.3625 -0.3776,1.00443 0,0.725 0.43802,1.09505 0.43802,0.3625 1.33672,0.3625 0.74765,0 1.36693,-0.28698 0.61927,-0.29453 1.14791,-0.70234 z"
     style=""
     id="path851" /><path
     d="m -301.97903,691.63286 h -1.41979 v -3.7987 h -4.22161 v 3.7987 h -1.4198 v -8.43568 h 1.4198 v 3.41354 h 4.22161 v -3.41354 h 1.41979 z"
     style=""
     id="path853" /><path
     d="m -292.6371,691.63286 h -1.41224 v -0.8987 q -0.1888,0.12838 -0.51354,0.3625 -0.31719,0.22656 -0.61927,0.3625 -0.35495,0.1737 -0.81563,0.28698 -0.46067,0.12083 -1.07995,0.12083 -1.14036,0 -1.93333,-0.75521 -0.79297,-0.75521 -0.79297,-1.92578 0,-0.95911 0.40781,-1.54818 0.41537,-0.59661 1.17813,-0.93646 0.77031,-0.33984 1.85026,-0.46067 1.07995,-0.12084 2.31849,-0.18125 v -0.21901 q 0,-0.48334 -0.1737,-0.80052 -0.16614,-0.31719 -0.48333,-0.49844 -0.30208,-0.1737 -0.725,-0.23412 -0.42292,-0.0604 -0.8836,-0.0604 -0.55885,0 -1.24609,0.15104 -0.68724,0.14349 -1.41979,0.42292 h -0.0755 v -1.44245 q 0.41536,-0.11328 1.20078,-0.24922 0.78542,-0.13594 1.54818,-0.13594 0.89114,0 1.54817,0.15104 0.66459,0.14349 1.14792,0.49844 0.47578,0.3474 0.725,0.8987 0.24922,0.5513 0.24922,1.36693 z m -1.41224,-2.07683 v -2.3487 q -0.64948,0.0378 -1.53307,0.11329 -0.87604,0.0755 -1.38959,0.21901 -0.61172,0.17369 -0.98932,0.54375 -0.3776,0.3625 -0.3776,1.00442 0,0.725 0.43802,1.09506 0.43802,0.3625 1.33672,0.3625 0.74765,0 1.36692,-0.28698 0.61927,-0.29454 1.14792,-0.70235 z"
     style=""
     id="path855" /><path
     d="m -283.68788,684.44327 q 0.52865,0.52865 0.80052,1.28386 0.27188,0.74765 0.27188,1.75963 0,1.88802 -1.13282,3.13412 -1.13281,1.24609 -2.78672,1.24609 -0.81562,0 -1.50286,-0.27188 -0.68724,-0.27942 -1.17057,-0.85338 -0.60417,-0.71745 -0.90625,-1.80495 -0.29454,-1.09505 -0.29454,-2.66588 0,-0.56641 0.0529,-1.14792 0.0529,-0.58906 0.24167,-1.40469 0.15104,-0.70234 0.43802,-1.35182 0.29453,-0.64948 0.69479,-1.04974 0.54375,-0.5513 1.42734,-0.88359 0.89115,-0.33985 2.35625,-0.46823 0.59662,-0.0529 1.11016,-0.0831 0.51354,-0.0378 0.92135,-0.068 v 1.30651 q -0.49843,0.0302 -0.98932,0.0604 -0.48333,0.0302 -0.96667,0.0755 -0.96666,0.0831 -1.75208,0.31719 -0.77786,0.23411 -1.14036,0.60417 -0.40027,0.40026 -0.60417,1.04974 -0.19636,0.64192 -0.25677,1.22343 0.5664,-0.40781 1.23854,-0.67968 0.67969,-0.27943 1.44245,-0.27943 0.70989,0 1.36692,0.23411 0.65704,0.23412 1.14037,0.71745 z m -0.37005,3.12656 q 0,-1.39713 -0.67214,-2.08437 -0.67213,-0.69479 -1.77474,-0.69479 -0.65703,0 -1.2612,0.21146 -0.60416,0.2039 -1.14791,0.5513 -0.0151,0.1888 -0.0302,0.44557 -0.008,0.24922 -0.008,0.46068 0,1.31406 0.21901,2.12969 0.21901,0.81562 0.61927,1.29895 0.34739,0.40782 0.75521,0.58151 0.40781,0.16615 0.87604,0.16615 1.14036,0 1.78229,-0.82318 0.64193,-0.82317 0.64193,-2.24297 z"
     style=""
     id="path857" /><path
     d="m -273.56809,691.63286 h -1.41979 v -7.24245 h -3.14922 q -0.0227,0.62682 -0.0453,1.20833 -0.0227,0.58151 -0.0453,1.04974 -0.0529,1.2612 -0.1737,2.01641 -0.12084,0.74765 -0.31719,1.24609 -0.18125,0.46823 -0.40781,0.76276 -0.21901,0.28698 -0.47578,0.52109 -0.25677,0.22657 -0.57396,0.33985 -0.30964,0.11328 -0.67969,0.11328 -0.12839,0 -0.3776,-0.008 -0.24167,-0.008 -0.31719,-0.008 v -1.23855 h 0.0755 q 0.0604,0 0.1737,0.008 0.11328,0.008 0.1888,0.008 0.18125,0 0.37005,-0.0529 0.19636,-0.0529 0.33229,-0.19635 0.38516,-0.37761 0.61927,-1.2763 0.23412,-0.8987 0.30964,-2.59792 0.0302,-0.61927 0.0529,-1.4651 0.0302,-0.85339 0.0529,-1.6237 h 5.80755 z"
     style=""
     id="path859" /><path
     d="m -261.45455,687.41879 q 0,-1.6237 -0.62682,-2.42422 -0.62682,-0.80807 -1.73698,-0.80807 -1.15547,0 -1.76719,0.84583 -0.60416,0.83829 -0.60416,2.38646 0,1.60104 0.63437,2.41667 0.63438,0.80807 1.73698,0.80807 1.10261,0 1.72943,-0.80052 0.63437,-0.80807 0.63437,-2.42422 z m -6.13984,0.39271 h -1.75208 v 3.82136 h -1.4198 v -8.43568 h 1.4198 v 3.42109 h 1.78984 q 0.1888,-1.74453 1.21589,-2.69609 1.03463,-0.95912 2.5375,-0.95912 1.74453,0 2.77916,1.19323 1.03464,1.19323 1.03464,3.2625 0,2.04662 -1.01953,3.2474 -1.01953,1.20078 -2.79427,1.20078 -1.67657,0 -2.68855,-1.0875 -1.00442,-1.0875 -1.1026,-2.96797 z"
     style=""
     id="path861" /><path
     d="m -250.11887,693.65681 h -1.32162 v -2.04661 h -6.34375 v 2.04661 h -1.32161 v -3.23229 h 0.9138 q 0.8836,-1.45755 1.31406,-3.36068 0.43803,-1.91067 0.43803,-3.86666 h 5.30156 v 7.22734 h 1.01953 z m -2.43932,-3.23229 v -6.03411 h -2.54506 q -0.0982,1.89557 -0.58151,3.45885 -0.48333,1.56328 -1.11015,2.57526 z"
     style=""
     id="path863" /><path
     d="m -241.10923,687.56228 h -6.21537 q 0,0.77787 0.23412,1.35938 0.23411,0.57396 0.64192,0.94401 0.39271,0.3625 0.92891,0.54375 0.54375,0.18125 1.19323,0.18125 0.86094,0 1.72942,-0.33985 0.87605,-0.34739 1.2461,-0.67968 h 0.0755 v 1.54817 q -0.71745,0.30209 -1.4651,0.50599 -0.74766,0.20391 -1.57084,0.20391 -2.09948,0 -3.2776,-1.13281 -1.17813,-1.14037 -1.17813,-3.2323 0,-2.06927 1.12526,-3.28515 1.13282,-1.21589 2.97552,-1.21589 1.70677,0 2.62813,0.99688 0.92891,0.99687 0.92891,2.83203 z m -1.38204,-1.0875 q -0.008,-1.11771 -0.5664,-1.72943 -0.5513,-0.61171 -1.68412,-0.61171 -1.14036,0 -1.82005,0.67213 -0.67213,0.67214 -0.76276,1.66901 z"
     style=""
     id="path865" /><path
     d="m -231.89569,691.63286 h -1.41979 v -3.7987 h -4.22162 v 3.7987 h -1.41979 v -8.43568 h 1.41979 v 3.41354 h 4.22162 v -3.41354 h 1.41979 z"
     style=""
     id="path867" /><path
     d="m -222.00246,691.63286 h -1.40469 v -6.3362 l -4.41797,6.3362 h -1.28385 v -8.43568 h 1.40468 v 6.24557 l 4.37266,-6.24557 h 1.32917 z"
     style=""
     id="path869" /><path
     d="m -212.13944,687.56228 h -6.21537 q 0,0.77787 0.23412,1.35938 0.23411,0.57396 0.64192,0.94401 0.39271,0.3625 0.92891,0.54375 0.54375,0.18125 1.19323,0.18125 0.86094,0 1.72943,-0.33985 0.87604,-0.34739 1.24609,-0.67968 h 0.0755 v 1.54817 q -0.71745,0.30209 -1.4651,0.50599 -0.74766,0.20391 -1.57084,0.20391 -2.09948,0 -3.2776,-1.13281 -1.17813,-1.14037 -1.17813,-3.2323 0,-2.06927 1.12526,-3.28515 1.13282,-1.21589 2.97553,-1.21589 1.70677,0 2.62812,0.99688 0.92891,0.99687 0.92891,2.83203 z m -1.38203,-1.0875 q -0.008,-1.11771 -0.56641,-1.72943 -0.5513,-0.61171 -1.68412,-0.61171 -1.14036,0 -1.82005,0.67213 -0.67213,0.67214 -0.76276,1.66901 z"
     style=""
     id="path871" /></g>




</svg>