<?xml version="1.0" encoding="UTF-8" standalone="no"?>
<!-- Generator: Adobe Illustrator 19.1.0, SVG Export Plug-In . SVG Version: 6.00 Build 0)  -->

<svg
   xmlns:dc="http://purl.org/dc/elements/1.1/"
   xmlns:cc="http://creativecommons.org/ns#"
   xmlns:rdf="http://www.w3.org/1999/02/22-rdf-syntax-ns#"
   xmlns:svg="http://www.w3.org/2000/svg"
   xmlns="http://www.w3.org/2000/svg"
   xmlns:sodipodi="http://sodipodi.sourceforge.net/DTD/sodipodi-0.dtd"
   xmlns:inkscape="http://www.inkscape.org/namespaces/inkscape"
   version="1.1"
   id="Calque_1"
   x="0px"
   y="0px"
   viewBox="-330 571.3 138.7 138.7"
   style="enable-background:new -330 571.3 138.7 138.7;"
   xml:space="preserve"
   sodipodi:docname="main_menu_logo_invasive_species-sr.svg"
   inkscape:version="0.92.4 (5da689c313, 2019-01-14)"><metadata
   id="metadata93"><rdf:RDF><cc:Work
       rdf:about=""><dc:format>image/svg+xml</dc:format><dc:type
         rdf:resource="http://purl.org/dc/dcmitype/StillImage" /><dc:title /></cc:Work></rdf:RDF></metadata><defs
   id="defs91" /><sodipodi:namedview
   pagecolor="#ffffff"
   bordercolor="#666666"
   borderopacity="1"
   objecttolerance="10"
   gridtolerance="10"
   guidetolerance="10"
   inkscape:pageopacity="0"
   inkscape:pageshadow="2"
   inkscape:window-width="2400"
   inkscape:window-height="1271"
   id="namedview89"
   showgrid="false"
   inkscape:zoom="5"
   inkscape:cx="30.499994"
   inkscape:cy="69.349998"
   inkscape:window-x="2391"
   inkscape:window-y="-9"
   inkscape:window-maximized="1"
   inkscape:current-layer="Calque_1" /><style
   type="text/css"
   id="style2">
	.st0{fill:#559973;}
	.st1{fill:#FFFFFF;}
</style><g
   id="g6"><path
     class="st0"
     d="M-330,640.7c0-38.3,31-69.3,69.3-69.3c38.3,0,69.3,31,69.3,69.3s-31,69.3-69.3,69.3   C-299,710-330,679-330,640.7"
     id="path4" /></g><g
   id="g86"><g
     id="g44"><path
       class="st1"
       d="M-246.8,607.9c-6.1-6.3-16.1-6.5-22.4-0.4c-6.3,6.1-6.5,16.1-0.4,22.4c6.1,6.3,16.1,6.5,22.4,0.4    C-240.9,624.2-240.7,614.2-246.8,607.9"
       id="path42" /></g><g
     id="g48"><path
       class="st1"
       d="M-281.2,629c3.9-3.8,4-10.1,0.2-14c-3.8-3.9-10.1-4-14-0.2c-3.9,3.8-4,10.1-0.2,14    C-291.5,632.7-285.2,632.8-281.2,629"
       id="path46" /></g><g
     id="g52"><path
       class="st1"
       d="M-225.4,616c-2.8-2.9-7.5-3-10.5-0.2c-2.9,2.8-3,7.5-0.2,10.5c2.8,2.9,7.5,3,10.5,0.2    C-222.6,623.6-222.5,618.9-225.4,616"
       id="path50" /></g><g
     id="g56"><path
       class="st1"
       d="M-281.4,632.4c-2.9,2.8-3,7.5-0.2,10.5c2.8,2.9,7.5,3,10.5,0.2c2.9-2.8,3-7.5,0.2-10.5    C-273.8,629.7-278.4,629.6-281.4,632.4"
       id="path54" /></g><g
     id="g60"><path
       class="st1"
       d="M-264,639.8c-1.9,1.9-2,5-0.1,6.9c1.9,1.9,5,2,6.9,0.1c1.9-1.9,2-5,0.1-6.9C-259,637.9-262.1,637.9-264,639.8    "
       id="path58" /></g><g
     id="g64"><path
       class="st1"
       d="M-276.2,605.6c1.9-1.9,2-5,0.1-6.9c-1.9-1.9-5-2-6.9-0.1c-1.9,1.9-2,5-0.1,6.9    C-281.2,607.5-278.1,607.5-276.2,605.6"
       id="path62" /></g><g
     id="g68"><path
       class="st1"
       d="M-250.9,596.6c1.9-1.9,2-5,0.1-6.9c-1.9-1.9-5-2-6.9-0.1c-1.9,1.9-2,5-0.1,6.9S-252.9,598.5-250.9,596.6"
       id="path66" /></g><g
     id="g72"><path
       class="st1"
       d="M-241.2,634.8c-1.9,1.9-2,5-0.1,6.9c1.9,1.9,5,2,6.9,0.1c1.9-1.9,2-5,0.1-6.9    C-236.1,633-239.2,632.9-241.2,634.8"
       id="path70" /></g><g
     id="g76"><path
       class="st1"
       d="M-229.3,640.3c-1,0.9-1,2.5-0.1,3.5c0.9,1,2.5,1,3.5,0.1c1-0.9,1-2.5,0.1-3.5    C-226.7,639.4-228.3,639.3-229.3,640.3"
       id="path74" /></g><g
     id="g80"><path
       class="st1"
       d="M-290.8,638.1c-1,0.9-1,2.5-0.1,3.5c0.9,1,2.5,1,3.5,0.1c1-0.9,1-2.5,0.1-3.5    C-288.2,637.2-289.8,637.1-290.8,638.1"
       id="path78" /></g><g
     id="g84"><path
       class="st1"
       d="M-249.5,601.6c0.9,1,2.5,1,3.5,0.1c1-0.9,1-2.5,0.1-3.5c-0.9-1-2.5-1-3.5-0.1    C-250.4,599.1-250.4,600.6-249.5,601.6"
       id="path82" /></g></g><g
   aria-label="Инвазивне 
врсте"
   style="font-style:normal;font-variant:normal;font-weight:normal;font-stretch:normal;font-size:15.92933273px;line-height:1.25;font-family:KonsensMedium;-inkscape-font-specification:'KonsensMedium, Normal';font-variant-ligatures:normal;font-variant-caps:normal;font-variant-numeric:normal;font-feature-settings:normal;text-align:center;letter-spacing:0px;word-spacing:0px;writing-mode:lr-tb;text-anchor:middle;fill:#ffffff;fill-opacity:1;stroke:none"
   id="text97"><path
     d="m -294.90373,670.15735 h -1.53226 v -9.27915 l -5.75572,9.27915 h -1.5556 v -11.58144 h 1.53227 v 9.13915 l 5.68571,-9.13915 h 1.6256 z"
     style=""
     id="path843" /><path
     d="m -284.64455,670.15735 h -1.46226 v -3.91233 h -4.3479 v 3.91233 h -1.46227 v -8.68802 h 1.46227 v 3.51565 h 4.3479 v -3.51565 h 1.46226 z"
     style=""
     id="path845" /><path
     d="m -274.60316,667.52839 q 0,0.63001 -0.25667,1.12003 -0.2489,0.49001 -0.69225,0.81669 -0.49779,0.36556 -1.08891,0.5289 -0.58335,0.16334 -1.54005,0.16334 h -3.59343 v -8.68802 h 3.36009 q 0.97225,0 1.46227,0.07 0.49779,0.0622 0.93335,0.28779 0.49002,0.25667 0.71558,0.6689 0.23334,0.41224 0.23334,0.97225 0,0.64558 -0.36557,1.12003 -0.36556,0.47446 -0.94113,0.73891 v 0.0778 q 0.77002,0.18668 1.26781,0.72336 0.50557,0.5289 0.50557,1.40004 z m -1.96783,-3.83455 q 0,-0.28001 -0.12445,-0.50557 -0.11667,-0.22557 -0.36557,-0.35001 -0.32667,-0.16334 -0.73891,-0.1789 -0.40445,-0.0233 -1.00336,-0.0233 h -1.52448 v 2.38006 h 1.82782 q 0.57558,0 0.84781,-0.0389 0.28,-0.0467 0.56001,-0.21778 0.29557,-0.18667 0.40446,-0.43557 0.11667,-0.25667 0.11667,-0.63001 z m 0.4589,3.84232 q 0,-0.42779 -0.14001,-0.69224 -0.14,-0.27223 -0.61446,-0.49779 -0.29556,-0.14 -0.63779,-0.16334 -0.34223,-0.0311 -0.94892,-0.0311 h -1.87449 v 2.83897 h 1.38448 q 0.87113,0 1.33781,-0.0544 0.47446,-0.0622 0.81669,-0.25667 0.34223,-0.19445 0.50557,-0.47446 0.17112,-0.28001 0.17112,-0.66891 z"
     style=""
     id="path847" /><path
     d="m -265.53402,670.15735 h -1.45448 v -0.92558 q -0.19445,0.13222 -0.52891,0.37334 -0.32667,0.23334 -0.63779,0.37334 -0.36557,0.1789 -0.84003,0.29557 -0.47445,0.12445 -1.11225,0.12445 -1.17448,0 -1.99117,-0.7778 -0.81669,-0.7778 -0.81669,-1.98339 0,-0.98781 0.42002,-1.59449 0.42779,-0.61446 1.21336,-0.96447 0.79336,-0.35001 1.90561,-0.47446 1.11225,-0.12445 2.38785,-0.18667 v -0.22556 q 0,-0.49779 -0.1789,-0.82447 -0.17111,-0.32668 -0.49779,-0.51335 -0.31112,-0.17889 -0.74669,-0.24112 -0.43556,-0.0622 -0.91002,-0.0622 -0.57557,0 -1.28337,0.15556 -0.7078,0.14778 -1.46226,0.43557 h -0.0778 v -1.4856 q 0.42779,-0.11667 1.2367,-0.25667 0.80891,-0.14001 1.59449,-0.14001 0.9178,0 1.59448,0.15556 0.68447,0.14778 1.18226,0.51335 0.49001,0.35779 0.74669,0.92558 0.25667,0.5678 0.25667,1.40782 z m -1.45448,-2.13895 v -2.41896 q -0.66891,0.0389 -1.57894,0.11667 -0.90224,0.0778 -1.43115,0.22557 -0.63002,0.17889 -1.01892,0.56001 -0.3889,0.37334 -0.3889,1.03447 0,0.74669 0.45113,1.12781 0.45112,0.37335 1.3767,0.37335 0.77003,0 1.40782,-0.29557 0.6378,-0.30334 1.18226,-0.72335 z"
     style=""
     id="path849" /><path
     d="m -256.65933,667.72284 q 0,0.73113 -0.34223,1.2367 -0.33445,0.50557 -0.86335,0.81669 -0.52891,0.30334 -1.1667,0.44334 -0.6378,0.14001 -1.2756,0.14001 -0.90224,0 -1.71893,-0.17112 -0.81669,-0.17112 -1.61005,-0.5289 v -1.60227 h 0.10112 q 0.56779,0.49779 1.4467,0.77002 0.87892,0.27223 1.70338,0.27223 0.3889,0 0.80114,-0.07 0.41223,-0.0778 0.71557,-0.24112 0.32668,-0.18667 0.52113,-0.44334 0.19445,-0.26446 0.19445,-0.71558 0,-0.46668 -0.19445,-0.74669 -0.18667,-0.28 -0.51335,-0.42001 -0.3189,-0.14 -0.77002,-0.17111 -0.45112,-0.0311 -0.82447,-0.0311 h -1.26781 v -1.26003 h 0.87891 q 0.31112,0 0.80891,-0.0233 0.50557,-0.0233 0.81669,-0.12444 0.40446,-0.13223 0.6378,-0.37335 0.24112,-0.24112 0.24112,-0.77002 0,-0.36556 -0.18667,-0.5989 -0.18668,-0.24112 -0.46668,-0.37335 -0.28779,-0.13222 -0.64558,-0.17889 -0.35001,-0.0467 -0.62224,-0.0467 -0.79335,0 -1.56337,0.21778 -0.76225,0.21001 -1.28337,0.61447 h -0.10112 v -1.61005 q 0.64558,-0.21001 1.38449,-0.34223 0.73891,-0.13223 1.47781,-0.13223 0.60669,0 1.20559,0.10889 0.60669,0.1089 1.12781,0.37335 0.51335,0.26445 0.84003,0.72335 0.32667,0.45113 0.32667,1.12003 0,0.68447 -0.42779,1.20559 -0.42001,0.51335 -1.13558,0.73891 v 0.0544 q 0.80113,0.19445 1.27559,0.73113 0.47445,0.5289 0.47445,1.40782 z"
     style=""
     id="path851" /><path
     d="m -247.01461,670.15735 h -1.44671 v -6.52574 l -4.55013,6.52574 h -1.32226 v -8.68802 h 1.44671 v 6.4324 l 4.50346,-6.4324 h 1.36893 z"
     style=""
     id="path853" /><path
     d="m -236.95767,667.52839 q 0,0.63001 -0.25667,1.12003 -0.2489,0.49001 -0.69224,0.81669 -0.49779,0.36556 -1.08892,0.5289 -0.58335,0.16334 -1.54005,0.16334 h -3.59343 v -8.68802 h 3.36009 q 0.97225,0 1.46227,0.07 0.49779,0.0622 0.93336,0.28779 0.49001,0.25667 0.71557,0.6689 0.23334,0.41224 0.23334,0.97225 0,0.64558 -0.36556,1.12003 -0.36557,0.47446 -0.94114,0.73891 v 0.0778 q 0.77002,0.18668 1.26781,0.72336 0.50557,0.5289 0.50557,1.40004 z m -1.96783,-3.83455 q 0,-0.28001 -0.12445,-0.50557 -0.11667,-0.22557 -0.36556,-0.35001 -0.32668,-0.16334 -0.73891,-0.1789 -0.40446,-0.0233 -1.00336,-0.0233 h -1.52449 v 2.38006 h 1.82783 q 0.57557,0 0.8478,-0.0389 0.28001,-0.0467 0.56001,-0.21778 0.29557,-0.18667 0.40446,-0.43557 0.11667,-0.25667 0.11667,-0.63001 z m 0.4589,3.84232 q 0,-0.42779 -0.14,-0.69224 -0.14001,-0.27223 -0.61446,-0.49779 -0.29557,-0.14 -0.6378,-0.16334 -0.34223,-0.0311 -0.94892,-0.0311 h -1.87449 v 2.83897 h 1.38448 q 0.87114,0 1.33782,-0.0544 0.47445,-0.0622 0.81669,-0.25667 0.34223,-0.19445 0.50557,-0.47446 0.17111,-0.28001 0.17111,-0.66891 z"
     style=""
     id="path855" /><path
     d="m -227.3674,670.15735 h -1.46226 v -3.91233 h -4.3479 v 3.91233 h -1.46226 v -8.68802 h 1.46226 v 3.51565 h 4.3479 v -3.51565 h 1.46226 z"
     style=""
     id="path857" /><path
     d="m -217.2249,665.96501 h -6.40129 q 0,0.80113 0.24112,1.40004 0.24112,0.59113 0.66113,0.97225 0.40446,0.37334 0.95669,0.56001 0.56002,0.18668 1.22893,0.18668 0.88669,0 1.78116,-0.35001 0.90225,-0.35779 1.28337,-0.70002 h 0.0778 v 1.59449 q -0.73891,0.31111 -1.50893,0.52112 -0.77003,0.21001 -1.61783,0.21001 -2.16228,0 -3.37565,-1.1667 -1.21336,-1.17448 -1.21336,-3.32898 0,-2.13117 1.15892,-3.38343 1.1667,-1.25226 3.06453,-1.25226 1.75782,0 2.70674,1.0267 0.95669,1.02669 0.95669,2.91674 z m -1.42337,-1.12003 q -0.008,-1.15114 -0.58335,-1.78116 -0.56779,-0.63002 -1.73449,-0.63002 -1.17448,0 -1.8745,0.69224 -0.69224,0.69224 -0.78558,1.71894 z"
     style=""
     id="path859" /><path
     d="m -274.92984,687.59408 q 0,0.63002 -0.25667,1.12004 -0.2489,0.49001 -0.69224,0.81668 -0.49779,0.36557 -1.08892,0.52891 -0.58335,0.16334 -1.54004,0.16334 h -3.59344 v -8.68802 h 3.3601 q 0.97225,0 1.46226,0.07 0.49779,0.0622 0.93336,0.28778 0.49001,0.25668 0.71557,0.66891 0.23334,0.41224 0.23334,0.97225 0,0.64557 -0.36556,1.12003 -0.36557,0.47446 -0.94114,0.73891 v 0.0778 q 0.77002,0.18667 1.26781,0.72336 0.50557,0.5289 0.50557,1.40003 z m -1.96783,-3.83455 q 0,-0.28001 -0.12445,-0.50557 -0.11667,-0.22556 -0.36556,-0.35001 -0.32668,-0.16333 -0.73891,-0.17889 -0.40446,-0.0233 -1.00336,-0.0233 h -1.52449 v 2.38006 h 1.82783 q 0.57557,0 0.8478,-0.0389 0.28001,-0.0467 0.56002,-0.21778 0.29556,-0.18667 0.40445,-0.43557 0.11667,-0.25667 0.11667,-0.63002 z m 0.4589,3.84233 q 0,-0.42779 -0.14,-0.69224 -0.14,-0.27223 -0.61446,-0.49779 -0.29557,-0.14001 -0.6378,-0.16334 -0.34223,-0.0311 -0.94891,-0.0311 h -1.8745 v 2.83897 h 1.38448 q 0.87114,0 1.33782,-0.0544 0.47446,-0.0622 0.81669,-0.25667 0.34223,-0.19445 0.50557,-0.47446 0.17111,-0.28001 0.17111,-0.66891 z"
     style=""
     id="path861" /><path
     d="m -264.96623,685.77403 q 0,1.05781 -0.30334,1.93672 -0.30334,0.87114 -0.85558,1.47782 -0.51334,0.57557 -1.21336,0.89447 -0.69225,0.31112 -1.47004,0.31112 -0.67669,0 -1.22893,-0.14778 -0.54446,-0.14778 -1.11225,-0.4589 v 3.6401 h -1.46226 v -11.89255 h 1.46226 v 0.91002 q 0.58335,-0.49001 1.3067,-0.81669 0.73113,-0.33445 1.5556,-0.33445 1.57116,0 2.44229,1.19003 0.87891,1.18226 0.87891,3.29009 z m -1.50893,0.0389 q 0,-1.57115 -0.53668,-2.34895 -0.53668,-0.7778 -1.64893,-0.7778 -0.63002,0 -1.26782,0.27223 -0.63779,0.27223 -1.22114,0.71557 v 4.92348 q 0.62224,0.28 1.06558,0.38112 0.45113,0.10111 1.01892,0.10111 1.22115,0 1.90561,-0.82447 0.68446,-0.82446 0.68446,-2.44229 z"
     style=""
     id="path863" /><path
     d="m -256.18487,689.67859 q -0.89447,0.42001 -1.54004,0.57557 -0.6378,0.16334 -1.27559,0.16334 -0.94892,0 -1.74227,-0.27223 -0.79336,-0.28001 -1.36115,-0.84003 -0.5678,-0.56001 -0.8867,-1.41559 -0.31111,-0.85558 -0.31111,-1.99895 0,-2.07672 1.15114,-3.31342 1.15114,-1.24448 3.15009,-1.24448 0.75446,0 1.47782,0.21 0.73113,0.21001 1.33781,0.51335 v 1.6256 h -0.0856 q -0.72335,-0.55223 -1.43115,-0.81669 -0.70002,-0.26445 -1.36115,-0.26445 -1.29892,0 -2.0145,0.87114 -0.7078,0.87113 -0.7078,2.41895 0,1.54782 0.7078,2.4034 0.7078,0.85558 2.0145,0.85558 0.4589,0 0.91003,-0.11667 0.4589,-0.11667 0.83224,-0.30334 0.29557,-0.14778 0.60669,-0.35001 0.31889,-0.21 0.44334,-0.31112 h 0.0856 z"
     style=""
     id="path865" /><path
     d="m -247.77686,682.8184 h -3.14231 v 7.40465 h -1.46226 v -7.40465 h -3.14231 v -1.28337 h 7.74688 z"
     style=""
     id="path867" /><path
     d="m -238.98772,686.03071 h -6.40129 q 0,0.80113 0.24112,1.40004 0.24111,0.59112 0.66113,0.97225 0.40445,0.37334 0.95669,0.56001 0.56001,0.18667 1.22892,0.18667 0.88669,0 1.78116,-0.35001 0.90225,-0.35778 1.28337,-0.70002 h 0.0778 v 1.59449 q -0.73891,0.31112 -1.50893,0.52113 -0.77002,0.21 -1.61782,0.21 -2.16228,0 -3.37565,-1.1667 -1.21337,-1.17447 -1.21337,-3.32898 0,-2.13117 1.15892,-3.38342 1.1667,-1.25226 3.06453,-1.25226 1.75783,0 2.70674,1.02669 0.9567,1.0267 0.9567,2.91675 z m -1.42338,-1.12003 q -0.008,-1.15115 -0.58335,-1.78116 -0.56779,-0.63002 -1.73449,-0.63002 -1.17448,0 -1.87449,0.69224 -0.69225,0.69224 -0.78558,1.71894 z"
     style=""
     id="path869" /></g>



</svg>