<?xml version="1.0" encoding="UTF-8" standalone="no"?>
<!-- Generator: Adobe Illustrator 19.1.0, SVG Export Plug-In . SVG Version: 6.00 Build 0)  -->

<svg
   xmlns:dc="http://purl.org/dc/elements/1.1/"
   xmlns:cc="http://creativecommons.org/ns#"
   xmlns:rdf="http://www.w3.org/1999/02/22-rdf-syntax-ns#"
   xmlns:svg="http://www.w3.org/2000/svg"
   xmlns="http://www.w3.org/2000/svg"
   xmlns:sodipodi="http://sodipodi.sourceforge.net/DTD/sodipodi-0.dtd"
   xmlns:inkscape="http://www.inkscape.org/namespaces/inkscape"
   version="1.1"
   id="Calque_1"
   x="0px"
   y="0px"
   viewBox="-33.6 228.6 138.2 138.2"
   xml:space="preserve"
   sodipodi:docname="main_menu_logo_map-el.svg"
   inkscape:version="0.92.4 (5da689c313, 2019-01-14)"
   width="138.2"
   height="138.2"><metadata
     id="metadata105"><rdf:RDF><cc:Work
         rdf:about=""><dc:format>image/svg+xml</dc:format><dc:type
           rdf:resource="http://purl.org/dc/dcmitype/StillImage" /><dc:title></dc:title></cc:Work></rdf:RDF></metadata><defs
     id="defs103" /><sodipodi:namedview
     pagecolor="#ffffff"
     bordercolor="#666666"
     borderopacity="1"
     objecttolerance="10"
     gridtolerance="10"
     guidetolerance="10"
     inkscape:pageopacity="0"
     inkscape:pageshadow="2"
     inkscape:window-width="1920"
     inkscape:window-height="1017"
     id="namedview101"
     showgrid="false"
     inkscape:zoom="4"
     inkscape:cx="33.47555"
     inkscape:cy="43.725374"
     inkscape:window-x="1912"
     inkscape:window-y="-8"
     inkscape:window-maximized="1"
     inkscape:current-layer="g96"
     fit-margin-top="0"
     fit-margin-left="0"
     fit-margin-right="0"
     fit-margin-bottom="0" /><style
     type="text/css"
     id="style2">
	.st0{fill:#D3D501;}
	.st1{fill:#FFFFFF;}
	.st2{fill:#7A9C2B;}
	.st3{fill:#E8E493;}
	.st4{fill:#40637D;}
	.st5{fill:#5E9EB5;}
	.st6{fill:#D0A82B;}
	.st7{fill:#559973;}
	.st8{fill:#00662C;}
</style><g
     id="g36"
     transform="translate(-0.20000144,-0.39997711)"><g
       id="g30"><path
         class="st1"
         d="m 24.1,315.9 c 0,0.4 0.2,0.8 0.6,1 0.4,0.2 0.8,0.2 1.2,-0.1 l 7.7,-5.3 -9.5,-4.5 z"
         id="path28"
         inkscape:connector-curvature="0"
         style="fill:#ffffff" /></g><g
       id="g34"><path
         class="st1"
         d="m 70,256.5 c -0.2,-0.2 -0.5,-0.3 -0.8,-0.3 -0.2,0 -0.3,0 -0.5,0.1 L 2.1,289 c -0.7,0.3 -1.1,1 -1.1,1.8 0,0.8 0.4,1.5 1.1,1.8 L 19.7,301 54.8,272.1 24,303 45.9,313.4 c 0.3,0.1 0.6,0.2 0.9,0.2 0.2,0 0.5,0 0.7,-0.1 0.5,-0.2 0.9,-0.6 1.1,-1.1 l 21.7,-54.6 c 0.2,-0.5 0.1,-1 -0.3,-1.3"
         id="path32"
         inkscape:connector-curvature="0"
         style="fill:#ffffff" /></g></g><path
     style="fill:#5e9eb5"
     d="m 104.6,297.70001 a 69.099998,69.099998 0 0 1 -69.1,69.1 69.099998,69.099998 0 0 1 -69.099998,-69.1 69.099998,69.099998 0 0 1 69.099998,-69.1 69.099998,69.099998 0 0 1 69.1,69.1 z"
     id="circle38" /><g
     id="g54"
     transform="translate(2.0902517,-0.39997711)"><path
       class="st1"
       d="M 30.5,268.5 H 10.7 c -0.8,0 -1.5,0.5 -1.7,1.3 l -3.8,13.1 26.6,2.9 2.1,-10 c -1.3,-2.3 -2.5,-4.8 -3.4,-7.3 z"
       id="path40"
       inkscape:connector-curvature="0"
       style="fill:#ffffff" /><path
       class="st1"
       d="m 55.4,288.4 8,0.9 L 61,281 c -0.3,0.5 -0.6,0.9 -1,1.4 -1.6,2.3 -3.2,4.3 -4.6,6 z"
       id="path42"
       inkscape:connector-curvature="0"
       style="fill:#ffffff" /><g
       id="g52"><path
         class="st1"
         d="m 38,282.3 -0.9,4.1 4.3,0.5 c -1,-1.4 -2.1,-2.9 -3.4,-4.6 0.1,0.1 0.1,0 0,0 z"
         id="path44"
         inkscape:connector-curvature="0"
         style="fill:#ffffff" /><path
         class="st1"
         d="m 0.1,300.6 c -0.2,0.5 0,1.1 0.3,1.6 0.3,0.4 0.9,0.7 1.4,0.7 h 26.4 l 2.5,-11.8 -27,-3 z"
         id="path46"
         inkscape:connector-curvature="0"
         style="fill:#ffffff" /><path
         class="st1"
         d="m 65,294.8 -28.9,-3.2 -2.3,11.2 H 65 c 1,0 1.8,-0.8 1.8,-1.8 0,-0.2 0,-0.4 -0.1,-0.6 z"
         id="path48"
         inkscape:connector-curvature="0"
         style="fill:#ffffff" /><path
         class="st1"
         d="m 48.3,290.7 c 0.2,0.2 0.5,0.3 0.7,0.3 0.3,0 0.5,-0.1 0.7,-0.3 1.6,-1.7 4.8,-5.3 8,-9.8 4,-5.7 8.9,-14.1 8.9,-21.5 0,-9.7 -7.9,-17.7 -17.7,-17.7 -9.7,0 -17.7,7.9 -17.7,17.7 0,7.5 4.8,15.8 8.9,21.5 3.4,4.5 6.6,8 8.2,9.8 z m 0.8,-42.4 c 5.9,0 10.8,4.8 10.8,10.8 0,5.9 -4.8,10.8 -10.8,10.8 -5.9,0 -10.8,-4.8 -10.8,-10.8 0,-6 4.8,-10.8 10.8,-10.8 z"
         id="path50"
         inkscape:connector-curvature="0"
         style="fill:#ffffff" /></g></g><g
     id="g98"
     transform="translate(18.292845,-14.399977)"><g
       id="g96"><g
   aria-label="Χάρτης 
παρατηρήσεων"
   style="font-style:normal;font-variant:normal;font-weight:normal;font-stretch:normal;font-size:15.46666718px;line-height:1.25;font-family:KonsensMedium;-inkscape-font-specification:'KonsensMedium, Normal';font-variant-ligatures:normal;font-variant-caps:normal;font-variant-numeric:normal;font-feature-settings:normal;text-align:center;letter-spacing:0px;word-spacing:0px;writing-mode:lr-tb;text-anchor:middle;fill:#ffffff;fill-opacity:1;stroke:none"
   id="text6172"><path
     d="m -0.37720865,332.85489 -3.88177095,5.55834 3.87421887,5.68672 H -2.1141879 l -3.0661459,-4.62943 -3.1416668,4.62943 h -1.63125 l 3.9195313,-5.61876 -3.8289063,-5.6263 h 1.721875 l 3.0283855,4.56901 3.0963543,-4.56901 z"
     style=""
     id="path859" /><path
     d="M 8.3756564,344.09995 H 6.9558647 v -0.8836 q -0.6117187,0.52865 -1.2763021,0.82318 -0.6645833,0.29453 -1.442448,0.29453 -1.5104167,0 -2.4015625,-1.16302 -0.88359382,-1.16302 -0.88359382,-3.22474 0,-1.0724 0.30208332,-1.91068 0.3096355,-0.83828 0.8307292,-1.42734 0.5135417,-0.57396 1.1932292,-0.87604 0.6872396,-0.30209 1.4197917,-0.30209 0.6645834,0 1.1781251,0.16615 0.5135417,0.16614 1.0799479,0.46068 v -0.39271 H 8.3756564 Z M 6.9558647,342.02312 V 337.22 q -0.5739583,-0.25677 -1.0270833,-0.37006 -0.4531251,-0.12083 -0.989323,-0.12083 -1.1932292,0 -1.8578125,0.83073 -0.6645834,0.83073 -0.6645834,2.35625 0,1.50287 0.5135417,2.28828 0.5135417,0.77787 1.6463542,0.77787 0.6041667,0 1.2234375,-0.26433 0.6192709,-0.27187 1.1554688,-0.69479 z m -1.2083333,-10.58047 -0.3700521,2.9 H 4.2824271 l -0.3700521,-2.9 z"
     style=""
     id="path861" /><path
     d="m 18.623834,339.74239 q 0,1.94844 -1.04974,3.23985 -1.042188,1.28385 -2.71875,1.28385 -0.490886,0 -1.110156,-0.13594 -0.611719,-0.13593 -1.155469,-0.46067 v 3.54192 h -1.419792 v -7.9901 q 0,-0.92891 0.264323,-1.6237 0.271875,-0.70234 0.770313,-1.20078 0.468229,-0.46823 1.170573,-0.71745 0.709895,-0.24922 1.480208,-0.24922 1.835156,0 2.801823,1.11016 0.966667,1.11016 0.966667,3.20208 z m -1.465105,0.0906 q 0,-1.64636 -0.604166,-2.41667 -0.604167,-0.77031 -1.706771,-0.77031 -1.193229,0 -1.729427,0.725 -0.528646,0.725 -0.528646,2.09948 v 3.04349 q 0.551302,0.25677 0.996875,0.37005 0.453125,0.10573 1.019531,0.10573 1.223438,0 1.888021,-0.83828 0.664583,-0.83828 0.664583,-2.31849 z"
     style=""
     id="path863" /><path
     d="m 27.036854,336.91036 h -3.051042 v 7.18959 H 22.56602 v -7.18959 h -3.051041 v -1.24609 h 7.521875 z"
     style=""
     id="path865" /><path
     d="m 35.563156,347.2114 h -1.419792 v -7.91458 q 0,-0.58151 -0.06797,-1.0875 -0.06797,-0.51354 -0.249219,-0.80052 -0.188802,-0.31719 -0.54375,-0.46823 -0.354948,-0.15859 -0.921354,-0.15859 -0.58151,0 -1.215885,0.28698 -0.634375,0.28697 -1.215886,0.73255 v 6.29844 H 28.50951 v -8.43568 h 1.419791 v 0.93646 q 0.664584,-0.55131 1.374479,-0.86094 0.709896,-0.30964 1.457553,-0.30964 1.366927,0 2.084375,0.82318 0.717448,0.82318 0.717448,2.37135 z"
     style=""
     id="path867" /><path
     d="m 44.587897,344.82495 q 0,0.65703 -0.354947,1.29895 -0.354948,0.64193 -0.823178,1.0875 h -1.336718 v -0.10573 q 0.649479,-0.5664 0.936458,-1.02708 0.294531,-0.45312 0.294531,-0.98932 0,-0.40781 -0.226562,-0.7099 -0.226563,-0.29453 -0.566407,-0.29453 h -0.694791 q -0.883594,0 -1.63125,-0.22656 -0.747657,-0.22656 -1.314063,-0.73255 -0.551302,-0.49844 -0.868489,-1.28386 -0.309636,-0.78541 -0.309636,-1.88802 0,-2.03906 1.170573,-3.2625 1.178125,-1.22344 3.134115,-1.22344 0.634375,0 1.238542,0.14349 0.604166,0.13594 1.110156,0.33985 v 1.59349 h -0.09063 q -0.709896,-0.46823 -1.306511,-0.65703 -0.589062,-0.18881 -1.102604,-0.18881 -1.253646,0 -1.971094,0.8987 -0.709896,0.8987 -0.709896,2.35625 0,0.84583 0.211459,1.38203 0.21901,0.5362 0.596614,0.87604 0.377605,0.3323 0.860938,0.48334 0.490885,0.14349 1.057292,0.14349 h 0.755208 q 0.86849,0 1.404688,0.58151 0.536197,0.57396 0.536197,1.40469 z"
     style=""
     id="path869" /><path
     d="m -30.771385,363.58284 h -1.392 q -1.190933,0 -1.886933,-0.6032 -0.696,-0.6032 -0.696,-1.7632 v -4.42347 h -2.582934 v 6.78987 h -1.5776 v -6.78987 h -1.392 v -1.3456 h 9.465601 v 1.36107 h -2.32 v 4.28426 q 0,0.58774 0.262933,0.85067 0.2784,0.24747 0.866133,0.24747 h 1.2528 z"
     style=""
     id="path871" /><path
     d="m -21.893095,363.58284 h -1.419792 v -0.8836 q -0.611719,0.52865 -1.276302,0.82318 -0.664583,0.29453 -1.442448,0.29453 -1.510417,0 -2.401563,-1.16302 -0.883593,-1.16302 -0.883593,-3.22474 0,-1.0724 0.302083,-1.91068 0.309635,-0.83828 0.830729,-1.42734 0.513542,-0.57396 1.193229,-0.87604 0.68724,-0.30209 1.419792,-0.30209 0.664583,0 1.178125,0.16615 0.513542,0.16615 1.079948,0.46068 v -0.39271 h 1.419792 z m -1.419792,-2.07683 v -4.80312 q -0.573958,-0.25677 -1.027083,-0.37005 -0.453125,-0.12084 -0.989323,-0.12084 -1.193229,0 -1.857813,0.83073 -0.664583,0.83073 -0.664583,2.35625 0,1.50287 0.513542,2.28828 0.513541,0.77787 1.646354,0.77787 0.604166,0 1.223437,-0.26432 0.619271,-0.27188 1.155469,-0.6948 z"
     style=""
     id="path873" /><path
     d="m -11.644918,359.22528 q 0,1.94844 -1.04974,3.23985 -1.042187,1.28385 -2.71875,1.28385 -0.490885,0 -1.110156,-0.13593 -0.611719,-0.13594 -1.155469,-0.46068 v 3.54193 h -1.419792 v -7.99011 q 0,-0.92891 0.264323,-1.6237 0.271875,-0.70234 0.770313,-1.20078 0.468229,-0.46823 1.170573,-0.71745 0.709896,-0.24922 1.480208,-0.24922 1.835157,0 2.801823,1.11016 0.966667,1.11016 0.966667,3.20208 z m -1.465104,0.0906 q 0,-1.64635 -0.604167,-2.41667 -0.604167,-0.77031 -1.706771,-0.77031 -1.193229,0 -1.729427,0.725 -0.528646,0.725 -0.528646,2.09948 v 3.04349 q 0.551302,0.25677 0.996875,0.37005 0.453125,0.10573 1.019532,0.10573 1.223437,0 1.88802,-0.83828 0.664584,-0.83828 0.664584,-2.31849 z"
     style=""
     id="path875" /><path
     d="m -2.5899689,363.58284 h -1.4197917 v -0.8836 q -0.6117187,0.52865 -1.2763021,0.82318 -0.6645834,0.29453 -1.442448,0.29453 -1.5104167,0 -2.4015625,-1.16302 -0.8835938,-1.16302 -0.8835938,-3.22474 0,-1.0724 0.3020833,-1.91068 0.3096355,-0.83828 0.8307292,-1.42734 0.5135417,-0.57396 1.1932292,-0.87604 0.6872396,-0.30209 1.4197917,-0.30209 0.6645834,0 1.1781251,0.16615 0.5135417,0.16615 1.0799479,0.46068 v -0.39271 h 1.4197917 z m -1.4197917,-2.07683 v -4.80312 q -0.5739583,-0.25677 -1.0270833,-0.37005 -0.4531251,-0.12084 -0.989323,-0.12084 -1.1932292,0 -1.8578125,0.83073 -0.6645834,0.83073 -0.6645834,2.35625 0,1.50287 0.5135417,2.28828 0.5135417,0.77787 1.6463542,0.77787 0.6041667,0 1.2234375,-0.26432 0.6192709,-0.27188 1.1554688,-0.6948 z"
     style=""
     id="path877" /><path
     d="M 6.4045596,356.39325 H 3.3535178 v 7.18959 H 1.9337261 v -7.18959 h -3.0510418 v -1.24609 h 7.5218753 z"
     style=""
     id="path879" /><path
     d="m 14.930865,366.6943 h -1.419791 v -7.91459 q 0,-0.58151 -0.06797,-1.0875 -0.06797,-0.51354 -0.249219,-0.80052 -0.188802,-0.31719 -0.54375,-0.46823 -0.354948,-0.15859 -0.921354,-0.15859 -0.581511,0 -1.215886,0.28698 -0.6343747,0.28698 -1.2158851,0.73255 v 6.29844 H 7.8772192 v -8.43568 h 1.4197917 v 0.93646 q 0.6645834,-0.5513 1.3744791,-0.86094 0.709896,-0.30964 1.457552,-0.30964 1.366927,0 2.084375,0.82318 0.717448,0.82318 0.717448,2.37136 z"
     style=""
     id="path881" /><path
     d="m 25.118624,359.22528 q 0,1.94844 -1.049739,3.23985 -1.042188,1.28385 -2.718751,1.28385 -0.490885,0 -1.110156,-0.13593 -0.611719,-0.13594 -1.155469,-0.46068 v 3.54193 h -1.419791 v -7.99011 q 0,-0.92891 0.264323,-1.6237 0.271875,-0.70234 0.770312,-1.20078 0.468229,-0.46823 1.170573,-0.71745 0.709896,-0.24922 1.480208,-0.24922 1.835157,0 2.801823,1.11016 0.966667,1.11016 0.966667,3.20208 z m -1.465104,0.0906 q 0,-1.64635 -0.604167,-2.41667 -0.604166,-0.77031 -1.706771,-0.77031 -1.193229,0 -1.729427,0.725 -0.528646,0.725 -0.528646,2.09948 v 3.04349 q 0.551302,0.25677 0.996875,0.37005 0.453125,0.10573 1.019532,0.10573 1.223437,0 1.888021,-0.83828 0.664583,-0.83828 0.664583,-2.31849 z"
     style=""
     id="path883" /><path
     d="m 34.385028,366.6943 h -1.419792 v -7.91459 q 0,-0.58151 -0.06797,-1.0875 -0.06797,-0.51354 -0.249218,-0.80052 -0.188802,-0.31719 -0.54375,-0.46823 -0.354948,-0.15859 -0.921355,-0.15859 -0.58151,0 -1.215885,0.28698 -0.634375,0.28698 -1.215886,0.73255 v 6.29844 h -1.419791 v -8.43568 h 1.419791 v 0.93646 q 0.664584,-0.5513 1.37448,-0.86094 0.709896,-0.30964 1.457552,-0.30964 1.366927,0 2.084375,0.82318 0.717448,0.82318 0.717448,2.37136 z m -2.394011,-15.76876 -0.370052,2.9 h -1.095052 l -0.370052,-2.9 z"
     style=""
     id="path885" /><path
     d="m 44.308471,359.36877 q 0,2.12214 -1.064843,3.28516 -1.057292,1.16302 -2.816928,1.16302 -1.820052,0 -2.862239,-1.19323 -1.042188,-1.19323 -1.042188,-3.25495 0,-2.07682 1.064844,-3.2625 1.064844,-1.19323 2.854688,-1.19323 0.415364,0 0.815625,0.0831 0.40026,0.0831 0.619271,0.15104 h 3.625 v 1.24609 h -2.175 q 0.468229,0.55131 0.725,1.28386 0.25677,0.73255 0.25677,1.69166 z m -1.465104,0 q 0,-1.62369 -0.619271,-2.43177 -0.61927,-0.80807 -1.782291,-0.80807 -1.215886,0 -1.835157,0.84583 -0.619271,0.84584 -0.619271,2.39401 0,1.57839 0.626823,2.40157 0.634375,0.82317 1.8125,0.82317 1.147917,0 1.782292,-0.80807 0.634375,-0.81562 0.634375,-2.41667 z"
     style=""
     id="path887" /><path
     d="m 53.076435,363.0995 q -0.808073,0.3625 -1.585938,0.5211 -0.777865,0.15859 -1.646354,0.15859 -0.596615,0 -1.215886,-0.12083 -0.619271,-0.12084 -1.147916,-0.42292 -0.521094,-0.29453 -0.853386,-0.77031 -0.324739,-0.48333 -0.324739,-1.19323 0,-0.725 0.422916,-1.26875 0.430469,-0.54375 1.344271,-0.83073 v -0.0529 q -0.687239,-0.18125 -1.095052,-0.67969 -0.407812,-0.49844 -0.407812,-1.19323 0,-0.67214 0.354947,-1.11016 0.3625,-0.44557 0.853386,-0.70234 0.483333,-0.24922 1.095052,-0.37005 0.611719,-0.12084 1.208333,-0.12084 0.740105,0 1.359375,0.12839 0.619271,0.12083 1.298959,0.33229 v 1.56328 h -0.09818 q -0.498438,-0.38515 -1.238542,-0.59661 -0.732552,-0.21146 -1.48776,-0.21146 -0.339844,0 -0.634375,0.0453 -0.294532,0.0378 -0.611719,0.1888 -0.264323,0.11328 -0.460677,0.37006 -0.188802,0.24921 -0.188802,0.58151 0,0.46067 0.211458,0.71744 0.211458,0.25677 0.573958,0.37006 0.339844,0.10572 0.732552,0.12083 0.392709,0.008 0.792969,0.008 h 0.838281 v 1.25365 h -1.193229 q -0.468229,0 -0.845833,0.0378 -0.377604,0.0302 -0.694792,0.15859 -0.309635,0.12839 -0.498437,0.40781 -0.18125,0.27943 -0.18125,0.725 0,0.40026 0.196354,0.67969 0.196354,0.27943 0.505989,0.43802 0.279428,0.14349 0.657032,0.21901 0.385156,0.0755 0.808073,0.0755 0.770312,0 1.646354,-0.27187 0.876042,-0.27188 1.412239,-0.74011 h 0.09818 z"
     style=""
     id="path889" /><path
     d="m 65.152218,359.78414 q 0,0.725 -0.18125,1.45755 -0.173698,0.725 -0.558854,1.29141 -0.415365,0.60416 -1.011979,0.94401 -0.589063,0.33229 -1.457553,0.33229 -0.725,0 -1.336718,-0.37005 -0.611719,-0.37761 -0.891146,-0.8836 h -0.04531 q -0.294531,0.51355 -0.853385,0.8836 -0.558854,0.37005 -1.329167,0.37005 -0.853385,0 -1.472656,-0.3474 -0.611719,-0.35494 -0.996875,-0.9289 -0.385156,-0.57396 -0.566406,-1.29141 -0.173698,-0.725 -0.173698,-1.45755 0,-1.28386 0.430468,-2.32604 0.430469,-1.04974 1.517969,-2.31094 h 1.721875 v 0.12838 q -1.019531,0.81563 -1.623698,1.97865 -0.596614,1.16302 -0.596614,2.54505 0,0.49844 0.06042,0.92891 0.06042,0.42292 0.28698,0.8987 0.196354,0.41536 0.54375,0.69479 0.354947,0.27187 0.891145,0.27187 0.385157,0 0.64948,-0.0906 0.271875,-0.0982 0.422916,-0.22656 0.166146,-0.13594 0.271875,-0.30209 0.113282,-0.16614 0.158594,-0.27942 v -4.41042 h 1.404688 v 4.41042 q 0.06797,0.12838 0.173698,0.29453 0.105729,0.16614 0.264322,0.29453 0.18125,0.14349 0.392709,0.22656 0.21901,0.0831 0.657031,0.0831 0.528646,0 0.883594,-0.26432 0.354948,-0.27187 0.558854,-0.70234 0.188802,-0.41537 0.271875,-0.87604 0.08307,-0.46068 0.08307,-0.95157 0,-1.37448 -0.596615,-2.5375 -0.589062,-1.16302 -1.623698,-1.9862 v -0.12838 h 1.721875 q 1.0875,1.2612 1.517969,2.31094 0.430469,1.04218 0.430469,2.32604 z"
     style=""
     id="path891" /><path
     d="m 74.713158,355.14716 -3.413541,8.43568 h -1.427344 l -3.390886,-8.43568 h 1.540625 l 2.613021,6.7138 2.590365,-6.7138 z"
     style=""
     id="path893" /></g>
</g></g></svg>