<?xml version="1.0" encoding="UTF-8" standalone="no"?>
<!-- Generator: Adobe Illustrator 19.1.0, SVG Export Plug-In . SVG Version: 6.00 Build 0)  -->

<svg
   xmlns:dc="http://purl.org/dc/elements/1.1/"
   xmlns:cc="http://creativecommons.org/ns#"
   xmlns:rdf="http://www.w3.org/1999/02/22-rdf-syntax-ns#"
   xmlns:svg="http://www.w3.org/2000/svg"
   xmlns="http://www.w3.org/2000/svg"
   xmlns:sodipodi="http://sodipodi.sourceforge.net/DTD/sodipodi-0.dtd"
   xmlns:inkscape="http://www.inkscape.org/namespaces/inkscape"
   version="1.1"
   id="Calque_1"
   x="0px"
   y="0px"
   viewBox="-33.6 228.6 138.7 138.7"
   style="enable-background:new -33.6 228.6 138.7 138.7;"
   xml:space="preserve"
   sodipodi:docname="main_menu_logo_map-it.svg"
   inkscape:version="0.92.2 5c3e80d, 2017-08-06"><metadata
     id="metadata105"><rdf:RDF><cc:Work
         rdf:about=""><dc:format>image/svg+xml</dc:format><dc:type
           rdf:resource="http://purl.org/dc/dcmitype/StillImage" /><dc:title /></cc:Work></rdf:RDF></metadata><defs
     id="defs103" /><sodipodi:namedview
     pagecolor="#ffffff"
     bordercolor="#666666"
     borderopacity="1"
     objecttolerance="10"
     gridtolerance="10"
     guidetolerance="10"
     inkscape:pageopacity="0"
     inkscape:pageshadow="2"
     inkscape:window-width="1827"
     inkscape:window-height="1086"
     id="namedview101"
     showgrid="false"
     inkscape:zoom="5"
     inkscape:cx="36.199515"
     inkscape:cy="69.349998"
     inkscape:window-x="369"
     inkscape:window-y="152"
     inkscape:window-maximized="0"
     inkscape:current-layer="g96" /><style
     type="text/css"
     id="style2">
	.st0{fill:#D3D501;}
	.st1{fill:#FFFFFF;}
	.st2{fill:#7A9C2B;}
	.st3{fill:#E8E493;}
	.st4{fill:#40637D;}
	.st5{fill:#5E9EB5;}
	.st6{fill:#D0A82B;}
	.st7{fill:#559973;}
	.st8{fill:#00662C;}
</style><g
     id="g36"><g
       id="g30"><path
         class="st1"
         d="M24.1,315.9c0,0.4,0.2,0.8,0.6,1s0.8,0.2,1.2-0.1l7.7-5.3l-9.5-4.5L24.1,315.9L24.1,315.9z"
         id="path28" /></g><g
       id="g34"><path
         class="st1"
         d="M70,256.5c-0.2-0.2-0.5-0.3-0.8-0.3c-0.2,0-0.3,0-0.5,0.1L2.1,289c-0.7,0.3-1.1,1-1.1,1.8s0.4,1.5,1.1,1.8    l17.6,8.4l35.1-28.9L24,303l21.9,10.4c0.3,0.1,0.6,0.2,0.9,0.2c0.2,0,0.5,0,0.7-0.1c0.5-0.2,0.9-0.6,1.1-1.1l21.7-54.6    C70.5,257.3,70.4,256.8,70,256.5"
         id="path32" /></g></g><path
     style="fill:#5e9eb5"
     d="M 105.1,298.09998 A 69.099998,69.099998 0 0 1 36,367.19997 69.099998,69.099998 0 0 1 -33.099998,298.09998 69.099998,69.099998 0 0 1 36,228.99998 a 69.099998,69.099998 0 0 1 69.1,69.1 z"
     id="circle38" /><g
     id="g54"><path
       class="st1"
       d="M30.5,268.5H10.7c-0.8,0-1.5,0.5-1.7,1.3l-3.8,13.1l26.6,2.9l2.1-10C32.6,273.5,31.4,271,30.5,268.5   L30.5,268.5z"
       id="path40" /><path
       class="st1"
       d="M55.4,288.4l8,0.9L61,281c-0.3,0.5-0.6,0.9-1,1.4C58.4,284.7,56.8,286.7,55.4,288.4L55.4,288.4z"
       id="path42" /><g
       id="g52"><path
         class="st1"
         d="M38,282.3l-0.9,4.1l4.3,0.5C40.4,285.5,39.3,284,38,282.3C38.1,282.4,38.1,282.3,38,282.3L38,282.3z"
         id="path44" /><path
         class="st1"
         d="M0.1,300.6c-0.2,0.5,0,1.1,0.3,1.6c0.3,0.4,0.9,0.7,1.4,0.7h26.4l2.5-11.8l-27-3L0.1,300.6z"
         id="path46" /><path
         class="st1"
         d="M65,294.8l-28.9-3.2l-2.3,11.2H65c1,0,1.8-0.8,1.8-1.8c0-0.2,0-0.4-0.1-0.6L65,294.8z"
         id="path48" /><path
         class="st1"
         d="M48.3,290.7c0.2,0.2,0.5,0.3,0.7,0.3c0.3,0,0.5-0.1,0.7-0.3c1.6-1.7,4.8-5.3,8-9.8c4-5.7,8.9-14.1,8.9-21.5    c0-9.7-7.9-17.7-17.7-17.7c-9.7,0-17.7,7.9-17.7,17.7c0,7.5,4.8,15.8,8.9,21.5C43.5,285.4,46.7,288.9,48.3,290.7L48.3,290.7z     M49.1,248.3c5.9,0,10.8,4.8,10.8,10.8c0,5.9-4.8,10.8-10.8,10.8c-5.9,0-10.8-4.8-10.8-10.8C38.3,253.1,43.1,248.3,49.1,248.3    L49.1,248.3z"
         id="path50" /></g></g><g
     id="g98"
     transform="translate(18,-14)"><g
       id="g96"><g
         aria-label="Mappa
avvistamenti"
         style="font-style:normal;font-variant:normal;font-weight:normal;font-stretch:normal;font-size:15.92933273px;line-height:1.25;font-family:KonsensMedium;-inkscape-font-specification:'KonsensMedium, Normal';font-variant-ligatures:normal;font-variant-caps:normal;font-variant-numeric:normal;font-feature-settings:normal;text-align:start;letter-spacing:0px;word-spacing:0px;writing-mode:lr-tb;text-anchor:start;fill:#000000;fill-opacity:1;stroke:none"
         id="text6172"><path
           d="M 4.1181601,344.09995 H 2.4615095 v -9.57353 l -3.09029055,9.57353 H -2.349149 l -3.0584319,-9.5576 v 9.5576 h -1.6407212 l 0.015929,-11.85143 h 2.6283399 l 2.9469265,9.57353 2.9947146,-9.57353 h 2.5805519 z"
           style="font-style:normal;font-variant:normal;font-weight:normal;font-stretch:normal;font-size:15.92933273px;font-family:KonsensMedium;-inkscape-font-specification:'KonsensMedium, Normal';font-variant-ligatures:normal;font-variant-caps:normal;font-variant-numeric:normal;font-feature-settings:normal;text-align:center;writing-mode:lr-tb;text-anchor:middle;fill:#ffffff"
           id="path834" /><path
           d="m 11.851354,341.6309 v -1.06727 H 9.3504483 q -1.5929332,0 -1.5929332,1.21063 0,0.49381 0.286728,0.78054 0.2867279,0.2708 0.8123959,0.2708 0.7805373,0 1.624792,-0.46195 z m 1.592933,2.46905 h -1.592933 v -1.0832 l -0.923902,0.50974 q -1.2424877,0.66903 -2.3416116,0.66903 -1.099124,0 -1.7840853,-0.6531 -0.669032,-0.6531 -0.669032,-1.70444 0,-1.22656 0.8442547,-1.87966 0.8601839,-0.6531 2.1982479,-0.6531 h 2.6920573 v -0.52567 q 0,-1.83188 -1.9274493,-1.83188 -2.0389546,0 -2.0389546,1.64073 h -1.577004 v -0.0796 q 0,-1.36992 0.9876186,-2.15046 1.003548,-0.78054 2.6124106,-0.78054 1.6566507,0 2.5805517,0.82833 0.939831,0.81239 0.939831,2.29382 z"
           style="font-style:normal;font-variant:normal;font-weight:normal;font-stretch:normal;font-size:15.92933273px;font-family:KonsensMedium;-inkscape-font-specification:'KonsensMedium, Normal';font-variant-ligatures:normal;font-variant-caps:normal;font-variant-numeric:normal;font-feature-settings:normal;text-align:center;writing-mode:lr-tb;text-anchor:middle;fill:#ffffff"
           id="path836" /><path
           d="m 21.429861,341.16895 v -2.53277 q 0,-0.70089 -0.398234,-1.11505 -0.398233,-0.43009 -1.067265,-0.43009 -0.669032,0 -1.322135,0.36637 l -1.481428,0.82833 v 3.23365 l 1.481428,0.82833 q 0.653103,0.36637 1.322135,0.36637 0.669032,0 1.067265,-0.41416 0.398234,-0.43009 0.398234,-1.13098 z m -4.269062,5.86199 h -1.577003 v -11.30982 h 1.561074 v 1.01947 l 1.035407,-0.57345 q 0.95576,-0.5416 1.991166,-0.5416 1.258418,0 2.038955,0.78054 0.796467,0.78053 0.796467,2.03895 v 2.86728 q 0,1.25842 -0.796467,2.07082 -0.796467,0.79646 -2.054884,0.79646 -1.019477,0 -1.975237,-0.5416 l -1.019478,-0.57345 z"
           style="font-style:normal;font-variant:normal;font-weight:normal;font-stretch:normal;font-size:15.92933273px;font-family:KonsensMedium;-inkscape-font-specification:'KonsensMedium, Normal';font-variant-ligatures:normal;font-variant-caps:normal;font-variant-numeric:normal;font-feature-settings:normal;text-align:center;writing-mode:lr-tb;text-anchor:middle;fill:#ffffff"
           id="path838" /><path
           d="m 30.950126,341.16895 v -2.53277 q 0,-0.70089 -0.398233,-1.11505 -0.398233,-0.43009 -1.067265,-0.43009 -0.669032,0 -1.322135,0.36637 l -1.481428,0.82833 v 3.23365 l 1.481428,0.82833 q 0.653103,0.36637 1.322135,0.36637 0.669032,0 1.067265,-0.41416 0.398233,-0.43009 0.398233,-1.13098 z m -4.269061,5.86199 h -1.577004 v -11.30982 h 1.561075 v 1.01947 l 1.035406,-0.57345 q 0.95576,-0.5416 1.991167,-0.5416 1.258417,0 2.038954,0.78054 0.796467,0.78053 0.796467,2.03895 v 2.86728 q 0,1.25842 -0.796467,2.07082 -0.796466,0.79646 -2.054883,0.79646 -1.019478,0 -1.975238,-0.5416 l -1.019477,-0.57345 z"
           style="font-style:normal;font-variant:normal;font-weight:normal;font-stretch:normal;font-size:15.92933273px;font-family:KonsensMedium;-inkscape-font-specification:'KonsensMedium, Normal';font-variant-ligatures:normal;font-variant-caps:normal;font-variant-numeric:normal;font-feature-settings:normal;text-align:center;writing-mode:lr-tb;text-anchor:middle;fill:#ffffff"
           id="path840" /><path
           d="m 39.976581,341.6309 v -1.06727 h -2.500906 q -1.592933,0 -1.592933,1.21063 0,0.49381 0.286728,0.78054 0.286728,0.2708 0.812396,0.2708 0.780537,0 1.624792,-0.46195 z m 1.592933,2.46905 h -1.592933 v -1.0832 l -0.923902,0.50974 q -1.242488,0.66903 -2.341612,0.66903 -1.099124,0 -1.784085,-0.6531 -0.669032,-0.6531 -0.669032,-1.70444 0,-1.22656 0.844255,-1.87966 0.860184,-0.6531 2.198248,-0.6531 h 2.692057 v -0.52567 q 0,-1.83188 -1.927449,-1.83188 -2.038955,0 -2.038955,1.64073 h -1.577004 v -0.0796 q 0,-1.36992 0.987619,-2.15046 1.003548,-0.78054 2.61241,-0.78054 1.656651,0 2.580552,0.82833 0.939831,0.81239 0.939831,2.29382 z"
           style="font-style:normal;font-variant:normal;font-weight:normal;font-stretch:normal;font-size:15.92933273px;font-family:KonsensMedium;-inkscape-font-specification:'KonsensMedium, Normal';font-variant-ligatures:normal;font-variant-caps:normal;font-variant-numeric:normal;font-feature-settings:normal;text-align:center;writing-mode:lr-tb;text-anchor:middle;fill:#ffffff"
           id="path842" /><path
           d="m -24.425213,361.54256 v -1.06726 h -2.500905 q -1.592933,0 -1.592933,1.21063 0,0.49381 0.286727,0.78054 0.286728,0.27079 0.812396,0.27079 0.780538,0 1.624792,-0.46195 z m 1.592933,2.46905 h -1.592933 v -1.08319 l -0.923901,0.50974 q -1.242488,0.66903 -2.341612,0.66903 -1.099124,0 -1.784085,-0.65311 -0.669032,-0.6531 -0.669032,-1.70443 0,-1.22656 0.844254,-1.87967 0.860184,-0.6531 2.198248,-0.6531 h 2.692057 v -0.52567 q 0,-1.83187 -1.927449,-1.83187 -2.038955,0 -2.038955,1.64072 h -1.577003 v -0.0796 q 0,-1.36993 0.987618,-2.15046 1.003548,-0.78054 2.612411,-0.78054 1.65665,0 2.580552,0.82832 0.93983,0.8124 0.93983,2.29383 z"
           style="font-style:normal;font-variant:normal;font-weight:normal;font-stretch:normal;font-size:15.92933273px;font-family:KonsensMedium;-inkscape-font-specification:'KonsensMedium, Normal';font-variant-ligatures:normal;font-variant-caps:normal;font-variant-numeric:normal;font-feature-settings:normal;text-align:center;writing-mode:lr-tb;text-anchor:middle;fill:#ffffff"
           id="path844" /><path
           d="m -16.758226,364.01161 h -1.815944 l -2.994714,-8.37883 h 1.768156 l 2.166389,6.54696 2.198248,-6.54696 h 1.67258 z"
           style="font-style:normal;font-variant:normal;font-weight:normal;font-stretch:normal;font-size:15.92933273px;font-family:KonsensMedium;-inkscape-font-specification:'KonsensMedium, Normal';font-variant-ligatures:normal;font-variant-caps:normal;font-variant-numeric:normal;font-feature-settings:normal;text-align:center;writing-mode:lr-tb;text-anchor:middle;fill:#ffffff"
           id="path846" /><path
           d="m -8.420217,364.01161 h -1.815944 l -2.994714,-8.37883 h 1.768155 l 2.1663897,6.54696 2.1982479,-6.54696 h 1.67258 z"
           style="font-style:normal;font-variant:normal;font-weight:normal;font-stretch:normal;font-size:15.92933273px;font-family:KonsensMedium;-inkscape-font-specification:'KonsensMedium, Normal';font-variant-ligatures:normal;font-variant-caps:normal;font-variant-numeric:normal;font-feature-settings:normal;text-align:center;writing-mode:lr-tb;text-anchor:middle;fill:#ffffff"
           id="path848" /><path
           d="m -2.3441715,364.01161 h -1.6407212 v -8.37883 h 1.6407212 z m 0.1115054,-11.11867 v 0.33451 q 0,0.36638 -0.2707987,0.58939 -0.2548693,0.22301 -0.6531026,0.22301 -0.430092,0 -0.6849613,-0.20708 -0.2548694,-0.22301 -0.2548694,-0.60532 v -0.33451 q 0,-0.38231 0.2548694,-0.58939 0.2548693,-0.22301 0.6849613,-0.22301 0.3982333,0 0.6531026,0.22301 0.2707987,0.22301 0.2707987,0.58939 z"
           style="font-style:normal;font-variant:normal;font-weight:normal;font-stretch:normal;font-size:15.92933273px;font-family:KonsensMedium;-inkscape-font-specification:'KonsensMedium, Normal';font-variant-ligatures:normal;font-variant-caps:normal;font-variant-numeric:normal;font-feature-settings:normal;text-align:center;writing-mode:lr-tb;text-anchor:middle;fill:#ffffff"
           id="path850" /><path
           d="M 6.6870133,358.30891 H 5.09408 q 0,-1.43364 -1.8796613,-1.43364 -0.8920426,0 -1.3699226,0.31859 -0.4619506,0.31858 -0.4619506,0.84425 0,0.49381 0.3982333,0.76461 0.3982333,0.2708 0.9876186,0.33452 0.5893853,0.0637 1.2743466,0.19115 0.7008907,0.12743 1.290276,0.30265 0.5893853,0.1593 0.9876186,0.65311 0.3982333,0.49381 0.3982333,1.29027 0,1.17877 -0.9398306,1.87966 -0.9398306,0.68497 -2.5805519,0.68497 -1.6566506,0 -2.61241058,-0.74868 -0.93983063,-0.74868 -0.93983063,-1.97524 v -0.0796 H 1.2869695 q 0,1.44957 1.9433786,1.44957 0.9239013,0 1.4177106,-0.30265 0.5097386,-0.31859 0.5097386,-0.84426 0,-0.52567 -0.5575266,-0.76461 -0.5415973,-0.23894 -1.3221346,-0.33451 -0.7805374,-0.0956 -1.577004,-0.25487 -0.78053729,-0.1593 -1.33806394,-0.70089 -0.54159731,-0.55753 -0.54159731,-1.51329 0,-1.17877 0.90797196,-1.86373 0.92390129,-0.68496 2.51683459,-0.68496 1.6407213,0 2.5327639,0.74868 0.907972,0.73274 0.907972,1.97523 z"
           style="font-style:normal;font-variant:normal;font-weight:normal;font-stretch:normal;font-size:15.92933273px;font-family:KonsensMedium;-inkscape-font-specification:'KonsensMedium, Normal';font-variant-ligatures:normal;font-variant-caps:normal;font-variant-numeric:normal;font-feature-settings:normal;text-align:center;writing-mode:lr-tb;text-anchor:middle;fill:#ffffff"
           id="path852" /><path
           d="m 13.360158,364.01161 h -1.051336 q -1.43364,0 -2.261965,-0.73275 -0.8283255,-0.73275 -0.8283255,-2.13453 v -4.10977 h -1.338064 v -1.40178 h 1.3539933 v -2.26196 h 1.6247922 v 2.26196 h 2.437188 v 1.40178 h -2.437188 v 4.03012 q 0,0.82833 0.366374,1.17878 0.382304,0.33451 1.178771,0.33451 h 0.95576 z"
           style="font-style:normal;font-variant:normal;font-weight:normal;font-stretch:normal;font-size:15.92933273px;font-family:KonsensMedium;-inkscape-font-specification:'KonsensMedium, Normal';font-variant-ligatures:normal;font-variant-caps:normal;font-variant-numeric:normal;font-feature-settings:normal;text-align:center;writing-mode:lr-tb;text-anchor:middle;fill:#ffffff"
           id="path854" /><path
           d="m 20.376034,361.54256 v -1.06726 h -2.500906 q -1.592933,0 -1.592933,1.21063 0,0.49381 0.286728,0.78054 0.286728,0.27079 0.812396,0.27079 0.780537,0 1.624792,-0.46195 z m 1.592933,2.46905 h -1.592933 v -1.08319 l -0.923902,0.50974 q -1.242488,0.66903 -2.341612,0.66903 -1.099124,0 -1.784085,-0.65311 -0.669032,-0.6531 -0.669032,-1.70443 0,-1.22656 0.844255,-1.87967 0.860184,-0.6531 2.198248,-0.6531 h 2.692057 v -0.52567 q 0,-1.83187 -1.927449,-1.83187 -2.038955,0 -2.038955,1.64072 h -1.577004 v -0.0796 q 0,-1.36993 0.987619,-2.15046 1.003548,-0.78054 2.61241,-0.78054 1.656651,0 2.580552,0.82832 0.939831,0.8124 0.939831,2.29383 z"
           style="font-style:normal;font-variant:normal;font-weight:normal;font-stretch:normal;font-size:15.92933273px;font-family:KonsensMedium;-inkscape-font-specification:'KonsensMedium, Normal';font-variant-ligatures:normal;font-variant-caps:normal;font-variant-numeric:normal;font-feature-settings:normal;text-align:center;writing-mode:lr-tb;text-anchor:middle;fill:#ffffff"
           id="path856" /><path
           d="m 35.370514,364.01161 h -1.608863 v -5.79828 q 0,-1.16284 -0.971689,-1.16284 -0.461951,0 -1.130983,0.38231 l -1.130982,0.66903 v 5.90978 h -1.592934 v -5.79828 q 0,-1.14691 -0.987618,-1.14691 -0.49381,0 -1.115054,0.36638 l -1.130982,0.66903 v 5.90978 h -1.592933 v -8.37883 h 1.561074 v 0.98762 l 0.796467,-0.47788 q 0.892042,-0.57346 1.831873,-0.57346 1.449569,0 1.959308,1.17878 l 0.95576,-0.58939 q 0.987619,-0.58939 1.927449,-0.58939 1.051336,0 1.640722,0.65311 0.589385,0.63717 0.589385,1.80001 z"
           style="font-style:normal;font-variant:normal;font-weight:normal;font-stretch:normal;font-size:15.92933273px;font-family:KonsensMedium;-inkscape-font-specification:'KonsensMedium, Normal';font-variant-ligatures:normal;font-variant-caps:normal;font-variant-numeric:normal;font-feature-settings:normal;text-align:center;writing-mode:lr-tb;text-anchor:middle;fill:#ffffff"
           id="path858" /><path
           d="m 44.588867,361.35141 v 0.0797 q 0,1.22656 -0.971689,1.97524 -0.971689,0.74867 -2.596481,0.74867 -1.624792,0 -2.64427,-0.84425 -1.019477,-0.86018 -1.019477,-2.34161 v -2.0071 q 0,-1.56107 1.019477,-2.5009 1.019478,-0.93983 2.62834,-0.93983 1.608863,0 2.612411,0.93983 1.003548,0.9239 1.003548,2.51683 v 1.41771 h -5.718631 v 0.47788 q 0,0.93983 0.573456,1.43364 0.589386,0.47788 1.545146,0.47788 2.023025,0 2.023025,-1.43364 z m -1.497357,-2.15046 v -0.25487 q 0,-0.98762 -0.557527,-1.51328 -0.541597,-0.5416 -1.529216,-0.5416 -0.987618,0 -1.545145,0.5416 -0.557527,0.54159 -0.557527,1.52921 v 0.23894 z"
           style="font-style:normal;font-variant:normal;font-weight:normal;font-stretch:normal;font-size:15.92933273px;font-family:KonsensMedium;-inkscape-font-specification:'KonsensMedium, Normal';font-variant-ligatures:normal;font-variant-caps:normal;font-variant-numeric:normal;font-feature-settings:normal;text-align:center;writing-mode:lr-tb;text-anchor:middle;fill:#ffffff"
           id="path860" /><path
           d="m 53.784328,364.01161 h -1.624792 v -5.59119 q 0,-0.60532 -0.334516,-0.98762 -0.318587,-0.39824 -0.907972,-0.39824 -0.541597,0 -1.258417,0.41417 l -1.369923,0.81239 v 5.75049 h -1.592933 v -8.37883 h 1.577004 v 1.09913 l 0.95576,-0.58939 q 0.93983,-0.58938 1.991166,-0.58938 1.178771,0 1.863732,0.73274 0.700891,0.73275 0.700891,1.94338 z"
           style="font-style:normal;font-variant:normal;font-weight:normal;font-stretch:normal;font-size:15.92933273px;font-family:KonsensMedium;-inkscape-font-specification:'KonsensMedium, Normal';font-variant-ligatures:normal;font-variant-caps:normal;font-variant-numeric:normal;font-feature-settings:normal;text-align:center;writing-mode:lr-tb;text-anchor:middle;fill:#ffffff"
           id="path862" /><path
           d="m 60.681481,364.01161 h -1.051336 q -1.43364,0 -2.261965,-0.73275 -0.828325,-0.73275 -0.828325,-2.13453 v -4.10977 h -1.338064 v -1.40178 h 1.353993 v -2.26196 h 1.624792 v 2.26196 h 2.437188 v 1.40178 h -2.437188 v 4.03012 q 0,0.82833 0.366375,1.17878 0.382304,0.33451 1.17877,0.33451 h 0.95576 z"
           style="font-style:normal;font-variant:normal;font-weight:normal;font-stretch:normal;font-size:15.92933273px;font-family:KonsensMedium;-inkscape-font-specification:'KonsensMedium, Normal';font-variant-ligatures:normal;font-variant-caps:normal;font-variant-numeric:normal;font-feature-settings:normal;text-align:center;writing-mode:lr-tb;text-anchor:middle;fill:#ffffff"
           id="path864" /><path
           d="m 64.017677,364.01161 h -1.640721 v -8.37883 h 1.640721 z m 0.111506,-11.11867 v 0.33451 q 0,0.36638 -0.270799,0.58939 -0.254869,0.22301 -0.653103,0.22301 -0.430092,0 -0.684961,-0.20708 -0.254869,-0.22301 -0.254869,-0.60532 v -0.33451 q 0,-0.38231 0.254869,-0.58939 0.254869,-0.22301 0.684961,-0.22301 0.398234,0 0.653103,0.22301 0.270799,0.22301 0.270799,0.58939 z"
           style="font-style:normal;font-variant:normal;font-weight:normal;font-stretch:normal;font-size:15.92933273px;font-family:KonsensMedium;-inkscape-font-specification:'KonsensMedium, Normal';font-variant-ligatures:normal;font-variant-caps:normal;font-variant-numeric:normal;font-feature-settings:normal;text-align:center;writing-mode:lr-tb;text-anchor:middle;fill:#ffffff"
           id="path866" /></g></g></g></svg>