<?xml version="1.0" encoding="UTF-8" standalone="no"?>
<!-- Generator: Adobe Illustrator 19.1.0, SVG Export Plug-In . SVG Version: 6.00 Build 0)  -->

<svg
   xmlns:dc="http://purl.org/dc/elements/1.1/"
   xmlns:cc="http://creativecommons.org/ns#"
   xmlns:rdf="http://www.w3.org/1999/02/22-rdf-syntax-ns#"
   xmlns:svg="http://www.w3.org/2000/svg"
   xmlns="http://www.w3.org/2000/svg"
   xmlns:sodipodi="http://sodipodi.sourceforge.net/DTD/sodipodi-0.dtd"
   xmlns:inkscape="http://www.inkscape.org/namespaces/inkscape"
   version="1.1"
   id="Calque_1"
   x="0px"
   y="0px"
   viewBox="-330 571.3 138.60001 138.60001"
   xml:space="preserve"
   sodipodi:docname="main_menu_logo_report_sighting-ba.svg"
   inkscape:version="0.92.4 (5da689c313, 2019-01-14)"
   width="138.60001"
   height="138.60001"><metadata
   id="metadata69"><rdf:RDF><cc:Work
       rdf:about=""><dc:format>image/svg+xml</dc:format><dc:type
         rdf:resource="http://purl.org/dc/dcmitype/StillImage" /><dc:title /></cc:Work></rdf:RDF></metadata><defs
   id="defs67" /><sodipodi:namedview
   pagecolor="#ffffff"
   bordercolor="#666666"
   borderopacity="1"
   objecttolerance="10"
   gridtolerance="10"
   guidetolerance="10"
   inkscape:pageopacity="0"
   inkscape:pageshadow="2"
   inkscape:window-width="1920"
   inkscape:window-height="1017"
   id="namedview65"
   showgrid="false"
   inkscape:zoom="4"
   inkscape:cx="-19.641724"
   inkscape:cy="69.350001"
   inkscape:window-x="-8"
   inkscape:window-y="-8"
   inkscape:window-maximized="1"
   inkscape:current-layer="text73"
   fit-margin-top="0"
   fit-margin-left="0"
   fit-margin-right="0"
   fit-margin-bottom="0" /><style
   type="text/css"
   id="style2">
	.st0{fill:#7A9C2B;}
	.st1{fill:#FFFFFF;}
</style><g
   id="g6"
   transform="translate(0,-0.1)"><path
     class="st0"
     d="m -330,640.7 c 0,-38.3 31,-69.3 69.3,-69.3 38.3,0 69.3,31 69.3,69.3 0,38.3 -31,69.3 -69.3,69.3 -38.3,0 -69.3,-31 -69.3,-69.3"
     id="path4"
     style="fill:#7a9c2b;fill-opacity:1"
     inkscape:connector-curvature="0" /></g><g
   id="g62"
   transform="translate(0,-4.20001)"><g
     id="g44"><path
       class="st1"
       d="m -246.4,604.3 c -1.5,-0.4 -5.1,-1 -5.1,-1 0,0 -4.9,-3.9 -9.2,-3.9 -4.3,0 -9.2,3.9 -9.2,3.9 0,0 -3.6,0.6 -5.1,1 6.7,2.4 11.5,8.9 11.5,16.4 0,3.1 -0.8,6 -2.2,8.5 h 10 c -1.4,-2.5 -2.2,-5.4 -2.2,-8.5 0,-7.5 4.8,-13.9 11.5,-16.4"
       id="path42"
       inkscape:connector-curvature="0"
       style="fill:#ffffff" /></g><g
     id="g48"><path
       class="st1"
       d="m -281.9,605.1 c -9,0 -16.3,7.3 -16.3,16.3 0,9 7.3,16.3 16.3,16.3 9,0 16.3,-7.3 16.3,-16.3 0,-9 -7.3,-16.3 -16.3,-16.3 m 0,26.6 c -5.7,0 -10.3,-4.6 -10.3,-10.3 0,-5.7 4.6,-10.3 10.3,-10.3 5.7,0 10.3,4.6 10.3,10.3 0,5.6 -4.6,10.3 -10.3,10.3"
       id="path46"
       inkscape:connector-curvature="0"
       style="fill:#ffffff" /></g><g
     id="g52"><path
       class="st1"
       d="m -288.5,616.2 c -2.2,2.9 -2,6.9 0.3,9.5 -0.8,-2.7 -0.4,-5.8 1.5,-8.2 1.9,-2.4 4.7,-3.6 7.5,-3.5 -3.2,-1.5 -7.1,-0.7 -9.3,2.2"
       id="path50"
       inkscape:connector-curvature="0"
       style="fill:#ffffff" /></g><g
     id="g56"><path
       class="st1"
       d="m -239.5,605.1 c -9,0 -16.3,7.3 -16.3,16.3 0,9 7.3,16.3 16.3,16.3 9,0 16.3,-7.3 16.3,-16.3 0,-9 -7.3,-16.3 -16.3,-16.3 m 0,26.6 c -5.7,0 -10.3,-4.6 -10.3,-10.3 0,-5.7 4.6,-10.3 10.3,-10.3 5.7,0 10.3,4.6 10.3,10.3 0,5.6 -4.6,10.3 -10.3,10.3"
       id="path54"
       inkscape:connector-curvature="0"
       style="fill:#ffffff" /></g><g
     id="g60"><path
       class="st1"
       d="m -242.1,614 c 2.8,-0.1 5.7,1.1 7.5,3.5 1.9,2.4 2.3,5.5 1.5,8.2 2.3,-2.7 2.5,-6.6 0.3,-9.5 -2.2,-2.9 -6.1,-3.7 -9.3,-2.2"
       id="path58"
       inkscape:connector-curvature="0"
       style="fill:#ffffff" /></g></g><g
   aria-label="Prijava 
opažanja"
   style="font-style:normal;font-variant:normal;font-weight:normal;font-stretch:normal;font-size:15.46666718px;line-height:1.25;font-family:KonsensMedium;-inkscape-font-specification:'KonsensMedium, Normal';font-variant-ligatures:normal;font-variant-caps:normal;font-variant-numeric:normal;font-feature-settings:normal;text-align:center;letter-spacing:0px;word-spacing:0px;writing-mode:lr-tb;text-anchor:middle;fill:#ffffff;fill-opacity:1;stroke:none"
   id="text73"><path
     d="m -282.36681,672.14996 h -1.68587 v -11.5072 h 4.71734 q 1.51573,0 2.52106,0.928 1.00534,0.91254 1.00534,2.552 0,1.624 -1.08267,2.5984 -1.08267,0.95894 -2.552,0.95894 h -2.9232 z m 0,-5.9392 h 2.8304 q 0.91253,0 1.46933,-0.5568 0.57227,-0.57226 0.57227,-1.5312 0,-0.9744 -0.52587,-1.4848 -0.52586,-0.52586 -1.4384,-0.52586 h -2.90773 z"
     style=""
     id="path831" /><path
     d="m -272.55345,672.14996 h -1.5776 v -8.13546 h 1.54666 v 1.23733 l 0.3712,-0.3712 q 0.9744,-0.89707 2.11894,-0.89707 h 0.4176 v 1.60854 h -0.40213 q -1.05174,0 -1.79414,0.61866 l -0.68053,0.5568 z"
     style=""
     id="path833" /><path
     d="m -266.70705,672.14996 h -1.59307 v -8.13546 h 1.59307 z m 0.10827,-10.79573 v 0.3248 q 0,0.35573 -0.26294,0.57227 -0.24746,0.21653 -0.63413,0.21653 -0.4176,0 -0.66507,-0.20107 -0.24746,-0.21653 -0.24746,-0.58773 v -0.3248 q 0,-0.3712 0.24746,-0.57227 0.24747,-0.21653 0.66507,-0.21653 0.38667,0 0.63413,0.21653 0.26294,0.21654 0.26294,0.57227 z"
     style=""
     id="path835" /><path
     d="m -265.45498,674.99583 h -0.3712 v -1.31467 h 0.26294 q 0.58773,0 0.85066,-0.26293 0.2784,-0.26293 0.2784,-0.86613 v -8.5376 h 1.59307 v 8.6304 q 0,1.14453 -0.696,1.74773 -0.696,0.6032 -1.91787,0.6032 z m 2.72214,-13.6416 v 0.3248 q 0,0.35573 -0.26294,0.57227 -0.24746,0.21653 -0.63413,0.21653 -0.4176,0 -0.66507,-0.20107 -0.24746,-0.21653 -0.24746,-0.58773 v -0.3248 q 0,-0.3712 0.24746,-0.57227 0.24747,-0.21653 0.66507,-0.21653 0.38667,0 0.63413,0.21653 0.26294,0.21654 0.26294,0.57227 z"
     style=""
     id="path837" /><path
     d="m -255.40092,669.75263 v -1.03627 h -2.42827 q -1.54666,0 -1.54666,1.17547 0,0.47947 0.2784,0.75787 0.2784,0.26293 0.7888,0.26293 0.75786,0 1.5776,-0.44853 z m 1.54667,2.39733 h -1.54667 v -1.05173 l -0.89707,0.49493 q -1.2064,0.6496 -2.2736,0.6496 -1.0672,0 -1.73226,-0.63413 -0.6496,-0.63413 -0.6496,-1.65493 0,-1.19094 0.81973,-1.82507 0.8352,-0.63413 2.1344,-0.63413 h 2.61387 v -0.5104 q 0,-1.77867 -1.87147,-1.77867 -1.97973,0 -1.97973,1.59307 h -1.5312 v -0.0773 q 0,-1.33013 0.95893,-2.088 0.9744,-0.75786 2.53653,-0.75786 1.60854,0 2.5056,0.80426 0.91254,0.7888 0.91254,2.2272 z"
     style=""
     id="path839" /><path
     d="m -248.26233,672.14996 h -1.7632 l -2.90773,-8.13546 h 1.7168 l 2.10346,6.3568 2.1344,-6.3568 h 1.624 z"
     style=""
     id="path841" /><path
     d="m -239.09205,669.75263 v -1.03627 h -2.42826 q -1.54667,0 -1.54667,1.17547 0,0.47947 0.2784,0.75787 0.2784,0.26293 0.7888,0.26293 0.75787,0 1.5776,-0.44853 z m 1.54667,2.39733 h -1.54667 v -1.05173 l -0.89706,0.49493 q -1.2064,0.6496 -2.2736,0.6496 -1.0672,0 -1.73227,-0.63413 -0.6496,-0.63413 -0.6496,-1.65493 0,-1.19094 0.81973,-1.82507 0.8352,-0.63413 2.1344,-0.63413 h 2.61387 v -0.5104 q 0,-1.77867 -1.87147,-1.77867 -1.97973,0 -1.97973,1.59307 h -1.5312 v -0.0773 q 0,-1.33013 0.95893,-2.088 0.9744,-0.75786 2.53654,-0.75786 1.60853,0 2.5056,0.80426 0.91253,0.7888 0.91253,2.2272 z"
     style=""
     id="path843" /><path
     d="m -287.35409,688.15796 v -1.4384 q 0,-0.98986 -0.58773,-1.54666 -0.57227,-0.5568 -1.51573,-0.5568 -0.95894,0 -1.5312,0.5568 -0.57227,0.5568 -0.57227,1.54666 v 1.4384 q 0,0.98987 0.57227,1.56214 0.57226,0.5568 1.5312,0.5568 0.94346,0 1.51573,-0.5568 0.58773,-0.5568 0.58773,-1.56214 z m 1.51574,-1.5776 v 1.73227 q 0,1.51573 -1.0208,2.42827 -1.00534,0.91253 -2.5984,0.91253 -1.59307,0 -2.61387,-0.91253 -1.00533,-0.91254 -1.00533,-2.42827 v -1.73227 q 0,-1.51573 1.00533,-2.42826 1.0208,-0.91254 2.61387,-0.91254 1.59306,0 2.5984,0.91254 1.0208,0.91253 1.0208,2.42826 z"
     style=""
     id="path845" /><path
     d="m -278.15166,688.63743 v -2.4592 q 0,-0.68053 -0.38667,-1.08267 -0.38666,-0.4176 -1.03626,-0.4176 -0.6496,0 -1.28374,0.35574 l -1.4384,0.80426 v 3.13974 l 1.4384,0.80426 q 0.63414,0.35574 1.28374,0.35574 0.6496,0 1.03626,-0.40214 0.38667,-0.4176 0.38667,-1.09813 z m -4.14507,5.69173 h -1.5312 v -10.98133 h 1.51574 v 0.98987 l 1.00533,-0.5568 q 0.928,-0.52587 1.93333,-0.52587 1.22187,0 1.97974,0.75787 0.77333,0.75786 0.77333,1.97973 v 2.784 q 0,1.22187 -0.77333,2.01067 -0.77334,0.77333 -1.9952,0.77333 -0.98987,0 -1.91787,-0.52587 l -0.98987,-0.5568 z"
     style=""
     id="path847" /><path
     d="m -269.38738,689.08596 v -1.03626 h -2.42826 q -1.54667,0 -1.54667,1.17546 0,0.47947 0.2784,0.75787 0.2784,0.26293 0.7888,0.26293 0.75787,0 1.5776,-0.44853 z m 1.54667,2.39734 h -1.54667 v -1.05174 l -0.89706,0.49494 q -1.2064,0.6496 -2.2736,0.6496 -1.0672,0 -1.73227,-0.63414 -0.6496,-0.63413 -0.6496,-1.65493 0,-1.19093 0.81973,-1.82507 0.8352,-0.63413 2.1344,-0.63413 h 2.61387 v -0.5104 q 0,-1.77867 -1.87147,-1.77867 -1.97973,0 -1.97973,1.59307 h -1.5312 v -0.0773 q 0,-1.33014 0.95893,-2.088 0.9744,-0.75787 2.53654,-0.75787 1.60853,0 2.5056,0.80427 0.91253,0.7888 0.91253,2.2272 z"
     style=""
     id="path849" /><path
     d="m -259.20548,691.4833 h -6.8208 v -1.3456 l 4.7792,-5.4288 h -4.79466 v -1.36107 h 6.7744 v 1.3456 l -4.74827,5.44427 h 4.81013 z m -2.61386,-9.38827 h -1.59307 l -1.856,-2.11893 h 1.77867 l 0.89706,1.0672 0.85067,-1.0672 h 1.79413 z"
     style=""
     id="path851" /><path
     d="m -252.04779,689.08596 v -1.03626 h -2.42827 q -1.54667,0 -1.54667,1.17546 0,0.47947 0.27841,0.75787 0.2784,0.26293 0.7888,0.26293 0.75786,0 1.5776,-0.44853 z m 1.54667,2.39734 h -1.54667 v -1.05174 l -0.89707,0.49494 q -1.2064,0.6496 -2.2736,0.6496 -1.0672,0 -1.73227,-0.63414 -0.6496,-0.63413 -0.6496,-1.65493 0,-1.19093 0.81974,-1.82507 0.8352,-0.63413 2.1344,-0.63413 h 2.61387 v -0.5104 q 0,-1.77867 -1.87147,-1.77867 -1.97974,0 -1.97974,1.59307 h -1.5312 v -0.0773 q 0,-1.33014 0.95894,-2.088 0.9744,-0.75787 2.53653,-0.75787 1.60854,0 2.5056,0.80427 0.91254,0.7888 0.91254,2.2272 z"
     style=""
     id="path853" /><path
     d="m -241.54109,691.4833 h -1.5776 v -5.4288 q 0,-0.58774 -0.3248,-0.95894 -0.30934,-0.38666 -0.8816,-0.38666 -0.52587,0 -1.22187,0.40213 l -1.33013,0.7888 v 5.58347 h -1.54667 v -8.13547 h 1.5312 v 1.0672 l 0.928,-0.57227 q 0.91253,-0.57226 1.93333,-0.57226 1.14454,0 1.8096,0.71146 0.68054,0.71147 0.68054,1.88694 z"
     style=""
     id="path855" /><path
     d="m -240.41227,694.32916 h -0.3712 v -1.31466 h 0.26293 q 0.58774,0 0.85067,-0.26294 0.2784,-0.26293 0.2784,-0.86613 v -8.5376 h 1.59307 v 8.6304 q 0,1.14453 -0.696,1.74773 -0.696,0.6032 -1.91787,0.6032 z m 2.72213,-13.6416 v 0.3248 q 0,0.35574 -0.26293,0.57227 -0.24747,0.21653 -0.63413,0.21653 -0.4176,0 -0.66507,-0.20106 -0.24747,-0.21654 -0.24747,-0.58774 v -0.3248 q 0,-0.3712 0.24747,-0.57226 0.24747,-0.21654 0.66507,-0.21654 0.38666,0 0.63413,0.21654 0.26293,0.21653 0.26293,0.57226 z"
     style=""
     id="path857" /><path
     d="m -230.35821,689.08596 v -1.03626 h -2.42827 q -1.54666,0 -1.54666,1.17546 0,0.47947 0.2784,0.75787 0.2784,0.26293 0.7888,0.26293 0.75786,0 1.5776,-0.44853 z m 1.54667,2.39734 h -1.54667 v -1.05174 l -0.89707,0.49494 q -1.2064,0.6496 -2.2736,0.6496 -1.0672,0 -1.73226,-0.63414 -0.6496,-0.63413 -0.6496,-1.65493 0,-1.19093 0.81973,-1.82507 0.8352,-0.63413 2.1344,-0.63413 h 2.61387 v -0.5104 q 0,-1.77867 -1.87147,-1.77867 -1.97973,0 -1.97973,1.59307 h -1.5312 v -0.0773 q 0,-1.33014 0.95893,-2.088 0.9744,-0.75787 2.53653,-0.75787 1.60854,0 2.5056,0.80427 0.91254,0.7888 0.91254,2.2272 z"
     style=""
     id="path859" /></g>




</svg>