<?xml version="1.0" encoding="UTF-8" standalone="no"?>
<!-- Generator: Adobe Illustrator 19.1.0, SVG Export Plug-In . SVG Version: 6.00 Build 0)  -->

<svg
   xmlns:dc="http://purl.org/dc/elements/1.1/"
   xmlns:cc="http://creativecommons.org/ns#"
   xmlns:rdf="http://www.w3.org/1999/02/22-rdf-syntax-ns#"
   xmlns:svg="http://www.w3.org/2000/svg"
   xmlns="http://www.w3.org/2000/svg"
   xmlns:sodipodi="http://sodipodi.sourceforge.net/DTD/sodipodi-0.dtd"
   xmlns:inkscape="http://www.inkscape.org/namespaces/inkscape"
   version="1.1"
   id="Calque_1"
   x="0px"
   y="0px"
   viewBox="-330 571.3 138.60001 138.60001"
   xml:space="preserve"
   sodipodi:docname="main_menu_logo_report_sighting-it.svg"
   inkscape:version="0.92.4 (5da689c313, 2019-01-14)"
   width="138.60001"
   height="138.60001"><metadata
   id="metadata69"><rdf:RDF><cc:Work
       rdf:about=""><dc:format>image/svg+xml</dc:format><dc:type
         rdf:resource="http://purl.org/dc/dcmitype/StillImage" /><dc:title></dc:title></cc:Work></rdf:RDF></metadata><defs
   id="defs67" /><sodipodi:namedview
   pagecolor="#ffffff"
   bordercolor="#666666"
   borderopacity="1"
   objecttolerance="10"
   gridtolerance="10"
   guidetolerance="10"
   inkscape:pageopacity="0"
   inkscape:pageshadow="2"
   inkscape:window-width="1536"
   inkscape:window-height="801"
   id="namedview65"
   showgrid="false"
   inkscape:zoom="3"
   inkscape:cx="14.892333"
   inkscape:cy="69.349989"
   inkscape:window-x="-8"
   inkscape:window-y="-8"
   inkscape:window-maximized="1"
   inkscape:current-layer="Calque_1"
   fit-margin-top="0"
   fit-margin-left="0"
   fit-margin-right="0"
   fit-margin-bottom="0" /><style
   type="text/css"
   id="style2">
	.st0{fill:#7A9C2B;}
	.st1{fill:#FFFFFF;}
</style><g
   id="g6"
   transform="translate(0,-0.1)"><path
     class="st0"
     d="m -330,640.7 c 0,-38.3 31,-69.3 69.3,-69.3 38.3,0 69.3,31 69.3,69.3 0,38.3 -31,69.3 -69.3,69.3 -38.3,0 -69.3,-31 -69.3,-69.3"
     id="path4"
     inkscape:connector-curvature="0"
     style="fill:#7a9c2b" /></g><g
   id="g62"
   transform="translate(0,-3.78335)"><g
     id="g44"><path
       class="st1"
       d="m -246.4,604.3 c -1.5,-0.4 -5.1,-1 -5.1,-1 0,0 -4.9,-3.9 -9.2,-3.9 -4.3,0 -9.2,3.9 -9.2,3.9 0,0 -3.6,0.6 -5.1,1 6.7,2.4 11.5,8.9 11.5,16.4 0,3.1 -0.8,6 -2.2,8.5 h 10 c -1.4,-2.5 -2.2,-5.4 -2.2,-8.5 0,-7.5 4.8,-13.9 11.5,-16.4"
       id="path42"
       inkscape:connector-curvature="0"
       style="fill:#ffffff" /></g><g
     id="g48"><path
       class="st1"
       d="m -281.9,605.1 c -9,0 -16.3,7.3 -16.3,16.3 0,9 7.3,16.3 16.3,16.3 9,0 16.3,-7.3 16.3,-16.3 0,-9 -7.3,-16.3 -16.3,-16.3 m 0,26.6 c -5.7,0 -10.3,-4.6 -10.3,-10.3 0,-5.7 4.6,-10.3 10.3,-10.3 5.7,0 10.3,4.6 10.3,10.3 0,5.6 -4.6,10.3 -10.3,10.3"
       id="path46"
       inkscape:connector-curvature="0"
       style="fill:#ffffff" /></g><g
     id="g52"><path
       class="st1"
       d="m -288.5,616.2 c -2.2,2.9 -2,6.9 0.3,9.5 -0.8,-2.7 -0.4,-5.8 1.5,-8.2 1.9,-2.4 4.7,-3.6 7.5,-3.5 -3.2,-1.5 -7.1,-0.7 -9.3,2.2"
       id="path50"
       inkscape:connector-curvature="0"
       style="fill:#ffffff" /></g><g
     id="g56"><path
       class="st1"
       d="m -239.5,605.1 c -9,0 -16.3,7.3 -16.3,16.3 0,9 7.3,16.3 16.3,16.3 9,0 16.3,-7.3 16.3,-16.3 0,-9 -7.3,-16.3 -16.3,-16.3 m 0,26.6 c -5.7,0 -10.3,-4.6 -10.3,-10.3 0,-5.7 4.6,-10.3 10.3,-10.3 5.7,0 10.3,4.6 10.3,10.3 0,5.6 -4.6,10.3 -10.3,10.3"
       id="path54"
       inkscape:connector-curvature="0"
       style="fill:#ffffff" /></g><g
     id="g60"><path
       class="st1"
       d="m -242.1,614 c 2.8,-0.1 5.7,1.1 7.5,3.5 1.9,2.4 2.3,5.5 1.5,8.2 2.3,-2.7 2.5,-6.6 0.3,-9.5 -2.2,-2.9 -6.1,-3.7 -9.3,-2.2"
       id="path58"
       inkscape:connector-curvature="0"
       style="fill:#ffffff" /></g></g><g
   aria-label="Segnala un
avvistamento"
   style="font-style:normal;font-variant:normal;font-weight:normal;font-stretch:normal;font-size:15.92933273px;line-height:1.25;font-family:KonsensMedium;-inkscape-font-specification:'KonsensMedium, Normal';font-variant-ligatures:normal;font-variant-caps:normal;font-variant-numeric:normal;font-feature-settings:normal;text-align:center;letter-spacing:0px;word-spacing:0px;writing-mode:lr-tb;text-anchor:middle;fill:#ffffff;fill-opacity:1;stroke:none"
   id="text73"><path
     d="m -292.65898,664.29933 h -1.78409 q 0,-2.18232 -2.62834,-2.18232 -1.22656,0 -1.89559,0.50974 -0.66903,0.49381 -0.66903,1.36992 0,0.62125 0.3823,1.01948 0.39824,0.3823 1.01948,0.57346 0.62125,0.19115 1.36992,0.31858 0.76461,0.12744 1.51329,0.33452 0.74868,0.19115 1.36992,0.50974 0.62125,0.30266 1.00355,0.95576 0.39823,0.6531 0.39823,1.59293 0,1.59293 -1.22655,2.53277 -1.21063,0.9239 -3.28145,0.9239 -2.1186,0 -3.3133,-0.90798 -1.17877,-0.9239 -1.17877,-2.69205 v -0.0956 h 1.78409 q 0,2.19825 2.72391,2.19825 1.29028,0 1.99117,-0.49381 0.71682,-0.50974 0.71682,-1.38585 0,-0.60532 -0.39823,-0.98762 -0.38231,-0.39823 -1.00355,-0.57346 -0.60532,-0.19115 -1.35399,-0.31858 -0.74868,-0.14337 -1.51329,-0.33452 -0.74868,-0.20708 -1.36992,-0.52567 -0.60532,-0.33451 -1.00355,-0.98762 -0.38231,-0.6531 -0.38231,-1.60886 0,-1.577 1.16285,-2.5009 1.17877,-0.93983 3.16993,-0.93983 2.08675,0 3.23366,0.9239 1.16284,0.90797 1.16284,2.67612 z"
     style=""
     id="path869" /><path
     d="m -283.48941,669.9861 v 0.0797 q 0,1.22656 -0.97169,1.97524 -0.97169,0.74868 -2.59648,0.74868 -1.62479,0 -2.64427,-0.84426 -1.01948,-0.86018 -1.01948,-2.34161 v -2.0071 q 0,-1.56107 1.01948,-2.5009 1.01948,-0.93983 2.62834,-0.93983 1.60886,0 2.61241,0.93983 1.00355,0.9239 1.00355,2.51683 v 1.41771 h -5.71863 v 0.47788 q 0,0.93983 0.57345,1.43364 0.58939,0.47788 1.54515,0.47788 2.02302,0 2.02302,-1.43364 z m -1.49736,-2.15046 v -0.25487 q 0,-0.98762 -0.55752,-1.51328 -0.5416,-0.5416 -1.52922,-0.5416 -0.98762,0 -1.54515,0.5416 -0.55752,0.54159 -0.55752,1.52921 v 0.23894 z"
     style=""
     id="path871" /><path
     d="m -276.82672,672.00913 h -2.86728 v 0.36637 q 0,1.03541 0.49381,1.52922 0.50974,0.50974 1.72037,0.50974 2.26196,0 2.26196,-1.33807 0,-0.58938 -0.41416,-0.82832 -0.39823,-0.23894 -1.1947,-0.23894 z m -1.48143,-3.67968 h 0.6531 q 1.78409,0 1.78409,-1.40178 0,-1.35399 -1.60886,-1.35399 h -0.78054 q -0.8124,0 -1.22656,0.31858 -0.41416,0.30266 -0.41416,1.0832 0,1.35399 1.59293,1.35399 z m 0.8124,1.22656 h -2.46905 q -0.63717,0 -0.63717,0.60532 0,0.58938 0.60531,0.58938 h 3.34516 q 2.97879,0 2.97879,2.2779 0,1.27434 -1.03541,1.9593 -1.03541,0.70089 -2.75577,0.70089 -3.67968,0 -3.67968,-3.23365 v -0.8124 q -0.82832,-0.3823 -0.82832,-1.48142 0,-0.63718 0.31858,-1.05134 0.31859,-0.41416 0.84426,-0.55753 -0.0637,-0.0478 -0.17523,-0.15929 -0.0956,-0.12744 -0.27079,-0.5416 -0.17523,-0.41416 -0.17523,-0.90797 0,-1.30621 0.8124,-1.99117 0.8124,-0.68496 2.19825,-0.68496 h 4.7788 v 1.38585 h -1.25842 q 0.49381,0.35045 0.49381,1.30621 0,1.21063 -0.84426,1.91152 -0.82832,0.68496 -2.24603,0.68496 z"
     style=""
     id="path873" /><path
     d="m -265.11592,672.6463 h -1.62479 v -5.59119 q 0,-0.60532 -0.33452,-0.98762 -0.31858,-0.39824 -0.90797,-0.39824 -0.5416,0 -1.25842,0.41417 l -1.36992,0.81239 v 5.75049 h -1.59293 v -8.37883 h 1.577 v 1.09913 l 0.95576,-0.58939 q 0.93983,-0.58938 1.99117,-0.58938 1.17877,0 1.86373,0.73274 0.70089,0.73275 0.70089,1.94338 z"
     style=""
     id="path875" /><path
     d="m -257.54973,670.17725 v -1.06726 h -2.50091 q -1.59293,0 -1.59293,1.21063 0,0.49381 0.28672,0.78054 0.28673,0.27079 0.8124,0.27079 0.78054,0 1.62479,-0.46195 z m 1.59293,2.46905 h -1.59293 v -1.08319 l -0.92391,0.50974 q -1.24248,0.66903 -2.34161,0.66903 -1.09912,0 -1.78408,-0.65311 -0.66904,-0.6531 -0.66904,-1.70443 0,-1.22656 0.84426,-1.87967 0.86018,-0.6531 2.19825,-0.6531 h 2.69205 v -0.52567 q 0,-1.83187 -1.92744,-1.83187 -2.03896,0 -2.03896,1.64072 h -1.577 v -0.0796 q 0,-1.36993 0.98762,-2.15046 1.00354,-0.78054 2.61241,-0.78054 1.65665,0 2.58055,0.82832 0.93983,0.8124 0.93983,2.29383 z"
     style=""
     id="path877" /><path
     d="m -252.17658,672.6463 h -1.64072 v -11.85142 h 1.64072 z"
     style=""
     id="path879" /><path
     d="m -244.54493,670.17725 v -1.06726 h -2.5009 q -1.59294,0 -1.59294,1.21063 0,0.49381 0.28673,0.78054 0.28673,0.27079 0.8124,0.27079 0.78053,0 1.62479,-0.46195 z m 1.59293,2.46905 h -1.59293 v -1.08319 l -0.9239,0.50974 q -1.24249,0.66903 -2.34161,0.66903 -1.09913,0 -1.78409,-0.65311 -0.66903,-0.6531 -0.66903,-1.70443 0,-1.22656 0.84426,-1.87967 0.86018,-0.6531 2.19824,-0.6531 h 2.69206 v -0.52567 q 0,-1.83187 -1.92745,-1.83187 -2.03895,0 -2.03895,1.64072 h -1.57701 v -0.0796 q 0,-1.36993 0.98762,-2.15046 1.00355,-0.78054 2.61241,-0.78054 1.65665,0 2.58055,0.82832 0.93983,0.8124 0.93983,2.29383 z"
     style=""
     id="path881" /><path
     d="m -229.19901,672.6463 h -1.577 v -1.09912 l -0.95576,0.58938 q -1.00355,0.60532 -1.99117,0.58939 -1.17877,0 -1.87966,-0.71682 -0.68496,-0.73275 -0.68496,-1.94338 v -5.79828 h 1.62479 v 5.60713 q 0,0.62124 0.33452,1.00355 0.33451,0.36637 0.90797,0.36637 0.5416,0 1.25842,-0.41416 l 1.36992,-0.8124 v -5.75049 h 1.59293 z"
     style=""
     id="path883" /><path
     d="m -219.81688,672.6463 h -1.62479 v -5.59119 q 0,-0.60532 -0.33452,-0.98762 -0.31858,-0.39824 -0.90797,-0.39824 -0.5416,0 -1.25842,0.41417 l -1.36992,0.81239 v 5.75049 h -1.59293 v -8.37883 h 1.577 v 1.09913 l 0.95576,-0.58939 q 0.93983,-0.58938 1.99117,-0.58938 1.17877,0 1.86373,0.73274 0.70089,0.73275 0.70089,1.94338 z"
     style=""
     id="path885" /><path
     d="m -304.43549,690.08892 v -1.06726 h -2.5009 q -1.59294,0 -1.59294,1.21062 0,0.49381 0.28673,0.78054 0.28673,0.2708 0.8124,0.2708 0.78054,0 1.62479,-0.46195 z m 1.59294,2.46905 h -1.59294 v -1.0832 l -0.9239,0.50974 q -1.24249,0.66903 -2.34161,0.66903 -1.09912,0 -1.78409,-0.6531 -0.66903,-0.6531 -0.66903,-1.70444 0,-1.22656 0.84426,-1.87966 0.86018,-0.6531 2.19824,-0.6531 h 2.69206 v -0.52567 q 0,-1.83187 -1.92745,-1.83187 -2.03895,0 -2.03895,1.64072 h -1.57701 v -0.0797 q 0,-1.36992 0.98762,-2.15046 1.00355,-0.78054 2.61241,-0.78054 1.65665,0 2.58056,0.82833 0.93983,0.8124 0.93983,2.29382 z"
     style=""
     id="path887" /><path
     d="m -297.08336,692.55797 h -1.81594 l -2.99472,-8.37883 h 1.76816 l 2.16639,6.54695 2.19825,-6.54695 h 1.67258 z"
     style=""
     id="path889" /><path
     d="m -288.74161,692.55797 h -1.81594 l -2.99472,-8.37883 h 1.76816 l 2.16639,6.54695 2.19824,-6.54695 h 1.67258 z"
     style=""
     id="path891" /><path
     d="m -282.66557,692.55797 h -1.64072 v -8.37883 h 1.64072 z m 0.11151,-11.11868 v 0.33452 q 0,0.36637 -0.2708,0.58938 -0.25487,0.22301 -0.6531,0.22301 -0.43009,0 -0.68496,-0.20708 -0.25487,-0.22301 -0.25487,-0.60531 v -0.33452 q 0,-0.3823 0.25487,-0.58938 0.25487,-0.22301 0.68496,-0.22301 0.39823,0 0.6531,0.22301 0.2708,0.22301 0.2708,0.58938 z"
     style=""
     id="path893" /><path
     d="m -273.63438,686.85527 h -1.59293 q 0,-1.43364 -1.87966,-1.43364 -0.89205,0 -1.36993,0.31858 -0.46195,0.31859 -0.46195,0.84426 0,0.49381 0.39824,0.76461 0.39823,0.27079 0.98761,0.33451 0.58939,0.0637 1.27435,0.19115 0.70089,0.12744 1.29028,0.30266 0.58938,0.15929 0.98761,0.6531 0.39824,0.49381 0.39824,1.29028 0,1.17877 -0.93983,1.87966 -0.93983,0.68496 -2.58055,0.68496 -1.65665,0 -2.61241,-0.74868 -0.93984,-0.74868 -0.93984,-1.97523 v -0.0797 h 1.64073 q 0,1.44957 1.94337,1.44957 0.92391,0 1.41771,-0.30266 0.50974,-0.31859 0.50974,-0.84425 0,-0.52567 -0.55752,-0.76461 -0.5416,-0.23894 -1.32214,-0.33452 -0.78053,-0.0956 -1.577,-0.25487 -0.78054,-0.15929 -1.33807,-0.70089 -0.54159,-0.55752 -0.54159,-1.51328 0,-1.17877 0.90797,-1.86374 0.9239,-0.68496 2.51683,-0.68496 1.64072,0 2.53277,0.74868 0.90797,0.73275 0.90797,1.97524 z"
     style=""
     id="path895" /><path
     d="m -266.96124,692.55797 h -1.05133 q -1.43364,0 -2.26197,-0.73275 -0.82832,-0.73275 -0.82832,-2.13453 v -4.10977 h -1.33807 v -1.40178 h 1.354 v -2.26197 h 1.62479 v 2.26197 h 2.43719 v 1.40178 h -2.43719 v 4.03012 q 0,0.82833 0.36637,1.17877 0.38231,0.33452 1.17877,0.33452 h 0.95576 z"
     style=""
     id="path897" /><path
     d="m -259.94536,690.08892 v -1.06726 h -2.50091 q -1.59293,0 -1.59293,1.21062 0,0.49381 0.28673,0.78054 0.28673,0.2708 0.8124,0.2708 0.78053,0 1.62479,-0.46195 z m 1.59293,2.46905 h -1.59293 v -1.0832 l -0.9239,0.50974 q -1.24249,0.66903 -2.34161,0.66903 -1.09913,0 -1.78409,-0.6531 -0.66903,-0.6531 -0.66903,-1.70444 0,-1.22656 0.84425,-1.87966 0.86019,-0.6531 2.19825,-0.6531 h 2.69206 v -0.52567 q 0,-1.83187 -1.92745,-1.83187 -2.03895,0 -2.03895,1.64072 h -1.57701 v -0.0797 q 0,-1.36992 0.98762,-2.15046 1.00355,-0.78054 2.61241,-0.78054 1.65665,0 2.58055,0.82833 0.93983,0.8124 0.93983,2.29382 z"
     style=""
     id="path899" /><path
     d="m -244.95088,692.55797 h -1.60886 v -5.79828 q 0,-1.16284 -0.97169,-1.16284 -0.46195,0 -1.13098,0.3823 l -1.13099,0.66903 v 5.90979 h -1.59293 v -5.79828 q 0,-1.14691 -0.98762,-1.14691 -0.49381,0 -1.11505,0.36637 l -1.13098,0.66903 v 5.90979 h -1.59294 v -8.37883 h 1.56108 v 0.98762 l 0.79646,-0.47788 q 0.89205,-0.57346 1.83188,-0.57346 1.44957,0 1.9593,1.17877 l 0.95576,-0.58938 q 0.98762,-0.58939 1.92745,-0.58939 1.05134,0 1.64072,0.6531 0.58939,0.63718 0.58939,1.80002 z"
     style=""
     id="path901" /><path
     d="m -235.73253,689.89777 v 0.0797 q 0,1.22655 -0.97169,1.97523 -0.97169,0.74868 -2.59648,0.74868 -1.62479,0 -2.64427,-0.84425 -1.01947,-0.86019 -1.01947,-2.34162 v -2.00709 q 0,-1.56108 1.01947,-2.50091 1.01948,-0.93983 2.62834,-0.93983 1.60887,0 2.61241,0.93983 1.00355,0.9239 1.00355,2.51684 v 1.41771 h -5.71863 v 0.47788 q 0,0.93983 0.57346,1.43364 0.58938,0.47788 1.54514,0.47788 2.02303,0 2.02303,-1.43364 z m -1.49735,-2.15046 v -0.25487 q 0,-0.98762 -0.55753,-1.51329 -0.5416,-0.54159 -1.52922,-0.54159 -0.98762,0 -1.54514,0.54159 -0.55753,0.5416 -0.55753,1.52922 v 0.23894 z"
     style=""
     id="path903" /><path
     d="m -226.53707,692.55797 h -1.62479 v -5.5912 q 0,-0.60531 -0.33451,-0.98762 -0.31859,-0.39823 -0.90798,-0.39823 -0.54159,0 -1.25841,0.41416 l -1.36993,0.8124 v 5.75049 h -1.59293 v -8.37883 h 1.57701 v 1.09912 l 0.95576,-0.58938 q 0.93983,-0.58939 1.99116,-0.58939 1.17877,0 1.86373,0.73275 0.70089,0.73275 0.70089,1.94338 z"
     style=""
     id="path905" /><path
     d="m -219.81289,692.55797 h -1.05133 q -1.43364,0 -2.26197,-0.73275 -0.82832,-0.73275 -0.82832,-2.13453 v -4.10977 h -1.33807 v -1.40178 h 1.354 v -2.26197 h 1.62479 v 2.26197 h 2.43719 v 1.40178 h -2.43719 v 4.03012 q 0,0.82833 0.36637,1.17877 0.38231,0.33452 1.17877,0.33452 h 0.95576 z"
     style=""
     id="path907" /><path
     d="m -212.80698,689.13316 v -1.48143 q 0,-1.01947 -0.60531,-1.59293 -0.58939,-0.57346 -1.56108,-0.57346 -0.98762,0 -1.577,0.57346 -0.58939,0.57346 -0.58939,1.59293 v 1.48143 q 0,1.01948 0.58939,1.60886 0.58938,0.57346 1.577,0.57346 0.97169,0 1.56108,-0.57346 0.60531,-0.57345 0.60531,-1.60886 z m 1.56107,-1.62479 v 1.78408 q 0,1.56108 -1.05133,2.50091 -1.03541,0.93983 -2.67613,0.93983 -1.64072,0 -2.69206,-0.93983 -1.0354,-0.93983 -1.0354,-2.50091 v -1.78408 q 0,-1.56108 1.0354,-2.50091 1.05134,-0.93983 2.69206,-0.93983 1.64072,0 2.67613,0.93983 1.05133,0.93983 1.05133,2.50091 z"
     style=""
     id="path909" /></g>
</svg>