<?xml version="1.0" encoding="UTF-8" standalone="no"?>
<!-- Generator: Adobe Illustrator 19.1.0, SVG Export Plug-In . SVG Version: 6.00 Build 0)  -->

<svg
   xmlns:dc="http://purl.org/dc/elements/1.1/"
   xmlns:cc="http://creativecommons.org/ns#"
   xmlns:rdf="http://www.w3.org/1999/02/22-rdf-syntax-ns#"
   xmlns:svg="http://www.w3.org/2000/svg"
   xmlns="http://www.w3.org/2000/svg"
   xmlns:sodipodi="http://sodipodi.sourceforge.net/DTD/sodipodi-0.dtd"
   xmlns:inkscape="http://www.inkscape.org/namespaces/inkscape"
   version="1.1"
   id="Calque_1"
   x="0px"
   y="0px"
   viewBox="-330 571.3 138.7 138.7"
   style="enable-background:new -330 571.3 138.7 138.7;"
   xml:space="preserve"
   sodipodi:docname="main_menu_logo_species_records-ro.svg"
   inkscape:version="0.92.4 (5da689c313, 2019-01-14)"><metadata
   id="metadata67"><rdf:RDF><cc:Work
       rdf:about=""><dc:format>image/svg+xml</dc:format><dc:type
         rdf:resource="http://purl.org/dc/dcmitype/StillImage" /><dc:title></dc:title></cc:Work></rdf:RDF></metadata><defs
   id="defs65" /><sodipodi:namedview
   pagecolor="#ffffff"
   bordercolor="#666666"
   borderopacity="1"
   objecttolerance="10"
   gridtolerance="10"
   guidetolerance="10"
   inkscape:pageopacity="0"
   inkscape:pageshadow="2"
   inkscape:window-width="1920"
   inkscape:window-height="1017"
   id="namedview63"
   showgrid="false"
   inkscape:zoom="4"
   inkscape:cx="-25.507931"
   inkscape:cy="69.349998"
   inkscape:window-x="1912"
   inkscape:window-y="-8"
   inkscape:window-maximized="1"
   inkscape:current-layer="Calque_1" /><style
   type="text/css"
   id="style2">
	.st0{fill:#D3D501;}
	.st1{fill:#40637D;}
	.st2{fill:#FFFFFF;}
</style><g
   id="g6"
   transform="translate(-0.0890582)"><path
     class="st0"
     d="m -330,640.7 c 0,-38.3 31,-69.3 69.3,-69.3 38.3,0 69.3,31 69.3,69.3 0,38.3 -31,69.3 -69.3,69.3 -38.3,0 -69.3,-31 -69.3,-69.3"
     id="path4"
     inkscape:connector-curvature="0"
     style="fill:#d3d501" /></g><g
   id="g60"
   transform="translate(0.4109418,1.2999969)"><g
     id="g46"><path
       class="st2"
       d="m -249.7,639.4 c -0.4,0.6 -1.1,1.1 -1.9,1.3 l -3.7,1 c -0.3,0.1 -0.6,0.1 -0.9,0.1 -0.7,0 -1.4,-0.2 -1.9,-0.6 -0.8,-0.6 -1.3,-1.5 -1.4,-2.5 l -0.3,-3.9 c -0.1,-0.8 0.1,-1.6 0.6,-2.2 l 0.1,-0.2 h -13.4 c -1.1,0 -2,-0.9 -2,-2 0,-1.1 0.9,-2 2,-2 h 16.2 l 3.6,-5.2 h -19.8 c -1.1,0 -2,-0.9 -2,-2 0,-1.1 0.9,-2 2,-2 l 22.6,-0.1 8.5,-12.1 v -9 c 0,-1.5 -1.1,-2.7 -2.6,-2.7 h -6.5 v 5.1 c 0,2.4 -2,4.3 -4.4,4.3 h -13 c -2.4,0 -4.3,-1.9 -4.3,-4.3 v -5.1 h -6.5 c -1.5,0 -2.7,1.2 -2.7,2.7 v 45.9 c 0,1.5 1.2,2.7 2.7,2.7 h 34.8 c 1.5,0 2.6,-1.3 2.6,-2.7 v -16.4 z m -22.8,-29.1 h 22 c 1.1,0 2,0.9 2,2 0,1.1 -0.9,2 -2,2 h -22 c -1.1,0 -2,-0.9 -2,-2 0,-1.1 0.9,-2 2,-2"
       id="path44"
       inkscape:connector-curvature="0"
       style="fill:#ffffff" /></g><g
     id="g50"><path
       class="st2"
       d="m -268,602.5 h 13 c 1,0 1.8,-0.8 1.8,-1.8 v -7.5 c 0,-1 -0.8,-1.8 -1.8,-1.8 h -2 c 0,-2.5 -2.1,-4.6 -4.6,-4.6 -2.5,0 -4.6,2 -4.6,4.6 h -1.9 c -1,0 -1.8,0.8 -1.8,1.8 v 7.5 c 0.1,1 0.9,1.8 1.9,1.8 m 6.5,-13.1 c 1.1,0 2,0.9 2,2 h -4.1 c 0.1,-1.1 1,-2 2.1,-2"
       id="path48"
       inkscape:connector-curvature="0"
       style="fill:#ffffff" /></g><g
     id="g54"><path
       class="st2"
       d="m -225,598.9 c -0.1,-0.3 -0.2,-0.6 -0.5,-0.8 l -3.3,-2.3 c -0.2,-0.2 -0.5,-0.2 -0.7,-0.2 -0.4,0 -0.8,0.2 -1,0.5 l -23.1,33.1 5.3,3.7 23.1,-33.1 c 0.2,-0.2 0.2,-0.6 0.2,-0.9"
       id="path52"
       inkscape:connector-curvature="0"
       style="fill:#ffffff" /></g><g
     id="g58"><path
       class="st2"
       d="m -257.3,634.6 0.3,3.9 c 0,0.2 0.1,0.4 0.3,0.5 0.1,0.1 0.3,0.1 0.4,0.1 0.1,0 0.1,0 0.2,0 l 3.8,-1 c 0.2,0 0.3,-0.2 0.4,-0.3 l 1.4,-2 -5.3,-3.7 -1.4,2 c -0.1,0.2 -0.1,0.4 -0.1,0.5"
       id="path56"
       inkscape:connector-curvature="0"
       style="fill:#ffffff" /></g></g><g
   aria-label="Observațiile 
mele"
   style="font-style:normal;font-variant:normal;font-weight:normal;font-stretch:normal;font-size:15.92933273px;line-height:1.25;font-family:KonsensMedium;-inkscape-font-specification:'KonsensMedium, Normal';font-variant-ligatures:normal;font-variant-caps:normal;font-variant-numeric:normal;font-feature-settings:normal;text-align:start;letter-spacing:0px;word-spacing:0px;writing-mode:lr-tb;text-anchor:start;fill:#000000;fill-opacity:1;stroke:none"
   id="text71"><path
     d="m -296.92214,664.92635 v -2.0071 q 0,-3.50445 -3.24958,-3.50445 -3.26551,0 -3.26551,3.50445 v 2.0071 q 0,1.87966 0.87611,2.70798 0.89204,0.8124 2.37347,0.8124 1.4655,0 2.35754,-0.8124 0.90797,-0.82832 0.90797,-2.70798 z m 1.75223,-2.07082 v 2.13453 q 0,2.50091 -1.40178,3.7434 -1.40178,1.24249 -3.64782,1.24249 -2.24603,0 -3.61596,-1.22656 -1.35399,-1.24249 -1.35399,-3.75933 v -2.13453 q 0,-2.5009 1.40178,-3.74339 1.40178,-1.24249 3.61596,-1.24249 2.26196,0 3.63189,1.24249 1.36992,1.22656 1.36992,3.74339 z"
     style="font-style:normal;font-variant:normal;font-weight:normal;font-stretch:normal;font-size:15.92933273px;font-family:KonsensMedium;-inkscape-font-specification:'KonsensMedium, Normal';font-variant-ligatures:normal;font-variant-caps:normal;font-variant-numeric:normal;font-feature-settings:normal;text-align:center;writing-mode:lr-tb;text-anchor:middle;fill:#40637d;fill-opacity:1"
     id="path826" /><path
     d="m -287.14451,666.94937 v -2.53276 q 0,-0.70089 -0.39824,-1.11506 -0.39823,-0.43009 -1.06726,-0.43009 -0.6531,0 -1.32214,0.35045 l -1.48142,0.84425 v 3.23366 l 1.48142,0.82832 q 0.70089,0.36638 1.32214,0.36638 0.66903,0 1.06726,-0.41417 0.39824,-0.43009 0.39824,-1.13098 z m -3.24959,2.46905 -1.0354,-0.55753 v 0.98762 h -1.56108 v -11.85142 h 1.57701 v 4.508 l 1.01947,-0.57346 q 1.00355,-0.54159 1.99117,-0.54159 1.25842,0 2.03895,0.79646 0.79647,0.78054 0.79647,2.05489 v 2.86728 q 0,1.24248 -0.79647,2.05488 -0.79646,0.79647 -2.07081,0.79647 -0.95576,0 -1.95931,-0.5416 z"
     style="font-style:normal;font-variant:normal;font-weight:normal;font-stretch:normal;font-size:15.92933273px;font-family:KonsensMedium;-inkscape-font-specification:'KonsensMedium, Normal';font-variant-ligatures:normal;font-variant-caps:normal;font-variant-numeric:normal;font-feature-settings:normal;text-align:center;writing-mode:lr-tb;text-anchor:middle;fill:#40637d;fill-opacity:1"
     id="path828" /><path
     d="m -276.77999,664.14581 h -1.59294 q 0,-1.43364 -1.87966,-1.43364 -0.89204,0 -1.36992,0.31859 -0.46195,0.31858 -0.46195,0.84425 0,0.49381 0.39823,0.76461 0.39824,0.2708 0.98762,0.33451 0.58939,0.0637 1.27435,0.19116 0.70089,0.12743 1.29027,0.30265 0.58939,0.1593 0.98762,0.65311 0.39824,0.49381 0.39824,1.29027 0,1.17877 -0.93984,1.87966 -0.93983,0.68497 -2.58055,0.68497 -1.65665,0 -2.61241,-0.74868 -0.93983,-0.74868 -0.93983,-1.97524 v -0.0797 h 1.64072 q 0,1.44957 1.94338,1.44957 0.9239,0 1.41771,-0.30266 0.50974,-0.31858 0.50974,-0.84425 0,-0.52567 -0.55753,-0.76461 -0.54159,-0.23894 -1.32213,-0.33451 -0.78054,-0.0956 -1.577,-0.25487 -0.78054,-0.1593 -1.33807,-0.70089 -0.5416,-0.55753 -0.5416,-1.51329 0,-1.17877 0.90798,-1.86373 0.9239,-0.68496 2.51683,-0.68496 1.64072,0 2.53276,0.74868 0.90798,0.73274 0.90798,1.97523 z"
     style="font-style:normal;font-variant:normal;font-weight:normal;font-stretch:normal;font-size:15.92933273px;font-family:KonsensMedium;-inkscape-font-specification:'KonsensMedium, Normal';font-variant-ligatures:normal;font-variant-caps:normal;font-variant-numeric:normal;font-feature-settings:normal;text-align:center;writing-mode:lr-tb;text-anchor:middle;fill:#40637d;fill-opacity:1"
     id="path830" /><path
     d="m -267.78117,667.18831 v 0.0797 q 0,1.22656 -0.97169,1.97524 -0.97168,0.74867 -2.59648,0.74867 -1.62479,0 -2.64427,-0.84425 -1.01947,-0.86018 -1.01947,-2.34161 v -2.0071 q 0,-1.56107 1.01947,-2.5009 1.01948,-0.93983 2.62834,-0.93983 1.60887,0 2.61241,0.93983 1.00355,0.9239 1.00355,2.51683 v 1.41771 h -5.71863 v 0.47788 q 0,0.93983 0.57346,1.43364 0.58938,0.47788 1.54514,0.47788 2.02303,0 2.02303,-1.43364 z m -1.49735,-2.15046 v -0.25487 q 0,-0.98762 -0.55753,-1.51328 -0.5416,-0.5416 -1.52922,-0.5416 -0.98761,0 -1.54514,0.5416 -0.55753,0.54159 -0.55753,1.52921 v 0.23894 z"
     style="font-style:normal;font-variant:normal;font-weight:normal;font-stretch:normal;font-size:15.92933273px;font-family:KonsensMedium;-inkscape-font-specification:'KonsensMedium, Normal';font-variant-ligatures:normal;font-variant-caps:normal;font-variant-numeric:normal;font-feature-settings:normal;text-align:center;writing-mode:lr-tb;text-anchor:middle;fill:#40637d;fill-opacity:1"
     id="path832" /><path
     d="m -264.04947,669.84851 h -1.62479 v -8.37883 h 1.59293 v 1.27435 l 0.38231,-0.38231 q 1.00354,-0.9239 2.18231,-0.9239 h 0.4301 v 1.65665 h -0.41417 q -1.08319,0 -1.8478,0.63718 l -0.70089,0.57345 z"
     style="font-style:normal;font-variant:normal;font-weight:normal;font-stretch:normal;font-size:15.92933273px;font-family:KonsensMedium;-inkscape-font-specification:'KonsensMedium, Normal';font-variant-ligatures:normal;font-variant-caps:normal;font-variant-numeric:normal;font-feature-settings:normal;text-align:center;writing-mode:lr-tb;text-anchor:middle;fill:#40637d;fill-opacity:1"
     id="path834" /><path
     d="m -255.76622,669.84851 h -1.81594 l -2.99472,-8.37883 h 1.76816 l 2.16639,6.54696 2.19825,-6.54696 h 1.67258 z"
     style="font-style:normal;font-variant:normal;font-weight:normal;font-stretch:normal;font-size:15.92933273px;font-family:KonsensMedium;-inkscape-font-specification:'KonsensMedium, Normal';font-variant-ligatures:normal;font-variant-caps:normal;font-variant-numeric:normal;font-feature-settings:normal;text-align:center;writing-mode:lr-tb;text-anchor:middle;fill:#40637d;fill-opacity:1"
     id="path836" /><path
     d="m -246.32535,667.37946 v -1.06726 h -2.50091 q -1.59293,0 -1.59293,1.21063 0,0.49381 0.28673,0.78054 0.28673,0.27079 0.81239,0.27079 0.78054,0 1.6248,-0.46195 z m 1.59293,2.46905 h -1.59293 v -1.08319 l -0.9239,0.50973 q -1.24249,0.66904 -2.34161,0.66904 -1.09913,0 -1.78409,-0.65311 -0.66903,-0.6531 -0.66903,-1.70443 0,-1.22656 0.84425,-1.87967 0.86019,-0.6531 2.19825,-0.6531 h 2.69206 v -0.52567 q 0,-1.83187 -1.92745,-1.83187 -2.03896,0 -2.03896,1.64072 h -1.577 v -0.0797 q 0,-1.36992 0.98762,-2.15045 1.00355,-0.78054 2.61241,-0.78054 1.65665,0 2.58055,0.82832 0.93983,0.8124 0.93983,2.29383 z"
     style="font-style:normal;font-variant:normal;font-weight:normal;font-stretch:normal;font-size:15.92933273px;font-family:KonsensMedium;-inkscape-font-specification:'KonsensMedium, Normal';font-variant-ligatures:normal;font-variant-caps:normal;font-variant-numeric:normal;font-feature-settings:normal;text-align:center;writing-mode:lr-tb;text-anchor:middle;fill:#40637d;fill-opacity:1"
     id="path838" /><path
     d="m -237.78592,669.77073 q -0.41223,0.10889 -0.90225,0.17889 -0.48223,0.07 -0.86336,0.07 -1.33003,0 -2.02227,-0.71558 -0.69225,-0.71557 -0.69225,-2.29451 v -4.62013 h -0.9878 v -1.22892 h 0.9878 v -2.49674 h 1.46227 v 2.49674 h 3.01786 v 1.22892 h -3.01786 v 3.959 q 0,0.68447 0.0311,1.07337 0.0311,0.38112 0.21778,0.71557 0.17112,0.31112 0.46668,0.4589 0.30334,0.14001 0.91781,0.14001 0.35778,0 0.74668,-0.10112 0.3889,-0.10889 0.56002,-0.17889 h 0.0778 z m -1.68005,0.97225 -1.36115,2.39562 h -1.13558 l 0.7778,-2.39562 z"
     style="font-style:normal;font-variant:normal;font-weight:normal;font-stretch:normal;font-size:15.92933273px;font-family:KonsensMedium;-inkscape-font-specification:'KonsensMedium, Normal';font-variant-ligatures:normal;font-variant-caps:normal;font-variant-numeric:normal;font-feature-settings:normal;text-align:center;writing-mode:lr-tb;text-anchor:middle;fill:#40637d;fill-opacity:1"
     id="path840" /><path
     d="m -234.63198,669.84851 h -1.64072 v -8.37883 h 1.64072 z m 0.11151,-11.11867 v 0.33451 q 0,0.36638 -0.2708,0.58939 -0.25487,0.22301 -0.6531,0.22301 -0.43009,0 -0.68496,-0.20708 -0.25487,-0.22301 -0.25487,-0.60532 v -0.33451 q 0,-0.38231 0.25487,-0.58939 0.25487,-0.22301 0.68496,-0.22301 0.39823,0 0.6531,0.22301 0.2708,0.22301 0.2708,0.58939 z"
     style="font-style:normal;font-variant:normal;font-weight:normal;font-stretch:normal;font-size:15.92933273px;font-family:KonsensMedium;-inkscape-font-specification:'KonsensMedium, Normal';font-variant-ligatures:normal;font-variant-caps:normal;font-variant-numeric:normal;font-feature-settings:normal;text-align:center;writing-mode:lr-tb;text-anchor:middle;fill:#40637d;fill-opacity:1"
     id="path842" /><path
     d="m -230.61853,669.84851 h -1.64072 v -8.37883 h 1.64072 z m 0.11151,-11.11867 v 0.33451 q 0,0.36638 -0.2708,0.58939 -0.25487,0.22301 -0.6531,0.22301 -0.43009,0 -0.68496,-0.20708 -0.25487,-0.22301 -0.25487,-0.60532 v -0.33451 q 0,-0.38231 0.25487,-0.58939 0.25487,-0.22301 0.68496,-0.22301 0.39823,0 0.6531,0.22301 0.2708,0.22301 0.2708,0.58939 z"
     style="font-style:normal;font-variant:normal;font-weight:normal;font-stretch:normal;font-size:15.92933273px;font-family:KonsensMedium;-inkscape-font-specification:'KonsensMedium, Normal';font-variant-ligatures:normal;font-variant-caps:normal;font-variant-numeric:normal;font-feature-settings:normal;text-align:center;writing-mode:lr-tb;text-anchor:middle;fill:#40637d;fill-opacity:1"
     id="path844" /><path
     d="m -226.63694,669.84851 h -1.64072 v -11.85142 h 1.64072 z"
     style="font-style:normal;font-variant:normal;font-weight:normal;font-stretch:normal;font-size:15.92933273px;font-family:KonsensMedium;-inkscape-font-specification:'KonsensMedium, Normal';font-variant-ligatures:normal;font-variant-caps:normal;font-variant-numeric:normal;font-feature-settings:normal;text-align:center;writing-mode:lr-tb;text-anchor:middle;fill:#40637d;fill-opacity:1"
     id="path846" /><path
     d="m -217.34865,667.18831 v 0.0797 q 0,1.22656 -0.97169,1.97524 -0.97169,0.74867 -2.59648,0.74867 -1.62479,0 -2.64427,-0.84425 -1.01948,-0.86018 -1.01948,-2.34161 v -2.0071 q 0,-1.56107 1.01948,-2.5009 1.01948,-0.93983 2.62834,-0.93983 1.60886,0 2.61241,0.93983 1.00355,0.9239 1.00355,2.51683 v 1.41771 h -5.71863 v 0.47788 q 0,0.93983 0.57345,1.43364 0.58939,0.47788 1.54515,0.47788 2.02302,0 2.02302,-1.43364 z m -1.49736,-2.15046 v -0.25487 q 0,-0.98762 -0.55753,-1.51328 -0.54159,-0.5416 -1.52921,-0.5416 -0.98762,0 -1.54515,0.5416 -0.55752,0.54159 -0.55752,1.52921 v 0.23894 z"
     style="font-style:normal;font-variant:normal;font-weight:normal;font-stretch:normal;font-size:15.92933273px;font-family:KonsensMedium;-inkscape-font-specification:'KonsensMedium, Normal';font-variant-ligatures:normal;font-variant-caps:normal;font-variant-numeric:normal;font-feature-settings:normal;text-align:center;writing-mode:lr-tb;text-anchor:middle;fill:#40637d;fill-opacity:1"
     id="path848" /><path
     d="m -266.70145,689.91421 h -1.60887 v -5.79828 q 0,-1.16284 -0.97169,-1.16284 -0.46195,0 -1.13098,0.3823 l -1.13098,0.66904 v 5.90978 h -1.59294 v -5.79828 q 0,-1.14691 -0.98761,-1.14691 -0.49381,0 -1.11506,0.36637 l -1.13098,0.66904 v 5.90978 h -1.59293 v -8.37883 h 1.56107 v 0.98762 l 0.79647,-0.47788 q 0.89204,-0.57346 1.83187,-0.57346 1.44957,0 1.95931,1.17877 l 0.95576,-0.58938 q 0.98762,-0.58939 1.92745,-0.58939 1.05133,0 1.64072,0.6531 0.58939,0.63718 0.58939,1.80002 z"
     style="font-style:normal;font-variant:normal;font-weight:normal;font-stretch:normal;font-size:15.92933273px;font-family:KonsensMedium;-inkscape-font-specification:'KonsensMedium, Normal';font-variant-ligatures:normal;font-variant-caps:normal;font-variant-numeric:normal;font-feature-settings:normal;text-align:center;writing-mode:lr-tb;text-anchor:middle;fill:#40637d;fill-opacity:1"
     id="path850" /><path
     d="m -257.4831,687.25401 v 0.0797 q 0,1.22655 -0.97169,1.97523 -0.97169,0.74868 -2.59648,0.74868 -1.62479,0 -2.64427,-0.84425 -1.01948,-0.86019 -1.01948,-2.34161 v -2.0071 q 0,-1.56107 1.01948,-2.50091 1.01948,-0.93983 2.62834,-0.93983 1.60886,0 2.61241,0.93983 1.00355,0.92391 1.00355,2.51684 v 1.41771 h -5.71863 v 0.47788 q 0,0.93983 0.57345,1.43364 0.58939,0.47788 1.54515,0.47788 2.02302,0 2.02302,-1.43364 z m -1.49736,-2.15046 v -0.25487 q 0,-0.98762 -0.55752,-1.51329 -0.5416,-0.54159 -1.52922,-0.54159 -0.98762,0 -1.54515,0.54159 -0.55752,0.5416 -0.55752,1.52922 v 0.23894 z"
     style="font-style:normal;font-variant:normal;font-weight:normal;font-stretch:normal;font-size:15.92933273px;font-family:KonsensMedium;-inkscape-font-specification:'KonsensMedium, Normal';font-variant-ligatures:normal;font-variant-caps:normal;font-variant-numeric:normal;font-feature-settings:normal;text-align:center;writing-mode:lr-tb;text-anchor:middle;fill:#40637d;fill-opacity:1"
     id="path852" /><path
     d="m -253.73548,689.91421 h -1.64072 v -11.85143 h 1.64072 z"
     style="font-style:normal;font-variant:normal;font-weight:normal;font-stretch:normal;font-size:15.92933273px;font-family:KonsensMedium;-inkscape-font-specification:'KonsensMedium, Normal';font-variant-ligatures:normal;font-variant-caps:normal;font-variant-numeric:normal;font-feature-settings:normal;text-align:center;writing-mode:lr-tb;text-anchor:middle;fill:#40637d;fill-opacity:1"
     id="path854" /><path
     d="m -244.44718,687.25401 v 0.0797 q 0,1.22655 -0.97169,1.97523 -0.97169,0.74868 -2.59648,0.74868 -1.62479,0 -2.64427,-0.84425 -1.01948,-0.86019 -1.01948,-2.34161 v -2.0071 q 0,-1.56107 1.01948,-2.50091 1.01948,-0.93983 2.62834,-0.93983 1.60886,0 2.61241,0.93983 1.00355,0.92391 1.00355,2.51684 v 1.41771 h -5.71863 v 0.47788 q 0,0.93983 0.57345,1.43364 0.58939,0.47788 1.54515,0.47788 2.02302,0 2.02302,-1.43364 z m -1.49736,-2.15046 v -0.25487 q 0,-0.98762 -0.55753,-1.51329 -0.54159,-0.54159 -1.52921,-0.54159 -0.98762,0 -1.54515,0.54159 -0.55752,0.5416 -0.55752,1.52922 v 0.23894 z"
     style="font-style:normal;font-variant:normal;font-weight:normal;font-stretch:normal;font-size:15.92933273px;font-family:KonsensMedium;-inkscape-font-specification:'KonsensMedium, Normal';font-variant-ligatures:normal;font-variant-caps:normal;font-variant-numeric:normal;font-feature-settings:normal;text-align:center;writing-mode:lr-tb;text-anchor:middle;fill:#40637d;fill-opacity:1"
     id="path856" /></g>

</svg>