<?xml version="1.0" encoding="UTF-8" standalone="no"?>
<!-- Generator: Adobe Illustrator 19.1.0, SVG Export Plug-In . SVG Version: 6.00 Build 0)  -->

<svg
   xmlns:dc="http://purl.org/dc/elements/1.1/"
   xmlns:cc="http://creativecommons.org/ns#"
   xmlns:rdf="http://www.w3.org/1999/02/22-rdf-syntax-ns#"
   xmlns:svg="http://www.w3.org/2000/svg"
   xmlns="http://www.w3.org/2000/svg"
   xmlns:sodipodi="http://sodipodi.sourceforge.net/DTD/sodipodi-0.dtd"
   xmlns:inkscape="http://www.inkscape.org/namespaces/inkscape"
   version="1.1"
   id="Calque_1"
   x="0px"
   y="0px"
   viewBox="-330 571.3 138.7 138.7"
   style="enable-background:new -330 571.3 138.7 138.7;"
   xml:space="preserve"
   sodipodi:docname="main_menu_logo_species_records-en.svg"
   inkscape:version="0.92.4 (5da689c313, 2019-01-14)"><metadata
   id="metadata67"><rdf:RDF><cc:Work
       rdf:about=""><dc:format>image/svg+xml</dc:format><dc:type
         rdf:resource="http://purl.org/dc/dcmitype/StillImage" /><dc:title></dc:title></cc:Work></rdf:RDF></metadata><defs
   id="defs65" /><sodipodi:namedview
   pagecolor="#ffffff"
   bordercolor="#666666"
   borderopacity="1"
   objecttolerance="10"
   gridtolerance="10"
   guidetolerance="10"
   inkscape:pageopacity="0"
   inkscape:pageshadow="2"
   inkscape:window-width="1920"
   inkscape:window-height="1017"
   id="namedview63"
   showgrid="false"
   inkscape:zoom="4"
   inkscape:cx="-14.925"
   inkscape:cy="69.349998"
   inkscape:window-x="1912"
   inkscape:window-y="-8"
   inkscape:window-maximized="1"
   inkscape:current-layer="Calque_1" /><style
   type="text/css"
   id="style2">
	.st0{fill:#D3D501;}
	.st1{fill:#40637D;}
	.st2{fill:#FFFFFF;}
</style><g
   id="g6"
   transform="translate(-0.39109591)"><path
     class="st0"
     d="m -330,640.7 c 0,-38.3 31,-69.3 69.3,-69.3 38.3,0 69.3,31 69.3,69.3 0,38.3 -31,69.3 -69.3,69.3 -38.3,0 -69.3,-31 -69.3,-69.3"
     id="path4"
     inkscape:connector-curvature="0"
     style="fill:#d3d501" /></g><g
   id="g60"
   transform="translate(0.1089041,1.2999969)"><g
     id="g46"><path
       class="st2"
       d="m -249.7,639.4 c -0.4,0.6 -1.1,1.1 -1.9,1.3 l -3.7,1 c -0.3,0.1 -0.6,0.1 -0.9,0.1 -0.7,0 -1.4,-0.2 -1.9,-0.6 -0.8,-0.6 -1.3,-1.5 -1.4,-2.5 l -0.3,-3.9 c -0.1,-0.8 0.1,-1.6 0.6,-2.2 l 0.1,-0.2 h -13.4 c -1.1,0 -2,-0.9 -2,-2 0,-1.1 0.9,-2 2,-2 h 16.2 l 3.6,-5.2 h -19.8 c -1.1,0 -2,-0.9 -2,-2 0,-1.1 0.9,-2 2,-2 l 22.6,-0.1 8.5,-12.1 v -9 c 0,-1.5 -1.1,-2.7 -2.6,-2.7 h -6.5 v 5.1 c 0,2.4 -2,4.3 -4.4,4.3 h -13 c -2.4,0 -4.3,-1.9 -4.3,-4.3 v -5.1 h -6.5 c -1.5,0 -2.7,1.2 -2.7,2.7 v 45.9 c 0,1.5 1.2,2.7 2.7,2.7 h 34.8 c 1.5,0 2.6,-1.3 2.6,-2.7 v -16.4 z m -22.8,-29.1 h 22 c 1.1,0 2,0.9 2,2 0,1.1 -0.9,2 -2,2 h -22 c -1.1,0 -2,-0.9 -2,-2 0,-1.1 0.9,-2 2,-2"
       id="path44"
       inkscape:connector-curvature="0"
       style="fill:#ffffff" /></g><g
     id="g50"><path
       class="st2"
       d="m -268,602.5 h 13 c 1,0 1.8,-0.8 1.8,-1.8 v -7.5 c 0,-1 -0.8,-1.8 -1.8,-1.8 h -2 c 0,-2.5 -2.1,-4.6 -4.6,-4.6 -2.5,0 -4.6,2 -4.6,4.6 h -1.9 c -1,0 -1.8,0.8 -1.8,1.8 v 7.5 c 0.1,1 0.9,1.8 1.9,1.8 m 6.5,-13.1 c 1.1,0 2,0.9 2,2 h -4.1 c 0.1,-1.1 1,-2 2.1,-2"
       id="path48"
       inkscape:connector-curvature="0"
       style="fill:#ffffff" /></g><g
     id="g54"><path
       class="st2"
       d="m -225,598.9 c -0.1,-0.3 -0.2,-0.6 -0.5,-0.8 l -3.3,-2.3 c -0.2,-0.2 -0.5,-0.2 -0.7,-0.2 -0.4,0 -0.8,0.2 -1,0.5 l -23.1,33.1 5.3,3.7 23.1,-33.1 c 0.2,-0.2 0.2,-0.6 0.2,-0.9"
       id="path52"
       inkscape:connector-curvature="0"
       style="fill:#ffffff" /></g><g
     id="g58"><path
       class="st2"
       d="m -257.3,634.6 0.3,3.9 c 0,0.2 0.1,0.4 0.3,0.5 0.1,0.1 0.3,0.1 0.4,0.1 0.1,0 0.1,0 0.2,0 l 3.8,-1 c 0.2,0 0.3,-0.2 0.4,-0.3 l 1.4,-2 -5.3,-3.7 -1.4,2 c -0.1,0.2 -0.1,0.4 -0.1,0.5"
       id="path56"
       inkscape:connector-curvature="0"
       style="fill:#ffffff" /></g></g><g
   aria-label="My species
records"
   style="font-style:normal;font-variant:normal;font-weight:normal;font-stretch:normal;font-size:15.92933273px;line-height:1.25;font-family:KonsensMedium;-inkscape-font-specification:'KonsensMedium, Normal';font-variant-ligatures:normal;font-variant-caps:normal;font-variant-numeric:normal;font-feature-settings:normal;text-align:start;letter-spacing:0px;word-spacing:0px;writing-mode:lr-tb;text-anchor:start;fill:#000000;fill-opacity:1;stroke:none"
   id="text71"><path
     d="m -291.18695,669.9574 h -1.65666 v -9.57353 l -3.09029,9.57353 h -1.72036 l -3.05844,-9.5576 v 9.5576 h -1.64072 l 0.0159,-11.85143 h 2.62834 l 2.94693,9.57353 2.99471,-9.57353 h 2.58056 z"
     style="font-style:normal;font-variant:normal;font-weight:normal;font-stretch:normal;font-size:15.92933273px;font-family:KonsensMedium;-inkscape-font-specification:'KonsensMedium, Normal';font-variant-ligatures:normal;font-variant-caps:normal;font-variant-numeric:normal;font-feature-settings:normal;text-align:center;writing-mode:lr-tb;text-anchor:middle;fill:#40637d;fill-opacity:1"
     id="path826" /><path
     d="m -288.04141,672.88839 h -0.43009 v -1.40178 h 0.31859 q 0.57345,0 0.87611,-0.22301 0.30266,-0.22301 0.49381,-0.73275 l 0.36637,-0.95576 -3.26551,-7.99652 h 1.76816 l 2.34161,5.95757 2.00709,-5.95757 h 1.68851 l -3.40887,9.36645 q -0.66904,1.94337 -2.75578,1.94337 z"
     style="font-style:normal;font-variant:normal;font-weight:normal;font-stretch:normal;font-size:15.92933273px;font-family:KonsensMedium;-inkscape-font-specification:'KonsensMedium, Normal';font-variant-ligatures:normal;font-variant-caps:normal;font-variant-numeric:normal;font-feature-settings:normal;text-align:center;writing-mode:lr-tb;text-anchor:middle;fill:#40637d;fill-opacity:1"
     id="path828" /><path
     d="m -269.17311,664.2547 h -1.59294 q 0,-1.43364 -1.87966,-1.43364 -0.89204,0 -1.36992,0.31858 -0.46195,0.31859 -0.46195,0.84426 0,0.49381 0.39823,0.76461 0.39823,0.27079 0.98762,0.33451 0.58939,0.0637 1.27435,0.19115 0.70089,0.12744 1.29027,0.30266 0.58939,0.15929 0.98762,0.6531 0.39823,0.49381 0.39823,1.29028 0,1.17877 -0.93983,1.87966 -0.93983,0.68496 -2.58055,0.68496 -1.65665,0 -2.61241,-0.74868 -0.93983,-0.74868 -0.93983,-1.97523 v -0.0797 h 1.64072 q 0,1.44957 1.94338,1.44957 0.9239,0 1.41771,-0.30266 0.50974,-0.31859 0.50974,-0.84425 0,-0.52567 -0.55753,-0.76461 -0.54159,-0.23894 -1.32213,-0.33452 -0.78054,-0.0956 -1.57701,-0.25487 -0.78053,-0.15929 -1.33806,-0.70089 -0.5416,-0.55752 -0.5416,-1.51328 0,-1.17877 0.90798,-1.86374 0.9239,-0.68496 2.51683,-0.68496 1.64072,0 2.53276,0.74868 0.90798,0.73275 0.90798,1.97524 z"
     style="font-style:normal;font-variant:normal;font-weight:normal;font-stretch:normal;font-size:15.92933273px;font-family:KonsensMedium;-inkscape-font-specification:'KonsensMedium, Normal';font-variant-ligatures:normal;font-variant-caps:normal;font-variant-numeric:normal;font-feature-settings:normal;text-align:center;writing-mode:lr-tb;text-anchor:middle;fill:#40637d;fill-opacity:1"
     id="path830" /><path
     d="m -261.33713,667.0264 v -2.53276 q 0,-0.70089 -0.39823,-1.11506 -0.39823,-0.43009 -1.06727,-0.43009 -0.66903,0 -1.32213,0.36638 l -1.48143,0.82832 v 3.23366 l 1.48143,0.82832 q 0.6531,0.36638 1.32213,0.36638 0.66904,0 1.06727,-0.41417 0.39823,-0.43009 0.39823,-1.13098 z m -4.26906,5.86199 h -1.577 v -11.30982 h 1.56107 v 1.01948 l 1.03541,-0.57346 q 0.95576,-0.5416 1.99116,-0.5416 1.25842,0 2.03896,0.78054 0.79647,0.78054 0.79647,2.03895 v 2.86728 q 0,1.25842 -0.79647,2.07082 -0.79647,0.79646 -2.05488,0.79646 -1.01948,0 -1.97524,-0.54159 l -1.01948,-0.57346 z"
     style="font-style:normal;font-variant:normal;font-weight:normal;font-stretch:normal;font-size:15.92933273px;font-family:KonsensMedium;-inkscape-font-specification:'KonsensMedium, Normal';font-variant-ligatures:normal;font-variant-caps:normal;font-variant-numeric:normal;font-feature-settings:normal;text-align:center;writing-mode:lr-tb;text-anchor:middle;fill:#40637d;fill-opacity:1"
     id="path832" /><path
     d="m -250.65402,667.2972 v 0.0797 q 0,1.22655 -0.97169,1.97523 -0.97169,0.74868 -2.59648,0.74868 -1.62479,0 -2.64427,-0.84425 -1.01948,-0.86019 -1.01948,-2.34162 v -2.00709 q 0,-1.56108 1.01948,-2.50091 1.01948,-0.93983 2.62834,-0.93983 1.60886,0 2.61241,0.93983 1.00355,0.92391 1.00355,2.51684 v 1.41771 h -5.71863 v 0.47788 q 0,0.93983 0.57345,1.43364 0.58939,0.47788 1.54515,0.47788 2.02303,0 2.02303,-1.43364 z m -1.49736,-2.15046 v -0.25487 q 0,-0.98762 -0.55752,-1.51329 -0.5416,-0.54159 -1.52922,-0.54159 -0.98762,0 -1.54514,0.54159 -0.55753,0.5416 -0.55753,1.52922 v 0.23894 z"
     style="font-style:normal;font-variant:normal;font-weight:normal;font-stretch:normal;font-size:15.92933273px;font-family:KonsensMedium;-inkscape-font-specification:'KonsensMedium, Normal';font-variant-ligatures:normal;font-variant-caps:normal;font-variant-numeric:normal;font-feature-settings:normal;text-align:center;writing-mode:lr-tb;text-anchor:middle;fill:#40637d;fill-opacity:1"
     id="path834" /><path
     d="m -241.69751,666.85118 v 0.12743 q 0,1.49736 -0.95576,2.30976 -0.95576,0.81239 -2.59648,0.81239 -1.59293,0 -2.56462,-0.86018 -0.95576,-0.87612 -0.95576,-2.40533 v -2.1186 q 0,-1.51329 0.95576,-2.37347 0.97169,-0.87612 2.56462,-0.87612 1.64072,0 2.59648,0.8124 0.95576,0.79647 0.95576,2.29382 v 0.12744 h -1.56107 q 0,-1.81595 -1.99117,-1.81595 -1.92745,0 -1.92745,1.97524 v 1.83187 q 0,1.97524 1.92745,1.97524 1.99117,0 1.99117,-1.81594 z"
     style="font-style:normal;font-variant:normal;font-weight:normal;font-stretch:normal;font-size:15.92933273px;font-family:KonsensMedium;-inkscape-font-specification:'KonsensMedium, Normal';font-variant-ligatures:normal;font-variant-caps:normal;font-variant-numeric:normal;font-feature-settings:normal;text-align:center;writing-mode:lr-tb;text-anchor:middle;fill:#40637d;fill-opacity:1"
     id="path836" /><path
     d="m -238.00762,669.9574 h -1.64072 v -8.37883 h 1.64072 z m 0.1115,-11.11868 v 0.33452 q 0,0.36637 -0.2708,0.58938 -0.25487,0.22302 -0.6531,0.22302 -0.43009,0 -0.68496,-0.20709 -0.25487,-0.22301 -0.25487,-0.60531 v -0.33452 q 0,-0.3823 0.25487,-0.58938 0.25487,-0.22301 0.68496,-0.22301 0.39823,0 0.6531,0.22301 0.2708,0.22301 0.2708,0.58938 z"
     style="font-style:normal;font-variant:normal;font-weight:normal;font-stretch:normal;font-size:15.92933273px;font-family:KonsensMedium;-inkscape-font-specification:'KonsensMedium, Normal';font-variant-ligatures:normal;font-variant-caps:normal;font-variant-numeric:normal;font-feature-settings:normal;text-align:center;writing-mode:lr-tb;text-anchor:middle;fill:#40637d;fill-opacity:1"
     id="path838" /><path
     d="m -228.65785,667.2972 v 0.0797 q 0,1.22655 -0.97169,1.97523 -0.97169,0.74868 -2.59648,0.74868 -1.6248,0 -2.64427,-0.84425 -1.01948,-0.86019 -1.01948,-2.34162 v -2.00709 q 0,-1.56108 1.01948,-2.50091 1.01947,-0.93983 2.62834,-0.93983 1.60886,0 2.61241,0.93983 1.00355,0.92391 1.00355,2.51684 v 1.41771 h -5.71864 v 0.47788 q 0,0.93983 0.57346,1.43364 0.58939,0.47788 1.54515,0.47788 2.02302,0 2.02302,-1.43364 z m -1.49736,-2.15046 v -0.25487 q 0,-0.98762 -0.55753,-1.51329 -0.54159,-0.54159 -1.52921,-0.54159 -0.98762,0 -1.54515,0.54159 -0.55753,0.5416 -0.55753,1.52922 v 0.23894 z"
     style="font-style:normal;font-variant:normal;font-weight:normal;font-stretch:normal;font-size:15.92933273px;font-family:KonsensMedium;-inkscape-font-specification:'KonsensMedium, Normal';font-variant-ligatures:normal;font-variant-caps:normal;font-variant-numeric:normal;font-feature-settings:normal;text-align:center;writing-mode:lr-tb;text-anchor:middle;fill:#40637d;fill-opacity:1"
     id="path840" /><path
     d="m -219.86063,664.2547 h -1.59294 q 0,-1.43364 -1.87966,-1.43364 -0.89204,0 -1.36992,0.31858 -0.46195,0.31859 -0.46195,0.84426 0,0.49381 0.39823,0.76461 0.39824,0.27079 0.98762,0.33451 0.58939,0.0637 1.27435,0.19115 0.70089,0.12744 1.29027,0.30266 0.58939,0.15929 0.98762,0.6531 0.39824,0.49381 0.39824,1.29028 0,1.17877 -0.93984,1.87966 -0.93983,0.68496 -2.58055,0.68496 -1.65665,0 -2.61241,-0.74868 -0.93983,-0.74868 -0.93983,-1.97523 v -0.0797 h 1.64072 q 0,1.44957 1.94338,1.44957 0.9239,0 1.41771,-0.30266 0.50974,-0.31859 0.50974,-0.84425 0,-0.52567 -0.55753,-0.76461 -0.54159,-0.23894 -1.32213,-0.33452 -0.78054,-0.0956 -1.577,-0.25487 -0.78054,-0.15929 -1.33807,-0.70089 -0.5416,-0.55752 -0.5416,-1.51328 0,-1.17877 0.90798,-1.86374 0.9239,-0.68496 2.51683,-0.68496 1.64072,0 2.53276,0.74868 0.90798,0.73275 0.90798,1.97524 z"
     style="font-style:normal;font-variant:normal;font-weight:normal;font-stretch:normal;font-size:15.92933273px;font-family:KonsensMedium;-inkscape-font-specification:'KonsensMedium, Normal';font-variant-ligatures:normal;font-variant-caps:normal;font-variant-numeric:normal;font-feature-settings:normal;text-align:center;writing-mode:lr-tb;text-anchor:middle;fill:#40637d;fill-opacity:1"
     id="path842" /><path
     d="m -287.24345,689.86906 h -1.62479 v -8.37883 h 1.59293 v 1.27435 l 0.38231,-0.3823 q 1.00354,-0.9239 2.18231,-0.9239 h 0.4301 v 1.65665 h -0.41417 q -1.08319,0 -1.8478,0.63717 l -0.70089,0.57346 z"
     style="font-style:normal;font-variant:normal;font-weight:normal;font-stretch:normal;font-size:15.92933273px;font-family:KonsensMedium;-inkscape-font-specification:'KonsensMedium, Normal';font-variant-ligatures:normal;font-variant-caps:normal;font-variant-numeric:normal;font-feature-settings:normal;text-align:center;writing-mode:lr-tb;text-anchor:middle;fill:#40637d;fill-opacity:1"
     id="path844" /><path
     d="m -275.88584,687.20886 v 0.0797 q 0,1.22656 -0.97168,1.97524 -0.97169,0.74868 -2.59649,0.74868 -1.62479,0 -2.64426,-0.84426 -1.01948,-0.86018 -1.01948,-2.34161 v -2.0071 q 0,-1.56107 1.01948,-2.5009 1.01947,-0.93983 2.62833,-0.93983 1.60887,0 2.61242,0.93983 1.00354,0.9239 1.00354,2.51683 v 1.41771 h -5.71863 v 0.47788 q 0,0.93984 0.57346,1.43364 0.58938,0.47788 1.54514,0.47788 2.02303,0 2.02303,-1.43364 z m -1.49735,-2.15046 v -0.25486 q 0,-0.98762 -0.55753,-1.51329 -0.5416,-0.5416 -1.52922,-0.5416 -0.98761,0 -1.54514,0.5416 -0.55753,0.5416 -0.55753,1.52921 v 0.23894 z"
     style="font-style:normal;font-variant:normal;font-weight:normal;font-stretch:normal;font-size:15.92933273px;font-family:KonsensMedium;-inkscape-font-specification:'KonsensMedium, Normal';font-variant-ligatures:normal;font-variant-caps:normal;font-variant-numeric:normal;font-feature-settings:normal;text-align:center;writing-mode:lr-tb;text-anchor:middle;fill:#40637d;fill-opacity:1"
     id="path846" /><path
     d="m -266.92932,686.76284 v 0.12744 q 0,1.49736 -0.95576,2.30975 -0.95576,0.8124 -2.59648,0.8124 -1.59293,0 -2.56462,-0.86019 -0.95576,-0.87611 -0.95576,-2.40533 v -2.1186 q 0,-1.51328 0.95576,-2.37347 0.97169,-0.87611 2.56462,-0.87611 1.64072,0 2.59648,0.8124 0.95576,0.79646 0.95576,2.29382 v 0.12743 h -1.56107 q 0,-1.81594 -1.99117,-1.81594 -1.92745,0 -1.92745,1.97524 v 1.83187 q 0,1.97524 1.92745,1.97524 1.99117,0 1.99117,-1.81595 z"
     style="font-style:normal;font-variant:normal;font-weight:normal;font-stretch:normal;font-size:15.92933273px;font-family:KonsensMedium;-inkscape-font-specification:'KonsensMedium, Normal';font-variant-ligatures:normal;font-variant-caps:normal;font-variant-numeric:normal;font-feature-settings:normal;text-align:center;writing-mode:lr-tb;text-anchor:middle;fill:#40637d;fill-opacity:1"
     id="path848" /><path
     d="m -259.24118,686.44426 v -1.48143 q 0,-1.01948 -0.60531,-1.59293 -0.58939,-0.57346 -1.56108,-0.57346 -0.98761,0 -1.577,0.57346 -0.58938,0.57345 -0.58938,1.59293 v 1.48143 q 0,1.01947 0.58938,1.60886 0.58939,0.57346 1.577,0.57346 0.97169,0 1.56108,-0.57346 0.60531,-0.57346 0.60531,-1.60886 z m 1.56108,-1.6248 v 1.78409 q 0,1.56107 -1.05134,2.50091 -1.0354,0.93983 -2.67613,0.93983 -1.64072,0 -2.69205,-0.93983 -1.03541,-0.93984 -1.03541,-2.50091 v -1.78409 q 0,-1.56107 1.03541,-2.5009 1.05133,-0.93983 2.69205,-0.93983 1.64073,0 2.67613,0.93983 1.05134,0.93983 1.05134,2.5009 z"
     style="font-style:normal;font-variant:normal;font-weight:normal;font-stretch:normal;font-size:15.92933273px;font-family:KonsensMedium;-inkscape-font-specification:'KonsensMedium, Normal';font-variant-ligatures:normal;font-variant-caps:normal;font-variant-numeric:normal;font-feature-settings:normal;text-align:center;writing-mode:lr-tb;text-anchor:middle;fill:#40637d;fill-opacity:1"
     id="path850" /><path
     d="m -253.98474,689.86906 h -1.6248 v -8.37883 h 1.59294 v 1.27435 l 0.3823,-0.3823 q 1.00355,-0.9239 2.18232,-0.9239 h 0.43009 v 1.65665 h -0.41416 q -1.0832,0 -1.8478,0.63717 l -0.70089,0.57346 z"
     style="font-style:normal;font-variant:normal;font-weight:normal;font-stretch:normal;font-size:15.92933273px;font-family:KonsensMedium;-inkscape-font-specification:'KonsensMedium, Normal';font-variant-ligatures:normal;font-variant-caps:normal;font-variant-numeric:normal;font-feature-settings:normal;text-align:center;writing-mode:lr-tb;text-anchor:middle;fill:#40637d;fill-opacity:1"
     id="path852" /><path
     d="m -243.99705,687.32037 v -3.23365 l -1.49736,-0.84426 q -0.6531,-0.35044 -1.30621,-0.35044 -0.66903,0 -1.08319,0.43009 -0.39823,0.41416 -0.39823,1.11505 v 2.53276 q 0,0.7009 0.39823,1.13099 0.41416,0.41416 1.08319,0.41416 0.63718,0 1.30621,-0.36637 z m 1.577,2.54869 h -1.56107 v -1.00354 l -1.05134,0.57345 q -0.97169,0.5416 -1.99117,0.5416 -1.25841,0 -2.05488,-0.78054 -0.78054,-0.78054 -0.78054,-2.03895 v -2.86728 q 0,-1.25842 0.8124,-2.07082 0.81239,-0.81239 2.07081,-0.81239 0.97169,0 1.94338,0.5416 l 1.03541,0.57345 v -4.508 h 1.577 z"
     style="font-style:normal;font-variant:normal;font-weight:normal;font-stretch:normal;font-size:15.92933273px;font-family:KonsensMedium;-inkscape-font-specification:'KonsensMedium, Normal';font-variant-ligatures:normal;font-variant-caps:normal;font-variant-numeric:normal;font-feature-settings:normal;text-align:center;writing-mode:lr-tb;text-anchor:middle;fill:#40637d;fill-opacity:1"
     id="path854" /><path
     d="m -233.42545,684.16636 h -1.59293 q 0,-1.43364 -1.87966,-1.43364 -0.89205,0 -1.36993,0.31859 -0.46195,0.31859 -0.46195,0.84425 0,0.49381 0.39824,0.76461 0.39823,0.2708 0.98761,0.33452 0.58939,0.0637 1.27435,0.19115 0.70089,0.12743 1.29028,0.30266 0.58938,0.15929 0.98762,0.6531 0.39823,0.49381 0.39823,1.29028 0,1.17877 -0.93983,1.87966 -0.93983,0.68496 -2.58055,0.68496 -1.65665,0 -2.61241,-0.74868 -0.93983,-0.74868 -0.93983,-1.97524 v -0.0796 h 1.64072 q 0,1.44956 1.94338,1.44956 0.9239,0 1.41771,-0.30265 0.50973,-0.31859 0.50973,-0.84426 0,-0.52567 -0.55752,-0.76461 -0.5416,-0.23894 -1.32214,-0.33451 -0.78053,-0.0956 -1.577,-0.25487 -0.78054,-0.15929 -1.33806,-0.70089 -0.5416,-0.55753 -0.5416,-1.51329 0,-1.17877 0.90797,-1.86373 0.9239,-0.68496 2.51683,-0.68496 1.64073,0 2.53277,0.74868 0.90797,0.73275 0.90797,1.97523 z"
     style="font-style:normal;font-variant:normal;font-weight:normal;font-stretch:normal;font-size:15.92933273px;font-family:KonsensMedium;-inkscape-font-specification:'KonsensMedium, Normal';font-variant-ligatures:normal;font-variant-caps:normal;font-variant-numeric:normal;font-feature-settings:normal;text-align:center;writing-mode:lr-tb;text-anchor:middle;fill:#40637d;fill-opacity:1"
     id="path856" /></g>

</svg>