<?xml version="1.0" encoding="UTF-8" standalone="no"?>
<!-- Generator: Adobe Illustrator 19.1.0, SVG Export Plug-In . SVG Version: 6.00 Build 0)  -->

<svg
   xmlns:dc="http://purl.org/dc/elements/1.1/"
   xmlns:cc="http://creativecommons.org/ns#"
   xmlns:rdf="http://www.w3.org/1999/02/22-rdf-syntax-ns#"
   xmlns:svg="http://www.w3.org/2000/svg"
   xmlns="http://www.w3.org/2000/svg"
   xmlns:sodipodi="http://sodipodi.sourceforge.net/DTD/sodipodi-0.dtd"
   xmlns:inkscape="http://www.inkscape.org/namespaces/inkscape"
   version="1.1"
   id="Calque_1"
   x="0px"
   y="0px"
   viewBox="-330 571.3 138.60001 138.60001"
   xml:space="preserve"
   sodipodi:docname="main_menu_logo_links-mt.svg"
   inkscape:version="0.92.4 (5da689c313, 2019-01-14)"
   width="138.60001"
   height="138.60001"><metadata
   id="metadata31"><rdf:RDF><cc:Work
       rdf:about=""><dc:format>image/svg+xml</dc:format><dc:type
         rdf:resource="http://purl.org/dc/dcmitype/StillImage" /><dc:title /></cc:Work></rdf:RDF></metadata><defs
   id="defs29" /><sodipodi:namedview
   pagecolor="#ffffff"
   bordercolor="#666666"
   borderopacity="1"
   objecttolerance="10"
   gridtolerance="10"
   guidetolerance="10"
   inkscape:pageopacity="0"
   inkscape:pageshadow="2"
   inkscape:window-width="1920"
   inkscape:window-height="1017"
   id="namedview27"
   showgrid="false"
   inkscape:zoom="4"
   inkscape:cx="58.251447"
   inkscape:cy="93.857996"
   inkscape:window-x="-8"
   inkscape:window-y="-8"
   inkscape:window-maximized="1"
   inkscape:current-layer="text35"
   fit-margin-top="0"
   fit-margin-left="0"
   fit-margin-right="0"
   fit-margin-bottom="0" /><style
   type="text/css"
   id="style2">
	.st0{fill:#40637D;}
	.st1{fill:#FFFFFF;}
</style><g
   id="g6"
   transform="translate(0,-0.1)"><path
     class="st0"
     d="m -330,640.7 c 0,-38.3 31,-69.3 69.3,-69.3 38.3,0 69.3,31 69.3,69.3 0,38.3 -31,69.3 -69.3,69.3 -38.3,0 -69.3,-31 -69.3,-69.3"
     id="path4"
     inkscape:connector-curvature="0"
     style="fill:#40637d" /></g><g
   id="g24"
   transform="translate(-0.0437875,-6.09999)"><g
     id="g22"><path
       class="st1"
       d="m -235.3,620.9 -11.3,11.3 c -6.2,6.2 -16.3,6.2 -22.5,0 -1,-1 -1.7,-2.1 -2.4,-3.2 l 5.2,-5.2 c 0.2,-0.3 0.6,-0.4 0.8,-0.6 0.4,1.2 1,2.4 2,3.4 3.1,3.1 8.2,3.1 11.3,0 l 11.3,-11.3 c 3.1,-3.1 3.1,-8.2 0,-11.3 -3.1,-3.1 -8.2,-3.1 -11.3,0 l -4,4 c -3.2,-1.3 -6.7,-1.6 -10.2,-1.1 l 8.5,-8.5 c 6.2,-6.2 16.3,-6.2 22.5,0 6.3,6.2 6.3,16.3 0.1,22.5 m -29.8,18.6 -4,4 c -3.1,3.1 -8.2,3.1 -11.3,0 -3.1,-3.1 -3.1,-8.2 0,-11.3 l 11.3,-11.3 c 3.1,-3.1 8.2,-3.1 11.3,0 1,1 1.6,2.1 2,3.4 0.3,-0.2 0.6,-0.3 0.8,-0.6 l 5.2,-5.2 c -0.7,-1.1 -1.4,-2.2 -2.4,-3.2 -6.2,-6.2 -16.3,-6.2 -22.5,0 l -11.3,11.3 c -6.2,6.2 -6.2,16.3 0,22.5 6.2,6.2 16.3,6.2 22.5,0 l 8.5,-8.5 c -3.4,0.5 -6.9,0.1 -10.1,-1.1"
       id="path20"
       inkscape:connector-curvature="0"
       style="fill:#ffffff" /></g></g><g
   aria-label="Imsieħba u 
Ħoloq"
   style="font-style:normal;font-variant:normal;font-weight:normal;font-stretch:normal;font-size:15.46666718px;line-height:1.25;font-family:KonsensMedium;-inkscape-font-specification:'KonsensMedium, Normal';font-variant-ligatures:normal;font-variant-caps:normal;font-variant-numeric:normal;font-feature-settings:normal;text-align:center;letter-spacing:0px;word-spacing:0px;writing-mode:lr-tb;text-anchor:middle;fill:#ffffff;fill-opacity:1;stroke:none"
   id="text35"><path
     d="m -297.66735,669.09723 h -1.73226 v -11.5072 h 1.73226 z"
     style=""
     id="path820" /><path
     d="m -284.40347,669.09723 h -1.56213 v -5.62987 q 0,-1.12906 -0.94347,-1.12906 -0.44853,0 -1.09813,0.3712 l -1.09814,0.6496 v 5.73813 h -1.54667 v -5.62987 q 0,-1.1136 -0.95893,-1.1136 -0.47947,0 -1.08267,0.35574 l -1.09813,0.6496 v 5.73813 h -1.54667 v -8.13547 h 1.51574 v 0.95894 l 0.77333,-0.464 q 0.86613,-0.5568 1.77867,-0.5568 1.40746,0 1.9024,1.14453 l 0.928,-0.57227 q 0.95893,-0.57226 1.87147,-0.57226 1.0208,0 1.59306,0.63413 0.57227,0.61867 0.57227,1.74773 z"
     style=""
     id="path822" /><path
     d="m -275.7622,663.56016 h -1.54666 q 0,-1.392 -1.82507,-1.392 -0.86613,0 -1.33013,0.30934 -0.44854,0.30933 -0.44854,0.81973 0,0.47947 0.38667,0.7424 0.38667,0.26293 0.95893,0.3248 0.57227,0.0619 1.23734,0.1856 0.68053,0.12373 1.2528,0.29387 0.57226,0.15466 0.95893,0.63413 0.38667,0.47947 0.38667,1.2528 0,1.14453 -0.91254,1.82507 -0.91253,0.66506 -2.5056,0.66506 -1.60853,0 -2.53653,-0.72693 -0.91253,-0.72693 -0.91253,-1.91787 v -0.0773 h 1.59306 q 0,1.40747 1.88694,1.40747 0.89706,0 1.37653,-0.29387 0.49493,-0.30933 0.49493,-0.81973 0,-0.5104 -0.54133,-0.7424 -0.52587,-0.232 -1.28373,-0.3248 -0.75787,-0.0928 -1.5312,-0.24747 -0.75787,-0.15467 -1.2992,-0.68053 -0.52587,-0.54134 -0.52587,-1.46934 0,-1.14453 0.8816,-1.8096 0.89707,-0.66506 2.44373,-0.66506 1.59307,0 2.4592,0.72693 0.8816,0.71147 0.8816,1.91787 z"
     style=""
     id="path824" /><path
     d="m -272.20607,669.09723 h -1.59307 v -8.13547 h 1.59307 z m 0.10827,-10.79573 v 0.3248 q 0,0.35573 -0.26294,0.57226 -0.24746,0.21654 -0.63413,0.21654 -0.4176,0 -0.66507,-0.20107 -0.24746,-0.21653 -0.24746,-0.58773 v -0.3248 q 0,-0.3712 0.24746,-0.57227 0.24747,-0.21653 0.66507,-0.21653 0.38667,0 0.63413,0.21653 0.26294,0.21653 0.26294,0.57227 z"
     style=""
     id="path826" /><path
     d="m -263.12786,666.5143 v 0.0773 q 0,1.19093 -0.94347,1.91787 -0.94347,0.72693 -2.52107,0.72693 -1.5776,0 -2.56746,-0.81973 -0.98987,-0.8352 -0.98987,-2.2736 v -1.9488 q 0,-1.51574 0.98987,-2.42827 0.98986,-0.91253 2.552,-0.91253 1.56213,0 2.53653,0.91253 0.9744,0.89707 0.9744,2.44373 v 1.37654 h -5.55253 v 0.464 q 0,0.91253 0.5568,1.392 0.57226,0.464 1.50026,0.464 1.96427,0 1.96427,-1.392 z m -1.45387,-2.088 v -0.24747 q 0,-0.95893 -0.54133,-1.46933 -0.52587,-0.52587 -1.4848,-0.52587 -0.95894,0 -1.50027,0.52587 -0.54133,0.52586 -0.54133,1.4848 v 0.232 z"
     style=""
     id="path828" /><path
     d="m -253.74497,669.09723 h -1.41979 v -4.80313 q 0,-0.58151 -0.068,-1.0875 -0.068,-0.51354 -0.24922,-0.80052 -0.1888,-0.31718 -0.54375,-0.46823 -0.35495,-0.15859 -0.92135,-0.15859 -0.58151,0 -1.21589,0.28698 -0.63437,0.28698 -1.21589,0.73255 v 6.29844 h -1.41979 v -9.57604 h -1.25364 v -1.01198 h 1.25364 v -1.16302 h 1.41979 v 1.16302 h 2.42422 v 1.01198 h -2.42422 v 2.07682 q 0.66459,-0.5513 1.37448,-0.86094 0.7099,-0.30963 1.45756,-0.30963 1.36692,0 2.08437,0.82317 0.71745,0.82318 0.71745,2.37136 z"
     style=""
     id="path830" /><path
     d="m -245.61839,666.2823 v -2.4592 q 0,-0.68054 -0.38666,-1.08267 -0.38667,-0.4176 -1.03627,-0.4176 -0.63413,0 -1.28373,0.34027 l -1.4384,0.81973 v 3.13973 l 1.4384,0.80427 q 0.68053,0.35573 1.28373,0.35573 0.6496,0 1.03627,-0.40213 0.38666,-0.4176 0.38666,-1.09813 z m -3.1552,2.39733 -1.00533,-0.54133 v 0.95893 h -1.51573 v -11.5072 h 1.5312 v 4.37707 l 0.98986,-0.5568 q 0.9744,-0.52587 1.93334,-0.52587 1.22186,0 1.97973,0.77333 0.77333,0.75787 0.77333,1.9952 v 2.784 q 0,1.2064 -0.77333,1.9952 -0.77333,0.77334 -2.01067,0.77334 -0.928,0 -1.9024,-0.52587 z"
     style=""
     id="path832" /><path
     d="m -236.8541,666.6999 v -1.03627 h -2.42827 q -1.54667,0 -1.54667,1.17547 0,0.47946 0.2784,0.75786 0.2784,0.26294 0.7888,0.26294 0.75787,0 1.5776,-0.44854 z m 1.54666,2.39733 h -1.54666 v -1.05173 l -0.89707,0.49493 q -1.2064,0.6496 -2.2736,0.6496 -1.0672,0 -1.73227,-0.63413 -0.6496,-0.63414 -0.6496,-1.65494 0,-1.19093 0.81974,-1.82506 0.8352,-0.63414 2.1344,-0.63414 h 2.61386 v -0.5104 q 0,-1.77866 -1.87146,-1.77866 -1.97974,0 -1.97974,1.59306 h -1.5312 v -0.0773 q 0,-1.33013 0.95894,-2.088 0.9744,-0.75787 2.53653,-0.75787 1.60853,0 2.5056,0.80427 0.91253,0.7888 0.91253,2.2272 z"
     style=""
     id="path834" /><path
     d="m -221.9539,669.09723 h -1.5312 v -1.0672 l -0.928,0.57227 q -0.9744,0.58773 -1.93333,0.57226 -1.14454,0 -1.82507,-0.696 -0.66507,-0.71146 -0.66507,-1.88693 v -5.62987 h 1.5776 v 5.44427 q 0,0.6032 0.3248,0.9744 0.3248,0.35573 0.8816,0.35573 0.52587,0 1.22187,-0.40213 l 1.33013,-0.7888 v -5.58347 h 1.54667 z"
     style=""
     id="path836" /><path
     d="m -270.70695,680.20486 h -1.26875 v 8.37526 h -1.49531 v -5.50547 h -5.6112 v 5.50547 h -1.49532 v -8.37526 h -1.26875 v -1.05729 h 1.26875 v -1.8125 h 1.49532 v 1.8125 h 5.6112 v -1.8125 h 1.49531 v 1.8125 h 1.26875 z m -2.76406,1.54063 v -1.54063 h -5.6112 v 1.54063 z"
     style=""
     id="path838" /><path
     d="m -263.838,685.25479 v -1.4384 q 0,-0.98987 -0.58773,-1.54667 -0.57227,-0.5568 -1.51574,-0.5568 -0.95893,0 -1.5312,0.5568 -0.57226,0.5568 -0.57226,1.54667 v 1.4384 q 0,0.98986 0.57226,1.56213 0.57227,0.5568 1.5312,0.5568 0.94347,0 1.51574,-0.5568 0.58773,-0.5568 0.58773,-1.56213 z m 1.51573,-1.5776 v 1.73226 q 0,1.51574 -1.0208,2.42827 -1.00533,0.91253 -2.5984,0.91253 -1.59306,0 -2.61386,-0.91253 -1.00534,-0.91253 -1.00534,-2.42827 v -1.73226 q 0,-1.51574 1.00534,-2.42827 1.0208,-0.91253 2.61386,-0.91253 1.59307,0 2.5984,0.91253 1.0208,0.91253 1.0208,2.42827 z"
     style=""
     id="path840" /><path
     d="m -258.71877,688.58012 h -1.59307 v -11.5072 h 1.59307 z"
     style=""
     id="path842" /><path
     d="m -250.99946,685.25479 v -1.4384 q 0,-0.98987 -0.58773,-1.54667 -0.57227,-0.5568 -1.51573,-0.5568 -0.95894,0 -1.5312,0.5568 -0.57227,0.5568 -0.57227,1.54667 v 1.4384 q 0,0.98986 0.57227,1.56213 0.57226,0.5568 1.5312,0.5568 0.94346,0 1.51573,-0.5568 0.58773,-0.5568 0.58773,-1.56213 z m 1.51574,-1.5776 v 1.73226 q 0,1.51574 -1.0208,2.42827 -1.00534,0.91253 -2.5984,0.91253 -1.59307,0 -2.61387,-0.91253 -1.00533,-0.91253 -1.00533,-2.42827 v -1.73226 q 0,-1.51574 1.00533,-2.42827 1.0208,-0.91253 2.61387,-0.91253 1.59306,0 2.5984,0.91253 1.0208,0.91253 1.0208,2.42827 z"
     style=""
     id="path844" /><path
     d="m -241.9981,686.07452 v -3.13973 l -1.45386,-0.80427 q -0.6032,-0.35573 -1.26827,-0.35573 -0.6496,0 -1.05173,0.4176 -0.38667,0.40213 -0.38667,1.08266 v 2.4592 q 0,0.68054 0.38667,1.09814 0.40213,0.40213 1.05173,0.40213 0.66507,0 1.26827,-0.35573 z m 1.5312,5.35147 h -1.5312 v -3.8512 l -1.00533,0.5568 q -0.91253,0.52586 -1.93333,0.52586 -1.22187,0 -1.9952,-0.75786 -0.75787,-0.75787 -0.75787,-1.97974 v -2.784 q 0,-1.2064 0.7888,-1.9952 0.7888,-0.7888 2.01067,-0.7888 0.9744,0 1.88693,0.52587 l 1.0208,0.5568 v -0.98987 h 1.51573 z"
     style=""
     id="path846" /></g>





</svg>