<?xml version="1.0" encoding="UTF-8" standalone="no"?>
<!-- Generator: Adobe Illustrator 19.1.0, SVG Export Plug-In . SVG Version: 6.00 Build 0)  -->

<svg
   xmlns:dc="http://purl.org/dc/elements/1.1/"
   xmlns:cc="http://creativecommons.org/ns#"
   xmlns:rdf="http://www.w3.org/1999/02/22-rdf-syntax-ns#"
   xmlns:svg="http://www.w3.org/2000/svg"
   xmlns="http://www.w3.org/2000/svg"
   xmlns:sodipodi="http://sodipodi.sourceforge.net/DTD/sodipodi-0.dtd"
   xmlns:inkscape="http://www.inkscape.org/namespaces/inkscape"
   version="1.1"
   id="Calque_1"
   x="0px"
   y="0px"
   viewBox="-330 571.3 138.60001 138.60001"
   xml:space="preserve"
   sodipodi:docname="main_menu_logo_report_sighting-hu.svg"
   inkscape:version="0.92.4 (5da689c313, 2019-01-14)"
   width="138.60001"
   height="138.60001"><metadata
   id="metadata69"><rdf:RDF><cc:Work
       rdf:about=""><dc:format>image/svg+xml</dc:format><dc:type
         rdf:resource="http://purl.org/dc/dcmitype/StillImage" /><dc:title /></cc:Work></rdf:RDF></metadata><defs
   id="defs67" /><sodipodi:namedview
   pagecolor="#ffffff"
   bordercolor="#666666"
   borderopacity="1"
   objecttolerance="10"
   gridtolerance="10"
   guidetolerance="10"
   inkscape:pageopacity="0"
   inkscape:pageshadow="2"
   inkscape:window-width="2400"
   inkscape:window-height="1271"
   id="namedview65"
   showgrid="false"
   inkscape:zoom="4"
   inkscape:cx="-31.424988"
   inkscape:cy="69.350001"
   inkscape:window-x="2391"
   inkscape:window-y="-9"
   inkscape:window-maximized="1"
   inkscape:current-layer="Calque_1"
   fit-margin-top="0"
   fit-margin-left="0"
   fit-margin-right="0"
   fit-margin-bottom="0" /><style
   type="text/css"
   id="style2">
	.st0{fill:#7A9C2B;}
	.st1{fill:#FFFFFF;}
</style><g
   id="g6"
   transform="translate(0,-0.1)"><path
     class="st0"
     d="m -330,640.7 c 0,-38.3 31,-69.3 69.3,-69.3 38.3,0 69.3,31 69.3,69.3 0,38.3 -31,69.3 -69.3,69.3 -38.3,0 -69.3,-31 -69.3,-69.3"
     id="path4"
     style="fill:#7a9c2b;fill-opacity:1"
     inkscape:connector-curvature="0" /></g><g
   id="g62"
   transform="translate(0,-4.20001)"><g
     id="g44"><path
       class="st1"
       d="m -246.4,604.3 c -1.5,-0.4 -5.1,-1 -5.1,-1 0,0 -4.9,-3.9 -9.2,-3.9 -4.3,0 -9.2,3.9 -9.2,3.9 0,0 -3.6,0.6 -5.1,1 6.7,2.4 11.5,8.9 11.5,16.4 0,3.1 -0.8,6 -2.2,8.5 h 10 c -1.4,-2.5 -2.2,-5.4 -2.2,-8.5 0,-7.5 4.8,-13.9 11.5,-16.4"
       id="path42"
       inkscape:connector-curvature="0"
       style="fill:#ffffff" /></g><g
     id="g48"><path
       class="st1"
       d="m -281.9,605.1 c -9,0 -16.3,7.3 -16.3,16.3 0,9 7.3,16.3 16.3,16.3 9,0 16.3,-7.3 16.3,-16.3 0,-9 -7.3,-16.3 -16.3,-16.3 m 0,26.6 c -5.7,0 -10.3,-4.6 -10.3,-10.3 0,-5.7 4.6,-10.3 10.3,-10.3 5.7,0 10.3,4.6 10.3,10.3 0,5.6 -4.6,10.3 -10.3,10.3"
       id="path46"
       inkscape:connector-curvature="0"
       style="fill:#ffffff" /></g><g
     id="g52"><path
       class="st1"
       d="m -288.5,616.2 c -2.2,2.9 -2,6.9 0.3,9.5 -0.8,-2.7 -0.4,-5.8 1.5,-8.2 1.9,-2.4 4.7,-3.6 7.5,-3.5 -3.2,-1.5 -7.1,-0.7 -9.3,2.2"
       id="path50"
       inkscape:connector-curvature="0"
       style="fill:#ffffff" /></g><g
     id="g56"><path
       class="st1"
       d="m -239.5,605.1 c -9,0 -16.3,7.3 -16.3,16.3 0,9 7.3,16.3 16.3,16.3 9,0 16.3,-7.3 16.3,-16.3 0,-9 -7.3,-16.3 -16.3,-16.3 m 0,26.6 c -5.7,0 -10.3,-4.6 -10.3,-10.3 0,-5.7 4.6,-10.3 10.3,-10.3 5.7,0 10.3,4.6 10.3,10.3 0,5.6 -4.6,10.3 -10.3,10.3"
       id="path54"
       inkscape:connector-curvature="0"
       style="fill:#ffffff" /></g><g
     id="g60"><path
       class="st1"
       d="m -242.1,614 c 2.8,-0.1 5.7,1.1 7.5,3.5 1.9,2.4 2.3,5.5 1.5,8.2 2.3,-2.7 2.5,-6.6 0.3,-9.5 -2.2,-2.9 -6.1,-3.7 -9.3,-2.2"
       id="path58"
       inkscape:connector-curvature="0"
       style="fill:#ffffff" /></g></g><g
   aria-label="Megfigyelések 
rögzítése"
   style="font-style:normal;font-variant:normal;font-weight:normal;font-stretch:normal;font-size:15.46666718px;line-height:1.25;font-family:KonsensMedium;-inkscape-font-specification:'KonsensMedium, Normal';font-variant-ligatures:normal;font-variant-caps:normal;font-variant-numeric:normal;font-feature-settings:normal;text-align:center;letter-spacing:0px;word-spacing:0px;writing-mode:lr-tb;text-anchor:middle;fill:#ffffff;fill-opacity:1;stroke:none"
   id="text73"><path
     d="m -301.36471,672.14996 h -1.60853 v -9.29546 l -3.00054,9.29546 h -1.6704 l -2.9696,-9.28 v 9.28 h -1.59306 l 0.0155,-11.5072 h 2.552 l 2.86134,9.29547 2.90773,-9.29547 h 2.5056 z"
     style=""
     id="path831" /><path
     d="m -292.24759,669.56703 v 0.0773 q 0,1.19094 -0.94347,1.91787 -0.94347,0.72693 -2.52107,0.72693 -1.5776,0 -2.56746,-0.81973 -0.98987,-0.8352 -0.98987,-2.2736 v -1.9488 q 0,-1.51573 0.98987,-2.42827 0.98986,-0.91253 2.552,-0.91253 1.56213,0 2.53653,0.91253 0.9744,0.89707 0.9744,2.44374 v 1.37653 h -5.55253 v 0.464 q 0,0.91253 0.5568,1.392 0.57226,0.464 1.50026,0.464 1.96427,0 1.96427,-1.392 z m -1.45387,-2.088 v -0.24747 q 0,-0.95893 -0.54133,-1.46933 -0.52587,-0.52587 -1.4848,-0.52587 -0.95894,0 -1.50027,0.52587 -0.54133,0.52587 -0.54133,1.4848 v 0.232 z"
     style=""
     id="path833" /><path
     d="m -285.77842,671.5313 h -2.784 v 0.35573 q 0,1.00533 0.47947,1.4848 0.49493,0.49493 1.6704,0.49493 2.19626,0 2.19626,-1.2992 0,-0.57226 -0.40213,-0.80426 -0.38667,-0.232 -1.16,-0.232 z m -1.4384,-3.5728 h 0.63413 q 1.73227,0 1.73227,-1.36107 0,-1.31467 -1.56213,-1.31467 h -0.75787 q -0.7888,0 -1.19093,0.30934 -0.40214,0.29386 -0.40214,1.05173 0,1.31467 1.54667,1.31467 z m 0.7888,1.19093 h -2.39733 q -0.61867,0 -0.61867,0.58773 0,0.57227 0.58773,0.57227 h 3.248 q 2.89227,0 2.89227,2.21173 0,1.23734 -1.00533,1.9024 -1.00534,0.68054 -2.67574,0.68054 -3.5728,0 -3.5728,-3.13974 v -0.7888 q -0.80426,-0.3712 -0.80426,-1.4384 0,-0.61866 0.30933,-1.0208 0.30933,-0.40213 0.81973,-0.54133 -0.0619,-0.0464 -0.17013,-0.15467 -0.0928,-0.12373 -0.26293,-0.52586 -0.17014,-0.40214 -0.17014,-0.8816 0,-1.26827 0.7888,-1.93334 0.7888,-0.66506 2.1344,-0.66506 h 4.64 v 1.3456 h -1.22186 q 0.47946,0.34026 0.47946,1.26826 0,1.17547 -0.81973,1.856 -0.80427,0.66507 -2.1808,0.66507 z"
     style=""
     id="path835" /><path
     d="m -273.85096,672.14996 h -1.5776 v -6.7744 h -3.68107 v 6.7744 h -1.59306 v -6.7744 h -1.28374 v -1.36106 h 1.28374 v -1.00534 q 0,-1.14453 0.696,-1.74773 0.696,-0.61867 1.88693,-0.61867 h 1.40747 v 1.37654 h -1.2528 q -0.58774,0 -0.86614,0.26293 -0.2784,0.24747 -0.2784,0.8352 v 0.89707 h 5.25867 z m 0.10827,-10.79573 v 0.3248 q 0,0.35573 -0.26294,0.57227 -0.24746,0.21653 -0.63413,0.21653 -0.4176,0 -0.68053,-0.20107 -0.24747,-0.21653 -0.24747,-0.58773 v -0.3248 q 0,-0.3712 0.24747,-0.57227 0.26293,-0.21653 0.68053,-0.21653 0.38667,0 0.63413,0.21653 0.26294,0.21654 0.26294,0.57227 z"
     style=""
     id="path837" /><path
     d="m -267.17008,671.5313 h -2.784 v 0.35573 q 0,1.00533 0.47946,1.4848 0.49494,0.49493 1.6704,0.49493 2.19627,0 2.19627,-1.2992 0,-0.57226 -0.40213,-0.80426 -0.38667,-0.232 -1.16,-0.232 z m -1.4384,-3.5728 h 0.63413 q 1.73227,0 1.73227,-1.36107 0,-1.31467 -1.56214,-1.31467 h -0.75786 q -0.7888,0 -1.19094,0.30934 -0.40213,0.29386 -0.40213,1.05173 0,1.31467 1.54667,1.31467 z m 0.7888,1.19093 h -2.39734 q -0.61866,0 -0.61866,0.58773 0,0.57227 0.58773,0.57227 h 3.248 q 2.89227,0 2.89227,2.21173 0,1.23734 -1.00534,1.9024 -1.00533,0.68054 -2.67573,0.68054 -3.5728,0 -3.5728,-3.13974 v -0.7888 q -0.80427,-0.3712 -0.80427,-1.4384 0,-0.61866 0.30934,-1.0208 0.30933,-0.40213 0.81973,-0.54133 -0.0619,-0.0464 -0.17013,-0.15467 -0.0928,-0.12373 -0.26294,-0.52586 -0.17013,-0.40214 -0.17013,-0.8816 0,-1.26827 0.7888,-1.93334 0.7888,-0.66506 2.1344,-0.66506 h 4.64 v 1.3456 h -1.22187 q 0.47947,0.34026 0.47947,1.26826 0,1.17547 -0.81973,1.856 -0.80427,0.66507 -2.1808,0.66507 z"
     style=""
     id="path839" /><path
     d="m -261.93969,674.99583 h -0.4176 v -1.36107 h 0.30933 q 0.5568,0 0.85067,-0.21653 0.29386,-0.21653 0.47946,-0.71147 l 0.35574,-0.928 -3.17067,-7.76426 h 1.7168 l 2.2736,5.78453 1.9488,-5.78453 h 1.63947 l -3.30987,9.0944 q -0.6496,1.88693 -2.67573,1.88693 z"
     style=""
     id="path841" /><path
     d="m -248.08664,669.56703 v 0.0773 q 0,1.19094 -0.94346,1.91787 -0.94347,0.72693 -2.52107,0.72693 -1.5776,0 -2.56747,-0.81973 -0.98986,-0.8352 -0.98986,-2.2736 v -1.9488 q 0,-1.51573 0.98986,-2.42827 0.98987,-0.91253 2.552,-0.91253 1.56214,0 2.53654,0.91253 0.9744,0.89707 0.9744,2.44374 v 1.37653 h -5.55254 v 0.464 q 0,0.91253 0.5568,1.392 0.57227,0.464 1.50027,0.464 1.96427,0 1.96427,-1.392 z m -1.45386,-2.088 v -0.24747 q 0,-0.95893 -0.54134,-1.46933 -0.52586,-0.52587 -1.4848,-0.52587 -0.95893,0 -1.50026,0.52587 -0.54134,0.52587 -0.54134,1.4848 v 0.232 z"
     style=""
     id="path843" /><path
     d="m -244.44423,672.14996 h -1.59307 v -11.5072 h 1.59307 z"
     style=""
     id="path845" /><path
     d="m -235.42571,669.56703 v 0.0773 q 0,1.19094 -0.94347,1.91787 -0.94347,0.72693 -2.52107,0.72693 -1.5776,0 -2.56746,-0.81973 -0.98987,-0.8352 -0.98987,-2.2736 v -1.9488 q 0,-1.51573 0.98987,-2.42827 0.98986,-0.91253 2.552,-0.91253 1.56213,0 2.53653,0.91253 0.9744,0.89707 0.9744,2.44374 v 1.37653 h -5.55253 v 0.464 q 0,0.91253 0.5568,1.392 0.57226,0.464 1.50026,0.464 1.96427,0 1.96427,-1.392 z m -1.45387,-2.088 v -0.24747 q 0,-0.95893 -0.54133,-1.46933 -0.52587,-0.52587 -1.4848,-0.52587 -0.95894,0 -1.50027,0.52587 -0.54133,0.52587 -0.54133,1.4848 v 0.232 z m -1.4384,-4.71733 h -1.73227 l 1.5776,-2.11894 h 2.01067 z"
     style=""
     id="path847" /><path
     d="m -226.88401,666.6129 h -1.54667 q 0,-1.392 -1.82506,-1.392 -0.86614,0 -1.33014,0.30933 -0.44853,0.30933 -0.44853,0.81973 0,0.47947 0.38667,0.7424 0.38666,0.26294 0.95893,0.3248 0.57227,0.0619 1.23733,0.1856 0.68054,0.12374 1.2528,0.29387 0.57227,0.15467 0.95894,0.63413 0.38666,0.47947 0.38666,1.2528 0,1.14454 -0.91253,1.82507 -0.91253,0.66507 -2.5056,0.66507 -1.60853,0 -2.53653,-0.72694 -0.91254,-0.72693 -0.91254,-1.91786 v -0.0773 h 1.59307 q 0,1.40747 1.88693,1.40747 0.89707,0 1.37654,-0.29387 0.49493,-0.30933 0.49493,-0.81973 0,-0.5104 -0.54133,-0.7424 -0.52587,-0.232 -1.28374,-0.3248 -0.75786,-0.0928 -1.5312,-0.24747 -0.75786,-0.15466 -1.2992,-0.68053 -0.52586,-0.54133 -0.52586,-1.46933 0,-1.14454 0.8816,-1.8096 0.89706,-0.66507 2.44373,-0.66507 1.59307,0 2.4592,0.72693 0.8816,0.71147 0.8816,1.91787 z"
     style=""
     id="path849" /><path
     d="m -218.14655,669.56703 v 0.0773 q 0,1.19094 -0.94346,1.91787 -0.94347,0.72693 -2.52107,0.72693 -1.5776,0 -2.56747,-0.81973 -0.98986,-0.8352 -0.98986,-2.2736 v -1.9488 q 0,-1.51573 0.98986,-2.42827 0.98987,-0.91253 2.552,-0.91253 1.56214,0 2.53654,0.91253 0.9744,0.89707 0.9744,2.44374 v 1.37653 h -5.55254 v 0.464 q 0,0.91253 0.5568,1.392 0.57227,0.464 1.50027,0.464 1.96427,0 1.96427,-1.392 z m -1.45386,-2.088 v -0.24747 q 0,-0.95893 -0.54134,-1.46933 -0.52586,-0.52587 -1.4848,-0.52587 -0.95893,0 -1.50026,0.52587 -0.54134,0.52587 -0.54134,1.4848 v 0.232 z"
     style=""
     id="path851" /><path
     d="m -208.69231,672.14996 h -1.79413 l -2.32,-4.09866 -1.74774,1.82506 v 2.2736 h -1.54666 v -11.5072 h 1.54666 v 7.3312 l 3.65014,-3.95946 h 2.05706 l -2.79946,2.90773 z"
     style=""
     id="path853" /><path
     d="m -292.2946,691.4833 h -1.5776 v -8.13547 h 1.54667 v 1.23733 l 0.3712,-0.3712 q 0.9744,-0.89706 2.11893,-0.89706 h 0.4176 v 1.60853 h -0.40213 q -1.05173,0 -1.79413,0.61867 l -0.68054,0.5568 z"
     style=""
     id="path855" /><path
     d="m -282.56606,688.15796 v -1.4384 q 0,-0.98986 -0.58774,-1.54666 -0.57226,-0.5568 -1.51573,-0.5568 -0.95893,0 -1.5312,0.5568 -0.57227,0.5568 -0.57227,1.54666 v 1.4384 q 0,0.98987 0.57227,1.56214 0.57227,0.5568 1.5312,0.5568 0.94347,0 1.51573,-0.5568 0.58774,-0.5568 0.58774,-1.56214 z m 1.51573,-1.5776 v 1.73227 q 0,1.51573 -1.0208,2.42827 -1.00533,0.91253 -2.5984,0.91253 -1.59307,0 -2.61387,-0.91253 -1.00533,-0.91254 -1.00533,-2.42827 v -1.73227 q 0,-1.51573 1.00533,-2.42826 1.0208,-0.91254 2.61387,-0.91254 1.59307,0 2.5984,0.91254 1.0208,0.91253 1.0208,2.42826 z m -4.39253,-5.8928 v 0.30934 q 0,0.35573 -0.26294,0.57226 -0.24746,0.21654 -0.63413,0.21654 -0.40213,0 -0.6496,-0.20107 -0.24747,-0.21653 -0.24747,-0.58773 v -0.30934 q 0,-0.3712 0.24747,-0.57226 0.24747,-0.21654 0.6496,-0.21654 0.38667,0 0.63413,0.21654 0.26294,0.21653 0.26294,0.57226 z m 3.41813,0 v 0.30934 q 0,0.35573 -0.26293,0.57226 -0.24747,0.21654 -0.63414,0.21654 -0.40213,0 -0.6496,-0.20107 -0.24746,-0.21653 -0.24746,-0.58773 v -0.30934 q 0,-0.3712 0.24746,-0.57226 0.24747,-0.21654 0.6496,-0.21654 0.38667,0 0.63414,0.21654 0.26293,0.21653 0.26293,0.57226 z"
     style=""
     id="path857" /><path
     d="m -274.61644,690.86463 h -2.784 v 0.35573 q 0,1.00534 0.47947,1.4848 0.49493,0.49494 1.6704,0.49494 2.19626,0 2.19626,-1.2992 0,-0.57227 -0.40213,-0.80427 -0.38667,-0.232 -1.16,-0.232 z m -1.4384,-3.5728 h 0.63413 q 1.73227,0 1.73227,-1.36107 0,-1.31466 -1.56213,-1.31466 h -0.75787 q -0.7888,0 -1.19093,0.30933 -0.40214,0.29387 -0.40214,1.05173 0,1.31467 1.54667,1.31467 z m 0.7888,1.19093 h -2.39733 q -0.61867,0 -0.61867,0.58774 0,0.57226 0.58773,0.57226 h 3.248 q 2.89227,0 2.89227,2.21174 0,1.23733 -1.00533,1.9024 -1.00534,0.68053 -2.67574,0.68053 -3.5728,0 -3.5728,-3.13973 v -0.7888 q -0.80426,-0.3712 -0.80426,-1.4384 0,-0.61867 0.30933,-1.0208 0.30933,-0.40214 0.81973,-0.54134 -0.0619,-0.0464 -0.17013,-0.15466 -0.0928,-0.12374 -0.26293,-0.52587 -0.17014,-0.40213 -0.17014,-0.8816 0,-1.26827 0.7888,-1.93333 0.7888,-0.66507 2.1344,-0.66507 h 4.64 v 1.3456 h -1.22186 q 0.47946,0.34027 0.47946,1.26827 0,1.17546 -0.81973,1.856 -0.80427,0.66506 -2.1808,0.66506 z"
     style=""
     id="path859" /><path
     d="m -263.57058,691.4833 h -6.8208 v -1.3456 l 4.7792,-5.4288 h -4.79467 v -1.36107 h 6.7744 v 1.3456 l -4.74826,5.44427 h 4.81013 z"
     style=""
     id="path861" /><path
     d="m -260.29503,682.09503 h -1.73227 l 1.5776,-2.11893 h 2.01067 z m 0.30933,9.38827 h -1.59306 v -8.13547 h 1.59306 z"
     style=""
     id="path863" /><path
     d="m -253.16562,691.4833 h -1.0208 q -1.392,0 -2.19627,-0.71147 -0.80426,-0.71147 -0.80426,-2.07253 v -3.9904 h -1.2992 v -1.36107 h 1.31466 v -2.19627 h 1.5776 v 2.19627 h 2.3664 v 1.36107 h -2.3664 v 3.91306 q 0,0.80427 0.35574,1.14454 0.3712,0.3248 1.14453,0.3248 h 0.928 z"
     style=""
     id="path865" /><path
     d="m -245.0507,688.90036 v 0.0773 q 0,1.19093 -0.94346,1.91786 -0.94347,0.72694 -2.52107,0.72694 -1.5776,0 -2.56747,-0.81974 -0.98986,-0.8352 -0.98986,-2.2736 v -1.9488 q 0,-1.51573 0.98986,-2.42826 0.98987,-0.91254 2.552,-0.91254 1.56214,0 2.53654,0.91254 0.9744,0.89706 0.9744,2.44373 v 1.37653 h -5.55254 v 0.464 q 0,0.91254 0.5568,1.392 0.57227,0.464 1.50027,0.464 1.96427,0 1.96427,-1.392 z m -1.45386,-2.088 v -0.24746 q 0,-0.95894 -0.54134,-1.46934 -0.52586,-0.52586 -1.4848,-0.52586 -0.95893,0 -1.50026,0.52586 -0.54134,0.52587 -0.54134,1.4848 v 0.232 z m -1.4384,-4.71733 h -1.73227 l 1.5776,-2.11893 h 2.01067 z"
     style=""
     id="path867" /><path
     d="m -236.50536,685.94623 h -1.54667 q 0,-1.392 -1.82507,-1.392 -0.86613,0 -1.33013,0.30933 -0.44853,0.30934 -0.44853,0.81974 0,0.47946 0.38666,0.7424 0.38667,0.26293 0.95894,0.3248 0.57226,0.0619 1.23733,0.1856 0.68053,0.12373 1.2528,0.29386 0.57227,0.15467 0.95893,0.63414 0.38667,0.47946 0.38667,1.2528 0,1.14453 -0.91253,1.82506 -0.91254,0.66507 -2.5056,0.66507 -1.60854,0 -2.53654,-0.72693 -0.91253,-0.72694 -0.91253,-1.91787 v -0.0773 h 1.59307 q 0,1.40746 1.88693,1.40746 0.89707,0 1.37653,-0.29386 0.49494,-0.30934 0.49494,-0.81974 0,-0.5104 -0.54134,-0.7424 -0.52586,-0.232 -1.28373,-0.3248 -0.75787,-0.0928 -1.5312,-0.24746 -0.75787,-0.15467 -1.2992,-0.68054 -0.52587,-0.54133 -0.52587,-1.46933 0,-1.14453 0.8816,-1.8096 0.89707,-0.66507 2.44374,-0.66507 1.59306,0 2.4592,0.72694 0.8816,0.71146 0.8816,1.91786 z"
     style=""
     id="path869" /><path
     d="m -227.7679,688.90036 v 0.0773 q 0,1.19093 -0.94347,1.91786 -0.94347,0.72694 -2.52107,0.72694 -1.5776,0 -2.56746,-0.81974 -0.98987,-0.8352 -0.98987,-2.2736 v -1.9488 q 0,-1.51573 0.98987,-2.42826 0.98986,-0.91254 2.552,-0.91254 1.56213,0 2.53653,0.91254 0.9744,0.89706 0.9744,2.44373 v 1.37653 h -5.55253 v 0.464 q 0,0.91254 0.5568,1.392 0.57226,0.464 1.50026,0.464 1.96427,0 1.96427,-1.392 z m -1.45387,-2.088 v -0.24746 q 0,-0.95894 -0.54133,-1.46934 -0.52587,-0.52586 -1.4848,-0.52586 -0.95894,0 -1.50027,0.52586 -0.54133,0.52587 -0.54133,1.4848 v 0.232 z"
     style=""
     id="path871" /></g>





</svg>