<?xml version="1.0" encoding="UTF-8" standalone="no"?>
<!-- Generator: Adobe Illustrator 19.1.0, SVG Export Plug-In . SVG Version: 6.00 Build 0)  -->

<svg
   xmlns:dc="http://purl.org/dc/elements/1.1/"
   xmlns:cc="http://creativecommons.org/ns#"
   xmlns:rdf="http://www.w3.org/1999/02/22-rdf-syntax-ns#"
   xmlns:svg="http://www.w3.org/2000/svg"
   xmlns="http://www.w3.org/2000/svg"
   xmlns:sodipodi="http://sodipodi.sourceforge.net/DTD/sodipodi-0.dtd"
   xmlns:inkscape="http://www.inkscape.org/namespaces/inkscape"
   version="1.1"
   id="Calque_1"
   x="0px"
   y="0px"
   viewBox="-330 571.3 138.60001 138.60001"
   xml:space="preserve"
   sodipodi:docname="main_menu_logo_species_records-it.svg"
   inkscape:version="0.92.4 (5da689c313, 2019-01-14)"
   width="138.60001"
   height="138.60001"><metadata
   id="metadata67"><rdf:RDF><cc:Work
       rdf:about=""><dc:format>image/svg+xml</dc:format><dc:type
         rdf:resource="http://purl.org/dc/dcmitype/StillImage" /><dc:title></dc:title></cc:Work></rdf:RDF></metadata><defs
   id="defs65"><pattern
     y="0"
     x="0"
     height="6"
     width="6"
     patternUnits="userSpaceOnUse"
     id="EMFhbasepattern" /><clipPath
     clipPathUnits="userSpaceOnUse"
     id="clipPath929"><g
       id="use931"
       inkscape:label="Clip"><path
         id="path985"
         d="m -385.53344,607.82691 c -6.07995,-6.23995 -16.07988,-6.47995 -22.39983,-0.4 -6.31995,6.15996 -6.47995,16.15988 -0.4,22.39984 6.07996,6.31995 16.07988,6.55995 22.39984,0.39999 6.31995,-6.07995 6.47995,-16.07988 0.39999,-22.39983 z"
         style="fill:#ffffff;fill-opacity:1;fill-rule:nonzero;stroke:none"
         inkscape:connector-curvature="0" /><path
         id="path987"
         d="m -419.93318,628.94675 c 3.91997,-3.75997 3.99997,-10.07992 0.24,-13.99989 -3.83997,-3.91997 -10.15993,-3.99997 -13.9999,-0.24 -3.91997,3.83997 -3.99997,10.15992 -0.24,13.99989 3.67998,3.91998 9.99993,3.99997 13.9999,0.24 z"
         style="fill:#ffffff;fill-opacity:1;fill-rule:nonzero;stroke:none"
         inkscape:connector-curvature="0" /><path
         id="path989"
         d="m -364.09359,615.98685 c -2.79998,-2.95998 -7.51995,-3.03998 -10.55993,-0.24 -2.87997,2.79998 -2.95997,7.51994 -0.15999,10.47992 2.79997,2.87998 7.51994,3.03998 10.47992,0.24 3.03997,-2.87998 3.11997,-7.59994 0.24,-10.47992 z"
         style="fill:#ffffff;fill-opacity:1;fill-rule:nonzero;stroke:none"
         inkscape:connector-curvature="0" /><path
         id="path991"
         d="m -420.09318,632.38673 c -2.95998,2.71998 -3.03998,7.43994 -0.24,10.47992 2.79998,2.87998 7.51995,2.95998 10.47992,0.16 2.95998,-2.79998 3.03998,-7.43995 0.24,-10.47992 -2.87998,-2.87998 -7.51994,-2.95998 -10.47992,-0.16 z"
         style="fill:#ffffff;fill-opacity:1;fill-rule:nonzero;stroke:none"
         inkscape:connector-curvature="0" /><path
         id="path993"
         d="m -402.73331,639.74667 c -1.91998,1.91999 -1.99998,4.95997 -0.08,6.87995 1.91999,1.91999 4.95997,1.99999 6.87995,0.08 1.91999,-1.83999 1.99999,-4.95996 0.08,-6.87995 -1.83999,-1.99998 -4.95996,-1.99998 -6.87995,-0.08 z"
         style="fill:#ffffff;fill-opacity:1;fill-rule:nonzero;stroke:none"
         inkscape:connector-curvature="0" /><path
         id="path995"
         d="m -414.89322,605.58693 c 1.83999,-1.91999 1.99999,-5.03997 0.08,-6.95995 -1.91998,-1.83999 -5.03996,-1.99999 -6.87995,-0.08 -1.91998,1.91998 -1.99998,5.03996 -0.16,6.87995 1.91999,1.99998 5.03997,1.99998 6.95995,0.16 z"
         style="fill:#ffffff;fill-opacity:1;fill-rule:nonzero;stroke:none"
         inkscape:connector-curvature="0" /><path
         id="path997"
         d="m -389.6134,596.54699 c 1.91998,-1.91998 1.99998,-4.95996 0.08,-6.87995 -1.91998,-1.91998 -4.95996,-1.99998 -6.87994,-0.08 -1.91999,1.83999 -1.99999,4.95997 -0.08,6.87995 1.83998,1.91999 4.87996,1.99999 6.87995,0.08 z"
         style="fill:#ffffff;fill-opacity:1;fill-rule:nonzero;stroke:none"
         inkscape:connector-curvature="0" /><path
         id="path999"
         d="m -379.93348,634.70671 c -1.91998,1.91999 -1.99998,5.03996 -0.08,6.95995 1.91999,1.83998 4.95997,1.99998 6.87995,0.08 1.91999,-1.91999 1.99999,-5.03996 0.08,-6.87995 -1.75998,-1.91999 -4.87996,-1.99999 -6.87995,-0.16 z"
         style="fill:#ffffff;fill-opacity:1;fill-rule:nonzero;stroke:none"
         inkscape:connector-curvature="0" /><path
         id="path1001"
         d="m -368.01357,640.22667 c -1.03999,0.87999 -1.03999,2.47998 -0.08,3.51997 0.87999,0.96 2.47998,0.96 3.43997,0.08 1.03999,-0.87999 1.03999,-2.47998 0.16,-3.43997 -0.95999,-1.03999 -2.55998,-1.11999 -3.51998,-0.16 z"
         style="fill:#ffffff;fill-opacity:1;fill-rule:nonzero;stroke:none"
         inkscape:connector-curvature="0" /><path
         id="path1003"
         d="m -429.53311,638.06669 c -0.95999,0.87999 -0.95999,2.47998 -0.08,3.51997 0.87999,0.95999 2.47998,0.95999 3.51998,0.08 0.95999,-0.87999 0.95999,-2.47998 0.08,-3.51998 -0.87999,-0.95999 -2.47998,-1.11999 -3.51997,-0.08 z"
         style="fill:#ffffff;fill-opacity:1;fill-rule:nonzero;stroke:none"
         inkscape:connector-curvature="0" /><path
         id="path1005"
         d="m -388.25342,601.58696 c 0.96,0.95999 2.55999,0.95999 3.51998,0.08 1.03999,-0.87999 1.03999,-2.47998 0.08,-3.51997 -0.88,-0.95999 -2.47998,-0.95999 -3.43998,-0.08 -1.03999,0.95999 -1.03999,2.47998 -0.16,3.51998 z"
         style="fill:#ffffff;fill-opacity:1;fill-rule:nonzero;stroke:none"
         inkscape:connector-curvature="0" /></g></clipPath><clipPath
     clipPathUnits="userSpaceOnUse"
     id="clipPath951"><g
       id="use953"
       inkscape:label="Clip"><path
         id="path955"
         d="m -415.37321,664.54649 h -1.83999 c 0,-1.43999 -0.88,-2.15998 -2.63998,-2.15998 -0.8,0 -1.43999,0.15999 -1.83999,0.47999 -0.47999,0.32 -0.71999,0.8 -0.71999,1.35999 0,0.4 0.16,0.8 0.4,1.03999 0.23999,0.24 0.63999,0.48 1.03999,0.56 0.39999,0.16 0.87999,0.24 1.35999,0.32 0.47999,0.08 1.03999,0.24 1.51998,0.31999 0.48,0.16 0.96,0.32 1.36,0.56 0.39999,0.16 0.71999,0.48 1.03999,0.95999 0.24,0.4 0.4,0.96 0.4,1.51999 0,1.11999 -0.48,1.91999 -1.28,2.55998 -0.79999,0.64 -1.91998,0.96 -3.27997,0.96 -1.35999,0 -2.47998,-0.32 -3.27998,-0.96 -0.79999,-0.55999 -1.19999,-1.51999 -1.19999,-2.63998 v -0.08 h 1.75999 c 0,1.43999 0.95999,2.15999 2.71998,2.15999 0.87999,0 1.51999,-0.16 1.99998,-0.48 0.48,-0.32 0.72,-0.79999 0.72,-1.43999 0,-0.4 -0.08,-0.71999 -0.4,-0.95999 -0.24,-0.24 -0.56,-0.48 -0.95999,-0.56 -0.4,-0.16 -0.88,-0.24 -1.35999,-0.31999 -0.48,-0.08 -1.03999,-0.24 -1.51999,-0.32 -0.48,-0.16 -0.95999,-0.32 -1.35999,-0.56 -0.4,-0.24 -0.72,-0.55999 -1.03999,-0.95999 -0.24,-0.48 -0.4,-0.95999 -0.4,-1.59999 0,-1.03999 0.4,-1.91998 1.19999,-2.47998 0.8,-0.64 1.83999,-0.95999 3.19998,-0.95999 1.35999,0 2.39998,0.31999 3.19997,0.87999 0.8,0.64 1.2,1.51999 1.2,2.71998 z"
         style="fill:#ffffff;fill-opacity:1;fill-rule:nonzero;stroke:none"
         inkscape:connector-curvature="0" /><path
         id="path957"
         d="m -407.37327,669.98645 v -2.55998 c 0,-0.48 -0.16,-0.8 -0.4,-1.11999 -0.32,-0.32 -0.64,-0.4 -1.11999,-0.4 -0.4,0 -0.88,0.08 -1.27999,0.32 l -1.51999,0.87999 v 3.19998 l 1.51999,0.79999 c 0.39999,0.24 0.87999,0.4 1.27999,0.4 0.47999,0 0.79999,-0.16 1.11999,-0.4 0.24,-0.32 0.4,-0.63999 0.4,-1.11999 z m -4.31997,5.83996 h -1.51999 v -11.27992 h 1.51999 v 0.95999 l 1.03999,-0.55999 c 0.64,-0.32 1.27999,-0.56 1.99999,-0.56 0.79999,0 1.51998,0.32 1.99998,0.79999 0.56,0.56 0.8,1.2 0.8,2.07999 v 2.79998 c 0,0.87999 -0.24,1.59999 -0.8,2.07998 -0.48,0.56 -1.19999,0.8 -1.99998,0.8 -0.72,0 -1.35999,-0.16 -1.99999,-0.48 l -1.03999,-0.63999 z"
         style="fill:#ffffff;fill-opacity:1;fill-rule:nonzero;stroke:none"
         inkscape:connector-curvature="0" /><path
         id="path959"
         d="m -396.73335,670.22645 v 0.08 c 0,0.79999 -0.32,1.51999 -0.96,1.99998 -0.63999,0.48 -1.51998,0.72 -2.55998,0.72 -1.11999,0 -1.99998,-0.24 -2.63998,-0.8 -0.71999,-0.63999 -1.03999,-1.35999 -1.03999,-2.39998 v -1.99999 c 0,-1.03999 0.32,-1.83998 1.03999,-2.47998 0.64,-0.63999 1.51999,-0.95999 2.55998,-0.95999 1.12,0 1.99999,0.32 2.63998,0.95999 0.64,0.64 1.04,1.43999 1.04,2.47998 v 1.43999 h -5.75996 v 0.48 c 0,0.64 0.16,1.11999 0.56,1.43999 0.39999,0.32 0.95999,0.48 1.59998,0.48 1.27999,0 1.99999,-0.48 1.99999,-1.43999 z m -1.51999,-2.15999 v -0.24 c 0,-0.63999 -0.16,-1.19999 -0.56,-1.51998 -0.31999,-0.32 -0.79999,-0.56 -1.51999,-0.56 -0.63999,0 -1.11999,0.24 -1.51998,0.56 -0.4,0.39999 -0.56,0.87999 -0.56,1.51998 v 0.24 z"
         style="fill:#ffffff;fill-opacity:1;fill-rule:nonzero;stroke:none"
         inkscape:connector-curvature="0" /><path
         id="path961"
         d="m -387.77342,669.74645 v 0.16 c 0,1.03999 -0.32,1.75999 -0.95999,2.31998 -0.64,0.56 -1.51999,0.8 -2.55998,0.8 -1.11999,0 -1.91999,-0.24 -2.55998,-0.88 -0.64,-0.55999 -0.96,-1.35999 -0.96,-2.39998 v -2.07998 c 0,-1.04 0.32,-1.83999 0.96,-2.39999 0.63999,-0.55999 1.43999,-0.87999 2.55998,-0.87999 1.03999,0 1.91998,0.32 2.55998,0.79999 0.63999,0.56 0.95999,1.35999 0.95999,2.31999 v 0.16 h -1.51999 c 0,-1.27999 -0.71999,-1.83999 -1.99998,-1.83999 -1.27999,0 -1.91999,0.63999 -1.91999,1.99998 v 1.75999 c 0,1.35999 0.64,1.99999 1.91999,1.99999 1.27999,0 1.99998,-0.56 1.99998,-1.83999 z"
         style="fill:#ffffff;fill-opacity:1;fill-rule:nonzero;stroke:none"
         inkscape:connector-curvature="0" /><path
         id="path963"
         d="m -384.09345,672.86643 h -1.59998 v -8.31994 h 1.59998 z m 0.16,-11.11992 v 0.4 c 0,0.24 -0.08,0.39999 -0.31999,0.55999 -0.16,0.16 -0.4,0.24 -0.64,0.24 -0.24,0 -0.48,-0.08 -0.64,-0.24 -0.23999,-0.16 -0.31999,-0.31999 -0.31999,-0.55999 v -0.4 c 0,-0.24 0.08,-0.4 0.31999,-0.56 0.16,-0.15999 0.4,-0.23999 0.64,-0.23999 0.24,0 0.48,0.08 0.64,0.23999 0.23999,0.16 0.31999,0.32 0.31999,0.56 z"
         style="fill:#ffffff;fill-opacity:1;fill-rule:nonzero;stroke:none"
         inkscape:connector-curvature="0" /><path
         id="path965"
         d="m -374.73352,670.22645 v 0.08 c 0,0.79999 -0.31999,1.51999 -0.95999,1.99998 -0.63999,0.48 -1.51999,0.72 -2.55998,0.72 -1.11999,0 -1.99999,-0.24 -2.71998,-0.8 -0.63999,-0.63999 -0.95999,-1.35999 -0.95999,-2.39998 v -1.99999 c 0,-1.03999 0.32,-1.83998 0.95999,-2.47998 0.71999,-0.63999 1.59999,-0.95999 2.63998,-0.95999 1.11999,0 1.99999,0.32 2.63998,0.95999 0.64,0.64 1.03999,1.43999 1.03999,2.47998 v 1.43999 h -5.75995 v 0.48 c 0,0.64 0.15999,1.11999 0.55999,1.43999 0.4,0.32 0.96,0.48 1.59999,0.48 1.27999,0 1.99999,-0.48 1.99999,-1.43999 z m -1.51998,-2.15999 v -0.24 c 0,-0.63999 -0.16,-1.19999 -0.56,-1.51998 -0.32,-0.32 -0.79999,-0.56 -1.51999,-0.56 -0.63999,0 -1.11999,0.24 -1.51999,0.56 -0.4,0.39999 -0.55999,0.87999 -0.55999,1.51998 v 0.24 z"
         style="fill:#ffffff;fill-opacity:1;fill-rule:nonzero;stroke:none"
         inkscape:connector-curvature="0" /><path
         id="path967"
         d="m -426.73313,692.78628 h -1.75999 v -11.83991 h 1.75999 z"
         style="fill:#ffffff;fill-opacity:1;fill-rule:nonzero;stroke:none"
         inkscape:connector-curvature="0" /><path
         id="path969"
         d="m -417.2132,692.78628 h -1.67999 v -5.59996 c 0,-0.4 -0.08,-0.71999 -0.32,-0.95999 -0.16,-0.24 -0.47999,-0.4 -0.87999,-0.4 -0.4,0 -0.79999,0.16 -1.27999,0.4 l -1.35999,0.79999 v 5.75996 h -1.59999 v -8.39994 h 1.59999 v 1.11999 l 0.95999,-0.55999 c 0.64,-0.4 1.27999,-0.64 1.99999,-0.64 0.71999,0 1.35999,0.32 1.83998,0.8 0.48,0.47999 0.72,1.11999 0.72,1.91998 z"
         style="fill:#ffffff;fill-opacity:1;fill-rule:nonzero;stroke:none"
         inkscape:connector-curvature="0" /><path
         id="path971"
         d="m -411.29324,692.78628 h -1.75999 l -3.03998,-8.39994 h 1.75999 l 2.15998,6.55995 2.23999,-6.55995 h 1.67998 z"
         style="fill:#ffffff;fill-opacity:1;fill-rule:nonzero;stroke:none"
         inkscape:connector-curvature="0" /><path
         id="path973"
         d="m -401.85331,690.3063 v -1.03999 h -2.47999 c -1.03999,0 -1.59998,0.39999 -1.59998,1.19999 0,0.32 0.08,0.63999 0.31999,0.79999 0.16,0.16 0.4,0.24 0.8,0.24 0.47999,0 1.03999,-0.16 1.59999,-0.4 z m 1.59998,2.47998 h -1.59998 v -1.03999 l -0.88,0.47999 c -0.87999,0.48 -1.59999,0.64 -2.39998,0.64 -0.71999,0 -1.27999,-0.16 -1.75999,-0.64 -0.39999,-0.39999 -0.63999,-0.95999 -0.63999,-1.67998 0,-0.8 0.24,-1.43999 0.79999,-1.91999 0.56,-0.4 1.35999,-0.63999 2.23999,-0.63999 h 2.63998 v -0.48 c 0,-1.27999 -0.64,-1.83999 -1.91999,-1.83999 -1.35999,0 -1.99999,0.56 -1.99999,1.59999 h -1.59998 v -0.08 c 0,-0.87999 0.31999,-1.59999 0.95999,-2.15998 0.71999,-0.48 1.59999,-0.72 2.63998,-0.72 1.11999,0 1.99999,0.24 2.55998,0.8 0.64,0.55999 0.95999,1.27999 0.95999,2.31998 z"
         style="fill:#ffffff;fill-opacity:1;fill-rule:nonzero;stroke:none"
         inkscape:connector-curvature="0" /><path
         id="path975"
         d="m -391.37339,687.10632 h -1.59999 c 0,-0.95999 -0.64,-1.43999 -1.91999,-1.43999 -0.55999,0 -1.03999,0.08 -1.35999,0.32 -0.31999,0.24 -0.47999,0.48 -0.47999,0.87999 0,0.32 0.16,0.56 0.39999,0.72 0.32,0.16 0.64,0.32 1.04,0.32 0.31999,0.08 0.79999,0.16 1.27999,0.23999 0.39999,0.08 0.87999,0.16 1.27999,0.24 0.4,0.16 0.71999,0.32 0.95999,0.72 0.24,0.32 0.4,0.71999 0.4,1.27999 0,0.79999 -0.32,1.35999 -0.95999,1.83998 -0.64,0.48 -1.43999,0.72 -2.55999,0.72 -1.11999,0 -1.99998,-0.24 -2.63998,-0.79999 -0.63999,-0.48 -0.87999,-1.12 -0.87999,-1.91999 v -0.08 h 1.59999 c 0,0.95999 0.63999,1.43999 1.91998,1.43999 0.64,0 1.12,-0.08 1.43999,-0.32 0.32,-0.24 0.48,-0.47999 0.48,-0.79999 0,-0.4 -0.16,-0.64 -0.56,-0.8 -0.31999,-0.16 -0.79999,-0.23999 -1.27999,-0.31999 -0.55999,-0.08 -1.03999,-0.16 -1.59998,-0.24 -0.48,-0.16 -0.96,-0.4 -1.28,-0.72 -0.39999,-0.39999 -0.55999,-0.87999 -0.55999,-1.51999 0,-0.79999 0.32,-1.43999 0.87999,-1.83998 0.64,-0.48 1.43999,-0.72 2.55998,-0.72 1.04,0 1.91999,0.24 2.47999,0.72 0.63999,0.55999 0.95999,1.19999 0.95999,1.99998 z"
         style="fill:#ffffff;fill-opacity:1;fill-rule:nonzero;stroke:none"
         inkscape:connector-curvature="0" /><path
         id="path977"
         d="m -387.77342,692.78628 h -1.59999 v -8.39994 h 1.59999 z m 0.16,-11.11992 v 0.32 c 0,0.24 -0.08,0.48 -0.32,0.64 -0.16,0.15999 -0.32,0.23999 -0.63999,0.23999 -0.24,0 -0.48,-0.08 -0.64,-0.23999 -0.16,-0.16 -0.32,-0.32 -0.32,-0.64 v -0.32 c 0,-0.24 0.16,-0.39999 0.32,-0.55999 0.16,-0.16 0.4,-0.24 0.64,-0.24 0.31999,0 0.47999,0.08 0.63999,0.24 0.24,0.16 0.32,0.31999 0.32,0.55999 z"
         style="fill:#ffffff;fill-opacity:1;fill-rule:nonzero;stroke:none"
         inkscape:connector-curvature="0" /><path
         id="path979"
         d="m -381.45347,692.78628 h -1.83998 l -2.95998,-8.39994 h 1.75999 l 2.15998,6.55995 2.15999,-6.55995 h 1.67998 z"
         style="fill:#ffffff;fill-opacity:1;fill-rule:nonzero;stroke:none"
         inkscape:connector-curvature="0" /><path
         id="path981"
         d="m -370.25355,690.1463 v 0.08 c 0,0.79999 -0.32,1.43999 -0.95999,1.99998 -0.64,0.48 -1.51999,0.72 -2.55998,0.72 -1.12,0 -1.99999,-0.32 -2.63998,-0.87999 -0.72,-0.56 -1.04,-1.27999 -1.04,-2.31999 v -1.99998 c 0,-1.03999 0.32,-1.83999 1.04,-2.47998 0.63999,-0.64 1.51998,-0.96 2.55998,-0.96 1.11999,0 1.99998,0.32 2.63998,0.96 0.71999,0.63999 1.03999,1.43999 1.03999,2.47998 v 1.43999 h -5.75996 v 0.47999 c 0,0.64 0.24,1.12 0.56,1.43999 0.4,0.32 0.95999,0.48 1.59999,0.48 1.35999,0 1.99998,-0.48 1.99998,-1.43999 z m -1.43999,-2.15998 v -0.24 c 0,-0.64 -0.24,-1.19999 -0.55999,-1.51999 -0.4,-0.4 -0.88,-0.56 -1.59999,-0.56 -0.64,0 -1.11999,0.16 -1.51999,0.56 -0.32,0.32 -0.56,0.87999 -0.56,1.51999 v 0.24 z"
         style="fill:#ffffff;fill-opacity:1;fill-rule:nonzero;stroke:none"
         inkscape:connector-curvature="0" /></g></clipPath></defs><sodipodi:namedview
   pagecolor="#ffffff"
   bordercolor="#666666"
   borderopacity="1"
   objecttolerance="10"
   gridtolerance="10"
   guidetolerance="10"
   inkscape:pageopacity="0"
   inkscape:pageshadow="2"
   inkscape:window-width="1920"
   inkscape:window-height="1017"
   id="namedview63"
   showgrid="false"
   inkscape:zoom="3"
   inkscape:cx="-11.892898"
   inkscape:cy="69.350001"
   inkscape:window-x="1912"
   inkscape:window-y="-8"
   inkscape:window-maximized="1"
   inkscape:current-layer="Calque_1"
   fit-margin-top="0"
   fit-margin-left="0"
   fit-margin-right="0"
   fit-margin-bottom="0" /><style
   type="text/css"
   id="style2">
	.st0{fill:#D3D501;}
	.st1{fill:#40637D;}
	.st2{fill:#FFFFFF;}
</style><g
   id="g6"
   transform="translate(0,-0.1)"><path
     class="st0"
     d="m -330,640.7 c 0,-38.3 31,-69.3 69.3,-69.3 38.3,0 69.3,31 69.3,69.3 0,38.3 -31,69.3 -69.3,69.3 -38.3,0 -69.3,-31 -69.3,-69.3"
     id="path4"
     inkscape:connector-curvature="0"
     style="fill:#d3d501" /></g><g
   id="g60"
   transform="translate(0.5,1.3468337)"><g
     id="g46"><path
       class="st2"
       d="m -249.7,639.4 c -0.4,0.6 -1.1,1.1 -1.9,1.3 l -3.7,1 c -0.3,0.1 -0.6,0.1 -0.9,0.1 -0.7,0 -1.4,-0.2 -1.9,-0.6 -0.8,-0.6 -1.3,-1.5 -1.4,-2.5 l -0.3,-3.9 c -0.1,-0.8 0.1,-1.6 0.6,-2.2 l 0.1,-0.2 h -13.4 c -1.1,0 -2,-0.9 -2,-2 0,-1.1 0.9,-2 2,-2 h 16.2 l 3.6,-5.2 h -19.8 c -1.1,0 -2,-0.9 -2,-2 0,-1.1 0.9,-2 2,-2 l 22.6,-0.1 8.5,-12.1 v -9 c 0,-1.5 -1.1,-2.7 -2.6,-2.7 h -6.5 v 5.1 c 0,2.4 -2,4.3 -4.4,4.3 h -13 c -2.4,0 -4.3,-1.9 -4.3,-4.3 v -5.1 h -6.5 c -1.5,0 -2.7,1.2 -2.7,2.7 v 45.9 c 0,1.5 1.2,2.7 2.7,2.7 h 34.8 c 1.5,0 2.6,-1.3 2.6,-2.7 v -16.4 z m -22.8,-29.1 h 22 c 1.1,0 2,0.9 2,2 0,1.1 -0.9,2 -2,2 h -22 c -1.1,0 -2,-0.9 -2,-2 0,-1.1 0.9,-2 2,-2"
       id="path44"
       inkscape:connector-curvature="0"
       style="fill:#ffffff" /></g><g
     id="g50"><path
       class="st2"
       d="m -268,602.5 h 13 c 1,0 1.8,-0.8 1.8,-1.8 v -7.5 c 0,-1 -0.8,-1.8 -1.8,-1.8 h -2 c 0,-2.5 -2.1,-4.6 -4.6,-4.6 -2.5,0 -4.6,2 -4.6,4.6 h -1.9 c -1,0 -1.8,0.8 -1.8,1.8 v 7.5 c 0.1,1 0.9,1.8 1.9,1.8 m 6.5,-13.1 c 1.1,0 2,0.9 2,2 h -4.1 c 0.1,-1.1 1,-2 2.1,-2"
       id="path48"
       inkscape:connector-curvature="0"
       style="fill:#ffffff" /></g><g
     id="g54"><path
       class="st2"
       d="m -225,598.9 c -0.1,-0.3 -0.2,-0.6 -0.5,-0.8 l -3.3,-2.3 c -0.2,-0.2 -0.5,-0.2 -0.7,-0.2 -0.4,0 -0.8,0.2 -1,0.5 l -23.1,33.1 5.3,3.7 23.1,-33.1 c 0.2,-0.2 0.2,-0.6 0.2,-0.9"
       id="path52"
       inkscape:connector-curvature="0"
       style="fill:#ffffff" /></g><g
     id="g58"><path
       class="st2"
       d="m -257.3,634.6 0.3,3.9 c 0,0.2 0.1,0.4 0.3,0.5 0.1,0.1 0.3,0.1 0.4,0.1 0.1,0 0.1,0 0.2,0 l 3.8,-1 c 0.2,0 0.3,-0.2 0.4,-0.3 l 1.4,-2 -5.3,-3.7 -1.4,2 c -0.1,0.2 -0.1,0.4 -0.1,0.5"
       id="path56"
       inkscape:connector-curvature="0"
       style="fill:#ffffff" /></g></g><g
   aria-label="Le mie
segnalazioni"
   style="font-style:normal;font-variant:normal;font-weight:normal;font-stretch:normal;font-size:15.92933273px;line-height:1.25;font-family:KonsensMedium;-inkscape-font-specification:'KonsensMedium, Normal';font-variant-ligatures:normal;font-variant-caps:normal;font-variant-numeric:normal;font-feature-settings:normal;text-align:center;letter-spacing:0px;word-spacing:0px;writing-mode:lr-tb;text-anchor:middle;fill:#000000;fill-opacity:1;stroke:none"
   id="text71"><path
     d="m -276.57992,671.29486 h -7.39121 v -11.85142 h 1.76815 v 10.29035 h 5.62306 z"
     style="font-style:normal;font-variant:normal;font-weight:normal;font-stretch:normal;font-size:15.92933273px;font-family:KonsensMedium;-inkscape-font-specification:'KonsensMedium, Normal';font-variant-ligatures:normal;font-variant-caps:normal;font-variant-numeric:normal;font-feature-settings:normal;text-align:center;writing-mode:lr-tb;text-anchor:middle;fill:#40637d;fill-opacity:1"
     id="path856" /><path
     d="m -268.08536,668.63466 v 0.0796 q 0,1.22656 -0.97169,1.97524 -0.97169,0.74867 -2.59648,0.74867 -1.6248,0 -2.64427,-0.84425 -1.01948,-0.86018 -1.01948,-2.34161 v -2.0071 q 0,-1.56107 1.01948,-2.5009 1.01947,-0.93983 2.62834,-0.93983 1.60886,0 2.61241,0.93983 1.00355,0.9239 1.00355,2.51683 v 1.41771 h -5.71863 v 0.47788 q 0,0.93983 0.57345,1.43364 0.58939,0.47788 1.54515,0.47788 2.02302,0 2.02302,-1.43364 z m -1.49736,-2.15046 v -0.25487 q 0,-0.98762 -0.55753,-1.51328 -0.54159,-0.5416 -1.52921,-0.5416 -0.98762,0 -1.54515,0.5416 -0.55752,0.54159 -0.55752,1.52921 v 0.23894 z"
     style="font-style:normal;font-variant:normal;font-weight:normal;font-stretch:normal;font-size:15.92933273px;font-family:KonsensMedium;-inkscape-font-specification:'KonsensMedium, Normal';font-variant-ligatures:normal;font-variant-caps:normal;font-variant-numeric:normal;font-feature-settings:normal;text-align:center;writing-mode:lr-tb;text-anchor:middle;fill:#40637d;fill-opacity:1"
     id="path858" /><path
     d="m -250.10811,671.29486 h -1.60886 v -5.79828 q 0,-1.16284 -0.97169,-1.16284 -0.46195,0 -1.13099,0.38231 l -1.13098,0.66903 v 5.90978 h -1.59293 v -5.79828 q 0,-1.14691 -0.98762,-1.14691 -0.49381,0 -1.11505,0.36638 l -1.13099,0.66903 v 5.90978 h -1.59293 v -8.37883 h 1.56107 v 0.98762 l 0.79647,-0.47788 q 0.89204,-0.57346 1.83187,-0.57346 1.44957,0 1.95931,1.17878 l 0.95576,-0.58939 q 0.98762,-0.58939 1.92745,-0.58939 1.05134,0 1.64072,0.65311 0.58939,0.63717 0.58939,1.80001 z"
     style="font-style:normal;font-variant:normal;font-weight:normal;font-stretch:normal;font-size:15.92933273px;font-family:KonsensMedium;-inkscape-font-specification:'KonsensMedium, Normal';font-variant-ligatures:normal;font-variant-caps:normal;font-variant-numeric:normal;font-feature-settings:normal;text-align:center;writing-mode:lr-tb;text-anchor:middle;fill:#40637d;fill-opacity:1"
     id="path860" /><path
     d="m -246.22608,671.29486 h -1.64072 v -8.37883 h 1.64072 z m 0.1115,-11.11867 v 0.33451 q 0,0.36638 -0.2708,0.58939 -0.25487,0.22301 -0.6531,0.22301 -0.43009,0 -0.68496,-0.20708 -0.25487,-0.22301 -0.25487,-0.60532 v -0.33451 q 0,-0.38231 0.25487,-0.58939 0.25487,-0.22301 0.68496,-0.22301 0.39823,0 0.6531,0.22301 0.2708,0.22301 0.2708,0.58939 z"
     style="font-style:normal;font-variant:normal;font-weight:normal;font-stretch:normal;font-size:15.92933273px;font-family:KonsensMedium;-inkscape-font-specification:'KonsensMedium, Normal';font-variant-ligatures:normal;font-variant-caps:normal;font-variant-numeric:normal;font-feature-settings:normal;text-align:center;writing-mode:lr-tb;text-anchor:middle;fill:#40637d;fill-opacity:1"
     id="path862" /><path
     d="m -236.87631,668.63466 v 0.0796 q 0,1.22656 -0.97169,1.97524 -0.97169,0.74867 -2.59648,0.74867 -1.62479,0 -2.64427,-0.84425 -1.01948,-0.86018 -1.01948,-2.34161 v -2.0071 q 0,-1.56107 1.01948,-2.5009 1.01948,-0.93983 2.62834,-0.93983 1.60886,0 2.61241,0.93983 1.00355,0.9239 1.00355,2.51683 v 1.41771 h -5.71863 v 0.47788 q 0,0.93983 0.57345,1.43364 0.58939,0.47788 1.54515,0.47788 2.02303,0 2.02303,-1.43364 z m -1.49736,-2.15046 v -0.25487 q 0,-0.98762 -0.55752,-1.51328 -0.5416,-0.5416 -1.52922,-0.5416 -0.98762,0 -1.54514,0.5416 -0.55753,0.54159 -0.55753,1.52921 v 0.23894 z"
     style="font-style:normal;font-variant:normal;font-weight:normal;font-stretch:normal;font-size:15.92933273px;font-family:KonsensMedium;-inkscape-font-specification:'KonsensMedium, Normal';font-variant-ligatures:normal;font-variant-caps:normal;font-variant-numeric:normal;font-feature-settings:normal;text-align:center;writing-mode:lr-tb;text-anchor:middle;fill:#40637d;fill-opacity:1"
     id="path864" /><path
     d="m -299.60553,685.50383 h -1.59293 q 0,-1.43364 -1.87966,-1.43364 -0.89204,0 -1.36992,0.31858 -0.46195,0.31859 -0.46195,0.84426 0,0.49381 0.39823,0.7646 0.39823,0.2708 0.98762,0.33452 0.58938,0.0637 1.27434,0.19115 0.7009,0.12744 1.29028,0.30266 0.58939,0.15929 0.98762,0.6531 0.39823,0.49381 0.39823,1.29028 0,1.17877 -0.93983,1.87966 -0.93983,0.68496 -2.58055,0.68496 -1.65665,0 -2.61241,-0.74868 -0.93983,-0.74868 -0.93983,-1.97523 v -0.0797 h 1.64072 q 0,1.44957 1.94338,1.44957 0.9239,0 1.41771,-0.30266 0.50974,-0.31859 0.50974,-0.84425 0,-0.52567 -0.55753,-0.76461 -0.5416,-0.23894 -1.32213,-0.33452 -0.78054,-0.0956 -1.57701,-0.25487 -0.78053,-0.15929 -1.33806,-0.70089 -0.5416,-0.55752 -0.5416,-1.51328 0,-1.17877 0.90797,-1.86374 0.9239,-0.68496 2.51684,-0.68496 1.64072,0 2.53276,0.74868 0.90797,0.73275 0.90797,1.97524 z"
     style="font-style:normal;font-variant:normal;font-weight:normal;font-stretch:normal;font-size:15.92933273px;font-family:KonsensMedium;-inkscape-font-specification:'KonsensMedium, Normal';font-variant-ligatures:normal;font-variant-caps:normal;font-variant-numeric:normal;font-feature-settings:normal;text-align:center;writing-mode:lr-tb;text-anchor:middle;fill:#40637d;fill-opacity:1"
     id="path866" /><path
     d="m -290.6067,688.54633 v 0.0796 q 0,1.22656 -0.97169,1.97524 -0.97169,0.74868 -2.59648,0.74868 -1.62479,0 -2.64427,-0.84425 -1.01947,-0.86019 -1.01947,-2.34162 v -2.00709 q 0,-1.56108 1.01947,-2.50091 1.01948,-0.93983 2.62834,-0.93983 1.60887,0 2.61241,0.93983 1.00355,0.9239 1.00355,2.51684 v 1.41771 h -5.71863 v 0.47788 q 0,0.93983 0.57346,1.43364 0.58938,0.47788 1.54514,0.47788 2.02303,0 2.02303,-1.43364 z m -1.49736,-2.15046 V 686.141 q 0,-0.98762 -0.55752,-1.51329 -0.5416,-0.54159 -1.52922,-0.54159 -0.98762,0 -1.54514,0.54159 -0.55753,0.5416 -0.55753,1.52922 v 0.23894 z"
     style="font-style:normal;font-variant:normal;font-weight:normal;font-stretch:normal;font-size:15.92933273px;font-family:KonsensMedium;-inkscape-font-specification:'KonsensMedium, Normal';font-variant-ligatures:normal;font-variant-caps:normal;font-variant-numeric:normal;font-feature-settings:normal;text-align:center;writing-mode:lr-tb;text-anchor:middle;fill:#40637d;fill-opacity:1"
     id="path868" /><path
     d="m -283.94401,690.56935 h -2.86728 v 0.36638 q 0,1.0354 0.49381,1.52921 0.50974,0.50974 1.72037,0.50974 2.26197,0 2.26197,-1.33806 0,-0.58939 -0.41417,-0.82833 -0.39823,-0.23894 -1.1947,-0.23894 z m -1.48142,-3.67967 h 0.6531 q 1.78408,0 1.78408,-1.40178 0,-1.354 -1.60886,-1.354 h -0.78054 q -0.81239,0 -1.22655,0.31859 -0.41417,0.30266 -0.41417,1.08319 0,1.354 1.59294,1.354 z m 0.81239,1.22656 h -2.46904 q -0.63718,0 -0.63718,0.60531 0,0.58939 0.60532,0.58939 h 3.34516 q 2.97878,0 2.97878,2.27789 0,1.27435 -1.0354,1.95931 -1.03541,0.70089 -2.75578,0.70089 -3.67967,0 -3.67967,-3.23366 v -0.81239 q -0.82833,-0.38231 -0.82833,-1.48143 0,-0.63717 0.31859,-1.05134 0.31858,-0.41416 0.84425,-0.55752 -0.0637,-0.0478 -0.17522,-0.1593 -0.0956,-0.12743 -0.2708,-0.54159 -0.17522,-0.41417 -0.17522,-0.90797 0,-1.30621 0.81239,-1.99117 0.8124,-0.68496 2.19825,-0.68496 h 4.7788 v 1.38585 h -1.25842 q 0.49381,0.35045 0.49381,1.3062 0,1.21063 -0.84425,1.91152 -0.82833,0.68497 -2.24604,0.68497 z"
     style="font-style:normal;font-variant:normal;font-weight:normal;font-stretch:normal;font-size:15.92933273px;font-family:KonsensMedium;-inkscape-font-specification:'KonsensMedium, Normal';font-variant-ligatures:normal;font-variant-caps:normal;font-variant-numeric:normal;font-feature-settings:normal;text-align:center;writing-mode:lr-tb;text-anchor:middle;fill:#40637d;fill-opacity:1"
     id="path870" /><path
     d="m -272.23321,691.20653 h -1.62479 v -5.5912 q 0,-0.60531 -0.33452,-0.98762 -0.31858,-0.39823 -0.90797,-0.39823 -0.5416,0 -1.25841,0.41416 l -1.36993,0.8124 v 5.75049 h -1.59293 v -8.37883 h 1.577 v 1.09912 l 0.95576,-0.58938 q 0.93983,-0.58939 1.99117,-0.58939 1.17877,0 1.86373,0.73275 0.70089,0.73275 0.70089,1.94338 z"
     style="font-style:normal;font-variant:normal;font-weight:normal;font-stretch:normal;font-size:15.92933273px;font-family:KonsensMedium;-inkscape-font-specification:'KonsensMedium, Normal';font-variant-ligatures:normal;font-variant-caps:normal;font-variant-numeric:normal;font-feature-settings:normal;text-align:center;writing-mode:lr-tb;text-anchor:middle;fill:#40637d;fill-opacity:1"
     id="path872" /><path
     d="m -264.66702,688.73748 v -1.06727 h -2.50091 q -1.59293,0 -1.59293,1.21063 0,0.49381 0.28673,0.78054 0.28672,0.2708 0.81239,0.2708 0.78054,0 1.62479,-0.46195 z m 1.59293,2.46905 h -1.59293 v -1.0832 l -0.92391,0.50974 q -1.24248,0.66903 -2.34161,0.66903 -1.09912,0 -1.78408,-0.6531 -0.66903,-0.6531 -0.66903,-1.70444 0,-1.22656 0.84425,-1.87966 0.86018,-0.6531 2.19825,-0.6531 h 2.69205 v -0.52567 q 0,-1.83187 -1.92744,-1.83187 -2.03896,0 -2.03896,1.64072 h -1.577 v -0.0797 q 0,-1.36992 0.98762,-2.15046 1.00354,-0.78054 2.61241,-0.78054 1.65665,0 2.58055,0.82833 0.93983,0.8124 0.93983,2.29382 z"
     style="font-style:normal;font-variant:normal;font-weight:normal;font-stretch:normal;font-size:15.92933273px;font-family:KonsensMedium;-inkscape-font-specification:'KonsensMedium, Normal';font-variant-ligatures:normal;font-variant-caps:normal;font-variant-numeric:normal;font-feature-settings:normal;text-align:center;writing-mode:lr-tb;text-anchor:middle;fill:#40637d;fill-opacity:1"
     id="path874" /><path
     d="m -259.29386,691.20653 h -1.64072 V 679.3551 h 1.64072 z"
     style="font-style:normal;font-variant:normal;font-weight:normal;font-stretch:normal;font-size:15.92933273px;font-family:KonsensMedium;-inkscape-font-specification:'KonsensMedium, Normal';font-variant-ligatures:normal;font-variant-caps:normal;font-variant-numeric:normal;font-feature-settings:normal;text-align:center;writing-mode:lr-tb;text-anchor:middle;fill:#40637d;fill-opacity:1"
     id="path876" /><path
     d="m -251.66222,688.73748 v -1.06727 h -2.5009 q -1.59294,0 -1.59294,1.21063 0,0.49381 0.28673,0.78054 0.28673,0.2708 0.8124,0.2708 0.78053,0 1.62479,-0.46195 z m 1.59294,2.46905 h -1.59294 v -1.0832 l -0.9239,0.50974 q -1.24249,0.66903 -2.34161,0.66903 -1.09913,0 -1.78409,-0.6531 -0.66903,-0.6531 -0.66903,-1.70444 0,-1.22656 0.84426,-1.87966 0.86018,-0.6531 2.19824,-0.6531 h 2.69206 v -0.52567 q 0,-1.83187 -1.92745,-1.83187 -2.03895,0 -2.03895,1.64072 h -1.57701 v -0.0797 q 0,-1.36992 0.98762,-2.15046 1.00355,-0.78054 2.61241,-0.78054 1.65665,0 2.58055,0.82833 0.93984,0.8124 0.93984,2.29382 z"
     style="font-style:normal;font-variant:normal;font-weight:normal;font-stretch:normal;font-size:15.92933273px;font-family:KonsensMedium;-inkscape-font-specification:'KonsensMedium, Normal';font-variant-ligatures:normal;font-variant-caps:normal;font-variant-numeric:normal;font-feature-settings:normal;text-align:center;writing-mode:lr-tb;text-anchor:middle;fill:#40637d;fill-opacity:1"
     id="path878" /><path
     d="m -241.17574,691.20653 h -7.02483 v -1.38586 l 4.92216,-5.59119 h -4.93809 v -1.40178 h 6.97704 v 1.38585 l -4.8903,5.60712 h 4.95402 z"
     style="font-style:normal;font-variant:normal;font-weight:normal;font-stretch:normal;font-size:15.92933273px;font-family:KonsensMedium;-inkscape-font-specification:'KonsensMedium, Normal';font-variant-ligatures:normal;font-variant-caps:normal;font-variant-numeric:normal;font-feature-settings:normal;text-align:center;writing-mode:lr-tb;text-anchor:middle;fill:#40637d;fill-opacity:1"
     id="path880" /><path
     d="m -237.48362,691.20653 h -1.64072 v -8.37883 h 1.64072 z m 0.11151,-11.11868 v 0.33452 q 0,0.36637 -0.2708,0.58938 -0.25487,0.22301 -0.6531,0.22301 -0.4301,0 -0.68496,-0.20708 -0.25487,-0.22301 -0.25487,-0.60531 v -0.33452 q 0,-0.3823 0.25487,-0.58938 0.25486,-0.22301 0.68496,-0.22301 0.39823,0 0.6531,0.22301 0.2708,0.22301 0.2708,0.58938 z"
     style="font-style:normal;font-variant:normal;font-weight:normal;font-stretch:normal;font-size:15.92933273px;font-family:KonsensMedium;-inkscape-font-specification:'KonsensMedium, Normal';font-variant-ligatures:normal;font-variant-caps:normal;font-variant-numeric:normal;font-feature-settings:normal;text-align:center;writing-mode:lr-tb;text-anchor:middle;fill:#40637d;fill-opacity:1"
     id="path882" /><path
     d="m -229.47191,687.78172 v -1.48143 q 0,-1.01948 -0.60532,-1.59293 -0.58938,-0.57346 -1.56107,-0.57346 -0.98762,0 -1.57701,0.57346 -0.58938,0.57345 -0.58938,1.59293 v 1.48143 q 0,1.01948 0.58938,1.60886 0.58939,0.57346 1.57701,0.57346 0.97169,0 1.56107,-0.57346 0.60532,-0.57345 0.60532,-1.60886 z m 1.56107,-1.62479 v 1.78408 q 0,1.56108 -1.05133,2.50091 -1.03541,0.93983 -2.67613,0.93983 -1.64072,0 -2.69206,-0.93983 -1.0354,-0.93983 -1.0354,-2.50091 v -1.78408 q 0,-1.56108 1.0354,-2.50091 1.05134,-0.93983 2.69206,-0.93983 1.64072,0 2.67613,0.93983 1.05133,0.93983 1.05133,2.50091 z"
     style="font-style:normal;font-variant:normal;font-weight:normal;font-stretch:normal;font-size:15.92933273px;font-family:KonsensMedium;-inkscape-font-specification:'KonsensMedium, Normal';font-variant-ligatures:normal;font-variant-caps:normal;font-variant-numeric:normal;font-feature-settings:normal;text-align:center;writing-mode:lr-tb;text-anchor:middle;fill:#40637d;fill-opacity:1"
     id="path884" /><path
     d="m -218.75172,691.20653 h -1.62479 v -5.5912 q 0,-0.60531 -0.33452,-0.98762 -0.31858,-0.39823 -0.90797,-0.39823 -0.5416,0 -1.25842,0.41416 l -1.36992,0.8124 v 5.75049 h -1.59293 v -8.37883 h 1.577 v 1.09912 l 0.95576,-0.58938 q 0.93983,-0.58939 1.99117,-0.58939 1.17877,0 1.86373,0.73275 0.70089,0.73275 0.70089,1.94338 z"
     style="font-style:normal;font-variant:normal;font-weight:normal;font-stretch:normal;font-size:15.92933273px;font-family:KonsensMedium;-inkscape-font-specification:'KonsensMedium, Normal';font-variant-ligatures:normal;font-variant-caps:normal;font-variant-numeric:normal;font-feature-settings:normal;text-align:center;writing-mode:lr-tb;text-anchor:middle;fill:#40637d;fill-opacity:1"
     id="path886" /><path
     d="m -214.86521,691.20653 h -1.64072 v -8.37883 h 1.64072 z m 0.11151,-11.11868 v 0.33452 q 0,0.36637 -0.2708,0.58938 -0.25487,0.22301 -0.65311,0.22301 -0.43009,0 -0.68496,-0.20708 -0.25487,-0.22301 -0.25487,-0.60531 v -0.33452 q 0,-0.3823 0.25487,-0.58938 0.25487,-0.22301 0.68496,-0.22301 0.39824,0 0.65311,0.22301 0.2708,0.22301 0.2708,0.58938 z"
     style="font-style:normal;font-variant:normal;font-weight:normal;font-stretch:normal;font-size:15.92933273px;font-family:KonsensMedium;-inkscape-font-specification:'KonsensMedium, Normal';font-variant-ligatures:normal;font-variant-caps:normal;font-variant-numeric:normal;font-feature-settings:normal;text-align:center;writing-mode:lr-tb;text-anchor:middle;fill:#40637d;fill-opacity:1"
     id="path888" /></g>

</svg>