<?xml version="1.0" encoding="UTF-8" standalone="no"?>
<!-- Generator: Adobe Illustrator 19.1.0, SVG Export Plug-In . SVG Version: 6.00 Build 0)  -->

<svg
   xmlns:dc="http://purl.org/dc/elements/1.1/"
   xmlns:cc="http://creativecommons.org/ns#"
   xmlns:rdf="http://www.w3.org/1999/02/22-rdf-syntax-ns#"
   xmlns:svg="http://www.w3.org/2000/svg"
   xmlns="http://www.w3.org/2000/svg"
   xmlns:sodipodi="http://sodipodi.sourceforge.net/DTD/sodipodi-0.dtd"
   xmlns:inkscape="http://www.inkscape.org/namespaces/inkscape"
   version="1.1"
   id="Calque_1"
   x="0px"
   y="0px"
   viewBox="-330 571.3 138.7 138.7"
   style="enable-background:new -330 571.3 138.7 138.7;"
   xml:space="preserve"
   sodipodi:docname="main_menu_logo_species_records-fr.svg"
   inkscape:version="0.92.4 (5da689c313, 2019-01-14)"><metadata
   id="metadata67"><rdf:RDF><cc:Work
       rdf:about=""><dc:format>image/svg+xml</dc:format><dc:type
         rdf:resource="http://purl.org/dc/dcmitype/StillImage" /></cc:Work></rdf:RDF></metadata><defs
   id="defs65" /><sodipodi:namedview
   pagecolor="#ffffff"
   bordercolor="#666666"
   borderopacity="1"
   objecttolerance="10"
   gridtolerance="10"
   guidetolerance="10"
   inkscape:pageopacity="0"
   inkscape:pageshadow="2"
   inkscape:window-width="2400"
   inkscape:window-height="1271"
   id="namedview63"
   showgrid="false"
   inkscape:zoom="4"
   inkscape:cx="-68.097006"
   inkscape:cy="69.349998"
   inkscape:window-x="2391"
   inkscape:window-y="-9"
   inkscape:window-maximized="1"
   inkscape:current-layer="Calque_1" /><style
   type="text/css"
   id="style2">
	.st0{fill:#D3D501;}
	.st1{fill:#40637D;}
	.st2{fill:#FFFFFF;}
</style><g
   id="g6"><path
     class="st0"
     d="M-330,640.7c0-38.3,31-69.3,69.3-69.3c38.3,0,69.3,31,69.3,69.3s-31,69.3-69.3,69.3   C-299,710-330,679-330,640.7"
     id="path4" /></g><g
   id="g60"
   transform="translate(0,1.549997)"><g
     id="g46"><path
       class="st2"
       d="m -249.7,639.4 c -0.4,0.6 -1.1,1.1 -1.9,1.3 l -3.7,1 c -0.3,0.1 -0.6,0.1 -0.9,0.1 -0.7,0 -1.4,-0.2 -1.9,-0.6 -0.8,-0.6 -1.3,-1.5 -1.4,-2.5 l -0.3,-3.9 c -0.1,-0.8 0.1,-1.6 0.6,-2.2 l 0.1,-0.2 h -13.4 c -1.1,0 -2,-0.9 -2,-2 0,-1.1 0.9,-2 2,-2 h 16.2 l 3.6,-5.2 h -19.8 c -1.1,0 -2,-0.9 -2,-2 0,-1.1 0.9,-2 2,-2 l 22.6,-0.1 8.5,-12.1 v -9 c 0,-1.5 -1.1,-2.7 -2.6,-2.7 h -6.5 v 5.1 c 0,2.4 -2,4.3 -4.4,4.3 h -13 c -2.4,0 -4.3,-1.9 -4.3,-4.3 v -5.1 h -6.5 c -1.5,0 -2.7,1.2 -2.7,2.7 v 45.9 c 0,1.5 1.2,2.7 2.7,2.7 h 34.8 c 1.5,0 2.6,-1.3 2.6,-2.7 v -16.4 z m -22.8,-29.1 h 22 c 1.1,0 2,0.9 2,2 0,1.1 -0.9,2 -2,2 h -22 c -1.1,0 -2,-0.9 -2,-2 0,-1.1 0.9,-2 2,-2"
       id="path44"
       inkscape:connector-curvature="0"
       style="fill:#ffffff" /></g><g
     id="g50"><path
       class="st2"
       d="m -268,602.5 h 13 c 1,0 1.8,-0.8 1.8,-1.8 v -7.5 c 0,-1 -0.8,-1.8 -1.8,-1.8 h -2 c 0,-2.5 -2.1,-4.6 -4.6,-4.6 -2.5,0 -4.6,2 -4.6,4.6 h -1.9 c -1,0 -1.8,0.8 -1.8,1.8 v 7.5 c 0.1,1 0.9,1.8 1.9,1.8 m 6.5,-13.1 c 1.1,0 2,0.9 2,2 h -4.1 c 0.1,-1.1 1,-2 2.1,-2"
       id="path48"
       inkscape:connector-curvature="0"
       style="fill:#ffffff" /></g><g
     id="g54"><path
       class="st2"
       d="m -225,598.9 c -0.1,-0.3 -0.2,-0.6 -0.5,-0.8 l -3.3,-2.3 c -0.2,-0.2 -0.5,-0.2 -0.7,-0.2 -0.4,0 -0.8,0.2 -1,0.5 l -23.1,33.1 5.3,3.7 23.1,-33.1 c 0.2,-0.2 0.2,-0.6 0.2,-0.9"
       id="path52"
       inkscape:connector-curvature="0"
       style="fill:#ffffff" /></g><g
     id="g58"><path
       class="st2"
       d="m -257.3,634.6 0.3,3.9 c 0,0.2 0.1,0.4 0.3,0.5 0.1,0.1 0.3,0.1 0.4,0.1 0.1,0 0.1,0 0.2,0 l 3.8,-1 c 0.2,0 0.3,-0.2 0.4,-0.3 l 1.4,-2 -5.3,-3.7 -1.4,2 c -0.1,0.2 -0.1,0.4 -0.1,0.5"
       id="path56"
       inkscape:connector-curvature="0"
       style="fill:#ffffff" /></g></g><g
   aria-label="Mes 
observations"
   style="font-style:normal;font-variant:normal;font-weight:normal;font-stretch:normal;font-size:15.46666718px;line-height:1.25;font-family:KonsensMedium;-inkscape-font-specification:'KonsensMedium, Normal';font-variant-ligatures:normal;font-variant-caps:normal;font-variant-numeric:normal;font-feature-settings:normal;text-align:center;letter-spacing:0px;word-spacing:0px;writing-mode:lr-tb;text-anchor:middle;fill:#40637d;fill-opacity:1;stroke:none"
   id="text71"><path
     d="m -264.52094,670.2074 h -1.60853 v -9.29547 l -3.00054,9.29547 h -1.6704 l -2.9696,-9.28 v 9.28 h -1.59306 l 0.0155,-11.5072 h 2.552 l 2.86134,9.29546 2.90773,-9.29546 h 2.5056 z"
     style=""
     id="path826" /><path
     d="m -255.40382,667.62446 v 0.0773 q 0,1.19093 -0.94347,1.91786 -0.94347,0.72694 -2.52107,0.72694 -1.5776,0 -2.56746,-0.81974 -0.98987,-0.8352 -0.98987,-2.2736 v -1.9488 q 0,-1.51573 0.98987,-2.42826 0.98986,-0.91254 2.552,-0.91254 1.56213,0 2.53653,0.91254 0.9744,0.89706 0.9744,2.44373 v 1.37653 h -5.55253 v 0.464 q 0,0.91254 0.5568,1.392 0.57226,0.464 1.50026,0.464 1.96427,0 1.96427,-1.392 z m -1.45387,-2.088 V 665.289 q 0,-0.95894 -0.54133,-1.46934 -0.52587,-0.52586 -1.4848,-0.52586 -0.95894,0 -1.50027,0.52586 -0.54133,0.52587 -0.54133,1.4848 v 0.232 z"
     style=""
     id="path828" /><path
     d="m -246.86211,664.67033 h -1.54667 q 0,-1.392 -1.82507,-1.392 -0.86613,0 -1.33013,0.30933 -0.44853,0.30934 -0.44853,0.81974 0,0.47946 0.38666,0.7424 0.38667,0.26293 0.95894,0.3248 0.57226,0.0619 1.23733,0.1856 0.68053,0.12373 1.2528,0.29386 0.57227,0.15467 0.95893,0.63414 0.38667,0.47946 0.38667,1.2528 0,1.14453 -0.91253,1.82506 -0.91254,0.66507 -2.5056,0.66507 -1.60854,0 -2.53654,-0.72693 -0.91253,-0.72694 -0.91253,-1.91787 v -0.0773 h 1.59307 q 0,1.40746 1.88693,1.40746 0.89707,0 1.37653,-0.29386 0.49494,-0.30934 0.49494,-0.81974 0,-0.5104 -0.54134,-0.7424 -0.52586,-0.232 -1.28373,-0.3248 -0.75787,-0.0928 -1.5312,-0.24746 -0.75787,-0.15467 -1.2992,-0.68054 -0.52587,-0.54133 -0.52587,-1.46933 0,-1.14453 0.8816,-1.8096 0.89707,-0.66507 2.44374,-0.66507 1.59306,0 2.4592,0.72694 0.8816,0.71146 0.8816,1.91786 z"
     style=""
     id="path830" /><path
     d="m -301.84938,686.2154 v -1.4384 q 0,-0.98987 -0.58773,-1.54667 -0.57227,-0.5568 -1.51573,-0.5568 -0.95894,0 -1.5312,0.5568 -0.57227,0.5568 -0.57227,1.54667 v 1.4384 q 0,0.98986 0.57227,1.56213 0.57226,0.5568 1.5312,0.5568 0.94346,0 1.51573,-0.5568 0.58773,-0.5568 0.58773,-1.56213 z m 1.51574,-1.5776 v 1.73226 q 0,1.51574 -1.0208,2.42827 -1.00534,0.91253 -2.5984,0.91253 -1.59307,0 -2.61387,-0.91253 -1.00533,-0.91253 -1.00533,-2.42827 v -1.73226 q 0,-1.51574 1.00533,-2.42827 1.0208,-0.91253 2.61387,-0.91253 1.59306,0 2.5984,0.91253 1.0208,0.91253 1.0208,2.42827 z"
     style=""
     id="path832" /><path
     d="m -292.64695,686.7258 v -2.4592 q 0,-0.68054 -0.38667,-1.08267 -0.38667,-0.4176 -1.03627,-0.4176 -0.63413,0 -1.28373,0.34027 l -1.4384,0.81973 v 3.13973 l 1.4384,0.80427 q 0.68053,0.35573 1.28373,0.35573 0.6496,0 1.03627,-0.40213 0.38667,-0.4176 0.38667,-1.09813 z m -3.1552,2.39733 -1.00534,-0.54133 v 0.95893 h -1.51573 v -11.5072 h 1.5312 v 4.37707 l 0.98987,-0.5568 q 0.9744,-0.52587 1.93333,-0.52587 1.22187,0 1.97973,0.77333 0.77334,0.75787 0.77334,1.9952 v 2.784 q 0,1.2064 -0.77334,1.9952 -0.77333,0.77334 -2.01066,0.77334 -0.928,0 -1.9024,-0.52587 z"
     style=""
     id="path834" /><path
     d="m -282.58347,684.00366 h -1.54667 q 0,-1.392 -1.82506,-1.392 -0.86614,0 -1.33014,0.30934 -0.44853,0.30933 -0.44853,0.81973 0,0.47947 0.38667,0.7424 0.38666,0.26293 0.95893,0.3248 0.57227,0.0619 1.23733,0.1856 0.68054,0.12373 1.2528,0.29387 0.57227,0.15466 0.95894,0.63413 0.38666,0.47947 0.38666,1.2528 0,1.14453 -0.91253,1.82507 -0.91253,0.66506 -2.5056,0.66506 -1.60853,0 -2.53653,-0.72693 -0.91254,-0.72693 -0.91254,-1.91787 v -0.0773 h 1.59307 q 0,1.40747 1.88693,1.40747 0.89707,0 1.37654,-0.29387 0.49493,-0.30933 0.49493,-0.81973 0,-0.5104 -0.54133,-0.7424 -0.52587,-0.232 -1.28374,-0.3248 -0.75786,-0.0928 -1.5312,-0.24747 -0.75786,-0.15467 -1.2992,-0.68053 -0.52586,-0.54134 -0.52586,-1.46934 0,-1.14453 0.8816,-1.8096 0.89706,-0.66506 2.44373,-0.66506 1.59307,0 2.4592,0.72693 0.8816,0.71147 0.8816,1.91787 z"
     style=""
     id="path836" /><path
     d="m -273.84601,686.9578 v 0.0773 q 0,1.19093 -0.94347,1.91787 -0.94346,0.72693 -2.52106,0.72693 -1.5776,0 -2.56747,-0.81973 -0.98987,-0.8352 -0.98987,-2.2736 v -1.9488 q 0,-1.51574 0.98987,-2.42827 0.98987,-0.91253 2.552,-0.91253 1.56213,0 2.53653,0.91253 0.9744,0.89707 0.9744,2.44373 v 1.37654 h -5.55253 v 0.464 q 0,0.91253 0.5568,1.392 0.57227,0.464 1.50027,0.464 1.96426,0 1.96426,-1.392 z m -1.45387,-2.088 v -0.24747 q 0,-0.95893 -0.54133,-1.46933 -0.52587,-0.52587 -1.4848,-0.52587 -0.95893,0 -1.50027,0.52587 -0.54133,0.52586 -0.54133,1.4848 v 0.232 z"
     style=""
     id="path838" /><path
     d="m -270.2227,689.54073 h -1.5776 v -8.13547 h 1.54667 v 1.23734 l 0.3712,-0.3712 q 0.9744,-0.89707 2.11893,-0.89707 h 0.4176 v 1.60853 h -0.40213 q -1.05174,0 -1.79414,0.61867 l -0.68053,0.5568 z"
     style=""
     id="path840" /><path
     d="m -262.18004,689.54073 h -1.7632 l -2.90773,-8.13547 h 1.7168 l 2.10347,6.3568 2.1344,-6.3568 h 1.624 z"
     style=""
     id="path842" /><path
     d="m -253.01338,687.1434 v -1.03627 h -2.42827 q -1.54666,0 -1.54666,1.17547 0,0.47946 0.2784,0.75786 0.2784,0.26294 0.7888,0.26294 0.75786,0 1.5776,-0.44854 z m 1.54667,2.39733 h -1.54667 V 688.489 l -0.89707,0.49493 q -1.2064,0.6496 -2.2736,0.6496 -1.0672,0 -1.73226,-0.63413 -0.6496,-0.63414 -0.6496,-1.65494 0,-1.19093 0.81973,-1.82506 0.8352,-0.63414 2.1344,-0.63414 h 2.61387 v -0.5104 q 0,-1.77866 -1.87147,-1.77866 -1.97973,0 -1.97973,1.59306 h -1.5312 v -0.0773 q 0,-1.33013 0.95893,-2.088 0.9744,-0.75787 2.53653,-0.75787 1.60854,0 2.5056,0.80427 0.91254,0.7888 0.91254,2.2272 z"
     style=""
     id="path844" /><path
     d="m -245.00646,689.54073 h -1.0208 q -1.392,0 -2.19627,-0.71147 -0.80427,-0.71146 -0.80427,-2.07253 v -3.9904 h -1.2992 v -1.36107 h 1.31467 V 679.209 h 1.5776 v 2.19626 h 2.3664 v 1.36107 h -2.3664 v 3.91307 q 0,0.80426 0.35573,1.14453 0.3712,0.3248 1.14454,0.3248 h 0.928 z"
     style=""
     id="path846" /><path
     d="m -241.78047,689.54073 h -1.59306 v -8.13547 h 1.59306 z m 0.10827,-10.79573 v 0.3248 q 0,0.35573 -0.26293,0.57226 -0.24747,0.21654 -0.63414,0.21654 -0.4176,0 -0.66506,-0.20107 -0.24747,-0.21653 -0.24747,-0.58773 v -0.3248 q 0,-0.3712 0.24747,-0.57227 0.24746,-0.21653 0.66506,-0.21653 0.38667,0 0.63414,0.21653 0.26293,0.21653 0.26293,0.57227 z"
     style=""
     id="path848" /><path
     d="m -234.00145,686.2154 v -1.4384 q 0,-0.98987 -0.58774,-1.54667 -0.57226,-0.5568 -1.51573,-0.5568 -0.95893,0 -1.5312,0.5568 -0.57227,0.5568 -0.57227,1.54667 v 1.4384 q 0,0.98986 0.57227,1.56213 0.57227,0.5568 1.5312,0.5568 0.94347,0 1.51573,-0.5568 0.58774,-0.5568 0.58774,-1.56213 z m 1.51573,-1.5776 v 1.73226 q 0,1.51574 -1.0208,2.42827 -1.00533,0.91253 -2.5984,0.91253 -1.59307,0 -2.61387,-0.91253 -1.00533,-0.91253 -1.00533,-2.42827 v -1.73226 q 0,-1.51574 1.00533,-2.42827 1.0208,-0.91253 2.61387,-0.91253 1.59307,0 2.5984,0.91253 1.0208,0.91253 1.0208,2.42827 z"
     style=""
     id="path850" /><path
     d="m -223.59263,689.54073 h -1.5776 v -5.4288 q 0,-0.58773 -0.3248,-0.95893 -0.30934,-0.38667 -0.8816,-0.38667 -0.52587,0 -1.22187,0.40213 l -1.33013,0.7888 v 5.58347 h -1.54667 v -8.13547 h 1.5312 v 1.0672 l 0.928,-0.57226 q 0.91253,-0.57227 1.93333,-0.57227 1.14454,0 1.8096,0.71147 0.68054,0.71146 0.68054,1.88693 z"
     style=""
     id="path852" /><path
     d="m -214.94701,684.00366 h -1.54666 q 0,-1.392 -1.82507,-1.392 -0.86613,0 -1.33013,0.30934 -0.44854,0.30933 -0.44854,0.81973 0,0.47947 0.38667,0.7424 0.38667,0.26293 0.95893,0.3248 0.57227,0.0619 1.23734,0.1856 0.68053,0.12373 1.2528,0.29387 0.57226,0.15466 0.95893,0.63413 0.38667,0.47947 0.38667,1.2528 0,1.14453 -0.91254,1.82507 -0.91253,0.66506 -2.5056,0.66506 -1.60853,0 -2.53653,-0.72693 -0.91253,-0.72693 -0.91253,-1.91787 v -0.0773 h 1.59306 q 0,1.40747 1.88694,1.40747 0.89706,0 1.37653,-0.29387 0.49493,-0.30933 0.49493,-0.81973 0,-0.5104 -0.54133,-0.7424 -0.52587,-0.232 -1.28373,-0.3248 -0.75787,-0.0928 -1.5312,-0.24747 -0.75787,-0.15467 -1.2992,-0.68053 -0.52587,-0.54134 -0.52587,-1.46934 0,-1.14453 0.8816,-1.8096 0.89707,-0.66506 2.44373,-0.66506 1.59307,0 2.4592,0.72693 0.8816,0.71147 0.8816,1.91787 z"
     style=""
     id="path854" /></g>


</svg>