<?xml version="1.0" encoding="UTF-8" standalone="no"?>
<!-- Generator: Adobe Illustrator 19.1.0, SVG Export Plug-In . SVG Version: 6.00 Build 0)  -->

<svg
   xmlns:dc="http://purl.org/dc/elements/1.1/"
   xmlns:cc="http://creativecommons.org/ns#"
   xmlns:rdf="http://www.w3.org/1999/02/22-rdf-syntax-ns#"
   xmlns:svg="http://www.w3.org/2000/svg"
   xmlns="http://www.w3.org/2000/svg"
   xmlns:sodipodi="http://sodipodi.sourceforge.net/DTD/sodipodi-0.dtd"
   xmlns:inkscape="http://www.inkscape.org/namespaces/inkscape"
   version="1.1"
   id="Calque_1"
   x="0px"
   y="0px"
   viewBox="-33.6 228.6 138.2 138.2"
   xml:space="preserve"
   sodipodi:docname="main_menu_logo_map-bg.svg"
   inkscape:version="0.92.4 (5da689c313, 2019-01-14)"
   width="138.2"
   height="138.2"><metadata
     id="metadata105"><rdf:RDF><cc:Work
         rdf:about=""><dc:format>image/svg+xml</dc:format><dc:type
           rdf:resource="http://purl.org/dc/dcmitype/StillImage" /><dc:title /></cc:Work></rdf:RDF></metadata><defs
     id="defs103" /><sodipodi:namedview
     pagecolor="#ffffff"
     bordercolor="#666666"
     borderopacity="1"
     objecttolerance="10"
     gridtolerance="10"
     guidetolerance="10"
     inkscape:pageopacity="0"
     inkscape:pageshadow="2"
     inkscape:window-width="1920"
     inkscape:window-height="1017"
     id="namedview101"
     showgrid="false"
     inkscape:zoom="4"
     inkscape:cx="27.649994"
     inkscape:cy="17.633828"
     inkscape:window-x="-8"
     inkscape:window-y="-8"
     inkscape:window-maximized="1"
     inkscape:current-layer="text6172"
     fit-margin-top="0"
     fit-margin-left="0"
     fit-margin-right="0"
     fit-margin-bottom="0" /><style
     type="text/css"
     id="style2">
	.st0{fill:#D3D501;}
	.st1{fill:#FFFFFF;}
	.st2{fill:#7A9C2B;}
	.st3{fill:#E8E493;}
	.st4{fill:#40637D;}
	.st5{fill:#5E9EB5;}
	.st6{fill:#D0A82B;}
	.st7{fill:#559973;}
	.st8{fill:#00662C;}
</style><g
     id="g36"
     transform="translate(-0.20000144,-0.39997711)"><g
       id="g30"><path
         class="st1"
         d="m 24.1,315.9 c 0,0.4 0.2,0.8 0.6,1 0.4,0.2 0.8,0.2 1.2,-0.1 l 7.7,-5.3 -9.5,-4.5 z"
         id="path28"
         inkscape:connector-curvature="0"
         style="fill:#ffffff" /></g><g
       id="g34"><path
         class="st1"
         d="m 70,256.5 c -0.2,-0.2 -0.5,-0.3 -0.8,-0.3 -0.2,0 -0.3,0 -0.5,0.1 L 2.1,289 c -0.7,0.3 -1.1,1 -1.1,1.8 0,0.8 0.4,1.5 1.1,1.8 L 19.7,301 54.8,272.1 24,303 45.9,313.4 c 0.3,0.1 0.6,0.2 0.9,0.2 0.2,0 0.5,0 0.7,-0.1 0.5,-0.2 0.9,-0.6 1.1,-1.1 l 21.7,-54.6 c 0.2,-0.5 0.1,-1 -0.3,-1.3"
         id="path32"
         inkscape:connector-curvature="0"
         style="fill:#ffffff" /></g></g><path
     style="fill:#5e9eb5"
     d="m 104.6,297.70001 a 69.099998,69.099998 0 0 1 -69.1,69.1 69.099998,69.099998 0 0 1 -69.099998,-69.1 69.099998,69.099998 0 0 1 69.099998,-69.1 69.099998,69.099998 0 0 1 69.1,69.1 z"
     id="circle38" /><g
     id="g54"
     transform="translate(2.0902517,-0.39997711)"><path
       class="st1"
       d="M 30.5,268.5 H 10.7 c -0.8,0 -1.5,0.5 -1.7,1.3 l -3.8,13.1 26.6,2.9 2.1,-10 c -1.3,-2.3 -2.5,-4.8 -3.4,-7.3 z"
       id="path40"
       inkscape:connector-curvature="0"
       style="fill:#ffffff" /><path
       class="st1"
       d="m 55.4,288.4 8,0.9 L 61,281 c -0.3,0.5 -0.6,0.9 -1,1.4 -1.6,2.3 -3.2,4.3 -4.6,6 z"
       id="path42"
       inkscape:connector-curvature="0"
       style="fill:#ffffff" /><g
       id="g52"><path
         class="st1"
         d="m 38,282.3 -0.9,4.1 4.3,0.5 c -1,-1.4 -2.1,-2.9 -3.4,-4.6 0.1,0.1 0.1,0 0,0 z"
         id="path44"
         inkscape:connector-curvature="0"
         style="fill:#ffffff" /><path
         class="st1"
         d="m 0.1,300.6 c -0.2,0.5 0,1.1 0.3,1.6 0.3,0.4 0.9,0.7 1.4,0.7 h 26.4 l 2.5,-11.8 -27,-3 z"
         id="path46"
         inkscape:connector-curvature="0"
         style="fill:#ffffff" /><path
         class="st1"
         d="m 65,294.8 -28.9,-3.2 -2.3,11.2 H 65 c 1,0 1.8,-0.8 1.8,-1.8 0,-0.2 0,-0.4 -0.1,-0.6 z"
         id="path48"
         inkscape:connector-curvature="0"
         style="fill:#ffffff" /><path
         class="st1"
         d="m 48.3,290.7 c 0.2,0.2 0.5,0.3 0.7,0.3 0.3,0 0.5,-0.1 0.7,-0.3 1.6,-1.7 4.8,-5.3 8,-9.8 4,-5.7 8.9,-14.1 8.9,-21.5 0,-9.7 -7.9,-17.7 -17.7,-17.7 -9.7,0 -17.7,7.9 -17.7,17.7 0,7.5 4.8,15.8 8.9,21.5 3.4,4.5 6.6,8 8.2,9.8 z m 0.8,-42.4 c 5.9,0 10.8,4.8 10.8,10.8 0,5.9 -4.8,10.8 -10.8,10.8 -5.9,0 -10.8,-4.8 -10.8,-10.8 0,-6 4.8,-10.8 10.8,-10.8 z"
         id="path50"
         inkscape:connector-curvature="0"
         style="fill:#ffffff" /></g></g><g
     id="g98"
     transform="translate(18.292845,-14.399977)"><g
       id="g96"><g
   aria-label="Карта на 
наблюденията"
   style="font-style:normal;font-variant:normal;font-weight:normal;font-stretch:normal;font-size:15.46666718px;line-height:1.25;font-family:KonsensMedium;-inkscape-font-specification:'KonsensMedium, Normal';font-variant-ligatures:normal;font-variant-caps:normal;font-variant-numeric:normal;font-feature-settings:normal;text-align:center;letter-spacing:0px;word-spacing:0px;writing-mode:lr-tb;text-anchor:middle;fill:#ffffff;fill-opacity:1;stroke:none"
   id="text6172"><path
     d="m -7.9217401,344.09995 h -1.9182293 l -4.5690106,-5.12787 h -1.019531 v 5.12787 h -1.495313 v -11.24506 h 1.495313 v 5.04479 q 0.385156,-0.008 0.725,-0.0755 0.339844,-0.068 0.641927,-0.25677 0.302083,-0.1737 0.596615,-0.49088 0.294531,-0.32474 0.521093,-0.79297 0.09818,-0.20391 0.226563,-0.51354 0.135937,-0.30964 0.271875,-0.64948 0.521094,-1.25365 1.215885,-1.75964 0.702344,-0.50599 2.0617191,-0.50599 h 0.5966146 v 1.33672 h -0.626823 q -0.5210937,0 -0.8156247,0.0982 -0.294532,0.0906 -0.528646,0.30963 -0.219011,0.19636 -0.385156,0.52865 -0.158594,0.33229 -0.332292,0.77786 -0.392708,0.99688 -0.800521,1.46511 -0.40026,0.46823 -1.079948,0.81562 z"
     style=""
     id="path834" /><path
     d="M 0.20430207,344.09995 H -1.2079376 v -0.8987 q -0.1888021,0.12838 -0.5135416,0.3625 -0.3171876,0.22656 -0.6192709,0.3625 -0.3549479,0.1737 -0.815625,0.28698 -0.4606771,0.12083 -1.079948,0.12083 -1.1403646,0 -1.9333334,-0.75521 -0.7929688,-0.75521 -0.7929688,-1.92578 0,-0.95911 0.4078126,-1.54818 0.4153646,-0.59661 1.178125,-0.93646 0.7703125,-0.33984 1.8502605,-0.46067 1.0799479,-0.12084 2.3184896,-0.18125 v -0.21901 q 0,-0.48334 -0.1736979,-0.80052 -0.1661458,-0.31719 -0.4833333,-0.49844 -0.3020834,-0.1737 -0.7250001,-0.23412 -0.4229166,-0.0604 -0.8835937,-0.0604 -0.5588542,0 -1.2460938,0.15104 -0.6872396,0.14349 -1.4197917,0.42292 h -0.075521 v -1.44245 q 0.4153646,-0.11328 1.2007813,-0.24922 0.7854167,-0.13594 1.5481771,-0.13594 0.8911459,0 1.5481772,0.15104 0.6645833,0.14349 1.14791669,0.49844 0.47578126,0.3474 0.72500002,0.8987 0.24921876,0.5513 0.24921876,1.36693 z m -1.41223967,-2.07683 v -2.3487 q -0.6494791,0.0378 -1.5330729,0.11329 -0.8760417,0.0755 -1.3895834,0.21901 -0.6117188,0.17369 -0.989323,0.54375 -0.3776041,0.3625 -0.3776041,1.00442 0,0.725 0.4380208,1.09506 0.4380209,0.3625 1.3367188,0.3625 0.7476563,0 1.3669271,-0.28698 0.6192709,-0.29454 1.1479167,-0.70235 z"
     style=""
     id="path836" /><path
     d="m 10.376958,339.78015 q 0,1.02709 -0.294531,1.88047 -0.294531,0.84584 -0.830729,1.4349 -0.4984375,0.55885 -1.178125,0.86849 -0.6721355,0.30208 -1.4273438,0.30208 -0.6570313,0 -1.1932292,-0.14349 -0.5286459,-0.14349 -1.079948,-0.44557 v 3.53437 H 2.9532603 V 335.66427 H 4.373052 v 0.88359 q 0.5664063,-0.47578 1.2687501,-0.79297 0.7098958,-0.32474 1.5104167,-0.32474 1.5255209,0 2.3713542,1.15547 0.853385,1.14792 0.853385,3.19453 z m -1.4651037,0.0378 q 0,-1.52552 -0.5210938,-2.28073 -0.5210938,-0.7552 -1.6010417,-0.7552 -0.6117188,0 -1.2309897,0.26432 -0.6192708,0.26432 -1.1856771,0.69479 v 4.78047 q 0.6041667,0.27187 1.0346355,0.37005 0.4380208,0.0982 0.9893229,0.0982 1.1856771,0 1.8502605,-0.80052 0.6645834,-0.80052 0.6645834,-2.37136 z"
     style=""
     id="path838" /><path
     d="m 18.78998,336.91036 h -3.051041 v 7.18959 h -1.419792 v -7.18959 h -3.051042 v -1.24609 h 7.521875 z"
     style=""
     id="path840" /><path
     d="m 26.817845,344.09995 h -1.41224 v -0.8987 q -0.188802,0.12838 -0.513542,0.3625 -0.317187,0.22656 -0.619271,0.3625 -0.354947,0.1737 -0.815625,0.28698 -0.460677,0.12083 -1.079948,0.12083 -1.140364,0 -1.933333,-0.75521 -0.792969,-0.75521 -0.792969,-1.92578 0,-0.95911 0.407813,-1.54818 0.415364,-0.59661 1.178125,-0.93646 0.770312,-0.33984 1.85026,-0.46067 1.079948,-0.12084 2.31849,-0.18125 v -0.21901 q 0,-0.48334 -0.173698,-0.80052 -0.166146,-0.31719 -0.483333,-0.49844 -0.302084,-0.1737 -0.725,-0.23412 -0.422917,-0.0604 -0.883594,-0.0604 -0.558854,0 -1.246094,0.15104 -0.687239,0.14349 -1.419792,0.42292 h -0.07552 v -1.44245 q 0.415364,-0.11328 1.200781,-0.24922 0.785417,-0.13594 1.548177,-0.13594 0.891146,0 1.548177,0.15104 0.664583,0.14349 1.147917,0.49844 0.475781,0.3474 0.725,0.8987 0.249219,0.5513 0.249219,1.36693 z m -1.41224,-2.07683 v -2.3487 q -0.649479,0.0378 -1.533073,0.11329 -0.876042,0.0755 -1.389583,0.21901 -0.611719,0.17369 -0.989323,0.54375 -0.377604,0.3625 -0.377604,1.00442 0,0.725 0.43802,1.09506 0.438021,0.3625 1.336719,0.3625 0.747656,0 1.366927,-0.28698 0.619271,-0.29454 1.147917,-0.70235 z"
     style=""
     id="path842" /><path
     d="m 42.065499,344.09995 h -1.419792 v -3.7987 h -4.221614 v 3.7987 h -1.419792 v -8.43568 h 1.419792 v 3.41354 h 4.221614 v -3.41354 h 1.419792 z"
     style=""
     id="path844" /><path
     d="m 51.407429,344.09995 h -1.41224 v -0.8987 q -0.188802,0.12838 -0.513541,0.3625 -0.317188,0.22656 -0.619271,0.3625 -0.354948,0.1737 -0.815625,0.28698 -0.460677,0.12083 -1.079948,0.12083 -1.140365,0 -1.933334,-0.75521 -0.792968,-0.75521 -0.792968,-1.92578 0,-0.95911 0.407812,-1.54818 0.415365,-0.59661 1.178125,-0.93646 0.770313,-0.33984 1.850261,-0.46067 1.079948,-0.12084 2.318489,-0.18125 v -0.21901 q 0,-0.48334 -0.173698,-0.80052 -0.166145,-0.31719 -0.483333,-0.49844 -0.302083,-0.1737 -0.725,-0.23412 -0.422917,-0.0604 -0.883594,-0.0604 -0.558854,0 -1.246094,0.15104 -0.687239,0.14349 -1.419791,0.42292 h -0.07552 v -1.44245 q 0.415365,-0.11328 1.200781,-0.24922 0.785417,-0.13594 1.548177,-0.13594 0.891146,0 1.548177,0.15104 0.664584,0.14349 1.147917,0.49844 0.475781,0.3474 0.725,0.8987 0.249219,0.5513 0.249219,1.36693 z m -1.41224,-2.07683 v -2.3487 q -0.649479,0.0378 -1.533073,0.11329 -0.876041,0.0755 -1.389583,0.21901 -0.611719,0.17369 -0.989323,0.54375 -0.377604,0.3625 -0.377604,1.00442 0,0.725 0.438021,1.09506 0.438021,0.3625 1.336719,0.3625 0.747656,0 1.366927,-0.28698 0.61927,-0.29454 1.147916,-0.70235 z"
     style=""
     id="path846" /><path
     d="m -32.443356,363.58284 h -1.419791 v -3.7987 h -4.221615 v 3.7987 h -1.419792 v -8.43568 h 1.419792 v 3.41354 h 4.221615 v -3.41354 h 1.419791 z"
     style=""
     id="path848" /><path
     d="m -23.101429,363.58284 h -1.412239 v -0.8987 q -0.188802,0.12838 -0.513542,0.3625 -0.317187,0.22656 -0.619271,0.3625 -0.354948,0.1737 -0.815625,0.28698 -0.460677,0.12083 -1.079948,0.12083 -1.140364,0 -1.933333,-0.75521 -0.792969,-0.75521 -0.792969,-1.92578 0,-0.95911 0.407813,-1.54818 0.415364,-0.59661 1.178125,-0.93645 0.770312,-0.33985 1.85026,-0.46068 1.079948,-0.12083 2.31849,-0.18125 v -0.21901 q 0,-0.48333 -0.173698,-0.80052 -0.166146,-0.31719 -0.483333,-0.49844 -0.302084,-0.1737 -0.725,-0.23411 -0.422917,-0.0604 -0.883594,-0.0604 -0.558854,0 -1.246094,0.15104 -0.68724,0.14349 -1.419792,0.42292 h -0.07552 v -1.44245 q 0.415365,-0.11328 1.200782,-0.24922 0.785416,-0.13594 1.548177,-0.13594 0.891146,0 1.548177,0.15104 0.664583,0.14349 1.147917,0.49844 0.475781,0.3474 0.725,0.8987 0.249218,0.5513 0.249218,1.36693 z m -1.412239,-2.07683 v -2.34869 q -0.649479,0.0378 -1.533073,0.11328 -0.876042,0.0755 -1.389584,0.21901 -0.611718,0.1737 -0.989322,0.54375 -0.377605,0.3625 -0.377605,1.00442 0,0.725 0.438021,1.09506 0.438021,0.3625 1.336719,0.3625 0.747656,0 1.366927,-0.28698 0.619271,-0.29453 1.147917,-0.70235 z"
     style=""
     id="path850" /><path
     d="m -14.152209,356.39325 q 0.528646,0.52865 0.800521,1.28386 0.271875,0.74765 0.271875,1.75963 0,1.88802 -1.132812,3.13412 -1.132813,1.24609 -2.786719,1.24609 -0.815625,0 -1.502865,-0.27187 -0.687239,-0.27943 -1.170573,-0.85339 -0.604167,-0.71745 -0.90625,-1.80495 -0.294531,-1.09505 -0.294531,-2.66588 0,-0.56641 0.05286,-1.14792 0.05287,-0.58906 0.241667,-1.40469 0.151042,-0.70234 0.438021,-1.35182 0.294531,-0.64948 0.694792,-1.04974 0.54375,-0.5513 1.427343,-0.88359 0.891146,-0.33985 2.356251,-0.46823 0.596614,-0.0529 1.110156,-0.0831 0.513542,-0.0378 0.921354,-0.068 v 1.30651 q -0.498437,0.0302 -0.989323,0.0604 -0.483333,0.0302 -0.966667,0.0755 -0.966666,0.0831 -1.752083,0.31719 -0.777865,0.23412 -1.140365,0.60417 -0.40026,0.40026 -0.604166,1.04974 -0.196354,0.64192 -0.256771,1.22344 0.566406,-0.40782 1.238542,-0.67969 0.679687,-0.27943 1.442448,-0.27943 0.709895,0 1.366927,0.23412 0.657031,0.23411 1.140364,0.71744 z m -0.370052,3.12657 q 0,-1.39714 -0.672135,-2.08438 -0.672136,-0.69479 -1.77474,-0.69479 -0.657031,0 -1.261198,0.21146 -0.604167,0.2039 -1.147917,0.5513 -0.0151,0.1888 -0.03021,0.44557 -0.0076,0.24922 -0.0076,0.46068 0,1.31406 0.21901,2.12969 0.219011,0.81562 0.619271,1.29896 0.347396,0.40781 0.755209,0.58151 0.407812,0.16614 0.876041,0.16614 1.140365,0 1.782292,-0.82318 0.641927,-0.82317 0.641927,-2.24296 z"
     style=""
     id="path852" /><path
     d="m -4.032417,363.58284 h -1.4197917 v -7.24245 h -3.1492189 q -0.022656,0.62682 -0.045313,1.20833 -0.022656,0.58151 -0.045312,1.04974 -0.052865,1.2612 -0.1736979,2.01641 -0.1208334,0.74765 -0.3171875,1.24609 -0.18125,0.46823 -0.4078125,0.76276 -0.2190105,0.28698 -0.4757815,0.5211 -0.256771,0.22656 -0.573958,0.33984 -0.309636,0.11328 -0.679688,0.11328 -0.128385,0 -0.377604,-0.008 -0.241667,-0.008 -0.317187,-0.008 v -1.23854 h 0.07552 q 0.06042,0 0.173698,0.008 0.113282,0.008 0.188802,0.008 0.18125,0 0.370053,-0.0529 0.196354,-0.0529 0.332291,-0.19635 0.385157,-0.3776 0.619271,-1.2763 0.234115,-0.8987 0.3096355,-2.59792 0.030208,-0.61927 0.052865,-1.4651 0.030208,-0.85339 0.052865,-1.6237 h 5.8075523 z"
     style=""
     id="path854" /><path
     d="m 8.0811255,359.36877 q 0,-1.62369 -0.626823,-2.42421 -0.6268229,-0.80808 -1.7369792,-0.80808 -1.1554688,0 -1.7671875,0.84584 -0.6041667,0.83828 -0.6041667,2.38645 0,1.60105 0.634375,2.41667 0.634375,0.80807 1.7369792,0.80807 1.1026042,0 1.7294272,-0.80052 0.634375,-0.80807 0.634375,-2.42422 z m -6.139844,0.39271 H 0.18919814 v 3.82136 H -1.2305936 v -8.43568 h 1.41979174 v 3.42109 H 1.9790419 q 0.1888021,-1.74453 1.2158855,-2.69609 1.0346355,-0.95912 2.5375001,-0.95912 1.7445313,0 2.7791667,1.19323 1.0346355,1.19323 1.0346355,3.2625 0,2.04662 -1.0195313,3.2474 -1.0195313,1.20078 -2.7942709,1.20078 -1.6765626,0 -2.6885418,-1.0875 -1.0044271,-1.0875 -1.1026042,-2.96797 z"
     style=""
     id="path856" /><path
     d="m 19.416801,365.6068 h -1.321614 v -2.04662 h -6.343751 v 2.04662 h -1.321614 v -3.2323 h 0.913802 q 0.883594,-1.45755 1.314062,-3.36067 0.438021,-1.91068 0.438021,-3.86667 h 5.301563 v 7.22734 h 1.019531 z m -2.439323,-3.2323 v -6.03411 h -2.545052 q -0.09818,1.89557 -0.58151,3.45885 -0.483334,1.56328 -1.110157,2.57526 z"
     style=""
     id="path858" /><path
     d="m 28.426437,359.51226 h -6.215364 q 0,0.77787 0.234114,1.35938 0.234115,0.57396 0.641927,0.94401 0.392709,0.3625 0.928907,0.54375 0.54375,0.18125 1.193229,0.18125 0.860937,0 1.729427,-0.33984 0.876042,-0.3474 1.246094,-0.67969 h 0.07552 v 1.54818 q -0.717448,0.30208 -1.465105,0.50598 -0.747656,0.20391 -1.570833,0.20391 -2.099479,0 -3.277604,-1.13281 -1.178125,-1.14037 -1.178125,-3.23229 0,-2.06927 1.12526,-3.28516 1.132813,-1.21589 2.975521,-1.21589 1.706771,0 2.628125,0.99688 0.928906,0.99687 0.928906,2.83203 z m -1.382031,-1.0875 q -0.0076,-1.1177 -0.566406,-1.72942 -0.551302,-0.61172 -1.684115,-0.61172 -1.140364,0 -1.820052,0.67213 -0.672135,0.67214 -0.76276,1.66901 z"
     style=""
     id="path860" /><path
     d="m 37.63998,363.58284 h -1.419791 v -3.7987 h -4.221615 v 3.7987 h -1.419792 v -8.43568 h 1.419792 v 3.41354 h 4.221615 v -3.41354 h 1.419791 z"
     style=""
     id="path862" /><path
     d="m 47.533208,363.58284 h -1.404687 v -6.3362 l -4.417969,6.3362 h -1.283854 v -8.43568 h 1.404687 v 6.24557 l 4.372657,-6.24557 h 1.329166 z"
     style=""
     id="path864" /><path
     d="m 56.814718,363.58284 h -1.419791 v -3.34558 h -1.669011 l -2.613021,3.34558 h -1.66901 l 2.839583,-3.48151 q -1.095052,-0.30209 -1.601041,-0.92136 -0.50599,-0.62682 -0.50599,-1.6388 0,-0.67214 0.302083,-1.14036 0.302084,-0.46823 0.762761,-0.76277 0.453125,-0.28697 1.042187,-0.38515 0.589063,-0.10573 1.283854,-0.10573 h 3.247396 z m -1.419791,-4.46328 v -2.83959 h -1.789844 q -0.581511,0 -0.838281,0.0378 -0.256771,0.0378 -0.558855,0.20391 -0.294531,0.16614 -0.43802,0.45312 -0.135938,0.27943 -0.135938,0.61172 0,0.41537 0.08307,0.67214 0.09063,0.25677 0.3625,0.48333 0.279427,0.21901 0.679687,0.30208 0.400261,0.0755 0.891146,0.0755 z"
     style=""
     id="path866" /><path
     d="m 65.809248,356.39325 h -3.051042 v 7.18959 h -1.419792 v -7.18959 h -3.051042 v -1.24609 h 7.521876 z"
     style=""
     id="path868" /><path
     d="m 73.837116,363.58284 h -1.41224 v -0.8987 q -0.188802,0.12838 -0.513542,0.3625 -0.317187,0.22656 -0.61927,0.3625 -0.354948,0.1737 -0.815625,0.28698 -0.460678,0.12083 -1.079948,0.12083 -1.140365,0 -1.933334,-0.75521 -0.792969,-0.75521 -0.792969,-1.92578 0,-0.95911 0.407813,-1.54818 0.415365,-0.59661 1.178125,-0.93645 0.770312,-0.33985 1.85026,-0.46068 1.079948,-0.12083 2.31849,-0.18125 v -0.21901 q 0,-0.48333 -0.173698,-0.80052 -0.166146,-0.31719 -0.483333,-0.49844 -0.302084,-0.1737 -0.725,-0.23411 -0.422917,-0.0604 -0.883594,-0.0604 -0.558854,0 -1.246094,0.15104 -0.687239,0.14349 -1.419791,0.42292 h -0.07552 v -1.44245 q 0.415364,-0.11328 1.200781,-0.24922 0.785417,-0.13594 1.548177,-0.13594 0.891146,0 1.548177,0.15104 0.664584,0.14349 1.147917,0.49844 0.475781,0.3474 0.725,0.8987 0.249219,0.5513 0.249219,1.36693 z m -1.41224,-2.07683 v -2.34869 q -0.649479,0.0378 -1.533073,0.11328 -0.876042,0.0755 -1.389583,0.21901 -0.611719,0.1737 -0.989323,0.54375 -0.377604,0.3625 -0.377604,1.00442 0,0.725 0.43802,1.09506 0.438021,0.3625 1.336719,0.3625 0.747657,0 1.366927,-0.28698 0.619271,-0.29453 1.147917,-0.70235 z"
     style=""
     id="path870" /></g>




</g></g></svg>