<?xml version="1.0" encoding="UTF-8" standalone="no"?>
<!-- Generator: Adobe Illustrator 19.1.0, SVG Export Plug-In . SVG Version: 6.00 Build 0)  -->

<svg
   xmlns:dc="http://purl.org/dc/elements/1.1/"
   xmlns:cc="http://creativecommons.org/ns#"
   xmlns:rdf="http://www.w3.org/1999/02/22-rdf-syntax-ns#"
   xmlns:svg="http://www.w3.org/2000/svg"
   xmlns="http://www.w3.org/2000/svg"
   xmlns:sodipodi="http://sodipodi.sourceforge.net/DTD/sodipodi-0.dtd"
   xmlns:inkscape="http://www.inkscape.org/namespaces/inkscape"
   version="1.1"
   id="Calque_1"
   x="0px"
   y="0px"
   viewBox="-330 571.3 138.7 138.7"
   style="enable-background:new -330 571.3 138.7 138.7;"
   xml:space="preserve"
   sodipodi:docname="main_menu_logo_links-ru.svg"
   inkscape:version="0.92.2 5c3e80d, 2017-08-06"><metadata
     id="metadata31"><rdf:RDF><cc:Work
         rdf:about=""><dc:format>image/svg+xml</dc:format><dc:type
           rdf:resource="http://purl.org/dc/dcmitype/StillImage" /><dc:title></dc:title></cc:Work></rdf:RDF></metadata><defs
     id="defs29" /><sodipodi:namedview
     pagecolor="#ffffff"
     bordercolor="#666666"
     borderopacity="1"
     objecttolerance="10"
     gridtolerance="10"
     guidetolerance="10"
     inkscape:pageopacity="0"
     inkscape:pageshadow="2"
     inkscape:window-width="2552"
     inkscape:window-height="1381"
     id="namedview27"
     showgrid="false"
     inkscape:zoom="5"
     inkscape:cx="50.607259"
     inkscape:cy="69.349998"
     inkscape:window-x="434"
     inkscape:window-y="149"
     inkscape:window-maximized="0"
     inkscape:current-layer="Calque_1" /><style
     type="text/css"
     id="style2">
	.st0{fill:#40637D;}
	.st1{fill:#FFFFFF;}
</style><g
     id="g6"><path
       class="st0"
       d="M-330,640.7c0-38.3,31-69.3,69.3-69.3c38.3,0,69.3,31,69.3,69.3s-31,69.3-69.3,69.3   C-299,710-330,679-330,640.7"
       id="path4" /></g><g
     id="g24"><g
       id="g22"><path
         class="st1"
         d="M-235.3,620.9l-11.3,11.3c-6.2,6.2-16.3,6.2-22.5,0c-1-1-1.7-2.1-2.4-3.2l5.2-5.2c0.2-0.3,0.6-0.4,0.8-0.6    c0.4,1.2,1,2.4,2,3.4c3.1,3.1,8.2,3.1,11.3,0l11.3-11.3c3.1-3.1,3.1-8.2,0-11.3c-3.1-3.1-8.2-3.1-11.3,0l-4,4    c-3.2-1.3-6.7-1.6-10.2-1.1l8.5-8.5c6.2-6.2,16.3-6.2,22.5,0C-229.1,604.6-229.1,614.7-235.3,620.9 M-265.1,639.5l-4,4    c-3.1,3.1-8.2,3.1-11.3,0c-3.1-3.1-3.1-8.2,0-11.3l11.3-11.3c3.1-3.1,8.2-3.1,11.3,0c1,1,1.6,2.1,2,3.4c0.3-0.2,0.6-0.3,0.8-0.6    l5.2-5.2c-0.7-1.1-1.4-2.2-2.4-3.2c-6.2-6.2-16.3-6.2-22.5,0l-11.3,11.3c-6.2,6.2-6.2,16.3,0,22.5c6.2,6.2,16.3,6.2,22.5,0    l8.5-8.5C-258.4,641.1-261.9,640.7-265.1,639.5"
         id="path20" /></g></g><g
     aria-label="Legături"
     style="font-style:normal;font-weight:normal;font-size:40px;line-height:1.25;font-family:sans-serif;letter-spacing:0px;word-spacing:0px;fill:#000000;fill-opacity:1;stroke:none"
     id="text35"><path
       d="m -281.52612,681.67255 h -7.39121 v -11.85143 h 1.76815 v 10.29035 h 5.62306 z"
       style="font-style:normal;font-variant:normal;font-weight:normal;font-stretch:normal;font-size:15.92933273px;font-family:KonsensMedium;-inkscape-font-specification:'KonsensMedium, Normal';font-variant-ligatures:normal;font-variant-caps:normal;font-variant-numeric:normal;font-feature-settings:normal;text-align:start;writing-mode:lr-tb;text-anchor:start;fill:#ffffff"
       id="path841" /><path
       d="m -272.7167,679.01235 v 0.0796 q 0,1.22656 -0.97169,1.97524 -0.97169,0.74868 -2.59648,0.74868 -1.6248,0 -2.64427,-0.84425 -1.01948,-0.86019 -1.01948,-2.34162 v -2.00709 q 0,-1.56108 1.01948,-2.50091 1.01947,-0.93983 2.62834,-0.93983 1.60886,0 2.61241,0.93983 1.00355,0.9239 1.00355,2.51684 v 1.41771 h -5.71863 v 0.47788 q 0,0.93983 0.57345,1.43364 0.58939,0.47788 1.54515,0.47788 2.02302,0 2.02302,-1.43364 z m -1.49736,-2.15046 v -0.25487 q 0,-0.98762 -0.55753,-1.51329 -0.54159,-0.5416 -1.52921,-0.5416 -0.98762,0 -1.54515,0.5416 -0.55752,0.5416 -0.55752,1.52922 v 0.23894 z"
       style="font-style:normal;font-variant:normal;font-weight:normal;font-stretch:normal;font-size:15.92933273px;font-family:KonsensMedium;-inkscape-font-specification:'KonsensMedium, Normal';font-variant-ligatures:normal;font-variant-caps:normal;font-variant-numeric:normal;font-feature-settings:normal;text-align:start;writing-mode:lr-tb;text-anchor:start;fill:#ffffff"
       id="path843" /><path
       d="m -266.05401,681.03537 h -2.86728 v 0.36638 q 0,1.0354 0.49381,1.52921 0.50974,0.50974 1.72037,0.50974 2.26196,0 2.26196,-1.33806 0,-0.58939 -0.41416,-0.82833 -0.39823,-0.23894 -1.1947,-0.23894 z m -1.48143,-3.67967 h 0.6531 q 1.78409,0 1.78409,-1.40178 0,-1.354 -1.60886,-1.354 h -0.78054 q -0.8124,0 -1.22656,0.31859 -0.41416,0.30266 -0.41416,1.08319 0,1.354 1.59293,1.354 z m 0.8124,1.22656 h -2.46905 q -0.63717,0 -0.63717,0.60531 0,0.58939 0.60531,0.58939 h 3.34516 q 2.97879,0 2.97879,2.27789 0,1.27435 -1.03541,1.95931 -1.03541,0.70089 -2.75577,0.70089 -3.67968,0 -3.67968,-3.23366 V 680.669 q -0.82833,-0.38231 -0.82833,-1.48143 0,-0.63717 0.31859,-1.05134 0.31859,-0.41416 0.84426,-0.55752 -0.0637,-0.0478 -0.17523,-0.1593 -0.0956,-0.12743 -0.2708,-0.54159 -0.17522,-0.41417 -0.17522,-0.90797 0,-1.30621 0.8124,-1.99117 0.81239,-0.68496 2.19825,-0.68496 h 4.7788 v 1.38585 h -1.25842 q 0.49381,0.35044 0.49381,1.3062 0,1.21063 -0.84426,1.91152 -0.82832,0.68497 -2.24603,0.68497 z"
       style="font-style:normal;font-variant:normal;font-weight:normal;font-stretch:normal;font-size:15.92933273px;font-family:KonsensMedium;-inkscape-font-specification:'KonsensMedium, Normal';font-variant-ligatures:normal;font-variant-caps:normal;font-variant-numeric:normal;font-feature-settings:normal;text-align:start;writing-mode:lr-tb;text-anchor:start;fill:#ffffff"
       id="path845" /><path
       d="m -254.38845,681.67255 h -1.45448 v -0.92558 q -0.19445,0.13222 -0.52891,0.37334 -0.32667,0.23334 -0.63779,0.37334 -0.36557,0.1789 -0.84003,0.29557 -0.47446,0.12444 -1.11225,0.12444 -1.17448,0 -1.99117,-0.7778 -0.81669,-0.77779 -0.81669,-1.98338 0,-0.98781 0.42001,-1.59449 0.42779,-0.61446 1.21337,-0.96447 0.79336,-0.35001 1.90561,-0.47446 1.11225,-0.12445 2.38785,-0.18667 v -0.22557 q 0,-0.49779 -0.1789,-0.82446 -0.17111,-0.32668 -0.49779,-0.51335 -0.31112,-0.17889 -0.74669,-0.24112 -0.43557,-0.0622 -0.91002,-0.0622 -0.57557,0 -1.28337,0.15556 -0.7078,0.14778 -1.46227,0.43557 h -0.0778 v -1.4856 q 0.42779,-0.11667 1.23671,-0.25668 0.80891,-0.14 1.59448,-0.14 0.91781,0 1.59449,0.15556 0.68447,0.14778 1.18226,0.51335 0.49001,0.35779 0.74669,0.92558 0.25667,0.56779 0.25667,1.40782 z m -1.45448,-2.13895 v -2.41896 q -0.66891,0.0389 -1.57894,0.11667 -0.90225,0.0778 -1.43115,0.22556 -0.63002,0.1789 -1.01892,0.56002 -0.3889,0.37334 -0.3889,1.03447 0,0.74669 0.45113,1.12781 0.45112,0.37335 1.3767,0.37335 0.77002,0 1.40782,-0.29557 0.6378,-0.30334 1.18226,-0.72335 z m 0.9178,-10.89697 q -0.0778,1.3067 -0.8478,2.13895 -0.76225,0.83224 -2.07673,0.83224 -1.31448,0 -2.0845,-0.83224 -0.76224,-0.83225 -0.83225,-2.13895 h 1.29115 q 0.0933,1.02669 0.50557,1.49337 0.42001,0.46668 1.12781,0.46668 0.69224,0 1.10448,-0.46668 0.42001,-0.46668 0.5289,-1.49337 z"
       style="font-style:normal;font-variant:normal;font-weight:normal;font-stretch:normal;font-size:15.92933273px;font-family:KonsensMedium;-inkscape-font-specification:'KonsensMedium, Normal';font-variant-ligatures:normal;font-variant-caps:normal;font-variant-numeric:normal;font-feature-settings:normal;text-align:start;writing-mode:lr-tb;text-anchor:start;fill:#ffffff"
       id="path847" /><path
       d="m -247.16605,681.67255 h -1.05134 q -1.43364,0 -2.26196,-0.73275 -0.82833,-0.73275 -0.82833,-2.13453 v -4.10977 h -1.33806 v -1.40178 h 1.35399 v -2.26197 h 1.62479 v 2.26197 h 2.43719 v 1.40178 h -2.43719 v 4.03012 q 0,0.82833 0.36638,1.17877 0.3823,0.33452 1.17877,0.33452 h 0.95576 z"
       style="font-style:normal;font-variant:normal;font-weight:normal;font-stretch:normal;font-size:15.92933273px;font-family:KonsensMedium;-inkscape-font-specification:'KonsensMedium, Normal';font-variant-ligatures:normal;font-variant-caps:normal;font-variant-numeric:normal;font-feature-settings:normal;text-align:start;writing-mode:lr-tb;text-anchor:start;fill:#ffffff"
       id="path849" /><path
       d="m -238.49353,681.67255 h -1.577 v -1.09913 l -0.95576,0.58939 q -1.00355,0.60531 -1.99117,0.58938 -1.17877,0 -1.87966,-0.71682 -0.68496,-0.73275 -0.68496,-1.94338 v -5.79827 h 1.62479 v 5.60712 q 0,0.62125 0.33452,1.00355 0.33451,0.36638 0.90797,0.36638 0.5416,0 1.25842,-0.41417 l 1.36992,-0.81239 v -5.75049 h 1.59293 z"
       style="font-style:normal;font-variant:normal;font-weight:normal;font-stretch:normal;font-size:15.92933273px;font-family:KonsensMedium;-inkscape-font-specification:'KonsensMedium, Normal';font-variant-ligatures:normal;font-variant-caps:normal;font-variant-numeric:normal;font-feature-settings:normal;text-align:start;writing-mode:lr-tb;text-anchor:start;fill:#ffffff"
       id="path851" /><path
       d="m -234.57516,681.67255 h -1.62479 v -8.37883 h 1.59293 v 1.27434 l 0.38231,-0.3823 q 1.00354,-0.9239 2.18232,-0.9239 h 0.43009 v 1.65665 h -0.41417 q -1.08319,0 -1.8478,0.63717 l -0.70089,0.57346 z"
       style="font-style:normal;font-variant:normal;font-weight:normal;font-stretch:normal;font-size:15.92933273px;font-family:KonsensMedium;-inkscape-font-specification:'KonsensMedium, Normal';font-variant-ligatures:normal;font-variant-caps:normal;font-variant-numeric:normal;font-feature-settings:normal;text-align:start;writing-mode:lr-tb;text-anchor:start;fill:#ffffff"
       id="path853" /><path
       d="m -228.55387,681.67255 h -1.64072 v -8.37883 h 1.64072 z m 0.1115,-11.11868 v 0.33452 q 0,0.36637 -0.27079,0.58938 -0.25487,0.22301 -0.65311,0.22301 -0.43009,0 -0.68496,-0.20708 -0.25487,-0.22301 -0.25487,-0.60531 v -0.33452 q 0,-0.3823 0.25487,-0.58938 0.25487,-0.22301 0.68496,-0.22301 0.39824,0 0.65311,0.22301 0.27079,0.22301 0.27079,0.58938 z"
       style="font-style:normal;font-variant:normal;font-weight:normal;font-stretch:normal;font-size:15.92933273px;font-family:KonsensMedium;-inkscape-font-specification:'KonsensMedium, Normal';font-variant-ligatures:normal;font-variant-caps:normal;font-variant-numeric:normal;font-feature-settings:normal;text-align:start;writing-mode:lr-tb;text-anchor:start;fill:#ffffff"
       id="path855" /></g></svg>