<?xml version="1.0" encoding="UTF-8" standalone="no"?>
<!-- Generator: Adobe Illustrator 19.1.0, SVG Export Plug-In . SVG Version: 6.00 Build 0)  -->

<svg
   xmlns:dc="http://purl.org/dc/elements/1.1/"
   xmlns:cc="http://creativecommons.org/ns#"
   xmlns:rdf="http://www.w3.org/1999/02/22-rdf-syntax-ns#"
   xmlns:svg="http://www.w3.org/2000/svg"
   xmlns="http://www.w3.org/2000/svg"
   xmlns:sodipodi="http://sodipodi.sourceforge.net/DTD/sodipodi-0.dtd"
   xmlns:inkscape="http://www.inkscape.org/namespaces/inkscape"
   version="1.1"
   id="Calque_1"
   x="0px"
   y="0px"
   viewBox="-330 571.3 138.60001 138.60001"
   xml:space="preserve"
   sodipodi:docname="main_menu_logo_report_sighting-el.svg"
   inkscape:version="0.92.4 (5da689c313, 2019-01-14)"
   width="138.60001"
   height="138.60001"><metadata
   id="metadata69"><rdf:RDF><cc:Work
       rdf:about=""><dc:format>image/svg+xml</dc:format><dc:type
         rdf:resource="http://purl.org/dc/dcmitype/StillImage" /><dc:title></dc:title></cc:Work></rdf:RDF></metadata><defs
   id="defs67" /><sodipodi:namedview
   pagecolor="#ffffff"
   bordercolor="#666666"
   borderopacity="1"
   objecttolerance="10"
   gridtolerance="10"
   guidetolerance="10"
   inkscape:pageopacity="0"
   inkscape:pageshadow="2"
   inkscape:window-width="1920"
   inkscape:window-height="1017"
   id="namedview65"
   showgrid="false"
   inkscape:zoom="4"
   inkscape:cx="-23.119784"
   inkscape:cy="69.350001"
   inkscape:window-x="1912"
   inkscape:window-y="-8"
   inkscape:window-maximized="1"
   inkscape:current-layer="Calque_1"
   fit-margin-top="0"
   fit-margin-left="0"
   fit-margin-right="0"
   fit-margin-bottom="0" /><style
   type="text/css"
   id="style2">
	.st0{fill:#7A9C2B;}
	.st1{fill:#FFFFFF;}
</style><g
   id="g6"
   transform="translate(0,-0.1)"><path
     class="st0"
     d="m -330,640.7 c 0,-38.3 31,-69.3 69.3,-69.3 38.3,0 69.3,31 69.3,69.3 0,38.3 -31,69.3 -69.3,69.3 -38.3,0 -69.3,-31 -69.3,-69.3"
     id="path4"
     style="fill:#7a9c2b;fill-opacity:1"
     inkscape:connector-curvature="0" /></g><g
   id="g62"
   transform="translate(0,-4.20001)"><g
     id="g44"><path
       class="st1"
       d="m -246.4,604.3 c -1.5,-0.4 -5.1,-1 -5.1,-1 0,0 -4.9,-3.9 -9.2,-3.9 -4.3,0 -9.2,3.9 -9.2,3.9 0,0 -3.6,0.6 -5.1,1 6.7,2.4 11.5,8.9 11.5,16.4 0,3.1 -0.8,6 -2.2,8.5 h 10 c -1.4,-2.5 -2.2,-5.4 -2.2,-8.5 0,-7.5 4.8,-13.9 11.5,-16.4"
       id="path42"
       inkscape:connector-curvature="0"
       style="fill:#ffffff" /></g><g
     id="g48"><path
       class="st1"
       d="m -281.9,605.1 c -9,0 -16.3,7.3 -16.3,16.3 0,9 7.3,16.3 16.3,16.3 9,0 16.3,-7.3 16.3,-16.3 0,-9 -7.3,-16.3 -16.3,-16.3 m 0,26.6 c -5.7,0 -10.3,-4.6 -10.3,-10.3 0,-5.7 4.6,-10.3 10.3,-10.3 5.7,0 10.3,4.6 10.3,10.3 0,5.6 -4.6,10.3 -10.3,10.3"
       id="path46"
       inkscape:connector-curvature="0"
       style="fill:#ffffff" /></g><g
     id="g52"><path
       class="st1"
       d="m -288.5,616.2 c -2.2,2.9 -2,6.9 0.3,9.5 -0.8,-2.7 -0.4,-5.8 1.5,-8.2 1.9,-2.4 4.7,-3.6 7.5,-3.5 -3.2,-1.5 -7.1,-0.7 -9.3,2.2"
       id="path50"
       inkscape:connector-curvature="0"
       style="fill:#ffffff" /></g><g
     id="g56"><path
       class="st1"
       d="m -239.5,605.1 c -9,0 -16.3,7.3 -16.3,16.3 0,9 7.3,16.3 16.3,16.3 9,0 16.3,-7.3 16.3,-16.3 0,-9 -7.3,-16.3 -16.3,-16.3 m 0,26.6 c -5.7,0 -10.3,-4.6 -10.3,-10.3 0,-5.7 4.6,-10.3 10.3,-10.3 5.7,0 10.3,4.6 10.3,10.3 0,5.6 -4.6,10.3 -10.3,10.3"
       id="path54"
       inkscape:connector-curvature="0"
       style="fill:#ffffff" /></g><g
     id="g60"><path
       class="st1"
       d="m -242.1,614 c 2.8,-0.1 5.7,1.1 7.5,3.5 1.9,2.4 2.3,5.5 1.5,8.2 2.3,-2.7 2.5,-6.6 0.3,-9.5 -2.2,-2.9 -6.1,-3.7 -9.3,-2.2"
       id="path58"
       inkscape:connector-curvature="0"
       style="fill:#ffffff" /></g></g><g
   aria-label="Αναφορά 
παρατήρησης"
   style="font-style:normal;font-variant:normal;font-weight:normal;font-stretch:normal;font-size:15.46666718px;line-height:1.25;font-family:KonsensMedium;-inkscape-font-specification:'KonsensMedium, Normal';font-variant-ligatures:normal;font-variant-caps:normal;font-variant-numeric:normal;font-feature-settings:normal;text-align:center;letter-spacing:0px;word-spacing:0px;writing-mode:lr-tb;text-anchor:middle;fill:#ffffff;fill-opacity:1;stroke:none"
   id="text73"><path
     d="m -285.68163,672.14996 h -1.59349 l -1.10261,-3.13411 h -4.86354 l -1.1026,3.13411 h -1.51797 l 4.09323,-11.24505 h 1.99375 z m -3.15677,-4.41797 -1.9711,-5.52057 -1.97864,5.52057 z"
     style=""
     id="path893" /><path
     d="m -276.79283,663.71429 -3.41354,8.43567 h -1.42734 l -3.39089,-8.43567 h 1.54063 l 2.61302,6.7138 2.59036,-6.7138 z"
     style=""
     id="path895" /><path
     d="m -268.09283,672.14996 h -1.41979 v -0.88359 q -0.61172,0.52865 -1.2763,0.82318 -0.66458,0.29453 -1.44245,0.29453 -1.51042,0 -2.40156,-1.16302 -0.8836,-1.16302 -0.8836,-3.22474 0,-1.0724 0.30209,-1.91068 0.30963,-0.83828 0.83073,-1.42734 0.51354,-0.57396 1.19323,-0.87605 0.68724,-0.30208 1.41979,-0.30208 0.66458,0 1.17812,0.16615 0.51354,0.16614 1.07995,0.46067 v -0.3927 h 1.41979 z m -1.41979,-2.07682 v -4.80312 q -0.57396,-0.25678 -1.02708,-0.37006 -0.45313,-0.12083 -0.98933,-0.12083 -1.19322,0 -1.85781,0.83073 -0.66458,0.83073 -0.66458,2.35625 0,1.50286 0.51354,2.28828 0.51354,0.77787 1.64635,0.77787 0.60417,0 1.22344,-0.26433 0.61927,-0.27187 1.15547,-0.69479 z"
     style=""
     id="path897" /><path
     d="m -255.26184,667.79996 q 0,1.95599 -1.29896,3.14922 -1.2914,1.19323 -3.32291,1.30651 v 3.00573 h -1.41224 v -3.00573 q -0.98177,-0.0453 -1.82006,-0.34739 -0.83072,-0.30964 -1.44244,-0.83073 -0.64193,-0.55886 -0.99688,-1.29896 -0.35495,-0.74011 -0.35495,-1.75208 0,-1.20079 0.44558,-2.23542 0.44557,-1.03464 1.45,-2.07682 h 1.72942 v 0.12838 q -1.02708,0.74766 -1.58593,1.75208 -0.55886,1.00443 -0.55886,2.26563 0,1.42734 0.84584,2.29583 0.85338,0.86849 2.28072,0.91381 v -7.55209 q 0.24922,-0.0151 0.52865,-0.0151 0.28698,-0.008 0.58151,-0.008 2.29583,0 3.6099,1.13281 1.32161,1.12526 1.32161,3.17187 z m -1.47265,-0.0755 q 0,-1.38958 -0.84584,-2.21276 -0.84583,-0.83073 -2.30338,-0.83073 v 6.38907 q 1.55573,-0.0755 2.34869,-0.95157 0.80053,-0.87604 0.80053,-2.39401 z"
     style=""
     id="path899" /><path
     d="m -245.8746,667.9359 q 0,2.06172 -1.05729,3.25495 -1.05729,1.19323 -2.83203,1.19323 -1.78984,0 -2.84714,-1.19323 -1.04974,-1.19323 -1.04974,-3.25495 0,-2.06172 1.04974,-3.25495 1.0573,-1.20078 2.84714,-1.20078 1.77474,0 2.83203,1.20078 1.05729,1.19323 1.05729,3.25495 z m -1.4651,0 q 0,-1.6388 -0.64193,-2.43177 -0.64193,-0.80052 -1.78229,-0.80052 -1.15547,0 -1.7974,0.80052 -0.63437,0.79297 -0.63437,2.43177 0,1.58594 0.64193,2.40912 0.64192,0.81562 1.78984,0.81562 1.13281,0 1.77474,-0.80807 0.64948,-0.81563 0.64948,-2.41667 z"
     style=""
     id="path901" /><path
     d="m -236.21548,667.79241 q 0,1.94844 -1.04974,3.23985 -1.04219,1.28385 -2.71875,1.28385 -0.49089,0 -1.11016,-0.13594 -0.61172,-0.13594 -1.15547,-0.46068 v 3.54193 h -1.41979 v -7.9901 q 0,-0.92891 0.26432,-1.6237 0.27188,-0.70234 0.77032,-1.20078 0.46822,-0.46823 1.17057,-0.71745 0.70989,-0.24922 1.48021,-0.24922 1.83515,0 2.80182,1.11016 0.96667,1.11015 0.96667,3.20208 z m -1.46511,0.0906 q 0,-1.64636 -0.60416,-2.41667 -0.60417,-0.77031 -1.70678,-0.77031 -1.19322,0 -1.72942,0.725 -0.52865,0.725 -0.52865,2.09948 v 3.04349 q 0.5513,0.25677 0.99688,0.37005 0.45312,0.10573 1.01953,0.10573 1.22344,0 1.88802,-0.83828 0.66458,-0.83829 0.66458,-2.31849 z"
     style=""
     id="path903" /><path
     d="m -227.16054,672.14996 h -1.41979 v -0.88359 q -0.61172,0.52865 -1.2763,0.82318 -0.66459,0.29453 -1.44245,0.29453 -1.51042,0 -2.40156,-1.16302 -0.8836,-1.16302 -0.8836,-3.22474 0,-1.0724 0.30209,-1.91068 0.30963,-0.83828 0.83073,-1.42734 0.51354,-0.57396 1.19323,-0.87605 0.68724,-0.30208 1.41979,-0.30208 0.66458,0 1.17812,0.16615 0.51354,0.16614 1.07995,0.46067 v -0.3927 h 1.41979 z m -1.41979,-2.07682 v -4.80312 q -0.57396,-0.25678 -1.02708,-0.37006 -0.45313,-0.12083 -0.98933,-0.12083 -1.19323,0 -1.85781,0.83073 -0.66458,0.83073 -0.66458,2.35625 0,1.50286 0.51354,2.28828 0.51354,0.77787 1.64635,0.77787 0.60417,0 1.22344,-0.26433 0.61927,-0.27187 1.15547,-0.69479 z m -1.20833,-10.58047 -0.37006,2.9 h -1.09505 l -0.37005,-2.9 z"
     style=""
     id="path905" /><path
     d="m -302.79924,691.63286 h -1.392 q -1.19094,0 -1.88694,-0.6032 -0.696,-0.6032 -0.696,-1.7632 v -4.42347 h -2.58293 v 6.78987 h -1.5776 v -6.78987 h -1.392 v -1.3456 h 9.4656 v 1.36106 h -2.32 v 4.28427 q 0,0.58774 0.26293,0.85067 0.2784,0.24747 0.86614,0.24747 h 1.2528 z"
     style=""
     id="path907" /><path
     d="m -293.92095,691.63286 h -1.4198 v -0.8836 q -0.61172,0.52865 -1.2763,0.82318 -0.66458,0.29453 -1.44245,0.29453 -1.51041,0 -2.40156,-1.16302 -0.88359,-1.16302 -0.88359,-3.22474 0,-1.0724 0.30208,-1.91068 0.30964,-0.83828 0.83073,-1.42734 0.51354,-0.57396 1.19323,-0.87604 0.68724,-0.30209 1.41979,-0.30209 0.66458,0 1.17813,0.16615 0.51354,0.16614 1.07994,0.46068 v -0.39271 h 1.4198 z m -1.4198,-2.07683 v -4.80312 q -0.57395,-0.25677 -1.02708,-0.37006 -0.45312,-0.12083 -0.98932,-0.12083 -1.19323,0 -1.85782,0.83073 -0.66458,0.83073 -0.66458,2.35625 0,1.50287 0.51354,2.28828 0.51354,0.77787 1.64636,0.77787 0.60416,0 1.22343,-0.26433 0.61928,-0.27187 1.15547,-0.69479 z"
     style=""
     id="path909" /><path
     d="m -283.67278,687.2753 q 0,1.94844 -1.04974,3.23985 -1.04218,1.28385 -2.71875,1.28385 -0.49088,0 -1.11015,-0.13594 -0.61172,-0.13593 -1.15547,-0.46067 v 3.54192 h -1.41979 v -7.9901 q 0,-0.92891 0.26432,-1.6237 0.27187,-0.70234 0.77031,-1.20078 0.46823,-0.46823 1.17057,-0.71745 0.7099,-0.24922 1.48021,-0.24922 1.83516,0 2.80183,1.11016 0.96666,1.11016 0.96666,3.20208 z m -1.4651,0.0906 q 0,-1.64636 -0.60417,-2.41667 -0.60417,-0.77031 -1.70677,-0.77031 -1.19323,0 -1.72943,0.725 -0.52864,0.725 -0.52864,2.09948 v 3.04349 q 0.5513,0.25677 0.99687,0.37005 0.45313,0.10573 1.01953,0.10573 1.22344,0 1.88802,-0.83828 0.66459,-0.83828 0.66459,-2.31849 z"
     style=""
     id="path911" /><path
     d="m -274.61783,691.63286 h -1.41979 v -0.8836 q -0.61172,0.52865 -1.2763,0.82318 -0.66459,0.29453 -1.44245,0.29453 -1.51042,0 -2.40156,-1.16302 -0.8836,-1.16302 -0.8836,-3.22474 0,-1.0724 0.30209,-1.91068 0.30963,-0.83828 0.83073,-1.42734 0.51354,-0.57396 1.19323,-0.87604 0.68723,-0.30209 1.41979,-0.30209 0.66458,0 1.17812,0.16615 0.51354,0.16614 1.07995,0.46068 v -0.39271 h 1.41979 z m -1.41979,-2.07683 v -4.80312 q -0.57396,-0.25677 -1.02708,-0.37006 -0.45313,-0.12083 -0.98933,-0.12083 -1.19323,0 -1.85781,0.83073 -0.66458,0.83073 -0.66458,2.35625 0,1.50287 0.51354,2.28828 0.51354,0.77787 1.64635,0.77787 0.60417,0 1.22344,-0.26433 0.61927,-0.27187 1.15547,-0.69479 z"
     style=""
     id="path913" /><path
     d="m -265.6233,684.44327 h -3.05104 v 7.18959 h -1.41979 v -7.18959 h -3.05105 v -1.24609 h 7.52188 z"
     style=""
     id="path915" /><path
     d="m -257.09699,694.74431 h -1.4198 v -7.91458 q 0,-0.58151 -0.068,-1.0875 -0.068,-0.51354 -0.24922,-0.80052 -0.18881,-0.31719 -0.54375,-0.46823 -0.35495,-0.15859 -0.92136,-0.15859 -0.58151,0 -1.21588,0.28698 -0.63438,0.28697 -1.21589,0.73255 v 6.29844 h -1.41979 v -8.43568 h 1.41979 v 0.93646 q 0.66458,-0.55131 1.37448,-0.86094 0.7099,-0.30964 1.45755,-0.30964 1.36693,0 2.08438,0.82318 0.71745,0.82318 0.71745,2.37135 z m -2.39401,-15.76875 -0.37006,2.9 h -1.09505 l -0.37005,-2.9 z"
     style=""
     id="path917" /><path
     d="m -246.90924,687.2753 q 0,1.94844 -1.04974,3.23985 -1.04218,1.28385 -2.71875,1.28385 -0.49088,0 -1.11015,-0.13594 -0.61172,-0.13593 -1.15547,-0.46067 v 3.54192 h -1.41979 v -7.9901 q 0,-0.92891 0.26432,-1.6237 0.27188,-0.70234 0.77031,-1.20078 0.46823,-0.46823 1.17058,-0.71745 0.70989,-0.24922 1.4802,-0.24922 1.83516,0 2.80183,1.11016 0.96666,1.11016 0.96666,3.20208 z m -1.4651,0.0906 q 0,-1.64636 -0.60417,-2.41667 -0.60416,-0.77031 -1.70677,-0.77031 -1.19323,0 -1.72942,0.725 -0.52865,0.725 -0.52865,2.09948 v 3.04349 q 0.5513,0.25677 0.99687,0.37005 0.45313,0.10573 1.01954,0.10573 1.22343,0 1.88802,-0.83828 0.66458,-0.83828 0.66458,-2.31849 z"
     style=""
     id="path919" /><path
     d="m -237.64283,694.74431 h -1.41979 v -7.91458 q 0,-0.58151 -0.068,-1.0875 -0.068,-0.51354 -0.24922,-0.80052 -0.1888,-0.31719 -0.54375,-0.46823 -0.35495,-0.15859 -0.92136,-0.15859 -0.58151,0 -1.21588,0.28698 -0.63438,0.28697 -1.21589,0.73255 v 6.29844 h -1.41979 v -8.43568 h 1.41979 v 0.93646 q 0.66459,-0.55131 1.37448,-0.86094 0.7099,-0.30964 1.45756,-0.30964 1.36692,0 2.08437,0.82318 0.71745,0.82318 0.71745,2.37135 z"
     style=""
     id="path921" /><path
     d="m -227.71939,687.41879 q 0,2.12214 -1.06484,3.28516 -1.05729,1.16302 -2.81693,1.16302 -1.82005,0 -2.86224,-1.19323 -1.04219,-1.19323 -1.04219,-3.25495 0,-2.07682 1.06485,-3.2625 1.06484,-1.19323 2.85468,-1.19323 0.41537,0 0.81563,0.0831 0.40026,0.0831 0.61927,0.15104 h 3.625 v 1.24609 h -2.175 q 0.46823,0.5513 0.725,1.28386 0.25677,0.73255 0.25677,1.69166 z m -1.4651,0 q 0,-1.6237 -0.61927,-2.43177 -0.61927,-0.80807 -1.7823,-0.80807 -1.21588,0 -1.83515,0.84583 -0.61927,0.84584 -0.61927,2.39401 0,1.57839 0.62682,2.40157 0.63438,0.82317 1.8125,0.82317 1.14792,0 1.78229,-0.80807 0.63438,-0.81563 0.63438,-2.41667 z"
     style=""
     id="path923" /><path
     d="m -218.09804,694.74431 h -1.41979 v -7.91458 q 0,-0.58151 -0.068,-1.0875 -0.068,-0.51354 -0.24922,-0.80052 -0.1888,-0.31719 -0.54375,-0.46823 -0.35495,-0.15859 -0.92135,-0.15859 -0.58151,0 -1.21589,0.28698 -0.63437,0.28697 -1.21588,0.73255 v 6.29844 h -1.4198 v -8.43568 h 1.4198 v 0.93646 q 0.66458,-0.55131 1.37448,-0.86094 0.70989,-0.30964 1.45755,-0.30964 1.36692,0 2.08437,0.82318 0.71745,0.82318 0.71745,2.37135 z"
     style=""
     id="path925" /><path
     d="m -209.07329,692.35786 q 0,0.65703 -0.35495,1.29895 -0.35495,0.64193 -0.82318,1.0875 h -1.33672 v -0.10573 q 0.64948,-0.5664 0.93646,-1.02708 0.29453,-0.45312 0.29453,-0.98932 0,-0.40781 -0.22656,-0.7099 -0.22656,-0.29453 -0.56641,-0.29453 h -0.69479 q -0.88359,0 -1.63125,-0.22656 -0.74766,-0.22656 -1.31406,-0.73255 -0.5513,-0.49844 -0.86849,-1.28386 -0.30964,-0.78541 -0.30964,-1.88802 0,-2.03906 1.17058,-3.2625 1.17812,-1.22344 3.13411,-1.22344 0.63438,0 1.23854,0.14349 0.60417,0.13594 1.11016,0.33985 v 1.59349 h -0.0906 q -0.70989,-0.46823 -1.30651,-0.65703 -0.58906,-0.18881 -1.1026,-0.18881 -1.25365,0 -1.97109,0.8987 -0.7099,0.8987 -0.7099,2.35625 0,0.84583 0.21146,1.38203 0.21901,0.5362 0.59661,0.87604 0.37761,0.3323 0.86094,0.48334 0.49089,0.14349 1.05729,0.14349 h 0.75521 q 0.86849,0 1.40469,0.58151 0.5362,0.57396 0.5362,1.40469 z"
     style=""
     id="path927" /></g>
</svg>