<?xml version="1.0" encoding="UTF-8" standalone="no"?>
<!-- Generator: Adobe Illustrator 19.1.0, SVG Export Plug-In . SVG Version: 6.00 Build 0)  -->

<svg
   xmlns:dc="http://purl.org/dc/elements/1.1/"
   xmlns:cc="http://creativecommons.org/ns#"
   xmlns:rdf="http://www.w3.org/1999/02/22-rdf-syntax-ns#"
   xmlns:svg="http://www.w3.org/2000/svg"
   xmlns="http://www.w3.org/2000/svg"
   xmlns:sodipodi="http://sodipodi.sourceforge.net/DTD/sodipodi-0.dtd"
   xmlns:inkscape="http://www.inkscape.org/namespaces/inkscape"
   version="1.1"
   id="Calque_1"
   x="0px"
   y="0px"
   viewBox="-330 571.3 138.7 138.7"
   style="enable-background:new -330 571.3 138.7 138.7;"
   xml:space="preserve"
   sodipodi:docname="main_menu_logo_contact-fr.svg"
   inkscape:version="0.92.2 5c3e80d, 2017-08-06"><metadata
     id="metadata43"><rdf:RDF><cc:Work
         rdf:about=""><dc:format>image/svg+xml</dc:format><dc:type
           rdf:resource="http://purl.org/dc/dcmitype/StillImage" /><dc:title></dc:title></cc:Work></rdf:RDF></metadata><defs
     id="defs41" /><sodipodi:namedview
     pagecolor="#ffffff"
     bordercolor="#666666"
     borderopacity="1"
     objecttolerance="10"
     gridtolerance="10"
     guidetolerance="10"
     inkscape:pageopacity="0"
     inkscape:pageshadow="2"
     inkscape:window-width="2560"
     inkscape:window-height="1315"
     id="namedview39"
     showgrid="false"
     inkscape:zoom="5"
     inkscape:cx="30.47041"
     inkscape:cy="82.166377"
     inkscape:window-x="0"
     inkscape:window-y="1"
     inkscape:window-maximized="1"
     inkscape:current-layer="Calque_1" /><style
     type="text/css"
     id="style2">
	.st0{fill:#E8E493;}
	.st1{fill:#40637D;}
	.st2{fill:#FFFFFF;}
</style><g
     id="g6"><path
       class="st0"
       d="M-330,640.7c0-38.3,31-69.3,69.3-69.3c38.3,0,69.3,31,69.3,69.3s-31,69.3-69.3,69.3   C-299,710-330,679-330,640.7"
       id="path4"
       style="fill:#ff7837;fill-opacity:1" /></g><g
     id="g36"><g
       id="g30"><path
         class="st2"
         d="M-272.3,659c0,0.4,0.2,0.8,0.6,1c0.4,0.2,0.8,0.2,1.2-0.1l7.7-5.3l-9.5-4.5V659z"
         id="path28" /></g><g
       id="g34"><path
         class="st2"
         d="M-226.4,599.6c-0.2-0.2-0.5-0.3-0.8-0.3c-0.2,0-0.3,0-0.5,0.1l-66.6,32.7c-0.7,0.3-1.1,1-1.1,1.8    c0,0.8,0.4,1.5,1.1,1.8l17.6,8.4l35.1-28.9l-30.8,30.9l21.9,10.4c0.3,0.1,0.6,0.2,0.9,0.2c0.2,0,0.5,0,0.7-0.1    c0.5-0.2,0.9-0.6,1.1-1.1l21.7-54.6C-225.9,600.4-226,599.9-226.4,599.6"
         id="path32" /></g></g><g
     aria-label="Nous
contacter"
     style="font-style:normal;font-variant:normal;font-weight:normal;font-stretch:normal;font-size:15.92933273px;line-height:1.25;font-family:KonsensMedium;-inkscape-font-specification:'KonsensMedium, Normal';font-variant-ligatures:normal;font-variant-caps:normal;font-variant-numeric:normal;font-feature-settings:normal;text-align:center;letter-spacing:0px;word-spacing:0px;writing-mode:lr-tb;text-anchor:middle;fill:#ffffff;fill-opacity:1;stroke:none"
     id="text4541"><path
       d="m -269.81055,676.91309 h -2.30976 l -5.35225,-9.5576 v 9.5576 h -1.64073 v -11.85143 h 2.34162 l 5.32039,9.57353 v -9.57353 h 1.64073 z"
       style="font-style:normal;font-variant:normal;font-weight:normal;font-stretch:normal;font-size:15.92933273px;font-family:KonsensMedium;-inkscape-font-specification:'KonsensMedium, Normal';font-variant-ligatures:normal;font-variant-caps:normal;font-variant-numeric:normal;font-feature-settings:normal;text-align:center;writing-mode:lr-tb;text-anchor:middle;fill:#ffffff;fill-opacity:1"
       id="path844" /><path
       d="m -261.76176,673.48828 v -1.48143 q 0,-1.01948 -0.60532,-1.59293 -0.58938,-0.57346 -1.56107,-0.57346 -0.98762,0 -1.57701,0.57346 -0.58938,0.57345 -0.58938,1.59293 v 1.48143 q 0,1.01948 0.58938,1.60886 0.58939,0.57346 1.57701,0.57346 0.97169,0 1.56107,-0.57346 0.60532,-0.57345 0.60532,-1.60886 z m 1.56107,-1.62479 v 1.78408 q 0,1.56108 -1.05133,2.50091 -1.03541,0.93983 -2.67613,0.93983 -1.64072,0 -2.69206,-0.93983 -1.03541,-0.93983 -1.03541,-2.50091 v -1.78408 q 0,-1.56108 1.03541,-2.50091 1.05134,-0.93983 2.69206,-0.93983 1.64072,0 2.67613,0.93983 1.05133,0.93983 1.05133,2.50091 z"
       style="font-style:normal;font-variant:normal;font-weight:normal;font-stretch:normal;font-size:15.92933273px;font-family:KonsensMedium;-inkscape-font-specification:'KonsensMedium, Normal';font-variant-ligatures:normal;font-variant-caps:normal;font-variant-numeric:normal;font-feature-settings:normal;text-align:center;writing-mode:lr-tb;text-anchor:middle;fill:#ffffff;fill-opacity:1"
       id="path846" /><path
       d="m -251.12122,676.91309 h -1.577 v -1.09913 l -0.95576,0.58939 q -1.00355,0.60531 -1.99117,0.58938 -1.17877,0 -1.87966,-0.71682 -0.68496,-0.73275 -0.68496,-1.94338 v -5.79827 h 1.62479 v 5.60712 q 0,0.62125 0.33452,1.00355 0.33451,0.36637 0.90797,0.36637 0.5416,0 1.25842,-0.41416 l 1.36992,-0.81239 v -5.75049 h 1.59293 z"
       style="font-style:normal;font-variant:normal;font-weight:normal;font-stretch:normal;font-size:15.92933273px;font-family:KonsensMedium;-inkscape-font-specification:'KonsensMedium, Normal';font-variant-ligatures:normal;font-variant-caps:normal;font-variant-numeric:normal;font-feature-settings:normal;text-align:center;writing-mode:lr-tb;text-anchor:middle;fill:#ffffff;fill-opacity:1"
       id="path848" /><path
       d="m -242.13732,671.21038 h -1.59293 q 0,-1.43364 -1.87967,-1.43364 -0.89204,0 -1.36992,0.31859 -0.46195,0.31859 -0.46195,0.84426 0,0.49381 0.39823,0.7646 0.39824,0.2708 0.98762,0.33452 0.58939,0.0637 1.27435,0.19115 0.70089,0.12744 1.29028,0.30266 0.58938,0.15929 0.98761,0.6531 0.39824,0.49381 0.39824,1.29028 0,1.17877 -0.93983,1.87966 -0.93983,0.68496 -2.58055,0.68496 -1.65666,0 -2.61241,-0.74868 -0.93984,-0.74868 -0.93984,-1.97524 v -0.0796 h 1.64073 q 0,1.44957 1.94337,1.44957 0.92391,0 1.41771,-0.30266 0.50974,-0.31859 0.50974,-0.84425 0,-0.52567 -0.55752,-0.76461 -0.5416,-0.23894 -1.32214,-0.33452 -0.78054,-0.0956 -1.577,-0.25487 -0.78054,-0.15929 -1.33807,-0.70089 -0.54159,-0.55753 -0.54159,-1.51329 0,-1.17877 0.90797,-1.86373 0.9239,-0.68496 2.51683,-0.68496 1.64072,0 2.53277,0.74868 0.90797,0.73275 0.90797,1.97524 z"
       style="font-style:normal;font-variant:normal;font-weight:normal;font-stretch:normal;font-size:15.92933273px;font-family:KonsensMedium;-inkscape-font-specification:'KonsensMedium, Normal';font-variant-ligatures:normal;font-variant-caps:normal;font-variant-numeric:normal;font-feature-settings:normal;text-align:center;writing-mode:lr-tb;text-anchor:middle;fill:#ffffff;fill-opacity:1"
       id="path850" /><path
       d="m -289.42379,693.71853 v 0.12744 q 0,1.49735 -0.95576,2.30975 -0.95576,0.8124 -2.59649,0.8124 -1.59293,0 -2.56462,-0.86019 -0.95576,-0.87611 -0.95576,-2.40533 v -2.1186 q 0,-1.51329 0.95576,-2.37347 0.97169,-0.87611 2.56462,-0.87611 1.64073,0 2.59649,0.81239 0.95576,0.79647 0.95576,2.29383 v 0.12743 h -1.56108 q 0,-1.81594 -1.99117,-1.81594 -1.92745,0 -1.92745,1.97524 v 1.83187 q 0,1.97524 1.92745,1.97524 1.99117,0 1.99117,-1.81595 z"
       style="font-style:normal;font-variant:normal;font-weight:normal;font-stretch:normal;font-size:15.92933273px;font-family:KonsensMedium;-inkscape-font-specification:'KonsensMedium, Normal';font-variant-ligatures:normal;font-variant-caps:normal;font-variant-numeric:normal;font-feature-settings:normal;text-align:center;writing-mode:lr-tb;text-anchor:middle;fill:#ffffff;fill-opacity:1"
       id="path852" /><path
       d="m -281.73565,693.39995 v -1.48143 q 0,-1.01948 -0.60532,-1.59294 -0.58938,-0.57345 -1.56107,-0.57345 -0.98762,0 -1.577,0.57345 -0.58939,0.57346 -0.58939,1.59294 v 1.48143 q 0,1.01947 0.58939,1.60886 0.58938,0.57345 1.577,0.57345 0.97169,0 1.56107,-0.57345 0.60532,-0.57346 0.60532,-1.60886 z m 1.56107,-1.6248 v 1.78409 q 0,1.56107 -1.05133,2.5009 -1.03541,0.93983 -2.67613,0.93983 -1.64072,0 -2.69206,-0.93983 -1.0354,-0.93983 -1.0354,-2.5009 v -1.78409 q 0,-1.56107 1.0354,-2.5009 1.05134,-0.93983 2.69206,-0.93983 1.64072,0 2.67613,0.93983 1.05133,0.93983 1.05133,2.5009 z"
       style="font-style:normal;font-variant:normal;font-weight:normal;font-stretch:normal;font-size:15.92933273px;font-family:KonsensMedium;-inkscape-font-specification:'KonsensMedium, Normal';font-variant-ligatures:normal;font-variant-caps:normal;font-variant-numeric:normal;font-feature-settings:normal;text-align:center;writing-mode:lr-tb;text-anchor:middle;fill:#ffffff;fill-opacity:1"
       id="path854" /><path
       d="m -271.01546,696.82475 h -1.62479 v -5.59119 q 0,-0.60532 -0.33452,-0.98762 -0.31858,-0.39824 -0.90797,-0.39824 -0.5416,0 -1.25842,0.41417 l -1.36992,0.81239 v 5.75049 h -1.59293 v -8.37883 h 1.577 v 1.09913 l 0.95576,-0.58939 q 0.93983,-0.58938 1.99117,-0.58938 1.17877,0 1.86373,0.73275 0.70089,0.73274 0.70089,1.94337 z"
       style="font-style:normal;font-variant:normal;font-weight:normal;font-stretch:normal;font-size:15.92933273px;font-family:KonsensMedium;-inkscape-font-specification:'KonsensMedium, Normal';font-variant-ligatures:normal;font-variant-caps:normal;font-variant-numeric:normal;font-feature-settings:normal;text-align:center;writing-mode:lr-tb;text-anchor:middle;fill:#ffffff;fill-opacity:1"
       id="path856" /><path
       d="m -264.11831,696.82475 h -1.05133 q -1.43364,0 -2.26197,-0.73275 -0.82832,-0.73275 -0.82832,-2.13453 v -4.10977 h -1.33807 v -1.40178 h 1.354 v -2.26196 h 1.62479 v 2.26196 h 2.43719 v 1.40178 h -2.43719 v 4.03013 q 0,0.82832 0.36637,1.17877 0.38231,0.33451 1.17877,0.33451 h 0.95576 z"
       style="font-style:normal;font-variant:normal;font-weight:normal;font-stretch:normal;font-size:15.92933273px;font-family:KonsensMedium;-inkscape-font-specification:'KonsensMedium, Normal';font-variant-ligatures:normal;font-variant-caps:normal;font-variant-numeric:normal;font-feature-settings:normal;text-align:center;writing-mode:lr-tb;text-anchor:middle;fill:#ffffff;fill-opacity:1"
       id="path858" /><path
       d="m -257.10243,694.35571 v -1.06727 h -2.50091 q -1.59293,0 -1.59293,1.21063 0,0.49381 0.28673,0.78054 0.28673,0.2708 0.8124,0.2708 0.78053,0 1.62479,-0.46196 z m 1.59293,2.46904 h -1.59293 v -1.08319 l -0.9239,0.50974 q -1.24249,0.66903 -2.34161,0.66903 -1.09913,0 -1.78409,-0.6531 -0.66903,-0.65311 -0.66903,-1.70444 0,-1.22656 0.84425,-1.87966 0.86019,-0.65311 2.19825,-0.65311 h 2.69206 v -0.52567 q 0,-1.83187 -1.92745,-1.83187 -2.03895,0 -2.03895,1.64072 h -1.57701 v -0.0796 q 0,-1.36993 0.98762,-2.15046 1.00355,-0.78054 2.61241,-0.78054 1.65665,0 2.58055,0.82832 0.93983,0.8124 0.93983,2.29383 z"
       style="font-style:normal;font-variant:normal;font-weight:normal;font-stretch:normal;font-size:15.92933273px;font-family:KonsensMedium;-inkscape-font-specification:'KonsensMedium, Normal';font-variant-ligatures:normal;font-variant-caps:normal;font-variant-numeric:normal;font-feature-settings:normal;text-align:center;writing-mode:lr-tb;text-anchor:middle;fill:#ffffff;fill-opacity:1"
       id="path860" /><path
       d="m -246.52038,693.71853 v 0.12744 q 0,1.49735 -0.95576,2.30975 -0.95576,0.8124 -2.59648,0.8124 -1.59293,0 -2.56462,-0.86019 -0.95576,-0.87611 -0.95576,-2.40533 v -2.1186 q 0,-1.51329 0.95576,-2.37347 0.97169,-0.87611 2.56462,-0.87611 1.64072,0 2.59648,0.81239 0.95576,0.79647 0.95576,2.29383 v 0.12743 h -1.56107 q 0,-1.81594 -1.99117,-1.81594 -1.92745,0 -1.92745,1.97524 v 1.83187 q 0,1.97524 1.92745,1.97524 1.99117,0 1.99117,-1.81595 z"
       style="font-style:normal;font-variant:normal;font-weight:normal;font-stretch:normal;font-size:15.92933273px;font-family:KonsensMedium;-inkscape-font-specification:'KonsensMedium, Normal';font-variant-ligatures:normal;font-variant-caps:normal;font-variant-numeric:normal;font-feature-settings:normal;text-align:center;writing-mode:lr-tb;text-anchor:middle;fill:#ffffff;fill-opacity:1"
       id="path862" /><path
       d="m -239.81985,696.82475 h -1.05134 q -1.43364,0 -2.26196,-0.73275 -0.82833,-0.73275 -0.82833,-2.13453 v -4.10977 h -1.33806 v -1.40178 h 1.35399 v -2.26196 h 1.62479 v 2.26196 h 2.43719 v 1.40178 h -2.43719 v 4.03013 q 0,0.82832 0.36638,1.17877 0.3823,0.33451 1.17877,0.33451 h 0.95576 z"
       style="font-style:normal;font-variant:normal;font-weight:normal;font-stretch:normal;font-size:15.92933273px;font-family:KonsensMedium;-inkscape-font-specification:'KonsensMedium, Normal';font-variant-ligatures:normal;font-variant-caps:normal;font-variant-numeric:normal;font-feature-settings:normal;text-align:center;writing-mode:lr-tb;text-anchor:middle;fill:#ffffff;fill-opacity:1"
       id="path864" /><path
       d="m -231.14733,694.16455 v 0.0797 q 0,1.22656 -0.97168,1.97524 -0.97169,0.74868 -2.59649,0.74868 -1.62479,0 -2.64427,-0.84426 -1.01947,-0.86018 -1.01947,-2.34161 v -2.0071 q 0,-1.56107 1.01947,-2.5009 1.01948,-0.93983 2.62834,-0.93983 1.60887,0 2.61242,0.93983 1.00354,0.9239 1.00354,2.51683 v 1.41771 h -5.71863 v 0.47788 q 0,0.93983 0.57346,1.43364 0.58938,0.47788 1.54514,0.47788 2.02303,0 2.02303,-1.43364 z m -1.49735,-2.15046 v -0.25487 q 0,-0.98761 -0.55753,-1.51328 -0.5416,-0.5416 -1.52922,-0.5416 -0.98761,0 -1.54514,0.5416 -0.55753,0.54159 -0.55753,1.52921 v 0.23894 z"
       style="font-style:normal;font-variant:normal;font-weight:normal;font-stretch:normal;font-size:15.92933273px;font-family:KonsensMedium;-inkscape-font-specification:'KonsensMedium, Normal';font-variant-ligatures:normal;font-variant-caps:normal;font-variant-numeric:normal;font-feature-settings:normal;text-align:center;writing-mode:lr-tb;text-anchor:middle;fill:#ffffff;fill-opacity:1"
       id="path866" /><path
       d="m -227.41563,696.82475 h -1.62479 v -8.37883 h 1.59293 v 1.27435 l 0.38231,-0.3823 q 1.00354,-0.92391 2.18231,-0.92391 h 0.4301 v 1.65665 h -0.41417 q -1.08319,0 -1.8478,0.63718 l -0.70089,0.57345 z"
       style="font-style:normal;font-variant:normal;font-weight:normal;font-stretch:normal;font-size:15.92933273px;font-family:KonsensMedium;-inkscape-font-specification:'KonsensMedium, Normal';font-variant-ligatures:normal;font-variant-caps:normal;font-variant-numeric:normal;font-feature-settings:normal;text-align:center;writing-mode:lr-tb;text-anchor:middle;fill:#ffffff;fill-opacity:1"
       id="path868" /></g></svg>