<?xml version="1.0" encoding="UTF-8" standalone="no"?>
<!-- Generator: Adobe Illustrator 19.1.0, SVG Export Plug-In . SVG Version: 6.00 Build 0)  -->

<svg
   xmlns:dc="http://purl.org/dc/elements/1.1/"
   xmlns:cc="http://creativecommons.org/ns#"
   xmlns:rdf="http://www.w3.org/1999/02/22-rdf-syntax-ns#"
   xmlns:svg="http://www.w3.org/2000/svg"
   xmlns="http://www.w3.org/2000/svg"
   xmlns:sodipodi="http://sodipodi.sourceforge.net/DTD/sodipodi-0.dtd"
   xmlns:inkscape="http://www.inkscape.org/namespaces/inkscape"
   version="1.1"
   id="Calque_1"
   x="0px"
   y="0px"
   viewBox="-33.6 228.6 138.2 138.2"
   xml:space="preserve"
   sodipodi:docname="main_menu_logo_map-it.svg"
   inkscape:version="0.92.4 (5da689c313, 2019-01-14)"
   width="138.2"
   height="138.2"><metadata
     id="metadata105"><rdf:RDF><cc:Work
         rdf:about=""><dc:format>image/svg+xml</dc:format><dc:type
           rdf:resource="http://purl.org/dc/dcmitype/StillImage" /><dc:title></dc:title></cc:Work></rdf:RDF></metadata><defs
     id="defs103" /><sodipodi:namedview
     pagecolor="#ffffff"
     bordercolor="#666666"
     borderopacity="1"
     objecttolerance="10"
     gridtolerance="10"
     guidetolerance="10"
     inkscape:pageopacity="0"
     inkscape:pageshadow="2"
     inkscape:window-width="1920"
     inkscape:window-height="1017"
     id="namedview101"
     showgrid="false"
     inkscape:zoom="5"
     inkscape:cx="24.631686"
     inkscape:cy="69.249975"
     inkscape:window-x="1912"
     inkscape:window-y="-8"
     inkscape:window-maximized="1"
     inkscape:current-layer="g96"
     fit-margin-top="0"
     fit-margin-left="0"
     fit-margin-right="0"
     fit-margin-bottom="0" /><style
     type="text/css"
     id="style2">
	.st0{fill:#D3D501;}
	.st1{fill:#FFFFFF;}
	.st2{fill:#7A9C2B;}
	.st3{fill:#E8E493;}
	.st4{fill:#40637D;}
	.st5{fill:#5E9EB5;}
	.st6{fill:#D0A82B;}
	.st7{fill:#559973;}
	.st8{fill:#00662C;}
</style><g
     id="g36"
     transform="translate(-0.20000229,-0.39997711)"><g
       id="g30"><path
         class="st1"
         d="m 24.1,315.9 c 0,0.4 0.2,0.8 0.6,1 0.4,0.2 0.8,0.2 1.2,-0.1 l 7.7,-5.3 -9.5,-4.5 z"
         id="path28"
         inkscape:connector-curvature="0"
         style="fill:#ffffff" /></g><g
       id="g34"><path
         class="st1"
         d="m 70,256.5 c -0.2,-0.2 -0.5,-0.3 -0.8,-0.3 -0.2,0 -0.3,0 -0.5,0.1 L 2.1,289 c -0.7,0.3 -1.1,1 -1.1,1.8 0,0.8 0.4,1.5 1.1,1.8 L 19.7,301 54.8,272.1 24,303 45.9,313.4 c 0.3,0.1 0.6,0.2 0.9,0.2 0.2,0 0.5,0 0.7,-0.1 0.5,-0.2 0.9,-0.6 1.1,-1.1 l 21.7,-54.6 c 0.2,-0.5 0.1,-1 -0.3,-1.3"
         id="path32"
         inkscape:connector-curvature="0"
         style="fill:#ffffff" /></g></g><path
     style="fill:#5e9eb5"
     d="m 104.6,297.70001 a 69.099998,69.099998 0 0 1 -69.1,69.1 69.099998,69.099998 0 0 1 -69.099998,-69.1 69.099998,69.099998 0 0 1 69.099998,-69.1 69.099998,69.099998 0 0 1 69.1,69.1 z"
     id="circle38" /><g
     id="g54"
     transform="translate(2.0902508,-0.39997711)"><path
       class="st1"
       d="M 30.5,268.5 H 10.7 c -0.8,0 -1.5,0.5 -1.7,1.3 l -3.8,13.1 26.6,2.9 2.1,-10 c -1.3,-2.3 -2.5,-4.8 -3.4,-7.3 z"
       id="path40"
       inkscape:connector-curvature="0"
       style="fill:#ffffff" /><path
       class="st1"
       d="m 55.4,288.4 8,0.9 L 61,281 c -0.3,0.5 -0.6,0.9 -1,1.4 -1.6,2.3 -3.2,4.3 -4.6,6 z"
       id="path42"
       inkscape:connector-curvature="0"
       style="fill:#ffffff" /><g
       id="g52"><path
         class="st1"
         d="m 38,282.3 -0.9,4.1 4.3,0.5 c -1,-1.4 -2.1,-2.9 -3.4,-4.6 0.1,0.1 0.1,0 0,0 z"
         id="path44"
         inkscape:connector-curvature="0"
         style="fill:#ffffff" /><path
         class="st1"
         d="m 0.1,300.6 c -0.2,0.5 0,1.1 0.3,1.6 0.3,0.4 0.9,0.7 1.4,0.7 h 26.4 l 2.5,-11.8 -27,-3 z"
         id="path46"
         inkscape:connector-curvature="0"
         style="fill:#ffffff" /><path
         class="st1"
         d="m 65,294.8 -28.9,-3.2 -2.3,11.2 H 65 c 1,0 1.8,-0.8 1.8,-1.8 0,-0.2 0,-0.4 -0.1,-0.6 z"
         id="path48"
         inkscape:connector-curvature="0"
         style="fill:#ffffff" /><path
         class="st1"
         d="m 48.3,290.7 c 0.2,0.2 0.5,0.3 0.7,0.3 0.3,0 0.5,-0.1 0.7,-0.3 1.6,-1.7 4.8,-5.3 8,-9.8 4,-5.7 8.9,-14.1 8.9,-21.5 0,-9.7 -7.9,-17.7 -17.7,-17.7 -9.7,0 -17.7,7.9 -17.7,17.7 0,7.5 4.8,15.8 8.9,21.5 3.4,4.5 6.6,8 8.2,9.8 z m 0.8,-42.4 c 5.9,0 10.8,4.8 10.8,10.8 0,5.9 -4.8,10.8 -10.8,10.8 -5.9,0 -10.8,-4.8 -10.8,-10.8 0,-6 4.8,-10.8 10.8,-10.8 z"
         id="path50"
         inkscape:connector-curvature="0"
         style="fill:#ffffff" /></g></g><g
     id="g98"
     transform="translate(17.799998,-14.399977)"><g
       id="g96"><g
   aria-label="Mappa
avvistamenti"
   style="font-style:normal;font-variant:normal;font-weight:normal;font-stretch:normal;font-size:15.92933273px;line-height:1.25;font-family:KonsensMedium;-inkscape-font-specification:'KonsensMedium, Normal';font-variant-ligatures:normal;font-variant-caps:normal;font-variant-numeric:normal;font-feature-settings:normal;text-align:start;letter-spacing:0px;word-spacing:0px;writing-mode:lr-tb;text-anchor:start;fill:#000000;fill-opacity:1;stroke:none"
   id="text6172"><path
     d="M 4.8254927,344.09995 H 3.1688421 v -9.57353 l -3.09029054,9.57353 H -1.6418164 l -3.0584319,-9.5576 v 9.5576 h -1.6407212 l 0.015929,-11.85143 h 2.6283399 l 2.94692656,9.57353 2.99471454,-9.57353 h 2.5805519 z"
     style="font-style:normal;font-variant:normal;font-weight:normal;font-stretch:normal;font-size:15.92933273px;font-family:KonsensMedium;-inkscape-font-specification:'KonsensMedium, Normal';font-variant-ligatures:normal;font-variant-caps:normal;font-variant-numeric:normal;font-feature-settings:normal;text-align:center;writing-mode:lr-tb;text-anchor:middle;fill:#ffffff"
     id="path834" /><path
     d="m 12.558686,341.6309 v -1.06727 h -2.500905 q -1.5929333,0 -1.5929333,1.21063 0,0.49381 0.286728,0.78054 0.286728,0.2708 0.8123959,0.2708 0.7805374,0 1.6247924,-0.46195 z m 1.592933,2.46905 h -1.592933 v -1.0832 l -0.923901,0.50974 q -1.242488,0.66903 -2.341612,0.66903 -1.099124,0 -1.7840853,-0.6531 -0.669032,-0.6531 -0.669032,-1.70444 0,-1.22656 0.8442547,-1.87966 0.8601839,-0.6531 2.1982479,-0.6531 h 2.6920577 v -0.52567 q 0,-1.83188 -1.92745,-1.83188 -2.0389543,0 -2.0389543,1.64073 h -1.577004 v -0.0796 q 0,-1.36992 0.9876187,-2.15046 1.0035479,-0.78054 2.6124106,-0.78054 1.656651,0 2.580552,0.82833 0.93983,0.81239 0.93983,2.29382 z"
     style="font-style:normal;font-variant:normal;font-weight:normal;font-stretch:normal;font-size:15.92933273px;font-family:KonsensMedium;-inkscape-font-specification:'KonsensMedium, Normal';font-variant-ligatures:normal;font-variant-caps:normal;font-variant-numeric:normal;font-feature-settings:normal;text-align:center;writing-mode:lr-tb;text-anchor:middle;fill:#ffffff"
     id="path836" /><path
     d="m 22.137193,341.16895 v -2.53277 q 0,-0.70089 -0.398233,-1.11505 -0.398233,-0.43009 -1.067265,-0.43009 -0.669032,0 -1.322135,0.36637 l -1.481428,0.82833 v 3.23365 l 1.481428,0.82833 q 0.653103,0.36637 1.322135,0.36637 0.669032,0 1.067265,-0.41416 0.398233,-0.43009 0.398233,-1.13098 z m -4.269061,5.86199 h -1.577004 v -11.30982 h 1.561075 v 1.01947 l 1.035406,-0.57345 q 0.95576,-0.5416 1.991167,-0.5416 1.258417,0 2.038955,0.78054 0.796466,0.78053 0.796466,2.03895 v 2.86728 q 0,1.25842 -0.796466,2.07082 -0.796467,0.79646 -2.054884,0.79646 -1.019478,0 -1.975238,-0.5416 l -1.019477,-0.57345 z"
     style="font-style:normal;font-variant:normal;font-weight:normal;font-stretch:normal;font-size:15.92933273px;font-family:KonsensMedium;-inkscape-font-specification:'KonsensMedium, Normal';font-variant-ligatures:normal;font-variant-caps:normal;font-variant-numeric:normal;font-feature-settings:normal;text-align:center;writing-mode:lr-tb;text-anchor:middle;fill:#ffffff"
     id="path838" /><path
     d="m 31.657459,341.16895 v -2.53277 q 0,-0.70089 -0.398234,-1.11505 -0.398233,-0.43009 -1.067265,-0.43009 -0.669032,0 -1.322134,0.36637 l -1.481428,0.82833 v 3.23365 l 1.481428,0.82833 q 0.653102,0.36637 1.322134,0.36637 0.669032,0 1.067265,-0.41416 0.398234,-0.43009 0.398234,-1.13098 z m -4.269061,5.86199 h -1.577004 v -11.30982 h 1.561074 v 1.01947 l 1.035407,-0.57345 q 0.95576,-0.5416 1.991167,-0.5416 1.258417,0 2.038954,0.78054 0.796467,0.78053 0.796467,2.03895 v 2.86728 q 0,1.25842 -0.796467,2.07082 -0.796467,0.79646 -2.054884,0.79646 -1.019477,0 -1.975237,-0.5416 l -1.019477,-0.57345 z"
     style="font-style:normal;font-variant:normal;font-weight:normal;font-stretch:normal;font-size:15.92933273px;font-family:KonsensMedium;-inkscape-font-specification:'KonsensMedium, Normal';font-variant-ligatures:normal;font-variant-caps:normal;font-variant-numeric:normal;font-feature-settings:normal;text-align:center;writing-mode:lr-tb;text-anchor:middle;fill:#ffffff"
     id="path840" /><path
     d="m 40.683913,341.6309 v -1.06727 h -2.500905 q -1.592933,0 -1.592933,1.21063 0,0.49381 0.286728,0.78054 0.286728,0.2708 0.812396,0.2708 0.780537,0 1.624792,-0.46195 z m 1.592933,2.46905 h -1.592933 v -1.0832 l -0.923901,0.50974 q -1.242488,0.66903 -2.341612,0.66903 -1.099124,0 -1.784085,-0.6531 -0.669032,-0.6531 -0.669032,-1.70444 0,-1.22656 0.844254,-1.87966 0.860184,-0.6531 2.198248,-0.6531 h 2.692057 v -0.52567 q 0,-1.83188 -1.927449,-1.83188 -2.038954,0 -2.038954,1.64073 h -1.577004 v -0.0796 q 0,-1.36992 0.987618,-2.15046 1.003548,-0.78054 2.612411,-0.78054 1.656651,0 2.580552,0.82833 0.93983,0.81239 0.93983,2.29382 z"
     style="font-style:normal;font-variant:normal;font-weight:normal;font-stretch:normal;font-size:15.92933273px;font-family:KonsensMedium;-inkscape-font-specification:'KonsensMedium, Normal';font-variant-ligatures:normal;font-variant-caps:normal;font-variant-numeric:normal;font-feature-settings:normal;text-align:center;writing-mode:lr-tb;text-anchor:middle;fill:#ffffff"
     id="path842" /><path
     d="m -23.468985,361.54256 v -1.06726 h -2.500905 q -1.592933,0 -1.592933,1.21063 0,0.49381 0.286728,0.78054 0.286728,0.27079 0.812396,0.27079 0.780537,0 1.624792,-0.46195 z m 1.592934,2.46905 h -1.592934 v -1.08319 l -0.923901,0.50974 q -1.242488,0.66903 -2.341612,0.66903 -1.099124,0 -1.784085,-0.65311 -0.669032,-0.6531 -0.669032,-1.70443 0,-1.22656 0.844255,-1.87967 0.860184,-0.6531 2.198248,-0.6531 h 2.692057 v -0.52567 q 0,-1.83187 -1.927449,-1.83187 -2.038955,0 -2.038955,1.64072 h -1.577004 v -0.0796 q 0,-1.36993 0.987619,-2.15046 1.003548,-0.78054 2.61241,-0.78054 1.656651,0 2.580552,0.82832 0.939831,0.8124 0.939831,2.29383 z"
     style="font-style:normal;font-variant:normal;font-weight:normal;font-stretch:normal;font-size:15.92933273px;font-family:KonsensMedium;-inkscape-font-specification:'KonsensMedium, Normal';font-variant-ligatures:normal;font-variant-caps:normal;font-variant-numeric:normal;font-feature-settings:normal;text-align:center;writing-mode:lr-tb;text-anchor:middle;fill:#ffffff"
     id="path844" /><path
     d="m -16.116855,364.01161 h -1.815944 l -2.994714,-8.37883 h 1.768156 l 2.166389,6.54696 2.198248,-6.54696 h 1.67258 z"
     style="font-style:normal;font-variant:normal;font-weight:normal;font-stretch:normal;font-size:15.92933273px;font-family:KonsensMedium;-inkscape-font-specification:'KonsensMedium, Normal';font-variant-ligatures:normal;font-variant-caps:normal;font-variant-numeric:normal;font-feature-settings:normal;text-align:center;writing-mode:lr-tb;text-anchor:middle;fill:#ffffff"
     id="path846" /><path
     d="m -7.7751076,364.01161 h -1.815944 l -2.9947144,-8.37883 h 1.768156 l 2.1663891,6.54696 2.1982479,-6.54696 h 1.6725799 z"
     style="font-style:normal;font-variant:normal;font-weight:normal;font-stretch:normal;font-size:15.92933273px;font-family:KonsensMedium;-inkscape-font-specification:'KonsensMedium, Normal';font-variant-ligatures:normal;font-variant-caps:normal;font-variant-numeric:normal;font-feature-settings:normal;text-align:center;writing-mode:lr-tb;text-anchor:middle;fill:#ffffff"
     id="path848" /><path
     d="m -1.699064,364.01161 h -1.6407213 v -8.37883 h 1.6407213 z m 0.1115053,-11.11867 v 0.33451 q 0,0.36638 -0.2707986,0.58939 -0.2548694,0.22301 -0.6531027,0.22301 -0.430092,0 -0.6849613,-0.20708 -0.2548693,-0.22301 -0.2548693,-0.60532 v -0.33451 q 0,-0.38231 0.2548693,-0.58939 0.2548693,-0.22301 0.6849613,-0.22301 0.3982333,0 0.6531027,0.22301 0.2707986,0.22301 0.2707986,0.58939 z"
     style="font-style:normal;font-variant:normal;font-weight:normal;font-stretch:normal;font-size:15.92933273px;font-family:KonsensMedium;-inkscape-font-specification:'KonsensMedium, Normal';font-variant-ligatures:normal;font-variant-caps:normal;font-variant-numeric:normal;font-feature-settings:normal;text-align:center;writing-mode:lr-tb;text-anchor:middle;fill:#ffffff"
     id="path850" /><path
     d="M 7.3321226,358.30891 H 5.7391893 q 0,-1.43364 -1.8796612,-1.43364 -0.8920427,0 -1.3699226,0.31859 -0.4619507,0.31858 -0.4619507,0.84425 0,0.49381 0.3982333,0.76461 0.3982333,0.2708 0.9876187,0.33452 0.5893853,0.0637 1.2743466,0.19115 0.7008906,0.12743 1.2902759,0.30265 0.5893853,0.1593 0.9876187,0.65311 0.3982333,0.49381 0.3982333,1.29027 0,1.17877 -0.9398307,1.87966 -0.9398306,0.68497 -2.5805519,0.68497 -1.6566506,0 -2.6124105,-0.74868 -0.93983066,-0.74868 -0.93983066,-1.97524 v -0.0796 H 1.9320788 q 0,1.44957 1.9433786,1.44957 0.9239013,0 1.4177106,-0.30265 0.5097387,-0.31859 0.5097387,-0.84426 0,-0.52567 -0.5575267,-0.76461 -0.5415973,-0.23894 -1.3221346,-0.33451 -0.7805373,-0.0956 -1.5770039,-0.25487 -0.7805373,-0.1593 -1.338064,-0.70089 -0.5415973,-0.55753 -0.5415973,-1.51329 0,-1.17877 0.907972,-1.86373 0.9239013,-0.68496 2.5168345,-0.68496 1.6407213,0 2.5327639,0.74868 0.907972,0.73274 0.907972,1.97523 z"
     style="font-style:normal;font-variant:normal;font-weight:normal;font-stretch:normal;font-size:15.92933273px;font-family:KonsensMedium;-inkscape-font-specification:'KonsensMedium, Normal';font-variant-ligatures:normal;font-variant-caps:normal;font-variant-numeric:normal;font-feature-settings:normal;text-align:center;writing-mode:lr-tb;text-anchor:middle;fill:#ffffff"
     id="path852" /><path
     d="m 14.005267,364.01161 h -1.051336 q -1.43364,0 -2.261965,-0.73275 -0.8283252,-0.73275 -0.8283252,-2.13453 v -4.10977 H 8.5255769 v -1.40178 h 1.3539932 v -2.26196 h 1.6247919 v 2.26196 h 2.437188 v 1.40178 h -2.437188 v 4.03012 q 0,0.82833 0.366375,1.17878 0.382304,0.33451 1.17877,0.33451 h 0.95576 z"
     style="font-style:normal;font-variant:normal;font-weight:normal;font-stretch:normal;font-size:15.92933273px;font-family:KonsensMedium;-inkscape-font-specification:'KonsensMedium, Normal';font-variant-ligatures:normal;font-variant-caps:normal;font-variant-numeric:normal;font-feature-settings:normal;text-align:center;writing-mode:lr-tb;text-anchor:middle;fill:#ffffff"
     id="path854" /><path
     d="m 21.021143,361.54256 v -1.06726 h -2.500905 q -1.592934,0 -1.592934,1.21063 0,0.49381 0.286728,0.78054 0.286728,0.27079 0.812396,0.27079 0.780538,0 1.624792,-0.46195 z m 1.592933,2.46905 h -1.592933 v -1.08319 l -0.923901,0.50974 q -1.242488,0.66903 -2.341612,0.66903 -1.099124,0 -1.784085,-0.65311 -0.669032,-0.6531 -0.669032,-1.70443 0,-1.22656 0.844254,-1.87967 0.860184,-0.6531 2.198248,-0.6531 h 2.692057 v -0.52567 q 0,-1.83187 -1.927449,-1.83187 -2.038955,0 -2.038955,1.64072 h -1.577003 v -0.0796 q 0,-1.36993 0.987618,-2.15046 1.003548,-0.78054 2.612411,-0.78054 1.65665,0 2.580552,0.82832 0.93983,0.8124 0.93983,2.29383 z"
     style="font-style:normal;font-variant:normal;font-weight:normal;font-stretch:normal;font-size:15.92933273px;font-family:KonsensMedium;-inkscape-font-specification:'KonsensMedium, Normal';font-variant-ligatures:normal;font-variant-caps:normal;font-variant-numeric:normal;font-feature-settings:normal;text-align:center;writing-mode:lr-tb;text-anchor:middle;fill:#ffffff"
     id="path856" /><path
     d="m 36.015623,364.01161 h -1.608862 v -5.79828 q 0,-1.16284 -0.97169,-1.16284 -0.46195,0 -1.130982,0.38231 l -1.130983,0.66903 v 5.90978 h -1.592933 v -5.79828 q 0,-1.14691 -0.987619,-1.14691 -0.493809,0 -1.115053,0.36638 l -1.130983,0.66903 v 5.90978 h -1.592933 v -8.37883 h 1.561075 v 0.98762 l 0.796466,-0.47788 q 0.892043,-0.57346 1.831873,-0.57346 1.44957,0 1.959308,1.17878 l 0.95576,-0.58939 q 0.987619,-0.58939 1.92745,-0.58939 1.051336,0 1.640721,0.65311 0.589385,0.63717 0.589385,1.80001 z"
     style="font-style:normal;font-variant:normal;font-weight:normal;font-stretch:normal;font-size:15.92933273px;font-family:KonsensMedium;-inkscape-font-specification:'KonsensMedium, Normal';font-variant-ligatures:normal;font-variant-caps:normal;font-variant-numeric:normal;font-feature-settings:normal;text-align:center;writing-mode:lr-tb;text-anchor:middle;fill:#ffffff"
     id="path858" /><path
     d="m 45.233976,361.35141 v 0.0797 q 0,1.22656 -0.971689,1.97524 -0.971689,0.74867 -2.596481,0.74867 -1.624792,0 -2.644269,-0.84425 -1.019478,-0.86018 -1.019478,-2.34161 v -2.0071 q 0,-1.56107 1.019478,-2.5009 1.019477,-0.93983 2.62834,-0.93983 1.608862,0 2.61241,0.93983 1.003548,0.9239 1.003548,2.51683 v 1.41771 h -5.71863 v 0.47788 q 0,0.93983 0.573456,1.43364 0.589385,0.47788 1.545145,0.47788 2.023025,0 2.023025,-1.43364 z m -1.497357,-2.15046 v -0.25487 q 0,-0.98762 -0.557526,-1.51328 -0.541598,-0.5416 -1.529216,-0.5416 -0.987619,0 -1.545146,0.5416 -0.557526,0.54159 -0.557526,1.52921 v 0.23894 z"
     style="font-style:normal;font-variant:normal;font-weight:normal;font-stretch:normal;font-size:15.92933273px;font-family:KonsensMedium;-inkscape-font-specification:'KonsensMedium, Normal';font-variant-ligatures:normal;font-variant-caps:normal;font-variant-numeric:normal;font-feature-settings:normal;text-align:center;writing-mode:lr-tb;text-anchor:middle;fill:#ffffff"
     id="path860" /><path
     d="m 54.429437,364.01161 h -1.624792 v -5.59119 q 0,-0.60532 -0.334516,-0.98762 -0.318586,-0.39824 -0.907972,-0.39824 -0.541597,0 -1.258417,0.41417 l -1.369922,0.81239 v 5.75049 h -1.592934 v -8.37883 h 1.577004 v 1.09913 l 0.95576,-0.58939 q 0.939831,-0.58938 1.991167,-0.58938 1.17877,0 1.863732,0.73274 0.70089,0.73275 0.70089,1.94338 z"
     style="font-style:normal;font-variant:normal;font-weight:normal;font-stretch:normal;font-size:15.92933273px;font-family:KonsensMedium;-inkscape-font-specification:'KonsensMedium, Normal';font-variant-ligatures:normal;font-variant-caps:normal;font-variant-numeric:normal;font-feature-settings:normal;text-align:center;writing-mode:lr-tb;text-anchor:middle;fill:#ffffff"
     id="path862" /><path
     d="m 61.153617,364.01161 h -1.051336 q -1.43364,0 -2.261965,-0.73275 -0.828325,-0.73275 -0.828325,-2.13453 v -4.10977 h -1.338064 v -1.40178 h 1.353993 v -2.26196 h 1.624792 v 2.26196 H 61.0899 v 1.40178 h -2.437188 v 4.03012 q 0,0.82833 0.366374,1.17878 0.382304,0.33451 1.178771,0.33451 h 0.95576 z"
     style="font-style:normal;font-variant:normal;font-weight:normal;font-stretch:normal;font-size:15.92933273px;font-family:KonsensMedium;-inkscape-font-specification:'KonsensMedium, Normal';font-variant-ligatures:normal;font-variant-caps:normal;font-variant-numeric:normal;font-feature-settings:normal;text-align:center;writing-mode:lr-tb;text-anchor:middle;fill:#ffffff"
     id="path864" /><path
     d="m 64.476111,364.01161 h -1.640722 v -8.37883 h 1.640722 z m 0.111505,-11.11867 v 0.33451 q 0,0.36638 -0.270799,0.58939 -0.254869,0.22301 -0.653102,0.22301 -0.430092,0 -0.684962,-0.20708 -0.254869,-0.22301 -0.254869,-0.60532 v -0.33451 q 0,-0.38231 0.254869,-0.58939 0.25487,-0.22301 0.684962,-0.22301 0.398233,0 0.653102,0.22301 0.270799,0.22301 0.270799,0.58939 z"
     style="font-style:normal;font-variant:normal;font-weight:normal;font-stretch:normal;font-size:15.92933273px;font-family:KonsensMedium;-inkscape-font-specification:'KonsensMedium, Normal';font-variant-ligatures:normal;font-variant-caps:normal;font-variant-numeric:normal;font-feature-settings:normal;text-align:center;writing-mode:lr-tb;text-anchor:middle;fill:#ffffff"
     id="path866" /></g>
</g></g></svg>