<?xml version="1.0" encoding="UTF-8" standalone="no"?>
<!-- Generator: Adobe Illustrator 19.1.0, SVG Export Plug-In . SVG Version: 6.00 Build 0)  -->

<svg
   xmlns:dc="http://purl.org/dc/elements/1.1/"
   xmlns:cc="http://creativecommons.org/ns#"
   xmlns:rdf="http://www.w3.org/1999/02/22-rdf-syntax-ns#"
   xmlns:svg="http://www.w3.org/2000/svg"
   xmlns="http://www.w3.org/2000/svg"
   xmlns:sodipodi="http://sodipodi.sourceforge.net/DTD/sodipodi-0.dtd"
   xmlns:inkscape="http://www.inkscape.org/namespaces/inkscape"
   version="1.1"
   id="Calque_1"
   x="0px"
   y="0px"
   viewBox="-33.6 228.6 138.2 138.2"
   xml:space="preserve"
   sodipodi:docname="main_menu_logo_map-mt.svg"
   inkscape:version="0.92.4 (5da689c313, 2019-01-14)"
   width="138.2"
   height="138.2"><metadata
     id="metadata105"><rdf:RDF><cc:Work
         rdf:about=""><dc:format>image/svg+xml</dc:format><dc:type
           rdf:resource="http://purl.org/dc/dcmitype/StillImage" /><dc:title /></cc:Work></rdf:RDF></metadata><defs
     id="defs103" /><sodipodi:namedview
     pagecolor="#ffffff"
     bordercolor="#666666"
     borderopacity="1"
     objecttolerance="10"
     gridtolerance="10"
     guidetolerance="10"
     inkscape:pageopacity="0"
     inkscape:pageshadow="2"
     inkscape:window-width="1920"
     inkscape:window-height="1017"
     id="namedview101"
     showgrid="false"
     inkscape:zoom="4"
     inkscape:cx="-13.975006"
     inkscape:cy="54.35195"
     inkscape:window-x="-8"
     inkscape:window-y="-8"
     inkscape:window-maximized="1"
     inkscape:current-layer="text6172"
     fit-margin-top="0"
     fit-margin-left="0"
     fit-margin-right="0"
     fit-margin-bottom="0" /><style
     type="text/css"
     id="style2">
	.st0{fill:#D3D501;}
	.st1{fill:#FFFFFF;}
	.st2{fill:#7A9C2B;}
	.st3{fill:#E8E493;}
	.st4{fill:#40637D;}
	.st5{fill:#5E9EB5;}
	.st6{fill:#D0A82B;}
	.st7{fill:#559973;}
	.st8{fill:#00662C;}
</style><g
     id="g36"
     transform="translate(-0.20000144,-0.39997711)"><g
       id="g30"><path
         class="st1"
         d="m 24.1,315.9 c 0,0.4 0.2,0.8 0.6,1 0.4,0.2 0.8,0.2 1.2,-0.1 l 7.7,-5.3 -9.5,-4.5 z"
         id="path28"
         inkscape:connector-curvature="0"
         style="fill:#ffffff" /></g><g
       id="g34"><path
         class="st1"
         d="m 70,256.5 c -0.2,-0.2 -0.5,-0.3 -0.8,-0.3 -0.2,0 -0.3,0 -0.5,0.1 L 2.1,289 c -0.7,0.3 -1.1,1 -1.1,1.8 0,0.8 0.4,1.5 1.1,1.8 L 19.7,301 54.8,272.1 24,303 45.9,313.4 c 0.3,0.1 0.6,0.2 0.9,0.2 0.2,0 0.5,0 0.7,-0.1 0.5,-0.2 0.9,-0.6 1.1,-1.1 l 21.7,-54.6 c 0.2,-0.5 0.1,-1 -0.3,-1.3"
         id="path32"
         inkscape:connector-curvature="0"
         style="fill:#ffffff" /></g></g><circle
     class="st5"
     cx="35.5"
     cy="297.70001"
     r="69.099998"
     id="circle38"
     style="fill:#5e9eb5" /><g
     id="g54"
     transform="translate(2.0902517,-0.39997711)"><path
       class="st1"
       d="M 30.5,268.5 H 10.7 c -0.8,0 -1.5,0.5 -1.7,1.3 l -3.8,13.1 26.6,2.9 2.1,-10 c -1.3,-2.3 -2.5,-4.8 -3.4,-7.3 z"
       id="path40"
       inkscape:connector-curvature="0"
       style="fill:#ffffff" /><path
       class="st1"
       d="m 55.4,288.4 8,0.9 L 61,281 c -0.3,0.5 -0.6,0.9 -1,1.4 -1.6,2.3 -3.2,4.3 -4.6,6 z"
       id="path42"
       inkscape:connector-curvature="0"
       style="fill:#ffffff" /><g
       id="g52"><path
         class="st1"
         d="m 38,282.3 -0.9,4.1 4.3,0.5 c -1,-1.4 -2.1,-2.9 -3.4,-4.6 0.1,0.1 0.1,0 0,0 z"
         id="path44"
         inkscape:connector-curvature="0"
         style="fill:#ffffff" /><path
         class="st1"
         d="m 0.1,300.6 c -0.2,0.5 0,1.1 0.3,1.6 0.3,0.4 0.9,0.7 1.4,0.7 h 26.4 l 2.5,-11.8 -27,-3 z"
         id="path46"
         inkscape:connector-curvature="0"
         style="fill:#ffffff" /><path
         class="st1"
         d="m 65,294.8 -28.9,-3.2 -2.3,11.2 H 65 c 1,0 1.8,-0.8 1.8,-1.8 0,-0.2 0,-0.4 -0.1,-0.6 z"
         id="path48"
         inkscape:connector-curvature="0"
         style="fill:#ffffff" /><path
         class="st1"
         d="m 48.3,290.7 c 0.2,0.2 0.5,0.3 0.7,0.3 0.3,0 0.5,-0.1 0.7,-0.3 1.6,-1.7 4.8,-5.3 8,-9.8 4,-5.7 8.9,-14.1 8.9,-21.5 0,-9.7 -7.9,-17.7 -17.7,-17.7 -9.7,0 -17.7,7.9 -17.7,17.7 0,7.5 4.8,15.8 8.9,21.5 3.4,4.5 6.6,8 8.2,9.8 z m 0.8,-42.4 c 5.9,0 10.8,4.8 10.8,10.8 0,5.9 -4.8,10.8 -10.8,10.8 -5.9,0 -10.8,-4.8 -10.8,-10.8 0,-6 4.8,-10.8 10.8,-10.8 z"
         id="path50"
         inkscape:connector-curvature="0"
         style="fill:#ffffff" /></g></g><g
     id="g98"
     transform="translate(18.292845,-14.399977)"><g
       id="g96"><g
   aria-label="Mappa 
tal-lemħiet"
   style="font-style:normal;font-variant:normal;font-weight:normal;font-stretch:normal;font-size:15.46666718px;line-height:1.25;font-family:KonsensMedium;-inkscape-font-specification:'KonsensMedium, Normal';font-variant-ligatures:normal;font-variant-caps:normal;font-variant-numeric:normal;font-feature-settings:normal;text-align:center;letter-spacing:0px;word-spacing:0px;writing-mode:lr-tb;text-anchor:middle;fill:#ffffff;fill-opacity:1;stroke:none"
   id="text6172"><path
     d="M 4.4964832,344.09995 H 2.8879498 v -9.29547 l -3.00053344,9.29547 H -1.7829837 l -2.9696001,-9.28001 v 9.28001 h -1.5930667 l 0.015467,-11.50721 h 2.552 l 2.86133347,9.29547 2.90773343,-9.29547 h 2.5056001 z"
     style=""
     id="path836" /><path
     d="m 12.005067,341.70261 v -1.03627 H 9.5768003 q -1.5466667,0 -1.5466667,1.17547 0,0.47947 0.2784,0.75787 0.2784,0.26293 0.7888001,0.26293 0.7578666,0 1.5776003,-0.44853 z m 1.546667,2.39734 h -1.546667 v -1.05174 L 11.108,343.54315 q -1.2063997,0.6496 -2.2735997,0.6496 -1.0672,0 -1.7322667,-0.63414 -0.6496,-0.63413 -0.6496,-1.65493 0,-1.19094 0.8197333,-1.82507 0.8352001,-0.63413 2.1344001,-0.63413 h 2.613867 v -0.5104 q 0,-1.77867 -1.871467,-1.77867 -1.9797334,0 -1.9797334,1.59307 h -1.5312 v -0.0773 q 0,-1.33013 0.9589333,-2.088 0.9744001,-0.75786 2.5365331,-0.75786 1.608534,0 2.5056,0.80426 0.912534,0.7888 0.912534,2.2272 z"
     style=""
     id="path838" /><path
     d="m 21.305367,341.25408 v -2.4592 q 0,-0.68054 -0.386667,-1.08267 -0.386666,-0.4176 -1.036266,-0.4176 -0.6496,0 -1.283734,0.35573 l -1.4384,0.80427 v 3.13973 l 1.4384,0.80427 q 0.634134,0.35574 1.283734,0.35574 0.6496,0 1.036266,-0.40214 0.386667,-0.4176 0.386667,-1.09813 z m -4.145067,5.69173 h -1.5312 v -10.98133 h 1.515734 v 0.98986 l 1.005333,-0.5568 q 0.928,-0.52586 1.933333,-0.52586 1.221867,0 1.979734,0.75786 0.773333,0.75787 0.773333,1.97974 v 2.784 q 0,1.22187 -0.773333,2.01067 -0.773334,0.77333 -1.9952,0.77333 -0.989867,0 -1.917867,-0.52587 l -0.989867,-0.5568 z"
     style=""
     id="path840" /><path
     d="m 30.549117,341.25408 v -2.4592 q 0,-0.68054 -0.386667,-1.08267 -0.386667,-0.4176 -1.036267,-0.4176 -0.6496,0 -1.283733,0.35573 l -1.4384,0.80427 v 3.13973 l 1.4384,0.80427 q 0.634133,0.35574 1.283733,0.35574 0.6496,0 1.036267,-0.40214 0.386667,-0.4176 0.386667,-1.09813 z m -4.145067,5.69173 h -1.5312 v -10.98133 h 1.515733 v 0.98986 l 1.005333,-0.5568 q 0.928001,-0.52586 1.933334,-0.52586 1.221867,0 1.979733,0.75786 0.773334,0.75787 0.773334,1.97974 v 2.784 q 0,1.22187 -0.773334,2.01067 -0.773333,0.77333 -1.9952,0.77333 -0.989866,0 -1.917867,-0.52587 l -0.989866,-0.5568 z"
     style=""
     id="path842" /><path
     d="m 39.313401,341.70261 v -1.03627 h -2.428266 q -1.546667,0 -1.546667,1.17547 0,0.47947 0.2784,0.75787 0.2784,0.26293 0.7888,0.26293 0.757867,0 1.5776,-0.44853 z m 1.546667,2.39734 h -1.546667 v -1.05174 l -0.897066,0.49494 q -1.2064,0.6496 -2.2736,0.6496 -1.0672,0 -1.732267,-0.63414 -0.6496,-0.63413 -0.6496,-1.65493 0,-1.19094 0.819733,-1.82507 0.8352,-0.63413 2.1344,-0.63413 h 2.613867 v -0.5104 q 0,-1.77867 -1.871467,-1.77867 -1.979733,0 -1.979733,1.59307 h -1.5312 v -0.0773 q 0,-1.33013 0.958933,-2.088 0.9744,-0.75786 2.536534,-0.75786 1.608533,0 2.5056,0.80426 0.912533,0.7888 0.912533,2.2272 z"
     style=""
     id="path844" /><path
     d="m -16.90443,363.43328 h -1.0208 q -1.392,0 -2.196267,-0.71147 -0.804266,-0.71146 -0.804266,-2.07253 v -3.9904 h -1.299201 v -1.36107 h 1.314667 v -2.19626 h 1.5776 v 2.19626 h 2.3664 v 1.36107 h -2.3664 v 3.91307 q 0,0.80426 0.355734,1.14453 0.3712,0.3248 1.144533,0.3248 h 0.928 z"
     style=""
     id="path846" /><path
     d="m -10.09233,361.03595 v -1.03627 h -2.428266 q -1.546667,0 -1.546667,1.17547 0,0.47946 0.2784,0.75786 0.2784,0.26294 0.7888,0.26294 0.757867,0 1.5776,-0.44854 z m 1.5466671,2.39733 H -10.09233 v -1.05173 l -0.897066,0.49493 q -1.2064,0.6496 -2.2736,0.6496 -1.0672,0 -1.732267,-0.63413 -0.6496,-0.63414 -0.6496,-1.65494 0,-1.19093 0.819733,-1.82506 0.8352,-0.63414 2.1344,-0.63414 h 2.613867 v -0.5104 q 0,-1.77866 -1.871467,-1.77866 -1.979733,0 -1.979733,1.59306 h -1.5312 v -0.0773 q 0,-1.33013 0.958933,-2.088 0.9744,-0.75787 2.536534,-0.75787 1.608533,0 2.5055997,0.80427 0.9125334,0.7888 0.9125334,2.2272 z"
     style=""
     id="path848" /><path
     d="m -4.8752299,363.43328 h -1.5930667 v -11.5072 h 1.5930667 z"
     style=""
     id="path850" /><path
     d="m 1.5758198,359.64395 h -4.5008001 v -1.4384 h 4.5008001 z"
     style=""
     id="path852" /><path
     d="M 5.1237287,363.43328 H 3.530662 v -11.5072 h 1.5930667 z"
     style=""
     id="path854" /><path
     d="m 14.142245,360.85035 v 0.0773 q 0,1.19093 -0.943467,1.91787 -0.943466,0.72693 -2.521066,0.72693 -1.5776003,0 -2.567467,-0.81973 -0.9898667,-0.8352 -0.9898667,-2.2736 v -1.9488 q 0,-1.51574 0.9898667,-2.42827 0.9898667,-0.91253 2.552,-0.91253 1.562133,0 2.536533,0.91253 0.974401,0.89707 0.974401,2.44373 v 1.37654 H 8.620645 v 0.464 q 0,0.91253 0.5568,1.392 0.5722667,0.464 1.500267,0.464 1.964266,0 1.964266,-1.392 z m -1.453867,-2.088 v -0.24747 q 0,-0.95893 -0.541333,-1.46933 -0.525867,-0.52587 -1.4848,-0.52587 -0.9589333,0 -1.5002667,0.52587 -0.5413333,0.52586 -0.5413333,1.4848 v 0.232 z"
     style=""
     id="path856" /><path
     d="m 27.122887,363.43328 h -1.562133 v -5.62987 q 0,-1.12906 -0.943467,-1.12906 -0.448533,0 -1.098133,0.3712 l -1.098134,0.6496 v 5.73813 h -1.546666 v -5.62987 q 0,-1.1136 -0.958934,-1.1136 -0.479466,0 -1.082667,0.35574 l -1.098133,0.6496 v 5.73813 h -1.546667 v -8.13547 h 1.515734 v 0.95894 l 0.773333,-0.464 q 0.866134,-0.5568 1.778667,-0.5568 1.407467,0 1.9024,1.14453 l 0.928,-0.57227 q 0.958933,-0.57226 1.871467,-0.57226 1.0208,0 1.593066,0.63413 0.572267,0.61867 0.572267,1.74773 z"
     style=""
     id="path858" /><path
     d="m 36.605343,363.43328 h -1.419792 v -4.80313 q 0,-0.58151 -0.06797,-1.0875 -0.06797,-0.51354 -0.249218,-0.80052 -0.188803,-0.31718 -0.543751,-0.46823 -0.354947,-0.15859 -0.921354,-0.15859 -0.58151,0 -1.215885,0.28698 -0.634375,0.28698 -1.215886,0.73255 v 6.29844 h -1.419791 v -9.57604 h -1.253646 v -1.01198 h 1.253646 v -1.16302 h 1.419791 v 1.16302 h 2.424219 v 1.01198 h -2.424219 v 2.07682 q 0.664584,-0.5513 1.37448,-0.86094 0.709895,-0.30963 1.457552,-0.30963 1.366927,0 2.084375,0.82317 0.717448,0.82318 0.717448,2.37136 z"
     style=""
     id="path860" /><path
     d="m 40.679664,363.43328 h -1.593067 v -8.13547 h 1.593067 z m 0.108266,-10.79573 v 0.3248 q 0,0.35573 -0.262933,0.57226 -0.247467,0.21654 -0.634133,0.21654 -0.4176,0 -0.665067,-0.20107 -0.247467,-0.21653 -0.247467,-0.58773 v -0.3248 q 0,-0.3712 0.247467,-0.57227 0.247467,-0.21653 0.665067,-0.21653 0.386666,0 0.634133,0.21653 0.262933,0.21653 0.262933,0.57227 z"
     style=""
     id="path862" /><path
     d="m 49.757871,360.85035 v 0.0773 q 0,1.19093 -0.943467,1.91787 -0.943467,0.72693 -2.521067,0.72693 -1.5776,0 -2.567467,-0.81973 -0.989866,-0.8352 -0.989866,-2.2736 v -1.9488 q 0,-1.51574 0.989866,-2.42827 0.989867,-0.91253 2.552,-0.91253 1.562134,0 2.536534,0.91253 0.9744,0.89707 0.9744,2.44373 v 1.37654 H 44.23627 v 0.464 q 0,0.91253 0.5568,1.392 0.572267,0.464 1.500267,0.464 1.964267,0 1.964267,-1.392 z m -1.453867,-2.088 v -0.24747 q 0,-0.95893 -0.541334,-1.46933 -0.525866,-0.52587 -1.4848,-0.52587 -0.958933,0 -1.500266,0.52587 -0.541334,0.52586 -0.541334,1.4848 v 0.232 z"
     style=""
     id="path864" /><path
     d="m 56.350781,363.43328 h -1.0208 q -1.392,0 -2.196267,-0.71147 -0.804267,-0.71146 -0.804267,-2.07253 v -3.9904 h -1.2992 v -1.36107 h 1.314667 v -2.19626 h 1.5776 v 2.19626 h 2.3664 v 1.36107 h -2.3664 v 3.91307 q 0,0.80426 0.355733,1.14453 0.3712,0.3248 1.144534,0.3248 h 0.928 z"
     style=""
     id="path866" /></g>




</g></g></svg>