<?xml version="1.0" encoding="UTF-8" standalone="no"?>
<!-- Generator: Adobe Illustrator 19.1.0, SVG Export Plug-In . SVG Version: 6.00 Build 0)  -->

<svg
   xmlns:dc="http://purl.org/dc/elements/1.1/"
   xmlns:cc="http://creativecommons.org/ns#"
   xmlns:rdf="http://www.w3.org/1999/02/22-rdf-syntax-ns#"
   xmlns:svg="http://www.w3.org/2000/svg"
   xmlns="http://www.w3.org/2000/svg"
   xmlns:sodipodi="http://sodipodi.sourceforge.net/DTD/sodipodi-0.dtd"
   xmlns:inkscape="http://www.inkscape.org/namespaces/inkscape"
   version="1.1"
   id="Calque_1"
   x="0px"
   y="0px"
   viewBox="-33.6 228.6 138.2 138.2"
   xml:space="preserve"
   sodipodi:docname="main_menu_logo_map-fr.svg"
   inkscape:version="0.92.4 (5da689c313, 2019-01-14)"
   width="138.2"
   height="138.2"><metadata
     id="metadata105"><rdf:RDF><cc:Work
         rdf:about=""><dc:format>image/svg+xml</dc:format><dc:type
           rdf:resource="http://purl.org/dc/dcmitype/StillImage" /><dc:title /></cc:Work></rdf:RDF></metadata><defs
     id="defs103" /><sodipodi:namedview
     pagecolor="#ffffff"
     bordercolor="#666666"
     borderopacity="1"
     objecttolerance="10"
     gridtolerance="10"
     guidetolerance="10"
     inkscape:pageopacity="0"
     inkscape:pageshadow="2"
     inkscape:window-width="2400"
     inkscape:window-height="1271"
     id="namedview101"
     showgrid="false"
     inkscape:zoom="4"
     inkscape:cx="-50.77445"
     inkscape:cy="43.725374"
     inkscape:window-x="2391"
     inkscape:window-y="-9"
     inkscape:window-maximized="1"
     inkscape:current-layer="g96"
     fit-margin-top="0"
     fit-margin-left="0"
     fit-margin-right="0"
     fit-margin-bottom="0" /><style
     type="text/css"
     id="style2">
	.st0{fill:#D3D501;}
	.st1{fill:#FFFFFF;}
	.st2{fill:#7A9C2B;}
	.st3{fill:#E8E493;}
	.st4{fill:#40637D;}
	.st5{fill:#5E9EB5;}
	.st6{fill:#D0A82B;}
	.st7{fill:#559973;}
	.st8{fill:#00662C;}
</style><g
     id="g36"
     transform="translate(-0.20000144,-0.39997711)"><g
       id="g30"><path
         class="st1"
         d="m 24.1,315.9 c 0,0.4 0.2,0.8 0.6,1 0.4,0.2 0.8,0.2 1.2,-0.1 l 7.7,-5.3 -9.5,-4.5 z"
         id="path28"
         inkscape:connector-curvature="0"
         style="fill:#ffffff" /></g><g
       id="g34"><path
         class="st1"
         d="m 70,256.5 c -0.2,-0.2 -0.5,-0.3 -0.8,-0.3 -0.2,0 -0.3,0 -0.5,0.1 L 2.1,289 c -0.7,0.3 -1.1,1 -1.1,1.8 0,0.8 0.4,1.5 1.1,1.8 L 19.7,301 54.8,272.1 24,303 45.9,313.4 c 0.3,0.1 0.6,0.2 0.9,0.2 0.2,0 0.5,0 0.7,-0.1 0.5,-0.2 0.9,-0.6 1.1,-1.1 l 21.7,-54.6 c 0.2,-0.5 0.1,-1 -0.3,-1.3"
         id="path32"
         inkscape:connector-curvature="0"
         style="fill:#ffffff" /></g></g><circle
     class="st5"
     cx="35.5"
     cy="297.70001"
     r="69.099998"
     id="circle38"
     style="fill:#5e9eb5" /><g
     id="g54"
     transform="translate(2.0902517,-0.39997711)"><path
       class="st1"
       d="M 30.5,268.5 H 10.7 c -0.8,0 -1.5,0.5 -1.7,1.3 l -3.8,13.1 26.6,2.9 2.1,-10 c -1.3,-2.3 -2.5,-4.8 -3.4,-7.3 z"
       id="path40"
       inkscape:connector-curvature="0"
       style="fill:#ffffff" /><path
       class="st1"
       d="m 55.4,288.4 8,0.9 L 61,281 c -0.3,0.5 -0.6,0.9 -1,1.4 -1.6,2.3 -3.2,4.3 -4.6,6 z"
       id="path42"
       inkscape:connector-curvature="0"
       style="fill:#ffffff" /><g
       id="g52"><path
         class="st1"
         d="m 38,282.3 -0.9,4.1 4.3,0.5 c -1,-1.4 -2.1,-2.9 -3.4,-4.6 0.1,0.1 0.1,0 0,0 z"
         id="path44"
         inkscape:connector-curvature="0"
         style="fill:#ffffff" /><path
         class="st1"
         d="m 0.1,300.6 c -0.2,0.5 0,1.1 0.3,1.6 0.3,0.4 0.9,0.7 1.4,0.7 h 26.4 l 2.5,-11.8 -27,-3 z"
         id="path46"
         inkscape:connector-curvature="0"
         style="fill:#ffffff" /><path
         class="st1"
         d="m 65,294.8 -28.9,-3.2 -2.3,11.2 H 65 c 1,0 1.8,-0.8 1.8,-1.8 0,-0.2 0,-0.4 -0.1,-0.6 z"
         id="path48"
         inkscape:connector-curvature="0"
         style="fill:#ffffff" /><path
         class="st1"
         d="m 48.3,290.7 c 0.2,0.2 0.5,0.3 0.7,0.3 0.3,0 0.5,-0.1 0.7,-0.3 1.6,-1.7 4.8,-5.3 8,-9.8 4,-5.7 8.9,-14.1 8.9,-21.5 0,-9.7 -7.9,-17.7 -17.7,-17.7 -9.7,0 -17.7,7.9 -17.7,17.7 0,7.5 4.8,15.8 8.9,21.5 3.4,4.5 6.6,8 8.2,9.8 z m 0.8,-42.4 c 5.9,0 10.8,4.8 10.8,10.8 0,5.9 -4.8,10.8 -10.8,10.8 -5.9,0 -10.8,-4.8 -10.8,-10.8 0,-6 4.8,-10.8 10.8,-10.8 z"
         id="path50"
         inkscape:connector-curvature="0"
         style="fill:#ffffff" /></g></g><g
     id="g98"
     transform="translate(18.292845,-14.399977)"><g
       id="g96"><g
   aria-label="Carte des 
observations"
   style="font-style:normal;font-variant:normal;font-weight:normal;font-stretch:normal;font-size:15.46666718px;line-height:1.25;font-family:KonsensMedium;-inkscape-font-specification:'KonsensMedium, Normal';font-variant-ligatures:normal;font-variant-caps:normal;font-variant-numeric:normal;font-feature-settings:normal;text-align:center;letter-spacing:0px;word-spacing:0px;writing-mode:lr-tb;text-anchor:middle;fill:#ffffff;fill-opacity:1;stroke:none"
   id="text6172"><path
     d="m -8.3380714,340.01674 v 0.17014 q 0,1.93333 -1.2528001,3.016 -1.2373335,1.08267 -3.3253335,1.08267 -0.9744,0 -1.8096,-0.26294 -0.819733,-0.2784 -1.4848,-0.8352 -0.665067,-0.5568 -1.036267,-1.51573 -0.3712,-0.95894 -0.3712,-2.2272 v -2.1344 q 0,-1.26827 0.3712,-2.2272 0.3712,-0.95894 1.036267,-1.51574 0.665067,-0.5568 1.4848,-0.81973 0.8352,-0.2784 1.8096,-0.2784 2.103467,0 3.3408002,1.08267 1.2373334,1.0672 1.2373334,3.016 v 0.17013 h -1.7167996 q 0,-1.392 -0.7424,-2.07253 -0.742401,-0.696 -2.118934,-0.696 -3.000533,0 -3.000533,3.3872 v 2.0416 q 0,3.3872 3.000533,3.3872 1.376533,0 2.118934,-0.696 0.7424,-0.696 0.7424,-2.07254 z"
     style=""
     id="path834" /><path
     d="m -1.1204542,341.70261 v -1.03627 H -3.548721 q -1.5466667,0 -1.5466667,1.17547 0,0.47947 0.2784,0.75787 0.2784,0.26293 0.7888,0.26293 0.7578667,0 1.5776001,-0.44853 z m 1.54666668,2.39734 H -1.1204542 v -1.05174 l -0.8970667,0.49494 q -1.2064001,0.6496 -2.2736001,0.6496 -1.0672,0 -1.7322667,-0.63414 -0.6496001,-0.63413 -0.6496001,-1.65493 0,-1.19094 0.8197334,-1.82507 0.8352,-0.63413 2.1344001,-0.63413 h 2.6138667 v -0.5104 q 0,-1.77867 -1.8714667,-1.77867 -1.9797334,0 -1.9797334,1.59307 h -1.5312 v -0.0773 q 0,-1.33013 0.9589333,-2.088 0.9744,-0.75786 2.5365334,-0.75786 1.6085334,0 2.50560011,0.80426 0.91253337,0.7888 0.91253337,2.2272 z"
     style=""
     id="path836" /><path
     d="m 4.0811788,344.09995 h -1.5776 v -8.13547 h 1.5466667 v 1.23733 l 0.3712,-0.3712 q 0.9744001,-0.89707 2.1189334,-0.89707 h 0.4176 v 1.60854 H 6.5558456 q -1.0517334,0 -1.7941334,0.61866 l -0.6805334,0.5568 z"
     style=""
     id="path838" /><path
     d="m 12.850778,344.09995 h -1.0208 q -1.392,0 -2.1962666,-0.71147 -0.8042667,-0.71147 -0.8042667,-2.07254 v -3.9904 h -1.2992 v -1.36106 h 1.3146667 v -2.19627 h 1.5775996 v 2.19627 h 2.366401 v 1.36106 h -2.366401 v 3.91307 q 0,0.80427 0.355734,1.14454 0.3712,0.3248 1.144533,0.3248 h 0.928 z"
     style=""
     id="path840" /><path
     d="m 20.9657,341.51701 v 0.0773 q 0,1.19094 -0.943466,1.91787 -0.943467,0.72694 -2.521067,0.72694 -1.5776,0 -2.567467,-0.81974 -0.989867,-0.8352 -0.989867,-2.2736 v -1.9488 q 0,-1.51573 0.989867,-2.42827 0.989867,-0.91253 2.552,-0.91253 1.562133,0 2.536534,0.91253 0.9744,0.89707 0.9744,2.44374 v 1.37653 H 15.4441 v 0.464 q 0,0.91253 0.5568,1.392 0.572267,0.464 1.500267,0.464 1.964267,0 1.964267,-1.392 z m -1.453866,-2.088 v -0.24747 q 0,-0.95893 -0.541334,-1.46933 -0.525867,-0.52587 -1.4848,-0.52587 -0.958933,0 -1.500267,0.52587 -0.541333,0.52587 -0.541333,1.4848 v 0.232 z"
     style=""
     id="path842" /><path
     d="m 32.961071,341.62528 v -3.13974 l -1.453867,-0.81973 q -0.634133,-0.34027 -1.268266,-0.34027 -0.6496,0 -1.051734,0.4176 -0.386666,0.40214 -0.386666,1.08267 v 2.4592 q 0,0.68053 0.386666,1.09814 0.402134,0.40213 1.051734,0.40213 0.618666,0 1.268266,-0.35573 z m 1.5312,2.47467 h -1.515733 v -0.9744 l -1.0208,0.5568 q -0.943467,0.52586 -1.933334,0.52586 -1.221866,0 -1.9952,-0.75786 -0.757866,-0.75787 -0.757866,-1.97974 v -2.784 q 0,-1.22187 0.7888,-2.01067 0.7888,-0.7888 2.010666,-0.7888 0.943467,0 1.886934,0.52587 l 1.005333,0.5568 v -4.37707 h 1.5312 z"
     style=""
     id="path844" /><path
     d="m 43.534956,341.51701 v 0.0773 q 0,1.19094 -0.943467,1.91787 -0.943466,0.72694 -2.521066,0.72694 -1.5776,0 -2.567467,-0.81974 -0.989867,-0.8352 -0.989867,-2.2736 v -1.9488 q 0,-1.51573 0.989867,-2.42827 0.989867,-0.91253 2.552,-0.91253 1.562133,0 2.536533,0.91253 0.9744,0.89707 0.9744,2.44374 v 1.37653 h -5.552533 v 0.464 q 0,0.91253 0.5568,1.392 0.572267,0.464 1.500267,0.464 1.964266,0 1.964266,-1.392 z m -1.453867,-2.088 v -0.24747 q 0,-0.95893 -0.541333,-1.46933 -0.525867,-0.52587 -1.4848,-0.52587 -0.958933,0 -1.500267,0.52587 -0.541333,0.52587 -0.541333,1.4848 v 0.232 z"
     style=""
     id="path846" /><path
     d="m 52.076663,338.56288 h -1.546667 q 0,-1.392 -1.825067,-1.392 -0.866133,0 -1.330133,0.30933 -0.448534,0.30933 -0.448534,0.81973 0,0.47947 0.386667,0.7424 0.386667,0.26294 0.958933,0.3248 0.572267,0.0619 1.237334,0.1856 0.680533,0.12374 1.2528,0.29387 0.572267,0.15467 0.958933,0.63413 0.386667,0.47947 0.386667,1.2528 0,1.14454 -0.912533,1.82507 -0.912534,0.66507 -2.505601,0.66507 -1.608533,0 -2.536533,-0.72693 -0.912533,-0.72694 -0.912533,-1.91787 v -0.0773 h 1.593066 q 0,1.40747 1.886934,1.40747 0.897067,0 1.376533,-0.29386 0.494934,-0.30934 0.494934,-0.81974 0,-0.5104 -0.541334,-0.7424 -0.525866,-0.232 -1.283733,-0.3248 -0.757867,-0.0928 -1.5312,-0.24747 -0.757867,-0.15466 -1.2992,-0.68053 -0.525867,-0.54133 -0.525867,-1.46933 0,-1.14454 0.8816,-1.8096 0.897067,-0.66507 2.443733,-0.66507 1.593067,0 2.459201,0.72693 0.8816,0.71147 0.8816,1.91787 z"
     style=""
     id="path848" /><path
     d="m -23.406955,360.10795 v -1.4384 q 0,-0.98987 -0.587734,-1.54667 -0.572266,-0.5568 -1.515733,-0.5568 -0.958933,0 -1.5312,0.5568 -0.572267,0.5568 -0.572267,1.54667 v 1.4384 q 0,0.98986 0.572267,1.56213 0.572267,0.5568 1.5312,0.5568 0.943467,0 1.515733,-0.5568 0.587734,-0.5568 0.587734,-1.56213 z m 1.515733,-1.5776 v 1.73226 q 0,1.51574 -1.0208,2.42827 -1.005333,0.91253 -2.5984,0.91253 -1.593067,0 -2.613867,-0.91253 -1.005333,-0.91253 -1.005333,-2.42827 v -1.73226 q 0,-1.51574 1.005333,-2.42827 1.0208,-0.91253 2.613867,-0.91253 1.593067,0 2.5984,0.91253 1.0208,0.91253 1.0208,2.42827 z"
     style=""
     id="path850" /><path
     d="m -14.20453,360.61835 v -2.4592 q 0,-0.68054 -0.386666,-1.08267 -0.386667,-0.4176 -1.036267,-0.4176 -0.634133,0 -1.283733,0.34027 l -1.4384,0.81973 v 3.13973 l 1.4384,0.80427 q 0.680533,0.35573 1.283733,0.35573 0.6496,0 1.036267,-0.40213 0.386666,-0.4176 0.386666,-1.09813 z m -3.1552,2.39733 -1.005333,-0.54133 v 0.95893 h -1.515733 v -11.5072 h 1.5312 v 4.37707 l 0.989866,-0.5568 q 0.9744,-0.52587 1.933334,-0.52587 1.221866,0 1.979733,0.77333 0.773334,0.75787 0.773334,1.9952 v 2.784 q 0,1.2064 -0.773334,1.9952 -0.773333,0.77334 -2.010667,0.77334 -0.928,0 -1.9024,-0.52587 z"
     style=""
     id="path852" /><path
     d="m -4.1410456,357.89621 h -1.5466667 q 0,-1.392 -1.8250667,-1.392 -0.8661334,0 -1.3301334,0.30934 -0.4485334,0.30933 -0.4485334,0.81973 0,0.47947 0.3866667,0.7424 0.3866667,0.26293 0.9589334,0.3248 0.5722667,0.0619 1.2373333,0.1856 0.6805334,0.12373 1.2528001,0.29387 0.5722667,0.15466 0.9589334,0.63413 0.3866666,0.47947 0.3866666,1.2528 0,1.14453 -0.9125333,1.82507 -0.9125334,0.66506 -2.5056001,0.66506 -1.6085334,0 -2.5365333,-0.72693 -0.912533,-0.72693 -0.912533,-1.91787 v -0.0773 h 1.5930662 q 0,1.40747 1.8869334,1.40747 0.8970667,0 1.3765334,-0.29387 0.4949333,-0.30933 0.4949333,-0.81973 0,-0.5104 -0.5413333,-0.7424 -0.5258667,-0.232 -1.2837334,-0.3248 -0.7578667,-0.0928 -1.5312,-0.24747 -0.7578667,-0.15467 -1.2991996,-0.68053 -0.525867,-0.54134 -0.525867,-1.46934 0,-1.14453 0.8815999,-1.8096 0.8970667,-0.66506 2.4437334,-0.66506 1.5930667,0 2.4592001,0.72693 0.8816,0.71147 0.8816,1.91787 z"
     style=""
     id="path854" /><path
     d="m 4.5964131,360.85035 v 0.0773 q 0,1.19093 -0.9434667,1.91787 -0.9434667,0.72693 -2.5210667,0.72693 -1.57760008,0 -2.5674668,-0.81973 -0.9898667,-0.8352 -0.9898667,-2.2736 v -1.9488 q 0,-1.51574 0.9898667,-2.42827 0.98986672,-0.91253 2.5520001,-0.91253 1.5621334,0 2.5365334,0.91253 0.9744001,0.89707 0.9744001,2.44373 v 1.37654 h -5.55253356 v 0.464 q 0,0.91253 0.55680002,1.392 0.57226668,0.464 1.50026674,0.464 1.9642667,0 1.9642667,-1.392 z m -1.4538667,-2.088 v -0.24747 q 0,-0.95893 -0.5413333,-1.46933 -0.5258667,-0.52587 -1.4848001,-0.52587 -0.95893336,0 -1.50026671,0.52587 -0.54133335,0.52586 -0.54133335,1.4848 v 0.232 z"
     style=""
     id="path856" /><path
     d="m 8.2197214,363.43328 h -1.5776 v -8.13547 h 1.5466667 v 1.23734 l 0.3712,-0.3712 q 0.9744,-0.89707 2.1189329,-0.89707 h 0.417601 v 1.60853 h -0.402134 q -1.0517332,0 -1.7941332,0.61867 l -0.6805334,0.5568 z"
     style=""
     id="path858" /><path
     d="m 16.262387,363.43328 h -1.7632 l -2.907733,-8.13547 h 1.7168 l 2.103467,6.3568 2.1344,-6.3568 h 1.624 z"
     style=""
     id="path860" /><path
     d="m 25.429044,361.03595 v -1.03627 h -2.428267 q -1.546667,0 -1.546667,1.17547 0,0.47946 0.2784,0.75786 0.2784,0.26294 0.7888,0.26294 0.757867,0 1.5776,-0.44854 z m 1.546666,2.39733 h -1.546666 v -1.05173 l -0.897067,0.49493 q -1.2064,0.6496 -2.2736,0.6496 -1.0672,0 -1.732267,-0.63413 -0.6496,-0.63414 -0.6496,-1.65494 0,-1.19093 0.819734,-1.82506 0.8352,-0.63414 2.1344,-0.63414 h 2.613866 v -0.5104 q 0,-1.77866 -1.871466,-1.77866 -1.979734,0 -1.979734,1.59306 h -1.5312 v -0.0773 q 0,-1.33013 0.958934,-2.088 0.9744,-0.75787 2.536533,-0.75787 1.608533,0 2.5056,0.80427 0.912533,0.7888 0.912533,2.2272 z"
     style=""
     id="path862" /><path
     d="m 33.435961,363.43328 h -1.0208 q -1.392,0 -2.196267,-0.71147 -0.804267,-0.71146 -0.804267,-2.07253 v -3.9904 h -1.2992 v -1.36107 h 1.314667 v -2.19626 h 1.5776 v 2.19626 h 2.3664 v 1.36107 h -2.3664 v 3.91307 q 0,0.80426 0.355733,1.14453 0.3712,0.3248 1.144534,0.3248 h 0.928 z"
     style=""
     id="path864" /><path
     d="m 36.661957,363.43328 h -1.593066 v -8.13547 h 1.593066 z m 0.108267,-10.79573 v 0.3248 q 0,0.35573 -0.262933,0.57226 -0.247467,0.21654 -0.634134,0.21654 -0.4176,0 -0.665066,-0.20107 -0.247467,-0.21653 -0.247467,-0.58773 v -0.3248 q 0,-0.3712 0.247467,-0.57227 0.247466,-0.21653 0.665066,-0.21653 0.386667,0 0.634134,0.21653 0.262933,0.21653 0.262933,0.57227 z"
     style=""
     id="path866" /><path
     d="m 44.440968,360.10795 v -1.4384 q 0,-0.98987 -0.587733,-1.54667 -0.572267,-0.5568 -1.515734,-0.5568 -0.958933,0 -1.5312,0.5568 -0.572266,0.5568 -0.572266,1.54667 v 1.4384 q 0,0.98986 0.572266,1.56213 0.572267,0.5568 1.5312,0.5568 0.943467,0 1.515734,-0.5568 0.587733,-0.5568 0.587733,-1.56213 z m 1.515733,-1.5776 v 1.73226 q 0,1.51574 -1.0208,2.42827 -1.005333,0.91253 -2.5984,0.91253 -1.593066,0 -2.613866,-0.91253 -1.005334,-0.91253 -1.005334,-2.42827 v -1.73226 q 0,-1.51574 1.005334,-2.42827 1.0208,-0.91253 2.613866,-0.91253 1.593067,0 2.5984,0.91253 1.0208,0.91253 1.0208,2.42827 z"
     style=""
     id="path868" /><path
     d="m 54.849789,363.43328 h -1.5776 v -5.4288 q 0,-0.58773 -0.3248,-0.95893 -0.309333,-0.38667 -0.8816,-0.38667 -0.525867,0 -1.221867,0.40213 l -1.330133,0.7888 v 5.58347 h -1.546667 v -8.13547 h 1.5312 v 1.0672 l 0.928,-0.57226 q 0.912534,-0.57227 1.933334,-0.57227 1.144533,0 1.8096,0.71147 0.680533,0.71146 0.680533,1.88693 z"
     style=""
     id="path870" /><path
     d="m 63.495418,357.89621 h -1.546667 q 0,-1.392 -1.825067,-1.392 -0.866133,0 -1.330133,0.30934 -0.448534,0.30933 -0.448534,0.81973 0,0.47947 0.386667,0.7424 0.386667,0.26293 0.958933,0.3248 0.572267,0.0619 1.237334,0.1856 0.680533,0.12373 1.2528,0.29387 0.572267,0.15466 0.958933,0.63413 0.386667,0.47947 0.386667,1.2528 0,1.14453 -0.912533,1.82507 -0.912534,0.66506 -2.505601,0.66506 -1.608533,0 -2.536533,-0.72693 -0.912533,-0.72693 -0.912533,-1.91787 v -0.0773 h 1.593066 q 0,1.40747 1.886934,1.40747 0.897066,0 1.376533,-0.29387 0.494934,-0.30933 0.494934,-0.81973 0,-0.5104 -0.541334,-0.7424 -0.525867,-0.232 -1.283733,-0.3248 -0.757867,-0.0928 -1.5312,-0.24747 -0.757867,-0.15467 -1.2992,-0.68053 -0.525867,-0.54134 -0.525867,-1.46934 0,-1.14453 0.8816,-1.8096 0.897067,-0.66506 2.443733,-0.66506 1.593067,0 2.459201,0.72693 0.8816,0.71147 0.8816,1.91787 z"
     style=""
     id="path872" /></g>


</g></g></svg>