<?xml version="1.0" encoding="UTF-8" standalone="no"?>
<!-- Generator: Adobe Illustrator 19.1.0, SVG Export Plug-In . SVG Version: 6.00 Build 0)  -->

<svg
   xmlns:dc="http://purl.org/dc/elements/1.1/"
   xmlns:cc="http://creativecommons.org/ns#"
   xmlns:rdf="http://www.w3.org/1999/02/22-rdf-syntax-ns#"
   xmlns:svg="http://www.w3.org/2000/svg"
   xmlns="http://www.w3.org/2000/svg"
   xmlns:sodipodi="http://sodipodi.sourceforge.net/DTD/sodipodi-0.dtd"
   xmlns:inkscape="http://www.inkscape.org/namespaces/inkscape"
   version="1.1"
   id="Calque_1"
   x="0px"
   y="0px"
   viewBox="-330 571.3 138.60001 138.60001"
   xml:space="preserve"
   sodipodi:docname="main_menu_logo_report_sighting-sr.svg"
   inkscape:version="0.92.4 (5da689c313, 2019-01-14)"
   width="138.60001"
   height="138.60001"><metadata
   id="metadata69"><rdf:RDF><cc:Work
       rdf:about=""><dc:format>image/svg+xml</dc:format><dc:type
         rdf:resource="http://purl.org/dc/dcmitype/StillImage" /><dc:title /></cc:Work></rdf:RDF></metadata><defs
   id="defs67" /><sodipodi:namedview
   pagecolor="#ffffff"
   bordercolor="#666666"
   borderopacity="1"
   objecttolerance="10"
   gridtolerance="10"
   guidetolerance="10"
   inkscape:pageopacity="0"
   inkscape:pageshadow="2"
   inkscape:window-width="2400"
   inkscape:window-height="1271"
   id="namedview65"
   showgrid="false"
   inkscape:zoom="4"
   inkscape:cx="-31.424988"
   inkscape:cy="69.350001"
   inkscape:window-x="2391"
   inkscape:window-y="-9"
   inkscape:window-maximized="1"
   inkscape:current-layer="Calque_1"
   fit-margin-top="0"
   fit-margin-left="0"
   fit-margin-right="0"
   fit-margin-bottom="0" /><style
   type="text/css"
   id="style2">
	.st0{fill:#7A9C2B;}
	.st1{fill:#FFFFFF;}
</style><g
   id="g6"
   transform="translate(0,-0.1)"><path
     class="st0"
     d="m -330,640.7 c 0,-38.3 31,-69.3 69.3,-69.3 38.3,0 69.3,31 69.3,69.3 0,38.3 -31,69.3 -69.3,69.3 -38.3,0 -69.3,-31 -69.3,-69.3"
     id="path4"
     style="fill:#7a9c2b;fill-opacity:1"
     inkscape:connector-curvature="0" /></g><g
   id="g62"
   transform="translate(0,-4.20001)"><g
     id="g44"><path
       class="st1"
       d="m -246.4,604.3 c -1.5,-0.4 -5.1,-1 -5.1,-1 0,0 -4.9,-3.9 -9.2,-3.9 -4.3,0 -9.2,3.9 -9.2,3.9 0,0 -3.6,0.6 -5.1,1 6.7,2.4 11.5,8.9 11.5,16.4 0,3.1 -0.8,6 -2.2,8.5 h 10 c -1.4,-2.5 -2.2,-5.4 -2.2,-8.5 0,-7.5 4.8,-13.9 11.5,-16.4"
       id="path42"
       inkscape:connector-curvature="0"
       style="fill:#ffffff" /></g><g
     id="g48"><path
       class="st1"
       d="m -281.9,605.1 c -9,0 -16.3,7.3 -16.3,16.3 0,9 7.3,16.3 16.3,16.3 9,0 16.3,-7.3 16.3,-16.3 0,-9 -7.3,-16.3 -16.3,-16.3 m 0,26.6 c -5.7,0 -10.3,-4.6 -10.3,-10.3 0,-5.7 4.6,-10.3 10.3,-10.3 5.7,0 10.3,4.6 10.3,10.3 0,5.6 -4.6,10.3 -10.3,10.3"
       id="path46"
       inkscape:connector-curvature="0"
       style="fill:#ffffff" /></g><g
     id="g52"><path
       class="st1"
       d="m -288.5,616.2 c -2.2,2.9 -2,6.9 0.3,9.5 -0.8,-2.7 -0.4,-5.8 1.5,-8.2 1.9,-2.4 4.7,-3.6 7.5,-3.5 -3.2,-1.5 -7.1,-0.7 -9.3,2.2"
       id="path50"
       inkscape:connector-curvature="0"
       style="fill:#ffffff" /></g><g
     id="g56"><path
       class="st1"
       d="m -239.5,605.1 c -9,0 -16.3,7.3 -16.3,16.3 0,9 7.3,16.3 16.3,16.3 9,0 16.3,-7.3 16.3,-16.3 0,-9 -7.3,-16.3 -16.3,-16.3 m 0,26.6 c -5.7,0 -10.3,-4.6 -10.3,-10.3 0,-5.7 4.6,-10.3 10.3,-10.3 5.7,0 10.3,4.6 10.3,10.3 0,5.6 -4.6,10.3 -10.3,10.3"
       id="path54"
       inkscape:connector-curvature="0"
       style="fill:#ffffff" /></g><g
     id="g60"><path
       class="st1"
       d="m -242.1,614 c 2.8,-0.1 5.7,1.1 7.5,3.5 1.9,2.4 2.3,5.5 1.5,8.2 2.3,-2.7 2.5,-6.6 0.3,-9.5 -2.2,-2.9 -6.1,-3.7 -9.3,-2.2"
       id="path58"
       inkscape:connector-curvature="0"
       style="fill:#ffffff" /></g></g><g
   aria-label="Пријавите 
извештавање"
   style="font-style:normal;font-variant:normal;font-weight:normal;font-stretch:normal;font-size:15.46666718px;line-height:1.25;font-family:KonsensMedium;-inkscape-font-specification:'KonsensMedium, Normal';font-variant-ligatures:normal;font-variant-caps:normal;font-variant-numeric:normal;font-feature-settings:normal;text-align:center;letter-spacing:0px;word-spacing:0px;writing-mode:lr-tb;text-anchor:middle;fill:#ffffff;fill-opacity:1;stroke:none"
   id="text73"><path
     d="m -291.70064,672.14996 h -1.49531 v -9.91588 h -5.6112 v 9.91588 h -1.49532 v -11.24505 h 8.60183 z"
     style=""
     id="path831" /><path
     d="m -281.36184,667.83017 q 0,1.02708 -0.29453,1.88047 -0.29453,0.84583 -0.83073,1.4349 -0.49844,0.55885 -1.17812,0.86849 -0.67214,0.30208 -1.42735,0.30208 -0.65703,0 -1.19323,-0.14349 -0.52864,-0.14349 -1.07995,-0.44557 v 3.53437 h -1.41979 v -11.54713 h 1.41979 v 0.88359 q 0.56641,-0.47578 1.26875,-0.79297 0.7099,-0.32474 1.51042,-0.32474 1.52552,0 2.37136,1.15547 0.85338,1.14792 0.85338,3.19453 z m -1.4651,0.0378 q 0,-1.52552 -0.5211,-2.28073 -0.52109,-0.75521 -1.60104,-0.75521 -0.61172,0 -1.23099,0.26433 -0.61927,0.26432 -1.18568,0.69479 v 4.78047 q 0.60417,0.27187 1.03464,0.37005 0.43802,0.0982 0.98932,0.0982 1.18568,0 1.85026,-0.80052 0.66459,-0.80052 0.66459,-2.37136 z"
     style=""
     id="path833" /><path
     d="m -272.04257,672.14996 h -1.40469 v -6.33619 l -4.41797,6.33619 h -1.28385 v -8.43567 h 1.40469 v 6.24557 l 4.37265,-6.24557 h 1.32917 z"
     style=""
     id="path835" /><path
     d="m -266.61262,662.30205 h -1.60104 v -1.47266 h 1.60104 z m -0.0906,10.05182 q 0,1.48021 -0.7552,2.23542 -0.75521,0.7552 -2.02396,0.7552 -0.30209,0 -0.80052,-0.0604 -0.49089,-0.0604 -0.82318,-0.15104 v -1.35183 h 0.0755 q 0.21146,0.0831 0.56641,0.18881 0.3625,0.10572 0.70234,0.10572 0.54375,0 0.87604,-0.15104 0.33229,-0.15104 0.49844,-0.45312 0.16615,-0.30209 0.21146,-0.73255 0.0529,-0.42292 0.0529,-1.03464 v -6.79687 h -1.75963 v -1.19323 h 3.17942 z"
     style=""
     id="path837" /><path
     d="m -257.36887,672.14996 h -1.41224 v -0.89869 q -0.1888,0.12838 -0.51354,0.3625 -0.31719,0.22656 -0.61927,0.3625 -0.35495,0.17369 -0.81563,0.28697 -0.46067,0.12084 -1.07994,0.12084 -1.14037,0 -1.93334,-0.75521 -0.79297,-0.75521 -0.79297,-1.92578 0,-0.95912 0.40782,-1.54818 0.41536,-0.59661 1.17812,-0.93646 0.77031,-0.33984 1.85026,-0.46067 1.07995,-0.12084 2.31849,-0.18125 v -0.21901 q 0,-0.48334 -0.1737,-0.80053 -0.16614,-0.31718 -0.48333,-0.49843 -0.30208,-0.1737 -0.725,-0.23412 -0.42292,-0.0604 -0.88359,-0.0604 -0.55886,0 -1.2461,0.15104 -0.68724,0.14349 -1.41979,0.42291 h -0.0755 v -1.44244 q 0.41536,-0.11329 1.20078,-0.24922 0.78542,-0.13594 1.54818,-0.13594 0.89114,0 1.54818,0.15104 0.66458,0.14349 1.14791,0.49844 0.47578,0.34739 0.725,0.8987 0.24922,0.5513 0.24922,1.36692 z m -1.41224,-2.07682 v -2.3487 q -0.64948,0.0378 -1.53307,0.11328 -0.87604,0.0755 -1.38959,0.21901 -0.61171,0.1737 -0.98932,0.54375 -0.3776,0.3625 -0.3776,1.00443 0,0.725 0.43802,1.09505 0.43802,0.3625 1.33672,0.3625 0.74765,0 1.36692,-0.28698 0.61928,-0.29453 1.14792,-0.70234 z"
     style=""
     id="path839" /><path
     d="m -247.65689,669.59736 q 0,0.61172 -0.24922,1.0875 -0.24167,0.47578 -0.67214,0.79297 -0.48333,0.35495 -1.05729,0.51354 -0.5664,0.15859 -1.49531,0.15859 h -3.48906 v -8.43567 h 3.2625 q 0.94401,0 1.41979,0.068 0.48333,0.0604 0.90625,0.27943 0.47578,0.24922 0.69479,0.64948 0.22656,0.40026 0.22656,0.94401 0,0.62682 -0.35494,1.0875 -0.35495,0.46068 -0.91381,0.71745 v 0.0755 q 0.74766,0.18125 1.23099,0.70234 0.49089,0.51355 0.49089,1.35938 z m -1.91068,-3.72318 q 0,-0.27187 -0.12083,-0.49088 -0.11328,-0.21901 -0.35495,-0.33985 -0.31719,-0.15859 -0.71745,-0.1737 -0.39271,-0.0226 -0.97422,-0.0226 h -1.48021 v 2.31094 h 1.77474 q 0.55886,0 0.82318,-0.0378 0.27188,-0.0453 0.54375,-0.21146 0.28698,-0.18125 0.39271,-0.42292 0.11328,-0.24922 0.11328,-0.61172 z m 0.44557,3.73073 q 0,-0.41536 -0.13593,-0.67213 -0.13594,-0.26433 -0.59662,-0.48334 -0.28698,-0.13594 -0.61927,-0.15859 -0.33229,-0.0302 -0.92135,-0.0302 h -1.82006 v 2.75651 h 1.34428 q 0.84583,0 1.29895,-0.0529 0.46068,-0.0604 0.79297,-0.24922 0.33229,-0.1888 0.49089,-0.46068 0.16614,-0.27187 0.16614,-0.64948 z"
     style=""
     id="path841" /><path
     d="m -238.29986,672.14996 h -1.40469 v -6.33619 l -4.41797,6.33619 h -1.28385 v -8.43567 h 1.40469 v 6.24557 l 4.37265,-6.24557 h 1.32917 z"
     style=""
     id="path843" /><path
     d="m -229.29778,664.96038 h -3.05104 v 7.18958 h -1.41979 v -7.18958 h -3.05104 v -1.24609 h 7.52187 z"
     style=""
     id="path845" /><path
     d="m -220.76392,668.07939 h -6.21536 q 0,0.77786 0.23411,1.35938 0.23412,0.57395 0.64193,0.94401 0.39271,0.3625 0.9289,0.54375 0.54375,0.18125 1.19323,0.18125 0.86094,0 1.72943,-0.33985 0.87604,-0.34739 1.24609,-0.67969 h 0.0755 v 1.54818 q -0.71745,0.30209 -1.46511,0.50599 -0.74765,0.20391 -1.57083,0.20391 -2.09948,0 -3.27761,-1.13281 -1.17812,-1.14037 -1.17812,-3.2323 0,-2.06927 1.12526,-3.28515 1.13281,-1.21589 2.97552,-1.21589 1.70677,0 2.62813,0.99688 0.9289,0.99687 0.9289,2.83203 z m -1.38203,-1.0875 q -0.008,-1.11771 -0.56641,-1.72943 -0.5513,-0.61172 -1.68411,-0.61172 -1.14037,0 -1.82005,0.67214 -0.67214,0.67214 -0.76276,1.66901 z"
     style=""
     id="path847" /><path
     d="m -306.84257,691.63286 h -1.40469 v -6.3362 l -4.41797,6.3362 h -1.28385 v -8.43568 h 1.40469 v 6.24557 l 4.37265,-6.24557 h 1.32917 z"
     style=""
     id="path849" /><path
     d="m -298.17278,689.26905 q 0,0.7099 -0.33229,1.20078 -0.32474,0.49089 -0.83828,0.79297 -0.51354,0.29453 -1.13281,0.43047 -0.61927,0.13594 -1.23854,0.13594 -0.87605,0 -1.66902,-0.16615 -0.79296,-0.16614 -1.56328,-0.51354 v -1.55573 h 0.0982 q 0.5513,0.48334 1.40469,0.74766 0.85338,0.26432 1.6539,0.26432 0.37761,0 0.77787,-0.068 0.40026,-0.0755 0.69479,-0.23411 0.31719,-0.18125 0.50599,-0.43047 0.1888,-0.25677 0.1888,-0.69479 0,-0.45313 -0.1888,-0.725 -0.18125,-0.27188 -0.49844,-0.40781 -0.30963,-0.13594 -0.74765,-0.16615 -0.43802,-0.0302 -0.80052,-0.0302 h -1.23099 v -1.22344 h 0.85338 q 0.30208,0 0.78542,-0.0226 0.49088,-0.0227 0.79297,-0.12084 0.39271,-0.12838 0.61927,-0.3625 0.23411,-0.23411 0.23411,-0.74765 0,-0.35495 -0.18125,-0.58151 -0.18125,-0.23412 -0.45312,-0.3625 -0.27943,-0.12839 -0.62683,-0.1737 -0.33984,-0.0453 -0.60416,-0.0453 -0.77031,0 -1.51797,0.21146 -0.74011,0.2039 -1.24609,0.59661 h -0.0982 v -1.56328 q 0.62682,-0.20391 1.34427,-0.33229 0.71745,-0.12839 1.43489,-0.12839 0.58907,0 1.17058,0.10573 0.58906,0.10573 1.09505,0.3625 0.49844,0.25677 0.81563,0.70234 0.31718,0.43803 0.31718,1.0875 0,0.66459 -0.41536,1.17058 -0.40781,0.49843 -1.10261,0.71745 v 0.0529 q 0.77787,0.1888 1.23855,0.7099 0.46067,0.51354 0.46067,1.36692 z"
     style=""
     id="path851" /><path
     d="m -288.95168,689.08025 q 0,0.61172 -0.24922,1.0875 -0.24167,0.47578 -0.67214,0.79297 -0.48333,0.35495 -1.05729,0.51354 -0.56641,0.1586 -1.49531,0.1586 h -3.48906 v -8.43568 h 3.2625 q 0.94401,0 1.41979,0.068 0.48333,0.0604 0.90625,0.27942 0.47578,0.24922 0.69479,0.64948 0.22656,0.40026 0.22656,0.94401 0,0.62683 -0.35495,1.0875 -0.35494,0.46068 -0.9138,0.71745 v 0.0755 q 0.74766,0.18125 1.23099,0.70235 0.49089,0.51354 0.49089,1.35937 z m -1.91068,-3.72318 q 0,-0.27187 -0.12083,-0.49088 -0.11328,-0.21901 -0.35495,-0.33985 -0.31719,-0.15859 -0.71745,-0.17369 -0.39271,-0.0227 -0.97422,-0.0227 h -1.48021 v 2.31094 h 1.77474 q 0.55886,0 0.82318,-0.0378 0.27188,-0.0453 0.54375,-0.21146 0.28698,-0.18125 0.39271,-0.42292 0.11328,-0.24922 0.11328,-0.61172 z m 0.44557,3.73073 q 0,-0.41536 -0.13593,-0.67213 -0.13594,-0.26433 -0.59662,-0.48334 -0.28698,-0.13593 -0.61927,-0.15859 -0.33229,-0.0302 -0.92135,-0.0302 h -1.82006 v 2.75651 h 1.34427 q 0.84584,0 1.29896,-0.0529 0.46068,-0.0604 0.79297,-0.24922 0.33229,-0.1888 0.49089,-0.46068 0.16614,-0.27187 0.16614,-0.64948 z"
     style=""
     id="path853" /><path
     d="m -279.63996,687.56228 h -6.21537 q 0,0.77787 0.23412,1.35938 0.23411,0.57396 0.64192,0.94401 0.39271,0.3625 0.92891,0.54375 0.54375,0.18125 1.19323,0.18125 0.86094,0 1.72942,-0.33985 0.87605,-0.34739 1.2461,-0.67968 h 0.0755 v 1.54817 q -0.71745,0.30209 -1.4651,0.50599 -0.74766,0.20391 -1.57084,0.20391 -2.09948,0 -3.2776,-1.13281 -1.17813,-1.14037 -1.17813,-3.2323 0,-2.06927 1.12526,-3.28515 1.13282,-1.21589 2.97552,-1.21589 1.70677,0 2.62813,0.99688 0.92891,0.99687 0.92891,2.83203 z m -1.38204,-1.0875 q -0.008,-1.11771 -0.5664,-1.72943 -0.5513,-0.61171 -1.68412,-0.61171 -1.14036,0 -1.82005,0.67213 -0.67213,0.67214 -0.76276,1.66901 z"
     style=""
     id="path855" /><path
     d="m -266.73345,691.63286 h -10.75417 v -8.43568 h 1.41979 v 7.21224 h 3.2474 v -7.21224 h 1.41979 v 7.21224 h 3.2474 v -7.21224 h 1.41979 z"
     style=""
     id="path857" /><path
     d="m -257.72382,684.44327 h -3.05104 v 7.18959 h -1.41979 v -7.18959 h -3.05104 v -1.24609 h 7.52187 z"
     style=""
     id="path859" /><path
     d="m -249.69595,691.63286 h -1.41224 v -0.8987 q -0.18881,0.12838 -0.51354,0.3625 -0.31719,0.22656 -0.61928,0.3625 -0.35494,0.1737 -0.81562,0.28698 -0.46068,0.12083 -1.07995,0.12083 -1.14036,0 -1.93333,-0.75521 -0.79297,-0.75521 -0.79297,-1.92578 0,-0.95911 0.40781,-1.54818 0.41537,-0.59661 1.17813,-0.93646 0.77031,-0.33984 1.85026,-0.46067 1.07995,-0.12084 2.31849,-0.18125 v -0.21901 q 0,-0.48334 -0.1737,-0.80052 -0.16615,-0.31719 -0.48333,-0.49844 -0.30209,-0.1737 -0.725,-0.23412 -0.42292,-0.0604 -0.8836,-0.0604 -0.55885,0 -1.24609,0.15104 -0.68724,0.14349 -1.41979,0.42292 h -0.0755 v -1.44245 q 0.41536,-0.11328 1.20078,-0.24922 0.78541,-0.13594 1.54817,-0.13594 0.89115,0 1.54818,0.15104 0.66458,0.14349 1.14792,0.49844 0.47578,0.3474 0.725,0.8987 0.24922,0.5513 0.24922,1.36693 z m -1.41224,-2.07683 v -2.3487 q -0.64948,0.0378 -1.53308,0.11329 -0.87604,0.0755 -1.38958,0.21901 -0.61172,0.17369 -0.98932,0.54375 -0.37761,0.3625 -0.37761,1.00442 0,0.725 0.43802,1.09506 0.43802,0.3625 1.33672,0.3625 0.74766,0 1.36693,-0.28698 0.61927,-0.29454 1.14792,-0.70235 z"
     style=""
     id="path861" /><path
     d="m -239.98398,689.08025 q 0,0.61172 -0.24921,1.0875 -0.24167,0.47578 -0.67214,0.79297 -0.48333,0.35495 -1.05729,0.51354 -0.56641,0.1586 -1.49531,0.1586 h -3.48907 v -8.43568 h 3.2625 q 0.94401,0 1.41979,0.068 0.48334,0.0604 0.90625,0.27942 0.47579,0.24922 0.6948,0.64948 0.22656,0.40026 0.22656,0.94401 0,0.62683 -0.35495,1.0875 -0.35495,0.46068 -0.9138,0.71745 v 0.0755 q 0.74765,0.18125 1.23099,0.70235 0.49088,0.51354 0.49088,1.35937 z m -1.91067,-3.72318 q 0,-0.27187 -0.12084,-0.49088 -0.11328,-0.21901 -0.35494,-0.33985 -0.31719,-0.15859 -0.71745,-0.17369 -0.39271,-0.0227 -0.97422,-0.0227 h -1.48021 v 2.31094 h 1.77474 q 0.55885,0 0.82318,-0.0378 0.27187,-0.0453 0.54375,-0.21146 0.28698,-0.18125 0.39271,-0.42292 0.11328,-0.24922 0.11328,-0.61172 z m 0.44557,3.73073 q 0,-0.41536 -0.13594,-0.67213 -0.13594,-0.26433 -0.59661,-0.48334 -0.28698,-0.13593 -0.61927,-0.15859 -0.3323,-0.0302 -0.92136,-0.0302 h -1.82005 v 2.75651 h 1.34427 q 0.84583,0 1.29896,-0.0529 0.46068,-0.0604 0.79297,-0.24922 0.33229,-0.1888 0.49088,-0.46068 0.16615,-0.27187 0.16615,-0.64948 z"
     style=""
     id="path863" /><path
     d="m -231.17824,691.63286 h -1.41224 v -0.8987 q -0.1888,0.12838 -0.51354,0.3625 -0.31719,0.22656 -0.61927,0.3625 -0.35495,0.1737 -0.81563,0.28698 -0.46068,0.12083 -1.07995,0.12083 -1.14036,0 -1.93333,-0.75521 -0.79297,-0.75521 -0.79297,-1.92578 0,-0.95911 0.40781,-1.54818 0.41537,-0.59661 1.17813,-0.93646 0.77031,-0.33984 1.85026,-0.46067 1.07995,-0.12084 2.31849,-0.18125 v -0.21901 q 0,-0.48334 -0.1737,-0.80052 -0.16615,-0.31719 -0.48333,-0.49844 -0.30209,-0.1737 -0.725,-0.23412 -0.42292,-0.0604 -0.8836,-0.0604 -0.55885,0 -1.24609,0.15104 -0.68724,0.14349 -1.41979,0.42292 h -0.0755 v -1.44245 q 0.41536,-0.11328 1.20078,-0.24922 0.78541,-0.13594 1.54818,-0.13594 0.89114,0 1.54817,0.15104 0.66459,0.14349 1.14792,0.49844 0.47578,0.3474 0.725,0.8987 0.24922,0.5513 0.24922,1.36693 z m -1.41224,-2.07683 v -2.3487 q -0.64948,0.0378 -1.53307,0.11329 -0.87605,0.0755 -1.38959,0.21901 -0.61172,0.17369 -0.98932,0.54375 -0.37761,0.3625 -0.37761,1.00442 0,0.725 0.43803,1.09506 0.43802,0.3625 1.33671,0.3625 0.74766,0 1.36693,-0.28698 0.61927,-0.29454 1.14792,-0.70235 z"
     style=""
     id="path865" /><path
     d="m -217.84881,689.04249 q 0,-0.38516 -0.13594,-0.67213 -0.12839,-0.29454 -0.43047,-0.47579 -0.31719,-0.1888 -0.725,-0.22656 -0.40026,-0.0378 -1.15547,-0.0378 h -1.32916 v 2.86979 h 1.29895 q 0.75521,0 1.17058,-0.0604 0.41536,-0.068 0.71744,-0.24922 0.30964,-0.19636 0.44558,-0.46068 0.14349,-0.27187 0.14349,-0.68724 z m 1.4651,-0.0227 q 0,0.61172 -0.24922,1.11016 -0.24166,0.49844 -0.66458,0.80807 -0.49844,0.37761 -1.06484,0.5362 -0.56641,0.1586 -1.45756,0.1586 h -3.22474 v -3.98751 h -3.96484 v 3.98751 h -1.41979 v -8.43568 h 1.41979 v 3.28515 h 3.96484 v -3.28515 h 1.4198 v 3.28515 h 1.8427 q 0.95157,0 1.47266,0.0982 0.52865,0.0982 1.04974,0.48333 0.43802,0.32474 0.65703,0.83073 0.21901,0.50599 0.21901,1.12526 z"
     style=""
     id="path867" /><path
     d="m -207.23059,687.56228 h -6.21536 q 0,0.77787 0.23411,1.35938 0.23412,0.57396 0.64193,0.94401 0.39271,0.3625 0.92891,0.54375 0.54375,0.18125 1.19323,0.18125 0.86093,0 1.72942,-0.33985 0.87604,-0.34739 1.2461,-0.67968 h 0.0755 v 1.54817 q -0.71745,0.30209 -1.46511,0.50599 -0.74765,0.20391 -1.57083,0.20391 -2.09948,0 -3.2776,-1.13281 -1.17813,-1.14037 -1.17813,-3.2323 0,-2.06927 1.12526,-3.28515 1.13281,-1.21589 2.97552,-1.21589 1.70677,0 2.62813,0.99688 0.9289,0.99687 0.9289,2.83203 z m -1.38203,-1.0875 q -0.008,-1.11771 -0.5664,-1.72943 -0.55131,-0.61171 -1.68412,-0.61171 -1.14036,0 -1.82005,0.67213 -0.67214,0.67214 -0.76276,1.66901 z"
     style=""
     id="path869" /></g>




</svg>