<?xml version="1.0" encoding="UTF-8" standalone="no"?>
<!-- Generator: Adobe Illustrator 19.1.0, SVG Export Plug-In . SVG Version: 6.00 Build 0)  -->

<svg
   xmlns:dc="http://purl.org/dc/elements/1.1/"
   xmlns:cc="http://creativecommons.org/ns#"
   xmlns:rdf="http://www.w3.org/1999/02/22-rdf-syntax-ns#"
   xmlns:svg="http://www.w3.org/2000/svg"
   xmlns="http://www.w3.org/2000/svg"
   xmlns:sodipodi="http://sodipodi.sourceforge.net/DTD/sodipodi-0.dtd"
   xmlns:inkscape="http://www.inkscape.org/namespaces/inkscape"
   version="1.1"
   id="Calque_1"
   x="0px"
   y="0px"
   viewBox="-330 571.3 138.60001 138.60001"
   xml:space="preserve"
   sodipodi:docname="main_menu_logo_links-ro.svg"
   inkscape:version="0.92.4 (5da689c313, 2019-01-14)"
   width="138.60001"
   height="138.60001"><metadata
   id="metadata31"><rdf:RDF><cc:Work
       rdf:about=""><dc:format>image/svg+xml</dc:format><dc:type
         rdf:resource="http://purl.org/dc/dcmitype/StillImage" /><dc:title></dc:title></cc:Work></rdf:RDF></metadata><defs
   id="defs29" /><sodipodi:namedview
   pagecolor="#ffffff"
   bordercolor="#666666"
   borderopacity="1"
   objecttolerance="10"
   gridtolerance="10"
   guidetolerance="10"
   inkscape:pageopacity="0"
   inkscape:pageshadow="2"
   inkscape:window-width="1920"
   inkscape:window-height="1017"
   id="namedview27"
   showgrid="false"
   inkscape:zoom="4"
   inkscape:cx="3.6754436"
   inkscape:cy="61.339834"
   inkscape:window-x="1912"
   inkscape:window-y="-8"
   inkscape:window-maximized="1"
   inkscape:current-layer="Calque_1"
   fit-margin-top="0"
   fit-margin-left="0"
   fit-margin-right="0"
   fit-margin-bottom="0" /><style
   type="text/css"
   id="style2">
	.st0{fill:#40637D;}
	.st1{fill:#FFFFFF;}
</style><g
   id="g6"
   transform="translate(-0.0962648,-0.1)"><path
     class="st0"
     d="m -330,640.7 c 0,-38.3 31,-69.3 69.3,-69.3 38.3,0 69.3,31 69.3,69.3 0,38.3 -31,69.3 -69.3,69.3 -38.3,0 -69.3,-31 -69.3,-69.3"
     id="path4"
     inkscape:connector-curvature="0"
     style="fill:#40637d" /></g><g
   id="g24"
   transform="translate(-0.1400523,-6.09999)"><g
     id="g22"><path
       class="st1"
       d="m -235.3,620.9 -11.3,11.3 c -6.2,6.2 -16.3,6.2 -22.5,0 -1,-1 -1.7,-2.1 -2.4,-3.2 l 5.2,-5.2 c 0.2,-0.3 0.6,-0.4 0.8,-0.6 0.4,1.2 1,2.4 2,3.4 3.1,3.1 8.2,3.1 11.3,0 l 11.3,-11.3 c 3.1,-3.1 3.1,-8.2 0,-11.3 -3.1,-3.1 -8.2,-3.1 -11.3,0 l -4,4 c -3.2,-1.3 -6.7,-1.6 -10.2,-1.1 l 8.5,-8.5 c 6.2,-6.2 16.3,-6.2 22.5,0 6.3,6.2 6.3,16.3 0.1,22.5 m -29.8,18.6 -4,4 c -3.1,3.1 -8.2,3.1 -11.3,0 -3.1,-3.1 -3.1,-8.2 0,-11.3 l 11.3,-11.3 c 3.1,-3.1 8.2,-3.1 11.3,0 1,1 1.6,2.1 2,3.4 0.3,-0.2 0.6,-0.3 0.8,-0.6 l 5.2,-5.2 c -0.7,-1.1 -1.4,-2.2 -2.4,-3.2 -6.2,-6.2 -16.3,-6.2 -22.5,0 l -11.3,11.3 c -6.2,6.2 -6.2,16.3 0,22.5 6.2,6.2 16.3,6.2 22.5,0 l 8.5,-8.5 c -3.4,0.5 -6.9,0.1 -10.1,-1.1"
       id="path20"
       inkscape:connector-curvature="0"
       style="fill:#ffffff" /></g></g><g
   aria-label="Parteneri 
și Link-uri"
   style="font-style:normal;font-variant:normal;font-weight:normal;font-stretch:normal;font-size:15.92933273px;line-height:1.25;font-family:KonsensMedium;-inkscape-font-specification:'KonsensMedium, Normal';font-variant-ligatures:normal;font-variant-caps:normal;font-variant-numeric:normal;font-feature-settings:normal;text-align:center;letter-spacing:0px;word-spacing:0px;writing-mode:lr-tb;text-anchor:middle;fill:#ffffff;fill-opacity:1;stroke:none"
   id="text35"><path
     d="m -292.02093,669.09814 h -1.7363 v -11.85142 h 4.85845 q 1.56107,0 2.59648,0.95576 1.03541,0.93983 1.03541,2.62834 0,1.67258 -1.11506,2.67613 -1.11505,0.98762 -2.62834,0.98762 h -3.01064 z m 0,-6.11686 h 2.91507 q 0.93983,0 1.51328,-0.57346 0.58939,-0.58938 0.58939,-1.577 0,-1.00355 -0.5416,-1.52922 -0.5416,-0.54159 -1.48143,-0.54159 h -2.99471 z"
     style=""
     id="path852" /><path
     d="m -278.50141,666.6291 v -1.06727 h -2.50091 q -1.59293,0 -1.59293,1.21063 0,0.49381 0.28673,0.78054 0.28673,0.2708 0.81239,0.2708 0.78054,0 1.6248,-0.46195 z m 1.59293,2.46904 h -1.59293 v -1.08319 l -0.9239,0.50974 q -1.24249,0.66903 -2.34161,0.66903 -1.09913,0 -1.78409,-0.6531 -0.66903,-0.6531 -0.66903,-1.70444 0,-1.22656 0.84425,-1.87966 0.86019,-0.6531 2.19825,-0.6531 h 2.69206 v -0.52567 q 0,-1.83188 -1.92745,-1.83188 -2.03896,0 -2.03896,1.64073 h -1.577 v -0.0797 q 0,-1.36992 0.98762,-2.15046 1.00355,-0.78054 2.61241,-0.78054 1.65665,0 2.58055,0.82833 0.93983,0.81239 0.93983,2.29382 z"
     style=""
     id="path854" /><path
     d="m -273.14044,669.09814 h -1.62479 v -8.37882 h 1.59293 v 1.27434 l 0.3823,-0.3823 q 1.00355,-0.9239 2.18232,-0.9239 h 0.4301 v 1.65665 h -0.41417 q -1.08319,0 -1.8478,0.63717 l -0.70089,0.57346 z"
     style=""
     id="path856" /><path
     d="m -264.10851,669.09814 h -1.05134 q -1.43364,0 -2.26196,-0.73274 -0.82833,-0.73275 -0.82833,-2.13454 v -4.10976 h -1.33806 v -1.40178 h 1.35399 v -2.26197 h 1.6248 v 2.26197 h 2.43718 v 1.40178 h -2.43718 v 4.03012 q 0,0.82832 0.36637,1.17877 0.3823,0.33451 1.17877,0.33451 h 0.95576 z"
     style=""
     id="path858" /><path
     d="m -255.75084,666.43795 v 0.0796 q 0,1.22656 -0.97169,1.97524 -0.97169,0.74868 -2.59648,0.74868 -1.62479,0 -2.64427,-0.84426 -1.01948,-0.86018 -1.01948,-2.34161 v -2.00709 q 0,-1.56108 1.01948,-2.50091 1.01948,-0.93983 2.62834,-0.93983 1.60886,0 2.61241,0.93983 1.00355,0.9239 1.00355,2.51684 v 1.41771 h -5.71863 v 0.47788 q 0,0.93983 0.57346,1.43364 0.58938,0.47788 1.54514,0.47788 2.02303,0 2.02303,-1.43364 z m -1.49736,-2.15046 v -0.25487 q 0,-0.98762 -0.55752,-1.51329 -0.5416,-0.5416 -1.52922,-0.5416 -0.98762,0 -1.54514,0.5416 -0.55753,0.5416 -0.55753,1.52922 v 0.23894 z"
     style=""
     id="path860" /><path
     d="m -246.55165,669.09814 h -1.62479 v -5.59119 q 0,-0.60532 -0.33452,-0.98762 -0.31858,-0.39823 -0.90797,-0.39823 -0.54159,0 -1.25841,0.41416 l -1.36993,0.8124 v 5.75048 h -1.59293 v -8.37882 h 1.577 v 1.09912 l 0.95576,-0.58939 q 0.93983,-0.58938 1.99117,-0.58938 1.17877,0 1.86373,0.73275 0.70089,0.73275 0.70089,1.94338 z"
     style=""
     id="path862" /><path
     d="m -237.32881,666.43795 v 0.0796 q 0,1.22656 -0.97169,1.97524 -0.97169,0.74868 -2.59648,0.74868 -1.62479,0 -2.64427,-0.84426 -1.01948,-0.86018 -1.01948,-2.34161 v -2.00709 q 0,-1.56108 1.01948,-2.50091 1.01948,-0.93983 2.62834,-0.93983 1.60886,0 2.61241,0.93983 1.00355,0.9239 1.00355,2.51684 v 1.41771 h -5.71863 v 0.47788 q 0,0.93983 0.57345,1.43364 0.58939,0.47788 1.54515,0.47788 2.02302,0 2.02302,-1.43364 z m -1.49736,-2.15046 v -0.25487 q 0,-0.98762 -0.55753,-1.51329 -0.54159,-0.5416 -1.52921,-0.5416 -0.98762,0 -1.54515,0.5416 -0.55752,0.5416 -0.55752,1.52922 v 0.23894 z"
     style=""
     id="path864" /><path
     d="m -233.59712,669.09814 h -1.62479 v -8.37882 h 1.59294 v 1.27434 l 0.3823,-0.3823 q 1.00355,-0.9239 2.18232,-0.9239 h 0.43009 v 1.65665 h -0.41416 q -1.0832,0 -1.8478,0.63717 l -0.7009,0.57346 z"
     style=""
     id="path866" /><path
     d="m -227.57583,669.09814 h -1.64072 v -8.37882 h 1.64072 z m 0.1115,-11.11867 v 0.33452 q 0,0.36637 -0.2708,0.58938 -0.25486,0.22301 -0.6531,0.22301 -0.43009,0 -0.68496,-0.20708 -0.25487,-0.22301 -0.25487,-0.60531 v -0.33452 q 0,-0.3823 0.25487,-0.58939 0.25487,-0.22301 0.68496,-0.22301 0.39824,0 0.6531,0.22301 0.2708,0.22302 0.2708,0.58939 z"
     style=""
     id="path868" /><path
     d="m -289.99809,686.5053 q 0,1.19003 -0.98781,1.95227 -0.98002,0.76225 -2.68341,0.76225 -0.96447,0 -1.77338,-0.22557 -0.80113,-0.23334 -1.34559,-0.50557 v -1.64115 h 0.0778 q 0.69224,0.52112 1.54004,0.83224 0.8478,0.30335 1.6256,0.30335 0.96447,0 1.50893,-0.31112 0.54446,-0.31112 0.54446,-0.98003 0,-0.51335 -0.29556,-0.7778 -0.29556,-0.26445 -1.13559,-0.45113 -0.31112,-0.07 -0.81669,-0.16333 -0.49779,-0.0933 -0.91002,-0.20223 -1.14337,-0.30334 -1.6256,-0.88669 -0.47446,-0.59113 -0.47446,-1.44671 0,-0.53668 0.21778,-1.01114 0.22556,-0.47446 0.67669,-0.8478 0.43557,-0.36557 1.10447,-0.57557 0.67669,-0.21779 1.50893,-0.21779 0.7778,0 1.57116,0.19445 0.80113,0.18668 1.33004,0.45891 v 1.56337 h -0.0778 q -0.56002,-0.41223 -1.36115,-0.69224 -0.80114,-0.28778 -1.57116,-0.28778 -0.80113,0 -1.35337,0.31112 -0.55224,0.30334 -0.55224,0.91002 0,0.53668 0.33446,0.80891 0.32667,0.27223 1.0578,0.44335 0.40446,0.0933 0.90225,0.18667 0.50557,0.0933 0.84003,0.17112 1.01891,0.23334 1.57115,0.80113 0.55224,0.57557 0.55224,1.52449 z m -2.45007,3.39898 -1.36115,2.39562 h -1.13559 l 0.7778,-2.39562 z"
     style=""
     id="path870" /><path
     d="m -286.51747,689.00981 h -1.64072 v -8.37883 h 1.64072 z m 0.1115,-11.11867 v 0.33451 q 0,0.36638 -0.27079,0.58939 -0.25487,0.22301 -0.65311,0.22301 -0.43009,0 -0.68496,-0.20708 -0.25487,-0.22301 -0.25487,-0.60532 v -0.33451 q 0,-0.38231 0.25487,-0.58939 0.25487,-0.22301 0.68496,-0.22301 0.39824,0 0.65311,0.22301 0.27079,0.22301 0.27079,0.58939 z"
     style=""
     id="path872" /><path
     d="m -272.10118,689.00981 h -7.39121 v -11.85142 h 1.76816 v 10.29035 h 5.62305 z"
     style=""
     id="path874" /><path
     d="m -268.62808,689.00981 h -1.64072 v -8.37883 h 1.64072 z m 0.1115,-11.11867 v 0.33451 q 0,0.36638 -0.2708,0.58939 -0.25487,0.22301 -0.6531,0.22301 -0.43009,0 -0.68496,-0.20708 -0.25487,-0.22301 -0.25487,-0.60532 v -0.33451 q 0,-0.38231 0.25487,-0.58939 0.25487,-0.22301 0.68496,-0.22301 0.39823,0 0.6531,0.22301 0.2708,0.22301 0.2708,0.58939 z"
     style=""
     id="path876" /><path
     d="m -259.19867,689.00981 h -1.62479 v -5.5912 q 0,-0.60531 -0.33451,-0.98761 -0.31859,-0.39824 -0.90798,-0.39824 -0.54159,0 -1.25841,0.41417 l -1.36993,0.81239 v 5.75049 h -1.59293 v -8.37883 h 1.57701 v 1.09913 l 0.95576,-0.58939 q 0.93983,-0.58939 1.99116,-0.58939 1.17877,0 1.86373,0.73275 0.70089,0.73275 0.70089,1.94338 z"
     style=""
     id="path878" /><path
     d="m -249.35459,689.00981 h -1.8478 l -2.3894,-4.22127 -1.80001,1.87966 v 2.34161 h -1.59294 v -11.85142 h 1.59294 v 7.5505 l 3.75932,-4.07791 h 2.1186 l -2.88321,2.99472 z"
     style=""
     id="path880" /><path
     d="m -243.88137,685.10712 h -4.63544 v -1.48142 h 4.63544 z"
     style=""
     id="path882" /><path
     d="m -234.85541,689.00981 h -1.577 v -1.09912 l -0.95576,0.58938 q -1.00355,0.60532 -1.99117,0.58939 -1.17877,0 -1.87966,-0.71682 -0.68496,-0.73275 -0.68496,-1.94338 v -5.79828 h 1.62479 v 5.60713 q 0,0.62124 0.33452,1.00354 0.33451,0.36638 0.90797,0.36638 0.5416,0 1.25842,-0.41416 l 1.36992,-0.8124 v -5.75049 h 1.59293 z"
     style=""
     id="path884" /><path
     d="m -230.93704,689.00981 h -1.62479 v -8.37883 h 1.59293 v 1.27435 l 0.3823,-0.38231 q 1.00355,-0.9239 2.18232,-0.9239 h 0.43009 v 1.65665 h -0.41416 q -1.08319,0 -1.8478,0.63718 l -0.70089,0.57345 z"
     style=""
     id="path886" /><path
     d="m -224.91575,689.00981 h -1.64072 v -8.37883 h 1.64072 z m 0.1115,-11.11867 v 0.33451 q 0,0.36638 -0.2708,0.58939 -0.25487,0.22301 -0.6531,0.22301 -0.43009,0 -0.68496,-0.20708 -0.25487,-0.22301 -0.25487,-0.60532 v -0.33451 q 0,-0.38231 0.25487,-0.58939 0.25487,-0.22301 0.68496,-0.22301 0.39823,0 0.6531,0.22301 0.2708,0.22301 0.2708,0.58939 z"
     style=""
     id="path888" /></g>

</svg>