<?xml version="1.0" encoding="utf-8"?>
<!-- Generator: Adobe Illustrator 16.0.0, SVG Export Plug-In . SVG Version: 6.00 Build 0)  -->
<!DOCTYPE svg PUBLIC "-//W3C//DTD SVG 1.1//EN" "http://www.w3.org/Graphics/SVG/1.1/DTD/svg11.dtd">
<svg version="1.1" id="Calque_1" xmlns="http://www.w3.org/2000/svg" xmlns:xlink="http://www.w3.org/1999/xlink" x="0px" y="0px"
	 width="24.756px" height="24.756px" viewBox="0 0 24.756 24.756" enable-background="new 0 0 24.756 24.756" xml:space="preserve">
<path fill="#65A380" d="M2.938,17.144c3.322,3.323,8.264,3.826,12.123,1.511c0,0,0.279-0.166,0.514,0.069l5.114,5.114
	c1.021,1.02,2.447,1.263,3.351,0.357l0.156-0.155c0.905-0.904,0.662-2.33-0.357-3.351l-5.125-5.125
	c-0.225-0.225-0.059-0.504-0.059-0.504c2.315-3.859,1.811-8.801-1.511-12.124c-3.917-3.916-10.29-3.916-14.206,0
	C-0.979,6.854-0.979,13.227,2.938,17.144 M15.289,15.289c-2.895,2.894-7.604,2.894-10.498,0c-2.893-2.894-2.893-7.604,0-10.497
	c2.894-2.893,7.603-2.893,10.498,0C18.183,7.686,18.183,12.395,15.289,15.289"/>
<path fill="#65A380" d="M14.647,9.444c-0.403,0-0.788-0.237-0.954-0.633c-0.958-2.261-3.576-3.323-5.838-2.365
	C7.329,6.668,6.721,6.422,6.497,5.895C6.273,5.367,6.521,4.759,7.048,4.536c3.315-1.403,7.151,0.153,8.554,3.467
	c0.225,0.527-0.023,1.136-0.551,1.359C14.918,9.418,14.783,9.444,14.647,9.444"/>
</svg>
