<?xml version="1.0" encoding="UTF-8" standalone="no"?>
<!-- Generator: Adobe Illustrator 19.1.0, SVG Export Plug-In . SVG Version: 6.00 Build 0)  -->

<svg
   xmlns:dc="http://purl.org/dc/elements/1.1/"
   xmlns:cc="http://creativecommons.org/ns#"
   xmlns:rdf="http://www.w3.org/1999/02/22-rdf-syntax-ns#"
   xmlns:svg="http://www.w3.org/2000/svg"
   xmlns="http://www.w3.org/2000/svg"
   xmlns:sodipodi="http://sodipodi.sourceforge.net/DTD/sodipodi-0.dtd"
   xmlns:inkscape="http://www.inkscape.org/namespaces/inkscape"
   version="1.1"
   id="Calque_1"
   x="0px"
   y="0px"
   viewBox="-330 571.3 138.7 138.7"
   style="enable-background:new -330 571.3 138.7 138.7;"
   xml:space="preserve"
   sodipodi:docname="main_menu_logo_invasive_species-bg.svg"
   inkscape:version="0.92.4 (5da689c313, 2019-01-14)"><metadata
   id="metadata93"><rdf:RDF><cc:Work
       rdf:about=""><dc:format>image/svg+xml</dc:format><dc:type
         rdf:resource="http://purl.org/dc/dcmitype/StillImage" /><dc:title /></cc:Work></rdf:RDF></metadata><defs
   id="defs91" /><sodipodi:namedview
   pagecolor="#ffffff"
   bordercolor="#666666"
   borderopacity="1"
   objecttolerance="10"
   gridtolerance="10"
   guidetolerance="10"
   inkscape:pageopacity="0"
   inkscape:pageshadow="2"
   inkscape:window-width="1920"
   inkscape:window-height="1017"
   id="namedview89"
   showgrid="false"
   inkscape:zoom="5"
   inkscape:cx="22.03331"
   inkscape:cy="69.349998"
   inkscape:window-x="-8"
   inkscape:window-y="-8"
   inkscape:window-maximized="1"
   inkscape:current-layer="text97" /><style
   type="text/css"
   id="style2">
	.st0{fill:#559973;}
	.st1{fill:#FFFFFF;}
</style><g
   id="g6"><path
     class="st0"
     d="M-330,640.7c0-38.3,31-69.3,69.3-69.3c38.3,0,69.3,31,69.3,69.3s-31,69.3-69.3,69.3   C-299,710-330,679-330,640.7"
     id="path4" /></g><g
   id="g86"><g
     id="g44"><path
       class="st1"
       d="M-246.8,607.9c-6.1-6.3-16.1-6.5-22.4-0.4c-6.3,6.1-6.5,16.1-0.4,22.4c6.1,6.3,16.1,6.5,22.4,0.4    C-240.9,624.2-240.7,614.2-246.8,607.9"
       id="path42" /></g><g
     id="g48"><path
       class="st1"
       d="M-281.2,629c3.9-3.8,4-10.1,0.2-14c-3.8-3.9-10.1-4-14-0.2c-3.9,3.8-4,10.1-0.2,14    C-291.5,632.7-285.2,632.8-281.2,629"
       id="path46" /></g><g
     id="g52"><path
       class="st1"
       d="M-225.4,616c-2.8-2.9-7.5-3-10.5-0.2c-2.9,2.8-3,7.5-0.2,10.5c2.8,2.9,7.5,3,10.5,0.2    C-222.6,623.6-222.5,618.9-225.4,616"
       id="path50" /></g><g
     id="g56"><path
       class="st1"
       d="M-281.4,632.4c-2.9,2.8-3,7.5-0.2,10.5c2.8,2.9,7.5,3,10.5,0.2c2.9-2.8,3-7.5,0.2-10.5    C-273.8,629.7-278.4,629.6-281.4,632.4"
       id="path54" /></g><g
     id="g60"><path
       class="st1"
       d="M-264,639.8c-1.9,1.9-2,5-0.1,6.9c1.9,1.9,5,2,6.9,0.1c1.9-1.9,2-5,0.1-6.9C-259,637.9-262.1,637.9-264,639.8    "
       id="path58" /></g><g
     id="g64"><path
       class="st1"
       d="M-276.2,605.6c1.9-1.9,2-5,0.1-6.9c-1.9-1.9-5-2-6.9-0.1c-1.9,1.9-2,5-0.1,6.9    C-281.2,607.5-278.1,607.5-276.2,605.6"
       id="path62" /></g><g
     id="g68"><path
       class="st1"
       d="M-250.9,596.6c1.9-1.9,2-5,0.1-6.9c-1.9-1.9-5-2-6.9-0.1c-1.9,1.9-2,5-0.1,6.9S-252.9,598.5-250.9,596.6"
       id="path66" /></g><g
     id="g72"><path
       class="st1"
       d="M-241.2,634.8c-1.9,1.9-2,5-0.1,6.9c1.9,1.9,5,2,6.9,0.1c1.9-1.9,2-5,0.1-6.9    C-236.1,633-239.2,632.9-241.2,634.8"
       id="path70" /></g><g
     id="g76"><path
       class="st1"
       d="M-229.3,640.3c-1,0.9-1,2.5-0.1,3.5c0.9,1,2.5,1,3.5,0.1c1-0.9,1-2.5,0.1-3.5    C-226.7,639.4-228.3,639.3-229.3,640.3"
       id="path74" /></g><g
     id="g80"><path
       class="st1"
       d="M-290.8,638.1c-1,0.9-1,2.5-0.1,3.5c0.9,1,2.5,1,3.5,0.1c1-0.9,1-2.5,0.1-3.5    C-288.2,637.2-289.8,637.1-290.8,638.1"
       id="path78" /></g><g
     id="g84"><path
       class="st1"
       d="M-249.5,601.6c0.9,1,2.5,1,3.5,0.1c1-0.9,1-2.5,0.1-3.5c-0.9-1-2.5-1-3.5-0.1    C-250.4,599.1-250.4,600.6-249.5,601.6"
       id="path82" /></g></g><g
   aria-label="Инвазивни 
видове"
   style="font-style:normal;font-variant:normal;font-weight:normal;font-stretch:normal;font-size:15.92933273px;line-height:1.25;font-family:KonsensMedium;-inkscape-font-specification:'KonsensMedium, Normal';font-variant-ligatures:normal;font-variant-caps:normal;font-variant-numeric:normal;font-feature-settings:normal;text-align:center;letter-spacing:0px;word-spacing:0px;writing-mode:lr-tb;text-anchor:middle;fill:#ffffff;fill-opacity:1;stroke:none"
   id="text97"><path
     d="m -295.26151,670.15735 h -1.53227 v -9.27915 l -5.75571,9.27915 h -1.5556 v -11.58144 h 1.53226 v 9.13915 l 5.68572,-9.13915 h 1.6256 z"
     style=""
     id="path847" /><path
     d="m -285.00234,670.15735 h -1.46226 v -3.91233 h -4.3479 v 3.91233 h -1.46226 v -8.68802 h 1.46226 v 3.51565 h 4.3479 v -3.51565 h 1.46226 z"
     style=""
     id="path849" /><path
     d="m -274.96095,667.52839 q 0,0.63001 -0.25667,1.12003 -0.2489,0.49001 -0.69224,0.81669 -0.4978,0.36556 -1.08892,0.5289 -0.58335,0.16334 -1.54005,0.16334 h -3.59343 v -8.68802 h 3.36009 q 0.97225,0 1.46227,0.07 0.49779,0.0622 0.93336,0.28779 0.49001,0.25667 0.71557,0.6689 0.23334,0.41224 0.23334,0.97225 0,0.64558 -0.36556,1.12003 -0.36557,0.47446 -0.94114,0.73891 v 0.0778 q 0.77002,0.18668 1.26781,0.72336 0.50557,0.5289 0.50557,1.40004 z m -1.96783,-3.83455 q 0,-0.28001 -0.12445,-0.50557 -0.11667,-0.22557 -0.36556,-0.35001 -0.32668,-0.16334 -0.73891,-0.1789 -0.40446,-0.0233 -1.00337,-0.0233 h -1.52448 v 2.38006 h 1.82783 q 0.57557,0 0.8478,-0.0389 0.28001,-0.0467 0.56001,-0.21778 0.29557,-0.18667 0.40446,-0.43557 0.11667,-0.25667 0.11667,-0.63001 z m 0.4589,3.84232 q 0,-0.42779 -0.14,-0.69224 -0.14001,-0.27223 -0.61446,-0.49779 -0.29557,-0.14 -0.6378,-0.16334 -0.34223,-0.0311 -0.94892,-0.0311 h -1.87449 v 2.83897 h 1.38448 q 0.87114,0 1.33782,-0.0544 0.47445,-0.0622 0.81669,-0.25667 0.34223,-0.19445 0.50557,-0.47446 0.17111,-0.28001 0.17111,-0.66891 z"
     style=""
     id="path851" /><path
     d="m -265.89181,670.15735 h -1.45448 v -0.92558 q -0.19445,0.13222 -0.52891,0.37334 -0.32667,0.23334 -0.63779,0.37334 -0.36557,0.1789 -0.84002,0.29557 -0.47446,0.12445 -1.11226,0.12445 -1.17447,0 -1.99116,-0.7778 -0.81669,-0.7778 -0.81669,-1.98339 0,-0.98781 0.42001,-1.59449 0.42779,-0.61446 1.21337,-0.96447 0.79335,-0.35001 1.9056,-0.47446 1.11226,-0.12445 2.38785,-0.18667 v -0.22556 q 0,-0.49779 -0.1789,-0.82447 -0.17111,-0.32668 -0.49779,-0.51335 -0.31112,-0.17889 -0.74668,-0.24112 -0.43557,-0.0622 -0.91003,-0.0622 -0.57557,0 -1.28337,0.15556 -0.7078,0.14778 -1.46226,0.43557 h -0.0778 v -1.4856 q 0.42779,-0.11667 1.2367,-0.25667 0.80891,-0.14001 1.59449,-0.14001 0.9178,0 1.59449,0.15556 0.68446,0.14778 1.18225,0.51335 0.49002,0.35779 0.74669,0.92558 0.25667,0.5678 0.25667,1.40782 z m -1.45448,-2.13895 v -2.41896 q -0.66891,0.0389 -1.57893,0.11667 -0.90225,0.0778 -1.43116,0.22557 -0.63001,0.17889 -1.01891,0.56001 -0.3889,0.37334 -0.3889,1.03447 0,0.74669 0.45112,1.12781 0.45112,0.37335 1.37671,0.37335 0.77002,0 1.40781,-0.29557 0.6378,-0.30334 1.18226,-0.72335 z"
     style=""
     id="path853" /><path
     d="m -257.01711,667.72284 q 0,0.73113 -0.34224,1.2367 -0.33445,0.50557 -0.86335,0.81669 -0.52891,0.30334 -1.1667,0.44334 -0.6378,0.14001 -1.27559,0.14001 -0.90225,0 -1.71894,-0.17112 -0.81669,-0.17112 -1.61004,-0.5289 v -1.60227 h 0.10111 q 0.56779,0.49779 1.44671,0.77002 0.87891,0.27223 1.70338,0.27223 0.3889,0 0.80113,-0.07 0.41223,-0.0778 0.71558,-0.24112 0.32667,-0.18667 0.52112,-0.44334 0.19445,-0.26446 0.19445,-0.71558 0,-0.46668 -0.19445,-0.74669 -0.18667,-0.28 -0.51335,-0.42001 -0.31889,-0.14 -0.77002,-0.17111 -0.45112,-0.0311 -0.82446,-0.0311 h -1.26782 v -1.26003 h 0.87892 q 0.31112,0 0.80891,-0.0233 0.50557,-0.0233 0.81669,-0.12444 0.40445,-0.13223 0.63779,-0.37335 0.24112,-0.24112 0.24112,-0.77002 0,-0.36556 -0.18667,-0.5989 -0.18667,-0.24112 -0.46668,-0.37335 -0.28779,-0.13222 -0.64558,-0.17889 -0.35001,-0.0467 -0.62223,-0.0467 -0.79336,0 -1.56338,0.21778 -0.76225,0.21001 -1.28337,0.61447 h -0.10111 v -1.61005 q 0.64557,-0.21001 1.38448,-0.34223 0.73891,-0.13223 1.47782,-0.13223 0.60668,0 1.20559,0.10889 0.60668,0.1089 1.12781,0.37335 0.51334,0.26445 0.84002,0.72335 0.32667,0.45113 0.32667,1.12003 0,0.68447 -0.42779,1.20559 -0.42001,0.51335 -1.13558,0.73891 v 0.0544 q 0.80113,0.19445 1.27559,0.73113 0.47446,0.5289 0.47446,1.40782 z"
     style=""
     id="path855" /><path
     d="m -247.3724,670.15735 h -1.44671 v -6.52574 l -4.55012,6.52574 h -1.32226 v -8.68802 h 1.4467 v 6.4324 l 4.50346,-6.4324 h 1.36893 z"
     style=""
     id="path857" /><path
     d="m -237.31546,667.52839 q 0,0.63001 -0.25667,1.12003 -0.2489,0.49001 -0.69224,0.81669 -0.49779,0.36556 -1.08892,0.5289 -0.58335,0.16334 -1.54004,0.16334 h -3.59344 v -8.68802 h 3.3601 q 0.97225,0 1.46226,0.07 0.49779,0.0622 0.93336,0.28779 0.49001,0.25667 0.71557,0.6689 0.23334,0.41224 0.23334,0.97225 0,0.64558 -0.36556,1.12003 -0.36557,0.47446 -0.94114,0.73891 v 0.0778 q 0.77002,0.18668 1.26781,0.72336 0.50557,0.5289 0.50557,1.40004 z m -1.96783,-3.83455 q 0,-0.28001 -0.12445,-0.50557 -0.11667,-0.22557 -0.36556,-0.35001 -0.32668,-0.16334 -0.73891,-0.1789 -0.40446,-0.0233 -1.00336,-0.0233 h -1.52449 v 2.38006 h 1.82783 q 0.57557,0 0.8478,-0.0389 0.28001,-0.0467 0.56002,-0.21778 0.29556,-0.18667 0.40445,-0.43557 0.11667,-0.25667 0.11667,-0.63001 z m 0.4589,3.84232 q 0,-0.42779 -0.14,-0.69224 -0.14,-0.27223 -0.61446,-0.49779 -0.29557,-0.14 -0.6378,-0.16334 -0.34223,-0.0311 -0.94891,-0.0311 h -1.8745 v 2.83897 h 1.38448 q 0.87114,0 1.33782,-0.0544 0.47446,-0.0622 0.81669,-0.25667 0.34223,-0.19445 0.50557,-0.47446 0.17111,-0.28001 0.17111,-0.66891 z"
     style=""
     id="path859" /><path
     d="m -227.72519,670.15735 h -1.46226 v -3.91233 h -4.3479 v 3.91233 h -1.46226 v -8.68802 h 1.46226 v 3.51565 h 4.3479 v -3.51565 h 1.46226 z"
     style=""
     id="path861" /><path
     d="m -217.53602,670.15735 h -1.4467 v -6.52574 l -4.55013,6.52574 h -1.32226 v -8.68802 h 1.44671 v 6.4324 l 4.50346,-6.4324 h 1.36892 z"
     style=""
     id="path863" /><path
     d="m -281.38557,687.59408 q 0,0.63002 -0.25668,1.12004 -0.24889,0.49001 -0.69224,0.81668 -0.49779,0.36557 -1.08892,0.52891 -0.58335,0.16334 -1.54004,0.16334 h -3.59343 v -8.68802 h 3.36009 q 0.97225,0 1.46226,0.07 0.4978,0.0622 0.93336,0.28778 0.49002,0.25668 0.71558,0.66891 0.23334,0.41224 0.23334,0.97225 0,0.64557 -0.36557,1.12003 -0.36556,0.47446 -0.94113,0.73891 v 0.0778 q 0.77002,0.18667 1.26781,0.72336 0.50557,0.5289 0.50557,1.40003 z m -1.96783,-3.83455 q 0,-0.28001 -0.12445,-0.50557 -0.11667,-0.22556 -0.36557,-0.35001 -0.32667,-0.16333 -0.73891,-0.17889 -0.40445,-0.0233 -1.00336,-0.0233 h -1.52449 v 2.38006 h 1.82783 q 0.57557,0 0.8478,-0.0389 0.28001,-0.0467 0.56002,-0.21778 0.29556,-0.18667 0.40446,-0.43557 0.11667,-0.25667 0.11667,-0.63002 z m 0.4589,3.84233 q 0,-0.42779 -0.14001,-0.69224 -0.14,-0.27223 -0.61446,-0.49779 -0.29556,-0.14001 -0.63779,-0.16334 -0.34224,-0.0311 -0.94892,-0.0311 h -1.8745 v 2.83897 h 1.38449 q 0.87113,0 1.33781,-0.0544 0.47446,-0.0622 0.81669,-0.25667 0.34223,-0.19445 0.50557,-0.47446 0.17112,-0.28001 0.17112,-0.66891 z"
     style=""
     id="path865" /><path
     d="m -271.74864,690.22305 h -1.4467 v -6.52574 l -4.55013,6.52574 h -1.32226 v -8.68802 h 1.44671 v 6.4324 l 4.50346,-6.4324 h 1.36892 z"
     style=""
     id="path867" /><path
     d="m -260.97611,692.30755 h -1.36115 v -2.10784 h -6.53352 v 2.10784 h -1.36115 v -3.32898 h 0.94114 q 0.91003,-1.50116 1.35337,-3.46121 0.45112,-1.96783 0.45112,-3.98233 h 5.46016 v 7.44354 h 1.05003 z m -2.5123,-3.32898 v -6.21462 h -2.62118 q -0.10111,1.95228 -0.59891,3.56232 -0.49779,1.61005 -1.14336,2.6523 z"
     style=""
     id="path869" /><path
     d="m -251.56474,685.88293 q 0,2.12339 -1.08892,3.35231 -1.08892,1.22892 -2.91675,1.22892 -1.84338,0 -2.9323,-1.22892 -1.08114,-1.22892 -1.08114,-3.35231 0,-2.1234 1.08114,-3.35232 1.08892,-1.2367 2.9323,-1.2367 1.82783,0 2.91675,1.2367 1.08892,1.22892 1.08892,3.35232 z m -1.50893,0 q 0,-1.68783 -0.66113,-2.50452 -0.66113,-0.82447 -1.83561,-0.82447 -1.19003,0 -1.85116,0.82447 -0.65335,0.81669 -0.65335,2.50452 0,1.63337 0.66113,2.48118 0.66113,0.84002 1.84338,0.84002 1.1667,0 1.82783,-0.83225 0.66891,-0.84002 0.66891,-2.48895 z"
     style=""
     id="path871" /><path
     d="m -242.12225,687.59408 q 0,0.63002 -0.25668,1.12004 -0.24889,0.49001 -0.69224,0.81668 -0.49779,0.36557 -1.08892,0.52891 -0.58335,0.16334 -1.54004,0.16334 h -3.59344 v -8.68802 h 3.3601 q 0.97225,0 1.46226,0.07 0.49779,0.0622 0.93336,0.28778 0.49001,0.25668 0.71558,0.66891 0.23334,0.41224 0.23334,0.97225 0,0.64557 -0.36557,1.12003 -0.36557,0.47446 -0.94114,0.73891 v 0.0778 q 0.77002,0.18667 1.26782,0.72336 0.50557,0.5289 0.50557,1.40003 z m -1.96784,-3.83455 q 0,-0.28001 -0.12444,-0.50557 -0.11667,-0.22556 -0.36557,-0.35001 -0.32668,-0.16333 -0.73891,-0.17889 -0.40446,-0.0233 -1.00336,-0.0233 h -1.52449 v 2.38006 h 1.82783 q 0.57557,0 0.8478,-0.0389 0.28001,-0.0467 0.56002,-0.21778 0.29556,-0.18667 0.40445,-0.43557 0.11667,-0.25667 0.11667,-0.63002 z m 0.4589,3.84233 q 0,-0.42779 -0.14,-0.69224 -0.14,-0.27223 -0.61446,-0.49779 -0.29556,-0.14001 -0.6378,-0.16334 -0.34223,-0.0311 -0.94891,-0.0311 h -1.8745 v 2.83897 h 1.38448 q 0.87114,0 1.33782,-0.0544 0.47446,-0.0622 0.81669,-0.25667 0.34223,-0.19445 0.50557,-0.47446 0.17111,-0.28001 0.17111,-0.66891 z"
     style=""
     id="path873" /><path
     d="m -232.53199,686.03071 h -6.40129 q 0,0.80113 0.24112,1.40004 0.24112,0.59112 0.66113,0.97225 0.40445,0.37334 0.95669,0.56001 0.56002,0.18667 1.22892,0.18667 0.8867,0 1.78117,-0.35001 0.90224,-0.35778 1.28336,-0.70002 h 0.0778 v 1.59449 q -0.7389,0.31112 -1.50893,0.52113 -0.77002,0.21 -1.61782,0.21 -2.16228,0 -3.37565,-1.1667 -1.21337,-1.17447 -1.21337,-3.32898 0,-2.13117 1.15893,-3.38342 1.16669,-1.25226 3.06453,-1.25226 1.75782,0 2.70674,1.02669 0.95669,1.0267 0.95669,2.91675 z m -1.42337,-1.12003 q -0.008,-1.15115 -0.58335,-1.78116 -0.5678,-0.63002 -1.73449,-0.63002 -1.17448,0 -1.8745,0.69224 -0.69224,0.69224 -0.78558,1.71894 z"
     style=""
     id="path875" /></g>



</svg>