<?xml version="1.0" encoding="utf-8"?>
<!-- Generator: Adobe Illustrator 19.1.0, SVG Export Plug-In . SVG Version: 6.00 Build 0)  -->
<svg version="1.1" id="Calque_1" xmlns="http://www.w3.org/2000/svg" xmlns:xlink="http://www.w3.org/1999/xlink" x="0px" y="0px"
	 viewBox="125.1 228.6 138.7 138.7" style="enable-background:new 125.1 228.6 138.7 138.7;" xml:space="preserve">
<style type="text/css">
	.st0{fill:#D3D501;}
	.st1{fill:#FFFFFF;}
	.st2{fill:#7A9C2B;}
	.st3{fill:#E8E493;}
	.st4{fill:#40637D;}
	.st5{fill:#5E9EB5;}
	.st6{fill:#D0A82B;}
	.st7{fill:#559973;}
	.st8{fill:#00662C;}
</style>
<g>
	<path class="st6" d="M125.1,297.3c0-38.3,31-69.3,69.3-69.3s69.3,31,69.3,69.3s-31,69.3-69.3,69.3S125.1,335.6,125.1,297.3"/>
</g>
<g>
	<g>
		<path class="st1" d="M197.3,273c0,1.5-1.2,2.8-2.8,2.8c-1.5,0-2.8-1.2-2.8-2.8c0-1.5,1.2-2.8,2.8-2.8
			C196,270.2,197.3,271.5,197.3,273"/>
	</g>
	<g>
		<path class="st1" d="M205.2,273c0,1.5-1.2,2.8-2.8,2.8s-2.8-1.2-2.8-2.8c0-1.5,1.2-2.8,2.8-2.8S205.2,271.5,205.2,273"/>
	</g>
	<g>
		<path class="st1" d="M189.3,273c0,1.5-1.2,2.8-2.8,2.8s-2.8-1.2-2.8-2.8c0-1.5,1.2-2.8,2.8-2.8S189.3,271.5,189.3,273"/>
	</g>
	<g>
		<path class="st1" d="M208.2,244.1h-27.7c-2.6,0-4.7,2.1-4.7,4.6v50.7c0,2.6,2.1,4.6,4.7,4.6h27.7c2.6,0,4.7-2.1,4.7-4.6v-50.7
			C213,246.2,210.8,244.1,208.2,244.1 M194.4,301.5c-1.6,0-3-1.3-3-3c0-1.6,1.3-3,3-3c1.6,0,3,1.3,3,3S196,301.5,194.4,301.5
			 M207.6,292.6c0,0.5-0.4,1-0.9,1h-24.6c-0.5,0-1-0.5-1-1V250c0-0.5,0.5-1,1-1h24.6c0.5,0,0.9,0.4,0.9,1V292.6z"/>
	</g>
</g>
<g>
	<g>
		<path class="st1" d="M158.2,312.9c0.2,0.1,0.3,0.2,0.2,0.4l-0.1,0.5c0,0.1-0.1,0.2-0.3,0.2c-0.7-0.1-1.8-0.2-2.8-0.2
			c-2.6,0-2.9,2.2-2.9,4.6c0,2.3,0.4,4.4,2.9,4.4c1,0,2-0.1,2.8-0.2c0.2,0,0.3,0.1,0.3,0.2l0.1,0.4c0,0.2,0,0.3-0.2,0.4
			c-0.8,0.3-2.4,0.5-3.1,0.5c-3.6,0-4.3-2.7-4.3-5.6c0-3,0.6-5.9,4.3-5.9C155.9,312.5,157.3,312.6,158.2,312.9z"/>
		<path class="st1" d="M163.1,324c-3.2,0-3.4-2.4-3.4-4.4c0-1.6,0.3-4.2,3.4-4.2c3.1,0,3.6,2.1,3.6,4.2
			C166.7,321.6,166.5,324,163.1,324z M163.1,316.6c-1.8,0-2.1,1-2.1,3.1c0,2.1,0.4,3.1,2.1,3.1c1.9,0,2.2-1,2.2-3.1
			C165.4,317.6,165,316.6,163.1,316.6z"/>
		<path class="st1" d="M174.8,323.9h-0.7c-0.2,0-0.3-0.1-0.3-0.3l0-5c0-1.6-0.3-2-1.4-2c-0.8,0-2.3,0.7-2.8,1v6
			c0,0.2-0.1,0.3-0.3,0.3h-0.7c-0.2,0-0.3-0.1-0.3-0.3v-7.7c0-0.2,0.1-0.3,0.3-0.3h0.7c0.2,0,0.3,0.1,0.3,0.3v0.6l0.1,0
			c0.5-0.4,1.8-1.1,3-1.1c2.2,0,2.5,1.3,2.5,3.1v5C175.1,323.8,175,323.9,174.8,323.9z"/>
		<path class="st1" d="M183.4,323.9h-0.7c-0.2,0-0.3-0.1-0.3-0.3l0-5c0-1.6-0.3-2-1.4-2c-0.8,0-2.3,0.7-2.8,1v6
			c0,0.2-0.1,0.3-0.3,0.3h-0.7c-0.2,0-0.3-0.1-0.3-0.3v-7.7c0-0.2,0.1-0.3,0.3-0.3h0.7c0.2,0,0.3,0.1,0.3,0.3v0.6l0.1,0
			c0.5-0.4,1.8-1.1,3-1.1c2.2,0,2.5,1.3,2.5,3.1v5C183.7,323.8,183.6,323.9,183.4,323.9z"/>
		<path class="st1" d="M191.6,320.1h-4.8c0,2.1,0.6,2.7,2.2,2.7c0.7,0,1.8-0.1,2.4-0.2c0.2,0,0.3,0,0.4,0.2l0.1,0.4
			c0,0.2,0,0.3-0.2,0.3c-0.6,0.3-1.9,0.5-2.7,0.5c-3.1,0-3.5-2.1-3.5-4.3c0-1.6,0.3-4.3,3.5-4.3c2.9,0,3.3,1.9,3.4,3.8
			C192.3,319.7,192.2,320.1,191.6,320.1z M188.8,316.6c-1.5,0-2,1-2.1,2.5h4.2C190.9,317.9,190.7,316.6,188.8,316.6z"/>
		<path class="st1" d="M199.9,323.9h-1c-0.2,0-0.3-0.1-0.3-0.2l-1.9-3l-2,3c-0.1,0.1-0.2,0.2-0.4,0.2h-1c-0.2,0-0.2-0.1-0.1-0.3
			l2.7-3.9l-2.6-3.8c-0.1-0.1,0-0.3,0.1-0.3h1c0.2,0,0.2,0.1,0.3,0.2l1.9,2.8l1.8-2.8c0.1-0.1,0.1-0.2,0.3-0.2h1
			c0.2,0,0.2,0.1,0.1,0.3l-2.6,3.8l2.7,4C200.1,323.7,200.1,323.9,199.9,323.9z"/>
		<path class="st1" d="M202.2,314.1c-0.6,0-0.7-0.4-0.7-0.8c0-0.4,0.1-0.7,0.7-0.7c0.6,0,0.7,0.3,0.7,0.7
			C202.9,313.8,202.8,314.1,202.2,314.1z M202.6,323.9h-0.7c-0.2,0-0.3-0.1-0.3-0.3v-7.7c0-0.2,0.1-0.3,0.3-0.3h0.7
			c0.2,0,0.3,0.1,0.3,0.3v7.7C202.8,323.8,202.8,323.9,202.6,323.9z"/>
		<path class="st1" d="M208.3,324c-3.2,0-3.4-2.4-3.4-4.4c0-1.6,0.3-4.2,3.4-4.2c3.1,0,3.6,2.1,3.6,4.2
			C211.9,321.6,211.7,324,208.3,324z M208.3,316.6c-1.8,0-2.1,1-2.1,3.1c0,2.1,0.4,3.1,2.1,3.1c1.9,0,2.2-1,2.2-3.1
			C210.5,317.6,210.2,316.6,208.3,316.6z"/>
		<path class="st1" d="M220,323.9h-0.7c-0.2,0-0.3-0.1-0.3-0.3l0-5c0-1.6-0.3-2-1.4-2c-0.8,0-2.3,0.7-2.8,1v6c0,0.2-0.1,0.3-0.3,0.3
			h-0.7c-0.2,0-0.3-0.1-0.3-0.3v-7.7c0-0.2,0.1-0.3,0.3-0.3h0.7c0.2,0,0.3,0.1,0.3,0.3v0.6l0.1,0c0.5-0.4,1.8-1.1,3-1.1
			c2.2,0,2.5,1.3,2.5,3.1v5C220.3,323.8,220.2,323.9,220,323.9z"/>
		<path class="st1" d="M232.7,320.1H228c0,2.1,0.6,2.7,2.2,2.7c0.7,0,1.8-0.1,2.4-0.2c0.2,0,0.3,0,0.4,0.2l0.1,0.4
			c0,0.2,0,0.3-0.2,0.3c-0.6,0.3-1.9,0.5-2.7,0.5c-3.1,0-3.5-2.1-3.5-4.3c0-1.6,0.3-4.3,3.5-4.3c2.9,0,3.3,1.9,3.4,3.8
			C233.5,319.7,233.4,320.1,232.7,320.1z M230,316.6c-1.5,0-2,1-2.1,2.5h4.2C232.1,317.9,231.8,316.6,230,316.6z"/>
		<path class="st1" d="M239.7,323.3c0,0.2,0,0.3-0.2,0.3c-0.4,0.2-1.4,0.3-1.9,0.3c-1.5,0-1.8-0.7-1.8-1.8v-5.5h-0.9
			c-0.2,0-0.3-0.1-0.3-0.3v-0.5c0-0.2,0.1-0.3,0.3-0.3h1v-1.8c0-0.2,0.1-0.3,0.3-0.3l0.7-0.2c0.2-0.1,0.3,0,0.3,0.3v2.1h1.9
			c0.2,0,0.3,0.1,0.3,0.3v0.5c0,0.2-0.1,0.3-0.3,0.3H237v5.2c0,0.8,0.2,1,1.2,1c0.2,0,0.7-0.1,1-0.1c0.3,0,0.3,0,0.4,0.2
			L239.7,323.3z"/>
		<path class="st1" d="M152.7,340.6h-4.8c0,2.1,0.6,2.7,2.2,2.7c0.7,0,1.8-0.1,2.4-0.2c0.2,0,0.3,0,0.4,0.2l0.1,0.4
			c0,0.2,0,0.3-0.2,0.3c-0.6,0.3-1.9,0.5-2.7,0.5c-3.1,0-3.5-2.1-3.5-4.3c0-1.6,0.3-4.3,3.5-4.3c2.9,0,3.3,1.9,3.4,3.8
			C153.4,340.1,153.3,340.6,152.7,340.6z M149.9,337c-1.5,0-2,1-2.1,2.5h4.2C152,338.3,151.8,337,149.9,337z"/>
		<path class="st1" d="M161.4,344.3h-0.7c-0.2,0-0.3-0.1-0.3-0.3l0-5c0-1.6-0.3-2-1.4-2c-0.8,0-2.3,0.7-2.8,1v6
			c0,0.2-0.1,0.3-0.3,0.3h-0.7c-0.2,0-0.3-0.1-0.3-0.3v-7.7c0-0.2,0.1-0.3,0.3-0.3h0.7c0.2,0,0.3,0.1,0.3,0.3v0.6l0.1,0
			c0.5-0.4,1.8-1.1,3-1.1c2.2,0,2.5,1.3,2.5,3.1v5C161.7,344.2,161.6,344.3,161.4,344.3z"/>
		<path class="st1" d="M168,337.2c-0.9,0.2-2.3,0.6-2.7,0.8v6c0,0.2-0.1,0.3-0.3,0.3h-0.7c-0.2,0-0.3-0.1-0.3-0.3v-7.7
			c0-0.2,0.1-0.3,0.3-0.3h0.7c0.2,0,0.3,0.1,0.3,0.3v0.7l0,0c0.4-0.4,1.7-0.9,2.5-1.1c0.2-0.1,0.3,0,0.3,0.2l0.1,0.7
			C168.3,337,168.2,337.2,168,337.2z"/>
		<path class="st1" d="M175.7,336.2c0.4,0.1,0.4,0.4,0.4,0.7v7.4c0,1.8-0.4,3.1-3.3,3.1c-0.8,0-2.1-0.1-2.8-0.4
			c-0.2-0.1-0.2-0.2-0.2-0.4l0.1-0.4c0-0.2,0.2-0.2,0.4-0.2c0.7,0.1,1.7,0.2,2.4,0.2c1.6,0,2-0.5,2-1.7v-0.7c-1,0.4-1.8,0.5-2.4,0.5
			c-2.6,0-3.3-1.7-3.3-4.2c0-2.8,0.8-4.4,3.5-4.4C173.6,335.8,174.9,336,175.7,336.2z M172.3,343.3c0.6,0,1.6-0.1,2.4-0.4v-5.7
			c-0.6-0.1-1.5-0.2-2.2-0.2c-1.2,0-2.2,0.4-2.2,3C170.4,342.4,170.9,343.3,172.3,343.3z"/>
		<path class="st1" d="M178.8,334.6c-0.6,0-0.7-0.4-0.7-0.8c0-0.4,0.1-0.7,0.7-0.7c0.6,0,0.7,0.3,0.7,0.7
			C179.5,334.2,179.4,334.6,178.8,334.6z M179.2,344.3h-0.7c-0.2,0-0.3-0.1-0.3-0.3v-7.7c0-0.2,0.1-0.3,0.3-0.3h0.7
			c0.2,0,0.3,0.1,0.3,0.3v7.7C179.4,344.2,179.4,344.3,179.2,344.3z"/>
		<path class="st1" d="M184.2,344.4c-0.9,0-2-0.1-2.6-0.4c-0.2-0.1-0.2-0.2-0.2-0.4l0.1-0.4c0-0.2,0.2-0.2,0.4-0.2
			c0.7,0.1,1.8,0.2,2.4,0.2c1.3,0,1.8-0.4,1.8-1.2c0-1-0.3-1.2-1.7-1.4c-1.5-0.2-3-0.6-3-2.3c0-1.6,1.2-2.4,3-2.4
			c0.7,0,1.8,0.1,2.5,0.4c0.2,0.1,0.2,0.2,0.2,0.4l-0.1,0.4c0,0.2-0.2,0.2-0.4,0.2c-0.7-0.1-1.5-0.2-2.2-0.2c-1.3,0-1.6,0.4-1.6,1.2
			c0,0.9,0.4,1,1.8,1.2c1.5,0.2,2.9,0.6,2.9,2.5C187.4,343.8,185.9,344.4,184.2,344.4z"/>
		<path class="st1" d="M193.7,343.7c0,0.2,0,0.3-0.2,0.3c-0.4,0.2-1.4,0.3-1.9,0.3c-1.5,0-1.8-0.7-1.8-1.8v-5.5h-0.9
			c-0.2,0-0.3-0.1-0.3-0.3v-0.5c0-0.2,0.1-0.3,0.3-0.3h1v-1.8c0-0.2,0.1-0.3,0.3-0.3l0.7-0.2c0.2-0.1,0.3,0,0.3,0.3v2.1h1.9
			c0.2,0,0.3,0.1,0.3,0.3v0.5c0,0.2-0.1,0.3-0.3,0.3H191v5.2c0,0.8,0.2,1,1.2,1c0.2,0,0.7-0.1,1-0.1c0.3,0,0.3,0,0.4,0.2
			L193.7,343.7z"/>
		<path class="st1" d="M199,337.2c-0.9,0.2-2.3,0.6-2.7,0.8v6c0,0.2-0.1,0.3-0.3,0.3h-0.7c-0.2,0-0.3-0.1-0.3-0.3v-7.7
			c0-0.2,0.1-0.3,0.3-0.3h0.7c0.2,0,0.3,0.1,0.3,0.3v0.7l0,0c0.4-0.4,1.7-0.9,2.5-1.1c0.2-0.1,0.3,0,0.3,0.2l0.1,0.7
			C199.2,337,199.1,337.2,199,337.2z"/>
		<path class="st1" d="M206.1,340.6h-4.8c0,2.1,0.6,2.7,2.2,2.7c0.7,0,1.8-0.1,2.4-0.2c0.2,0,0.3,0,0.4,0.2l0.1,0.4
			c0,0.2,0,0.3-0.2,0.3c-0.6,0.3-1.9,0.5-2.7,0.5c-3.1,0-3.5-2.1-3.5-4.3c0-1.6,0.3-4.3,3.5-4.3c2.9,0,3.3,1.9,3.4,3.8
			C206.9,340.1,206.7,340.6,206.1,340.6z M203.4,337c-1.5,0-2,1-2.1,2.5h4.2C205.5,338.3,205.2,337,203.4,337z"/>
		<path class="st1" d="M220,344.3h-0.7c-0.2,0-0.3-0.1-0.3-0.3v-5.1c0-1.4-0.3-1.9-1.3-1.9c-0.8,0-2.1,0.7-2.7,1c0,0.1,0,0.5,0,0.9
			v5.1c0,0.2-0.1,0.3-0.3,0.3H214c-0.2,0-0.3-0.1-0.3-0.3l0-5.2c0-1.1-0.3-1.8-1.3-1.8c-0.7,0-1.9,0.6-2.7,1v6
			c0,0.2-0.1,0.3-0.3,0.3h-0.7c-0.2,0-0.3-0.1-0.3-0.3v-7.7c0-0.2,0.1-0.3,0.3-0.3h0.7c0.2,0,0.3,0.1,0.3,0.3v0.6c0,0,0,0,0,0
			c0.7-0.4,1.7-1.1,2.8-1.1c1.2,0,1.9,0.4,2.2,1.2c0.9-0.6,1.9-1.2,3.1-1.2c2.1,0,2.4,1.2,2.4,3v5.1
			C220.3,344.2,220.2,344.3,220,344.3z"/>
		<path class="st1" d="M228.2,340.6h-4.8c0,2.1,0.6,2.7,2.2,2.7c0.7,0,1.8-0.1,2.4-0.2c0.2,0,0.3,0,0.4,0.2l0.1,0.4
			c0,0.2,0,0.3-0.2,0.3c-0.6,0.3-1.9,0.5-2.7,0.5c-3.1,0-3.5-2.1-3.5-4.3c0-1.6,0.3-4.3,3.5-4.3c2.9,0,3.3,1.9,3.4,3.8
			C228.9,340.1,228.8,340.6,228.2,340.6z M225.5,337c-1.5,0-2,1-2.1,2.5h4.2C227.5,338.3,227.3,337,225.5,337z"/>
		<path class="st1" d="M237,344.3h-0.7c-0.2,0-0.3-0.1-0.3-0.3l0-5c0-1.6-0.3-2-1.4-2c-0.8,0-2.3,0.7-2.8,1v6c0,0.2-0.1,0.3-0.3,0.3
			h-0.7c-0.2,0-0.3-0.1-0.3-0.3v-7.7c0-0.2,0.1-0.3,0.3-0.3h0.7c0.2,0,0.3,0.1,0.3,0.3v0.6l0.1,0c0.5-0.4,1.8-1.1,3-1.1
			c2.2,0,2.5,1.3,2.5,3.1v5C237.3,344.2,237.2,344.3,237,344.3z"/>
		<path class="st1" d="M243.7,343.7c0,0.2,0,0.3-0.2,0.3c-0.4,0.2-1.4,0.3-1.9,0.3c-1.5,0-1.8-0.7-1.8-1.8v-5.5h-0.9
			c-0.2,0-0.3-0.1-0.3-0.3v-0.5c0-0.2,0.1-0.3,0.3-0.3h1v-1.8c0-0.2,0.1-0.3,0.3-0.3l0.7-0.2c0.2-0.1,0.3,0,0.3,0.3v2.1h1.9
			c0.2,0,0.3,0.1,0.3,0.3v0.5c0,0.2-0.1,0.3-0.3,0.3h-1.9v5.2c0,0.8,0.2,1,1.2,1c0.2,0,0.7-0.1,1-0.1c0.3,0,0.3,0,0.4,0.2
			L243.7,343.7z"/>
	</g>
</g>
</svg>
