<?xml version="1.0" encoding="UTF-8" standalone="no"?>
<!-- Generator: Adobe Illustrator 19.1.0, SVG Export Plug-In . SVG Version: 6.00 Build 0)  -->

<svg
   xmlns:dc="http://purl.org/dc/elements/1.1/"
   xmlns:cc="http://creativecommons.org/ns#"
   xmlns:rdf="http://www.w3.org/1999/02/22-rdf-syntax-ns#"
   xmlns:svg="http://www.w3.org/2000/svg"
   xmlns="http://www.w3.org/2000/svg"
   xmlns:sodipodi="http://sodipodi.sourceforge.net/DTD/sodipodi-0.dtd"
   xmlns:inkscape="http://www.inkscape.org/namespaces/inkscape"
   version="1.1"
   id="Calque_1"
   x="0px"
   y="0px"
   viewBox="-330 571.3 138.60001 138.60001"
   xml:space="preserve"
   sodipodi:docname="main_menu_logo_contact-fr.svg"
   inkscape:version="0.92.4 (5da689c313, 2019-01-14)"
   width="138.60001"
   height="138.60001"><metadata
   id="metadata43"><rdf:RDF><cc:Work
       rdf:about=""><dc:format>image/svg+xml</dc:format><dc:type
         rdf:resource="http://purl.org/dc/dcmitype/StillImage" /><dc:title /></cc:Work></rdf:RDF></metadata><defs
   id="defs41" /><sodipodi:namedview
   pagecolor="#ffffff"
   bordercolor="#666666"
   borderopacity="1"
   objecttolerance="10"
   gridtolerance="10"
   guidetolerance="10"
   inkscape:pageopacity="0"
   inkscape:pageshadow="2"
   inkscape:window-width="2400"
   inkscape:window-height="1271"
   id="namedview39"
   showgrid="false"
   inkscape:zoom="3"
   inkscape:cx="7.6608863"
   inkscape:cy="69.350001"
   inkscape:window-x="2391"
   inkscape:window-y="-9"
   inkscape:window-maximized="1"
   inkscape:current-layer="text4541"
   fit-margin-top="0"
   fit-margin-left="0"
   fit-margin-right="0"
   fit-margin-bottom="0" /><style
   type="text/css"
   id="style2">
	.st0{fill:#E8E493;}
	.st1{fill:#40637D;}
	.st2{fill:#FFFFFF;}
</style><g
   id="g6"
   transform="translate(0,-0.1)"><path
     class="st0"
     d="m -330,640.7 c 0,-38.3 31,-69.3 69.3,-69.3 38.3,0 69.3,31 69.3,69.3 0,38.3 -31,69.3 -69.3,69.3 -38.3,0 -69.3,-31 -69.3,-69.3"
     id="path4"
     style="fill:#ff7837;fill-opacity:1"
     inkscape:connector-curvature="0" /></g><g
   id="g36"
   transform="translate(0,-16.363454)"><g
     id="g30"><path
       class="st2"
       d="m -272.3,659 c 0,0.4 0.2,0.8 0.6,1 0.4,0.2 0.8,0.2 1.2,-0.1 l 7.7,-5.3 -9.5,-4.5 z"
       id="path28"
       inkscape:connector-curvature="0"
       style="fill:#ffffff" /></g><g
     id="g34"><path
       class="st2"
       d="m -226.4,599.6 c -0.2,-0.2 -0.5,-0.3 -0.8,-0.3 -0.2,0 -0.3,0 -0.5,0.1 l -66.6,32.7 c -0.7,0.3 -1.1,1 -1.1,1.8 0,0.8 0.4,1.5 1.1,1.8 l 17.6,8.4 35.1,-28.9 -30.8,30.9 21.9,10.4 c 0.3,0.1 0.6,0.2 0.9,0.2 0.2,0 0.5,0 0.7,-0.1 0.5,-0.2 0.9,-0.6 1.1,-1.1 l 21.7,-54.6 c 0.2,-0.5 0.1,-1 -0.3,-1.3"
       id="path32"
       inkscape:connector-curvature="0"
       style="fill:#ffffff" /></g></g><g
   aria-label="Contactez-nous"
   style="font-style:normal;font-variant:normal;font-weight:normal;font-stretch:normal;font-size:15.46666718px;line-height:1.25;font-family:KonsensMedium;-inkscape-font-specification:'KonsensMedium, Normal';font-variant-ligatures:normal;font-variant-caps:normal;font-variant-numeric:normal;font-feature-settings:normal;text-align:center;letter-spacing:0px;word-spacing:0px;writing-mode:lr-tb;text-anchor:middle;fill:#ffffff;fill-opacity:1;stroke:none"
   id="text4541"><path
     d="m -309.5101,664.33044 v 0.17013 q 0,1.93333 -1.2528,3.016 -1.23733,1.08267 -3.32533,1.08267 -0.9744,0 -1.8096,-0.26294 -0.81973,-0.2784 -1.4848,-0.8352 -0.66507,-0.5568 -1.03627,-1.51573 -0.3712,-0.95893 -0.3712,-2.2272 v -2.1344 q 0,-1.26827 0.3712,-2.2272 0.3712,-0.95894 1.03627,-1.51574 0.66507,-0.5568 1.4848,-0.81973 0.8352,-0.2784 1.8096,-0.2784 2.10347,0 3.3408,1.08267 1.23733,1.0672 1.23733,3.016 v 0.17013 h -1.7168 q 0,-1.392 -0.7424,-2.07253 -0.7424,-0.696 -2.11893,-0.696 -3.00053,0 -3.00053,3.3872 v 2.0416 q 0,3.3872 3.00053,3.3872 1.37653,0 2.11893,-0.696 0.7424,-0.696 0.7424,-2.07253 z"
     style=""
     id="path821" /><path
     d="m -301.98315,665.0883 v -1.4384 q 0,-0.98986 -0.58773,-1.54666 -0.57227,-0.5568 -1.51573,-0.5568 -0.95894,0 -1.5312,0.5568 -0.57227,0.5568 -0.57227,1.54666 v 1.4384 q 0,0.98987 0.57227,1.56214 0.57226,0.5568 1.5312,0.5568 0.94346,0 1.51573,-0.5568 0.58773,-0.5568 0.58773,-1.56214 z m 1.51574,-1.5776 v 1.73227 q 0,1.51573 -1.0208,2.42827 -1.00534,0.91253 -2.5984,0.91253 -1.59307,0 -2.61387,-0.91253 -1.00533,-0.91254 -1.00533,-2.42827 v -1.73227 q 0,-1.51573 1.00533,-2.42826 1.0208,-0.91254 2.61387,-0.91254 1.59306,0 2.5984,0.91254 1.0208,0.91253 1.0208,2.42826 z"
     style=""
     id="path823" /><path
     d="m -291.57432,668.41364 h -1.5776 v -5.4288 q 0,-0.58774 -0.3248,-0.95894 -0.30933,-0.38666 -0.8816,-0.38666 -0.52587,0 -1.22187,0.40213 l -1.33013,0.7888 v 5.58347 h -1.54667 v -8.13547 h 1.5312 v 1.0672 l 0.928,-0.57227 q 0.91254,-0.57227 1.93334,-0.57227 1.14453,0 1.8096,0.71147 0.68053,0.71147 0.68053,1.88694 z"
     style=""
     id="path825" /><path
     d="m -285.04544,668.41364 h -1.0208 q -1.392,0 -2.19627,-0.71147 -0.80426,-0.71147 -0.80426,-2.07253 v -3.9904 h -1.2992 v -1.36107 h 1.31466 v -2.19627 h 1.5776 v 2.19627 h 2.3664 v 1.36107 h -2.3664 v 3.91306 q 0,0.80427 0.35574,1.14454 0.3712,0.3248 1.14453,0.3248 h 0.928 z"
     style=""
     id="path827" /><path
     d="m -278.24664,666.0163 v -1.03626 h -2.42827 q -1.54667,0 -1.54667,1.17546 0,0.47947 0.2784,0.75787 0.2784,0.26293 0.7888,0.26293 0.75787,0 1.5776,-0.44853 z m 1.54666,2.39734 h -1.54666 v -1.05174 l -0.89707,0.49494 q -1.2064,0.6496 -2.2736,0.6496 -1.0672,0 -1.73227,-0.63414 -0.6496,-0.63413 -0.6496,-1.65493 0,-1.19093 0.81974,-1.82507 0.8352,-0.63413 2.1344,-0.63413 h 2.61386 v -0.5104 q 0,-1.77867 -1.87146,-1.77867 -1.97974,0 -1.97974,1.59307 h -1.5312 v -0.0773 q 0,-1.33014 0.95894,-2.088 0.9744,-0.75787 2.53653,-0.75787 1.60853,0 2.5056,0.80427 0.91253,0.7888 0.91253,2.2272 z"
     style=""
     id="path829" /><path
     d="m -267.97195,665.39764 v 0.12373 q 0,1.45387 -0.928,2.24267 -0.928,0.7888 -2.52106,0.7888 -1.54667,0 -2.49014,-0.8352 -0.928,-0.85067 -0.928,-2.33547 v -2.05707 q 0,-1.46933 0.928,-2.30453 0.94347,-0.85067 2.49014,-0.85067 1.59306,0 2.52106,0.7888 0.928,0.77334 0.928,2.2272 v 0.12374 h -1.51573 q 0,-1.7632 -1.93333,-1.7632 -1.87147,0 -1.87147,1.91786 v 1.77867 q 0,1.91787 1.87147,1.91787 1.93333,0 1.93333,-1.7632 z"
     style=""
     id="path831" /><path
     d="m -261.46604,668.41364 h -1.0208 q -1.392,0 -2.19626,-0.71147 -0.80427,-0.71147 -0.80427,-2.07253 v -3.9904 h -1.2992 v -1.36107 h 1.31467 v -2.19627 h 1.5776 v 2.19627 h 2.3664 v 1.36107 h -2.3664 v 3.91306 q 0,0.80427 0.35573,1.14454 0.3712,0.3248 1.14453,0.3248 h 0.928 z"
     style=""
     id="path833" /><path
     d="m -253.35112,665.8307 v 0.0773 q 0,1.19093 -0.94346,1.91786 -0.94347,0.72694 -2.52107,0.72694 -1.5776,0 -2.56747,-0.81974 -0.98986,-0.8352 -0.98986,-2.2736 v -1.9488 q 0,-1.51573 0.98986,-2.42826 0.98987,-0.91254 2.552,-0.91254 1.56214,0 2.53654,0.91254 0.9744,0.89706 0.9744,2.44373 v 1.37653 h -5.55254 v 0.464 q 0,0.91254 0.5568,1.392 0.57227,0.464 1.50027,0.464 1.96427,0 1.96427,-1.392 z m -1.45386,-2.088 v -0.24746 q 0,-0.95894 -0.54134,-1.46934 -0.52586,-0.52586 -1.4848,-0.52586 -0.95893,0 -1.50026,0.52586 -0.54134,0.52587 -0.54134,1.4848 v 0.232 z"
     style=""
     id="path835" /><path
     d="m -245.04962,668.41364 h -6.8208 v -1.3456 l 4.7792,-5.4288 h -4.79467 v -1.36107 h 6.7744 v 1.3456 l -4.74826,5.44427 h 4.81013 z"
     style=""
     id="path837" /><path
     d="m -239.15295,664.6243 h -4.5008 v -1.4384 h 4.5008 z"
     style=""
     id="path839" /><path
     d="m -230.31182,668.41364 h -1.5776 v -5.4288 q 0,-0.58774 -0.3248,-0.95894 -0.30933,-0.38666 -0.8816,-0.38666 -0.52587,0 -1.22187,0.40213 l -1.33013,0.7888 v 5.58347 h -1.54667 v -8.13547 h 1.5312 v 1.0672 l 0.928,-0.57227 q 0.91254,-0.57227 1.93334,-0.57227 1.14453,0 1.8096,0.71147 0.68053,0.71147 0.68053,1.88694 z"
     style=""
     id="path841" /><path
     d="m -222.65606,665.0883 v -1.4384 q 0,-0.98986 -0.58773,-1.54666 -0.57227,-0.5568 -1.51573,-0.5568 -0.95894,0 -1.5312,0.5568 -0.57227,0.5568 -0.57227,1.54666 v 1.4384 q 0,0.98987 0.57227,1.56214 0.57226,0.5568 1.5312,0.5568 0.94346,0 1.51573,-0.5568 0.58773,-0.5568 0.58773,-1.56214 z m 1.51574,-1.5776 v 1.73227 q 0,1.51573 -1.0208,2.42827 -1.00534,0.91253 -2.5984,0.91253 -1.59307,0 -2.61387,-0.91253 -1.00533,-0.91254 -1.00533,-2.42827 v -1.73227 q 0,-1.51573 1.00533,-2.42826 1.0208,-0.91254 2.61387,-0.91254 1.59306,0 2.5984,0.91254 1.0208,0.91253 1.0208,2.42826 z"
     style=""
     id="path843" /><path
     d="m -212.32457,668.41364 h -1.5312 v -1.0672 l -0.928,0.57226 q -0.9744,0.58774 -1.93333,0.57227 -1.14454,0 -1.82507,-0.696 -0.66507,-0.71147 -0.66507,-1.88693 v -5.62987 h 1.5776 v 5.44427 q 0,0.6032 0.3248,0.9744 0.3248,0.35573 0.8816,0.35573 0.52587,0 1.22187,-0.40213 l 1.33013,-0.7888 v -5.58347 h 1.54667 z"
     style=""
     id="path845" /><path
     d="m -203.60161,662.87657 h -1.54666 q 0,-1.392 -1.82507,-1.392 -0.86613,0 -1.33013,0.30933 -0.44854,0.30934 -0.44854,0.81974 0,0.47946 0.38667,0.7424 0.38667,0.26293 0.95893,0.3248 0.57227,0.0619 1.23734,0.1856 0.68053,0.12373 1.2528,0.29386 0.57226,0.15467 0.95893,0.63414 0.38667,0.47946 0.38667,1.2528 0,1.14453 -0.91254,1.82506 -0.91253,0.66507 -2.5056,0.66507 -1.60853,0 -2.53653,-0.72693 -0.91253,-0.72694 -0.91253,-1.91787 v -0.0773 h 1.59306 q 0,1.40746 1.88694,1.40746 0.89706,0 1.37653,-0.29386 0.49493,-0.30934 0.49493,-0.81974 0,-0.5104 -0.54133,-0.7424 -0.52587,-0.232 -1.28373,-0.3248 -0.75787,-0.0928 -1.5312,-0.24746 -0.75787,-0.15467 -1.2992,-0.68054 -0.52587,-0.54133 -0.52587,-1.46933 0,-1.14453 0.8816,-1.8096 0.89707,-0.66507 2.44373,-0.66507 1.59307,0 2.4592,0.72694 0.8816,0.71146 0.8816,1.91786 z"
     style=""
     id="path847" /></g>


</svg>