<?xml version="1.0" encoding="UTF-8" standalone="no"?>
<!-- Generator: Adobe Illustrator 19.1.0, SVG Export Plug-In . SVG Version: 6.00 Build 0)  -->

<svg
   xmlns:dc="http://purl.org/dc/elements/1.1/"
   xmlns:cc="http://creativecommons.org/ns#"
   xmlns:rdf="http://www.w3.org/1999/02/22-rdf-syntax-ns#"
   xmlns:svg="http://www.w3.org/2000/svg"
   xmlns="http://www.w3.org/2000/svg"
   xmlns:sodipodi="http://sodipodi.sourceforge.net/DTD/sodipodi-0.dtd"
   xmlns:inkscape="http://www.inkscape.org/namespaces/inkscape"
   version="1.1"
   id="Calque_1"
   x="0px"
   y="0px"
   viewBox="-330 571.3 138.60001 138.60001"
   xml:space="preserve"
   sodipodi:docname="main_menu_logo_links-sr.svg"
   inkscape:version="0.92.4 (5da689c313, 2019-01-14)"
   width="138.60001"
   height="138.60001"><metadata
   id="metadata31"><rdf:RDF><cc:Work
       rdf:about=""><dc:format>image/svg+xml</dc:format><dc:type
         rdf:resource="http://purl.org/dc/dcmitype/StillImage" /><dc:title /></cc:Work></rdf:RDF></metadata><defs
   id="defs29" /><sodipodi:namedview
   pagecolor="#ffffff"
   bordercolor="#666666"
   borderopacity="1"
   objecttolerance="10"
   gridtolerance="10"
   guidetolerance="10"
   inkscape:pageopacity="0"
   inkscape:pageshadow="2"
   inkscape:window-width="2400"
   inkscape:window-height="1271"
   id="namedview27"
   showgrid="false"
   inkscape:zoom="4"
   inkscape:cx="-73.549988"
   inkscape:cy="89.379394"
   inkscape:window-x="2391"
   inkscape:window-y="-9"
   inkscape:window-maximized="1"
   inkscape:current-layer="Calque_1"
   fit-margin-top="0"
   fit-margin-left="0"
   fit-margin-right="0"
   fit-margin-bottom="0" /><style
   type="text/css"
   id="style2">
	.st0{fill:#40637D;}
	.st1{fill:#FFFFFF;}
</style><g
   id="g6"
   transform="translate(0,-0.1)"><path
     class="st0"
     d="m -330,640.7 c 0,-38.3 31,-69.3 69.3,-69.3 38.3,0 69.3,31 69.3,69.3 0,38.3 -31,69.3 -69.3,69.3 -38.3,0 -69.3,-31 -69.3,-69.3"
     id="path4"
     inkscape:connector-curvature="0"
     style="fill:#40637d" /></g><g
   id="g24"
   transform="translate(-0.0437875,-6.09999)"><g
     id="g22"><path
       class="st1"
       d="m -235.3,620.9 -11.3,11.3 c -6.2,6.2 -16.3,6.2 -22.5,0 -1,-1 -1.7,-2.1 -2.4,-3.2 l 5.2,-5.2 c 0.2,-0.3 0.6,-0.4 0.8,-0.6 0.4,1.2 1,2.4 2,3.4 3.1,3.1 8.2,3.1 11.3,0 l 11.3,-11.3 c 3.1,-3.1 3.1,-8.2 0,-11.3 -3.1,-3.1 -8.2,-3.1 -11.3,0 l -4,4 c -3.2,-1.3 -6.7,-1.6 -10.2,-1.1 l 8.5,-8.5 c 6.2,-6.2 16.3,-6.2 22.5,0 6.3,6.2 6.3,16.3 0.1,22.5 m -29.8,18.6 -4,4 c -3.1,3.1 -8.2,3.1 -11.3,0 -3.1,-3.1 -3.1,-8.2 0,-11.3 l 11.3,-11.3 c 3.1,-3.1 8.2,-3.1 11.3,0 1,1 1.6,2.1 2,3.4 0.3,-0.2 0.6,-0.3 0.8,-0.6 l 5.2,-5.2 c -0.7,-1.1 -1.4,-2.2 -2.4,-3.2 -6.2,-6.2 -16.3,-6.2 -22.5,0 l -11.3,11.3 c -6.2,6.2 -6.2,16.3 0,22.5 6.2,6.2 16.3,6.2 22.5,0 l 8.5,-8.5 c -3.4,0.5 -6.9,0.1 -10.1,-1.1"
       id="path20"
       inkscape:connector-curvature="0"
       style="fill:#ffffff" /></g></g><g
   aria-label="Партнери 
и линкови"
   style="font-style:normal;font-variant:normal;font-weight:normal;font-stretch:normal;font-size:15.92933273px;line-height:1.25;font-family:KonsensMedium;-inkscape-font-specification:'KonsensMedium, Normal';font-variant-ligatures:normal;font-variant-caps:normal;font-variant-numeric:normal;font-feature-settings:normal;text-align:center;letter-spacing:0px;word-spacing:0px;writing-mode:lr-tb;text-anchor:middle;fill:#ffffff;fill-opacity:1;stroke:none"
   id="text35"><path
     d="m -289.87525,669.09723 h -1.54004 v -10.21251 h -5.77905 v 10.21251 h -1.54004 V 657.5158 h 8.85913 z"
     style=""
     id="path820" /><path
     d="m -280.12164,669.09723 h -1.45449 v -0.92558 q -0.19445,0.13222 -0.5289,0.37334 -0.32668,0.23334 -0.6378,0.37335 -0.36556,0.17889 -0.84002,0.29556 -0.47446,0.12445 -1.11225,0.12445 -1.17448,0 -1.99117,-0.7778 -0.81669,-0.7778 -0.81669,-1.98339 0,-0.98781 0.42001,-1.59449 0.42779,-0.61446 1.21337,-0.96447 0.79336,-0.35001 1.90561,-0.47446 1.11225,-0.12445 2.38784,-0.18667 v -0.22556 q 0,-0.49779 -0.17889,-0.82447 -0.17112,-0.32668 -0.49779,-0.51335 -0.31112,-0.17889 -0.74669,-0.24112 -0.43557,-0.0622 -0.91003,-0.0622 -0.57557,0 -1.28336,0.15556 -0.7078,0.14778 -1.46227,0.43557 h -0.0778 v -1.4856 q 0.42779,-0.11667 1.2367,-0.25667 0.80892,-0.14001 1.59449,-0.14001 0.91781,0 1.59449,0.15556 0.68446,0.14779 1.18226,0.51335 0.49001,0.35779 0.74668,0.92558 0.25668,0.5678 0.25668,1.40782 z m -1.45449,-2.13895 v -2.41896 q -0.6689,0.0389 -1.57893,0.11667 -0.90225,0.0778 -1.43115,0.22557 -0.63002,0.17889 -1.01892,0.56001 -0.3889,0.37335 -0.3889,1.03447 0,0.74669 0.45113,1.12781 0.45112,0.37335 1.3767,0.37335 0.77002,0 1.40782,-0.29557 0.63779,-0.30334 1.18225,-0.72335 z"
     style=""
     id="path822" /><path
     d="m -269.64468,664.64822 q 0,1.0578 -0.30335,1.93672 -0.30334,0.87113 -0.85557,1.47782 -0.51335,0.57557 -1.21337,0.89447 -0.69224,0.31111 -1.47004,0.31111 -0.67669,0 -1.22893,-0.14778 -0.54446,-0.14778 -1.11225,-0.4589 v 3.6401 h -1.46226 v -11.89255 h 1.46226 v 0.91002 q 0.58335,-0.49001 1.3067,-0.81668 0.73114,-0.33446 1.5556,-0.33446 1.57116,0 2.44229,1.19003 0.87892,1.18226 0.87892,3.2901 z m -1.50893,0.0389 q 0,-1.57116 -0.53669,-2.34896 -0.53668,-0.7778 -1.64893,-0.7778 -0.63002,0 -1.26781,0.27223 -0.6378,0.27223 -1.22115,0.71558 v 4.92347 q 0.62224,0.28001 1.06559,0.38112 0.45112,0.10111 1.01891,0.10111 1.22115,0 1.90561,-0.82446 0.68447,-0.82447 0.68447,-2.44229 z"
     style=""
     id="path824" /><path
     d="m -260.98,661.69258 h -3.14231 v 7.40465 h -1.46226 v -7.40465 h -3.14231 v -1.28337 h 7.74688 z"
     style=""
     id="path826" /><path
     d="m -252.19086,669.09723 h -1.46227 v -3.91233 h -4.3479 v 3.91233 h -1.46226 v -8.68802 h 1.46226 v 3.51565 h 4.3479 v -3.51565 h 1.46227 z"
     style=""
     id="path828" /><path
     d="m -242.04836,664.90489 h -6.40129 q 0,0.80113 0.24112,1.40004 0.24112,0.59113 0.66113,0.97225 0.40446,0.37334 0.95669,0.56001 0.56002,0.18668 1.22893,0.18668 0.88669,0 1.78116,-0.35001 0.90224,-0.35779 1.28337,-0.70002 h 0.0778 v 1.59449 q -0.73891,0.31112 -1.50894,0.52112 -0.77002,0.21001 -1.61782,0.21001 -2.16228,0 -3.37565,-1.1667 -1.21336,-1.17448 -1.21336,-3.32898 0,-2.13117 1.15892,-3.38343 1.1667,-1.25226 3.06453,-1.25226 1.75782,0 2.70674,1.0267 0.95669,1.02669 0.95669,2.91674 z m -1.42337,-1.12003 q -0.008,-1.15114 -0.58335,-1.78116 -0.56779,-0.63002 -1.73449,-0.63002 -1.17448,0 -1.8745,0.69224 -0.69224,0.69224 -0.78558,1.71894 z"
     style=""
     id="path830" /><path
     d="m -232.18586,664.64822 q 0,1.0578 -0.30335,1.93672 -0.30334,0.87113 -0.85557,1.47782 -0.51335,0.57557 -1.21337,0.89447 -0.69224,0.31111 -1.47004,0.31111 -0.67669,0 -1.22893,-0.14778 -0.54446,-0.14778 -1.11225,-0.4589 v 3.6401 h -1.46226 v -11.89255 h 1.46226 v 0.91002 q 0.58335,-0.49001 1.3067,-0.81668 0.73114,-0.33446 1.5556,-0.33446 1.57116,0 2.44229,1.19003 0.87892,1.18226 0.87892,3.2901 z m -1.50893,0.0389 q 0,-1.57116 -0.53669,-2.34896 -0.53668,-0.7778 -1.64893,-0.7778 -0.63002,0 -1.26781,0.27223 -0.6378,0.27223 -1.22115,0.71558 v 4.92347 q 0.62224,0.28001 1.06559,0.38112 0.45112,0.10111 1.01891,0.10111 1.22115,0 1.90561,-0.82446 0.68447,-0.82447 0.68447,-2.44229 z"
     style=""
     id="path832" /><path
     d="m -222.58781,669.09723 h -1.44671 v -6.52574 l -4.55013,6.52574 h -1.32226 v -8.68802 h 1.44671 v 6.4324 l 4.50346,-6.4324 h 1.36893 z"
     style=""
     id="path834" /><path
     d="m -294.37871,689.16293 h -1.4467 v -6.52574 l -4.55013,6.52574 h -1.32226 v -8.68802 h 1.44671 v 6.4324 l 4.50346,-6.4324 h 1.36892 z"
     style=""
     id="path836" /><path
     d="m -278.88494,689.16293 h -1.46226 v -7.4591 h -3.24343 q -0.0233,0.64557 -0.0467,1.24448 -0.0233,0.5989 -0.0467,1.08114 -0.0544,1.29893 -0.1789,2.07672 -0.12445,0.77003 -0.32667,1.28337 -0.18667,0.48224 -0.42001,0.78558 -0.22557,0.29557 -0.49002,0.53668 -0.26445,0.23334 -0.59113,0.35001 -0.31889,0.11667 -0.70002,0.11667 -0.13222,0 -0.3889,-0.008 -0.24889,-0.008 -0.32667,-0.008 v -1.27559 h 0.0778 q 0.0622,0 0.17889,0.008 0.11667,0.008 0.19445,0.008 0.18667,0 0.38112,-0.0544 0.20223,-0.0544 0.34224,-0.20223 0.39667,-0.3889 0.63779,-1.31448 0.24112,-0.92558 0.3189,-2.67563 0.0311,-0.6378 0.0544,-1.50893 0.0311,-0.87892 0.0544,-1.67227 h 5.98128 z"
     style=""
     id="path838" /><path
     d="m -268.68021,689.16293 h -1.44671 v -6.52574 l -4.55013,6.52574 h -1.32225 v -8.68802 h 1.4467 v 6.4324 l 4.50346,-6.4324 h 1.36893 z"
     style=""
     id="path840" /><path
     d="m -258.52215,689.16293 h -1.46227 v -3.91233 h -4.34789 v 3.91233 h -1.46227 v -8.68802 h 1.46227 v 3.51565 h 4.34789 v -3.51565 h 1.46227 z"
     style=""
     id="path842" /><path
     d="m -247.81185,689.16293 h -1.91339 l -3.60899,-3.98234 h -0.79335 v 3.98234 h -1.46227 v -8.68802 h 1.46227 v 3.74899 q 0.72335,0 1.16669,-0.25667 0.44335,-0.26446 0.75447,-0.84003 0.10889,-0.21 0.21001,-0.44334 0.10889,-0.24112 0.21,-0.4589 0.40446,-0.87892 1.01114,-1.31449 0.60668,-0.43556 1.74227,-0.43556 h 0.66891 v 1.26003 h -0.64557 q -0.61447,0 -0.96448,0.26445 -0.34223,0.25668 -0.62224,0.91003 -0.31112,0.73113 -0.66112,1.0967 -0.34224,0.35778 -0.73114,0.54446 z"
     style=""
     id="path844" /><path
     d="m -238.82049,684.82281 q 0,2.12339 -1.08892,3.35231 -1.08892,1.22892 -2.91675,1.22892 -1.84338,0 -2.9323,-1.22892 -1.08114,-1.22892 -1.08114,-3.35231 0,-2.1234 1.08114,-3.35232 1.08892,-1.2367 2.9323,-1.2367 1.82783,0 2.91675,1.2367 1.08892,1.22892 1.08892,3.35232 z m -1.50893,0 q 0,-1.68783 -0.66113,-2.50452 -0.66113,-0.82447 -1.83561,-0.82447 -1.19003,0 -1.85116,0.82447 -0.65335,0.81669 -0.65335,2.50452 0,1.63337 0.66113,2.48118 0.66113,0.84002 1.84338,0.84002 1.1667,0 1.82783,-0.83225 0.66891,-0.84002 0.66891,-2.48895 z"
     style=""
     id="path846" /><path
     d="m -229.378,686.53396 q 0,0.63002 -0.25668,1.12004 -0.24889,0.49001 -0.69224,0.81669 -0.49779,0.36556 -1.08892,0.5289 -0.58335,0.16334 -1.54004,0.16334 h -3.59344 v -8.68802 h 3.3601 q 0.97225,0 1.46226,0.07 0.49779,0.0622 0.93336,0.28778 0.49001,0.25668 0.71558,0.66891 0.23334,0.41224 0.23334,0.97225 0,0.64557 -0.36557,1.12003 -0.36557,0.47446 -0.94114,0.73891 v 0.0778 q 0.77002,0.18667 1.26782,0.72336 0.50557,0.5289 0.50557,1.40003 z m -1.96784,-3.83455 q 0,-0.28 -0.12444,-0.50557 -0.11667,-0.22556 -0.36557,-0.35001 -0.32668,-0.16333 -0.73891,-0.17889 -0.40446,-0.0233 -1.00336,-0.0233 h -1.52449 v 2.38006 h 1.82783 q 0.57557,0 0.8478,-0.0389 0.28001,-0.0467 0.56002,-0.21778 0.29556,-0.18667 0.40445,-0.43557 0.11667,-0.25667 0.11667,-0.63002 z m 0.4589,3.84233 q 0,-0.42779 -0.14,-0.69224 -0.14,-0.27223 -0.61446,-0.49779 -0.29556,-0.14 -0.6378,-0.16334 -0.34223,-0.0311 -0.94891,-0.0311 h -1.8745 v 2.83897 h 1.38448 q 0.87114,0 1.33782,-0.0544 0.47446,-0.0622 0.81669,-0.25667 0.34223,-0.19445 0.50557,-0.47446 0.17111,-0.28001 0.17111,-0.66891 z"
     style=""
     id="path848" /><path
     d="m -219.74107,689.16293 h -1.44671 v -6.52574 l -4.55013,6.52574 h -1.32225 v -8.68802 h 1.4467 v 6.4324 l 4.50346,-6.4324 h 1.36893 z"
     style=""
     id="path850" /></g>





</svg>