<?xml version="1.0" encoding="UTF-8" standalone="no"?>
<!-- Generator: Adobe Illustrator 19.1.0, SVG Export Plug-In . SVG Version: 6.00 Build 0)  -->

<svg
   xmlns:dc="http://purl.org/dc/elements/1.1/"
   xmlns:cc="http://creativecommons.org/ns#"
   xmlns:rdf="http://www.w3.org/1999/02/22-rdf-syntax-ns#"
   xmlns:svg="http://www.w3.org/2000/svg"
   xmlns="http://www.w3.org/2000/svg"
   xmlns:sodipodi="http://sodipodi.sourceforge.net/DTD/sodipodi-0.dtd"
   xmlns:inkscape="http://www.inkscape.org/namespaces/inkscape"
   version="1.1"
   id="Calque_1"
   x="0px"
   y="0px"
   viewBox="-330 571.3 138.7 138.7"
   style="enable-background:new -330 571.3 138.7 138.7;"
   xml:space="preserve"
   sodipodi:docname="main_menu_logo_report_sighting-de.svg"
   inkscape:version="0.92.2 5c3e80d, 2017-08-06"><metadata
     id="metadata69"><rdf:RDF><cc:Work
         rdf:about=""><dc:format>image/svg+xml</dc:format><dc:type
           rdf:resource="http://purl.org/dc/dcmitype/StillImage" /><dc:title></dc:title></cc:Work></rdf:RDF></metadata><defs
     id="defs67" /><sodipodi:namedview
     pagecolor="#ffffff"
     bordercolor="#666666"
     borderopacity="1"
     objecttolerance="10"
     gridtolerance="10"
     guidetolerance="10"
     inkscape:pageopacity="0"
     inkscape:pageshadow="2"
     inkscape:window-width="2560"
     inkscape:window-height="1315"
     id="namedview65"
     showgrid="false"
     inkscape:zoom="0.5"
     inkscape:cx="43.998433"
     inkscape:cy="69.349998"
     inkscape:window-x="0"
     inkscape:window-y="1"
     inkscape:window-maximized="1"
     inkscape:current-layer="Calque_1" /><style
     type="text/css"
     id="style2">
	.st0{fill:#7A9C2B;}
	.st1{fill:#FFFFFF;}
</style><g
     id="g6"><path
       class="st0"
       d="M-330,640.7c0-38.3,31-69.3,69.3-69.3c38.3,0,69.3,31,69.3,69.3s-31,69.3-69.3,69.3   C-299,710-330,679-330,640.7"
       id="path4"
       style="fill:#7a9c2b;fill-opacity:1" /></g><g
     id="g62"><g
       id="g44"><path
         class="st1"
         d="M-246.4,604.3c-1.5-0.4-5.1-1-5.1-1s-4.9-3.9-9.2-3.9c-4.3,0-9.2,3.9-9.2,3.9s-3.6,0.6-5.1,1    c6.7,2.4,11.5,8.9,11.5,16.4c0,3.1-0.8,6-2.2,8.5h10c-1.4-2.5-2.2-5.4-2.2-8.5C-257.9,613.2-253.1,606.8-246.4,604.3"
         id="path42" /></g><g
       id="g48"><path
         class="st1"
         d="M-281.9,605.1c-9,0-16.3,7.3-16.3,16.3c0,9,7.3,16.3,16.3,16.3c9,0,16.3-7.3,16.3-16.3    S-272.9,605.1-281.9,605.1 M-281.9,631.7c-5.7,0-10.3-4.6-10.3-10.3c0-5.7,4.6-10.3,10.3-10.3c5.7,0,10.3,4.6,10.3,10.3    C-271.6,627-276.2,631.7-281.9,631.7"
         id="path46" /></g><g
       id="g52"><path
         class="st1"
         d="M-288.5,616.2c-2.2,2.9-2,6.9,0.3,9.5c-0.8-2.7-0.4-5.8,1.5-8.2c1.9-2.4,4.7-3.6,7.5-3.5    C-282.4,612.5-286.3,613.3-288.5,616.2"
         id="path50" /></g><g
       id="g56"><path
         class="st1"
         d="M-239.5,605.1c-9,0-16.3,7.3-16.3,16.3c0,9,7.3,16.3,16.3,16.3c9,0,16.3-7.3,16.3-16.3    S-230.5,605.1-239.5,605.1 M-239.5,631.7c-5.7,0-10.3-4.6-10.3-10.3c0-5.7,4.6-10.3,10.3-10.3c5.7,0,10.3,4.6,10.3,10.3    C-229.2,627-233.8,631.7-239.5,631.7"
         id="path54" /></g><g
       id="g60"><path
         class="st1"
         d="M-242.1,614c2.8-0.1,5.7,1.1,7.5,3.5c1.9,2.4,2.3,5.5,1.5,8.2c2.3-2.7,2.5-6.6,0.3-9.5    C-235,613.3-238.9,612.5-242.1,614"
         id="path58" /></g></g><g
     aria-label="Eine Sichtung
berichten"
     style="font-style:normal;font-variant:normal;font-weight:normal;font-stretch:normal;font-size:15.92933273px;line-height:1.25;font-family:KonsensMedium;-inkscape-font-specification:'KonsensMedium, Normal';font-variant-ligatures:normal;font-variant-caps:normal;font-variant-numeric:normal;font-feature-settings:normal;text-align:center;letter-spacing:0px;word-spacing:0px;writing-mode:lr-tb;text-anchor:middle;fill:#ffffff;fill-opacity:1;stroke:none"
     id="text73"><path
       d="m -303.7018,665.94495 h -7.7098 v -11.85143 h 7.66201 v 1.54515 h -5.92571 v 3.48852 h 5.30447 v 1.57701 h -5.30447 v 3.67967 h 5.9735 z"
       style=""
       id="path831" /><path
       d="m -299.98728,665.94495 h -1.64072 v -8.37883 h 1.64072 z m 0.11151,-11.11868 v 0.33452 q 0,0.36637 -0.2708,0.58938 -0.25487,0.22301 -0.6531,0.22301 -0.4301,0 -0.68496,-0.20708 -0.25487,-0.22301 -0.25487,-0.60531 v -0.33452 q 0,-0.3823 0.25487,-0.58938 0.25486,-0.22301 0.68496,-0.22301 0.39823,0 0.6531,0.22301 0.2708,0.22301 0.2708,0.58938 z"
       style=""
       id="path833" /><path
       d="m -290.55786,665.94495 h -1.62479 v -5.5912 q 0,-0.60531 -0.33452,-0.98762 -0.31858,-0.39823 -0.90797,-0.39823 -0.5416,0 -1.25842,0.41416 l -1.36992,0.8124 v 5.75049 h -1.59293 v -8.37883 h 1.577 v 1.09912 l 0.95576,-0.58938 q 0.93983,-0.58939 1.99117,-0.58939 1.17877,0 1.86373,0.73275 0.70089,0.73275 0.70089,1.94338 z"
       style=""
       id="path835" /><path
       d="m -281.33502,663.28475 v 0.0796 q 0,1.22656 -0.97169,1.97524 -0.97169,0.74868 -2.59648,0.74868 -1.6248,0 -2.64427,-0.84425 -1.01948,-0.86019 -1.01948,-2.34162 v -2.00709 q 0,-1.56108 1.01948,-2.50091 1.01947,-0.93983 2.62834,-0.93983 1.60886,0 2.61241,0.93983 1.00354,0.9239 1.00354,2.51684 v 1.41771 h -5.71863 v 0.47788 q 0,0.93983 0.57346,1.43364 0.58939,0.47788 1.54515,0.47788 2.02302,0 2.02302,-1.43364 z m -1.49736,-2.15046 v -0.25487 q 0,-0.98762 -0.55753,-1.51329 -0.54159,-0.5416 -1.52921,-0.5416 -0.98762,0 -1.54515,0.5416 -0.55753,0.5416 -0.55753,1.52922 v 0.23894 z"
       style=""
       id="path837" /><path
       d="m -265.92613,657.59798 h -1.78409 q 0,-2.18232 -2.62834,-2.18232 -1.22656,0 -1.89559,0.50974 -0.66903,0.49381 -0.66903,1.36992 0,0.62124 0.3823,1.01948 0.39824,0.3823 1.01948,0.57345 0.62125,0.19115 1.36992,0.31859 0.76461,0.12743 1.51329,0.33451 0.74868,0.19116 1.36992,0.50974 0.62125,0.30266 1.00355,0.95576 0.39823,0.65311 0.39823,1.59294 0,1.59293 -1.22655,2.53276 -1.21063,0.9239 -3.28145,0.9239 -2.1186,0 -3.3133,-0.90797 -1.17877,-0.9239 -1.17877,-2.69206 v -0.0956 h 1.78409 q 0,2.19824 2.72391,2.19824 1.29028,0 1.99117,-0.4938 0.71682,-0.50974 0.71682,-1.38586 0,-0.60531 -0.39823,-0.98762 -0.38231,-0.39823 -1.00355,-0.57345 -0.60532,-0.19115 -1.35399,-0.31859 -0.74868,-0.14336 -1.51329,-0.33451 -0.74868,-0.20709 -1.36992,-0.52567 -0.60532,-0.33452 -1.00355,-0.98762 -0.38231,-0.6531 -0.38231,-1.60886 0,-1.57701 1.16285,-2.50091 1.17877,-0.93983 3.16993,-0.93983 2.08675,0 3.23366,0.9239 1.16284,0.90797 1.16284,2.67613 z"
       style=""
       id="path839" /><path
       d="m -262.09289,665.94495 h -1.64072 v -8.37883 h 1.64072 z m 0.11151,-11.11868 v 0.33452 q 0,0.36637 -0.2708,0.58938 -0.25487,0.22301 -0.65311,0.22301 -0.43009,0 -0.68496,-0.20708 -0.25487,-0.22301 -0.25487,-0.60531 v -0.33452 q 0,-0.3823 0.25487,-0.58938 0.25487,-0.22301 0.68496,-0.22301 0.39824,0 0.65311,0.22301 0.2708,0.22301 0.2708,0.58938 z"
       style=""
       id="path841" /><path
       d="m -252.90241,662.83873 v 0.12743 q 0,1.49736 -0.95576,2.30975 -0.95576,0.8124 -2.59648,0.8124 -1.59293,0 -2.56462,-0.86018 -0.95576,-0.87612 -0.95576,-2.40533 v -2.1186 q 0,-1.51329 0.95576,-2.37347 0.97169,-0.87612 2.56462,-0.87612 1.64072,0 2.59648,0.8124 0.95576,0.79646 0.95576,2.29382 v 0.12744 h -1.56107 q 0,-1.81595 -1.99117,-1.81595 -1.92745,0 -1.92745,1.97524 v 1.83187 q 0,1.97524 1.92745,1.97524 1.99117,0 1.99117,-1.81594 z"
       style=""
       id="path843" /><path
       d="m -243.79656,665.94495 h -1.62479 v -5.5912 q 0,-0.62124 -0.33451,-1.00355 -0.33452,-0.3823 -0.90798,-0.3823 -0.54159,0 -1.25841,0.41416 l -1.36993,0.8124 v 5.75049 h -1.59293 v -11.85143 h 1.59293 v 4.57172 l 0.93983,-0.58938 q 0.98762,-0.58939 1.99117,-0.58939 1.17877,0 1.86373,0.73275 0.70089,0.73275 0.70089,1.94338 z"
       style=""
       id="path845" /><path
       d="m -236.8994,665.94495 h -1.05134 q -1.43364,0 -2.26196,-0.73275 -0.82833,-0.73275 -0.82833,-2.13453 v -4.10977 h -1.33806 v -1.40178 h 1.35399 v -2.26197 h 1.62479 v 2.26197 h 2.43719 v 1.40178 h -2.43719 v 4.03012 q 0,0.82833 0.36638,1.17877 0.3823,0.33452 1.17877,0.33452 h 0.95576 z"
       style=""
       id="path847" /><path
       d="m -228.22688,665.94495 h -1.577 v -1.09913 l -0.95576,0.58939 q -1.00355,0.60531 -1.99117,0.58938 -1.17877,0 -1.87966,-0.71682 -0.68496,-0.73275 -0.68496,-1.94338 v -5.79827 h 1.62479 v 5.60712 q 0,0.62125 0.33451,1.00355 0.33452,0.36638 0.90798,0.36638 0.54159,0 1.25841,-0.41417 l 1.36993,-0.81239 v -5.75049 h 1.59293 z"
       style=""
       id="path849" /><path
       d="m -218.84475,665.94495 h -1.62479 v -5.5912 q 0,-0.60531 -0.33452,-0.98762 -0.31859,-0.39823 -0.90797,-0.39823 -0.5416,0 -1.25842,0.41416 l -1.36992,0.8124 v 5.75049 h -1.59293 v -8.37883 h 1.577 v 1.09912 l 0.95576,-0.58938 q 0.93983,-0.58939 1.99117,-0.58939 1.17877,0 1.86373,0.73275 0.70089,0.73275 0.70089,1.94338 z"
       style=""
       id="path851" /><path
       d="m -212.07503,665.30777 h -2.86728 v 0.36638 q 0,1.0354 0.49381,1.52921 0.50974,0.50974 1.72036,0.50974 2.26197,0 2.26197,-1.33806 0,-0.58939 -0.41416,-0.82833 -0.39824,-0.23894 -1.1947,-0.23894 z m -1.48143,-3.67967 h 0.6531 q 1.78409,0 1.78409,-1.40178 0,-1.354 -1.60887,-1.354 h -0.78053 q -0.8124,0 -1.22656,0.31859 -0.41416,0.30266 -0.41416,1.08319 0,1.354 1.59293,1.354 z m 0.8124,1.22656 h -2.46905 q -0.63717,0 -0.63717,0.60531 0,0.58939 0.60531,0.58939 h 3.34516 q 2.97879,0 2.97879,2.27789 0,1.27435 -1.03541,1.95931 -1.03541,0.70089 -2.75578,0.70089 -3.67967,0 -3.67967,-3.23366 v -0.81239 q -0.82833,-0.38231 -0.82833,-1.48143 0,-0.63717 0.31859,-1.05134 0.31859,-0.41416 0.84425,-0.55752 -0.0637,-0.0478 -0.17522,-0.1593 -0.0956,-0.12743 -0.2708,-0.54159 -0.17522,-0.41417 -0.17522,-0.90797 0,-1.30621 0.8124,-1.99117 0.81239,-0.68496 2.19824,-0.68496 h 4.7788 v 1.38585 h -1.25841 q 0.49381,0.35044 0.49381,1.3062 0,1.21063 -0.84426,1.91152 -0.82832,0.68497 -2.24603,0.68497 z"
       style=""
       id="path853" /><path
       d="m -289.40472,682.95747 v -2.53276 q 0,-0.70089 -0.39824,-1.11505 -0.39823,-0.4301 -1.06726,-0.4301 -0.65311,0 -1.32214,0.35045 l -1.48143,0.84425 v 3.23366 l 1.48143,0.82832 q 0.70089,0.36638 1.32214,0.36638 0.66903,0 1.06726,-0.41416 0.39824,-0.4301 0.39824,-1.13099 z m -3.24959,2.46905 -1.03541,-0.55753 v 0.98762 h -1.56107 v -11.85142 h 1.577 v 4.508 l 1.01948,-0.57346 q 1.00355,-0.54159 1.99117,-0.54159 1.25842,0 2.03895,0.79646 0.79647,0.78054 0.79647,2.05489 v 2.86728 q 0,1.24248 -0.79647,2.05488 -0.79646,0.79647 -2.07081,0.79647 -0.95576,0 -1.95931,-0.5416 z"
       style=""
       id="path855" /><path
       d="m -278.72162,683.19641 v 0.0797 q 0,1.22656 -0.97169,1.97524 -0.97169,0.74868 -2.59648,0.74868 -1.62479,0 -2.64427,-0.84426 -1.01947,-0.86018 -1.01947,-2.34161 v -2.0071 q 0,-1.56107 1.01947,-2.5009 1.01948,-0.93983 2.62834,-0.93983 1.60886,0 2.61241,0.93983 1.00355,0.9239 1.00355,2.51683 v 1.41771 h -5.71863 v 0.47788 q 0,0.93983 0.57346,1.43364 0.58938,0.47788 1.54514,0.47788 2.02303,0 2.02303,-1.43364 z m -1.49736,-2.15046 v -0.25487 q 0,-0.98761 -0.55752,-1.51328 -0.5416,-0.5416 -1.52922,-0.5416 -0.98762,0 -1.54514,0.5416 -0.55753,0.5416 -0.55753,1.52921 v 0.23894 z"
       style=""
       id="path857" /><path
       d="m -274.98992,685.85661 h -1.6248 v -8.37883 h 1.59294 v 1.27435 l 0.3823,-0.3823 q 1.00355,-0.92391 2.18232,-0.92391 h 0.43009 v 1.65666 h -0.41416 q -1.0832,0 -1.8478,0.63717 l -0.70089,0.57345 z"
       style=""
       id="path859" /><path
       d="m -268.96863,685.85661 h -1.64073 v -8.37883 h 1.64073 z m 0.1115,-11.11867 v 0.33451 q 0,0.36638 -0.2708,0.58939 -0.25487,0.22301 -0.6531,0.22301 -0.43009,0 -0.68496,-0.20708 -0.25487,-0.22301 -0.25487,-0.60532 v -0.33451 q 0,-0.38231 0.25487,-0.58939 0.25487,-0.22301 0.68496,-0.22301 0.39823,0 0.6531,0.22301 0.2708,0.22301 0.2708,0.58939 z"
       style=""
       id="path861" /><path
       d="m -259.77816,682.75039 v 0.12744 q 0,1.49735 -0.95576,2.30975 -0.95576,0.8124 -2.59648,0.8124 -1.59293,0 -2.56462,-0.86019 -0.95576,-0.87611 -0.95576,-2.40533 v -2.1186 q 0,-1.51328 0.95576,-2.37347 0.97169,-0.87611 2.56462,-0.87611 1.64072,0 2.59648,0.81239 0.95576,0.79647 0.95576,2.29383 v 0.12743 h -1.56107 q 0,-1.81594 -1.99117,-1.81594 -1.92745,0 -1.92745,1.97524 v 1.83187 q 0,1.97524 1.92745,1.97524 1.99117,0 1.99117,-1.81595 z"
       style=""
       id="path863" /><path
       d="m -250.6723,685.85661 h -1.6248 v -5.59119 q 0,-0.62125 -0.33451,-1.00355 -0.33452,-0.38231 -0.90797,-0.38231 -0.5416,0 -1.25842,0.41417 l -1.36992,0.81239 v 5.75049 h -1.59294 v -11.85142 h 1.59294 v 4.57172 l 0.93983,-0.58939 q 0.98762,-0.58938 1.99116,-0.58938 1.17877,0 1.86374,0.73275 0.70089,0.73275 0.70089,1.94337 z"
       style=""
       id="path865" /><path
       d="m -243.77515,685.85661 h -1.05134 q -1.43364,0 -2.26196,-0.73275 -0.82833,-0.73275 -0.82833,-2.13453 v -4.10977 h -1.33806 v -1.40178 h 1.35399 v -2.26196 h 1.62479 v 2.26196 h 2.43719 v 1.40178 h -2.43719 v 4.03013 q 0,0.82832 0.36638,1.17877 0.3823,0.33451 1.17877,0.33451 h 0.95576 z"
       style=""
       id="path867" /><path
       d="m -235.10262,683.19641 v 0.0797 q 0,1.22656 -0.97169,1.97524 -0.97169,0.74868 -2.59648,0.74868 -1.6248,0 -2.64427,-0.84426 -1.01948,-0.86018 -1.01948,-2.34161 v -2.0071 q 0,-1.56107 1.01948,-2.5009 1.01947,-0.93983 2.62834,-0.93983 1.60886,0 2.61241,0.93983 1.00354,0.9239 1.00354,2.51683 v 1.41771 h -5.71863 v 0.47788 q 0,0.93983 0.57346,1.43364 0.58939,0.47788 1.54515,0.47788 2.02302,0 2.02302,-1.43364 z m -1.49736,-2.15046 v -0.25487 q 0,-0.98761 -0.55753,-1.51328 -0.5416,-0.5416 -1.52921,-0.5416 -0.98762,0 -1.54515,0.5416 -0.55753,0.5416 -0.55753,1.52921 v 0.23894 z"
       style=""
       id="path869" /><path
       d="m -225.90717,685.85661 h -1.62479 v -5.59119 q 0,-0.60532 -0.33451,-0.98762 -0.31859,-0.39824 -0.90798,-0.39824 -0.54159,0 -1.25841,0.41417 l -1.36993,0.81239 v 5.75049 h -1.59293 v -8.37883 h 1.577 v 1.09913 l 0.95576,-0.58939 q 0.93983,-0.58938 1.99117,-0.58938 1.17877,0 1.86373,0.73275 0.70089,0.73275 0.70089,1.94337 z"
       style=""
       id="path871" /></g></svg>