<?xml version="1.0" encoding="UTF-8" standalone="no"?>
<!-- Generator: Adobe Illustrator 19.1.0, SVG Export Plug-In . SVG Version: 6.00 Build 0)  -->

<svg
   xmlns:dc="http://purl.org/dc/elements/1.1/"
   xmlns:cc="http://creativecommons.org/ns#"
   xmlns:rdf="http://www.w3.org/1999/02/22-rdf-syntax-ns#"
   xmlns:svg="http://www.w3.org/2000/svg"
   xmlns="http://www.w3.org/2000/svg"
   xmlns:sodipodi="http://sodipodi.sourceforge.net/DTD/sodipodi-0.dtd"
   xmlns:inkscape="http://www.inkscape.org/namespaces/inkscape"
   version="1.1"
   id="Calque_1"
   x="0px"
   y="0px"
   viewBox="-330 571.3 138.7 138.7"
   style="enable-background:new -330 571.3 138.7 138.7;"
   xml:space="preserve"
   sodipodi:docname="main_menu_logo_species_records-es.svg"
   inkscape:version="0.92.4 (5da689c313, 2019-01-14)"><metadata
     id="metadata67"><rdf:RDF><cc:Work
         rdf:about=""><dc:format>image/svg+xml</dc:format><dc:type
           rdf:resource="http://purl.org/dc/dcmitype/StillImage" /><dc:title></dc:title></cc:Work></rdf:RDF></metadata><defs
     id="defs65"><clipPath
       clipPathUnits="userSpaceOnUse"
       id="clipPath955"><g
         id="use957"
         inkscape:label="Clip"><path
           inkscape:connector-curvature="0"
           d="m -425.9007,670.20735 h -7.7098 v -11.85142 h 7.66201 v 1.54514 h -5.92571 v 3.48852 h 5.30447 v 1.57701 h -5.30447 v 3.67967 h 5.9735 z"
           style="font-style:normal;font-variant:normal;font-weight:normal;font-stretch:normal;font-size:15.92933273px;line-height:1.25;font-family:KonsensMedium;-inkscape-font-specification:'KonsensMedium, Normal';font-variant-ligatures:normal;font-variant-caps:normal;font-variant-numeric:normal;font-feature-settings:normal;text-align:center;letter-spacing:0px;word-spacing:0px;writing-mode:lr-tb;text-anchor:middle;fill:#ffffff;fill-opacity:1;stroke:none"
           id="path959" /><path
           inkscape:connector-curvature="0"
           d="m -417.16844,664.50465 h -1.59293 q 0,-1.43364 -1.87966,-1.43364 -0.89205,0 -1.36993,0.31858 -0.46195,0.31859 -0.46195,0.84426 0,0.49381 0.39824,0.76461 0.39823,0.2708 0.98761,0.33451 0.58939,0.0637 1.27435,0.19115 0.70089,0.12744 1.29028,0.30266 0.58938,0.1593 0.98762,0.6531 0.39823,0.49381 0.39823,1.29028 0,1.17877 -0.93983,1.87966 -0.93983,0.68496 -2.58055,0.68496 -1.65665,0 -2.61241,-0.74868 -0.93983,-0.74867 -0.93983,-1.97523 v -0.0797 h 1.64072 q 0,1.44957 1.94338,1.44957 0.9239,0 1.41771,-0.30266 0.50973,-0.31858 0.50973,-0.84425 0,-0.52567 -0.55752,-0.76461 -0.5416,-0.23894 -1.32214,-0.33452 -0.78053,-0.0956 -1.577,-0.25487 -0.78054,-0.15929 -1.33806,-0.70089 -0.5416,-0.55752 -0.5416,-1.51328 0,-1.17877 0.90797,-1.86373 0.9239,-0.68497 2.51683,-0.68497 1.64073,0 2.53277,0.74868 0.90797,0.73275 0.90797,1.97524 z"
           style="font-style:normal;font-variant:normal;font-weight:normal;font-stretch:normal;font-size:15.92933273px;line-height:1.25;font-family:KonsensMedium;-inkscape-font-specification:'KonsensMedium, Normal';font-variant-ligatures:normal;font-variant-caps:normal;font-variant-numeric:normal;font-feature-settings:normal;text-align:center;letter-spacing:0px;word-spacing:0px;writing-mode:lr-tb;text-anchor:middle;fill:#ffffff;fill-opacity:1;stroke:none"
           id="path961" /><path
           inkscape:connector-curvature="0"
           d="m -409.33245,667.27635 v -2.53276 q 0,-0.70089 -0.39824,-1.11506 -0.39823,-0.43009 -1.06726,-0.43009 -0.66903,0 -1.32213,0.36638 l -1.48143,0.82832 v 3.23366 l 1.48143,0.82832 q 0.6531,0.36638 1.32213,0.36638 0.66903,0 1.06726,-0.41417 0.39824,-0.43009 0.39824,-1.13098 z m -4.26906,5.862 h -1.57701 v -11.30983 h 1.56108 v 1.01948 l 1.0354,-0.57346 q 0.95576,-0.5416 1.99117,-0.5416 1.25842,0 2.03896,0.78054 0.79646,0.78054 0.79646,2.03896 v 2.86728 q 0,1.25841 -0.79646,2.07081 -0.79647,0.79647 -2.05489,0.79647 -1.01948,0 -1.97524,-0.5416 l -1.01947,-0.57346 z"
           style="font-style:normal;font-variant:normal;font-weight:normal;font-stretch:normal;font-size:15.92933273px;line-height:1.25;font-family:KonsensMedium;-inkscape-font-specification:'KonsensMedium, Normal';font-variant-ligatures:normal;font-variant-caps:normal;font-variant-numeric:normal;font-feature-settings:normal;text-align:center;letter-spacing:0px;word-spacing:0px;writing-mode:lr-tb;text-anchor:middle;fill:#ffffff;fill-opacity:1;stroke:none"
           id="path963" /><path
           inkscape:connector-curvature="0"
           d="m -398.64935,667.54715 v 0.0797 q 0,1.22656 -0.97169,1.97523 -0.97169,0.74868 -2.59648,0.74868 -1.62479,0 -2.64427,-0.84425 -1.01947,-0.86019 -1.01947,-2.34161 v -2.0071 q 0,-1.56107 1.01947,-2.50091 1.01948,-0.93983 2.62834,-0.93983 1.60887,0 2.61241,0.93983 1.00355,0.92391 1.00355,2.51684 v 1.41771 h -5.71863 v 0.47788 q 0,0.93983 0.57346,1.43364 0.58938,0.47788 1.54514,0.47788 2.02303,0 2.02303,-1.43364 z m -1.49735,-2.15046 v -0.25487 q 0,-0.98762 -0.55753,-1.51329 -0.5416,-0.54159 -1.52922,-0.54159 -0.98762,0 -1.54514,0.54159 -0.55753,0.5416 -0.55753,1.52922 v 0.23894 z"
           style="font-style:normal;font-variant:normal;font-weight:normal;font-stretch:normal;font-size:15.92933273px;line-height:1.25;font-family:KonsensMedium;-inkscape-font-specification:'KonsensMedium, Normal';font-variant-ligatures:normal;font-variant-caps:normal;font-variant-numeric:normal;font-feature-settings:normal;text-align:center;letter-spacing:0px;word-spacing:0px;writing-mode:lr-tb;text-anchor:middle;fill:#ffffff;fill-opacity:1;stroke:none"
           id="path965" /><path
           inkscape:connector-curvature="0"
           d="m -389.69283,667.10113 v 0.12743 q 0,1.49736 -0.95576,2.30976 -0.95576,0.81239 -2.59648,0.81239 -1.59293,0 -2.56462,-0.86018 -0.95576,-0.87611 -0.95576,-2.40533 v -2.1186 q 0,-1.51329 0.95576,-2.37347 0.97169,-0.87612 2.56462,-0.87612 1.64072,0 2.59648,0.8124 0.95576,0.79647 0.95576,2.29382 v 0.12744 h -1.56107 q 0,-1.81595 -1.99117,-1.81595 -1.92745,0 -1.92745,1.97524 v 1.83188 q 0,1.97523 1.92745,1.97523 1.99117,0 1.99117,-1.81594 z"
           style="font-style:normal;font-variant:normal;font-weight:normal;font-stretch:normal;font-size:15.92933273px;line-height:1.25;font-family:KonsensMedium;-inkscape-font-specification:'KonsensMedium, Normal';font-variant-ligatures:normal;font-variant-caps:normal;font-variant-numeric:normal;font-feature-settings:normal;text-align:center;letter-spacing:0px;word-spacing:0px;writing-mode:lr-tb;text-anchor:middle;fill:#ffffff;fill-opacity:1;stroke:none"
           id="path967" /><path
           inkscape:connector-curvature="0"
           d="m -386.00295,670.20735 h -1.64072 v -8.37883 h 1.64072 z m 0.11151,-11.11868 v 0.33452 q 0,0.36638 -0.2708,0.58939 -0.25487,0.22301 -0.65311,0.22301 -0.43009,0 -0.68496,-0.20708 -0.25487,-0.22302 -0.25487,-0.60532 v -0.33452 q 0,-0.3823 0.25487,-0.58938 0.25487,-0.22301 0.68496,-0.22301 0.39824,0 0.65311,0.22301 0.2708,0.22301 0.2708,0.58938 z"
           style="font-style:normal;font-variant:normal;font-weight:normal;font-stretch:normal;font-size:15.92933273px;line-height:1.25;font-family:KonsensMedium;-inkscape-font-specification:'KonsensMedium, Normal';font-variant-ligatures:normal;font-variant-caps:normal;font-variant-numeric:normal;font-feature-settings:normal;text-align:center;letter-spacing:0px;word-spacing:0px;writing-mode:lr-tb;text-anchor:middle;fill:#ffffff;fill-opacity:1;stroke:none"
           id="path969" /><path
           inkscape:connector-curvature="0"
           d="m -376.65318,667.54715 v 0.0797 q 0,1.22656 -0.97169,1.97523 -0.97169,0.74868 -2.59648,0.74868 -1.62479,0 -2.64427,-0.84425 -1.01947,-0.86019 -1.01947,-2.34161 v -2.0071 q 0,-1.56107 1.01947,-2.50091 1.01948,-0.93983 2.62834,-0.93983 1.60887,0 2.61241,0.93983 1.00355,0.92391 1.00355,2.51684 v 1.41771 h -5.71863 v 0.47788 q 0,0.93983 0.57346,1.43364 0.58938,0.47788 1.54514,0.47788 2.02303,0 2.02303,-1.43364 z m -1.49735,-2.15046 v -0.25487 q 0,-0.98762 -0.55753,-1.51329 -0.5416,-0.54159 -1.52922,-0.54159 -0.98762,0 -1.54514,0.54159 -0.55753,0.5416 -0.55753,1.52922 v 0.23894 z"
           style="font-style:normal;font-variant:normal;font-weight:normal;font-stretch:normal;font-size:15.92933273px;line-height:1.25;font-family:KonsensMedium;-inkscape-font-specification:'KonsensMedium, Normal';font-variant-ligatures:normal;font-variant-caps:normal;font-variant-numeric:normal;font-feature-settings:normal;text-align:center;letter-spacing:0px;word-spacing:0px;writing-mode:lr-tb;text-anchor:middle;fill:#ffffff;fill-opacity:1;stroke:none"
           id="path971" /><path
           inkscape:connector-curvature="0"
           d="m -367.85595,664.50465 h -1.59294 q 0,-1.43364 -1.87966,-1.43364 -0.89204,0 -1.36992,0.31858 -0.46195,0.31859 -0.46195,0.84426 0,0.49381 0.39823,0.76461 0.39824,0.2708 0.98762,0.33451 0.58939,0.0637 1.27435,0.19115 0.70089,0.12744 1.29027,0.30266 0.58939,0.1593 0.98762,0.6531 0.39824,0.49381 0.39824,1.29028 0,1.17877 -0.93983,1.87966 -0.93984,0.68496 -2.58056,0.68496 -1.65665,0 -2.61241,-0.74868 -0.93983,-0.74867 -0.93983,-1.97523 v -0.0797 h 1.64072 q 0,1.44957 1.94338,1.44957 0.9239,0 1.41771,-0.30266 0.50974,-0.31858 0.50974,-0.84425 0,-0.52567 -0.55753,-0.76461 -0.54159,-0.23894 -1.32213,-0.33452 -0.78054,-0.0956 -1.577,-0.25487 -0.78054,-0.15929 -1.33807,-0.70089 -0.5416,-0.55752 -0.5416,-1.51328 0,-1.17877 0.90798,-1.86373 0.9239,-0.68497 2.51683,-0.68497 1.64072,0 2.53277,0.74868 0.90797,0.73275 0.90797,1.97524 z"
           style="font-style:normal;font-variant:normal;font-weight:normal;font-stretch:normal;font-size:15.92933273px;line-height:1.25;font-family:KonsensMedium;-inkscape-font-specification:'KonsensMedium, Normal';font-variant-ligatures:normal;font-variant-caps:normal;font-variant-numeric:normal;font-feature-settings:normal;text-align:center;letter-spacing:0px;word-spacing:0px;writing-mode:lr-tb;text-anchor:middle;fill:#ffffff;fill-opacity:1;stroke:none"
           id="path973" /><path
           inkscape:connector-curvature="0"
           d="m -434.33541,690.11901 h -1.64072 v -8.37882 h 1.64072 z m 0.11151,-11.11867 v 0.33452 q 0,0.36637 -0.2708,0.58938 -0.25487,0.22301 -0.6531,0.22301 -0.43009,0 -0.68496,-0.20708 -0.25487,-0.22301 -0.25487,-0.60531 v -0.33452 q 0,-0.3823 0.25487,-0.58939 0.25487,-0.22301 0.68496,-0.22301 0.39823,0 0.6531,0.22301 0.2708,0.22302 0.2708,0.58939 z"
           style="font-style:normal;font-variant:normal;font-weight:normal;font-stretch:normal;font-size:15.92933273px;line-height:1.25;font-family:KonsensMedium;-inkscape-font-specification:'KonsensMedium, Normal';font-variant-ligatures:normal;font-variant-caps:normal;font-variant-numeric:normal;font-feature-settings:normal;text-align:center;letter-spacing:0px;word-spacing:0px;writing-mode:lr-tb;text-anchor:middle;fill:#ffffff;fill-opacity:1;stroke:none"
           id="path975" /><path
           inkscape:connector-curvature="0"
           d="m -424.90599,690.11901 h -1.62479 v -5.59119 q 0,-0.60532 -0.33452,-0.98762 -0.31858,-0.39823 -0.90797,-0.39823 -0.5416,0 -1.25842,0.41416 l -1.36992,0.8124 v 5.75048 h -1.59293 v -8.37882 h 1.577 v 1.09912 l 0.95576,-0.58939 q 0.93983,-0.58938 1.99117,-0.58938 1.17877,0 1.86373,0.73275 0.70089,0.73275 0.70089,1.94338 z"
           style="font-style:normal;font-variant:normal;font-weight:normal;font-stretch:normal;font-size:15.92933273px;line-height:1.25;font-family:KonsensMedium;-inkscape-font-specification:'KonsensMedium, Normal';font-variant-ligatures:normal;font-variant-caps:normal;font-variant-numeric:normal;font-feature-settings:normal;text-align:center;letter-spacing:0px;word-spacing:0px;writing-mode:lr-tb;text-anchor:middle;fill:#ffffff;fill-opacity:1;stroke:none"
           id="path977" /><path
           inkscape:connector-curvature="0"
           d="m -418.75751,690.11901 h -1.81595 l -2.99471,-8.37882 h 1.76815 l 2.16639,6.54695 2.19825,-6.54695 h 1.67258 z"
           style="font-style:normal;font-variant:normal;font-weight:normal;font-stretch:normal;font-size:15.92933273px;line-height:1.25;font-family:KonsensMedium;-inkscape-font-specification:'KonsensMedium, Normal';font-variant-ligatures:normal;font-variant-caps:normal;font-variant-numeric:normal;font-feature-settings:normal;text-align:center;letter-spacing:0px;word-spacing:0px;writing-mode:lr-tb;text-anchor:middle;fill:#ffffff;fill-opacity:1;stroke:none"
           id="path979" /><path
           inkscape:connector-curvature="0"
           d="m -409.00179,687.64997 v -1.06727 h -2.50091 q -1.59293,0 -1.59293,1.21063 0,0.49381 0.28673,0.78054 0.28672,0.2708 0.81239,0.2708 0.78054,0 1.62479,-0.46195 z m 1.59293,2.46904 h -1.59293 v -1.08319 l -0.92391,0.50974 q -1.24248,0.66903 -2.34161,0.66903 -1.09912,0 -1.78408,-0.6531 -0.66903,-0.6531 -0.66903,-1.70444 0,-1.22656 0.84425,-1.87966 0.86018,-0.6531 2.19825,-0.6531 h 2.69206 v -0.52567 q 0,-1.83188 -1.92745,-1.83188 -2.03896,0 -2.03896,1.64073 h -1.577 v -0.0797 q 0,-1.36992 0.98762,-2.15046 1.00354,-0.78054 2.61241,-0.78054 1.65665,0 2.58055,0.82833 0.93983,0.81239 0.93983,2.29382 z"
           style="font-style:normal;font-variant:normal;font-weight:normal;font-stretch:normal;font-size:15.92933273px;line-height:1.25;font-family:KonsensMedium;-inkscape-font-specification:'KonsensMedium, Normal';font-variant-ligatures:normal;font-variant-caps:normal;font-variant-numeric:normal;font-feature-settings:normal;text-align:center;letter-spacing:0px;word-spacing:0px;writing-mode:lr-tb;text-anchor:middle;fill:#ffffff;fill-opacity:1;stroke:none"
           id="path981" /><path
           inkscape:connector-curvature="0"
           d="m -398.57903,684.41631 h -1.59294 q 0,-1.43364 -1.87966,-1.43364 -0.89204,0 -1.36992,0.31859 -0.46195,0.31859 -0.46195,0.84425 0,0.49381 0.39823,0.76461 0.39824,0.2708 0.98762,0.33452 0.58939,0.0637 1.27435,0.19115 0.70089,0.12744 1.29027,0.30266 0.58939,0.15929 0.98762,0.6531 0.39824,0.49381 0.39824,1.29028 0,1.17877 -0.93983,1.87966 -0.93984,0.68496 -2.58056,0.68496 -1.65665,0 -2.61241,-0.74868 -0.93983,-0.74868 -0.93983,-1.97524 v -0.0796 h 1.64072 q 0,1.44957 1.94338,1.44957 0.9239,0 1.41771,-0.30266 0.50974,-0.31859 0.50974,-0.84426 0,-0.52566 -0.55753,-0.7646 -0.54159,-0.23894 -1.32213,-0.33452 -0.78054,-0.0956 -1.577,-0.25487 -0.78054,-0.15929 -1.33807,-0.70089 -0.54159,-0.55753 -0.54159,-1.51329 0,-1.17877 0.90797,-1.86373 0.9239,-0.68496 2.51683,-0.68496 1.64072,0 2.53277,0.74868 0.90797,0.73275 0.90797,1.97524 z"
           style="font-style:normal;font-variant:normal;font-weight:normal;font-stretch:normal;font-size:15.92933273px;line-height:1.25;font-family:KonsensMedium;-inkscape-font-specification:'KonsensMedium, Normal';font-variant-ligatures:normal;font-variant-caps:normal;font-variant-numeric:normal;font-feature-settings:normal;text-align:center;letter-spacing:0px;word-spacing:0px;writing-mode:lr-tb;text-anchor:middle;fill:#ffffff;fill-opacity:1;stroke:none"
           id="path983" /><path
           inkscape:connector-curvature="0"
           d="m -390.91827,686.69421 v -1.48143 q 0,-1.01948 -0.60531,-1.59293 -0.58939,-0.57346 -1.56108,-0.57346 -0.98762,0 -1.577,0.57346 -0.58939,0.57345 -0.58939,1.59293 v 1.48143 q 0,1.01948 0.58939,1.60886 0.58938,0.57346 1.577,0.57346 0.97169,0 1.56108,-0.57346 0.60531,-0.57346 0.60531,-1.60886 z m 1.56108,-1.62479 v 1.78408 q 0,1.56108 -1.05134,2.50091 -1.03541,0.93983 -2.67613,0.93983 -1.64072,0 -2.69205,-0.93983 -1.03541,-0.93983 -1.03541,-2.50091 v -1.78408 q 0,-1.56108 1.03541,-2.50091 1.05133,-0.93983 2.69205,-0.93983 1.64072,0 2.67613,0.93983 1.05134,0.93983 1.05134,2.50091 z"
           style="font-style:normal;font-variant:normal;font-weight:normal;font-stretch:normal;font-size:15.92933273px;line-height:1.25;font-family:KonsensMedium;-inkscape-font-specification:'KonsensMedium, Normal';font-variant-ligatures:normal;font-variant-caps:normal;font-variant-numeric:normal;font-feature-settings:normal;text-align:center;letter-spacing:0px;word-spacing:0px;writing-mode:lr-tb;text-anchor:middle;fill:#ffffff;fill-opacity:1;stroke:none"
           id="path985" /><path
           inkscape:connector-curvature="0"
           d="m -385.66184,690.11901 h -1.62479 v -8.37882 h 1.59294 v 1.27434 l 0.3823,-0.3823 q 1.00355,-0.9239 2.18232,-0.9239 h 0.43009 v 1.65665 h -0.41416 q -1.0832,0 -1.8478,0.63717 l -0.7009,0.57346 z"
           style="font-style:normal;font-variant:normal;font-weight:normal;font-stretch:normal;font-size:15.92933273px;line-height:1.25;font-family:KonsensMedium;-inkscape-font-specification:'KonsensMedium, Normal';font-variant-ligatures:normal;font-variant-caps:normal;font-variant-numeric:normal;font-feature-settings:normal;text-align:center;letter-spacing:0px;word-spacing:0px;writing-mode:lr-tb;text-anchor:middle;fill:#ffffff;fill-opacity:1;stroke:none"
           id="path987" /><path
           inkscape:connector-curvature="0"
           d="m -375.96087,687.64997 v -1.06727 h -2.50091 q -1.59293,0 -1.59293,1.21063 0,0.49381 0.28673,0.78054 0.28673,0.2708 0.81239,0.2708 0.78054,0 1.6248,-0.46195 z m 1.59293,2.46904 h -1.59293 v -1.08319 l -0.9239,0.50974 q -1.24249,0.66903 -2.34162,0.66903 -1.09912,0 -1.78408,-0.6531 -0.66903,-0.6531 -0.66903,-1.70444 0,-1.22656 0.84425,-1.87966 0.86019,-0.6531 2.19825,-0.6531 h 2.69206 v -0.52567 q 0,-1.83188 -1.92745,-1.83188 -2.03896,0 -2.03896,1.64073 h -1.577 v -0.0797 q 0,-1.36992 0.98762,-2.15046 1.00355,-0.78054 2.61241,-0.78054 1.65665,0 2.58055,0.82833 0.93983,0.81239 0.93983,2.29382 z"
           style="font-style:normal;font-variant:normal;font-weight:normal;font-stretch:normal;font-size:15.92933273px;line-height:1.25;font-family:KonsensMedium;-inkscape-font-specification:'KonsensMedium, Normal';font-variant-ligatures:normal;font-variant-caps:normal;font-variant-numeric:normal;font-feature-settings:normal;text-align:center;letter-spacing:0px;word-spacing:0px;writing-mode:lr-tb;text-anchor:middle;fill:#ffffff;fill-opacity:1;stroke:none"
           id="path989" /><path
           inkscape:connector-curvature="0"
           d="m -365.53811,684.41631 h -1.59293 q 0,-1.43364 -1.87966,-1.43364 -0.89205,0 -1.36993,0.31859 -0.46195,0.31859 -0.46195,0.84425 0,0.49381 0.39824,0.76461 0.39823,0.2708 0.98761,0.33452 0.58939,0.0637 1.27435,0.19115 0.70089,0.12744 1.29028,0.30266 0.58938,0.15929 0.98761,0.6531 0.39824,0.49381 0.39824,1.29028 0,1.17877 -0.93983,1.87966 -0.93983,0.68496 -2.58055,0.68496 -1.65665,0 -2.61241,-0.74868 -0.93984,-0.74868 -0.93984,-1.97524 v -0.0796 h 1.64073 q 0,1.44957 1.94337,1.44957 0.92391,0 1.41772,-0.30266 0.50973,-0.31859 0.50973,-0.84426 0,-0.52566 -0.55752,-0.7646 -0.5416,-0.23894 -1.32214,-0.33452 -0.78053,-0.0956 -1.577,-0.25487 -0.78054,-0.15929 -1.33807,-0.70089 -0.54159,-0.55753 -0.54159,-1.51329 0,-1.17877 0.90797,-1.86373 0.9239,-0.68496 2.51683,-0.68496 1.64073,0 2.53277,0.74868 0.90797,0.73275 0.90797,1.97524 z"
           style="font-style:normal;font-variant:normal;font-weight:normal;font-stretch:normal;font-size:15.92933273px;line-height:1.25;font-family:KonsensMedium;-inkscape-font-specification:'KonsensMedium, Normal';font-variant-ligatures:normal;font-variant-caps:normal;font-variant-numeric:normal;font-feature-settings:normal;text-align:center;letter-spacing:0px;word-spacing:0px;writing-mode:lr-tb;text-anchor:middle;fill:#ffffff;fill-opacity:1;stroke:none"
           id="path991" /></g></clipPath></defs><sodipodi:namedview
     pagecolor="#ffffff"
     bordercolor="#666666"
     borderopacity="1"
     objecttolerance="10"
     gridtolerance="10"
     guidetolerance="10"
     inkscape:pageopacity="0"
     inkscape:pageshadow="2"
     inkscape:window-width="1920"
     inkscape:window-height="1017"
     id="namedview63"
     showgrid="false"
     inkscape:zoom="4"
     inkscape:cx="-35.810928"
     inkscape:cy="69.349998"
     inkscape:window-x="1912"
     inkscape:window-y="-8"
     inkscape:window-maximized="1"
     inkscape:current-layer="Calque_1" /><style
     type="text/css"
     id="style2">
	.st0{fill:#D3D501;}
	.st1{fill:#40637D;}
	.st2{fill:#FFFFFF;}
</style><g
     id="g6"
     transform="translate(0.608905)"><path
       class="st0"
       d="m -330,640.7 c 0,-38.3 31,-69.3 69.3,-69.3 38.3,0 69.3,31 69.3,69.3 0,38.3 -31,69.3 -69.3,69.3 -38.3,0 -69.3,-31 -69.3,-69.3"
       id="path4"
       inkscape:connector-curvature="0"
       style="fill:#d3d501" /></g><g
     id="g60"
     transform="translate(1.108905,1.549997)"><g
       id="g46"><path
         class="st2"
         d="m -249.7,639.4 c -0.4,0.6 -1.1,1.1 -1.9,1.3 l -3.7,1 c -0.3,0.1 -0.6,0.1 -0.9,0.1 -0.7,0 -1.4,-0.2 -1.9,-0.6 -0.8,-0.6 -1.3,-1.5 -1.4,-2.5 l -0.3,-3.9 c -0.1,-0.8 0.1,-1.6 0.6,-2.2 l 0.1,-0.2 h -13.4 c -1.1,0 -2,-0.9 -2,-2 0,-1.1 0.9,-2 2,-2 h 16.2 l 3.6,-5.2 h -19.8 c -1.1,0 -2,-0.9 -2,-2 0,-1.1 0.9,-2 2,-2 l 22.6,-0.1 8.5,-12.1 v -9 c 0,-1.5 -1.1,-2.7 -2.6,-2.7 h -6.5 v 5.1 c 0,2.4 -2,4.3 -4.4,4.3 h -13 c -2.4,0 -4.3,-1.9 -4.3,-4.3 v -5.1 h -6.5 c -1.5,0 -2.7,1.2 -2.7,2.7 v 45.9 c 0,1.5 1.2,2.7 2.7,2.7 h 34.8 c 1.5,0 2.6,-1.3 2.6,-2.7 v -16.4 z m -22.8,-29.1 h 22 c 1.1,0 2,0.9 2,2 0,1.1 -0.9,2 -2,2 h -22 c -1.1,0 -2,-0.9 -2,-2 0,-1.1 0.9,-2 2,-2"
         id="path44"
         inkscape:connector-curvature="0"
         style="fill:#ffffff" /></g><g
       id="g50"><path
         class="st2"
         d="m -268,602.5 h 13 c 1,0 1.8,-0.8 1.8,-1.8 v -7.5 c 0,-1 -0.8,-1.8 -1.8,-1.8 h -2 c 0,-2.5 -2.1,-4.6 -4.6,-4.6 -2.5,0 -4.6,2 -4.6,4.6 h -1.9 c -1,0 -1.8,0.8 -1.8,1.8 v 7.5 c 0.1,1 0.9,1.8 1.9,1.8 m 6.5,-13.1 c 1.1,0 2,0.9 2,2 h -4.1 c 0.1,-1.1 1,-2 2.1,-2"
         id="path48"
         inkscape:connector-curvature="0"
         style="fill:#ffffff" /></g><g
       id="g54"><path
         class="st2"
         d="m -225,598.9 c -0.1,-0.3 -0.2,-0.6 -0.5,-0.8 l -3.3,-2.3 c -0.2,-0.2 -0.5,-0.2 -0.7,-0.2 -0.4,0 -0.8,0.2 -1,0.5 l -23.1,33.1 5.3,3.7 23.1,-33.1 c 0.2,-0.2 0.2,-0.6 0.2,-0.9"
         id="path52"
         inkscape:connector-curvature="0"
         style="fill:#ffffff" /></g><g
       id="g58"><path
         class="st2"
         d="m -257.3,634.6 0.3,3.9 c 0,0.2 0.1,0.4 0.3,0.5 0.1,0.1 0.3,0.1 0.4,0.1 0.1,0 0.1,0 0.2,0 l 3.8,-1 c 0.2,0 0.3,-0.2 0.4,-0.3 l 1.4,-2 -5.3,-3.7 -1.4,2 c -0.1,0.2 -0.1,0.4 -0.1,0.5"
         id="path56"
         inkscape:connector-curvature="0"
         style="fill:#ffffff" /></g></g><g
     aria-label="Mis registros de especies"
     style="font-style:normal;font-variant:normal;font-weight:normal;font-stretch:normal;font-size:15.92933273px;line-height:1.25;font-family:KonsensMedium;-inkscape-font-specification:'KonsensMedium, Normal';font-variant-ligatures:normal;font-variant-caps:normal;font-variant-numeric:normal;font-feature-settings:normal;text-align:start;letter-spacing:0px;word-spacing:0px;writing-mode:lr-tb;text-anchor:start;fill:#000000;fill-opacity:1;stroke:none"
     id="text71"
     transform="translate(0,4.166375)"><path
       d="m -297.00048,664.66309 h -1.65665 v -9.57353 l -3.09029,9.57353 h -1.72037 l -3.05843,-9.5576 v 9.5576 h -1.64072 l 0.0159,-11.85143 h 2.62834 l 2.94693,9.57353 2.99471,-9.57353 h 2.58055 z"
       style="font-style:normal;font-variant:normal;font-weight:normal;font-stretch:normal;font-size:15.92933273px;font-family:KonsensMedium;-inkscape-font-specification:'KonsensMedium, Normal';font-variant-ligatures:normal;font-variant-caps:normal;font-variant-numeric:normal;font-feature-settings:normal;text-align:center;writing-mode:lr-tb;text-anchor:middle;fill:#40637d;fill-opacity:1"
       id="path826"
       inkscape:connector-curvature="0" /><path
       d="m -292.94696,664.66309 h -1.64072 v -8.37883 h 1.64072 z m 0.1115,-11.11868 v 0.33452 q 0,0.36637 -0.27079,0.58938 -0.25487,0.22301 -0.65311,0.22301 -0.43009,0 -0.68496,-0.20708 -0.25487,-0.22301 -0.25487,-0.60531 v -0.33452 q 0,-0.3823 0.25487,-0.58938 0.25487,-0.22301 0.68496,-0.22301 0.39824,0 0.65311,0.22301 0.27079,0.22301 0.27079,0.58938 z"
       style="font-style:normal;font-variant:normal;font-weight:normal;font-stretch:normal;font-size:15.92933273px;font-family:KonsensMedium;-inkscape-font-specification:'KonsensMedium, Normal';font-variant-ligatures:normal;font-variant-caps:normal;font-variant-numeric:normal;font-feature-settings:normal;text-align:center;writing-mode:lr-tb;text-anchor:middle;fill:#40637d;fill-opacity:1"
       id="path828"
       inkscape:connector-curvature="0" /><path
       d="m -283.91578,658.96038 h -1.59293 q 0,-1.43364 -1.87966,-1.43364 -0.89204,0 -1.36992,0.31859 -0.46195,0.31859 -0.46195,0.84426 0,0.49381 0.39823,0.7646 0.39823,0.2708 0.98762,0.33452 0.58938,0.0637 1.27435,0.19115 0.70089,0.12744 1.29027,0.30266 0.58939,0.15929 0.98762,0.6531 0.39823,0.49381 0.39823,1.29028 0,1.17877 -0.93983,1.87966 -0.93983,0.68496 -2.58055,0.68496 -1.65665,0 -2.61241,-0.74868 -0.93983,-0.74868 -0.93983,-1.97524 v -0.0796 h 1.64072 q 0,1.44957 1.94338,1.44957 0.9239,0 1.41771,-0.30266 0.50974,-0.31859 0.50974,-0.84425 0,-0.52567 -0.55753,-0.76461 -0.5416,-0.23894 -1.32213,-0.33452 -0.78054,-0.0956 -1.57701,-0.25487 -0.78053,-0.15929 -1.33806,-0.70089 -0.5416,-0.55753 -0.5416,-1.51329 0,-1.17877 0.90797,-1.86373 0.92391,-0.68496 2.51684,-0.68496 1.64072,0 2.53276,0.74868 0.90797,0.73275 0.90797,1.97524 z"
       style="font-style:normal;font-variant:normal;font-weight:normal;font-stretch:normal;font-size:15.92933273px;font-family:KonsensMedium;-inkscape-font-specification:'KonsensMedium, Normal';font-variant-ligatures:normal;font-variant-caps:normal;font-variant-numeric:normal;font-feature-settings:normal;text-align:center;writing-mode:lr-tb;text-anchor:middle;fill:#40637d;fill-opacity:1"
       id="path830"
       inkscape:connector-curvature="0" /><path
       d="m -275.69649,664.66309 h -1.62479 v -8.37883 h 1.59293 v 1.27434 l 0.38231,-0.3823 q 1.00354,-0.9239 2.18232,-0.9239 h 0.43009 v 1.65665 h -0.41417 q -1.08319,0 -1.8478,0.63717 l -0.70089,0.57346 z"
       style="font-style:normal;font-variant:normal;font-weight:normal;font-stretch:normal;font-size:15.92933273px;font-family:KonsensMedium;-inkscape-font-specification:'KonsensMedium, Normal';font-variant-ligatures:normal;font-variant-caps:normal;font-variant-numeric:normal;font-feature-settings:normal;text-align:center;writing-mode:lr-tb;text-anchor:middle;fill:#40637d;fill-opacity:1"
       id="path832"
       inkscape:connector-curvature="0" /><path
       d="m -264.33887,662.00289 v 0.0796 q 0,1.22656 -0.97169,1.97524 -0.97169,0.74868 -2.59648,0.74868 -1.6248,0 -2.64427,-0.84425 -1.01948,-0.86019 -1.01948,-2.34162 v -2.00709 q 0,-1.56108 1.01948,-2.50091 1.01947,-0.93983 2.62834,-0.93983 1.60886,0 2.61241,0.93983 1.00355,0.9239 1.00355,2.51684 v 1.41771 h -5.71863 v 0.47788 q 0,0.93983 0.57345,1.43364 0.58939,0.47788 1.54515,0.47788 2.02302,0 2.02302,-1.43364 z m -1.49736,-2.15046 v -0.25487 q 0,-0.98762 -0.55753,-1.51329 -0.54159,-0.5416 -1.52921,-0.5416 -0.98762,0 -1.54515,0.5416 -0.55752,0.5416 -0.55752,1.52922 v 0.23894 z"
       style="font-style:normal;font-variant:normal;font-weight:normal;font-stretch:normal;font-size:15.92933273px;font-family:KonsensMedium;-inkscape-font-specification:'KonsensMedium, Normal';font-variant-ligatures:normal;font-variant-caps:normal;font-variant-numeric:normal;font-feature-settings:normal;text-align:center;writing-mode:lr-tb;text-anchor:middle;fill:#40637d;fill-opacity:1"
       id="path834"
       inkscape:connector-curvature="0" /><path
       d="m -257.67618,664.02591 h -2.86728 v 0.36638 q 0,1.0354 0.49381,1.52921 0.50973,0.50974 1.72036,0.50974 2.26197,0 2.26197,-1.33806 0,-0.58939 -0.41416,-0.82833 -0.39824,-0.23894 -1.1947,-0.23894 z m -1.48143,-3.67967 h 0.6531 q 1.78409,0 1.78409,-1.40178 0,-1.354 -1.60887,-1.354 h -0.78053 q -0.8124,0 -1.22656,0.31859 -0.41416,0.30266 -0.41416,1.08319 0,1.354 1.59293,1.354 z m 0.81239,1.22656 h -2.46904 q -0.63718,0 -0.63718,0.60531 0,0.58939 0.60532,0.58939 h 3.34516 q 2.97878,0 2.97878,2.27789 0,1.27435 -1.0354,1.95931 -1.03541,0.70089 -2.75578,0.70089 -3.67967,0 -3.67967,-3.23366 v -0.81239 q -0.82833,-0.38231 -0.82833,-1.48143 0,-0.63717 0.31859,-1.05134 0.31859,-0.41416 0.84425,-0.55752 -0.0637,-0.0478 -0.17522,-0.1593 -0.0956,-0.12743 -0.2708,-0.54159 -0.17522,-0.41417 -0.17522,-0.90798 0,-1.3062 0.8124,-1.99116 0.81239,-0.68496 2.19824,-0.68496 h 4.7788 v 1.38585 h -1.25841 q 0.4938,0.35044 0.4938,1.3062 0,1.21063 -0.84425,1.91152 -0.82833,0.68497 -2.24604,0.68497 z"
       style="font-style:normal;font-variant:normal;font-weight:normal;font-stretch:normal;font-size:15.92933273px;font-family:KonsensMedium;-inkscape-font-specification:'KonsensMedium, Normal';font-variant-ligatures:normal;font-variant-caps:normal;font-variant-numeric:normal;font-feature-settings:normal;text-align:center;writing-mode:lr-tb;text-anchor:middle;fill:#40637d;fill-opacity:1"
       id="path836"
       inkscape:connector-curvature="0" /><path
       d="m -251.38136,664.66309 h -1.64072 v -8.37883 h 1.64072 z m 0.11151,-11.11868 v 0.33452 q 0,0.36637 -0.2708,0.58938 -0.25487,0.22301 -0.6531,0.22301 -0.4301,0 -0.68496,-0.20708 -0.25487,-0.22301 -0.25487,-0.60531 v -0.33452 q 0,-0.3823 0.25487,-0.58938 0.25486,-0.22301 0.68496,-0.22301 0.39823,0 0.6531,0.22301 0.2708,0.22301 0.2708,0.58938 z"
       style="font-style:normal;font-variant:normal;font-weight:normal;font-stretch:normal;font-size:15.92933273px;font-family:KonsensMedium;-inkscape-font-specification:'KonsensMedium, Normal';font-variant-ligatures:normal;font-variant-caps:normal;font-variant-numeric:normal;font-feature-settings:normal;text-align:center;writing-mode:lr-tb;text-anchor:middle;fill:#40637d;fill-opacity:1"
       id="path838"
       inkscape:connector-curvature="0" /><path
       d="m -242.35017,658.96038 h -1.59294 q 0,-1.43364 -1.87966,-1.43364 -0.89204,0 -1.36992,0.31859 -0.46195,0.31859 -0.46195,0.84426 0,0.49381 0.39823,0.7646 0.39823,0.2708 0.98762,0.33452 0.58939,0.0637 1.27435,0.19115 0.70089,0.12744 1.29027,0.30266 0.58939,0.15929 0.98762,0.6531 0.39823,0.49381 0.39823,1.29028 0,1.17877 -0.93983,1.87966 -0.93983,0.68496 -2.58055,0.68496 -1.65665,0 -2.61241,-0.74868 -0.93983,-0.74868 -0.93983,-1.97524 v -0.0796 h 1.64072 q 0,1.44957 1.94338,1.44957 0.9239,0 1.41771,-0.30266 0.50974,-0.31859 0.50974,-0.84425 0,-0.52567 -0.55753,-0.76461 -0.54159,-0.23894 -1.32213,-0.33452 -0.78054,-0.0956 -1.57701,-0.25487 -0.78053,-0.15929 -1.33806,-0.70089 -0.5416,-0.55753 -0.5416,-1.51329 0,-1.17877 0.90798,-1.86373 0.9239,-0.68496 2.51683,-0.68496 1.64072,0 2.53276,0.74868 0.90798,0.73275 0.90798,1.97524 z"
       style="font-style:normal;font-variant:normal;font-weight:normal;font-stretch:normal;font-size:15.92933273px;font-family:KonsensMedium;-inkscape-font-specification:'KonsensMedium, Normal';font-variant-ligatures:normal;font-variant-caps:normal;font-variant-numeric:normal;font-feature-settings:normal;text-align:center;writing-mode:lr-tb;text-anchor:middle;fill:#40637d;fill-opacity:1"
       id="path840"
       inkscape:connector-curvature="0" /><path
       d="m -235.67703,664.66309 h -1.05133 q -1.43364,0 -2.26197,-0.73275 -0.82832,-0.73275 -0.82832,-2.13453 v -4.10977 h -1.33807 v -1.40178 h 1.354 v -2.26197 h 1.62479 v 2.26197 h 2.43719 v 1.40178 h -2.43719 v 4.03012 q 0,0.82832 0.36637,1.17877 0.38231,0.33452 1.17877,0.33452 h 0.95576 z"
       style="font-style:normal;font-variant:normal;font-weight:normal;font-stretch:normal;font-size:15.92933273px;font-family:KonsensMedium;-inkscape-font-specification:'KonsensMedium, Normal';font-variant-ligatures:normal;font-variant-caps:normal;font-variant-numeric:normal;font-feature-settings:normal;text-align:center;writing-mode:lr-tb;text-anchor:middle;fill:#40637d;fill-opacity:1"
       id="path842"
       inkscape:connector-curvature="0" /><path
       d="m -232.38862,664.66309 h -1.62479 v -8.37883 h 1.59293 v 1.27434 l 0.38231,-0.3823 q 1.00355,-0.9239 2.18232,-0.9239 h 0.43009 v 1.65665 h -0.41416 q -1.0832,0 -1.84781,0.63717 l -0.70089,0.57346 z"
       style="font-style:normal;font-variant:normal;font-weight:normal;font-stretch:normal;font-size:15.92933273px;font-family:KonsensMedium;-inkscape-font-specification:'KonsensMedium, Normal';font-variant-ligatures:normal;font-variant-caps:normal;font-variant-numeric:normal;font-feature-settings:normal;text-align:center;writing-mode:lr-tb;text-anchor:middle;fill:#40637d;fill-opacity:1"
       id="path844"
       inkscape:connector-curvature="0" /><path
       d="m -222.36906,661.23828 v -1.48143 q 0,-1.01948 -0.60532,-1.59293 -0.58938,-0.57346 -1.56107,-0.57346 -0.98762,0 -1.57701,0.57346 -0.58938,0.57345 -0.58938,1.59293 v 1.48143 q 0,1.01948 0.58938,1.60886 0.58939,0.57346 1.57701,0.57346 0.97169,0 1.56107,-0.57346 0.60532,-0.57345 0.60532,-1.60886 z m 1.56107,-1.62479 v 1.78408 q 0,1.56108 -1.05134,2.50091 -1.0354,0.93983 -2.67612,0.93983 -1.64072,0 -2.69206,-0.93983 -1.03541,-0.93983 -1.03541,-2.50091 v -1.78408 q 0,-1.56108 1.03541,-2.50091 1.05134,-0.93983 2.69206,-0.93983 1.64072,0 2.67612,0.93983 1.05134,0.93983 1.05134,2.50091 z"
       style="font-style:normal;font-variant:normal;font-weight:normal;font-stretch:normal;font-size:15.92933273px;font-family:KonsensMedium;-inkscape-font-specification:'KonsensMedium, Normal';font-variant-ligatures:normal;font-variant-caps:normal;font-variant-numeric:normal;font-feature-settings:normal;text-align:center;writing-mode:lr-tb;text-anchor:middle;fill:#40637d;fill-opacity:1"
       id="path846"
       inkscape:connector-curvature="0" /><path
       d="m -212.0471,658.96038 h -1.59294 q 0,-1.43364 -1.87966,-1.43364 -0.89204,0 -1.36992,0.31859 -0.46195,0.31859 -0.46195,0.84426 0,0.49381 0.39823,0.7646 0.39823,0.2708 0.98762,0.33452 0.58939,0.0637 1.27435,0.19115 0.70089,0.12744 1.29027,0.30266 0.58939,0.15929 0.98762,0.6531 0.39823,0.49381 0.39823,1.29028 0,1.17877 -0.93983,1.87966 -0.93983,0.68496 -2.58055,0.68496 -1.65665,0 -2.61241,-0.74868 -0.93983,-0.74868 -0.93983,-1.97524 v -0.0796 h 1.64072 q 0,1.44957 1.94338,1.44957 0.9239,0 1.41771,-0.30266 0.50974,-0.31859 0.50974,-0.84425 0,-0.52567 -0.55753,-0.76461 -0.54159,-0.23894 -1.32213,-0.33452 -0.78054,-0.0956 -1.57701,-0.25487 -0.78053,-0.15929 -1.33806,-0.70089 -0.5416,-0.55753 -0.5416,-1.51329 0,-1.17877 0.90798,-1.86373 0.9239,-0.68496 2.51683,-0.68496 1.64072,0 2.53276,0.74868 0.90798,0.73275 0.90798,1.97524 z"
       style="font-style:normal;font-variant:normal;font-weight:normal;font-stretch:normal;font-size:15.92933273px;font-family:KonsensMedium;-inkscape-font-specification:'KonsensMedium, Normal';font-variant-ligatures:normal;font-variant-caps:normal;font-variant-numeric:normal;font-feature-settings:normal;text-align:center;writing-mode:lr-tb;text-anchor:middle;fill:#40637d;fill-opacity:1"
       id="path848"
       inkscape:connector-curvature="0" /><path
       d="m -298.68749,682.02606 v -3.23366 l -1.49736,-0.84425 q -0.6531,-0.35045 -1.30621,-0.35045 -0.66903,0 -1.08319,0.4301 -0.39823,0.41416 -0.39823,1.11505 v 2.53276 q 0,0.70089 0.39823,1.13099 0.41416,0.41416 1.08319,0.41416 0.63718,0 1.30621,-0.36638 z m 1.577,2.54869 h -1.56107 v -1.00355 l -1.05134,0.57346 q -0.97169,0.5416 -1.99117,0.5416 -1.25841,0 -2.05488,-0.78054 -0.78054,-0.78054 -0.78054,-2.03895 v -2.86728 q 0,-1.25842 0.8124,-2.07082 0.81239,-0.81239 2.07081,-0.81239 0.97169,0 1.94338,0.54159 l 1.03541,0.57346 v -4.508 h 1.577 z"
       style="font-style:normal;font-variant:normal;font-weight:normal;font-stretch:normal;font-size:15.92933273px;font-family:KonsensMedium;-inkscape-font-specification:'KonsensMedium, Normal';font-variant-ligatures:normal;font-variant-caps:normal;font-variant-numeric:normal;font-feature-settings:normal;text-align:center;writing-mode:lr-tb;text-anchor:middle;fill:#40637d;fill-opacity:1"
       id="path850"
       inkscape:connector-curvature="0" /><path
       d="m -287.79731,681.91455 v 0.0797 q 0,1.22656 -0.97169,1.97524 -0.97168,0.74868 -2.59648,0.74868 -1.62479,0 -2.64427,-0.84426 -1.01947,-0.86018 -1.01947,-2.34161 v -2.0071 q 0,-1.56107 1.01947,-2.5009 1.01948,-0.93983 2.62834,-0.93983 1.60887,0 2.61241,0.93983 1.00355,0.9239 1.00355,2.51683 v 1.41771 h -5.71863 v 0.47788 q 0,0.93983 0.57346,1.43364 0.58938,0.47788 1.54514,0.47788 2.02303,0 2.02303,-1.43364 z m -1.49735,-2.15046 v -0.25487 q 0,-0.98761 -0.55753,-1.51328 -0.5416,-0.5416 -1.52922,-0.5416 -0.98761,0 -1.54514,0.5416 -0.55753,0.54159 -0.55753,1.52921 v 0.23894 z"
       style="font-style:normal;font-variant:normal;font-weight:normal;font-stretch:normal;font-size:15.92933273px;font-family:KonsensMedium;-inkscape-font-specification:'KonsensMedium, Normal';font-variant-ligatures:normal;font-variant-caps:normal;font-variant-numeric:normal;font-feature-settings:normal;text-align:center;writing-mode:lr-tb;text-anchor:middle;fill:#40637d;fill-opacity:1"
       id="path852"
       inkscape:connector-curvature="0" /><path
       d="m -274.07692,681.91455 v 0.0797 q 0,1.22656 -0.97169,1.97524 -0.97169,0.74868 -2.59648,0.74868 -1.6248,0 -2.64427,-0.84426 -1.01948,-0.86018 -1.01948,-2.34161 v -2.0071 q 0,-1.56107 1.01948,-2.5009 1.01947,-0.93983 2.62834,-0.93983 1.60886,0 2.61241,0.93983 1.00355,0.9239 1.00355,2.51683 v 1.41771 h -5.71863 v 0.47788 q 0,0.93983 0.57345,1.43364 0.58939,0.47788 1.54515,0.47788 2.02302,0 2.02302,-1.43364 z m -1.49736,-2.15046 v -0.25487 q 0,-0.98761 -0.55753,-1.51328 -0.54159,-0.5416 -1.52921,-0.5416 -0.98762,0 -1.54515,0.5416 -0.55752,0.54159 -0.55752,1.52921 v 0.23894 z"
       style="font-style:normal;font-variant:normal;font-weight:normal;font-stretch:normal;font-size:15.92933273px;font-family:KonsensMedium;-inkscape-font-specification:'KonsensMedium, Normal';font-variant-ligatures:normal;font-variant-caps:normal;font-variant-numeric:normal;font-feature-settings:normal;text-align:center;writing-mode:lr-tb;text-anchor:middle;fill:#40637d;fill-opacity:1"
       id="path854"
       inkscape:connector-curvature="0" /><path
       d="m -265.2797,678.87205 h -1.59293 q 0,-1.43364 -1.87967,-1.43364 -0.89204,0 -1.36992,0.31859 -0.46195,0.31858 -0.46195,0.84425 0,0.49381 0.39823,0.76461 0.39824,0.2708 0.98762,0.33452 0.58939,0.0637 1.27435,0.19115 0.70089,0.12743 1.29028,0.30266 0.58938,0.15929 0.98761,0.6531 0.39824,0.49381 0.39824,1.29027 0,1.17877 -0.93983,1.87967 -0.93983,0.68496 -2.58056,0.68496 -1.65665,0 -2.61241,-0.74868 -0.93983,-0.74868 -0.93983,-1.97524 v -0.0796 h 1.64073 q 0,1.44957 1.94337,1.44957 0.9239,0 1.41771,-0.30265 0.50974,-0.31859 0.50974,-0.84426 0,-0.52567 -0.55752,-0.76461 -0.5416,-0.23894 -1.32214,-0.33451 -0.78054,-0.0956 -1.577,-0.25487 -0.78054,-0.1593 -1.33807,-0.70089 -0.54159,-0.55753 -0.54159,-1.51329 0,-1.17877 0.90797,-1.86373 0.9239,-0.68496 2.51683,-0.68496 1.64072,0 2.53277,0.74868 0.90797,0.73275 0.90797,1.97523 z"
       style="font-style:normal;font-variant:normal;font-weight:normal;font-stretch:normal;font-size:15.92933273px;font-family:KonsensMedium;-inkscape-font-specification:'KonsensMedium, Normal';font-variant-ligatures:normal;font-variant-caps:normal;font-variant-numeric:normal;font-feature-settings:normal;text-align:center;writing-mode:lr-tb;text-anchor:middle;fill:#40637d;fill-opacity:1"
       id="path856"
       inkscape:connector-curvature="0" /><path
       d="m -257.44372,681.64375 v -2.53276 q 0,-0.70089 -0.39823,-1.11505 -0.39823,-0.43009 -1.06726,-0.43009 -0.66904,0 -1.32214,0.36637 l -1.48143,0.82833 v 3.23365 l 1.48143,0.82833 q 0.6531,0.36637 1.32214,0.36637 0.66903,0 1.06726,-0.41416 0.39823,-0.43009 0.39823,-1.13099 z m -4.26906,5.862 h -1.577 v -11.30983 h 1.56107 v 1.01948 l 1.03541,-0.57346 q 0.95576,-0.54159 1.99117,-0.54159 1.25841,0 2.03895,0.78053 0.79647,0.78054 0.79647,2.03896 v 2.86728 q 0,1.25842 -0.79647,2.07081 -0.79646,0.79647 -2.05488,0.79647 -1.01948,0 -1.97524,-0.5416 l -1.01948,-0.57345 z"
       style="font-style:normal;font-variant:normal;font-weight:normal;font-stretch:normal;font-size:15.92933273px;font-family:KonsensMedium;-inkscape-font-specification:'KonsensMedium, Normal';font-variant-ligatures:normal;font-variant-caps:normal;font-variant-numeric:normal;font-feature-settings:normal;text-align:center;writing-mode:lr-tb;text-anchor:middle;fill:#40637d;fill-opacity:1"
       id="path858"
       inkscape:connector-curvature="0" /><path
       d="m -246.76061,681.91455 v 0.0797 q 0,1.22656 -0.97169,1.97524 -0.97169,0.74868 -2.59648,0.74868 -1.62479,0 -2.64427,-0.84426 -1.01947,-0.86018 -1.01947,-2.34161 v -2.0071 q 0,-1.56107 1.01947,-2.5009 1.01948,-0.93983 2.62834,-0.93983 1.60887,0 2.61241,0.93983 1.00355,0.9239 1.00355,2.51683 v 1.41771 h -5.71863 v 0.47788 q 0,0.93983 0.57346,1.43364 0.58938,0.47788 1.54514,0.47788 2.02303,0 2.02303,-1.43364 z m -1.49735,-2.15046 v -0.25487 q 0,-0.98761 -0.55753,-1.51328 -0.5416,-0.5416 -1.52922,-0.5416 -0.98761,0 -1.54514,0.5416 -0.55753,0.54159 -0.55753,1.52921 v 0.23894 z"
       style="font-style:normal;font-variant:normal;font-weight:normal;font-stretch:normal;font-size:15.92933273px;font-family:KonsensMedium;-inkscape-font-specification:'KonsensMedium, Normal';font-variant-ligatures:normal;font-variant-caps:normal;font-variant-numeric:normal;font-feature-settings:normal;text-align:center;writing-mode:lr-tb;text-anchor:middle;fill:#40637d;fill-opacity:1"
       id="path860"
       inkscape:connector-curvature="0" /><path
       d="m -237.80409,681.46853 v 0.12744 q 0,1.49735 -0.95576,2.30975 -0.95576,0.8124 -2.59648,0.8124 -1.59293,0 -2.56462,-0.86019 -0.95576,-0.87611 -0.95576,-2.40533 v -2.1186 q 0,-1.51329 0.95576,-2.37347 0.97169,-0.87611 2.56462,-0.87611 1.64072,0 2.59648,0.81239 0.95576,0.79647 0.95576,2.29383 v 0.12743 h -1.56107 q 0,-1.81594 -1.99117,-1.81594 -1.92745,0 -1.92745,1.97524 v 1.83187 q 0,1.97524 1.92745,1.97524 1.99117,0 1.99117,-1.81595 z"
       style="font-style:normal;font-variant:normal;font-weight:normal;font-stretch:normal;font-size:15.92933273px;font-family:KonsensMedium;-inkscape-font-specification:'KonsensMedium, Normal';font-variant-ligatures:normal;font-variant-caps:normal;font-variant-numeric:normal;font-feature-settings:normal;text-align:center;writing-mode:lr-tb;text-anchor:middle;fill:#40637d;fill-opacity:1"
       id="path862"
       inkscape:connector-curvature="0" /><path
       d="m -234.11421,684.57475 h -1.64072 v -8.37883 h 1.64072 z m 0.11151,-11.11867 v 0.33451 q 0,0.36638 -0.2708,0.58939 -0.25487,0.22301 -0.65311,0.22301 -0.43009,0 -0.68496,-0.20708 -0.25487,-0.22301 -0.25487,-0.60532 v -0.33451 q 0,-0.38231 0.25487,-0.58939 0.25487,-0.22301 0.68496,-0.22301 0.39824,0 0.65311,0.22301 0.2708,0.22301 0.2708,0.58939 z"
       style="font-style:normal;font-variant:normal;font-weight:normal;font-stretch:normal;font-size:15.92933273px;font-family:KonsensMedium;-inkscape-font-specification:'KonsensMedium, Normal';font-variant-ligatures:normal;font-variant-caps:normal;font-variant-numeric:normal;font-feature-settings:normal;text-align:center;writing-mode:lr-tb;text-anchor:middle;fill:#40637d;fill-opacity:1"
       id="path864"
       inkscape:connector-curvature="0" /><path
       d="m -224.76444,681.91455 v 0.0797 q 0,1.22656 -0.97169,1.97524 -0.97169,0.74868 -2.59648,0.74868 -1.62479,0 -2.64427,-0.84426 -1.01948,-0.86018 -1.01948,-2.34161 v -2.0071 q 0,-1.56107 1.01948,-2.5009 1.01948,-0.93983 2.62834,-0.93983 1.60886,0 2.61241,0.93983 1.00355,0.9239 1.00355,2.51683 v 1.41771 h -5.71863 v 0.47788 q 0,0.93983 0.57345,1.43364 0.58939,0.47788 1.54515,0.47788 2.02302,0 2.02302,-1.43364 z m -1.49736,-2.15046 v -0.25487 q 0,-0.98761 -0.55752,-1.51328 -0.5416,-0.5416 -1.52922,-0.5416 -0.98762,0 -1.54515,0.5416 -0.55752,0.54159 -0.55752,1.52921 v 0.23894 z"
       style="font-style:normal;font-variant:normal;font-weight:normal;font-stretch:normal;font-size:15.92933273px;font-family:KonsensMedium;-inkscape-font-specification:'KonsensMedium, Normal';font-variant-ligatures:normal;font-variant-caps:normal;font-variant-numeric:normal;font-feature-settings:normal;text-align:center;writing-mode:lr-tb;text-anchor:middle;fill:#40637d;fill-opacity:1"
       id="path866"
       inkscape:connector-curvature="0" /><path
       d="m -215.96721,678.87205 h -1.59294 q 0,-1.43364 -1.87966,-1.43364 -0.89204,0 -1.36992,0.31859 -0.46195,0.31858 -0.46195,0.84425 0,0.49381 0.39823,0.76461 0.39824,0.2708 0.98762,0.33452 0.58939,0.0637 1.27435,0.19115 0.70089,0.12743 1.29027,0.30266 0.58939,0.15929 0.98762,0.6531 0.39824,0.49381 0.39824,1.29027 0,1.17877 -0.93983,1.87967 -0.93984,0.68496 -2.58056,0.68496 -1.65665,0 -2.61241,-0.74868 -0.93983,-0.74868 -0.93983,-1.97524 v -0.0796 h 1.64072 q 0,1.44957 1.94338,1.44957 0.9239,0 1.41771,-0.30265 0.50974,-0.31859 0.50974,-0.84426 0,-0.52567 -0.55753,-0.76461 -0.54159,-0.23894 -1.32213,-0.33451 -0.78054,-0.0956 -1.577,-0.25487 -0.78054,-0.1593 -1.33807,-0.70089 -0.5416,-0.55753 -0.5416,-1.51329 0,-1.17877 0.90798,-1.86373 0.9239,-0.68496 2.51683,-0.68496 1.64072,0 2.53277,0.74868 0.90797,0.73275 0.90797,1.97523 z"
       style="font-style:normal;font-variant:normal;font-weight:normal;font-stretch:normal;font-size:15.92933273px;font-family:KonsensMedium;-inkscape-font-specification:'KonsensMedium, Normal';font-variant-ligatures:normal;font-variant-caps:normal;font-variant-numeric:normal;font-feature-settings:normal;text-align:center;writing-mode:lr-tb;text-anchor:middle;fill:#40637d;fill-opacity:1"
       id="path868"
       inkscape:connector-curvature="0" /></g></svg>