<?xml version="1.0" encoding="UTF-8" standalone="no"?>
<!-- Generator: Adobe Illustrator 19.1.0, SVG Export Plug-In . SVG Version: 6.00 Build 0)  -->

<svg
   xmlns:dc="http://purl.org/dc/elements/1.1/"
   xmlns:cc="http://creativecommons.org/ns#"
   xmlns:rdf="http://www.w3.org/1999/02/22-rdf-syntax-ns#"
   xmlns:svg="http://www.w3.org/2000/svg"
   xmlns="http://www.w3.org/2000/svg"
   xmlns:sodipodi="http://sodipodi.sourceforge.net/DTD/sodipodi-0.dtd"
   xmlns:inkscape="http://www.inkscape.org/namespaces/inkscape"
   version="1.1"
   id="Calque_1"
   x="0px"
   y="0px"
   viewBox="-330 571.3 138.7 138.7"
   style="enable-background:new -330 571.3 138.7 138.7;"
   xml:space="preserve"
   sodipodi:docname="main_menu_logo_invasive_species-mt.svg"
   inkscape:version="0.92.4 (5da689c313, 2019-01-14)"><metadata
   id="metadata93"><rdf:RDF><cc:Work
       rdf:about=""><dc:format>image/svg+xml</dc:format><dc:type
         rdf:resource="http://purl.org/dc/dcmitype/StillImage" /><dc:title /></cc:Work></rdf:RDF></metadata><defs
   id="defs91" /><sodipodi:namedview
   pagecolor="#ffffff"
   bordercolor="#666666"
   borderopacity="1"
   objecttolerance="10"
   gridtolerance="10"
   guidetolerance="10"
   inkscape:pageopacity="0"
   inkscape:pageshadow="2"
   inkscape:window-width="1920"
   inkscape:window-height="1017"
   id="namedview89"
   showgrid="false"
   inkscape:zoom="5"
   inkscape:cx="25.938751"
   inkscape:cy="69.349998"
   inkscape:window-x="-8"
   inkscape:window-y="-8"
   inkscape:window-maximized="1"
   inkscape:current-layer="text97" /><style
   type="text/css"
   id="style2">
	.st0{fill:#559973;}
	.st1{fill:#FFFFFF;}
</style><g
   id="g6"><path
     class="st0"
     d="M-330,640.7c0-38.3,31-69.3,69.3-69.3c38.3,0,69.3,31,69.3,69.3s-31,69.3-69.3,69.3   C-299,710-330,679-330,640.7"
     id="path4" /></g><g
   id="g86"><g
     id="g44"><path
       class="st1"
       d="M-246.8,607.9c-6.1-6.3-16.1-6.5-22.4-0.4c-6.3,6.1-6.5,16.1-0.4,22.4c6.1,6.3,16.1,6.5,22.4,0.4    C-240.9,624.2-240.7,614.2-246.8,607.9"
       id="path42" /></g><g
     id="g48"><path
       class="st1"
       d="M-281.2,629c3.9-3.8,4-10.1,0.2-14c-3.8-3.9-10.1-4-14-0.2c-3.9,3.8-4,10.1-0.2,14    C-291.5,632.7-285.2,632.8-281.2,629"
       id="path46" /></g><g
     id="g52"><path
       class="st1"
       d="M-225.4,616c-2.8-2.9-7.5-3-10.5-0.2c-2.9,2.8-3,7.5-0.2,10.5c2.8,2.9,7.5,3,10.5,0.2    C-222.6,623.6-222.5,618.9-225.4,616"
       id="path50" /></g><g
     id="g56"><path
       class="st1"
       d="M-281.4,632.4c-2.9,2.8-3,7.5-0.2,10.5c2.8,2.9,7.5,3,10.5,0.2c2.9-2.8,3-7.5,0.2-10.5    C-273.8,629.7-278.4,629.6-281.4,632.4"
       id="path54" /></g><g
     id="g60"><path
       class="st1"
       d="M-264,639.8c-1.9,1.9-2,5-0.1,6.9c1.9,1.9,5,2,6.9,0.1c1.9-1.9,2-5,0.1-6.9C-259,637.9-262.1,637.9-264,639.8    "
       id="path58" /></g><g
     id="g64"><path
       class="st1"
       d="M-276.2,605.6c1.9-1.9,2-5,0.1-6.9c-1.9-1.9-5-2-6.9-0.1c-1.9,1.9-2,5-0.1,6.9    C-281.2,607.5-278.1,607.5-276.2,605.6"
       id="path62" /></g><g
     id="g68"><path
       class="st1"
       d="M-250.9,596.6c1.9-1.9,2-5,0.1-6.9c-1.9-1.9-5-2-6.9-0.1c-1.9,1.9-2,5-0.1,6.9S-252.9,598.5-250.9,596.6"
       id="path66" /></g><g
     id="g72"><path
       class="st1"
       d="M-241.2,634.8c-1.9,1.9-2,5-0.1,6.9c1.9,1.9,5,2,6.9,0.1c1.9-1.9,2-5,0.1-6.9    C-236.1,633-239.2,632.9-241.2,634.8"
       id="path70" /></g><g
     id="g76"><path
       class="st1"
       d="M-229.3,640.3c-1,0.9-1,2.5-0.1,3.5c0.9,1,2.5,1,3.5,0.1c1-0.9,1-2.5,0.1-3.5    C-226.7,639.4-228.3,639.3-229.3,640.3"
       id="path74" /></g><g
     id="g80"><path
       class="st1"
       d="M-290.8,638.1c-1,0.9-1,2.5-0.1,3.5c0.9,1,2.5,1,3.5,0.1c1-0.9,1-2.5,0.1-3.5    C-288.2,637.2-289.8,637.1-290.8,638.1"
       id="path78" /></g><g
     id="g84"><path
       class="st1"
       d="M-249.5,601.6c0.9,1,2.5,1,3.5,0.1c1-0.9,1-2.5,0.1-3.5c-0.9-1-2.5-1-3.5-0.1    C-250.4,599.1-250.4,600.6-249.5,601.6"
       id="path82" /></g></g><g
   aria-label="Speċi 
Invażivi"
   style="font-style:normal;font-variant:normal;font-weight:normal;font-stretch:normal;font-size:15.46666718px;line-height:1.25;font-family:KonsensMedium;-inkscape-font-specification:'KonsensMedium, Normal';font-variant-ligatures:normal;font-variant-caps:normal;font-variant-numeric:normal;font-feature-settings:normal;text-align:center;letter-spacing:0px;word-spacing:0px;writing-mode:lr-tb;text-anchor:middle;fill:#ffffff;fill-opacity:1;stroke:none"
   id="text97"><path
     d="m -271.6166,662.05282 h -1.73227 q 0,-2.11894 -2.552,-2.11894 -1.19093,0 -1.84053,0.49493 -0.6496,0.47947 -0.6496,1.33014 0,0.6032 0.3712,0.98987 0.38667,0.3712 0.98987,0.5568 0.6032,0.1856 1.33013,0.30933 0.7424,0.12373 1.46933,0.3248 0.72694,0.1856 1.33014,0.49493 0.6032,0.29387 0.9744,0.928 0.38666,0.63414 0.38666,1.54667 0,1.54667 -1.19093,2.4592 -1.17547,0.89707 -3.18613,0.89707 -2.05707,0 -3.21707,-0.8816 -1.14453,-0.89707 -1.14453,-2.61387 v -0.0928 h 1.73226 q 0,2.1344 2.6448,2.1344 1.2528,0 1.93334,-0.47947 0.696,-0.49493 0.696,-1.3456 0,-0.58773 -0.38667,-0.95893 -0.3712,-0.38667 -0.9744,-0.5568 -0.58773,-0.1856 -1.31467,-0.30933 -0.72693,-0.1392 -1.46933,-0.3248 -0.72693,-0.20107 -1.33013,-0.5104 -0.58774,-0.3248 -0.9744,-0.95894 -0.3712,-0.63413 -0.3712,-1.56213 0,-1.5312 1.12906,-2.42827 1.14454,-0.91253 3.07787,-0.91253 2.02613,0 3.13973,0.89706 1.12907,0.8816 1.12907,2.59841 z"
     style=""
     id="path843" /><path
     d="m -263.84243,667.31148 v -2.4592 q 0,-0.68053 -0.38666,-1.08266 -0.38667,-0.4176 -1.03627,-0.4176 -0.6496,0 -1.28373,0.35573 l -1.4384,0.80427 v 3.13973 l 1.4384,0.80427 q 0.63413,0.35573 1.28373,0.35573 0.6496,0 1.03627,-0.40213 0.38666,-0.4176 0.38666,-1.09814 z m -4.14506,5.69174 h -1.5312 v -10.98134 h 1.51573 v 0.98987 l 1.00533,-0.5568 q 0.928,-0.52587 1.93334,-0.52587 1.22186,0 1.97973,0.75787 0.77333,0.75787 0.77333,1.97973 v 2.784 q 0,1.22187 -0.77333,2.01067 -0.77333,0.77333 -1.9952,0.77333 -0.98987,0 -1.91787,-0.52586 l -0.98986,-0.5568 z"
     style=""
     id="path845" /><path
     d="m -253.46961,667.57442 v 0.0773 q 0,1.19093 -0.94346,1.91787 -0.94347,0.72693 -2.52107,0.72693 -1.5776,0 -2.56747,-0.81973 -0.98987,-0.8352 -0.98987,-2.2736 v -1.9488 q 0,-1.51574 0.98987,-2.42827 0.98987,-0.91253 2.552,-0.91253 1.56214,0 2.53654,0.91253 0.9744,0.89707 0.9744,2.44373 v 1.37654 h -5.55254 v 0.464 q 0,0.91253 0.5568,1.392 0.57227,0.464 1.50027,0.464 1.96427,0 1.96427,-1.392 z m -1.45386,-2.088 v -0.24747 q 0,-0.95893 -0.54134,-1.46933 -0.52586,-0.52587 -1.4848,-0.52587 -0.95893,0 -1.50026,0.52587 -0.54134,0.52586 -0.54134,1.4848 v 0.232 z"
     style=""
     id="path847" /><path
     d="m -244.90234,669.6287 q -0.7099,0.33985 -1.35183,0.52865 -0.63437,0.1888 -1.35182,0.1888 -0.9138,0 -1.67656,-0.26432 -0.76276,-0.27188 -1.30651,-0.81563 -0.5513,-0.54375 -0.85339,-1.37448 -0.30208,-0.83073 -0.30208,-1.94088 0,-2.06927 1.13281,-3.2474 1.14037,-1.17812 3.00573,-1.17812 0.725,0 1.41979,0.2039 0.70235,0.20391 1.28386,0.49844 v 1.57839 h -0.0755 q -0.64948,-0.50599 -1.34428,-0.77787 -0.68723,-0.27187 -1.34427,-0.27187 -1.20833,0 -1.91067,0.81562 -0.69479,0.80807 -0.69479,2.37891 0,1.52552 0.67968,2.3487 0.68724,0.81562 1.92578,0.81562 0.43047,0 0.87605,-0.11328 0.44557,-0.11328 0.80052,-0.29453 0.30963,-0.1586 0.58151,-0.33229 0.27187,-0.18125 0.43047,-0.30964 h 0.0755 z m -2.00131,-9.31927 h -1.60104 v -1.47265 h 1.60104 z"
     style=""
     id="path849" /><path
     d="m -241.73428,670.15735 h -1.59306 v -8.13547 h 1.59306 z m 0.10827,-10.79574 v 0.3248 q 0,0.35574 -0.26293,0.57227 -0.24747,0.21653 -0.63414,0.21653 -0.4176,0 -0.66506,-0.20106 -0.24747,-0.21654 -0.24747,-0.58774 v -0.3248 q 0,-0.3712 0.24747,-0.57226 0.24746,-0.21654 0.66506,-0.21654 0.38667,0 0.63414,0.21654 0.26293,0.21653 0.26293,0.57226 z"
     style=""
     id="path851" /><path
     d="m -284.7617,689.64024 h -1.73226 v -11.5072 h 1.73226 z"
     style=""
     id="path853" /><path
     d="m -275.55009,689.64024 h -1.5776 v -5.4288 q 0,-0.58773 -0.3248,-0.95893 -0.30933,-0.38667 -0.8816,-0.38667 -0.52586,0 -1.22186,0.40213 l -1.33014,0.7888 v 5.58347 h -1.54666 v -8.13547 h 1.5312 v 1.0672 l 0.928,-0.57226 q 0.91253,-0.57227 1.93333,-0.57227 1.14453,0 1.8096,0.71147 0.68053,0.71146 0.68053,1.88693 z"
     style=""
     id="path855" /><path
     d="m -269.74814,689.64024 h -1.7632 l -2.90774,-8.13547 h 1.7168 l 2.10347,6.3568 2.1344,-6.3568 h 1.624 z"
     style=""
     id="path857" /><path
     d="m -260.59479,687.24291 v -1.03627 h -2.42827 q -1.54666,0 -1.54666,1.17547 0,0.47946 0.2784,0.75786 0.2784,0.26294 0.7888,0.26294 0.75786,0 1.5776,-0.44854 z m 1.54667,2.39733 h -1.54667 v -1.05173 l -0.89707,0.49493 q -1.2064,0.6496 -2.2736,0.6496 -1.0672,0 -1.73226,-0.63413 -0.6496,-0.63414 -0.6496,-1.65494 0,-1.19093 0.81973,-1.82506 0.8352,-0.63414 2.1344,-0.63414 h 2.61387 v -0.5104 q 0,-1.77866 -1.87147,-1.77866 -1.97973,0 -1.97973,1.59306 h -1.5312 v -0.0773 q 0,-1.33013 0.95893,-2.088 0.9744,-0.75787 2.53653,-0.75787 1.60854,0 2.5056,0.80427 0.91254,0.7888 0.91254,2.2272 z"
     style=""
     id="path859" /><path
     d="m -250.56641,689.64024 h -6.81198 v -1.04974 l 4.91641,-6.20026 h -4.81068 v -1.18568 h 6.57787 v 1.01198 l -4.93906,6.22292 h 5.06744 z m -2.62812,-9.84792 h -1.60104 v -1.47265 h 1.60104 z"
     style=""
     id="path861" /><path
     d="m -247.21709,689.64024 h -1.59306 v -8.13547 h 1.59306 z m 0.10827,-10.79573 v 0.3248 q 0,0.35573 -0.26293,0.57226 -0.24747,0.21654 -0.63414,0.21654 -0.4176,0 -0.66506,-0.20107 -0.24747,-0.21653 -0.24747,-0.58773 v -0.3248 q 0,-0.3712 0.24747,-0.57227 0.24746,-0.21653 0.66506,-0.21653 0.38667,0 0.63414,0.21653 0.26293,0.21653 0.26293,0.57227 z"
     style=""
     id="path863" /><path
     d="m -241.12394,689.64024 h -1.7632 l -2.90774,-8.13547 h 1.7168 l 2.10347,6.3568 2.1344,-6.3568 h 1.624 z"
     style=""
     id="path865" /><path
     d="m -235.22438,689.64024 h -1.59306 v -8.13547 h 1.59306 z m 0.10827,-10.79573 v 0.3248 q 0,0.35573 -0.26293,0.57226 -0.24747,0.21654 -0.63414,0.21654 -0.4176,0 -0.66506,-0.20107 -0.24747,-0.21653 -0.24747,-0.58773 v -0.3248 q 0,-0.3712 0.24747,-0.57227 0.24746,-0.21653 0.66506,-0.21653 0.38667,0 0.63414,0.21653 0.26293,0.21653 0.26293,0.57227 z"
     style=""
     id="path867" /></g>



</svg>