<?xml version="1.0" encoding="UTF-8" standalone="no"?>
<!-- Generator: Adobe Illustrator 19.1.0, SVG Export Plug-In . SVG Version: 6.00 Build 0)  -->

<svg
   xmlns:dc="http://purl.org/dc/elements/1.1/"
   xmlns:cc="http://creativecommons.org/ns#"
   xmlns:rdf="http://www.w3.org/1999/02/22-rdf-syntax-ns#"
   xmlns:svg="http://www.w3.org/2000/svg"
   xmlns="http://www.w3.org/2000/svg"
   xmlns:sodipodi="http://sodipodi.sourceforge.net/DTD/sodipodi-0.dtd"
   xmlns:inkscape="http://www.inkscape.org/namespaces/inkscape"
   version="1.1"
   id="Calque_1"
   x="0px"
   y="0px"
   viewBox="-330 571.3 138.60001 138.60001"
   xml:space="preserve"
   sodipodi:docname="main_menu_logo_links-el.svg"
   inkscape:version="0.92.4 (5da689c313, 2019-01-14)"
   width="138.60001"
   height="138.60001"><metadata
   id="metadata31"><rdf:RDF><cc:Work
       rdf:about=""><dc:format>image/svg+xml</dc:format><dc:type
         rdf:resource="http://purl.org/dc/dcmitype/StillImage" /><dc:title></dc:title></cc:Work></rdf:RDF></metadata><defs
   id="defs29" /><sodipodi:namedview
   pagecolor="#ffffff"
   bordercolor="#666666"
   borderopacity="1"
   objecttolerance="10"
   gridtolerance="10"
   guidetolerance="10"
   inkscape:pageopacity="0"
   inkscape:pageshadow="2"
   inkscape:window-width="1920"
   inkscape:window-height="1017"
   id="namedview27"
   showgrid="false"
   inkscape:zoom="4"
   inkscape:cx="3.9779509"
   inkscape:cy="89.379394"
   inkscape:window-x="1912"
   inkscape:window-y="-8"
   inkscape:window-maximized="1"
   inkscape:current-layer="Calque_1"
   fit-margin-top="0"
   fit-margin-left="0"
   fit-margin-right="0"
   fit-margin-bottom="0" /><style
   type="text/css"
   id="style2">
	.st0{fill:#40637D;}
	.st1{fill:#FFFFFF;}
</style><g
   id="g6"
   transform="translate(0,-0.1)"><path
     class="st0"
     d="m -330,640.7 c 0,-38.3 31,-69.3 69.3,-69.3 38.3,0 69.3,31 69.3,69.3 0,38.3 -31,69.3 -69.3,69.3 -38.3,0 -69.3,-31 -69.3,-69.3"
     id="path4"
     inkscape:connector-curvature="0"
     style="fill:#40637d" /></g><g
   id="g24"
   transform="translate(-0.0437875,-6.09999)"><g
     id="g22"><path
       class="st1"
       d="m -235.3,620.9 -11.3,11.3 c -6.2,6.2 -16.3,6.2 -22.5,0 -1,-1 -1.7,-2.1 -2.4,-3.2 l 5.2,-5.2 c 0.2,-0.3 0.6,-0.4 0.8,-0.6 0.4,1.2 1,2.4 2,3.4 3.1,3.1 8.2,3.1 11.3,0 l 11.3,-11.3 c 3.1,-3.1 3.1,-8.2 0,-11.3 -3.1,-3.1 -8.2,-3.1 -11.3,0 l -4,4 c -3.2,-1.3 -6.7,-1.6 -10.2,-1.1 l 8.5,-8.5 c 6.2,-6.2 16.3,-6.2 22.5,0 6.3,6.2 6.3,16.3 0.1,22.5 m -29.8,18.6 -4,4 c -3.1,3.1 -8.2,3.1 -11.3,0 -3.1,-3.1 -3.1,-8.2 0,-11.3 l 11.3,-11.3 c 3.1,-3.1 8.2,-3.1 11.3,0 1,1 1.6,2.1 2,3.4 0.3,-0.2 0.6,-0.3 0.8,-0.6 l 5.2,-5.2 c -0.7,-1.1 -1.4,-2.2 -2.4,-3.2 -6.2,-6.2 -16.3,-6.2 -22.5,0 l -11.3,11.3 c -6.2,6.2 -6.2,16.3 0,22.5 6.2,6.2 16.3,6.2 22.5,0 l 8.5,-8.5 c -3.4,0.5 -6.9,0.1 -10.1,-1.1"
       id="path20"
       inkscape:connector-curvature="0"
       style="fill:#ffffff" /></g></g><g
   aria-label="Εταίροι 
και Σύνδεσμοι"
   style="font-style:normal;font-variant:normal;font-weight:normal;font-stretch:normal;font-size:15.92933273px;line-height:1.25;font-family:KonsensMedium;-inkscape-font-specification:'KonsensMedium, Normal';font-variant-ligatures:normal;font-variant-caps:normal;font-variant-numeric:normal;font-feature-settings:normal;text-align:center;letter-spacing:0px;word-spacing:0px;writing-mode:lr-tb;text-anchor:middle;fill:#ffffff;fill-opacity:1;stroke:none"
   id="text35"><path
     d="m -279.68607,669.09723 h -7.63022 V 657.5158 h 7.63022 v 1.36892 h -6.09017 v 3.17342 h 6.09017 v 1.36893 h -6.09017 v 4.30123 h 6.09017 z"
     style=""
     id="path856" /><path
     d="m -270.96694,661.69258 h -3.14231 v 7.40465 h -1.46226 v -7.40465 h -3.14231 v -1.28337 h 7.74688 z"
     style=""
     id="path858" /><path
     d="m -262.40337,669.09723 h -1.46226 v -0.91003 q -0.63002,0.54446 -1.31448,0.84781 -0.68447,0.30334 -1.4856,0.30334 -1.5556,0 -2.4734,-1.19781 -0.91003,-1.19782 -0.91003,-3.32121 0,-1.10447 0.31112,-1.96783 0.3189,-0.86336 0.85558,-1.47004 0.5289,-0.59113 1.22892,-0.90225 0.7078,-0.31112 1.46227,-0.31112 0.68446,0 1.21336,0.17112 0.52891,0.17111 1.11226,0.47445 v -0.40445 h 1.46226 z m -1.46226,-2.13895 v -4.9468 q -0.59113,-0.26446 -1.05781,-0.38113 -0.46668,-0.12444 -1.01892,-0.12444 -1.22892,0 -1.91338,0.85558 -0.68447,0.85558 -0.68447,2.42673 0,1.54782 0.52891,2.35673 0.5289,0.80114 1.6956,0.80114 0.62224,0 1.26003,-0.27223 0.6378,-0.28001 1.19004,-0.71558 z"
     style=""
     id="path860" /><path
     d="m -258.04769,669.09723 h -1.46227 v -8.68802 h 1.46227 z m 0.21778,-13.03592 -0.38112,2.98675 h -1.12781 l -0.38112,-2.98675 z"
     style=""
     id="path862" /><path
     d="m -247.46184,664.60933 q 0,2.00672 -1.08114,3.33676 -1.07337,1.32225 -2.80008,1.32225 -0.50557,0 -1.14337,-0.14 -0.63001,-0.14 -1.19003,-0.47446 v 3.64788 h -1.46226 v -8.22912 q 0,-0.95669 0.27223,-1.67226 0.28001,-0.72336 0.79335,-1.23671 0.48224,-0.48223 1.20559,-0.7389 0.73113,-0.25668 1.52449,-0.25668 1.89005,0 2.88564,1.14337 0.99558,1.14336 0.99558,3.29787 z m -1.50893,0.0933 q 0,-1.6956 -0.62224,-2.48896 -0.62224,-0.79335 -1.75783,-0.79335 -1.22892,0 -1.78116,0.74669 -0.54446,0.74668 -0.54446,2.16228 v 3.13453 q 0.5678,0.26445 1.0267,0.38112 0.46668,0.10889 1.05003,0.10889 1.26003,0 1.94449,-0.86335 0.68447,-0.86336 0.68447,-2.38785 z"
     style=""
     id="path864" /><path
     d="m -237.77824,664.75711 q 0,2.12339 -1.08892,3.35231 -1.08892,1.22893 -2.91674,1.22893 -1.84339,0 -2.93231,-1.22893 -1.08114,-1.22892 -1.08114,-3.35231 0,-2.12339 1.08114,-3.35232 1.08892,-1.2367 2.93231,-1.2367 1.82782,0 2.91674,1.2367 1.08892,1.22893 1.08892,3.35232 z m -1.50893,0 q 0,-1.68783 -0.66113,-2.50452 -0.66113,-0.82446 -1.8356,-0.82446 -1.19004,0 -1.85117,0.82446 -0.65335,0.81669 -0.65335,2.50452 0,1.63338 0.66113,2.48118 0.66113,0.84002 1.84339,0.84002 1.16669,0 1.82782,-0.83224 0.66891,-0.84003 0.66891,-2.48896 z"
     style=""
     id="path866" /><path
     d="m -234.02925,669.09723 h -1.46226 v -8.68802 h 1.46226 z"
     style=""
     id="path868" /><path
     d="m -307.29018,689.16293 h -1.92894 l -3.50787,-3.80344 -0.87114,0.8478 v 2.95564 h -1.46226 v -8.68802 h 1.46226 v 4.27789 l 2.98675,-3.24342 q 0.56002,-0.61446 1.05003,-0.83225 0.49779,-0.21778 0.9878,-0.21778 0.21779,0 0.45113,0.008 0.23334,0.008 0.28778,0.008 v 1.29114 h -0.0856 q -0.12445,-0.0155 -0.31112,-0.0233 -0.1789,-0.008 -0.28001,-0.008 -0.36557,0 -0.66891,0.18667 -0.29556,0.1789 -0.52113,0.43557 l -1.95227,2.10784 z"
     style=""
     id="path870" /><path
     d="m -298.64882,689.16293 h -1.46227 v -0.91003 q -0.63002,0.54446 -1.31448,0.8478 -0.68446,0.30334 -1.4856,0.30334 -1.55559,0 -2.4734,-1.19781 -0.91002,-1.19781 -0.91002,-3.3212 0,-1.10448 0.31112,-1.96783 0.31889,-0.86336 0.85558,-1.47004 0.5289,-0.59113 1.22892,-0.90225 0.7078,-0.31112 1.46226,-0.31112 0.68447,0 1.21337,0.17111 0.5289,0.17112 1.11225,0.47446 v -0.40445 h 1.46227 z m -1.46227,-2.13895 v -4.94681 q -0.59113,-0.26445 -1.0578,-0.38112 -0.46668,-0.12445 -1.01892,-0.12445 -1.22893,0 -1.91339,0.85558 -0.68446,0.85558 -0.68446,2.42674 0,1.54782 0.5289,2.35673 0.5289,0.80113 1.6956,0.80113 0.62224,0 1.26004,-0.27223 0.63779,-0.28 1.19003,-0.71557 z"
     style=""
     id="path872" /><path
     d="m -294.29315,689.16293 h -1.46226 v -8.68802 h 1.46226 z"
     style=""
     id="path874" /><path
     d="m -277.26712,689.16293 h -9.03803 v -1.43115 l 4.82236,-4.6668 -4.6668,-4.09123 v -1.39226 h 8.52468 v 1.36893 h -6.47129 l 4.55791,3.93566 v 0.20223 l -4.90014,4.70569 h 7.17131 z"
     style=""
     id="path876" /><path
     d="m -267.84019,685.99728 q 0,1.69561 -0.94891,2.55118 -0.94892,0.84781 -2.70675,0.84781 -1.73449,0 -2.69118,-0.83225 -0.9567,-0.84002 -0.9567,-2.56674 v -5.52237 h 1.46227 v 4.98569 q 0,0.72335 0.0778,1.19003 0.0778,0.46668 0.32667,0.82447 0.24112,0.33446 0.65335,0.50557 0.42002,0.16334 1.13559,0.16334 0.66891,0 1.11225,-0.17112 0.45113,-0.17111 0.68447,-0.51334 0.22556,-0.34224 0.30334,-0.81669 0.0856,-0.48224 0.0856,-1.18226 v -4.98569 h 1.46226 z m -2.70674,-9.87027 -0.38112,2.98675 h -1.12781 l -0.38112,-2.98675 z"
     style=""
     id="path878" /><path
     d="m -257.51879,680.47491 -3.51566,8.68802 h -1.47004 l -3.49232,-8.68802 h 1.58671 l 2.69119,6.91463 2.66785,-6.91463 z"
     style=""
     id="path880" /><path
     d="m -248.1852,684.87725 q 0,2.11562 -1.08114,3.32121 -1.07336,1.20558 -2.92453,1.20558 -1.87449,0 -2.95563,-1.17447 -1.07337,-1.18226 -1.07337,-3.22009 0,-1.0967 0.33446,-1.85894 0.33445,-0.77002 0.83224,-1.26782 0.53668,-0.56001 1.2367,-0.87891 0.70002,-0.3189 1.4156,-0.45112 -0.59113,-0.49002 -1.29115,-1.01114 -0.70002,-0.52891 -1.49337,-1.08892 v -1.39226 h 6.30017 v 1.22892 h -4.36345 v 0.0778 q 0.5289,0.35779 1.39226,0.96447 0.86336,0.60669 1.58671,1.26004 1.1667,1.0578 1.6256,2.03783 0.4589,0.97225 0.4589,2.24784 z m -1.50893,0 q 0,-1.05003 -0.42779,-1.93672 -0.42779,-0.88669 -1.28337,-1.5556 -0.51335,0.0622 -1.08114,0.2489 -0.56002,0.18667 -1.07336,0.5989 -0.49002,0.3889 -0.82447,1.06559 -0.32668,0.67668 -0.32668,1.66449 0,1.56338 0.66113,2.37229 0.66113,0.80891 1.8745,0.80891 1.19003,0 1.83561,-0.81669 0.64557,-0.82447 0.64557,-2.45007 z"
     style=""
     id="path882" /><path
     d="m -239.54384,688.66513 q -0.83225,0.37335 -1.63338,0.53669 -0.80114,0.16333 -1.69561,0.16333 -0.61446,0 -1.25225,-0.12444 -0.6378,-0.12445 -1.18226,-0.43557 -0.53668,-0.30334 -0.87891,-0.79336 -0.33446,-0.49779 -0.33446,-1.22892 0,-0.74669 0.43557,-1.3067 0.44335,-0.56002 1.38448,-0.85558 v -0.0544 q -0.70779,-0.18667 -1.1278,-0.70002 -0.42002,-0.51335 -0.42002,-1.22892 0,-0.69224 0.36557,-1.14337 0.37334,-0.4589 0.87891,-0.72335 0.49779,-0.25667 1.12781,-0.38112 0.63002,-0.12445 1.24448,-0.12445 0.76224,0 1.40004,0.13223 0.6378,0.12444 1.33782,0.34223 v 1.61004 h -0.10112 q -0.51335,-0.39667 -1.27559,-0.61446 -0.75446,-0.21778 -1.53226,-0.21778 -0.35001,0 -0.65336,0.0467 -0.30334,0.0389 -0.63001,0.19445 -0.27223,0.11667 -0.47446,0.38112 -0.19445,0.25667 -0.19445,0.5989 0,0.47446 0.21778,0.73891 0.21779,0.26445 0.59113,0.38112 0.35001,0.1089 0.75447,0.12445 0.40445,0.008 0.81669,0.008 h 0.86335 v 1.29115 h -1.22892 q -0.48224,0 -0.87114,0.0389 -0.3889,0.0311 -0.71557,0.16334 -0.3189,0.13222 -0.51335,0.42001 -0.18667,0.28778 -0.18667,0.74668 0,0.41224 0.20223,0.70002 0.20222,0.28779 0.52112,0.45113 0.28779,0.14778 0.67669,0.22556 0.39668,0.0778 0.83224,0.0778 0.79336,0 1.69561,-0.28001 0.90224,-0.28001 1.45448,-0.76224 h 0.10112 z"
     style=""
     id="path884" /><path
     d="m -230.34248,684.82281 q 0,2.18561 -1.0967,3.38342 -1.08891,1.19781 -2.90119,1.19781 -1.87449,0 -2.94786,-1.22892 -1.07336,-1.22892 -1.07336,-3.35231 0,-2.13895 1.0967,-3.3601 1.09669,-1.22892 2.94008,-1.22892 0.42779,0 0.84002,0.0856 0.41224,0.0856 0.6378,0.15556 h 3.73344 v 1.28337 h -2.24007 q 0.48224,0.56779 0.74669,1.32225 0.26445,0.75447 0.26445,1.74228 z m -1.50893,0 q 0,-1.67227 -0.63779,-2.50452 -0.6378,-0.83224 -1.83561,-0.83224 -1.25226,0 -1.89005,0.87113 -0.6378,0.87114 -0.6378,2.46563 0,1.6256 0.64557,2.4734 0.65336,0.8478 1.86672,0.8478 1.18226,0 1.83561,-0.83225 0.65335,-0.84002 0.65335,-2.48895 z"
     style=""
     id="path886" /><path
     d="m -220.38664,689.16293 h -1.44671 v -0.91781 q -0.57557,0.60669 -1.10447,0.8478 -0.52113,0.23334 -1.12781,0.23334 -0.58335,0 -1.05003,-0.21 -0.46668,-0.21001 -1.12003,-0.83225 v 4.08345 h -1.46227 v -11.89255 h 1.46227 v 6.51796 q 0.24889,0.30334 0.86335,0.62224 0.61446,0.31889 1.32226,0.31889 0.72336,0 1.25226,-0.25667 0.5289,-0.26445 0.94891,-0.73113 v -6.47129 h 1.46227 z"
     style=""
     id="path888" /><path
     d="m -210.08858,684.82281 q 0,2.12339 -1.08892,3.35231 -1.08892,1.22892 -2.91675,1.22892 -1.84338,0 -2.9323,-1.22892 -1.08114,-1.22892 -1.08114,-3.35231 0,-2.1234 1.08114,-3.35232 1.08892,-1.2367 2.9323,-1.2367 1.82783,0 2.91675,1.2367 1.08892,1.22892 1.08892,3.35232 z m -1.50893,0 q 0,-1.68783 -0.66113,-2.50452 -0.66113,-0.82447 -1.83561,-0.82447 -1.19003,0 -1.85116,0.82447 -0.65335,0.81669 -0.65335,2.50452 0,1.63337 0.66113,2.48118 0.66113,0.84002 1.84338,0.84002 1.1667,0 1.82783,-0.83225 0.66891,-0.84002 0.66891,-2.48895 z"
     style=""
     id="path890" /><path
     d="m -206.33958,689.16293 h -1.46227 v -8.68802 h 1.46227 z"
     style=""
     id="path892" /></g>

</svg>