<?xml version="1.0" encoding="UTF-8" standalone="no"?>
<!-- Generator: Adobe Illustrator 19.1.0, SVG Export Plug-In . SVG Version: 6.00 Build 0)  -->

<svg
   xmlns:dc="http://purl.org/dc/elements/1.1/"
   xmlns:cc="http://creativecommons.org/ns#"
   xmlns:rdf="http://www.w3.org/1999/02/22-rdf-syntax-ns#"
   xmlns:svg="http://www.w3.org/2000/svg"
   xmlns="http://www.w3.org/2000/svg"
   xmlns:sodipodi="http://sodipodi.sourceforge.net/DTD/sodipodi-0.dtd"
   xmlns:inkscape="http://www.inkscape.org/namespaces/inkscape"
   version="1.1"
   id="Calque_1"
   x="0px"
   y="0px"
   viewBox="-192.3 228.6 138.7 138.7"
   style="enable-background:new -192.3 228.6 138.7 138.7;"
   xml:space="preserve"
   sodipodi:docname="main_menu_logo_report_sighting-fr.svg"
   inkscape:version="0.92.2 5c3e80d, 2017-08-06"><metadata
     id="metadata81"><rdf:RDF><cc:Work
         rdf:about=""><dc:format>image/svg+xml</dc:format><dc:type
           rdf:resource="http://purl.org/dc/dcmitype/StillImage" /><dc:title></dc:title></cc:Work></rdf:RDF></metadata><defs
     id="defs79" /><sodipodi:namedview
     pagecolor="#ffffff"
     bordercolor="#666666"
     borderopacity="1"
     objecttolerance="10"
     gridtolerance="10"
     guidetolerance="10"
     inkscape:pageopacity="0"
     inkscape:pageshadow="2"
     inkscape:window-width="2221"
     inkscape:window-height="1212"
     id="namedview77"
     showgrid="false"
     inkscape:zoom="6.2205189"
     inkscape:cx="23.037719"
     inkscape:cy="69.349998"
     inkscape:window-x="0"
     inkscape:window-y="0"
     inkscape:window-maximized="0"
     inkscape:current-layer="g6" /><style
     type="text/css"
     id="style2">
	.st0{fill:#D3D501;}
	.st1{fill:#FFFFFF;}
	.st2{fill:#7A9C2B;}
	.st3{fill:#E8E493;}
	.st4{fill:#40637D;}
	.st5{fill:#5E9EB5;}
	.st6{fill:#D0A82B;}
	.st7{fill:#559973;}
	.st8{fill:#00662C;}
</style><g
     id="g6"><path
       class="st2"
       d="M-192.3,297.6c0-38.3,31-69.3,69.3-69.3s69.3,31,69.3,69.3s-31,69.3-69.3,69.3S-192.3,335.9-192.3,297.6"
       id="path4"
       style="fill:#7a9c2b;fill-opacity:1" /></g><g
     id="g28"><g
       id="g10"><path
         class="st1"
         d="M-108.7,261.2c-1.5-0.4-5.1-1-5.1-1s-4.9-3.9-9.2-3.9c-4.3,0-9.2,3.9-9.2,3.9s-3.6,0.6-5.1,1    c6.7,2.4,11.5,8.9,11.5,16.4c0,3.1-0.8,6-2.2,8.5h10c-1.4-2.5-2.2-5.4-2.2-8.5C-120.2,270.1-115.4,263.7-108.7,261.2"
         id="path8" /></g><g
       id="g14"><path
         class="st1"
         d="M-144.2,262c-9,0-16.3,7.3-16.3,16.3s7.3,16.3,16.3,16.3s16.3-7.3,16.3-16.3S-135.2,262-144.2,262     M-144.2,288.6c-5.7,0-10.3-4.6-10.3-10.3s4.6-10.3,10.3-10.3c5.7,0,10.3,4.6,10.3,10.3C-133.9,283.9-138.5,288.6-144.2,288.6"
         id="path12" /></g><g
       id="g18"><path
         class="st1"
         d="M-150.8,273.1c-2.2,2.9-2,6.9,0.3,9.5c-0.8-2.7-0.4-5.8,1.5-8.2s4.7-3.6,7.5-3.5    C-144.7,269.4-148.6,270.2-150.8,273.1"
         id="path16" /></g><g
       id="g22"><path
         class="st1"
         d="M-101.8,262c-9,0-16.3,7.3-16.3,16.3s7.3,16.3,16.3,16.3s16.3-7.3,16.3-16.3S-92.8,262-101.8,262     M-101.8,288.6c-5.7,0-10.3-4.6-10.3-10.3s4.6-10.3,10.3-10.3s10.3,4.6,10.3,10.3C-91.5,283.9-96.1,288.6-101.8,288.6"
         id="path20" /></g><g
       id="g26"><path
         class="st1"
         d="M-104.4,270.9c2.8-0.1,5.7,1.1,7.5,3.5c1.9,2.4,2.3,5.5,1.5,8.2c2.3-2.7,2.5-6.6,0.3-9.5    S-101.2,269.4-104.4,270.9"
         id="path24" /></g></g><g
     id="g74"><g
       id="g72"><path
         class="st1"
         d="M-154.1,318.4h-1c-0.2,0-0.3,0-0.4-0.2l-2.2-4.5h-2.2v4.4c0,0.2-0.1,0.3-0.3,0.3h-0.7c-0.2,0-0.3-0.1-0.3-0.3    v-10.7c0-0.2,0.1-0.3,0.3-0.3h3.5c1.7,0,3.3,0.9,3.3,3.2c0,1.3-0.6,2.7-2.2,3.1l2.3,4.6C-153.9,318.2-154,318.4-154.1,318.4z     M-157.7,308.3h-2.1v4.1h2.1c1,0,2.3-0.3,2.3-2.2C-155.5,308.7-156.6,308.3-157.7,308.3z"
         id="path30" /><path
         class="st1"
         d="M-146.4,314.7h-4.8c0,2.1,0.6,2.7,2.2,2.7c0.7,0,1.8-0.1,2.4-0.2c0.2,0,0.3,0,0.4,0.2l0.1,0.4    c0,0.2,0,0.3-0.2,0.3c-0.6,0.3-1.9,0.5-2.7,0.5c-3.1,0-3.5-2.1-3.5-4.3c0-1.6,0.3-4.3,3.5-4.3c2.9,0,3.3,1.9,3.4,3.8    C-145.7,314.2-145.8,314.7-146.4,314.7z M-149.2,311.1c-1.5,0-2,1-2.1,2.5h4.2C-147.1,312.4-147.3,311.1-149.2,311.1z"
         id="path32" /><path
         class="st1"
         d="M-140.5,318.5c-0.6,0-1.4-0.1-2.3-0.5l0,0v3c0,0.2-0.1,0.3-0.3,0.3h-0.7c-0.2,0-0.3-0.1-0.3-0.3v-10.7    c0-0.2,0.1-0.3,0.3-0.3h0.7c0.2,0,0.3,0.1,0.3,0.3v0.6l0.1,0c0.5-0.3,1.8-1.1,2.9-1.1c2.1,0,2.8,1.5,2.8,4.2    C-137.1,317-137.8,318.5-140.5,318.5z M-140,311.1c-0.8,0-2.2,0.6-2.8,1v4.9c0.9,0.3,1.7,0.4,2.4,0.4c1.4,0,1.9-0.8,1.9-3.2    C-138.5,311.5-139,311.1-140,311.1z"
         id="path34" /><path
         class="st1"
         d="M-132.4,318.5c-3.2,0-3.4-2.4-3.4-4.4c0-1.6,0.3-4.2,3.4-4.2c3.1,0,3.6,2.1,3.6,4.2    C-128.8,316.1-129,318.5-132.4,318.5z M-132.4,311.1c-1.8,0-2.1,1-2.1,3.1c0,2.1,0.4,3.1,2.1,3.1c1.9,0,2.2-1,2.2-3.1    C-130.1,312.1-130.5,311.1-132.4,311.1z"
         id="path36" /><path
         class="st1"
         d="M-122.7,311.3c-0.9,0.2-2.3,0.6-2.7,0.8v6c0,0.2-0.1,0.3-0.3,0.3h-0.7c-0.2,0-0.3-0.1-0.3-0.3v-7.7    c0-0.2,0.1-0.3,0.3-0.3h0.7c0.2,0,0.3,0.1,0.3,0.3v0.7l0,0c0.4-0.4,1.7-0.9,2.6-1.1c0.2-0.1,0.3,0,0.3,0.2l0.1,0.7    C-122.4,311.1-122.5,311.3-122.7,311.3z"
         id="path38" /><path
         class="st1"
         d="M-116.9,317.8c0,0.2,0,0.3-0.2,0.3c-0.4,0.2-1.4,0.3-1.9,0.3c-1.5,0-1.8-0.7-1.8-1.8v-5.5h-0.9    c-0.2,0-0.3-0.1-0.3-0.3v-0.5c0-0.2,0.1-0.3,0.3-0.3h1v-1.8c0-0.2,0.1-0.3,0.3-0.3l0.7-0.2c0.2-0.1,0.3,0,0.3,0.3v2.1h1.9    c0.2,0,0.3,0.1,0.3,0.3v0.5c0,0.2-0.1,0.3-0.3,0.3h-1.9v5.2c0,0.8,0.2,1,1.2,1c0.2,0,0.7-0.1,1-0.1c0.3,0,0.3,0,0.4,0.2    L-116.9,317.8z"
         id="path40" /><path
         class="st1"
         d="M-110,314.7h-4.8c0,2.1,0.6,2.7,2.2,2.7c0.7,0,1.8-0.1,2.4-0.2c0.2,0,0.3,0,0.4,0.2l0.1,0.4    c0,0.2,0,0.3-0.2,0.3c-0.6,0.3-1.9,0.5-2.7,0.5c-3.1,0-3.5-2.1-3.5-4.3c0-1.6,0.3-4.3,3.5-4.3c2.9,0,3.3,1.9,3.4,3.8    C-109.3,314.2-109.4,314.7-110,314.7z M-112.8,311.1c-1.5,0-2,1-2.1,2.5h4.2C-110.7,312.4-110.9,311.1-112.8,311.1z"
         id="path42" /><path
         class="st1"
         d="M-103.3,311.3c-0.9,0.2-2.3,0.6-2.7,0.8v6c0,0.2-0.1,0.3-0.3,0.3h-0.7c-0.2,0-0.3-0.1-0.3-0.3v-7.7    c0-0.2,0.1-0.3,0.3-0.3h0.7c0.2,0,0.3,0.1,0.3,0.3v0.7l0,0c0.4-0.4,1.7-0.9,2.5-1.1c0.2-0.1,0.3,0,0.3,0.2l0.1,0.7    C-103,311.1-103.1,311.3-103.3,311.3z"
         id="path44" /><path
         class="st1"
         d="M-91,318.4h-0.7c-0.2,0-0.3-0.1-0.3-0.3v-0.6l0,0c-0.6,0.4-1.8,1.1-3,1.1c-2.2,0-2.5-1.3-2.5-3.1v-5    c0-0.2,0.1-0.3,0.3-0.3h0.7c0.2,0,0.3,0.1,0.3,0.3v5c0,1.6,0.3,2,1.4,2c0.8,0,2.3-0.7,2.9-1v-6c0-0.2,0.1-0.3,0.3-0.3h0.7    c0.2,0,0.3,0.1,0.3,0.3v7.7C-90.7,318.3-90.8,318.4-91,318.4z"
         id="path46" /><path
         class="st1"
         d="M-82.4,318.4h-0.7c-0.2,0-0.3-0.1-0.3-0.3l0-5c0-1.6-0.3-2-1.4-2c-0.8,0-2.3,0.7-2.8,1v6    c0,0.2-0.1,0.3-0.3,0.3h-0.7c-0.2,0-0.3-0.1-0.3-0.3v-7.7c0-0.2,0.1-0.3,0.3-0.3h0.7c0.2,0,0.3,0.1,0.3,0.3v0.6l0.1,0    c0.5-0.4,1.8-1.1,3-1.1c2.2,0,2.5,1.3,2.5,3.1v5C-82.1,318.3-82.2,318.4-82.4,318.4z"
         id="path48" /><path
         class="st1"
         d="M-161.1,338.9c-0.9,0-2-0.1-2.6-0.4c-0.2-0.1-0.2-0.2-0.2-0.4l0.1-0.4c0-0.2,0.2-0.2,0.4-0.2    c0.7,0.1,1.8,0.2,2.4,0.2c1.3,0,1.8-0.4,1.8-1.2c0-1-0.3-1.2-1.7-1.4c-1.5-0.2-3-0.6-3-2.3c0-1.6,1.2-2.4,3-2.4    c0.7,0,1.8,0.1,2.5,0.4c0.2,0.1,0.2,0.2,0.2,0.4l-0.1,0.4c0,0.2-0.2,0.2-0.4,0.2c-0.7-0.1-1.5-0.2-2.2-0.2c-1.3,0-1.6,0.4-1.6,1.2    c0,0.9,0.4,1,1.8,1.2c1.5,0.2,2.9,0.6,2.9,2.5C-157.9,338.3-159.4,338.9-161.1,338.9z"
         id="path50" /><path
         class="st1"
         d="M-155.3,329.1c-0.6,0-0.7-0.4-0.7-0.8c0-0.4,0.1-0.7,0.7-0.7c0.6,0,0.7,0.3,0.7,0.7    C-154.6,328.7-154.7,329.1-155.3,329.1z M-154.9,338.8h-0.7c-0.2,0-0.3-0.1-0.3-0.3v-7.7c0-0.2,0.1-0.3,0.3-0.3h0.7    c0.2,0,0.3,0.1,0.3,0.3v7.7C-154.7,338.7-154.7,338.8-154.9,338.8z"
         id="path52" /><path
         class="st1"
         d="M-146,330.7c0.4,0.1,0.4,0.4,0.4,0.7v7.4c0,1.8-0.4,3.1-3.3,3.1c-0.8,0-2.1-0.1-2.8-0.4    c-0.2-0.1-0.2-0.2-0.2-0.4l0.1-0.4c0-0.2,0.2-0.2,0.4-0.2c0.7,0.1,1.7,0.2,2.4,0.2c1.6,0,2-0.5,2-1.7v-0.7c-1,0.4-1.8,0.5-2.4,0.5    c-2.6,0-3.3-1.7-3.3-4.2c0-2.8,0.8-4.4,3.5-4.4C-148,330.3-146.8,330.5-146,330.7z M-149.3,337.8c0.6,0,1.6-0.1,2.4-0.4v-5.7    c-0.6-0.1-1.5-0.2-2.2-0.2c-1.2,0-2.2,0.4-2.2,3C-151.2,336.9-150.7,337.8-149.3,337.8z"
         id="path54" /><path
         class="st1"
         d="M-137.3,338.8h-0.7c-0.2,0-0.3-0.1-0.3-0.3l0-5c0-1.6-0.3-2-1.4-2c-0.8,0-2.3,0.7-2.8,1v6    c0,0.2-0.1,0.3-0.3,0.3h-0.7c-0.2,0-0.3-0.1-0.3-0.3v-7.7c0-0.2,0.1-0.3,0.3-0.3h0.7c0.2,0,0.3,0.1,0.3,0.3v0.6l0.1,0    c0.5-0.4,1.8-1.1,3-1.1c2.2,0,2.5,1.3,2.5,3.1v5C-137,338.7-137.1,338.8-137.3,338.8z"
         id="path56" /><path
         class="st1"
         d="M-129.9,337.9c-0.8,0.5-1.8,1.1-3.2,1.1c-1.6,0-2.3-0.8-2.3-2.3c0-1.9,0.9-2.9,3.2-2.9h2.3v-0.6    c0-1.3-0.5-1.6-2-1.6c-0.6,0-1.7,0.1-2.4,0.2c-0.2,0-0.3,0-0.3-0.2l-0.1-0.4c0-0.2,0-0.3,0.3-0.4c0.7-0.2,2-0.3,2.8-0.3    c2.7,0,3,1.2,3,3v3.8c0,0.7,0.1,0.7,0.6,0.7c0.2,0,0.3,0.1,0.3,0.2v0.4c0,0.2-0.1,0.3-0.3,0.3c-0.2,0-0.4,0.1-0.6,0.1    C-129.4,338.8-129.7,338.6-129.9,337.9L-129.9,337.9z M-129.9,334.8h-2.5c-1,0-1.7,0.4-1.7,1.7c0,0.9,0.3,1.2,1.3,1.2    c0.9,0,2.1-0.5,2.9-1V334.8z"
         id="path58" /><path
         class="st1"
         d="M-123.7,338.4c0,0.1,0,0.2-0.2,0.3c-0.3,0.1-0.6,0.2-0.9,0.2c-1.1,0-1.4-0.6-1.4-1.4v-10.4    c0-0.2,0.1-0.3,0.3-0.3h0.7c0.2,0,0.3,0.1,0.3,0.3v9.9c0,0.6,0.2,0.6,0.8,0.6c0.2,0,0.3,0,0.3,0.2L-123.7,338.4z"
         id="path60" /><path
         class="st1"
         d="M-116.4,335.1h-4.8c0,2.1,0.6,2.7,2.2,2.7c0.7,0,1.8-0.1,2.4-0.2c0.2,0,0.3,0,0.4,0.2l0.1,0.4    c0,0.2,0,0.3-0.2,0.3c-0.6,0.3-1.9,0.5-2.7,0.5c-3.1,0-3.5-2.1-3.5-4.3c0-1.6,0.3-4.3,3.4-4.3c2.9,0,3.3,1.9,3.4,3.8    C-115.7,334.6-115.8,335.1-116.4,335.1z M-119.2,331.5c-1.5,0-2,1-2.1,2.5h4.2C-117.1,332.8-117.3,331.5-119.2,331.5z"
         id="path62" /><path
         class="st1"
         d="M-102.6,338.8h-0.7c-0.2,0-0.3-0.1-0.3-0.3v-5.1c0-1.4-0.3-1.9-1.3-1.9c-0.8,0-2.1,0.7-2.7,1    c0,0.1,0,0.5,0,0.9v5.1c0,0.2-0.1,0.3-0.3,0.3h-0.7c-0.2,0-0.3-0.1-0.3-0.3l0-5.2c0-1.1-0.3-1.8-1.3-1.8c-0.7,0-1.9,0.6-2.7,1v6    c0,0.2-0.1,0.3-0.3,0.3h-0.7c-0.2,0-0.3-0.1-0.3-0.3v-7.7c0-0.2,0.1-0.3,0.3-0.3h0.7c0.2,0,0.3,0.1,0.3,0.3v0.6c0,0,0,0,0,0    c0.7-0.4,1.7-1.1,2.8-1.1c1.2,0,1.9,0.4,2.2,1.2c0.9-0.6,1.9-1.2,3.1-1.2c2.1,0,2.4,1.2,2.4,3v5.1    C-102.3,338.7-102.4,338.8-102.6,338.8z"
         id="path64" /><path
         class="st1"
         d="M-94.4,335.1h-4.8c0,2.1,0.6,2.7,2.2,2.7c0.7,0,1.8-0.1,2.4-0.2c0.2,0,0.3,0,0.4,0.2l0.1,0.4    c0,0.2,0,0.3-0.2,0.3c-0.6,0.3-1.9,0.5-2.7,0.5c-3.1,0-3.5-2.1-3.5-4.3c0-1.6,0.3-4.3,3.4-4.3c2.9,0,3.3,1.9,3.4,3.8    C-93.6,334.6-93.7,335.1-94.4,335.1z M-97.1,331.5c-1.5,0-2,1-2.1,2.5h4.2C-95,332.8-95.3,331.5-97.1,331.5z"
         id="path66" /><path
         class="st1"
         d="M-85.6,338.8h-0.7c-0.2,0-0.3-0.1-0.3-0.3l0-5c0-1.6-0.3-2-1.4-2c-0.8,0-2.3,0.7-2.8,1v6    c0,0.2-0.1,0.3-0.3,0.3h-0.7c-0.2,0-0.3-0.1-0.3-0.3v-7.7c0-0.2,0.1-0.3,0.3-0.3h0.7c0.2,0,0.3,0.1,0.3,0.3v0.6l0.1,0    c0.5-0.4,1.8-1.1,3-1.1c2.2,0,2.5,1.3,2.5,3.1v5C-85.3,338.7-85.4,338.8-85.6,338.8z"
         id="path68" /><path
         class="st1"
         d="M-78.8,338.2c0,0.2,0,0.3-0.2,0.3c-0.4,0.2-1.4,0.3-1.9,0.3c-1.5,0-1.8-0.7-1.8-1.8v-5.5h-0.9    c-0.2,0-0.3-0.1-0.3-0.3v-0.5c0-0.2,0.1-0.3,0.3-0.3h1v-1.8c0-0.2,0.1-0.3,0.3-0.3l0.7-0.2c0.2-0.1,0.3,0,0.3,0.3v2.1h1.9    c0.2,0,0.3,0.1,0.3,0.3v0.5c0,0.2-0.1,0.3-0.3,0.3h-1.9v5.2c0,0.8,0.2,1,1.2,1c0.2,0,0.7-0.1,1-0.1c0.3,0,0.3,0,0.4,0.2    L-78.8,338.2z"
         id="path70" /></g></g></svg>