<?xml version="1.0" encoding="UTF-8" standalone="no"?>
<!-- Generator: Adobe Illustrator 19.1.0, SVG Export Plug-In . SVG Version: 6.00 Build 0)  -->

<svg
   xmlns:dc="http://purl.org/dc/elements/1.1/"
   xmlns:cc="http://creativecommons.org/ns#"
   xmlns:rdf="http://www.w3.org/1999/02/22-rdf-syntax-ns#"
   xmlns:svg="http://www.w3.org/2000/svg"
   xmlns="http://www.w3.org/2000/svg"
   xmlns:sodipodi="http://sodipodi.sourceforge.net/DTD/sodipodi-0.dtd"
   xmlns:inkscape="http://www.inkscape.org/namespaces/inkscape"
   version="1.1"
   id="Calque_1"
   x="0px"
   y="0px"
   viewBox="-33.6 228.6 138.2 138.2"
   xml:space="preserve"
   sodipodi:docname="main_menu_logo_map-hu.svg"
   inkscape:version="0.92.4 (5da689c313, 2019-01-14)"
   width="138.2"
   height="138.2"><metadata
     id="metadata105"><rdf:RDF><cc:Work
         rdf:about=""><dc:format>image/svg+xml</dc:format><dc:type
           rdf:resource="http://purl.org/dc/dcmitype/StillImage" /><dc:title /></cc:Work></rdf:RDF></metadata><defs
     id="defs103" /><sodipodi:namedview
     pagecolor="#ffffff"
     bordercolor="#666666"
     borderopacity="1"
     objecttolerance="10"
     gridtolerance="10"
     guidetolerance="10"
     inkscape:pageopacity="0"
     inkscape:pageshadow="2"
     inkscape:window-width="2400"
     inkscape:window-height="1271"
     id="namedview101"
     showgrid="false"
     inkscape:zoom="4"
     inkscape:cx="-74.350006"
     inkscape:cy="43.725374"
     inkscape:window-x="2391"
     inkscape:window-y="-9"
     inkscape:window-maximized="1"
     inkscape:current-layer="g96"
     fit-margin-top="0"
     fit-margin-left="0"
     fit-margin-right="0"
     fit-margin-bottom="0" /><style
     type="text/css"
     id="style2">
	.st0{fill:#D3D501;}
	.st1{fill:#FFFFFF;}
	.st2{fill:#7A9C2B;}
	.st3{fill:#E8E493;}
	.st4{fill:#40637D;}
	.st5{fill:#5E9EB5;}
	.st6{fill:#D0A82B;}
	.st7{fill:#559973;}
	.st8{fill:#00662C;}
</style><g
     id="g36"
     transform="translate(-0.20000144,-0.39997711)"><g
       id="g30"><path
         class="st1"
         d="m 24.1,315.9 c 0,0.4 0.2,0.8 0.6,1 0.4,0.2 0.8,0.2 1.2,-0.1 l 7.7,-5.3 -9.5,-4.5 z"
         id="path28"
         inkscape:connector-curvature="0"
         style="fill:#ffffff" /></g><g
       id="g34"><path
         class="st1"
         d="m 70,256.5 c -0.2,-0.2 -0.5,-0.3 -0.8,-0.3 -0.2,0 -0.3,0 -0.5,0.1 L 2.1,289 c -0.7,0.3 -1.1,1 -1.1,1.8 0,0.8 0.4,1.5 1.1,1.8 L 19.7,301 54.8,272.1 24,303 45.9,313.4 c 0.3,0.1 0.6,0.2 0.9,0.2 0.2,0 0.5,0 0.7,-0.1 0.5,-0.2 0.9,-0.6 1.1,-1.1 l 21.7,-54.6 c 0.2,-0.5 0.1,-1 -0.3,-1.3"
         id="path32"
         inkscape:connector-curvature="0"
         style="fill:#ffffff" /></g></g><path
     style="fill:#5e9eb5"
     d="m 104.6,297.70001 a 69.099998,69.099998 0 0 1 -69.1,69.1 69.099998,69.099998 0 0 1 -69.099998,-69.1 69.099998,69.099998 0 0 1 69.099998,-69.1 69.099998,69.099998 0 0 1 69.1,69.1 z"
     id="circle38" /><g
     id="g54"
     transform="translate(2.0902517,-0.39997711)"><path
       class="st1"
       d="M 30.5,268.5 H 10.7 c -0.8,0 -1.5,0.5 -1.7,1.3 l -3.8,13.1 26.6,2.9 2.1,-10 c -1.3,-2.3 -2.5,-4.8 -3.4,-7.3 z"
       id="path40"
       inkscape:connector-curvature="0"
       style="fill:#ffffff" /><path
       class="st1"
       d="m 55.4,288.4 8,0.9 L 61,281 c -0.3,0.5 -0.6,0.9 -1,1.4 -1.6,2.3 -3.2,4.3 -4.6,6 z"
       id="path42"
       inkscape:connector-curvature="0"
       style="fill:#ffffff" /><g
       id="g52"><path
         class="st1"
         d="m 38,282.3 -0.9,4.1 4.3,0.5 c -1,-1.4 -2.1,-2.9 -3.4,-4.6 0.1,0.1 0.1,0 0,0 z"
         id="path44"
         inkscape:connector-curvature="0"
         style="fill:#ffffff" /><path
         class="st1"
         d="m 0.1,300.6 c -0.2,0.5 0,1.1 0.3,1.6 0.3,0.4 0.9,0.7 1.4,0.7 h 26.4 l 2.5,-11.8 -27,-3 z"
         id="path46"
         inkscape:connector-curvature="0"
         style="fill:#ffffff" /><path
         class="st1"
         d="m 65,294.8 -28.9,-3.2 -2.3,11.2 H 65 c 1,0 1.8,-0.8 1.8,-1.8 0,-0.2 0,-0.4 -0.1,-0.6 z"
         id="path48"
         inkscape:connector-curvature="0"
         style="fill:#ffffff" /><path
         class="st1"
         d="m 48.3,290.7 c 0.2,0.2 0.5,0.3 0.7,0.3 0.3,0 0.5,-0.1 0.7,-0.3 1.6,-1.7 4.8,-5.3 8,-9.8 4,-5.7 8.9,-14.1 8.9,-21.5 0,-9.7 -7.9,-17.7 -17.7,-17.7 -9.7,0 -17.7,7.9 -17.7,17.7 0,7.5 4.8,15.8 8.9,21.5 3.4,4.5 6.6,8 8.2,9.8 z m 0.8,-42.4 c 5.9,0 10.8,4.8 10.8,10.8 0,5.9 -4.8,10.8 -10.8,10.8 -5.9,0 -10.8,-4.8 -10.8,-10.8 0,-6 4.8,-10.8 10.8,-10.8 z"
         id="path50"
         inkscape:connector-curvature="0"
         style="fill:#ffffff" /></g></g><g
     id="g98"
     transform="translate(18.292845,-14.399977)"><g
       id="g96"><g
   aria-label="Megfigyelések 
a térképen"
   style="font-style:normal;font-variant:normal;font-weight:normal;font-stretch:normal;font-size:15.46666718px;line-height:1.25;font-family:KonsensMedium;-inkscape-font-specification:'KonsensMedium, Normal';font-variant-ligatures:normal;font-variant-caps:normal;font-variant-numeric:normal;font-feature-settings:normal;text-align:center;letter-spacing:0px;word-spacing:0px;writing-mode:lr-tb;text-anchor:middle;fill:#ffffff;fill-opacity:1;stroke:none"
   id="text6172"><path
     d="m -23.310289,344.09995 h -1.608533 v -9.29547 l -3.000533,9.29547 h -1.6704 l -2.969601,-9.28001 v 9.28001 h -1.593066 l 0.01547,-11.50721 h 2.552 l 2.861334,9.29547 2.907733,-9.29547 h 2.5056 z"
     style=""
     id="path834" /><path
     d="m -14.193171,341.51701 v 0.0773 q 0,1.19094 -0.943467,1.91787 -0.943467,0.72694 -2.521067,0.72694 -1.5776,0 -2.567466,-0.81974 -0.989867,-0.8352 -0.989867,-2.2736 v -1.9488 q 0,-1.51573 0.989867,-2.42827 0.989866,-0.91253 2.552,-0.91253 1.562133,0 2.536533,0.91253 0.9744,0.89707 0.9744,2.44374 v 1.37653 h -5.552533 v 0.464 q 0,0.91253 0.5568,1.392 0.572266,0.464 1.500266,0.464 1.964267,0 1.964267,-1.392 z m -1.453867,-2.088 v -0.24747 q 0,-0.95893 -0.541333,-1.46933 -0.525867,-0.52587 -1.4848,-0.52587 -0.958934,0 -1.500267,0.52587 -0.541333,0.52587 -0.541333,1.4848 v 0.232 z"
     style=""
     id="path836" /><path
     d="m -7.7239962,343.48128 h -2.7839998 v 0.35573 q 0,1.00534 0.479466,1.4848 0.4949337,0.49494 1.6704004,0.49494 2.1962668,0 2.1962668,-1.2992 0,-0.57227 -0.4021334,-0.80427 -0.3866667,-0.232 -1.16,-0.232 z m -1.4384001,-3.5728 h 0.6341334 q 1.7322667,0 1.7322667,-1.36107 0,-1.31467 -1.5621334,-1.31467 h -0.7578667 q -0.7888,0 -1.1909337,0.30934 -0.402133,0.29386 -0.402133,1.05173 0,1.31467 1.5466667,1.31467 z m 0.7888001,1.19093 H -10.77093 q -0.618666,0 -0.618666,0.58773 0,0.57227 0.587733,0.57227 h 3.2480001 q 2.8922668,0 2.8922668,2.21174 0,1.23733 -1.0053334,1.9024 -1.0053334,0.68053 -2.6757334,0.68053 -3.5728001,0 -3.5728001,-3.13973 v -0.7888 q -0.804267,-0.3712 -0.804267,-1.43841 0,-0.61866 0.309334,-1.0208 0.309333,-0.40213 0.819733,-0.54133 -0.06187,-0.0464 -0.170133,-0.15467 -0.0928,-0.12373 -0.262934,-0.52586 -0.170133,-0.40214 -0.170133,-0.8816 0,-1.26827 0.7888,-1.93334 0.7888,-0.66506 2.1344001,-0.66506 h 4.6400001 v 1.3456 h -1.2218667 q 0.4794667,0.34026 0.4794667,1.26826 0,1.17547 -0.8197334,1.856 -0.8042667,0.66507 -2.1808,0.66507 z"
     style=""
     id="path838" /><path
     d="m 4.2034628,344.09995 h -1.5776 v -6.77441 H -1.055204 v 6.77441 h -1.5930667 v -6.77441 h -1.2837334 v -1.36106 h 1.2837334 v -1.00534 q 0,-1.14453 0.696,-1.74773 0.696,-0.61867 1.8869334,-0.61867 h 1.4074667 v 1.37654 H 0.08932937 q -0.58773335,0 -0.86613336,0.26293 -0.27840001,0.24747 -0.27840001,0.8352 v 0.89707 h 5.2586668 z m 0.1082667,-10.79574 v 0.3248 q 0,0.35573 -0.2629333,0.57227 -0.2474667,0.21653 -0.6341334,0.21653 -0.4176,0 -0.6805333,-0.20107 -0.2474667,-0.21653 -0.2474667,-0.58773 v -0.3248 q 0,-0.3712 0.2474667,-0.57227 0.2629333,-0.21653 0.6805333,-0.21653 0.3866667,0 0.6341334,0.21653 0.2629333,0.21654 0.2629333,0.57227 z"
     style=""
     id="path840" /><path
     d="M 10.884339,343.48128 H 8.1003392 v 0.35573 q 0,1.00534 0.4794667,1.4848 0.4949333,0.49494 1.6704001,0.49494 2.196267,0 2.196267,-1.2992 0,-0.57227 -0.402134,-0.80427 -0.386666,-0.232 -1.16,-0.232 z m -1.4383998,-3.5728 h 0.6341338 q 1.732266,0 1.732266,-1.36107 0,-1.31467 -1.562133,-1.31467 H 9.4923392 q -0.7888,0 -1.1909334,0.30934 -0.4021333,0.29386 -0.4021333,1.05173 0,1.31467 1.5466667,1.31467 z m 0.7887998,1.19093 H 7.8374058 q -0.6186667,0 -0.6186667,0.58773 0,0.57227 0.5877334,0.57227 h 3.2480005 q 2.892266,0 2.892266,2.21174 0,1.23733 -1.005333,1.9024 -1.005333,0.68053 -2.675733,0.68053 -3.5728005,0 -3.5728005,-3.13973 v -0.7888 q -0.8042667,-0.3712 -0.8042667,-1.43841 0,-0.61866 0.3093333,-1.0208 0.3093334,-0.40213 0.8197334,-0.54133 -0.061867,-0.0464 -0.1701334,-0.15467 -0.0928,-0.12373 -0.2629333,-0.52586 -0.1701333,-0.40214 -0.1701333,-0.8816 0,-1.26827 0.7888,-1.93334 0.7888,-0.66506 2.1344,-0.66506 h 4.6400005 v 1.3456 h -1.221867 q 0.479467,0.34026 0.479467,1.26826 0,1.17547 -0.819734,1.856 -0.804266,0.66507 -2.1808,0.66507 z"
     style=""
     id="path842" /><path
     d="m 16.11473,346.94581 h -0.4176 v -1.36106 h 0.309333 q 0.5568,0 0.850667,-0.21654 0.293866,-0.21653 0.479466,-0.71146 l 0.355734,-0.928 -3.170667,-7.76427 h 1.7168 l 2.2736,5.78453 1.9488,-5.78453 h 1.639467 l -3.309867,9.0944 q -0.6496,1.88693 -2.675733,1.88693 z"
     style=""
     id="path844" /><path
     d="m 29.967786,341.51701 v 0.0773 q 0,1.19094 -0.943467,1.91787 -0.943466,0.72694 -2.521066,0.72694 -1.5776,0 -2.567467,-0.81974 -0.989867,-0.8352 -0.989867,-2.2736 v -1.9488 q 0,-1.51573 0.989867,-2.42827 0.989867,-0.91253 2.552,-0.91253 1.562133,0 2.536533,0.91253 0.9744,0.89707 0.9744,2.44374 v 1.37653 h -5.552533 v 0.464 q 0,0.91253 0.5568,1.392 0.572267,0.464 1.500267,0.464 1.964266,0 1.964266,-1.392 z m -1.453867,-2.088 v -0.24747 q 0,-0.95893 -0.541333,-1.46933 -0.525867,-0.52587 -1.4848,-0.52587 -0.958933,0 -1.500267,0.52587 -0.541333,0.52587 -0.541333,1.4848 v 0.232 z"
     style=""
     id="path846" /><path
     d="m 33.610191,344.09995 h -1.593067 v -11.50721 h 1.593067 z"
     style=""
     id="path848" /><path
     d="m 42.628709,341.51701 v 0.0773 q 0,1.19094 -0.943467,1.91787 -0.943466,0.72694 -2.521066,0.72694 -1.5776,0 -2.567467,-0.81974 -0.989867,-0.8352 -0.989867,-2.2736 v -1.9488 q 0,-1.51573 0.989867,-2.42827 0.989867,-0.91253 2.552,-0.91253 1.562133,0 2.536533,0.91253 0.9744,0.89707 0.9744,2.44374 v 1.37653 h -5.552533 v 0.464 q 0,0.91253 0.5568,1.392 0.572267,0.464 1.500267,0.464 1.964266,0 1.964266,-1.392 z m -1.453867,-2.088 v -0.24747 q 0,-0.95893 -0.541333,-1.46933 -0.525867,-0.52587 -1.4848,-0.52587 -0.958933,0 -1.500267,0.52587 -0.541333,0.52587 -0.541333,1.4848 v 0.232 z m -1.4384,-4.71733 h -1.732266 l 1.5776,-2.11894 h 2.010666 z"
     style=""
     id="path850" /><path
     d="m 51.170412,338.56288 h -1.546667 q 0,-1.392 -1.825067,-1.392 -0.866133,0 -1.330133,0.30933 -0.448533,0.30933 -0.448533,0.81973 0,0.47947 0.386666,0.7424 0.386667,0.26294 0.958934,0.3248 0.572266,0.0619 1.237333,0.1856 0.680533,0.12374 1.2528,0.29387 0.572267,0.15467 0.958933,0.63413 0.386667,0.47947 0.386667,1.2528 0,1.14454 -0.912533,1.82507 -0.912534,0.66507 -2.5056,0.66507 -1.608534,0 -2.536534,-0.72693 -0.912533,-0.72694 -0.912533,-1.91787 v -0.0773 h 1.593067 q 0,1.40747 1.886933,1.40747 0.897067,0 1.376533,-0.29386 0.494934,-0.30934 0.494934,-0.81974 0,-0.5104 -0.541334,-0.7424 -0.525866,-0.232 -1.283733,-0.3248 -0.757867,-0.0928 -1.5312,-0.24747 -0.757867,-0.15466 -1.2992,-0.68053 -0.525867,-0.54133 -0.525867,-1.46933 0,-1.14454 0.8816,-1.8096 0.897067,-0.66507 2.443734,-0.66507 1.593066,0 2.4592,0.72693 0.8816,0.71147 0.8816,1.91787 z"
     style=""
     id="path852" /><path
     d="m 59.907876,341.51701 v 0.0773 q 0,1.19094 -0.943466,1.91787 -0.943467,0.72694 -2.521067,0.72694 -1.5776,0 -2.567467,-0.81974 -0.989867,-0.8352 -0.989867,-2.2736 v -1.9488 q 0,-1.51573 0.989867,-2.42827 0.989867,-0.91253 2.552,-0.91253 1.562134,0 2.536534,0.91253 0.9744,0.89707 0.9744,2.44374 v 1.37653 h -5.552534 v 0.464 q 0,0.91253 0.5568,1.392 0.572267,0.464 1.500267,0.464 1.964267,0 1.964267,-1.392 z m -1.453866,-2.088 v -0.24747 q 0,-0.95893 -0.541334,-1.46933 -0.525867,-0.52587 -1.4848,-0.52587 -0.958933,0 -1.500267,0.52587 -0.541333,0.52587 -0.541333,1.4848 v 0.232 z"
     style=""
     id="path854" /><path
     d="m 69.362112,344.09995 h -1.794133 l -2.32,-4.09867 -1.747734,1.82506 v 2.27361 h -1.546666 v -11.50721 h 1.546666 v 7.3312 l 3.650134,-3.95946 h 2.057067 l -2.799467,2.90773 z"
     style=""
     id="path856" /><path
     d="m -15.680872,361.03595 v -1.03627 h -2.428266 q -1.546667,0 -1.546667,1.17547 0,0.47946 0.2784,0.75786 0.2784,0.26294 0.7888,0.26294 0.757867,0 1.5776,-0.44854 z m 1.546667,2.39733 h -1.546667 v -1.05173 l -0.897066,0.49493 q -1.2064,0.6496 -2.2736,0.6496 -1.0672,0 -1.732267,-0.63413 -0.6496,-0.63414 -0.6496,-1.65494 0,-1.19093 0.819733,-1.82506 0.8352,-0.63414 2.1344,-0.63414 h 2.613867 v -0.5104 q 0,-1.77866 -1.871467,-1.77866 -1.979733,0 -1.979733,1.59306 h -1.5312 v -0.0773 q 0,-1.33013 0.958933,-2.088 0.9744,-0.75787 2.536534,-0.75787 1.608533,0 2.5056,0.80427 0.912533,0.7888 0.912533,2.2272 z"
     style=""
     id="path858" /><path
     d="m -3.0388056,363.43328 h -1.0208001 q -1.392,0 -2.1962667,-0.71147 -0.8042667,-0.71146 -0.8042667,-2.07253 v -3.9904 h -1.2992001 v -1.36107 h 1.3146668 v -2.19626 h 1.5776 v 2.19626 h 2.3664001 v 1.36107 h -2.3664001 v 3.91307 q 0,0.80426 0.3557334,1.14453 0.3712,0.3248 1.1445333,0.3248 h 0.9280001 z"
     style=""
     id="path860" /><path
     d="m 5.0761164,360.85035 v 0.0773 q 0,1.19093 -0.9434667,1.91787 -0.9434667,0.72693 -2.5210667,0.72693 -1.5776001,0 -2.5674668,-0.81973 -0.9898667,-0.8352 -0.9898667,-2.2736 v -1.9488 q 0,-1.51574 0.9898667,-2.42827 0.9898667,-0.91253 2.5520001,-0.91253 1.5621334,0 2.5365334,0.91253 0.9744,0.89707 0.9744,2.44373 v 1.37654 h -5.55253348 v 0.464 q 0,0.91253 0.55680002,1.392 0.57226668,0.464 1.50026676,0.464 1.9642667,0 1.9642667,-1.392 z m -1.4538667,-2.088 v -0.24747 q 0,-0.95893 -0.5413334,-1.46933 -0.5258667,-0.52587 -1.4848,-0.52587 -0.95893338,0 -1.50026673,0.52587 -0.54133335,0.52586 -0.54133335,1.4848 v 0.232 z M 2.1838496,354.04501 H 0.45158291 L 2.029183,351.92608 h 2.0106667 z"
     style=""
     id="path862" /><path
     d="M 8.7030544,363.43328 H 7.1254543 v -8.13547 H 8.672121 v 1.23734 l 0.3712,-0.3712 q 0.9744,-0.89707 2.118933,-0.89707 h 0.4176 v 1.60853 h -0.402133 q -1.051733,0 -1.7941333,0.61867 l -0.6805333,0.5568 z"
     style=""
     id="path864" /><path
     d="m 20.333989,363.43328 h -1.794133 l -2.32,-4.09867 -1.747734,1.82507 v 2.2736 h -1.546667 v -11.5072 h 1.546667 v 7.3312 l 3.650134,-3.95947 h 2.057066 l -2.799466,2.90774 z"
     style=""
     id="path866" /><path
     d="m 28.215702,360.85035 v 0.0773 q 0,1.19093 -0.943467,1.91787 -0.943467,0.72693 -2.521067,0.72693 -1.5776,0 -2.567466,-0.81973 -0.989867,-0.8352 -0.989867,-2.2736 v -1.9488 q 0,-1.51574 0.989867,-2.42827 0.989866,-0.91253 2.552,-0.91253 1.562133,0 2.536533,0.91253 0.9744,0.89707 0.9744,2.44373 v 1.37654 h -5.552533 v 0.464 q 0,0.91253 0.5568,1.392 0.572266,0.464 1.500266,0.464 1.964267,0 1.964267,-1.392 z m -1.453867,-2.088 v -0.24747 q 0,-0.95893 -0.541333,-1.46933 -0.525867,-0.52587 -1.4848,-0.52587 -0.958934,0 -1.500267,0.52587 -0.541333,0.52586 -0.541333,1.4848 v 0.232 z m -1.4384,-4.71734 h -1.732267 l 1.5776,-2.11893 h 2.010667 z"
     style=""
     id="path868" /><path
     d="m 35.941307,360.58741 v -2.4592 q 0,-0.68053 -0.386667,-1.08266 -0.386667,-0.4176 -1.036267,-0.4176 -0.6496,0 -1.283733,0.35573 l -1.4384,0.80427 v 3.13973 l 1.4384,0.80427 q 0.634133,0.35573 1.283733,0.35573 0.6496,0 1.036267,-0.40213 0.386667,-0.4176 0.386667,-1.09814 z m -4.145067,5.69174 h -1.5312 v -10.98134 h 1.515733 v 0.98987 l 1.005334,-0.5568 q 0.928,-0.52587 1.933333,-0.52587 1.221867,0 1.979733,0.75787 0.773334,0.75787 0.773334,1.97973 v 2.784 q 0,1.22187 -0.773334,2.01067 -0.773333,0.77333 -1.9952,0.77333 -0.989866,0 -1.917866,-0.52586 l -0.989867,-0.5568 z"
     style=""
     id="path870" /><path
     d="m 46.314121,360.85035 v 0.0773 q 0,1.19093 -0.943467,1.91787 -0.943466,0.72693 -2.521066,0.72693 -1.5776,0 -2.567467,-0.81973 -0.989867,-0.8352 -0.989867,-2.2736 v -1.9488 q 0,-1.51574 0.989867,-2.42827 0.989867,-0.91253 2.552,-0.91253 1.562133,0 2.536533,0.91253 0.9744,0.89707 0.9744,2.44373 v 1.37654 h -5.552533 v 0.464 q 0,0.91253 0.5568,1.392 0.572267,0.464 1.500267,0.464 1.964266,0 1.964266,-1.392 z m -1.453867,-2.088 v -0.24747 q 0,-0.95893 -0.541333,-1.46933 -0.525867,-0.52587 -1.4848,-0.52587 -0.958933,0 -1.500267,0.52587 -0.541333,0.52586 -0.541333,1.4848 v 0.232 z"
     style=""
     id="path872" /><path
     d="m 55.242498,363.43328 h -1.5776 v -5.4288 q 0,-0.58773 -0.3248,-0.95893 -0.309333,-0.38667 -0.8816,-0.38667 -0.525867,0 -1.221867,0.40213 l -1.330133,0.7888 v 5.58347 h -1.546667 v -8.13547 h 1.5312 v 1.0672 l 0.928,-0.57226 q 0.912534,-0.57227 1.933334,-0.57227 1.144533,0 1.8096,0.71147 0.680533,0.71146 0.680533,1.88693 z"
     style=""
     id="path874" /></g>





</g></g></svg>