<?xml version="1.0" encoding="UTF-8" standalone="no"?>
<!-- Generator: Adobe Illustrator 19.1.0, SVG Export Plug-In . SVG Version: 6.00 Build 0)  -->

<svg
   xmlns:dc="http://purl.org/dc/elements/1.1/"
   xmlns:cc="http://creativecommons.org/ns#"
   xmlns:rdf="http://www.w3.org/1999/02/22-rdf-syntax-ns#"
   xmlns:svg="http://www.w3.org/2000/svg"
   xmlns="http://www.w3.org/2000/svg"
   xmlns:sodipodi="http://sodipodi.sourceforge.net/DTD/sodipodi-0.dtd"
   xmlns:inkscape="http://www.inkscape.org/namespaces/inkscape"
   version="1.1"
   id="Calque_1"
   x="0px"
   y="0px"
   viewBox="-33.6 228.6 138.7 138.7"
   style="enable-background:new -33.6 228.6 138.7 138.7;"
   xml:space="preserve"
   sodipodi:docname="main_menu_logo_map-de.svg"
   inkscape:version="0.92.2 5c3e80d, 2017-08-06"><metadata
     id="metadata105"><rdf:RDF><cc:Work
         rdf:about=""><dc:format>image/svg+xml</dc:format><dc:type
           rdf:resource="http://purl.org/dc/dcmitype/StillImage" /><dc:title /></cc:Work></rdf:RDF></metadata><defs
     id="defs103" /><sodipodi:namedview
     pagecolor="#ffffff"
     bordercolor="#666666"
     borderopacity="1"
     objecttolerance="10"
     gridtolerance="10"
     guidetolerance="10"
     inkscape:pageopacity="0"
     inkscape:pageshadow="2"
     inkscape:window-width="1827"
     inkscape:window-height="1086"
     id="namedview101"
     showgrid="false"
     inkscape:zoom="5"
     inkscape:cx="36.199515"
     inkscape:cy="69.349998"
     inkscape:window-x="369"
     inkscape:window-y="152"
     inkscape:window-maximized="0"
     inkscape:current-layer="Calque_1" /><style
     type="text/css"
     id="style2">
	.st0{fill:#D3D501;}
	.st1{fill:#FFFFFF;}
	.st2{fill:#7A9C2B;}
	.st3{fill:#E8E493;}
	.st4{fill:#40637D;}
	.st5{fill:#5E9EB5;}
	.st6{fill:#D0A82B;}
	.st7{fill:#559973;}
	.st8{fill:#00662C;}
</style><g
     id="g36"><g
       id="g30"><path
         class="st1"
         d="M24.1,315.9c0,0.4,0.2,0.8,0.6,1s0.8,0.2,1.2-0.1l7.7-5.3l-9.5-4.5L24.1,315.9L24.1,315.9z"
         id="path28" /></g><g
       id="g34"><path
         class="st1"
         d="M70,256.5c-0.2-0.2-0.5-0.3-0.8-0.3c-0.2,0-0.3,0-0.5,0.1L2.1,289c-0.7,0.3-1.1,1-1.1,1.8s0.4,1.5,1.1,1.8    l17.6,8.4l35.1-28.9L24,303l21.9,10.4c0.3,0.1,0.6,0.2,0.9,0.2c0.2,0,0.5,0,0.7-0.1c0.5-0.2,0.9-0.6,1.1-1.1l21.7-54.6    C70.5,257.3,70.4,256.8,70,256.5"
         id="path32" /></g></g><path
     style="fill:#5e9eb5"
     d="M 105.1,298.09998 A 69.099998,69.099998 0 0 1 36,367.19997 69.099998,69.099998 0 0 1 -33.099998,298.09998 69.099998,69.099998 0 0 1 36,228.99998 a 69.099998,69.099998 0 0 1 69.1,69.1 z"
     id="circle38" /><g
     id="g54"><path
       class="st1"
       d="M30.5,268.5H10.7c-0.8,0-1.5,0.5-1.7,1.3l-3.8,13.1l26.6,2.9l2.1-10C32.6,273.5,31.4,271,30.5,268.5   L30.5,268.5z"
       id="path40" /><path
       class="st1"
       d="M55.4,288.4l8,0.9L61,281c-0.3,0.5-0.6,0.9-1,1.4C58.4,284.7,56.8,286.7,55.4,288.4L55.4,288.4z"
       id="path42" /><g
       id="g52"><path
         class="st1"
         d="M38,282.3l-0.9,4.1l4.3,0.5C40.4,285.5,39.3,284,38,282.3C38.1,282.4,38.1,282.3,38,282.3L38,282.3z"
         id="path44" /><path
         class="st1"
         d="M0.1,300.6c-0.2,0.5,0,1.1,0.3,1.6c0.3,0.4,0.9,0.7,1.4,0.7h26.4l2.5-11.8l-27-3L0.1,300.6z"
         id="path46" /><path
         class="st1"
         d="M65,294.8l-28.9-3.2l-2.3,11.2H65c1,0,1.8-0.8,1.8-1.8c0-0.2,0-0.4-0.1-0.6L65,294.8z"
         id="path48" /><path
         class="st1"
         d="M48.3,290.7c0.2,0.2,0.5,0.3,0.7,0.3c0.3,0,0.5-0.1,0.7-0.3c1.6-1.7,4.8-5.3,8-9.8c4-5.7,8.9-14.1,8.9-21.5    c0-9.7-7.9-17.7-17.7-17.7c-9.7,0-17.7,7.9-17.7,17.7c0,7.5,4.8,15.8,8.9,21.5C43.5,285.4,46.7,288.9,48.3,290.7L48.3,290.7z     M49.1,248.3c5.9,0,10.8,4.8,10.8,10.8c0,5.9-4.8,10.8-10.8,10.8c-5.9,0-10.8-4.8-10.8-10.8C38.3,253.1,43.1,248.3,49.1,248.3    L49.1,248.3z"
         id="path50" /></g></g><g
     id="g98"
     transform="translate(18,-10)"><g
       id="g96"><g
         aria-label="Sichtungskarte"
         style="font-style:normal;font-variant:normal;font-weight:normal;font-stretch:normal;font-size:15.92933273px;line-height:1.25;font-family:KonsensMedium;-inkscape-font-specification:'KonsensMedium, Normal';font-variant-ligatures:normal;font-variant-caps:normal;font-variant-numeric:normal;font-feature-settings:normal;text-align:start;letter-spacing:0px;word-spacing:0px;writing-mode:lr-tb;text-anchor:start;fill:#000000;fill-opacity:1;stroke:none"
         id="text6172"><path
           d="m -30.724766,335.75297 h -1.784086 q 0,-2.18231 -2.628339,-2.18231 -1.226559,0 -1.895591,0.50973 -0.669032,0.49381 -0.669032,1.36993 0,0.62124 0.382304,1.01947 0.398233,0.38231 1.019477,0.57346 0.621244,0.19115 1.369923,0.31859 0.764608,0.12743 1.513286,0.33451 0.748679,0.19116 1.369923,0.50974 0.621244,0.30266 1.003548,0.95576 0.398233,0.6531 0.398233,1.59294 0,1.59293 -1.226558,2.53276 -1.21063,0.9239 -3.281443,0.9239 -2.118601,0 -3.313301,-0.90797 -1.178771,-0.9239 -1.178771,-2.69206 v -0.0956 h 1.784086 q 0,2.19824 2.723916,2.19824 1.290275,0 1.991166,-0.49381 0.71682,-0.50973 0.71682,-1.38585 0,-0.60531 -0.398233,-0.98762 -0.382304,-0.39823 -1.003548,-0.57345 -0.605315,-0.19115 -1.353993,-0.31859 -0.748679,-0.14336 -1.513287,-0.33452 -0.748679,-0.20708 -1.369923,-0.52566 -0.605314,-0.33452 -1.003548,-0.98762 -0.382304,-0.6531 -0.382304,-1.60886 0,-1.57701 1.162842,-2.50091 1.17877,-0.93983 3.169937,-0.93983 2.086742,0 3.233654,0.9239 1.162842,0.90797 1.162842,2.67613 z"
           style="font-style:normal;font-variant:normal;font-weight:normal;font-stretch:normal;font-size:15.92933273px;font-family:KonsensMedium;-inkscape-font-specification:'KonsensMedium, Normal';font-variant-ligatures:normal;font-variant-caps:normal;font-variant-numeric:normal;font-feature-settings:normal;text-align:center;writing-mode:lr-tb;text-anchor:middle;fill:#ffffff"
           id="path831" /><path
           d="m -26.891522,344.09995 h -1.640721 v -8.37883 h 1.640721 z m 0.111505,-11.11868 v 0.33452 q 0,0.36637 -0.270798,0.58938 -0.25487,0.22301 -0.653103,0.22301 -0.430092,0 -0.684961,-0.20708 -0.25487,-0.22301 -0.25487,-0.60531 v -0.33452 q 0,-0.3823 0.25487,-0.58938 0.254869,-0.22302 0.684961,-0.22302 0.398233,0 0.653103,0.22302 0.270798,0.22301 0.270798,0.58938 z"
           style="font-style:normal;font-variant:normal;font-weight:normal;font-stretch:normal;font-size:15.92933273px;font-family:KonsensMedium;-inkscape-font-specification:'KonsensMedium, Normal';font-variant-ligatures:normal;font-variant-caps:normal;font-variant-numeric:normal;font-feature-settings:normal;text-align:center;writing-mode:lr-tb;text-anchor:middle;fill:#ffffff"
           id="path833" /><path
           d="m -17.701044,340.99373 v 0.12743 q 0,1.49736 -0.95576,2.30975 -0.95576,0.8124 -2.596481,0.8124 -1.592934,0 -2.564623,-0.86018 -0.95576,-0.87612 -0.95576,-2.40533 v -2.11861 q 0,-1.51328 0.95576,-2.37347 0.971689,-0.87611 2.564623,-0.87611 1.640721,0 2.596481,0.8124 0.95576,0.79646 0.95576,2.29382 v 0.12744 h -1.561075 q 0,-1.81595 -1.991166,-1.81595 -1.92745,0 -1.92745,1.97524 v 1.83187 q 0,1.97524 1.92745,1.97524 1.991166,0 1.991166,-1.81594 z"
           style="font-style:normal;font-variant:normal;font-weight:normal;font-stretch:normal;font-size:15.92933273px;font-family:KonsensMedium;-inkscape-font-specification:'KonsensMedium, Normal';font-variant-ligatures:normal;font-variant-caps:normal;font-variant-numeric:normal;font-feature-settings:normal;text-align:center;writing-mode:lr-tb;text-anchor:middle;fill:#ffffff"
           id="path835" /><path
           d="m -8.5951893,344.09995 h -1.6247917 v -5.5912 q 0,-0.62124 -0.334516,-1.00355 -0.334516,-0.3823 -0.907972,-0.3823 -0.541598,0 -1.258418,0.41416 l -1.369922,0.8124 v 5.75049 h -1.592933 v -11.85143 h 1.592933 v 4.57172 l 0.939831,-0.58939 q 0.987618,-0.58938 1.991166,-0.58938 1.1787707,0 1.863732,0.73275 0.7008907,0.73275 0.7008907,1.94338 z"
           style="font-style:normal;font-variant:normal;font-weight:normal;font-stretch:normal;font-size:15.92933273px;font-family:KonsensMedium;-inkscape-font-specification:'KonsensMedium, Normal';font-variant-ligatures:normal;font-variant-caps:normal;font-variant-numeric:normal;font-feature-settings:normal;text-align:center;writing-mode:lr-tb;text-anchor:middle;fill:#ffffff"
           id="path837" /><path
           d="m -1.6980379,344.09995 h -1.0513359 q -1.43364,0 -2.2619653,-0.73275 -0.8283253,-0.73275 -0.8283253,-2.13453 v -4.10977 h -1.3380639 v -1.40178 h 1.3539932 v -2.26197 h 1.624792 v 2.26197 h 2.4371879 v 1.40178 h -2.4371879 v 4.03012 q 0,0.82832 0.3663746,1.17877 0.382304,0.33452 1.1787707,0.33452 h 0.9557599 z"
           style="font-style:normal;font-variant:normal;font-weight:normal;font-stretch:normal;font-size:15.92933273px;font-family:KonsensMedium;-inkscape-font-specification:'KonsensMedium, Normal';font-variant-ligatures:normal;font-variant-caps:normal;font-variant-numeric:normal;font-feature-settings:normal;text-align:center;writing-mode:lr-tb;text-anchor:middle;fill:#ffffff"
           id="path839" /><path
           d="M 6.9744884,344.09995 H 5.3974845 v -1.09913 l -0.95576,0.58939 q -1.003548,0.60531 -1.9911666,0.58938 -1.1787706,0 -1.87966124,-0.71682 -0.68496131,-0.73275 -0.68496131,-1.94338 v -5.79827 H 1.5107273 v 5.60712 q 0,0.62125 0.334516,1.00355 0.334516,0.36637 0.9079719,0.36637 0.5415974,0 1.2584173,-0.41416 l 1.3699226,-0.81239 v -5.75049 h 1.5929333 z"
           style="font-style:normal;font-variant:normal;font-weight:normal;font-stretch:normal;font-size:15.92933273px;font-family:KonsensMedium;-inkscape-font-specification:'KonsensMedium, Normal';font-variant-ligatures:normal;font-variant-caps:normal;font-variant-numeric:normal;font-feature-settings:normal;text-align:center;writing-mode:lr-tb;text-anchor:middle;fill:#ffffff"
           id="path841" /><path
           d="m 16.356618,344.09995 h -1.624792 v -5.5912 q 0,-0.60532 -0.334516,-0.98762 -0.318587,-0.39823 -0.907972,-0.39823 -0.541598,0 -1.258417,0.41416 l -1.369923,0.8124 v 5.75049 H 9.2680646 v -8.37883 h 1.5770044 v 1.09912 l 0.95576,-0.58939 q 0.93983,-0.58938 1.991166,-0.58938 1.178771,0 1.863732,0.73275 0.700891,0.73275 0.700891,1.94338 z"
           style="font-style:normal;font-variant:normal;font-weight:normal;font-stretch:normal;font-size:15.92933273px;font-family:KonsensMedium;-inkscape-font-specification:'KonsensMedium, Normal';font-variant-ligatures:normal;font-variant-caps:normal;font-variant-numeric:normal;font-feature-settings:normal;text-align:center;writing-mode:lr-tb;text-anchor:middle;fill:#ffffff"
           id="path843" /><path
           d="m 23.126336,343.46277 h -2.86728 v 0.36638 q 0,1.0354 0.49381,1.52921 0.509738,0.50974 1.720368,0.50974 2.261965,0 2.261965,-1.33806 0,-0.58939 -0.414163,-0.82833 -0.398233,-0.23894 -1.1947,-0.23894 z m -1.481428,-3.67967 h 0.653103 q 1.784085,0 1.784085,-1.40179 0,-1.35399 -1.608862,-1.35399 h -0.780538 q -0.812396,0 -1.226558,0.31859 -0.414163,0.30266 -0.414163,1.08319 0,1.354 1.592933,1.354 z m 0.812396,1.22655 h -2.469046 q -0.637173,0 -0.637173,0.60532 0,0.58938 0.605314,0.58938 h 3.34516 q 2.978785,0 2.978785,2.2779 0,1.27435 -1.035406,1.95931 -1.035407,0.70089 -2.755775,0.70089 -3.679676,0 -3.679676,-3.23366 v -0.81239 q -0.828325,-0.38231 -0.828325,-1.48143 0,-0.63717 0.318587,-1.05134 0.318586,-0.41416 0.844254,-0.55752 -0.06372,-0.0478 -0.175222,-0.1593 -0.09558,-0.12743 -0.270799,-0.54159 -0.175223,-0.41417 -0.175223,-0.90798 0,-1.3062 0.812396,-1.99116 0.812396,-0.68496 2.198248,-0.68496 h 4.7788 v 1.38585 h -1.258417 q 0.493809,0.35044 0.493809,1.3062 0,1.21063 -0.844255,1.91152 -0.828325,0.68496 -2.246036,0.68496 z"
           style="font-style:normal;font-variant:normal;font-weight:normal;font-stretch:normal;font-size:15.92933273px;font-family:KonsensMedium;-inkscape-font-specification:'KonsensMedium, Normal';font-variant-ligatures:normal;font-variant-caps:normal;font-variant-numeric:normal;font-feature-settings:normal;text-align:center;writing-mode:lr-tb;text-anchor:middle;fill:#ffffff"
           id="path845" /><path
           d="m 34.438899,338.39724 h -1.592933 q 0,-1.43364 -1.879662,-1.43364 -0.892042,0 -1.369922,0.31859 -0.461951,0.31859 -0.461951,0.84426 0,0.4938 0.398233,0.7646 0.398234,0.2708 0.987619,0.33452 0.589385,0.0637 1.274347,0.19115 0.70089,0.12744 1.290276,0.30266 0.589385,0.15929 0.987618,0.6531 0.398234,0.49381 0.398234,1.29028 0,1.17877 -0.939831,1.87966 -0.939831,0.68496 -2.580552,0.68496 -1.656651,0 -2.612411,-0.74868 -0.93983,-0.74868 -0.93983,-1.97524 v -0.0796 h 1.640721 q 0,1.44957 1.943379,1.44957 0.923901,0 1.41771,-0.30266 0.509739,-0.31859 0.509739,-0.84426 0,-0.52566 -0.557527,-0.7646 -0.541597,-0.23894 -1.322134,-0.33452 -0.780538,-0.0956 -1.577004,-0.25487 -0.780538,-0.15929 -1.338064,-0.70089 -0.541598,-0.55753 -0.541598,-1.51329 0,-1.17877 0.907972,-1.86373 0.923902,-0.68496 2.516835,-0.68496 1.640721,0 2.532764,0.74868 0.907972,0.73275 0.907972,1.97524 z"
           style="font-style:normal;font-variant:normal;font-weight:normal;font-stretch:normal;font-size:15.92933273px;font-family:KonsensMedium;-inkscape-font-specification:'KonsensMedium, Normal';font-variant-ligatures:normal;font-variant-caps:normal;font-variant-numeric:normal;font-feature-settings:normal;text-align:center;writing-mode:lr-tb;text-anchor:middle;fill:#ffffff"
           id="path847" /><path
           d="m 44.058974,344.09995 h -1.847803 l -2.3894,-4.22128 -1.800014,1.87966 v 2.34162 h -1.592933 v -11.85143 h 1.592933 v 7.55051 l 3.759322,-4.07791 h 2.118602 l -2.88321,2.99471 z"
           style="font-style:normal;font-variant:normal;font-weight:normal;font-stretch:normal;font-size:15.92933273px;font-family:KonsensMedium;-inkscape-font-specification:'KonsensMedium, Normal';font-variant-ligatures:normal;font-variant-caps:normal;font-variant-numeric:normal;font-feature-settings:normal;text-align:center;writing-mode:lr-tb;text-anchor:middle;fill:#ffffff"
           id="path849" /><path
           d="m 50.834661,341.6309 v -1.06727 h -2.500906 q -1.592933,0 -1.592933,1.21063 0,0.49381 0.286728,0.78054 0.286728,0.2708 0.812396,0.2708 0.780537,0 1.624792,-0.46195 z m 1.592933,2.46905 h -1.592933 v -1.0832 l -0.923902,0.50974 q -1.242488,0.66903 -2.341612,0.66903 -1.099124,0 -1.784085,-0.6531 -0.669032,-0.6531 -0.669032,-1.70444 0,-1.22656 0.844255,-1.87966 0.860184,-0.6531 2.198248,-0.6531 h 2.692057 v -0.52567 q 0,-1.83188 -1.927449,-1.83188 -2.038955,0 -2.038955,1.64073 h -1.577004 v -0.0796 q 0,-1.36992 0.987619,-2.15046 1.003548,-0.78054 2.61241,-0.78054 1.656651,0 2.580552,0.82833 0.939831,0.81239 0.939831,2.29382 z"
           style="font-style:normal;font-variant:normal;font-weight:normal;font-stretch:normal;font-size:15.92933273px;font-family:KonsensMedium;-inkscape-font-specification:'KonsensMedium, Normal';font-variant-ligatures:normal;font-variant-caps:normal;font-variant-numeric:normal;font-feature-settings:normal;text-align:center;writing-mode:lr-tb;text-anchor:middle;fill:#ffffff"
           id="path851" /><path
           d="m 56.191898,344.09995 h -1.624792 v -8.37883 h 1.592934 v 1.27434 l 0.382304,-0.3823 q 1.003548,-0.9239 2.182318,-0.9239 h 0.430092 v 1.65665 h -0.414162 q -1.083195,0 -1.847803,0.63717 l -0.700891,0.57346 z"
           style="font-style:normal;font-variant:normal;font-weight:normal;font-stretch:normal;font-size:15.92933273px;font-family:KonsensMedium;-inkscape-font-specification:'KonsensMedium, Normal';font-variant-ligatures:normal;font-variant-caps:normal;font-variant-numeric:normal;font-feature-settings:normal;text-align:center;writing-mode:lr-tb;text-anchor:middle;fill:#ffffff"
           id="path853" /><path
           d="M 65.223826,344.09995 H 64.17249 q -1.43364,0 -2.261966,-0.73275 -0.828325,-0.73275 -0.828325,-2.13453 v -4.10977 h -1.338064 v -1.40178 h 1.353993 v -2.26197 h 1.624792 v 2.26197 h 2.437188 v 1.40178 H 62.72292 v 4.03012 q 0,0.82832 0.366375,1.17877 0.382304,0.33452 1.178771,0.33452 h 0.95576 z"
           style="font-style:normal;font-variant:normal;font-weight:normal;font-stretch:normal;font-size:15.92933273px;font-family:KonsensMedium;-inkscape-font-specification:'KonsensMedium, Normal';font-variant-ligatures:normal;font-variant-caps:normal;font-variant-numeric:normal;font-feature-settings:normal;text-align:center;writing-mode:lr-tb;text-anchor:middle;fill:#ffffff"
           id="path855" /><path
           d="m 73.896356,341.43975 v 0.0796 q 0,1.22656 -0.97169,1.97524 -0.971689,0.74868 -2.596481,0.74868 -1.624792,0 -2.644269,-0.84426 -1.019477,-0.86018 -1.019477,-2.34161 v -2.00709 q 0,-1.56108 1.019477,-2.50091 1.019477,-0.93983 2.62834,-0.93983 1.608863,0 2.61241,0.93983 1.003548,0.9239 1.003548,2.51684 v 1.41771 h -5.71863 v 0.47788 q 0,0.93983 0.573456,1.43364 0.589385,0.47788 1.545145,0.47788 2.023026,0 2.023026,-1.43364 z m -1.497357,-2.15046 v -0.25487 q 0,-0.98762 -0.557527,-1.51329 -0.541597,-0.5416 -1.529216,-0.5416 -0.987619,0 -1.545145,0.5416 -0.557527,0.5416 -0.557527,1.52922 v 0.23894 z"
           style="font-style:normal;font-variant:normal;font-weight:normal;font-stretch:normal;font-size:15.92933273px;font-family:KonsensMedium;-inkscape-font-specification:'KonsensMedium, Normal';font-variant-ligatures:normal;font-variant-caps:normal;font-variant-numeric:normal;font-feature-settings:normal;text-align:center;writing-mode:lr-tb;text-anchor:middle;fill:#ffffff"
           id="path857" /></g></g></g></svg>